P2
60 28
255
148
174
191
200
208
205
211
209
206
214
213
220
214
202
209
204
199
203
198
193
185
179
164
146
139
130
128
123
117
120
112
111
110
110
117
111
109
108
108
120
122
127
131
137
150
148
157
162
165
181
183
195
203
209
224
222
233
236
230
236
150
173
189
195
208
206
206
209
206
211
212
213
208
202
208
202
193
191
185
183
171
160
151
139
139
131
127
126
118
119
118
120
123
116
119
118
119
121
116
122
125
129
136
135
143
146
146
158
161
175
181
190
203
203
220
225
229
240
233
240
150
168
185
199
204
210
203
204
209
205
208
201
198
199
192
190
183
177
175
162
158
150
147
146
140
145
142
141
143
135
136
137
137
136
129
132
130
131
135
132
139
135
138
145
141
149
148
151
161
164
179
183
191
207
209
227
233
233
238
238
148
167
183
203
205
209
205
198
204
203
203
198
194
197
187
181
173
165
165
159
161
161
158
168
168
169
171
167
165
158
159
161
157
155
148
146
145
143
149
146
150
152
148
155
149
153
154
149
161
164
175
184
187
208
212
227
242
237
241
241
140
166
188
202
212
204
202
199
199
204
191
186
187
186
186
170
167
170
172
178
172
176
178
179
190
184
189
188
180
183
174
176
172
164
162
152
155
154
148
155
152
154
152
151
160
155
160
160
157
169
170
183
195
200
222
234
243
247
240
244
142
168
194
203
211
202
196
199
199
199
185
178
182
179
183
176
174
182
182
188
190
196
204
200
205
201
199
203
197
200
190
184
186
177
174
164
157
155
146
152
151
149
153
149
157
160
160
166
161
169
172
180
197
202
226
242
245
249
246
249
151
170
190
204
201
202
194
193
195
186
180
172
175
181
182
188
186
189
195
196
206
205
208
215
210
217
213
212
212
201
204
197
196
195
181
179
163
155
156
148
153
149
147
150
146
153
154
159
168
167
179
184
196
219
229
244
250
250
251
246
154
179
191
203
201
203
200
192
189
178
174
172
175
188
190
194
194
194
206
206
212
216
218
229
222
223
222
215
222
214
211
211
207
208
192
185
175
161
161
152
149
149
144
149
144
143
147
149
163
166
176
187
197
226
235
242
250
249
253
252
155
181
194
196
204
201
197
190
180
177
168
173
181
185
196
193
198
201
202
211
209
217
218
216
224
218
222
220
217
221
211
212
207
195
194
181
176
169
158
158
146
145
145
141
144
137
142
146
151
169
172
183
198
217
240
246
250
252
251
252
159
183
198
198
206
203
195
185
173
171
172
182
191
188
194
193
194
199
199
212
217
217
220
213
220
216
213
219
209
210
205
201
198
180
178
173
168
167
153
151
146
140
141
134
138
138
138
148
149
161
167
177
202
218
240
249
249
253
252
253
163
182
196
203
200
200
191
181
177
177
189
194
193
192
189
195
192
197
206
204
214
212
214
216
208
212
204
198
198
187
184
172
162
156
146
148
142
138
138
129
132
125
128
133
126
136
137
141
152
153
162
171
193
222
233
246
252
252
254
254
168
186
193
202
202
200
186
174
178
180
190
191
183
188
185
191
194
191
203
202
210
212
205
211
197
188
178
162
163
150
140
133
122
124
118
118
119
110
111
107
112
118
118
129
125
127
135
138
150
153
163
175
186
216
230
241
251
251
254
254
164
186
196
198
205
198
191
181
179
188
186
190
187
182
191
190
196
197
197
204
200
201
194
180
168
147
137
128
119
116
107
104
101
99
101
99
107
110
108
110
100
105
109
110
123
124
129
136
143
157
161
176
190
202
226
243
251
252
252
254
171
187
196
197
204
200
192
186
181
189
191
192
193
184
188
189
192
200
195
197
192
181
165
137
130
127
123
120
106
97
90
86
88
84
89
86
84
95
99
110
114
111
112
106
117
123
123
134
142
158
168
178
194
205
231
247
248
253
251
252
171
184
195
204
202
203
192
184
187
186
188
184
186
188
186
196
194
195
197
182
169
145
130
129
131
130
113
103
107
105
98
94
97
100
103
104
90
85
95
99
110
113
115
121
119
126
129
135
149
156
172
182
191
211
224
243
252
252
251
248
171
191
193
202
202
201
193
184
189
185
182
181
180
189
185
191
196
188
183
159
134
128
131
135
126
120
115
115
141
147
122
104
92
89
101
119
111
94
106
113
109
110
112
123
127
133
139
144
161
166
173
187
195
218
230
240
250
246
250
253
163
186
195
198
205
198
195
189
185
186
179
183
183
181
189
189
193
182
149
125
123
137
130
118
129
152
158
143
137
137
126
105
84
77
96
120
117
103
115
137
127
111
106
114
133
141
150
159
167
181
181
192
206
216
234
239
246
251
247
249
159
181
195
196
202
198
195
195
188
190
186
185
190
185
193
196
186
158
115
111
128
124
115
124
154
188
187
145
117
122
126
104
71
59
91
128
125
110
120
145
139
112
104
102
121
146
164
176
176
189
192
195
212
217
235
247
244
248
244
246
156
175
188
199
197
198
193
192
192
188
191
188
189
195
192
191
161
123
116
125
127
111
115
143
169
195
200
157
113
114
122
116
103
101
120
132
118
112
135
150
144
118
106
109
108
140
176
195
207
204
207
205
211
226
230
244
246
243
244
241
146
175
188
198
196
197
198
195
199
194
193
190
187
196
189
167
131
109
126
131
123
116
125
149
173
200
218
188
132
118
128
131
134
138
137
127
111
118
148
150
138
126
114
121
119
134
178
204
222
216
211
216
215
230
235
239
245
239
246
245
141
170
186
193
201
195
200
200
191
195
190
189
190
190
183
141
116
124
136
146
142
148
150
154
174
194
216
210
169
131
121
126
128
132
128
116
126
145
150
153
143
142
145
152
174
183
200
212
211
216
211
218
224
225
236
236
242
246
242
248
138
166
187
191
199
198
199
202
194
195
192
190
195
186
163
129
127
144
144
160
172
177
181
174
177
187
196
198
185
166
152
146
148
152
159
162
173
187
180
180
180
180
191
196
212
218
215
212
205
217
220
216
226
224
230
235
234
244
246
249
129
158
180
196
198
201
201
200
195
188
192
190
186
172
147
143
144
148
159
165
182
186
192
195
187
192
189
190
196
196
203
202
202
202
196
200
196
195
197
190
193
193
195
206
207
215
213
206
212
216
223
217
222
232
223
233
239
241
246
242
116
147
174
195
198
202
203
198
200
196
195
191
179
167
154
157
160
159
174
181
192
201
201
209
203
196
192
183
184
186
188
186
184
189
183
184
186
182
193
194
196
204
206
214
213
213
210
206
224
226
221
227
221
231
232
235
245
240
246
244
101
139
176
193
204
199
203
201
195
200
195
191
180
166
166
163
172
181
191
207
206
209
212
210
211
199
194
190
183
183
175
178
178
179
193
188
195
198
195
207
204
212
219
216
218
208
212
220
224
232
223
226
227
223
235
234
241
246
240
244
102
131
176
194
203
201
201
205
200
200
195
194
193
180
175
178
192
208
211
221
220
214
213
208
209
204
200
203
199
207
204
204
216
209
213
209
203
211
207
214
219
219
225
221
223
222
222
234
228
227
225
222
231
227
238
244
240
247
244
246
107
125
166
202
203
201
202
203
205
198
200
199
195
188
180
198
209
215
225
220
224
222
220
227
227
236
236
234
237
228
228
224
221
222
214
220
213
209
216
215
226
226
226
231
220
228
236
236
237
222
224
224
225
236
235
245
249
249
249
244
103
121
161
203
204
203
205
201
202
201
207
205
198
202
201
214
224
221
229
232
241
246
241
243
244
248
248
242
242
233
230
231
224
229
229
230
231
218
223
223
224
233
232
238
237
239
241
232
235
225
221
228
222
233
239
243
252
249
251
250
