P2
60 28
255
226
218
176
98
49
35
32
31
21
15
42
87
120
135
138
136
124
102
85
83
83
78
78
82
81
82
80
76
73
66
59
53
51
50
50
54
55
52
48
44
53
71
83
91
99
108
111
115
127
134
139
142
144
145
143
149
155
155
155
150
228
222
189
118
55
26
24
24
20
28
65
107
129
137
140
133
112
95
95
99
92
84
82
87
92
100
103
101
111
118
109
91
75
62
55
55
52
51
55
49
48
58
71
82
87
96
104
106
119
130
132
137
138
139
141
140
142
144
146
141
226
225
197
130
62
33
25
22
22
40
74
111
135
137
136
120
103
107
113
103
95
99
105
105
110
117
122
122
125
135
137
139
130
110
94
78
65
59
53
47
47
51
57
67
80
86
95
101
104
115
125
128
128
128
132
135
140
140
134
128
226
231
211
164
95
41
25
28
31
53
92
123
139
140
129
110
104
103
95
98
107
113
122
120
121
121
121
124
125
130
132
133
129
116
110
109
105
93
80
72
61
55
58
58
67
82
90
99
105
112
119
122
127
130
137
136
132
137
133
122
225
227
233
203
121
42
18
26
37
57
99
132
140
135
115
107
108
93
88
101
116
118
115
122
123
130
136
138
142
136
135
135
129
124
114
110
107
101
98
92
87
77
70
72
71
82
95
96
104
110
113
117
126
136
134
131
129
127
127
117
228
227
232
214
142
51
16
26
34
61
116
142
140
135
120
112
114
115
110
105
109
114
118
125
121
116
116
110
112
115
114
116
110
108
107
105
102
99
104
103
99
96
88
86
89
93
101
102
106
109
110
116
124
131
131
129
131
132
133
118
226
227
230
228
178
88
26
23
40
77
121
140
143
130
114
106
106
110
111
112
115
118
118
115
113
110
111
111
109
110
109
108
106
105
101
95
95
92
89
98
103
101
99
97
96
94
96
100
108
111
106
111
122
127
134
136
137
138
125
113
226
228
224
225
191
106
31
19
40
81
125
145
143
128
120
114
107
107
111
115
118
115
113
108
102
102
103
106
102
95
90
85
81
79
75
74
71
71
72
76
88
97
104
107
104
97
94
97
98
104
108
110
118
126
133
138
138
134
121
118
223
222
226
228
214
128
38
17
38
86
133
147
136
121
115
110
105
106
114
118
118
111
105
101
94
92
87
83
76
67
63
63
70
77
80
80
76
76
73
66
66
75
87
99
103
104
96
89
94
97
104
110
114
126
133
136
138
134
132
133
228
224
228
233
225
144
41
13
43
96
135
140
134
122
104
94
103
115
117
110
104
101
97
94
87
71
64
64
64
62
53
51
49
51
58
60
65
75
85
85
78
70
68
83
95
102
107
97
91
92
94
102
110
120
128
131
130
129
133
132
225
225
223
234
218
146
50
12
39
99
135
140
136
119
96
100
118
118
111
103
98
97
92
81
65
59
67
68
64
67
94
110
85
64
63
59
57
64
72
78
83
85
76
67
79
95
107
112
103
94
90
93
101
110
123
123
121
128
128
126
225
227
224
228
209
146
69
36
49
95
138
143
120
90
98
123
120
110
108
108
104
91
77
56
57
104
135
179
197
157
144
112
70
63
65
64
68
74
69
71
83
91
93
79
53
81
145
186
176
119
91
88
88
99
109
117
117
122
122
116
224
223
228
225
201
146
95
52
28
81
171
177
112
83
111
132
117
103
119
145
139
100
60
51
104
144
151
191
200
166
131
87
63
65
63
47
48
67
76
87
102
102
99
88
65
91
163
218
216
166
108
81
84
89
92
80
65
79
107
110
223
223
230
223
205
165
75
10
42
103
126
112
88
100
133
131
110
97
97
103
97
86
73
68
78
74
102
143
157
157
125
87
59
82
148
148
109
93
78
83
121
146
121
103
100
92
135
157
150
150
112
90
87
64
33
35
65
88
103
103
223
225
223
220
216
197
107
29
58
111
121
120
117
119
131
126
117
109
100
94
104
120
98
92
109
129
160
171
184
203
195
125
59
74
94
75
63
72
70
65
116
188
196
176
151
127
125
100
104
122
110
94
56
26
50
85
103
113
110
112
224
227
221
223
227
224
156
52
41
95
116
115
113
117
130
128
119
113
102
95
116
129
107
101
118
148
176
185
181
179
183
125
60
59
60
62
77
81
72
84
132
154
142
121
93
92
101
104
111
114
117
89
43
41
78
98
103
114
117
120
222
221
224
221
205
179
138
69
56
98
119
119
114
119
124
126
121
114
107
95
115
131
113
104
116
132
168
208
178
173
197
141
78
62
69
75
75
71
70
99
119
104
95
82
70
79
89
102
108
109
111
79
50
68
86
99
112
117
124
122
223
224
232
192
115
71
51
58
105
132
137
129
113
121
132
129
122
106
102
100
113
138
122
120
140
142
186
191
137
141
148
116
90
81
86
89
89
91
91
91
89
85
79
81
87
93
104
103
92
86
85
73
50
67
97
106
116
117
123
125
223
231
218
160
104
87
65
70
113
142
143
134
117
114
134
135
122
107
99
102
120
140
126
120
117
129
189
172
99
88
94
94
96
99
108
110
115
120
113
104
94
89
87
85
95
103
102
88
59
46
73
75
53
74
104
112
117
122
122
128
226
235
201
142
113
102
78
84
125
148
144
137
119
107
126
136
129
124
114
113
133
145
134
118
103
122
158
149
111
96
97
97
102
104
109
118
118
112
102
95
93
87
92
98
100
102
91
78
60
58
76
58
52
87
111
118
121
127
126
127
223
230
212
145
107
103
86
90
127
144
143
141
128
114
120
138
137
130
127
122
135
144
131
118
110
107
103
103
105
102
103
102
102
107
106
109
105
99
96
90
95
101
103
99
91
87
73
52
41
72
89
54
64
100
107
113
122
123
128
130
223
229
223
151
98
98
82
94
135
145
140
139
133
125
125
135
139
130
126
125
132
138
122
111
106
104
109
108
110
109
109
114
113
114
111
105
108
101
101
104
104
107
102
93
87
95
97
64
58
79
58
57
90
113
116
115
121
123
127
127
221
230
228
168
103
85
78
106
142
149
139
134
133
128
119
117
127
127
119
117
119
119
112
105
105
101
104
108
105
108
108
110
113
112
115
116
117
114
107
105
106
105
98
88
95
110
116
109
96
74
57
76
101
106
114
120
128
130
121
128
219
230
228
175
114
90
80
104
139
147
139
132
130
125
122
118
119
123
119
113
108
104
105
102
101
100
98
101
103
108
113
112
116
120
121
121
118
117
115
116
115
102
96
100
111
122
121
111
92
72
75
97
113
111
112
121
122
124
121
120
221
227
232
180
118
92
74
99
144
149
141
135
131
126
120
119
116
116
123
122
120
119
116
112
104
102
102
102
111
114
116
119
121
125
123
121
122
122
118
109
104
96
100
118
127
134
128
105
87
80
92
107
108
109
108
115
120
121
123
120
224
226
230
182
121
92
80
107
146
148
136
132
128
126
122
122
121
120
121
117
121
126
123
121
115
109
112
109
110
112
117
121
120
121
122
118
119
120
113
98
96
108
118
122
127
125
104
85
85
94
102
111
109
110
113
114
121
122
121
118
223
228
229
189
120
88
81
109
140
145
140
134
127
117
118
119
120
119
117
121
121
122
122
116
109
106
111
113
114
120
121
120
121
120
120
115
113
111
101
102
111
120
125
123
115
94
72
68
84
106
117
112
104
103
108
111
115
118
115
119
221
230
230
192
134
104
94
113
133
138
138
136
133
125
123
121
121
122
117
120
124
126
126
118
113
112
110
113
113
118
120
114
119
118
117
116
109
105
107
116
124
123
121
113
91
59
50
71
95
110
111
100
99
100
106
112
110
115
115
116
