P2
60 28
255
158
161
158
159
161
159
165
169
174
172
166
172
172
165
161
161
173
176
169
165
161
156
149
147
145
140
143
144
141
135
126
129
128
131
138
136
142
144
147
153
155
167
176
185
190
180
182
188
192
203
204
213
218
223
236
234
232
225
223
234
147
144
151
148
149
158
164
171
170
167
168
163
162
159
160
163
159
157
151
153
154
148
150
144
138
132
123
124
118
114
119
116
113
110
113
122
126
136
141
146
149
152
167
176
179
179
177
186
190
195
203
205
221
229
236
240
233
233
228
233
144
145
149
148
147
158
158
161
164
162
164
159
159
157
153
154
145
137
130
126
131
129
134
139
139
139
127
123
117
107
107
104
101
106
110
118
120
127
138
143
149
147
158
170
168
178
183
186
190
191
205
207
213
228
234
239
233
230
234
235
142
149
147
148
148
153
159
155
154
149
148
153
149
148
146
141
138
131
131
129
124
127
123
125
125
123
124
119
115
111
108
107
98
101
104
105
111
113
123
129
134
147
157
167
167
168
180
184
190
195
199
207
205
219
232
234
238
230
235
237
134
144
140
138
146
151
158
154
151
151
152
159
160
158
156
149
151
153
158
162
158
156
149
141
136
129
125
120
117
117
111
113
109
102
101
100
111
114
119
126
127
140
150
152
156
162
172
174
184
199
198
202
207
217
231
230
238
237
231
231
135
135
134
131
140
155
161
166
162
164
171
174
181
180
181
181
180
188
193
201
205
203
200
182
166
160
152
148
142
135
129
121
126
123
121
123
118
123
127
131
137
140
145
141
147
160
161
170
178
184
189
188
201
214
225
234
234
237
229
225
130
131
132
135
149
169
174
176
178
181
188
186
190
196
202
212
212
218
220
214
220
223
222
220
215
212
205
203
195
180
174
162
156
154
149
146
141
139
138
134
141
145
147
146
146
155
159
172
181
182
189
186
195
211
216
227
226
227
229
220
130
141
147
158
165
169
178
179
189
194
197
204
197
203
207
208
216
218
225
224
221
223
221
228
228
223
223
216
214
207
196
193
182
175
166
157
159
155
154
149
145
149
147
153
153
147
155
159
170
178
178
184
187
206
220
224
236
231
232
234
147
161
167
173
179
176
182
185
192
198
196
209
214
213
213
208
219
223
225
227
221
224
224
224
229
226
228
228
229
229
216
209
200
187
178
171
173
168
162
162
154
155
152
152
157
151
152
154
161
176
179
189
199
204
214
220
236
234
230
240
155
165
174
174
178
183
184
189
189
192
197
201
210
204
206
211
212
221
220
221
222
215
221
220
221
223
220
228
231
229
220
204
197
186
180
183
179
176
173
170
169
163
158
151
150
153
151
159
160
164
179
187
200
205
217
234
237
240
231
235
153
159
170
173
168
175
180
186
189
189
197
196
200
204
202
208
203
208
215
212
215
209
213
218
209
210
204
207
212
208
203
188
176
167
161
164
158
160
168
170
171
167
161
152
149
154
153
160
168
169
184
193
203
215
222
236
242
243
240
242
162
171
174
179
179
183
186
181
186
184
185
194
192
200
202
197
197
193
199
197
193
194
190
192
190
182
173
158
149
134
119
108
95
92
96
101
115
125
138
146
150
158
156
160
159
153
156
155
164
174
183
200
207
223
233
237
248
243
245
249
157
166
171
178
186
181
185
183
185
190
184
187
184
185
191
184
185
183
176
173
159
147
131
113
104
89
80
72
65
70
71
73
71
78
95
97
101
103
102
110
118
137
146
150
157
154
156
155
158
171
175
194
209
219
233
231
240
250
248
245
160
157
164
168
177
181
178
187
186
185
184
176
177
173
170
162
145
136
126
122
117
99
83
78
82
92
127
174
187
174
151
119
94
98
127
134
122
124
124
120
118
117
134
145
151
159
159
165
163
166
178
189
211
223
231
235
234
244
246
245
170
171
172
174
176
183
180
181
181
176
177
168
157
142
116
102
100
114
136
157
160
121
108
155
180
187
209
227
210
180
169
149
118
110
144
184
167
140
141
144
148
142
144
151
151
161
164
170
173
167
178
188
205
223
228
239
240
244
248
245
169
174
173
178
178
178
179
175
177
170
160
145
117
97
81
92
125
160
193
223
224
164
137
161
167
159
125
71
48
84
141
158
138
120
148
201
200
161
145
149
157
166
161
163
164
162
172
175
178
177
177
196
205
219
228
231
243
243
247
250
171
178
177
177
182
178
175
168
163
152
128
110
96
88
101
131
169
203
220
238
244
183
133
138
155
165
133
68
53
109
164
171
146
126
154
200
204
173
137
134
151
174
184
182
183
179
181
178
179
184
179
191
200
209
225
227
239
249
247
248
176
176
177
175
177
179
173
168
151
124
104
97
106
110
127
162
194
209
217
235
243
208
141
128
151
160
165
150
142
158
169
161
135
136
184
219
214
185
149
134
144
164
198
209
206
208
198
189
179
179
181
179
195
205
217
235
238
246
251
251
176
176
176
174
174
176
167
151
123
105
110
112
126
145
155
174
196
217
238
249
251
242
174
127
148
164
169
165
163
165
156
147
136
162
217
240
224
202
190
178
171
169
194
225
222
220
209
194
188
181
184
182
189
205
217
236
238
240
247
245
170
176
172
172
173
171
156
126
116
120
123
133
146
171
181
179
187
209
236
250
254
253
227
167
140
150
148
150
157
155
141
126
154
207
231
227
212
211
212
193
190
183
177
218
237
218
208
196
189
184
179
187
188
203
221
227
239
235
239
242
173
176
172
170
171
154
135
127
132
140
138
147
159
172
188
192
194
201
216
237
252
254
254
224
174
149
140
143
151
147
142
168
219
238
228
209
202
212
203
191
187
167
161
208
245
234
221
204
187
186
181
189
195
200
221
229
237
240
235
240
174
170
170
162
154
143
135
145
150
155
159
155
163
168
182
198
197
199
199
209
219
227
236
235
226
198
172
165
168
182
199
216
226
219
210
197
185
186
177
177
184
178
197
218
233
241
230
214
189
179
185
183
192
198
211
228
231
239
238
237
179
175
174
168
152
149
146
153
163
165
174
174
176
178
178
186
187
194
203
204
205
207
210
216
221
218
214
212
211
210
210
205
207
209
204
207
203
207
216
216
232
234
231
234
230
232
223
206
191
183
187
184
188
201
208
226
232
231
234
234
176
178
174
175
168
150
149
155
172
184
189
195
189
192
193
192
196
192
198
199
196
201
197
206
217
215
216
213
217
215
208
209
205
210
214
211
216
218
230
239
241
246
241
233
222
212
209
198
189
186
185
192
188
197
211
220
234
226
229
236
173
183
184
180
175
158
159
171
187
204
204
209
207
204
209
204
204
205
201
199
191
191
190
194
194
183
193
196
190
198
198
200
200
196
203
200
206
211
207
214
224
231
234
230
216
196
192
192
188
187
183
192
195
196
215
219
226
230
229
236
184
185
186
178
168
164
167
184
195
204
214
213
214
209
208
211
212
214
208
206
207
204
207
201
193
187
180
185
185
193
199
189
189
185
188
195
197
209
211
214
219
220
225
214
196
188
187
193
190
188
191
185
191
199
208
220
223
233
228
223
192
194
192
182
175
182
183
192
202
206
217
218
217
217
212
213
211
211
213
212
217
211
210
214
209
211
206
208
212
203
202
193
189
196
194
203
207
210
218
217
216
214
211
199
181
183
192
194
195
188
191
187
190
202
205
218
223
226
230
222
191
199
194
190
187
187
195
198
204
206
210
220
222
226
224
223
229
228
233
234
229
227
221
228
230
225
225
219
217
205
193
197
194
201
203
201
207
206
214
216
210
209
197
187
178
183
195
192
195
194
186
193
194
202
210
212
225
220
220
222
