P2
60 28
255
124
131
139
140
138
139
142
146
156
166
170
170
169
172
180
182
179
177
173
166
154
134
119
115
111
101
90
82
75
66
66
71
78
86
99
122
136
138
139
144
140
131
134
144
156
166
172
185
188
184
189
191
194
200
203
205
204
200
198
199
144
150
154
157
154
152
159
161
159
164
171
175
179
187
189
187
188
186
184
184
182
173
159
148
140
132
120
106
98
90
83
81
84
88
99
117
130
137
137
135
131
125
132
150
159
160
164
172
181
185
189
194
199
205
203
199
195
193
196
199
150
156
159
164
165
163
166
169
174
173
163
165
177
187
191
191
191
190
191
190
186
178
171
165
159
151
147
145
144
135
120
108
95
93
100
104
118
138
144
139
130
130
142
150
152
160
165
166
178
189
191
199
201
200
202
203
202
198
196
201
148
149
149
152
159
166
170
171
171
174
174
175
179
185
188
191
195
193
191
192
192
189
180
175
170
164
158
155
152
147
139
129
123
120
118
112
112
118
124
129
129
131
138
143
148
155
162
170
177
184
189
193
197
201
202
198
199
199
197
203
153
152
151
152
157
160
161
166
170
172
174
175
175
176
179
183
184
189
192
189
188
186
182
177
170
163
162
161
155
148
145
139
138
140
139
131
122
122
125
128
132
133
136
144
155
161
163
172
181
186
186
188
191
197
203
204
200
199
200
200
146
149
148
154
157
159
157
155
163
170
171
167
164
166
169
170
170
175
177
172
172
175
174
168
158
154
154
154
154
151
151
152
150
147
146
140
133
131
128
127
129
129
131
140
150
154
157
164
174
180
185
191
193
198
200
196
194
195
200
201
144
143
143
145
149
148
148
149
151
155
158
159
156
155
159
158
156
156
155
151
149
146
144
144
142
138
141
143
144
147
148
147
149
151
150
147
142
138
135
133
129
130
128
133
149
160
164
165
169
173
180
189
188
189
188
187
194
200
201
202
134
132
133
133
132
135
141
139
136
138
142
144
143
142
143
146
146
140
137
139
139
132
122
118
119
119
119
121
125
132
140
143
144
146
146
149
147
140
137
135
131
128
130
132
137
151
161
166
172
176
178
181
188
193
191
187
188
195
198
199
127
124
127
128
126
126
125
126
125
124
127
131
137
145
145
145
142
137
136
141
149
151
148
141
132
126
120
115
110
112
121
127
135
140
141
143
142
141
142
139
133
129
131
136
140
146
152
159
164
170
176
180
182
184
184
186
188
193
195
197
119
114
111
112
114
113
119
126
123
120
115
109
104
90
81
74
72
76
77
87
96
101
111
119
129
134
130
126
120
113
111
110
113
122
132
137
136
137
136
136
137
137
135
134
131
137
149
153
159
166
170
174
175
180
183
182
183
183
185
190
100
102
113
124
121
111
98
82
70
74
76
73
72
59
46
42
37
36
38
39
38
41
50
56
73
92
109
118
120
126
126
122
114
113
121
122
129
139
138
137
137
139
138
136
135
136
144
152
158
164
168
172
172
174
176
177
179
178
181
187
102
114
107
96
76
56
50
48
60
85
118
144
125
73
48
48
49
49
48
44
41
44
42
38
40
53
77
94
109
118
121
122
122
122
126
129
128
130
138
144
141
137
137
137
138
136
140
149
151
155
158
161
170
173
174
176
181
186
182
184
114
109
77
50
36
37
61
99
135
168
204
193
121
68
62
79
85
69
61
64
56
50
54
51
41
60
94
101
97
96
101
113
127
128
124
134
139
135
137
140
143
139
138
137
132
133
137
145
148
154
160
165
173
172
174
179
178
179
182
185
89
65
42
34
47
71
112
156
175
194
201
155
92
65
61
121
199
147
109
156
132
79
65
65
54
63
117
156
144
119
103
100
105
110
114
127
147
150
137
140
146
142
142
139
134
132
133
134
145
157
163
167
166
173
173
173
178
180
189
189
58
42
45
67
89
106
140
177
186
197
189
130
75
54
47
122
215
138
73
150
147
76
60
70
60
56
112
173
187
172
144
123
107
98
105
117
134
145
147
145
143
141
139
135
129
130
136
136
147
158
162
170
170
171
176
172
177
179
181
186
46
53
78
108
121
130
151
173
188
196
184
121
68
68
58
64
87
67
54
53
49
54
59
68
59
52
103
173
194
185
179
170
142
112
108
111
117
131
140
144
140
138
137
134
131
129
135
144
147
157
163
166
173
176
177
170
169
175
175
184
73
83
105
138
145
151
168
177
187
198
188
123
67
68
69
61
63
77
80
60
45
50
65
72
61
63
114
170
185
185
188
159
122
116
137
146
117
115
134
140
138
130
130
132
133
133
136
147
150
155
159
159
170
172
170
173
170
179
187
188
100
107
114
138
151
160
174
185
183
192
189
136
74
55
68
70
63
59
56
48
50
62
70
70
56
62
119
165
169
165
142
115
120
125
120
113
107
117
133
134
124
124
132
132
130
134
140
142
150
151
156
172
173
173
168
170
183
188
190
186
107
112
118
129
146
160
169
185
192
199
202
165
94
57
70
75
65
59
57
56
67
76
76
70
59
75
123
147
139
127
112
113
115
106
103
101
105
117
126
129
129
126
125
126
127
130
140
145
152
159
164
176
173
173
177
177
186
185
182
182
116
113
116
122
129
139
156
172
192
198
206
208
146
82
66
66
64
64
65
71
77
77
73
61
62
88
112
117
117
117
111
112
114
110
111
114
114
115
120
126
120
118
125
126
123
124
135
150
153
158
166
172
177
172
175
180
183
192
191
191
133
119
115
124
131
136
143
150
177
196
205
218
200
139
79
63
69
71
74
76
75
78
82
88
101
114
124
130
123
121
122
119
122
120
120
123
119
122
123
123
122
119
122
123
125
133
143
156
162
164
171
176
181
181
180
182
182
190
192
190
145
131
122
122
126
135
142
146
153
165
179
190
199
180
133
96
83
92
99
96
104
117
123
128
121
121
130
127
125
123
122
128
131
129
124
119
121
125
127
125
122
120
120
125
129
141
153
157
167
169
173
180
180
184
183
179
178
183
191
192
149
130
120
123
128
130
135
140
144
152
150
146
155
153
147
142
142
152
158
152
144
149
150
140
132
131
136
134
135
135
129
134
132
125
128
131
129
128
130
129
120
120
126
132
137
140
149
159
165
169
173
180
181
182
184
180
180
186
191
195
146
137
133
137
142
140
135
134
138
143
137
136
143
148
151
153
154
149
148
154
150
146
148
144
142
144
143
141
134
130
130
129
124
121
126
130
130
128
127
131
125
120
123
125
135
143
149
161
168
175
175
173
177
178
184
183
180
183
185
191
148
142
149
156
156
152
147
141
137
134
126
124
130
134
135
142
146
147
152
153
150
149
155
160
151
145
145
143
141
137
134
132
131
126
131
137
133
130
130
127
120
122
131
133
139
152
155
160
170
174
176
176
178
179
177
183
188
189
188
188
147
142
147
156
159
160
155
153
156
147
134
138
148
146
145
151
153
158
163
160
159
157
159
157
148
150
149
141
140
135
131
133
133
136
136
139
135
129
128
120
120
130
135
139
143
154
158
157
168
174
175
175
174
178
180
184
185
187
193
195
148
148
154
159
157
152
152
158
164
159
151
158
161
156
154
159
165
160
158
161
162
162
158
155
150
149
155
149
140
137
133
134
136
140
140
140
141
128
117
119
126
136
140
145
151
154
157
159
166
169
166
171
179
185
185
184
188
191
191
194
142
144
151
154
158
156
158
165
162
158
156
156
157
156
157
160
161
164
160
159
160
159
163
161
159
158
155
152
153
155
150
150
151
142
142
140
130
127
120
119
129
137
143
146
152
159
158
161
167
172
170
171
178
178
183
185
184
187
182
188
