P2
60 28
255
103
110
109
108
105
104
103
100
97
88
81
77
71
71
72
73
71
65
69
74
80
89
94
100
102
100
109
119
118
111
107
131
183
187
135
96
97
104
104
102
97
101
103
97
99
105
106
104
106
108
104
99
94
87
83
89
95
93
101
105
104
112
111
109
108
104
103
99
91
83
76
74
69
62
66
73
81
87
92
96
94
98
100
101
104
108
117
128
137
122
124
148
163
159
125
108
109
106
111
109
102
105
105
108
113
119
134
144
145
127
93
81
87
90
90
86
92
100
101
108
106
113
111
109
105
102
101
98
91
83
72
60
61
73
83
89
92
93
91
94
96
99
102
102
110
119
117
133
165
160
154
167
191
178
124
109
109
111
113
108
104
103
103
103
105
117
131
140
154
145
108
79
76
86
93
91
91
101
104
106
95
107
108
108
106
104
99
93
84
68
61
69
84
95
96
93
91
92
95
96
101
106
110
116
122
123
117
144
165
165
159
163
190
164
118
113
114
116
116
114
109
106
108
107
106
107
114
125
136
140
119
85
67
75
84
90
93
97
107
107
70
92
100
102
98
98
97
85
70
65
75
83
85
90
89
88
91
92
102
105
106
110
110
116
122
118
122
147
171
168
141
149
165
144
124
114
115
113
113
113
109
109
107
104
105
104
107
112
118
122
113
95
85
82
85
94
98
94
95
97
51
69
82
88
94
95
87
70
68
79
83
87
90
90
91
88
91
96
99
106
105
108
111
117
124
125
126
142
163
150
129
128
129
121
117
116
116
113
116
120
116
111
108
107
106
104
107
110
114
114
109
107
97
86
83
85
88
88
85
88
63
64
73
77
87
90
72
67
81
91
92
92
94
92
91
91
93
98
98
99
101
101
107
111
111
114
109
113
116
108
107
103
101
101
103
106
104
107
109
110
113
113
112
110
106
106
101
99
100
101
105
107
107
102
96
86
81
89
89
94
83
80
72
74
77
73
69
83
92
91
93
93
92
89
89
94
97
98
98
97
100
99
97
95
95
97
97
99
100
99
94
86
84
84
84
85
83
88
96
100
107
109
111
110
106
105
100
97
97
100
103
103
105
108
100
91
89
98
111
111
93
99
82
78
75
69
77
89
92
91
90
90
87
86
87
93
96
91
91
89
84
83
82
88
92
93
102
102
100
99
97
97
89
88
84
81
82
78
79
82
86
97
104
105
103
101
102
99
94
92
96
102
103
103
96
87
93
107
118
120
68
81
88
85
75
68
78
85
85
87
89
91
88
88
91
91
91
85
76
74
76
82
86
88
93
92
96
97
95
96
92
92
89
84
85
81
82
83
79
76
75
85
94
96
97
98
101
99
94
89
87
92
97
100
92
85
95
107
113
122
56
83
156
204
155
74
62
75
77
82
85
82
80
79
85
87
79
74
72
78
83
83
87
87
87
90
89
95
96
96
95
88
88
86
85
84
79
83
82
80
76
76
85
89
94
98
96
95
94
93
90
87
92
90
84
82
90
108
114
118
60
122
217
250
169
73
65
76
76
76
79
80
79
80
81
78
69
72
81
79
81
82
83
84
83
83
78
81
82
71
68
63
64
67
67
74
79
80
80
78
80
82
86
86
89
91
90
93
94
93
93
85
84
91
82
78
90
104
117
120
40
52
93
105
76
66
81
80
77
77
76
76
74
78
74
65
71
85
90
80
70
73
75
73
73
62
50
42
44
66
67
57
53
47
47
54
73
81
77
76
76
78
81
87
91
94
99
100
98
94
90
87
84
81
75
72
86
99
110
117
55
68
111
121
96
82
90
91
84
82
78
76
75
74
70
67
80
88
82
75
71
65
59
54
50
44
38
40
43
41
41
40
39
43
44
53
79
92
85
78
71
74
79
85
94
103
111
113
109
100
94
91
84
77
66
55
73
99
108
119
88
95
129
126
92
84
96
98
96
92
85
79
76
72
70
71
74
76
72
64
54
48
47
52
57
55
51
51
46
33
27
30
39
45
44
62
97
110
99
89
84
77
76
81
91
106
118
121
114
103
95
89
82
72
55
46
67
98
109
114
105
108
109
91
66
82
105
106
105
99
92
86
82
77
70
67
65
60
53
47
46
47
56
74
91
91
70
55
51
45
42
44
50
50
53
82
110
113
100
90
92
89
83
78
85
105
117
118
109
100
91
87
81
66
50
55
70
89
109
113
104
105
108
95
70
81
106
109
109
107
101
93
83
75
68
65
61
51
47
45
48
61
74
91
108
109
88
64
54
54
55
54
54
58
78
101
109
100
86
75
73
78
83
93
103
111
117
109
100
95
91
85
72
48
40
57
79
95
108
114
102
104
108
97
73
75
101
110
110
112
106
98
89
78
71
63
58
61
64
65
65
70
80
94
104
112
111
95
78
65
60
62
70
88
100
95
88
81
78
84
85
94
108
111
112
111
107
100
92
91
99
94
62
25
29
56
83
103
111
114
106
105
110
102
76
73
97
115
119
119
115
107
101
91
83
79
75
78
78
79
79
77
80
80
87
100
108
109
104
96
95
100
100
91
88
90
88
93
95
96
94
95
103
107
108
108
103
96
88
84
83
72
46
26
43
67
85
108
115
115
107
104
105
103
77
68
91
108
114
116
116
111
106
101
94
93
92
92
90
81
80
79
78
79
79
80
85
94
95
92
92
91
91
93
96
105
104
97
90
81
86
95
103
106
104
106
102
93
91
87
81
67
38
30
50
80
98
107
117
115
104
103
106
107
80
64
91
109
112
115
113
112
108
102
97
98
100
100
98
88
81
80
77
80
81
83
89
89
91
88
81
81
85
96
98
93
90
82
83
88
94
101
100
104
108
104
99
92
89
85
78
61
36
39
65
89
106
109
113
116
105
105
107
110
93
65
84
111
114
115
114
113
109
100
97
97
98
99
102
101
96
95
89
84
84
83
83
82
81
83
83
89
90
92
94
87
86
88
91
99
99
100
102
105
109
105
98
92
87
84
73
55
42
56
85
98
107
115
117
123
106
103
106
111
98
70
77
107
112
112
113
112
112
107
101
98
98
99
100
102
103
98
98
99
99
101
98
97
98
98
98
95
96
95
91
91
94
102
105
103
103
106
109
108
106
104
96
91
85
79
67
48
52
72
92
101
105
114
118
121
104
105
107
110
103
81
74
95
109
109
110
111
110
108
100
97
97
96
97
98
101
102
104
105
104
106
106
104
102
102
102
98
96
98
99
101
103
107
110
108
113
113
107
105
101
99
94
91
87
74
62
50
63
87
93
102
108
112
119
118
103
104
104
109
111
95
83
89
106
110
109
112
110
110
104
100
98
95
97
97
98
99
98
101
100
99
103
102
97
97
98
98
97
103
109
111
111
111
113
118
119
118
113
109
104
98
97
91
78
59
47
58
78
91
97
102
112
114
117
118
103
105
107
110
113
103
89
84
96
108
109
108
109
110
112
109
104
100
94
95
97
99
100
99
101
101
100
101
100
100
100
105
111
113
115
113
112
114
115
118
120
119
114
109
107
100
94
88
72
55
53
71
89
92
98
103
109
116
116
118
104
99
103
105
108
108
96
94
96
103
108
106
108
109
109
109
107
104
101
99
95
94
99
99
100
102
101
102
102
103
107
108
111
111
112
114
110
111
115
118
119
116
113
107
102
97
91
83
66
56
61
75
92
98
102
108
110
118
117
115
104
105
107
108
106
110
106
99
100
102
104
105
106
112
111
110
108
103
104
103
102
101
101
103
100
103
107
110
110
105
107
107
107
113
115
114
113
116
121
119
119
114
107
105
101
97
89
78
67
57
67
83
90
98
98
103
109
113
118
113
