P2
60 28
255
101
97
95
93
95
98
93
87
78
73
69
66
70
72
75
80
83
86
86
88
92
91
91
89
86
87
87
90
89
87
87
85
87
84
85
87
82
81
80
79
78
74
74
76
78
79
77
79
79
82
87
85
88
90
93
97
92
92
89
87
99
97
94
95
96
95
88
81
79
75
71
70
75
83
85
84
83
85
88
89
92
92
91
93
90
94
96
95
95
92
93
93
89
92
90
88
87
83
84
84
82
78
76
77
75
75
76
76
80
81
82
83
85
92
91
92
93
90
95
92
99
101
97
96
98
93
84
78
78
74
69
73
78
85
87
88
90
86
87
88
87
91
93
95
93
91
95
95
96
98
94
95
93
91
91
89
89
87
88
88
81
81
80
79
78
75
76
76
78
78
78
84
86
86
90
90
93
92
92
92
99
99
100
99
98
89
81
80
75
73
74
78
83
85
87
86
86
89
88
89
88
90
94
94
99
101
100
100
99
100
96
97
100
98
96
92
91
93
88
88
85
83
83
80
79
79
78
77
72
76
79
81
87
86
86
88
92
98
94
94
100
99
99
98
93
87
82
75
69
72
78
81
85
87
87
89
85
87
87
86
88
86
93
96
97
99
95
98
99
98
98
97
99
98
98
97
94
95
93
87
83
82
82
82
82
81
77
77
76
76
78
77
82
84
84
87
86
92
93
91
98
98
98
100
94
86
79
73
76
79
83
86
85
87
85
85
85
81
86
87
91
96
98
102
98
97
97
97
102
102
103
102
98
100
98
98
96
93
96
91
85
83
79
77
78
81
78
75
78
78
78
78
77
84
83
84
85
84
88
86
98
99
97
96
91
82
77
75
77
80
83
85
83
79
79
82
87
84
85
89
91
94
96
98
96
94
98
96
97
98
97
99
97
96
95
89
92
94
93
90
89
90
85
78
76
76
78
77
76
78
78
78
77
77
80
81
85
84
84
86
100
100
100
94
87
80
76
78
80
80
79
81
81
79
82
82
83
88
88
90
89
91
96
95
94
95
100
100
95
96
94
92
92
87
88
87
86
89
87
88
90
90
89
85
82
78
76
76
74
77
81
80
79
77
77
77
80
87
85
86
100
98
99
95
85
79
77
82
83
80
79
79
84
82
82
82
79
83
87
89
93
94
95
94
90
90
88
89
87
85
84
81
79
77
76
73
66
70
76
76
79
81
85
85
81
79
74
74
76
79
84
81
80
78
77
78
76
83
84
84
98
99
95
91
85
83
83
83
81
78
81
82
82
82
81
86
87
87
89
89
89
86
82
79
77
81
84
86
89
89
87
84
84
85
81
79
77
72
70
67
68
71
73
79
79
77
75
71
74
77
83
85
81
79
77
78
78
78
85
85
97
99
95
90
85
83
86
85
81
79
77
81
81
80
82
83
86
87
86
80
72
71
75
82
86
84
89
91
91
90
87
86
82
77
74
73
78
78
75
74
72
72
71
72
74
72
71
69
70
75
80
85
85
81
77
74
76
79
83
85
96
94
94
87
83
83
84
83
80
82
80
79
83
83
85
86
81
75
69
68
70
77
81
79
81
85
91
91
84
83
84
81
76
73
74
72
73
73
72
76
74
73
76
76
76
72
68
68
71
78
83
85
85
82
78
77
77
80
79
83
94
94
92
87
86
85
81
81
80
83
84
82
85
83
80
75
66
64
70
75
78
79
81
81
83
88
92
93
88
81
84
83
77
72
70
71
71
72
69
67
70
71
78
86
87
83
73
69
71
74
81
85
86
85
79
77
76
77
78
79
96
97
96
94
90
87
84
82
82
81
83
82
82
80
70
61
64
71
75
76
76
76
73
75
78
82
86
89
85
74
69
63
56
52
51
60
66
62
60
54
55
62
68
73
76
84
82
75
74
75
80
85
85
84
80
77
77
77
82
80
95
97
95
92
90
89
88
84
82
81
80
79
75
68
61
61
67
70
73
73
72
74
73
72
72
72
69
62
52
46
38
35
35
33
44
63
75
70
60
55
52
55
58
59
58
65
80
79
76
77
79
84
85
82
78
74
77
79
80
79
97
96
95
91
91
89
86
83
80
80
78
78
75
69
69
70
71
75
71
68
65
69
73
69
61
50
41
35
33
34
33
33
32
35
55
74
76
69
61
59
56
57
63
62
66
70
73
78
76
77
79
84
87
81
76
76
77
78
75
73
95
98
95
89
86
86
85
87
84
80
81
78
70
66
69
74
75
73
71
68
68
67
62
53
43
38
34
32
30
32
35
34
39
50
61
66
65
68
70
69
75
75
78
79
75
75
75
79
77
74
84
87
83
77
75
77
74
76
73
72
97
100
97
93
88
86
85
84
84
81
79
73
69
73
71
68
65
63
64
63
58
53
49
48
45
40
37
36
39
41
45
51
57
66
70
71
70
71
77
76
76
78
78
81
77
75
75
76
82
83
84
83
76
74
74
75
79
73
72
72
92
101
99
95
91
88
88
87
83
78
76
76
73
70
66
60
58
57
57
55
50
50
47
50
52
50
52
53
58
63
65
68
70
73
73
72
73
71
72
74
72
74
73
72
71
68
74
80
86
89
87
86
76
74
76
75
76
73
73
75
96
102
103
98
94
90
87
86
82
82
80
74
73
71
67
64
60
61
59
57
53
54
59
61
68
69
68
68
70
74
73
73
74
73
73
69
68
69
67
70
71
70
68
64
66
72
77
85
89
90
87
80
79
78
79
77
75
76
74
75
97
102
101
96
94
95
93
91
86
81
77
72
72
73
72
70
67
66
63
63
65
63
66
68
67
70
66
63
67
71
72
69
69
69
67
71
70
69
69
67
68
68
65
64
72
81
80
86
89
86
86
80
78
78
76
75
71
73
74
77
99
103
102
101
97
94
91
88
87
82
78
78
79
82
82
81
82
80
79
73
70
71
73
74
71
72
71
72
79
77
74
75
76
79
74
72
71
67
68
67
68
68
63
68
73
80
86
84
87
86
83
82
76
79
77
73
75
72
74
75
101
106
106
101
96
92
89
89
89
84
82
84
86
88
87
85
86
84
81
79
78
81
80
81
82
80
82
83
83
83
80
81
83
83
79
70
67
68
67
71
71
72
72
75
80
84
87
83
82
83
81
81
80
79
77
74
75
75
76
78
102
105
105
100
98
97
96
97
92
87
87
91
94
93
91
89
86
87
85
83
82
85
87
83
85
87
89
90
88
86
81
82
81
79
77
71
69
69
69
73
74
78
83
81
83
86
86
86
82
82
80
79
80
77
74
71
71
75
73
78
100
103
107
102
97
98
96
95
92
91
92
90
93
91
90
89
84
84
83
82
85
86
87
83
81
86
87
88
87
84
84
82
82
82
76
74
73
75
74
74
82
81
84
86
85
88
85
84
81
78
84
83
81
76
71
74
71
70
74
75
101
106
103
103
97
97
101
94
93
94
95
96
97
97
93
89
86
85
86
86
86
87
84
84
84
83
84
84
85
84
85
84
81
82
78
76
75
73
77
83
90
92
89
89
86
87
85
79
79
79
82
81
75
75
72
74
75
71
74
75
99
105
104
102
104
102
98
95
99
98
94
93
94
97
96
91
92
92
92
89
85
87
86
88
90
89
90
88
86
86
82
82
79
79
84
81
77
75
80
90
92
95
94
91
92
87
83
78
77
80
79
80
74
71
75
72
74
73
72
75
98
102
103
101
102
101
98
98
98
100
97
92
94
97
98
94
93
95
91
93
92
91
93
94
95
93
90
92
90
89
85
80
83
82
82
79
79
85
90
97
97
93
95
92
92
89
82
79
76
79
79
75
76
73
71
73
74
76
75
79
