P2
60 28
255
161
210
246
253
254
254
254
254
250
236
221
235
249
242
243
239
237
242
244
251
250
250
249
248
252
254
254
254
254
254
252
252
246
238
232
211
192
174
158
158
152
151
165
182
206
212
217
229
231
244
246
246
251
249
251
252
252
252
248
250
186
229
249
254
254
254
254
253
245
234
240
250
252
245
241
248
247
248
251
249
252
251
251
249
246
250
246
244
241
228
228
222
220
226
221
234
243
244
237
215
198
166
151
170
187
206
205
207
226
231
240
245
248
251
249
252
251
251
247
241
209
243
252
254
254
254
252
242
236
243
251
254
251
250
252
254
252
249
249
247
249
254
254
254
254
254
254
252
249
235
230
226
216
215
203
196
197
201
216
219
226
223
201
191
185
198
209
206
220
223
235
245
242
249
250
251
249
244
247
249
226
248
254
254
254
252
247
235
238
251
249
249
251
251
253
246
247
250
250
254
254
254
254
254
254
254
254
254
251
245
233
229
225
217
215
203
205
204
198
203
198
209
216
210
212
203
209
213
210
223
223
232
242
239
245
245
248
249
248
252
237
250
254
254
254
250
242
238
241
242
233
239
254
248
247
251
252
254
254
254
254
254
254
254
254
254
254
254
250
248
241
231
225
214
211
205
206
210
204
210
209
210
215
209
211
207
208
220
217
224
220
220
233
232
243
251
251
253
253
254
240
253
254
254
254
250
235
238
252
249
251
243
240
245
248
254
254
254
254
254
254
254
254
254
254
254
250
249
246
236
231
216
207
203
191
198
196
198
202
199
208
207
211
219
211
208
197
199
215
214
216
213
217
234
240
249
254
254
254
254
247
254
254
254
252
250
242
240
247
248
250
246
245
252
254
254
254
254
254
254
254
254
252
251
246
244
238
222
219
206
195
185
171
175
168
172
183
182
191
191
198
204
204
213
212
218
213
188
193
203
215
218
217
234
244
250
254
254
254
254
250
254
254
254
254
251
251
247
239
237
240
248
254
254
252
249
251
253
253
252
248
249
240
226
216
199
189
175
167
166
155
151
145
140
143
138
148
159
166
182
186
197
202
202
213
214
221
217
194
190
198
218
227
232
248
254
254
254
254
254
254
254
254
254
254
252
252
243
228
235
246
250
251
249
251
248
248
250
245
242
227
212
202
179
169
167
169
182
193
211
215
206
202
187
177
165
150
146
137
151
171
181
193
195
207
214
213
221
213
199
193
208
229
236
246
254
254
254
254
254
254
254
254
254
254
254
248
234
231
242
251
250
248
247
243
246
239
235
228
205
189
164
156
170
197
218
201
183
178
176
179
178
179
179
185
202
189
169
154
135
144
156
174
192
196
207
205
207
216
205
192
195
223
242
247
254
254
253
230
203
250
254
254
254
254
254
234
223
242
250
251
246
241
243
236
235
227
212
199
166
150
159
175
198
196
176
157
136
126
122
126
133
129
135
145
168
191
185
180
161
143
133
139
170
185
198
207
206
216
221
209
195
214
245
242
218
193
198
231
252
200
251
254
253
253
230
212
231
249
252
245
244
237
230
229
216
208
182
148
147
171
195
181
147
137
154
177
163
136
147
202
247
239
194
149
137
154
163
171
183
168
154
138
136
168
186
202
210
214
233
225
202
216
230
171
133
196
249
254
254
171
233
238
231
219
166
170
232
254
254
246
240
237
225
219
204
180
147
132
168
186
168
144
137
186
232
218
220
234
216
208
204
202
202
186
159
155
169
165
173
177
168
160
143
158
180
199
217
221
238
242
227
223
172
127
188
248
254
254
254
229
254
254
254
249
226
220
243
254
251
249
238
229
222
204
188
148
127
155
172
158
135
146
192
235
230
193
216
254
221
169
148
158
184
206
187
173
199
200
170
164
162
163
168
164
183
202
221
234
238
249
240
191
137
161
227
253
254
254
254
250
254
254
254
244
221
224
247
254
251
248
237
227
218
192
165
142
146
164
147
130
144
187
236
254
219
169
204
254
228
165
114
114
169
217
197
177
208
235
200
161
153
155
177
193
209
221
231
247
251
252
242
161
114
175
230
251
254
254
254
254
254
254
254
250
221
222
250
254
253
243
237
227
206
186
155
162
173
157
139
135
175
226
250
254
228
161
158
217
220
177
121
116
175
216
194
177
216
243
220
171
153
152
162
203
230
242
250
251
249
222
187
144
135
187
233
252
254
254
254
254
254
254
254
251
219
220
252
254
254
243
236
227
201
186
180
187
186
172
171
176
200
235
252
254
243
186
154
180
191
188
182
186
209
216
182
186
235
244
227
198
174
168
163
188
232
248
252
247
199
152
162
152
139
191
242
254
254
254
254
254
254
254
254
246
217
216
244
253
249
249
238
223
212
201
208
196
189
203
203
203
207
228
249
253
254
219
171
172
195
199
202
216
224
205
192
222
246
236
214
208
190
186
197
201
231
253
244
177
88
124
188
147
145
210
247
254
254
254
254
254
254
254
254
251
230
218
238
254
252
252
243
229
225
216
218
221
220
226
219
226
235
234
239
248
254
254
232
208
212
215
218
231
245
246
247
253
251
251
237
226
229
235
248
253
253
254
224
138
85
156
193
135
153
225
253
254
254
254
254
253
254
253
253
254
236
219
233
250
254
251
251
242
234
239
239
246
244
234
235
237
246
245
240
245
249
254
254
254
254
254
254
254
254
254
251
251
252
247
242
234
240
249
249
254
254
248
191
96
98
179
176
125
165
236
254
254
254
254
254
254
254
254
254
254
248
231
228
246
254
248
246
248
246
251
252
252
251
244
245
247
248
251
249
251
250
250
254
252
252
251
249
249
245
246
243
237
241
233
237
240
240
251
253
254
254
239
170
100
134
187
158
135
192
246
254
254
254
254
254
254
254
254
254
254
254
242
238
247
243
245
248
249
252
252
253
254
254
252
248
250
250
250
251
247
250
248
246
241
233
238
229
231
240
235
240
228
225
234
236
247
247
243
243
246
252
253
240
207
189
203
204
203
232
253
254
254
254
254
254
254
254
254
254
254
254
254
248
244
248
252
254
254
254
254
254
253
253
254
254
254
254
253
253
249
248
245
238
243
237
241
246
240
246
241
240
241
239
248
243
239
234
227
238
248
251
251
247
244
215
207
214
224
250
254
254
254
254
254
254
254
254
254
254
254
254
254
254
249
247
252
254
254
254
254
252
252
253
253
254
254
254
254
254
254
254
254
254
254
254
252
252
250
248
250
245
247
243
235
236
225
232
242
240
248
247
248
246
222
217
222
217
236
254
254
254
254
254
254
254
254
254
254
254
254
254
254
254
254
254
252
252
254
254
254
253
253
252
252
253
254
254
254
254
254
254
254
254
254
254
254
254
254
251
251
246
239
237
227
232
236
237
247
248
251
253
248
229
215
230
224
227
252
254
254
254
254
254
254
254
254
254
254
254
254
254
254
254
254
254
254
252
252
254
254
254
254
254
253
251
252
254
254
254
254
254
254
254
254
252
252
250
250
248
239
240
230
228
235
231
242
250
250
254
254
254
226
204
226
226
226
247
254
254
254
254
254
254
254
254
254
254
254
254
254
254
254
254
254
254
254
252
251
253
254
254
254
254
254
254
254
254
254
254
254
254
254
254
254
252
252
250
243
243
239
240
237
233
242
244
248
252
252
254
254
235
174
165
219
234
241
254
254
254
254
254
254
254
254
254
254
254
254
254
254
254
254
254
254
254
254
254
253
251
252
254
254
254
254
254
254
254
254
254
254
254
254
254
254
254
251
251
247
241
243
238
242
246
244
251
254
254
254
254
235
174
147
180
208
237
253
254
254
254
254
254
254
254
254
254
