P2
60 28
255
243
248
253
253
254
251
245
237
227
221
217
214
211
209
208
202
201
199
196
197
195
194
192
189
191
184
182
178
172
174
166
164
163
156
158
158
161
166
164
167
169
177
186
191
199
206
217
229
235
242
248
252
254
254
254
254
254
254
254
254
249
250
248
244
236
224
212
208
201
200
207
206
213
217
217
218
214
214
213
210
207
194
188
179
170
170
164
168
170
168
171
162
161
157
153
160
157
160
163
164
171
175
181
188
196
207
215
225
235
241
248
252
254
254
254
254
254
254
254
254
240
235
226
215
207
204
203
209
219
222
231
236
238
241
237
237
235
231
232
228
225
216
207
200
183
171
160
155
158
156
163
160
157
159
152
157
159
159
165
165
169
175
181
188
194
205
214
223
232
238
247
253
254
254
254
254
254
254
254
254
218
209
200
201
210
218
231
235
234
233
232
234
235
234
232
231
230
228
229
225
218
215
208
200
194
182
171
156
151
150
144
154
156
155
157
150
152
155
160
165
165
173
179
184
195
203
212
218
226
237
244
250
254
254
254
254
254
254
254
254
195
198
209
221
232
232
230
229
225
226
225
226
227
226
224
218
215
218
216
213
205
199
196
192
189
179
172
167
157
151
141
141
146
147
153
150
152
156
158
165
166
171
180
184
192
199
208
217
222
233
243
250
254
254
254
254
254
254
254
254
205
216
223
225
222
219
218
216
213
215
215
209
204
201
198
195
192
193
191
188
186
182
184
178
170
167
160
161
158
148
146
138
140
144
144
150
147
152
155
156
167
172
179
186
192
201
208
218
222
227
240
249
252
254
254
254
254
254
254
254
216
215
211
212
214
211
207
198
189
184
184
178
172
167
162
162
164
166
165
159
159
160
159
158
151
149
143
140
145
140
141
139
136
140
138
146
147
146
154
156
167
175
179
189
196
201
207
215
226
233
242
251
253
254
254
254
254
254
254
254
205
198
193
195
195
190
183
166
151
148
150
148
139
134
133
129
129
132
132
128
130
140
142
139
133
128
127
122
123
127
123
130
131
132
138
136
142
146
151
157
163
176
182
188
196
202
213
221
228
235
242
250
254
254
254
254
254
254
254
254
193
181
170
163
158
154
151
143
125
113
110
107
102
94
89
86
85
88
87
90
95
101
110
111
111
111
113
115
111
115
115
117
118
118
131
134
139
148
152
162
168
176
183
189
200
207
214
221
229
240
245
250
254
254
254
254
254
254
254
254
179
163
140
125
121
119
115
105
87
74
73
74
71
69
68
64
59
59
61
66
71
73
79
82
86
92
96
103
106
108
111
104
105
106
112
129
136
142
150
157
170
174
184
198
208
215
216
222
232
238
246
252
254
254
254
254
254
254
254
254
141
127
112
103
95
85
80
74
69
65
70
76
73
69
66
61
59
59
62
64
68
70
69
71
72
77
84
89
94
94
99
100
99
103
102
116
129
141
156
159
170
181
191
205
213
219
221
226
234
240
245
249
252
254
254
254
254
254
254
254
96
89
86
84
83
86
87
79
71
69
79
88
87
81
74
68
64
65
68
69
76
82
81
78
75
82
94
98
98
95
90
90
90
93
94
93
112
134
153
168
172
184
195
208
222
224
226
228
235
244
246
250
253
253
254
254
254
254
254
254
71
69
74
81
91
107
116
105
87
75
77
84
91
88
81
71
61
62
66
73
85
92
92
85
81
92
113
127
122
110
94
86
84
81
87
90
103
126
146
171
180
190
204
212
224
231
233
234
238
245
247
249
252
252
254
254
254
254
254
254
71
72
81
94
114
134
145
129
98
85
82
87
91
86
80
70
60
57
63
76
91
98
99
92
90
104
132
148
145
135
117
97
88
82
81
84
84
110
144
167
191
199
210
222
228
235
236
238
242
242
245
250
252
253
253
254
254
254
254
254
82
83
89
108
132
153
167
146
108
91
90
92
89
84
81
75
68
68
79
94
106
108
102
94
92
110
141
156
154
145
132
114
96
90
85
84
85
96
135
168
192
203
211
226
234
240
239
241
247
244
245
251
252
254
254
254
254
254
254
254
103
105
101
113
132
150
164
157
124
94
90
89
88
88
85
83
83
82
89
100
106
106
102
94
95
121
146
154
152
143
132
120
109
102
92
83
85
96
132
177
193
207
218
225
235
238
242
244
244
243
244
250
253
253
254
254
254
254
254
254
139
131
123
115
119
137
157
164
139
104
92
92
96
94
91
89
88
91
96
103
107
103
96
90
105
136
151
152
148
140
131
123
114
105
103
99
102
121
153
188
200
210
225
232
241
245
247
248
245
247
250
252
254
254
254
254
254
254
254
254
161
153
145
135
130
130
142
150
136
113
96
92
93
91
90
91
93
93
97
103
101
93
88
94
121
141
146
142
135
130
121
113
114
110
110
127
140
160
185
197
207
216
230
240
244
250
251
250
248
247
252
253
253
254
254
254
254
254
254
254
177
175
167
156
147
142
140
137
131
119
105
99
96
94
95
95
95
95
98
98
97
96
98
111
126
133
135
134
131
125
125
127
130
136
140
160
177
189
204
208
214
224
235
245
249
251
251
249
249
248
250
254
254
254
254
254
254
254
254
254
184
182
174
166
157
152
150
143
135
127
121
117
113
111
108
107
108
108
108
108
110
115
119
125
128
128
134
137
141
147
150
159
161
164
179
188
199
206
211
217
222
234
243
249
249
248
251
249
248
248
248
252
253
253
254
254
254
254
254
254
193
187
182
177
173
164
155
153
147
142
140
136
134
132
132
131
129
127
124
124
128
131
137
139
141
144
148
155
160
169
176
181
184
184
196
204
206
210
214
225
238
246
251
251
250
250
250
249
246
249
252
252
254
254
254
254
254
254
254
254
200
195
190
186
180
169
160
157
152
149
147
142
140
136
135
136
134
132
127
127
139
143
145
149
157
167
170
179
182
181
188
190
194
200
205
211
214
220
225
234
245
250
252
253
251
250
248
247
246
249
253
254
254
254
254
254
254
254
254
254
205
201
196
188
178
173
169
162
159
156
154
151
147
143
141
141
140
140
140
140
151
160
164
171
174
182
187
188
192
190
199
208
211
215
216
218
223
230
241
246
250
253
254
254
250
246
246
245
245
247
251
253
253
254
254
254
254
254
254
254
221
217
206
197
191
181
181
174
171
174
169
168
163
162
164
159
164
165
166
170
175
184
182
184
186
182
189
194
202
209
210
215
218
222
227
230
238
245
251
254
254
254
253
253
249
245
247
243
242
248
249
252
253
253
254
254
254
254
254
254
248
245
237
224
220
213
206
203
201
205
204
201
197
193
196
190
186
188
184
188
189
190
191
187
193
198
204
213
214
219
221
222
228
232
241
249
252
254
254
254
254
254
253
251
251
246
243
244
244
249
254
254
253
253
254
254
254
254
254
254
254
252
249
244
242
242
235
231
230
227
226
218
212
206
202
201
192
194
194
191
199
198
201
207
212
218
218
221
225
228
232
234
239
247
252
254
254
254
253
253
254
253
253
251
248
247
243
247
252
252
253
253
254
254
254
254
254
254
254
254
254
253
252
252
250
250
249
242
239
235
229
224
220
221
213
209
208
206
213
212
216
219
219
224
223
225
231
236
240
241
244
250
253
254
254
254
254
254
254
254
254
253
251
251
247
246
247
248
252
254
254
254
254
254
254
254
254
254
254
254
254
254
254
254
253
252
253
251
251
248
241
239
232
229
229
225
224
222
223
224
224
226
228
232
235
234
240
243
247
252
253
254
254
254
254
254
254
254
254
254
253
253
251
249
247
245
249
253
253
253
253
254
254
254
254
254
254
254
254
254
