P2
60 28
255
218
219
219
219
218
218
215
214
214
216
217
214
212
207
203
203
200
199
196
188
187
179
175
172
163
164
164
163
162
159
161
161
163
165
165
170
170
170
171
172
176
178
183
189
196
205
209
218
227
231
238
242
247
251
252
252
250
249
246
241
210
215
218
223
223
221
219
218
220
222
222
219
214
211
207
205
203
200
201
194
190
184
177
175
168
164
163
160
160
157
158
157
156
162
161
164
165
164
171
174
177
183
184
188
196
205
214
222
231
238
243
248
251
253
253
252
252
250
248
246
216
221
221
221
222
221
222
222
222
222
223
223
218
217
218
214
207
202
199
198
192
187
181
174
171
164
162
159
154
156
154
156
157
155
159
159
159
161
167
174
176
181
186
191
196
203
214
220
228
239
243
248
252
253
254
253
253
252
252
252
218
222
225
224
225
225
228
227
225
225
222
219
217
215
215
208
200
196
192
188
182
181
180
172
170
164
159
157
151
152
150
152
156
153
156
157
157
161
162
167
171
176
183
188
196
204
212
220
227
237
245
251
254
254
254
254
254
254
253
253
218
218
218
220
223
224
227
226
219
215
211
208
208
202
194
189
180
174
171
165
161
157
159
159
155
158
154
154
154
147
150
147
147
150
148
152
153
155
156
159
168
172
180
187
193
205
215
222
226
234
243
251
254
254
254
254
254
254
253
253
212
212
215
219
220
218
216
212
204
196
189
181
176
173
166
161
158
158
158
151
148
147
145
144
139
140
141
141
146
144
148
147
146
151
146
149
153
153
156
157
162
168
173
183
191
202
214
224
231
238
247
253
254
254
254
254
254
254
254
254
210
207
207
210
209
202
195
186
173
166
162
164
166
169
176
176
177
178
176
169
162
159
153
148
145
132
130
129
128
135
135
142
143
141
144
142
148
150
151
155
156
165
170
173
185
195
208
218
228
237
246
253
254
254
254
254
254
254
254
254
206
204
203
197
187
175
167
160
154
160
171
182
191
194
196
193
188
186
181
175
168
165
164
157
150
139
134
132
126
128
128
132
139
137
143
143
141
145
145
151
155
161
171
175
182
193
203
215
224
235
245
251
254
254
254
254
254
254
254
254
204
196
186
173
160
156
157
164
171
176
185
193
191
185
179
170
162
163
162
154
153
155
155
149
138
135
131
132
130
119
116
117
123
133
136
140
140
144
148
148
154
159
166
173
180
193
201
210
223
234
245
251
254
254
254
254
254
254
254
254
189
177
160
148
147
162
178
184
178
168
163
164
157
151
146
138
133
134
134
125
126
131
130
128
123
122
122
123
126
120
118
117
115
122
126
133
137
139
144
144
152
158
162
170
175
186
198
207
220
232
244
251
254
254
254
254
254
254
254
254
162
151
147
150
161
171
176
172
157
134
125
128
123
115
107
97
91
90
86
85
89
96
94
96
103
104
108
114
116
117
113
113
112
112
120
122
133
139
137
144
147
155
162
168
177
184
195
206
216
229
240
250
254
254
254
254
254
254
254
254
140
149
164
165
158
151
143
137
128
112
96
86
80
76
73
70
69
69
69
70
71
70
71
73
78
81
87
99
102
109
110
110
113
106
112
119
125
134
134
142
149
154
161
166
175
184
193
203
210
225
240
248
254
254
254
254
254
254
254
254
146
159
166
161
143
123
108
101
93
87
79
70
69
76
79
75
69
69
73
76
76
77
77
73
70
69
69
75
85
94
100
100
103
106
106
116
122
126
134
140
149
154
162
169
173
185
194
204
216
224
237
249
253
254
254
254
254
254
254
254
156
156
148
133
113
96
88
78
77
87
91
79
81
111
115
92
79
72
70
73
78
82
85
88
86
78
75
79
90
96
97
92
91
98
100
110
119
124
137
141
149
158
162
170
177
186
193
203
218
229
243
252
253
254
254
254
254
254
254
254
152
139
115
94
83
79
76
83
102
125
122
85
89
131
135
108
85
74
69
67
72
78
86
94
93
84
78
88
108
121
116
101
91
88
92
95
106
122
137
150
151
158
166
173
186
194
200
208
218
231
241
250
254
254
254
254
254
254
254
254
125
105
85
71
67
72
82
109
143
161
144
95
83
115
126
111
91
77
70
71
75
75
88
103
105
97
88
96
125
147
144
123
104
91
91
88
93
116
133
149
157
162
170
178
193
202
205
212
221
232
244
251
254
254
254
254
254
254
254
254
100
81
73
72
77
94
119
147
177
188
150
107
93
96
103
103
96
83
70
70
70
75
91
104
111
104
91
102
131
157
161
145
123
105
93
83
82
102
128
146
164
171
179
190
197
206
210
215
222
230
242
251
253
254
254
254
254
254
254
254
91
83
80
86
99
117
147
168
187
200
166
118
92
92
103
107
100
86
70
62
59
69
93
109
114
107
96
104
137
163
163
155
138
121
107
97
90
89
117
146
166
178
182
196
208
212
217
221
228
234
241
249
252
254
254
254
254
254
254
254
103
103
102
105
113
137
162
179
196
200
179
129
101
102
102
104
100
88
79
73
74
89
107
117
116
108
95
107
147
164
161
151
137
126
115
104
100
95
105
142
169
184
192
198
211
218
222
225
231
235
241
249
254
254
254
254
254
254
254
254
136
135
132
125
122
138
154
174
196
204
196
150
110
102
101
105
104
98
95
94
94
104
119
120
114
104
101
123
156
167
160
150
142
130
121
111
104
107
112
143
173
185
196
204
214
221
225
230
234
239
243
248
254
254
254
254
254
254
254
254
164
158
153
146
140
137
146
161
179
206
206
176
130
98
101
104
103
99
97
97
99
109
117
115
107
97
107
138
158
161
153
144
135
126
120
115
114
124
139
155
180
189
194
207
214
221
225
232
234
235
244
250
253
254
254
254
254
254
254
254
175
173
171
169
163
152
147
150
163
184
195
187
153
112
100
102
100
100
102
103
104
108
110
107
103
104
123
145
152
150
140
130
123
123
121
126
136
143
163
176
184
189
194
209
219
224
231
235
239
236
241
250
252
254
254
254
254
254
254
254
185
181
180
181
184
182
170
159
161
160
165
166
152
130
110
101
97
98
102
103
106
106
102
100
100
113
134
144
142
139
134
131
128
131
140
142
155
170
178
189
187
192
203
214
226
231
237
240
240
240
243
249
253
254
254
254
254
254
254
254
192
188
191
197
198
191
179
171
164
154
151
148
148
143
132
121
112
112
113
110
111
110
112
119
129
138
140
142
144
147
146
148
156
157
161
161
170
186
185
186
191
199
213
223
232
237
242
244
241
243
246
250
253
253
254
254
254
254
254
254
199
196
200
201
195
187
181
176
167
163
156
150
152
149
145
141
138
137
134
132
133
134
139
146
148
148
145
148
152
157
164
164
168
172
165
172
180
184
186
186
196
208
223
233
236
242
246
243
241
243
249
253
253
254
254
254
254
254
254
254
211
205
201
202
198
194
192
184
177
172
164
162
160
157
152
148
149
148
147
145
142
146
147
149
152
154
155
160
168
170
172
172
169
175
178
183
187
183
187
196
207
223
231
238
244
245
245
244
243
244
249
253
253
254
254
254
254
254
254
254
222
218
212
205
204
201
197
191
184
179
173
171
166
164
160
152
148
143
141
139
137
146
151
154
157
159
169
176
179
178
170
172
177
180
188
186
186
189
196
209
220
232
240
246
247
247
247
242
242
247
250
252
254
254
254
254
254
254
254
254
235
229
221
212
208
201
192
187
180
174
172
172
169
164
161
157
156
155
153
155
156
160
168
170
176
181
177
174
171
172
174
183
193
192
190
189
190
199
209
222
235
243
250
251
250
250
248
246
243
246
252
253
254
254
254
254
254
254
254
254
