P2
60 28
255
101
98
97
96
96
93
94
95
91
90
86
83
78
71
68
66
70
83
107
124
120
109
100
105
109
113
110
97
79
66
63
60
60
63
67
67
67
72
72
73
71
66
70
74
77
77
75
75
78
85
88
88
91
92
92
89
88
92
90
92
103
101
97
96
94
94
94
94
92
86
84
78
73
72
68
71
92
126
131
113
106
101
94
92
96
95
94
93
79
72
72
69
67
68
70
70
70
72
72
73
76
78
81
81
83
92
91
79
73
75
81
86
89
92
89
89
91
91
89
88
103
99
96
97
95
95
93
91
91
85
73
64
63
67
67
73
86
91
99
116
142
144
109
112
151
168
176
158
110
81
81
80
78
77
76
73
71
74
79
79
79
82
82
86
89
90
84
75
77
78
78
82
83
86
89
90
90
86
81
73
99
99
97
93
93
94
96
93
88
79
66
63
65
68
68
72
80
84
91
110
142
143
113
117
141
157
168
158
118
88
88
89
88
86
83
80
82
82
81
82
83
84
79
81
88
92
92
80
75
79
77
78
79
83
88
84
76
58
57
84
101
100
97
96
98
96
92
89
80
74
72
79
90
84
84
92
89
84
81
100
137
139
111
119
146
163
175
163
122
96
96
94
90
89
90
88
88
89
85
84
82
79
83
83
84
89
95
95
85
87
90
80
75
76
72
53
36
34
42
48
100
97
97
98
98
98
93
82
73
69
73
91
106
97
91
93
89
84
83
99
130
135
113
121
148
148
164
173
137
105
95
93
92
93
90
90
89
90
90
89
83
91
116
130
132
124
112
107
99
93
99
90
76
64
44
33
42
59
67
70
100
100
98
98
99
98
88
78
75
71
70
77
89
99
95
90
86
82
83
93
119
130
127
140
150
136
156
180
146
109
98
96
94
94
93
91
91
90
92
91
85
92
115
131
135
133
123
111
107
102
96
88
74
55
37
47
67
74
82
87
97
98
97
98
98
91
83
77
78
72
62
73
89
95
95
89
85
84
80
94
139
143
110
124
151
161
172
176
153
119
100
96
95
95
96
95
92
91
93
93
88
86
88
90
89
90
90
89
92
98
103
92
73
54
39
50
69
78
85
89
96
98
100
100
97
88
81
78
76
71
66
74
86
90
90
87
86
87
84
89
121
135
109
114
127
126
158
188
168
126
101
90
92
93
92
91
90
90
89
89
86
84
86
88
89
89
88
87
85
87
98
95
77
56
41
47
65
81
87
91
98
100
101
99
93
85
75
76
78
75
77
82
85
86
84
82
85
90
92
102
127
134
109
106
117
112
143
169
147
116
96
88
82
80
80
81
80
82
84
84
84
86
88
85
86
89
88
88
84
85
96
101
88
69
55
55
62
74
82
84
98
97
97
96
92
86
80
87
100
91
81
82
83
85
81
79
85
92
100
111
121
118
99
98
110
102
110
139
143
116
88
78
66
61
61
63
65
67
71
75
78
82
85
87
87
88
87
83
82
82
90
105
98
83
74
64
64
71
78
85
98
98
100
99
94
85
83
99
113
99
82
81
82
83
82
79
79
80
86
95
100
91
81
89
101
92
82
100
106
86
76
73
67
64
65
63
64
62
60
64
67
73
79
82
85
89
88
85
82
80
87
102
102
88
74
61
58
66
74
81
98
98
98
97
96
80
85
135
145
105
79
76
77
75
76
79
79
82
81
78
74
69
72
87
99
96
86
87
88
78
74
71
65
61
65
67
66
70
71
69
67
63
65
70
79
87
84
80
82
84
89
99
107
99
79
62
54
58
70
81
97
95
94
92
83
67
67
123
140
93
75
75
77
77
73
73
75
74
67
61
64
69
73
77
80
80
72
63
56
52
48
43
42
45
52
60
61
64
70
71
70
68
68
68
71
74
74
75
75
79
83
86
85
92
114
98
55
52
68
75
95
91
77
64
51
44
51
66
75
75
77
77
76
75
72
72
74
65
57
60
66
72
74
71
62
53
45
38
36
39
40
37
34
39
54
69
73
64
61
63
65
69
74
77
76
74
74
73
72
77
85
85
65
82
140
114
53
49
66
73
99
96
61
40
47
55
65
71
72
72
72
73
72
72
76
71
62
56
58
63
68
68
64
57
45
37
33
55
74
66
67
61
41
40
64
92
101
90
76
66
61
63
71
80
84
83
80
75
72
76
77
82
79
97
132
117
85
72
68
75
97
89
57
38
42
47
50
59
66
71
69
67
67
66
65
60
55
57
60
64
66
61
53
45
40
38
36
45
49
42
43
44
38
40
68
97
107
103
90
80
70
60
62
66
75
85
86
84
78
78
76
85
111
108
81
118
171
123
63
64
90
83
71
61
57
57
65
91
92
71
65
62
63
65
61
58
57
59
61
59
52
51
55
51
44
42
39
38
38
40
42
40
39
50
80
106
109
101
91
78
68
63
64
62
61
71
82
86
84
80
79
88
112
94
55
145
196
98
57
73
83
83
69
55
50
51
61
78
82
71
67
65
62
61
58
57
59
58
54
48
50
63
67
60
49
42
38
35
38
41
40
42
46
64
91
103
97
86
77
69
68
70
69
70
71
75
83
84
82
80
79
81
81
71
58
110
132
73
61
74
72
70
54
48
56
61
64
67
67
68
67
69
68
64
59
54
52
50
50
50
55
69
80
75
58
46
42
39
41
41
42
44
53
73
86
84
79
75
73
72
71
77
81
82
82
79
80
80
82
83
80
81
82
73
62
53
54
61
68
73
63
60
67
75
75
77
79
75
71
73
73
72
71
63
60
58
54
52
54
57
60
65
73
78
74
61
48
42
46
51
56
62
70
75
78
79
77
77
78
79
80
82
85
84
85
85
81
81
85
87
87
86
87
78
65
60
61
68
71
71
74
83
90
90
85
85
84
79
70
68
74
72
70
68
64
62
60
61
64
66
68
67
69
70
69
68
62
62
65
70
75
76
79
79
79
80
80
77
76
80
81
80
82
84
82
79
78
81
87
90
90
87
84
76
67
65
66
71
71
64
83
97
98
96
91
89
89
84
76
73
76
74
70
71
69
67
66
67
71
71
69
69
67
68
70
72
71
65
70
77
76
80
80
80
80
77
75
74
74
73
76
78
76
74
74
76
81
86
93
92
89
85
75
69
65
65
68
67
69
70
91
99
100
95
90
88
87
89
86
78
74
75
72
71
73
74
73
72
70
70
68
69
68
66
66
66
66
67
71
74
75
78
79
77
77
77
79
77
75
73
69
70
71
70
73
77
83
87
89
90
90
85
74
67
66
66
67
66
67
72
94
96
97
97
95
91
90
91
87
79
73
73
76
78
81
81
78
78
79
79
75
71
72
70
70
70
69
73
76
77
78
80
81
83
83
80
79
78
73
73
75
74
72
70
75
82
87
92
89
92
98
83
61
56
66
70
68
71
71
72
95
98
102
101
95
91
90
94
94
86
76
70
74
83
86
85
81
80
80
79
81
78
75
75
76
81
80
84
86
82
83
83
84
85
85
81
76
75
75
76
79
76
74
73
75
83
88
90
90
84
74
60
56
63
69
72
70
71
73
71
97
101
99
97
94
91
95
93
90
87
81
75
75
82
84
84
83
79
79
77
78
79
80
82
78
79
82
85
89
87
84
85
85
85
83
80
80
78
76
75
78
79
77
80
84
87
89
89
82
69
61
61
63
71
73
71
70
68
71
71
94
99
97
95
93
93
94
93
90
88
87
88
85
81
79
80
81
78
75
77
77
78
80
80
79
78
82
83
85
87
82
83
83
85
84
77
79
79
78
81
81
81
81
85
88
86
84
76
67
65
65
68
73
73
74
72
69
68
68
72
