P2
60 28
255
98
91
91
94
97
95
92
87
84
85
79
72
67
65
68
72
74
74
74
92
114
113
112
129
114
81
74
71
67
63
62
64
62
64
68
71
78
75
63
53
53
63
69
69
71
73
76
79
81
86
88
91
91
92
92
89
90
89
90
95
97
94
93
91
92
92
92
89
83
80
73
69
68
67
71
74
85
98
109
126
143
152
174
191
142
74
55
58
61
61
59
58
62
66
68
70
72
74
77
75
65
66
78
78
77
73
71
76
80
84
85
86
90
90
89
87
87
89
88
92
93
91
96
96
93
96
93
85
77
69
65
65
72
77
81
100
123
133
115
109
122
122
133
159
144
99
79
69
66
70
69
67
67
68
70
72
73
77
82
96
125
135
120
99
92
91
73
67
73
78
81
83
87
88
86
89
87
86
87
87
95
95
96
96
92
90
85
76
67
61
61
65
70
69
77
104
134
148
125
107
109
95
101
150
167
136
105
83
79
82
80
78
77
74
70
71
75
77
74
92
138
169
166
144
116
93
75
66
70
74
78
83
83
85
83
85
87
84
80
77
97
96
97
98
96
88
80
71
71
74
75
78
73
67
79
103
133
149
121
97
102
100
106
119
120
116
106
94
89
89
87
86
86
84
81
80
78
77
79
83
92
102
111
123
118
98
75
62
65
71
70
73
77
82
84
79
75
69
69
98
97
98
100
98
91
79
70
68
70
75
80
77
67
72
93
101
106
111
102
95
104
119
122
125
141
150
125
98
94
92
90
89
88
84
86
88
84
81
78
79
84
79
84
93
97
97
91
81
71
73
72
69
73
74
64
50
34
33
49
66
98
98
99
94
85
77
70
70
74
83
94
87
83
88
91
92
91
90
91
94
105
125
125
125
148
152
127
103
95
94
92
91
89
86
86
87
85
84
83
84
85
84
85
86
88
90
90
90
88
87
80
70
68
54
31
30
43
53
61
66
98
100
98
91
81
76
74
74
77
82
86
87
86
85
83
81
82
85
87
86
95
114
122
126
137
140
120
99
95
95
92
91
92
91
89
87
85
85
87
87
86
85
84
85
84
83
82
83
85
82
74
69
59
41
37
57
71
73
78
82
98
101
95
86
79
75
78
78
67
58
73
89
88
83
78
78
84
87
90
89
92
113
121
117
125
134
122
101
96
95
89
90
92
90
89
87
87
87
86
84
80
80
83
84
82
80
81
79
83
87
77
65
51
37
45
60
73
81
85
89
99
96
96
86
76
72
76
73
57
64
83
88
86
81
80
83
83
86
91
94
100
118
121
99
95
106
102
93
90
86
83
80
83
82
79
78
78
79
80
80
79
78
79
79
79
79
78
78
80
86
84
68
51
39
42
58
73
82
85
90
101
95
89
83
79
80
79
71
67
75
82
82
81
77
76
79
84
89
91
93
97
102
101
91
82
75
73
75
74
70
66
60
59
60
60
62
62
67
73
74
77
80
79
78
79
82
82
82
82
85
88
79
64
51
46
57
70
78
84
85
99
96
90
87
80
85
87
76
74
79
82
84
80
78
78
80
81
84
86
82
77
73
70
67
66
70
72
70
72
73
69
62
58
56
56
58
59
59
61
64
68
73
76
80
82
78
76
77
79
81
86
85
73
66
63
62
66
75
82
84
100
97
89
84
79
86
99
90
79
79
81
81
77
76
77
78
80
80
75
68
65
67
66
70
79
79
77
74
70
66
62
57
54
58
63
62
62
63
63
61
58
62
68
73
76
76
76
73
74
77
80
82
79
75
66
53
57
71
79
84
101
96
90
80
78
93
104
92
78
79
78
76
74
72
75
75
71
65
60
63
68
70
70
70
66
58
48
44
41
38
38
36
37
45
53
58
59
65
68
68
66
63
66
70
73
75
75
77
74
72
78
87
90
78
60
49
53
65
72
81
98
96
93
80
72
109
138
103
75
77
78
73
71
69
66
63
57
56
59
64
69
71
66
54
42
33
32
34
32
32
35
34
36
48
64
72
67
62
61
63
70
73
74
71
70
73
72
74
77
74
77
83
83
82
72
54
48
61
73
78
91
85
76
65
59
76
95
84
75
77
77
74
69
65
58
51
50
54
61
63
58
52
43
38
32
34
61
72
62
62
53
40
38
51
80
99
95
78
64
61
64
72
78
82
83
80
75
75
78
77
78
73
69
103
110
64
47
57
69
76
75
52
46
48
50
65
70
67
73
75
72
70
67
61
51
50
57
59
60
57
48
45
41
37
34
39
55
58
48
48
52
48
38
49
80
103
106
93
81
71
65
67
74
81
86
86
84
80
80
78
78
82
82
106
114
82
65
64
66
75
60
39
44
47
48
56
60
65
66
63
63
63
59
51
47
52
58
56
48
48
57
61
50
40
37
36
37
38
38
38
43
45
40
53
88
108
105
96
85
75
68
66
68
71
80
91
92
87
83
77
79
100
116
106
100
128
123
75
63
75
63
43
41
43
45
55
63
63
63
62
63
59
52
50
53
55
50
45
47
58
70
75
63
45
40
40
41
42
40
40
44
45
46
67
97
103
95
87
76
66
65
66
67
67
76
87
90
88
83
69
75
113
117
73
80
135
110
62
67
74
65
59
58
59
61
73
80
71
66
66
64
60
53
53
54
52
50
47
55
69
80
84
73
57
46
42
41
40
40
43
43
45
58
81
93
87
79
73
69
66
66
70
75
79
84
85
86
83
80
73
74
85
86
70
79
108
85
61
72
76
86
80
75
73
72
72
72
70
70
66
61
57
55
56
55
53
57
58
59
69
79
87
88
76
58
49
45
41
44
47
50
57
69
79
79
75
74
75
75
73
72
78
84
89
87
83
83
83
81
80
76
74
73
65
57
54
62
69
72
77
96
92
89
85
81
74
65
67
70
70
68
64
62
59
57
58
61
66
67
69
72
75
83
83
71
61
56
55
59
62
66
71
77
76
76
77
73
74
79
79
78
80
84
85
83
80
81
84
87
85
82
83
80
66
58
55
60
70
72
73
98
93
88
86
87
83
68
64
74
74
70
67
67
65
63
66
67
71
70
70
71
70
71
75
75
72
70
72
75
77
78
76
77
79
78
77
75
77
76
74
74
75
80
81
76
74
80
85
89
89
86
85
80
69
62
62
65
71
70
65
98
92
89
90
89
84
74
66
69
74
74
71
71
70
69
70
71
69
67
68
69
68
70
75
75
73
71
74
77
77
75
75
76
77
77
76
74
70
72
75
74
72
70
71
70
75
82
89
93
88
85
85
74
66
63
64
70
71
71
68
100
96
94
91
90
88
82
73
72
76
76
77
78
78
76
74
75
73
69
68
69
70
68
67
66
67
70
71
71
74
78
79
76
75
75
76
79
75
73
74
73
72
70
71
75
81
86
88
88
90
86
78
68
63
67
70
71
69
69
71
99
97
94
88
90
92
86
79
71
71
73
78
85
83
79
77
78
76
73
73
71
70
71
71
73
77
77
78
75
75
77
77
80
80
78
77
75
75
74
75
76
73
73
77
82
87
87
89
88
88
84
71
63
65
69
70
67
67
67
71
99
96
92
92
91
92
90
86
73
66
74
82
88
87
83
80
77
76
72
74
80
79
78
79
81
83
84
86
84
82
84
84
85
83
79
77
73
74
76
77
78
75
78
80
82
88
89
90
89
88
76
57
58
67
70
71
67
68
72
71
99
97
94
93
92
95
93
87
82
71
65
75
83
84
83
79
76
76
77
76
79
83
80
79
81
84
89
86
84
83
81
82
80
79
76
74
76
78
79
79
78
79
81
86
87
88
89
87
84
71
59
60
64
71
75
73
71
69
72
73
