P2
60 28
255
114
125
150
167
185
200
206
210
204
205
206
199
192
174
177
201
217
232
229
230
234
230
236
222
216
218
208
211
203
200
198
187
190
183
183
187
179
180
174
179
182
174
183
182
180
185
186
197
197
198
203
198
214
225
237
248
246
251
251
249
112
128
147
172
188
203
209
205
208
207
206
194
177
182
197
221
234
235
241
232
235
236
228
231
220
220
217
209
211
200
196
192
184
184
176
177
181
175
177
169
167
170
167
170
165
170
176
177
190
189
195
198
197
221
235
244
250
250
254
250
108
123
141
168
187
201
215
208
206
209
205
193
179
196
216
227
238
231
234
233
228
234
229
231
224
213
215
204
207
206
197
200
188
188
188
181
185
174
170
163
158
167
160
164
166
161
169
170
176
181
183
194
196
217
240
246
253
253
253
251
104
120
144
164
192
206
208
210
204
208
199
188
197
211
226
231
236
241
233
233
226
227
232
221
222
215
206
207
202
212
209
204
207
201
206
202
195
189
169
163
154
151
156
152
160
159
161
168
164
175
180
184
199
207
232
250
250
254
254
254
101
117
145
167
190
202
203
210
203
195
188
187
208
215
226
239
238
243
235
234
231
221
226
216
215
220
209
216
214
217
225
219
221
218
218
216
201
196
180
167
159
143
147
150
153
159
155
161
158
160
171
176
195
209
229
246
246
252
254
254
101
121
144
175
190
202
207
204
203
188
182
190
205
227
231
234
238
234
233
222
220
216
211
221
215
220
223
220
232
228
228
230
226
228
222
222
219
204
196
178
165
153
140
144
142
150
156
155
163
160
166
176
182
208
223
237
251
251
254
254
104
125
148
181
194
200
210
203
197
186
179
195
210
227
229
228
234
224
223
217
208
214
212
222
224
221
228
226
237
236
231
239
232
232
230
227
231
216
204
185
163
156
143
143
144
141
150
151
157
160
162
177
182
199
216
232
249
253
254
254
105
125
153
171
194
203
207
207
193
190
185
190
207
217
230
226
222
224
212
209
202
208
224
226
234
230
232
242
241
248
242
236
236
223
220
215
212
209
195
187
172
161
156
146
148
146
146
151
151
159
163
173
190
193
211
232
244
254
254
254
106
125
157
177
196
206
203
203
194
188
185
186
203
210
220
220
209
211
199
194
204
213
226
226
233
243
243
248
237
229
226
221
225
219
215
210
196
189
174
166
168
158
156
146
146
154
147
149
151
156
163
168
189
196
209
231
243
252
254
254
109
130
156
183
191
201
207
205
201
183
185
195
202
215
209
205
200
189
192
191
203
213
217
234
242
246
242
231
231
233
243
248
248
252
250
248
233
212
197
175
165
158
145
149
144
145
150
143
150
156
169
183
189
205
212
232
250
251
254
254
107
135
162
187
195
198
205
199
195
188
187
198
200
207
206
198
195
185
187
192
198
210
220
230
229
227
237
236
240
246
246
247
243
241
236
228
229
221
211
195
175
167
152
145
141
141
149
146
154
163
167
188
198
209
219
230
248
252
253
252
109
134
167
185
197
200
203
203
194
194
191
193
201
201
204
196
188
188
184
190
196
204
211
208
219
229
238
243
234
225
202
178
165
152
154
156
165
180
181
183
174
165
162
146
143
145
150
160
161
175
186
191
205
209
224
236
241
252
250
250
111
133
165
183
194
199
199
202
195
190
191
192
205
203
196
190
181
184
185
194
200
188
191
205
221
232
215
191
163
140
125
104
94
89
86
88
92
110
123
138
150
146
150
148
146
153
155
170
177
188
204
204
213
217
224
238
242
249
252
252
104
131
160
189
194
197
200
198
201
194
195
199
197
201
193
187
181
178
189
191
186
177
186
218
216
188
155
141
154
156
145
120
103
110
108
110
111
109
126
129
132
135
132
144
147
158
176
186
201
214
222
219
212
224
230
239
249
246
251
249
100
127
153
181
192
193
199
195
198
199
202
206
195
194
191
183
185
182
183
176
165
180
191
184
155
133
147
178
187
174
155
135
122
126
127
125
124
113
121
147
147
135
122
127
138
150
186
207
227
239
235
230
218
223
232
235
246
247
248
247
99
119
152
174
190
194
197
202
196
203
205
203
205
194
192
190
187
189
177
172
172
174
165
130
112
134
180
213
197
158
142
142
130
107
98
117
133
125
120
148
166
153
133
110
115
132
170
225
248
253
245
232
227
221
232
243
245
249
244
247
100
114
141
164
181
192
194
201
200
203
206
202
205
202
199
196
190
187
175
169
170
159
135
105
117
159
196
214
182
132
125
136
117
78
57
83
127
137
122
140
171
155
130
111
109
117
145
214
251
251
242
227
227
227
231
244
241
247
247
244
96
110
134
168
182
191
196
195
203
208
210
211
207
206
198
195
193
184
185
178
169
156
137
129
142
171
195
210
183
131
120
137
127
79
49
92
149
148
127
140
167
153
123
128
133
157
200
229
244
231
228
230
222
229
231
238
248
244
249
249
90
104
130
160
179
190
201
194
200
208
209
214
207
205
200
195
194
186
184
176
163
160
155
158
163
171
190
204
191
141
119
139
145
136
132
143
151
127
119
149
166
165
154
167
193
213
237
234
228
223
221
230
221
226
234
230
242
242
245
248
95
99
123
149
177
192
197
203
200
208
212
210
211
204
199
193
190
192
186
178
163
163
176
180
186
190
194
205
200
160
126
130
145
150
151
147
132
133
157
192
205
202
208
205
217
226
225
227
215
220
224
221
229
226
236
238
233
242
241
247
93
95
112
136
166
188
193
202
202
208
213
209
213
209
205
200
190
192
187
176
173
170
182
187
194
203
201
206
207
192
165
151
155
153
155
168
178
196
208
211
211
204
209
209
215
224
214
216
217
221
230
220
229
229
228
239
237
244
246
241
94
96
102
129
159
186
198
198
205
206
211
216
210
213
214
212
202
190
192
184
183
186
183
192
194
197
198
197
205
205
205
208
213
218
214
209
205
199
200
197
201
205
207
222
221
221
222
218
231
229
228
229
221
230
229
234
243
240
248
244
92
97
99
124
158
183
201
199
200
206
211
215
211
218
219
211
206
193
199
207
206
213
206
201
200
197
201
191
187
182
173
183
182
181
178
172
185
188
195
202
202
215
218
226
230
222
225
223
231
232
221
227
221
226
237
235
244
242
244
245
91
98
103
114
149
183
202
206
201
208
212
211
220
224
227
217
205
209
215
228
229
224
223
210
203
198
194
193
179
174
171
167
173
169
180
192
203
217
209
208
211
217
232
231
235
231
230
239
233
233
224
215
226
223
236
247
244
248
245
248
94
100
104
107
139
180
200
205
200
205
211
213
229
232
226
219
214
225
229
232
234
225
229
222
214
212
203
208
207
208
212
202
214
221
225
229
221
228
220
212
223
223
232
236
234
239
237
244
236
227
226
217
227
230
230
241
243
249
250
248
94
102
96
95
125
177
204
202
207
207
210
220
227
238
230
225
231
232
241
235
226
229
233
243
243
241
239
239
250
246
244
244
239
243
235
232
235
230
237
232
229
233
231
241
243
244
244
234
235
227
224
225
219
228
228
235
249
247
252
253
90
98
91
90
120
173
203
202
207
208
211
225
231
240
233
229
240
238
243
241
234
241
244
249
250
245
246
247
250
249
246
249
244
246
244
237
243
236
236
233
225
237
235
241
247
240
243
234
232
233
221
224
219
227
237
236
248
254
254
254
91
94
91
82
119
173
202
213
205
208
217
226
241
236
237
242
240
244
240
245
249
247
249
249
251
253
253
254
253
253
251
249
249
245
248
246
239
237
224
229
237
238
246
245
249
245
238
239
229
228
224
219
228
227
238
250
250
254
254
254
