P2
60 28
255
103
101
96
93
91
86
78
71
72
84
95
101
99
100
102
99
103
111
121
121
121
140
152
158
142
142
179
171
135
120
117
119
116
114
115
115
116
114
115
113
112
115
113
117
120
122
123
116
118
123
117
104
90
83
88
93
93
90
91
101
102
102
101
96
90
80
73
81
93
99
100
96
98
99
101
105
110
118
122
124
135
146
153
145
135
139
140
135
127
124
126
124
122
121
119
118
116
116
115
111
112
110
110
112
110
112
112
109
109
111
110
105
94
77
75
90
94
93
94
100
98
95
96
92
74
72
86
97
101
99
99
94
95
100
101
108
109
114
120
122
126
123
127
129
129
132
128
128
129
129
127
123
121
120
117
119
118
117
114
111
112
110
110
111
110
110
110
111
108
107
108
105
98
88
76
80
89
93
97
99
95
101
93
80
80
92
101
103
105
99
95
97
94
98
101
105
109
110
116
121
123
128
127
127
128
124
122
120
123
125
120
120
119
120
116
109
112
115
115
114
110
111
110
108
106
102
104
105
106
107
105
106
105
98
86
87
94
92
96
96
89
92
84
84
96
100
100
101
99
98
95
97
100
102
102
101
106
110
111
112
110
114
111
110
112
109
107
102
101
100
98
104
104
104
104
102
107
110
111
112
110
113
109
106
106
101
101
100
100
103
102
103
107
104
93
83
83
85
89
89
85
79
85
94
99
102
100
100
96
91
92
95
99
100
101
101
96
98
97
94
94
95
101
100
99
103
102
98
95
94
93
89
89
87
86
89
90
97
104
110
115
113
114
111
108
105
98
96
97
99
103
102
103
105
101
97
92
88
93
98
79
77
86
92
94
101
102
99
94
91
96
97
97
97
93
90
85
85
88
92
100
104
107
106
103
106
103
101
102
97
98
95
92
91
86
86
83
86
93
99
107
108
108
106
105
105
98
95
96
95
97
99
102
102
99
99
94
94
106
114
95
84
84
88
91
91
93
91
90
88
89
92
89
85
82
84
92
94
97
96
96
102
101
102
102
100
100
99
104
102
95
94
90
92
91
89
91
83
81
87
92
98
100
99
100
101
101
96
91
89
90
98
100
99
96
95
96
96
112
125
114
86
78
84
85
85
86
85
85
85
85
83
78
78
85
87
90
93
92
94
94
99
101
99
102
103
104
104
103
99
93
94
92
89
89
87
92
92
86
82
83
92
96
96
100
97
97
96
93
95
90
92
96
93
93
91
89
97
111
124
115
81
85
87
82
82
82
82
81
81
78
70
71
81
91
92
85
86
86
87
91
92
95
94
93
94
88
83
81
79
82
81
85
85
86
87
85
87
84
82
86
88
93
94
96
100
97
98
98
98
95
89
93
92
87
84
85
100
113
122
78
80
96
96
85
83
81
80
80
75
69
72
86
93
91
87
81
80
83
84
84
79
73
63
57
67
73
68
65
65
62
56
60
73
81
86
85
83
84
83
87
86
87
91
94
95
93
95
98
96
94
91
91
89
84
83
83
95
114
120
77
93
102
102
97
88
85
82
78
75
74
82
90
93
88
82
83
79
73
69
62
56
49
46
47
49
52
50
49
51
54
56
60
79
96
94
89
82
81
82
82
87
93
98
101
103
103
104
105
100
96
94
90
88
83
77
77
89
111
123
81
96
110
106
100
93
89
83
78
72
69
73
77
81
79
74
70
65
61
61
62
56
49
56
59
51
45
41
43
52
59
55
63
95
114
110
100
89
83
80
76
82
91
99
112
117
121
118
108
102
98
96
92
86
81
67
62
80
102
119
74
98
116
112
106
99
93
90
83
74
70
68
69
66
61
59
55
58
62
69
85
90
75
66
64
61
54
50
53
62
64
61
81
112
125
119
104
100
102
99
95
87
86
96
115
126
127
125
113
101
100
96
90
84
77
63
59
82
103
118
75
100
117
118
112
107
99
89
82
73
68
65
62
59
54
53
54
61
73
91
112
120
102
72
62
65
66
67
67
67
65
77
105
123
126
113
97
98
97
89
89
83
84
103
118
125
125
119
109
100
99
96
90
84
70
62
65
82
108
118
76
102
121
123
116
110
106
99
92
84
76
69
62
62
63
65
69
75
85
98
110
120
120
103
83
72
69
67
64
69
85
111
125
116
104
95
91
86
84
87
92
102
107
114
120
119
119
115
106
99
97
96
95
82
55
50
69
83
104
117
73
99
122
122
122
117
112
108
102
95
85
82
80
79
83
83
85
82
82
89
101
112
120
120
112
98
90
89
94
102
107
111
106
97
96
92
92
93
92
101
107
115
121
118
119
116
112
106
98
94
97
101
93
66
43
47
67
88
105
120
74
91
119
122
122
119
113
112
109
105
102
100
100
94
89
87
83
86
86
84
88
92
98
104
107
108
108
109
109
101
95
97
102
103
110
113
106
105
99
100
110
114
118
117
115
113
107
101
96
90
89
88
78
52
36
49
71
97
112
122
74
87
114
123
121
122
117
112
110
105
106
106
105
103
98
92
85
84
86
88
93
93
94
98
97
100
100
98
99
99
103
108
114
115
108
105
97
93
98
102
109
114
115
113
112
111
103
97
96
89
82
79
70
45
36
63
87
103
119
123
77
82
109
121
117
116
116
110
109
105
101
103
103
108
107
100
99
96
92
90
88
90
91
94
94
91
95
90
84
91
102
110
106
100
96
90
90
92
100
108
107
112
116
117
116
110
105
101
98
95
88
81
63
46
49
73
100
110
117
123
80
76
103
114
117
116
115
113
110
109
102
99
101
106
110
108
109
108
101
99
99
97
96
93
93
95
96
94
95
97
100
103
98
96
99
95
100
107
106
107
109
115
120
117
114
107
102
99
96
95
88
78
62
52
67
88
106
117
121
126
87
73
101
116
115
115
113
116
112
106
101
98
102
103
105
110
111
111
109
110
112
110
111
108
105
110
109
107
104
103
102
99
100
100
100
105
108
111
113
116
118
118
119
115
110
108
102
98
96
91
80
66
58
61
83
103
110
121
125
126
96
71
83
108
110
113
113
114
118
111
106
102
100
103
103
108
108
108
111
112
112
111
112
111
109
111
111
108
105
102
102
102
104
109
109
110
112
114
118
120
120
118
118
116
108
104
100
100
100
90
75
57
58
77
93
106
113
120
127
127
106
85
83
104
112
111
115
116
119
117
109
105
101
100
100
101
104
104
107
108
107
107
107
109
107
105
106
103
103
104
106
110
111
112
115
117
120
119
121
123
120
119
115
112
108
106
106
100
93
84
71
60
63
89
105
109
116
117
120
126
114
97
86
92
106
109
113
117
117
118
112
109
105
102
101
99
101
103
104
108
108
106
105
105
107
105
106
105
105
113
116
117
116
112
113
118
124
126
127
129
123
120
119
113
110
108
106
102
87
74
63
63
81
97
105
108
114
120
119
124
118
110
95
90
102
109
109
115
115
118
116
109
110
109
105
102
99
99
102
106
107
106
108
108
107
106
107
112
112
113
115
114
114
114
118
123
122
124
126
125
123
119
119
114
109
108
101
94
80
67
65
72
91
102
106
112
116
123
124
123
118
118
106
91
91
106
112
113
114
110
110
108
107
108
105
104
106
107
109
110
111
113
112
112
111
110
108
110
113
115
120
118
115
114
114
123
126
126
127
122
122
119
115
112
105
105
101
88
77
67
70
81
94
107
106
110
115
120
127
121
116
120
114
100
89
96
112
113
115
113
108
111
108
105
105
106
108
108
111
110
112
114
114
115
114
116
118
117
121
120
120
122
115
118
124
126
130
128
125
122
119
119
113
109
104
97
93
83
73
65
72
90
96
105
110
108
116
118
123
126
