P2
60 28
255
204
203
204
205
201
207
210
199
158
92
46
26
18
18
23
22
21
29
59
101
123
130
128
106
87
80
81
79
77
78
74
67
60
53
48
46
49
50
48
46
50
65
83
95
103
108
110
113
122
133
136
142
144
140
143
148
154
155
153
147
204
205
204
209
203
206
212
194
157
111
60
27
22
28
27
18
20
40
76
115
133
127
105
84
80
80
77
75
74
72
61
49
44
43
44
46
51
55
54
52
48
52
66
79
91
99
105
110
118
131
134
135
140
140
143
140
140
145
142
133
201
202
205
204
205
205
213
217
207
158
76
30
26
27
23
23
29
49
92
128
136
121
92
77
76
78
77
82
87
88
94
92
89
81
66
58
51
49
52
51
49
50
53
64
77
88
93
100
109
115
123
133
135
133
135
142
144
142
136
116
201
203
206
204
209
206
206
211
191
141
78
38
29
28
24
25
35
70
119
141
129
97
79
82
82
86
90
98
108
107
117
132
136
136
127
115
98
80
70
64
60
56
54
54
60
77
89
93
104
116
122
124
129
136
139
139
138
138
134
108
207
206
205
206
204
208
205
211
204
136
59
31
27
24
26
23
44
92
136
149
123
101
95
94
101
103
110
116
120
128
129
132
133
134
135
130
130
121
106
95
85
76
65
61
67
76
91
98
102
112
114
118
127
136
139
132
134
137
130
113
204
207
206
210
205
208
209
215
188
101
46
38
31
27
25
25
59
120
145
133
114
106
101
99
107
109
110
116
116
118
117
115
119
118
118
112
109
114
106
102
102
98
94
84
81
84
91
101
102
108
113
121
132
136
139
134
135
142
130
108
203
209
208
204
208
203
212
221
188
126
75
46
36
30
13
28
78
132
144
117
100
92
98
106
105
114
120
118
116
113
115
116
120
122
118
117
113
112
111
108
109
107
105
100
93
96
99
103
109
108
108
111
121
134
137
143
145
140
125
109
201
203
209
206
209
206
209
218
214
176
99
49
36
24
12
44
105
145
144
117
107
103
100
108
116
120
117
110
110
110
113
116
117
122
121
119
114
108
108
104
102
104
103
105
103
98
91
89
99
101
106
112
117
130
138
145
141
129
126
127
208
205
206
209
203
207
208
211
213
172
99
46
31
24
22
55
116
148
131
105
100
111
116
115
114
111
109
104
104
112
113
113
112
107
104
99
91
85
84
88
90
90
94
102
106
104
100
93
89
98
100
108
119
127
136
138
138
133
129
132
207
206
204
207
204
209
209
211
212
172
102
49
32
19
25
78
137
144
114
99
108
117
119
114
110
104
101
102
97
102
103
91
86
80
74
72
69
71
71
68
68
68
77
87
95
102
107
106
92
90
93
97
112
120
128
130
124
122
122
122
206
203
202
203
210
206
208
209
207
180
114
58
30
22
39
97
146
120
94
118
130
116
108
105
100
100
97
90
85
80
75
72
72
73
77
82
80
79
78
77
82
75
66
70
77
91
100
100
99
89
86
93
100
110
118
119
114
114
116
106
205
204
207
206
211
207
205
213
217
191
129
61
25
37
67
110
123
86
94
135
137
118
104
101
95
90
91
83
71
63
62
66
59
52
53
51
56
56
60
70
84
91
80
72
69
73
85
89
97
99
90
89
91
95
90
63
54
80
107
102
206
204
204
206
201
206
207
208
213
205
152
58
30
110
189
165
93
63
99
141
131
109
99
93
89
87
83
67
62
57
44
51
79
119
118
82
62
58
62
65
64
70
83
89
83
67
68
81
91
99
92
88
90
61
31
42
82
104
102
103
208
206
205
208
205
208
205
205
216
214
144
41
2
13
48
78
67
65
112
144
127
106
99
91
87
81
66
59
56
46
54
94
143
144
92
62
64
63
66
74
72
74
90
95
91
85
78
81
88
95
96
93
68
29
53
92
103
113
112
113
202
205
206
202
208
205
209
212
218
216
125
23
10
32
73
107
85
64
115
145
125
108
97
91
83
69
56
49
40
51
88
132
152
118
79
68
73
67
53
63
75
83
111
116
89
84
91
93
92
94
103
89
58
51
72
98
109
117
121
115
204
207
210
205
210
207
208
212
220
229
170
70
22
29
79
111
81
76
125
141
120
107
99
92
82
72
64
55
55
76
107
143
149
110
56
62
152
172
119
89
70
73
111
137
109
79
82
89
92
95
97
80
54
62
81
100
112
116
123
117
205
203
203
206
205
206
202
207
216
224
224
147
40
23
86
113
78
86
133
142
124
111
101
92
85
79
73
71
76
86
109
140
156
120
71
58
55
49
54
64
67
71
108
139
119
87
72
75
87
93
87
66
50
63
93
106
115
121
120
126
206
205
204
208
204
207
208
205
208
216
226
161
47
23
91
120
87
98
137
139
125
114
105
96
91
83
76
76
77
78
91
112
153
168
112
64
62
70
76
74
71
73
92
110
120
126
108
99
92
74
74
64
53
73
101
111
116
123
124
130
201
206
207
201
205
204
205
204
204
220
230
166
51
27
96
121
92
107
139
136
124
115
104
94
88
88
88
98
113
109
90
105
162
180
132
84
77
88
89
89
91
83
79
91
117
134
131
123
86
68
92
73
53
83
101
112
122
123
128
126
203
205
208
204
209
206
206
206
204
216
222
173
65
28
90
123
106
109
129
128
119
111
104
100
96
99
105
93
98
124
134
168
197
167
118
93
101
106
110
108
99
91
79
83
89
99
108
83
63
87
93
63
65
94
110
120
127
122
124
123
203
200
203
209
203
205
204
203
208
213
221
189
89
30
73
115
116
113
127
138
114
98
113
146
156
127
107
102
134
191
223
235
235
190
113
87
96
99
101
97
85
83
82
89
97
90
88
87
106
121
73
47
79
98
110
114
118
118
114
125
201
202
204
207
200
205
206
205
209
207
215
207
138
78
103
137
134
122
122
133
126
110
117
134
139
125
104
119
144
161
177
170
176
142
96
98
98
100
96
96
94
93
102
98
88
81
94
138
141
94
63
77
101
104
112
117
117
122
116
120
200
203
205
204
209
203
205
208
203
208
209
209
170
122
129
146
141
128
117
116
127
124
115
106
113
126
114
119
127
151
168
149
139
116
101
107
108
109
110
108
109
101
100
93
79
95
127
142
109
72
76
94
105
107
106
114
114
110
114
115
202
203
205
199
204
204
205
208
203
207
208
202
173
139
137
145
140
133
127
117
118
122
116
114
128
144
133
118
140
167
185
177
137
115
110
109
112
108
112
113
109
104
93
93
101
120
129
107
88
87
95
103
101
103
104
108
114
113
117
118
204
201
202
206
202
204
204
206
205
202
207
196
165
143
148
149
140
134
127
118
114
120
118
109
126
150
135
118
133
156
190
193
144
115
114
108
111
114
113
115
102
95
96
104
115
119
105
68
64
90
104
110
103
98
106
103
105
113
115
121
201
200
200
205
202
204
203
202
206
207
214
186
130
122
147
147
138
133
124
117
115
115
119
120
135
150
134
128
140
162
195
180
136
112
108
113
111
113
108
102
96
97
110
115
112
92
53
42
65
101
115
101
100
100
104
107
111
119
115
120
199
202
201
196
201
201
202
201
200
216
201
125
86
123
146
142
136
130
125
119
116
112
113
120
127
138
132
123
124
152
187
159
117
107
104
107
108
106
104
101
109
111
109
110
100
89
80
83
98
111
112
99
100
108
107
114
117
115
116
109
201
201
201
199
205
205
203
203
205
213
180
110
92
132
149
142
135
126
121
118
121
118
113
118
114
119
130
137
146
158
171
152
125
121
117
116
116
112
115
114
114
113
107
112
114
109
105
103
115
115
108
107
108
117
118
124
128
122
124
120
