P2
60 28
255
251
253
253
252
251
252
252
252
253
253
247
189
111
76
67
61
56
57
72
114
145
159
165
159
155
136
114
111
116
122
122
118
115
111
113
116
110
98
91
95
100
107
113
117
132
138
139
146
152
166
175
180
189
188
189
192
196
196
194
203
254
252
251
253
254
254
252
251
253
254
254
211
120
63
60
62
53
56
86
135
161
165
169
158
141
122
113
118
123
121
113
111
113
105
100
97
91
87
85
91
92
88
93
95
112
130
135
144
149
158
169
176
183
183
183
185
189
198
195
198
254
254
252
252
254
253
253
254
253
253
252
224
157
90
59
52
52
68
110
145
161
166
164
154
133
124
121
116
116
114
119
120
117
117
109
101
91
86
88
86
89
86
83
90
96
110
123
135
145
147
159
172
175
182
183
185
188
193
199
196
254
254
253
252
253
254
254
254
253
253
254
250
207
116
56
49
57
80
120
149
164
172
157
137
130
137
136
122
122
126
133
141
140
148
162
166
154
124
103
94
88
89
86
85
87
98
113
119
132
139
148
163
165
176
177
173
179
181
184
180
252
253
252
252
252
253
252
252
253
251
252
254
229
148
69
46
62
93
130
162
170
165
146
133
141
138
131
136
142
151
154
156
162
161
166
172
173
167
155
142
126
112
98
86
87
89
98
113
118
133
142
150
159
158
163
165
172
176
172
171
252
253
251
252
254
254
252
251
253
254
254
254
242
165
71
50
63
98
144
168
167
154
141
135
134
131
137
150
152
155
156
156
162
165
174
179
178
171
154
149
143
133
127
119
111
103
99
111
120
129
138
143
153
153
162
172
170
172
166
162
253
253
253
252
253
254
254
253
252
253
254
254
245
186
92
45
56
100
149
172
172
156
144
145
145
144
140
141
151
157
172
183
190
198
186
171
160
148
147
145
141
137
135
132
124
122
121
121
130
131
137
144
149
160
163
168
169
166
170
167
253
253
254
253
253
254
254
254
253
253
254
254
254
203
94
37
59
111
163
174
165
154
143
142
139
144
154
153
160
161
158
198
228
219
188
144
132
132
133
128
126
128
129
138
139
139
136
130
134
135
141
148
141
148
159
166
173
172
175
165
253
253
253
254
254
254
254
254
254
253
253
254
254
209
105
39
62
124
160
172
166
154
149
142
144
149
156
159
156
156
159
180
185
187
161
111
103
108
109
108
105
102
104
110
126
141
145
144
131
128
130
137
146
144
156
167
174
178
167
162
254
253
252
253
254
254
254
254
254
254
254
254
254
213
113
43
64
125
163
172
166
155
146
137
141
153
160
169
156
145
152
146
158
151
115
102
96
98
104
109
112
110
110
104
106
119
131
147
146
136
129
130
142
146
157
168
172
179
175
178
253
253
254
254
254
254
254
254
254
254
254
254
249
201
105
42
65
129
167
171
167
152
136
134
144
150
152
172
164
139
149
165
197
173
102
92
104
96
90
89
90
98
113
122
116
109
111
128
149
148
134
125
124
137
147
162
170
169
175
173
254
254
254
254
254
254
254
254
253
253
254
254
251
221
140
74
89
140
169
169
159
140
135
155
155
135
142
159
149
127
125
167
194
175
164
179
169
116
95
99
102
109
101
106
132
144
144
136
140
154
146
134
124
127
138
156
166
162
172
173
254
254
254
254
254
254
253
253
253
252
253
253
252
240
183
112
74
86
167
219
170
126
140
153
146
133
138
152
138
110
118
167
203
217
228
232
178
115
104
91
85
102
107
121
160
184
185
162
144
147
147
143
133
123
127
138
141
142
148
157
254
254
254
254
254
254
253
251
252
254
254
253
251
238
190
93
48
92
139
148
124
124
151
153
140
130
132
144
135
114
106
144
211
235
227
213
145
89
145
178
136
111
112
135
166
159
130
132
143
143
151
152
141
130
121
97
74
91
124
148
253
253
253
252
253
254
254
253
252
253
254
244
190
130
99
71
73
112
142
143
143
150
154
150
142
141
141
151
143
114
105
134
198
218
227
228
154
100
91
88
92
103
109
133
182
185
143
126
134
139
148
152
144
127
78
77
122
146
163
159
253
253
254
254
254
254
254
253
252
253
254
225
167
132
109
94
117
149
164
160
152
149
154
158
151
143
150
152
143
134
121
126
151
169
191
204
167
112
101
111
113
106
117
157
172
156
134
109
114
135
143
147
137
111
84
102
140
151
163
167
252
252
252
254
253
253
252
252
254
254
250
213
159
140
126
106
128
163
167
162
150
158
167
155
145
139
137
134
135
136
133
136
133
129
130
135
143
132
125
129
128
128
131
131
129
116
115
122
127
142
145
136
120
101
104
120
141
160
165
172
254
254
253
253
254
254
253
253
254
254
254
212
148
134
132
114
137
170
169
166
157
154
167
160
143
134
134
140
141
139
136
131
135
129
126
129
128
134
141
148
154
155
154
141
134
129
124
140
148
139
113
86
95
97
105
131
148
166
167
171
254
254
253
253
254
254
254
254
254
254
254
221
149
121
123
117
139
165
178
172
153
146
159
164
153
151
149
145
143
141
146
141
138
147
142
139
140
139
142
144
151
147
135
132
130
136
142
143
139
124
96
86
96
90
104
144
161
163
170
169
253
253
254
254
254
254
254
254
254
254
254
230
164
126
116
114
152
176
176
171
160
148
154
166
157
151
149
140
140
140
142
150
149
149
145
144
149
146
152
153
147
144
137
142
143
138
138
134
131
107
76
94
106
94
122
153
162
168
177
176
252
254
254
254
254
254
254
254
254
254
254
232
172
135
124
119
151
176
175
171
162
156
157
154
157
151
144
140
133
137
136
138
142
140
145
148
152
155
151
154
151
148
146
138
142
139
133
136
142
139
122
114
97
97
138
157
161
172
171
177
253
253
253
254
254
254
254
254
254
254
254
235
183
145
125
117
153
179
170
168
168
161
158
155
158
155
146
147
140
140
138
133
141
141
142
148
147
153
152
153
156
147
149
149
146
137
131
153
167
164
153
119
108
128
147
155
158
171
171
173
253
253
252
251
253
254
254
254
254
254
254
241
187
143
125
119
148
171
175
167
161
158
152
154
154
154
156
154
153
146
139
137
141
147
147
152
155
153
156
156
159
156
147
147
137
140
161
178
180
158
133
115
123
148
153
156
166
169
171
167
253
252
253
254
254
254
254
254
254
254
254
241
191
150
129
126
160
173
170
168
162
156
153
156
154
154
157
159
157
151
144
144
145
149
153
156
156
150
155
155
155
159
147
143
148
161
175
176
166
140
122
132
143
151
151
155
165
167
170
167
252
253
253
254
253
253
253
253
254
254
254
248
202
156
138
130
154
172
167
169
162
155
158
156
157
156
157
163
161
154
143
144
151
150
155
153
153
158
156
160
154
146
144
147
166
171
171
163
124
100
112
142
157
151
151
149
154
163
160
165
253
251
249
252
254
254
253
253
254
254
254
250
214
167
142
134
154
174
169
170
168
161
166
163
164
164
157
161
161
162
159
151
155
154
155
154
152
158
154
155
154
152
165
170
169
164
148
128
106
110
135
154
160
146
144
148
150
164
165
165
252
252
254
253
253
254
254
254
254
254
254
254
223
172
140
142
164
174
170
168
172
173
169
169
166
167
165
161
163
161
166
165
159
162
155
154
156
153
157
151
152
156
156
159
148
145
148
143
142
138
152
164
152
144
141
148
154
152
161
161
254
253
253
253
254
254
254
254
254
254
254
254
237
185
147
148
161
170
169
167
173
174
168
167
164
167
171
168
171
166
161
164
161
172
173
168
169
158
158
156
151
152
150
157
161
162
165
157
157
159
164
166
148
139
145
150
155
152
161
166
