P2
60 28
255
225
219
224
221
224
225
220
225
219
219
222
217
221
215
215
217
215
223
218
217
218
210
211
206
204
203
196
198
188
186
186
178
182
176
175
176
170
174
167
166
171
169
178
181
187
198
201
213
221
230
240
241
247
252
252
254
254
254
254
254
221
217
220
221
219
223
218
217
217
217
223
218
219
217
215
223
221
224
224
217
220
214
214
212
206
209
202
201
200
191
194
186
185
185
178
180
174
170
169
165
169
167
172
177
179
190
196
209
219
224
237
240
246
250
251
254
254
254
254
254
213
217
213
216
216
217
220
213
218
218
216
221
217
223
225
224
228
223
227
224
221
225
213
214
211
205
209
200
201
197
190
191
183
183
179
175
179
171
171
169
164
169
167
174
179
180
195
202
213
223
228
239
243
247
252
252
254
254
254
254
207
213
215
217
220
215
217
213
213
220
219
228
230
231
234
228
230
224
222
225
214
217
213
206
208
200
204
201
197
198
189
190
185
181
184
176
176
172
169
171
164
167
168
169
178
180
188
196
206
218
223
236
244
248
253
253
254
254
254
254
206
204
211
210
213
215
211
218
217
220
227
228
233
230
225
216
207
209
200
197
198
191
193
188
187
190
187
194
190
191
187
177
182
178
177
180
174
176
172
169
167
162
166
168
173
181
183
196
203
212
224
229
242
250
251
253
253
254
252
252
207
204
205
205
207
217
216
223
230
228
232
225
218
208
195
190
179
179
177
170
172
164
164
163
158
166
163
170
174
171
178
173
174
174
171
176
170
171
172
167
170
166
167
170
172
183
185
196
207
211
225
231
242
250
248
252
252
252
252
250
199
203
199
205
209
215
227
226
227
216
207
205
192
190
184
180
187
178
181
181
175
175
165
168
162
153
156
148
154
156
154
164
162
168
168
164
170
166
169
168
162
167
167
172
178
179
190
193
204
216
221
235
243
248
250
248
251
250
251
250
195
198
199
205
217
219
224
218
209
201
192
198
198
200
210
207
211
210
208
209
199
200
195
191
191
178
173
164
154
153
145
152
156
158
164
159
167
166
163
167
163
169
171
173
183
183
191
199
208
221
225
235
241
245
249
246
249
251
248
247
190
191
205
210
215
213
200
201
196
200
215
218
225
223
224
225
219
222
220
216
212
206
207
202
201
197
187
185
172
163
156
141
147
146
148
158
155
161
158
159
166
165
174
178
183
189
190
202
208
217
228
229
240
242
243
247
245
250
246
245
190
194
204
209
200
197
193
204
216
220
230
228
230
230
226
231
226
223
223
215
214
212
209
204
198
196
186
182
180
168
166
155
150
145
139
150
148
150
155
155
164
165
173
186
190
195
193
201
212
218
234
233
236
244
241
246
245
247
249
244
184
196
193
190
183
191
212
217
221
220
221
226
223
222
221
223
221
212
213
207
202
201
197
197
189
184
180
170
171
167
162
162
152
151
146
141
148
144
149
153
154
165
171
191
204
201
203
201
211
225
232
239
237
242
243
242
247
248
251
250
183
187
180
178
193
204
218
217
211
215
213
213
212
208
208
206
200
189
184
187
180
179
175
166
169
165
165
161
154
156
154
157
154
153
157
147
146
144
145
155
153
167
182
199
219
214
210
209
214
229
230
235
236
237
243
241
246
250
248
250
181
173
175
183
200
212
213
212
203
201
200
196
194
185
179
172
163
153
145
143
139
136
136
135
138
141
140
142
140
141
143
138
147
148
154
159
152
154
150
153
163
169
193
210
223
228
215
214
217
224
234
234
238
240
241
246
243
248
247
245
171
162
176
193
201
213
212
205
196
183
176
167
157
147
132
122
113
106
102
97
95
94
97
100
99
109
113
118
122
118
124
119
124
137
140
150
151
155
159
159
173
184
204
227
233
233
219
215
222
225
232
232
235
240
240
245
242
244
249
245
159
172
180
189
197
202
202
193
175
158
145
125
105
97
89
85
84
84
85
83
81
83
84
87
81
82
97
110
117
114
110
112
106
112
118
125
141
142
151
161
171
196
212
230
239
230
223
218
223
228
228
234
234
238
241
239
245
244
247
249
162
177
186
187
186
182
180
171
149
127
106
86
76
79
82
79
80
79
78
80
80
87
97
98
90
79
99
125
132
133
123
116
107
100
105
105
118
126
132
149
159
184
209
231
241
227
220
221
226
232
230
234
237
237
242
240
245
249
247
250
167
175
185
183
173
160
148
135
115
94
75
65
72
89
95
89
84
76
73
73
77
91
104
105
96
83
99
136
150
147
140
125
116
104
100
106
102
112
113
119
139
160
199
224
230
223
216
226
227
227
233
230
236
236
237
242
242
249
248
248
169
173
174
174
161
144
122
100
86
76
70
70
82
104
110
101
92
80
76
78
77
89
105
108
98
88
100
137
158
154
147
131
122
120
112
114
109
110
114
109
130
164
205
230
225
223
222
225
230
229
233
231
234
239
233
239
242
246
251
248
163
165
158
150
136
117
100
89
86
84
79
76
86
101
106
103
94
83
75
72
74
87
108
116
107
89
98
136
158
157
148
140
131
128
120
114
121
125
141
152
167
205
227
231
223
218
227
225
226
228
226
233
232
235
236
237
246
246
248
249
152
148
139
123
109
96
90
94
104
107
93
78
81
94
105
103
92
82
71
66
72
94
118
126
114
93
101
138
160
163
153
146
137
129
134
135
150
168
183
204
216
230
234
225
223
219
226
228
223
228
226
230
231
231
239
241
247
249
245
247
143
129
115
99
91
87
94
108
124
127
103
85
83
91
102
104
98
89
79
81
94
111
126
126
110
92
106
144
164
168
163
151
151
151
159
176
185
203
215
223
229
225
222
215
219
227
223
226
224
223
228
224
231
231
235
244
242
248
248
248
132
111
94
86
86
96
112
128
143
146
126
97
83
95
104
104
104
104
104
105
112
123
125
119
105
105
131
160
171
169
174
172
175
184
187
198
205
212
219
219
222
217
215
219
219
227
225
223
224
219
225
225
226
233
235
242
243
244
247
246
121
101
86
87
95
111
129
143
151
157
150
116
94
91
97
104
105
108
110
112
118
121
120
122
126
138
161
170
170
169
175
185
181
185
191
195
205
208
216
216
211
215
214
217
220
222
230
225
222
220
217
228
230
233
239
240
247
246
248
249
103
92
91
97
109
122
132
142
151
157
158
139
113
95
92
97
99
102
107
113
122
134
141
149
160
165
171
170
166
167
167
174
175
179
192
196
206
212
210
214
214
218
221
220
226
226
228
224
218
223
219
222
228
234
243
241
244
245
245
250
96
98
108
109
114
122
127
136
141
150
157
158
141
118
111
110
115
122
128
138
148
154
163
163
164
164
158
163
159
157
162
163
178
188
200
209
209
214
214
218
223
220
223
221
221
229
227
226
221
216
218
217
230
237
239
243
239
245
248
247
114
122
125
126
126
128
126
126
132
139
153
162
152
136
129
130
136
143
152
155
160
160
158
155
149
153
153
156
156
152
166
177
192
205
204
210
212
215
220
220
228
227
222
221
221
229
226
221
219
213
218
218
226
239
240
246
244
246
251
249
144
151
148
147
141
135
133
131
136
141
147
152
142
135
130
133
143
141
147
152
146
145
140
147
151
149
154
149
156
167
176
197
204
210
213
213
218
219
227
231
229
228
219
219
223
223
226
218
215
215
212
222
229
241
248
245
249
250
250
252
172
168
161
156
152
144
146
147
148
157
161
159
147
143
144
138
139
137
137
141
138
146
148
148
154
146
153
162
171
192
201
209
214
214
220
219
224
230
231
234
228
225
221
219
226
225
226
220
214
215
213
224
236
241
247
248
251
252
252
254
