P2
60 28
255
214
211
214
209
214
214
211
215
210
215
217
217
220
215
221
222
220
224
219
223
217
213
216
206
206
204
198
196
189
191
184
178
181
173
174
171
167
172
166
168
170
170
180
178
184
192
198
212
216
227
236
237
245
248
251
252
252
254
254
254
210
206
211
210
213
216
209
213
213
214
219
218
227
225
228
235
227
229
225
222
223
215
216
211
209
209
199
200
194
191
191
178
180
178
175
176
170
172
167
165
169
167
173
175
180
190
193
207
215
223
234
236
243
245
248
253
252
253
254
254
205
207
204
210
209
211
214
212
219
219
225
231
231
239
232
230
230
225
228
222
222
221
211
213
204
203
204
197
199
191
188
185
175
179
173
172
176
170
173
167
165
168
166
174
177
181
193
199
213
219
227
237
239
246
250
251
253
253
254
254
201
205
198
205
211
210
217
218
227
233
231
238
236
236
231
220
222
216
214
210
205
209
200
201
200
194
200
194
194
193
184
182
176
178
177
171
177
173
171
169
163
166
166
172
176
180
193
198
208
215
219
232
237
245
251
250
253
254
254
253
201
198
203
201
209
216
222
232
232
235
233
231
230
221
220
212
206
210
199
199
195
191
192
178
181
181
178
185
182
186
182
174
177
172
174
172
167
173
167
168
167
164
172
170
175
183
187
200
204
212
220
224
237
243
248
251
250
251
251
252
198
193
202
207
213
224
229
239
236
230
228
222
223
214
212
213
204
207
201
195
195
183
184
180
176
181
171
173
171
171
177
170
173
171
171
175
166
171
170
166
169
165
170
170
175
186
188
197
203
212
221
223
237
244
245
250
249
251
252
250
191
195
201
216
219
228
234
232
231
221
222
225
217
220
213
212
211
205
209
203
200
197
190
193
186
183
180
167
169
161
160
166
164
172
164
165
169
164
170
165
165
170
169
175
178
183
192
196
205
210
218
230
234
243
245
246
248
245
249
246
185
197
205
218
223
223
226
221
226
227
225
233
225
223
222
216
221
216
213
210
204
206
199
196
196
190
191
180
171
163
154
161
160
162
165
160
166
163
162
161
161
171
172
178
184
185
194
198
207
216
218
228
233
241
245
242
248
247
248
246
186
197
209
209
216
217
216
224
224
229
231
230
229
223
225
224
222
224
218
217
212
208
207
199
202
198
191
187
174
172
164
155
154
148
154
156
155
160
156
162
164
166
177
183
190
190
188
199
205
216
225
226
236
238
242
243
242
248
244
244
193
194
204
205
209
217
218
227
226
223
227
225
225
223
222
227
221
220
219
211
210
204
204
202
194
193
183
180
174
166
165
156
155
150
146
150
147
152
151
154
164
162
175
188
194
198
194
201
210
218
229
228
235
240
241
245
242
247
246
243
189
195
194
201
209
219
224
219
220
217
215
217
216
217
211
214
212
205
205
198
196
192
187
185
176
174
172
165
164
156
156
158
153
154
150
147
148
142
149
152
157
169
176
197
206
205
204
199
209
217
226
234
231
237
237
236
243
241
245
244
183
190
190
200
212
215
220
211
208
211
205
206
205
203
200
192
187
177
173
172
165
165
161
159
157
153
157
152
151
152
145
151
150
150
154
150
152
148
149
155
157
170
182
203
219
218
214
206
210
220
228
236
233
234
238
235
241
242
245
248
183
184
195
199
208
214
214
207
198
196
192
187
181
172
163
154
145
135
127
127
123
120
122
121
126
129
131
136
134
136
136
136
142
141
150
153
152
157
153
158
163
172
198
214
228
229
217
216
215
226
232
230
236
234
238
239
238
244
243
246
182
182
192
197
201
210
209
203
188
172
163
151
141
125
108
103
98
95
95
94
92
86
89
93
94
101
103
113
117
115
118
114
122
128
134
144
142
152
157
159
172
183
206
224
234
236
220
217
219
225
230
229
236
235
234
240
239
244
244
239
175
183
188
192
192
194
194
188
168
143
126
106
90
83
79
80
82
80
82
83
85
86
90
89
79
79
97
110
116
112
110
109
103
112
116
124
137
138
149
155
167
192
209
229
241
236
223
215
224
226
228
231
228
236
237
238
243
239
246
243
176
188
190
189
183
173
167
158
138
114
89
75
76
85
91
85
82
80
78
83
88
98
105
101
85
78
101
126
136
131
121
117
103
99
102
104
118
120
128
141
152
181
203
226
241
233
223
217
224
229
225
231
230
235
241
238
244
240
241
247
175
178
186
184
175
154
134
116
96
79
64
65
86
107
108
95
89
79
72
75
82
97
108
106
93
82
98
134
148
147
140
126
116
103
102
103
103
112
110
117
129
152
196
225
235
227
217
223
222
225
228
225
234
236
236
237
238
245
242
245
175
168
167
164
151
133
109
90
80
73
68
73
94
113
111
100
91
81
76
75
80
97
111
112
98
84
96
135
154
149
144
130
123
115
108
111
104
110
112
106
124
157
202
227
225
225
220
226
228
227
232
228
233
234
233
238
235
243
250
245
164
157
146
136
120
105
93
89
91
90
80
75
86
98
107
104
93
82
72
69
79
98
119
121
102
87
98
131
153
152
144
135
123
122
117
114
120
121
137
146
164
198
218
230
223
218
224
224
227
225
225
232
229
233
233
232
238
238
245
248
147
137
125
111
97
87
88
100
111
109
90
76
82
93
103
103
95
85
75
75
88
109
123
122
107
88
101
139
158
157
148
141
130
127
128
129
150
164
180
198
208
225
230
224
221
219
225
224
226
229
223
229
229
230
234
233
240
243
245
248
134
114
102
90
87
94
107
122
134
128
101
82
84
96
104
105
103
99
96
99
106
117
124
120
102
90
110
146
162
163
158
151
150
148
157
170
180
199
209
218
224
224
223
215
217
221
221
226
223
223
224
223
232
228
233
239
236
242
241
244
122
97
85
85
93
110
127
141
152
148
127
100
86
95
103
105
106
106
111
114
118
122
121
111
100
110
136
160
169
167
172
169
171
174
182
193
196
206
213
215
219
212
212
214
217
224
223
225
223
220
225
221
227
229
229
239
236
243
244
240
110
96
91
97
111
127
139
149
154
158
149
118
93
87
94
102
103
106
108
110
116
118
118
121
126
143
163
166
166
165
171
179
178
184
183
188
198
200
208
210
210
212
209
217
218
221
228
222
221
218
217
225
224
229
232
236
243
239
243
242
96
100
105
110
120
129
138
145
149
160
163
145
119
99
95
98
100
104
110
117
127
137
142
150
159
161
167
166
162
160
160
169
169
175
184
190
205
205
206
211
207
214
215
218
222
222
230
226
222
219
217
226
224
228
238
237
242
237
238
245
101
111
121
120
125
127
128
135
139
149
158
160
146
128
120
119
122
128
134
143
150
155
162
161
159
154
152
157
151
155
158
157
171
179
192
201
203
210
207
211
216
216
220
217
220
225
224
228
220
217
220
218
226
230
236
240
235
239
241
243
134
137
137
136
135
133
128
131
138
144
156
159
150
138
132
133
137
145
152
159
160
152
150
148
144
148
146
152
150
147
159
166
181
196
203
210
208
212
215
218
224
220
222
221
220
227
224
225
221
216
220
216
223
231
236
242
238
244
247
244
162
161
154
152
146
139
135
133
140
147
153
152
140
135
133
134
136
137
143
141
140
139
135
143
145
147
151
144
151
158
171
189
196
207
207
209
214
212
222
225
224
223
215
220
222
221
224
217
219
216
213
218
216
228
237
239
244
241
247
249
173
165
161
160
152
145
149
151
152
159
159
154
144
141
143
140
139
135
136
139
139
145
143
147
150
145
153
156
167
182
188
203
207
210
213
212
218
219
224
228
223
224
219
218
222
221
222
215
214
216
210
216
221
231
241
241
247
245
247
251
