P2
60 28
255
145
131
121
118
116
117
123
128
130
131
132
139
149
163
173
182
188
181
160
137
120
112
110
113
115
110
106
102
101
104
112
123
132
145
155
163
167
162
160
156
150
151
162
185
199
210
224
227
225
219
210
198
173
159
163
200
236
244
250
244
124
114
113
115
116
116
123
128
128
132
132
134
139
148
153
154
153
146
138
125
116
111
101
94
93
93
89
84
80
80
85
98
113
133
149
150
149
149
150
154
153
160
175
195
216
222
221
218
209
201
190
178
162
154
183
214
238
249
242
237
115
108
115
116
118
117
117
126
128
127
127
128
130
129
127
131
133
131
127
124
118
108
98
91
85
85
84
80
76
76
80
89
102
110
119
122
114
115
123
135
145
152
175
205
220
214
204
203
191
180
171
160
155
163
201
235
245
251
241
230
121
118
118
119
116
115
114
116
119
122
123
122
124
123
123
130
134
134
128
121
114
104
98
94
89
84
79
75
75
76
75
75
79
84
88
88
84
85
95
107
120
129
147
176
196
196
181
175
169
159
159
153
158
186
213
239
252
253
250
235
134
139
129
124
122
120
121
120
122
129
136
138
137
137
133
136
143
138
131
125
119
114
108
103
94
87
85
82
82
83
81
79
77
76
73
71
72
76
83
88
94
102
117
151
178
180
168
153
153
154
160
166
173
203
226
241
254
254
254
244
132
131
128
123
120
117
118
119
124
136
141
149
156
159
156
146
140
135
132
130
128
132
130
127
124
116
110
102
97
100
96
95
93
87
89
86
90
94
92
100
102
109
121
139
167
166
150
147
155
170
172
183
200
216
239
250
253
254
252
252
133
130
132
132
130
128
129
134
139
143
144
149
160
162
164
162
157
155
151
153
153
156
165
170
172
165
149
135
126
126
122
118
119
114
118
119
120
124
119
125
130
130
133
137
152
154
148
157
165
187
204
212
226
232
244
252
252
253
252
252
143
142
150
159
157
154
146
145
150
154
159
161
168
171
166
169
171
177
183
185
188
183
183
189
186
184
175
165
161
149
151
148
144
147
139
139
138
137
145
144
151
153
154
158
154
160
161
166
186
199
219
230
232
240
243
249
250
249
247
243
142
141
145
161
169
169
168
165
168
170
171
176
182
191
190
188
190
190
199
202
205
206
202
202
199
197
191
183
183
179
177
172
162
158
146
141
143
147
157
159
165
170
168
172
170
173
177
176
195
210
221
229
225
233
239
241
245
241
241
236
139
140
145
156
170
173
178
180
181
188
190
196
203
207
213
211
210
206
205
207
199
201
203
199
200
198
200
198
191
190
180
168
153
138
140
140
147
156
159
169
170
174
178
175
182
184
191
199
201
212
217
221
222
222
230
230
232
233
229
231
168
162
161
164
175
182
183
192
197
202
207
212
219
220
223
226
222
219
213
214
210
203
199
193
198
197
195
195
184
175
158
136
126
117
124
134
146
160
160
167
172
170
176
180
190
198
203
214
211
212
215
215
221
219
227
232
226
229
227
227
178
179
180
179
177
186
195
204
210
211
213
211
217
221
215
218
215
214
216
210
211
206
199
197
185
182
176
163
148
133
126
119
122
132
132
138
143
150
160
159
167
171
175
188
195
207
214
219
223
214
213
210
210
219
216
223
222
219
222
215
175
182
182
190
191
192
202
207
214
217
219
218
214
216
211
207
208
206
208
199
194
192
181
171
154
138
125
114
116
119
124
134
137
144
148
151
153
152
161
163
170
179
180
193
204
214
221
219
223
214
206
206
201
213
219
223
228
218
219
215
167
181
189
189
195
199
208
212
210
212
210
210
207
201
200
193
190
187
178
170
159
145
131
115
96
78
71
76
85
95
105
119
128
136
147
149
158
161
158
170
175
186
194
195
210
215
217
219
214
213
200
199
207
210
221
219
224
224
212
215
176
182
191
192
197
201
206
213
207
202
197
191
188
176
170
163
149
142
129
108
94
85
79
78
80
76
69
66
63
66
75
85
102
109
122
134
141
159
163
170
179
187
201
202
207
211
210
216
209
205
202
199
211
209
214
220
216
223
217
217
184
184
187
196
195
202
205
202
196
182
175
165
153
139
123
108
91
69
58
65
77
94
102
94
87
84
85
85
75
75
91
99
96
91
90
103
113
130
146
149
166
181
188
198
199
205
207
208
211
199
202
202
203
214
211
224
226
221
227
222
189
190
188
196
193
192
193
181
170
156
143
133
119
105
90
74
63
54
57
75
91
105
111
100
85
84
95
98
93
93
110
126
118
104
91
89
95
101
120
128
144
168
178
193
195
197
205
200
201
194
195
207
205
216
220
221
230
223
226
228
188
184
185
187
188
176
170
155
133
124
118
113
101
83
70
69
77
75
72
80
91
99
97
88
89
96
106
108
102
105
115
126
126
121
124
116
117
125
128
146
154
166
181
184
196
194
194
196
189
194
196
208
219
218
230
227
228
230
225
230
191
185
185
177
170
156
137
121
105
99
98
87
71
62
71
94
109
109
102
105
111
115
120
123
127
131
133
138
137
143
148
148
154
153
154
154
154
164
168
181
189
187
193
189
190
192
189
194
188
194
205
208
223
223
229
236
231
237
228
222
194
186
179
173
153
131
113
102
93
82
75
67
72
87
101
127
141
148
153
149
157
165
169
175
173
175
175
175
180
174
177
178
173
174
167
175
180
183
195
193
196
193
189
196
188
190
189
187
197
195
207
217
220
230
227
232
233
230
231
222
192
181
167
157
136
117
107
101
93
85
91
104
120
145
158
171
183
184
187
184
189
199
197
200
201
201
201
193
198
196
192
197
192
193
187
186
194
190
196
193
191
194
189
195
194
189
192
187
196
203
205
217
220
228
230
226
232
227
230
230
192
179
166
144
131
123
121
116
112
127
135
153
172
181
197
202
208
212
207
212
215
219
220
213
218
215
214
212
204
206
200
201
202
196
201
193
190
193
189
192
188
189
190
185
193
186
186
195
195
209
212
219
228
225
230
227
228
229
225
231
188
171
163
148
143
141
140
145
145
158
171
180
199
204
210
213
214
225
228
231
230
228
234
227
226
226
220
222
215
214
212
204
206
199
200
201
195
196
190
193
197
192
193
187
185
186
189
204
203
210
220
216
224
227
228
231
228
233
230
229
191
178
168
166
159
162
160
162
173
171
181
189
201
216
214
219
222
225
231
226
229
225
223
227
217
219
218
213
216
209
211
210
205
206
203
205
199
195
197
194
200
197
189
190
183
191
199
204
214
209
217
218
219
230
224
229
231
230
232
223
192
188
176
177
176
178
178
175
182
181
185
195
199
211
211
215
222
218
224
220
220
223
216
219
215
212
215
210
213
211
210
214
209
212
210
206
212
207
207
204
200
198
189
190
189
192
208
209
216
218
214
222
219
225
228
227
234
228
230
225
191
188
188
186
193
186
182
182
178
182
180
186
194
196
206
205
211
215
207
215
212
212
215
212
216
207
208
215
216
223
222
223
221
212
213
208
211
213
205
208
199
193
195
191
195
197
207
212
207
215
213
219
224
221
228
224
225
229
222
223
193
188
193
193
194
187
182
187
182
182
184
186
196
195
204
208
207
212
207
214
216
211
219
215
218
222
222
233
232
231
231
225
224
215
213
214
212
220
218
213
208
195
197
198
201
203
203
214
210
210
215
213
219
216
220
225
220
227
221
217
199
198
194
196
188
190
188
187
191
186
194
196
197
205
203
209
210
211
220
217
223
223
222
230
230
238
238
236
238
229
227
223
219
217
209
217
220
220
222
210
209
201
197
205
200
209
210
207
212
206
213
211
210
217
213
222
223
220
224
213
