P2
60 28
255
117
124
129
151
168
190
205
208
215
212
209
210
209
210
203
200
202
195
189
179
175
169
160
163
159
163
165
165
174
170
166
164
162
167
157
156
155
149
158
155
159
162
155
161
155
158
164
159
168
172
185
197
202
219
225
237
247
241
247
246
111
113
120
147
167
185
202
204
211
207
200
204
205
206
196
190
193
185
181
173
171
176
169
174
178
181
191
190
198
198
190
190
183
188
183
171
171
160
163
162
161
170
164
163
162
161
167
160
167
174
181
198
202
216
229
238
252
248
249
250
105
108
121
138
166
187
203
214
209
207
203
205
208
193
187
187
191
189
172
172
176
180
188
189
203
209
211
214
206
211
211
205
204
195
197
191
181
177
166
167
164
162
165
160
168
169
169
174
170
179
185
191
207
213
235
249
248
251
250
252
104
107
121
137
165
191
203
214
208
200
200
199
199
186
181
182
182
189
184
186
195
195
207
206
213
221
218
226
222
223
226
217
223
220
218
211
190
182
167
163
167
157
160
159
157
162
161
171
172
178
188
189
211
226
238
250
249
253
253
253
97
103
116
143
164
190
205
208
211
199
198
199
189
183
175
181
190
192
200
198
204
210
211
220
219
229
234
226
232
228
230
228
222
234
231
223
210
194
188
175
168
165
157
159
151
152
157
156
171
173
182
196
206
232
242
246
252
252
254
252
94
102
117
144
171
192
208
206
205
201
195
189
175
175
176
182
197
197
202
203
205
216
212
220
224
222
231
224
227
229
225
233
227
232
230
221
220
205
198
186
170
167
157
157
151
144
152
151
161
171
177
193
202
228
247
247
253
253
253
251
90
99
123
147
180
196
202
210
206
204
193
181
176
172
183
190
196
204
200
205
204
205
218
219
226
224
224
231
223
232
231
227
233
224
227
223
220
221
207
199
180
165
158
146
147
147
148
157
159
169
174
183
209
224
241
250
250
254
253
253
93
102
130
156
184
198
203
212
205
197
189
177
178
182
194
199
196
203
197
199
206
202
216
218
224
231
223
229
223
225
232
225
233
227
228
235
231
234
222
204
187
161
151
140
140
146
141
153
156
163
173
177
201
218
235
249
247
252
254
254
98
111
127
161
182
198
205
206
208
190
179
178
184
198
197
197
194
189
198
193
198
202
206
221
219
229
229
217
222
217
222
225
222
232
228
229
232
224
219
202
188
170
148
142
131
133
141
142
158
163
172
182
187
214
231
243
251
249
252
254
97
111
133
166
186
196
208
205
201
185
173
184
189
197
195
190
194
188
192
193
193
203
203
216
223
220
227
221
222
219
216
223
216
216
211
205
214
205
199
191
174
166
148
141
135
132
141
141
154
166
173
185
189
211
233
242
252
252
252
252
99
116
141
165
190
198
205
211
201
192
180
182
194
195
201
196
191
192
189
195
192
195
210
211
221
220
215
218
213
215
205
201
209
201
201
194
186
186
171
163
155
148
148
137
136
134
131
139
147
167
179
184
198
207
232
248
247
250
249
251
97
113
144
171
192
197
198
206
203
194
188
188
195
194
192
190
186
191
187
189
198
197
210
215
216
212
200
203
201
203
207
200
201
187
175
167
151
147
136
132
133
122
130
125
123
130
128
139
147
163
183
186
201
210
225
241
239
247
247
247
101
118
143
176
190
199
203
206
207
191
184
189
186
187
187
188
187
184
192
193
201
210
212
216
202
196
192
190
203
198
190
181
172
178
175
180
180
170
167
152
143
136
124
127
122
127
141
147
166
173
180
191
198
221
231
240
248
243
247
248
101
121
144
176
192
196
205
202
200
195
190
190
186
190
187
183
189
184
191
199
203
210
203
196
188
182
185
177
178
178
180
192
191
197
203
198
195
181
173
162
144
139
128
127
129
133
155
168
184
192
189
200
204
219
234
235
243
239
242
248
100
117
145
168
193
199
199
205
199
195
190
192
195
187
190
190
189
195
199
208
206
197
190
178
177
172
167
173
178
196
199
195
189
172
170
159
146
141
125
127
123
116
119
110
122
145
171
196
200
207
202
200
216
219
234
243
240
244
241
246
99
110
140
170
193
199
195
201
198
195
192
188
197
193
192
196
192
198
203
204
193
172
162
155
156
163
166
181
185
179
169
151
137
116
105
105
102
101
96
100
110
109
106
99
100
124
167
218
230
223
217
207
219
224
229
239
235
245
247
245
99
111
132
169
187
198
201
198
200
197
199
199
197
203
197
195
197
199
207
193
169
152
144
150
156
166
165
156
154
138
124
116
103
86
69
74
90
99
99
99
112
111
101
101
85
99
161
217
238
222
214
215
215
230
225
228
239
238
248
244
98
111
127
159
181
189
198
195
200
201
198
201
197
201
195
192
202
195
180
156
144
150
143
144
147
142
140
136
136
126
114
113
100
76
58
68
97
100
92
97
106
113
100
115
143
172
213
221
219
217
213
221
217
226
231
225
238
236
242
244
97
107
128
151
179
190
196
200
196
203
200
198
202
196
199
201
196
180
152
148
147
137
134
134
139
136
135
139
137
126
106
105
107
97
92
94
100
103
101
116
129
140
158
168
195
217
221
220
210
217
216
215
227
220
231
237
234
241
238
244
95
100
124
151
175
190
196
202
199
203
203
196
201
198
195
196
179
166
157
152
143
135
149
151
152
155
146
145
140
129
115
102
107
106
106
113
119
134
145
158
167
168
183
189
199
214
208
212
214
218
224
217
227
228
229
240
239
247
244
239
94
99
113
147
170
188
197
196
202
200
201
204
200
203
197
189
178
167
162
149
156
168
169
174
169
168
165
156
158
152
148
148
149
155
156
162
173
173
174
169
173
186
193
209
212
213
212
211
227
221
217
220
220
232
233
240
248
242
246
243
95
103
110
133
158
179
197
199
201
202
201
205
201
205
197
184
182
173
170
172
177
188
189
192
189
180
179
168
163
157
151
158
159
166
166
159
168
166
173
178
183
208
216
223
222
214
223
224
227
224
212
223
221
228
239
240
249
249
249
247
94
99
104
119
152
179
195
205
199
204
205
203
208
206
207
198
185
184
184
195
204
212
217
209
207
202
196
189
171
166
159
153
156
149
157
167
177
192
186
198
213
223
236
228
226
226
230
235
224
223
221
220
230
222
234
247
247
253
249
249
98
101
105
113
146
183
198
203
198
202
207
202
208
209
209
205
194
204
214
221
228
223
224
217
213
211
197
200
194
187
186
178
190
194
198
208
207
217
218
225
238
234
241
236
233
239
232
231
227
221
222
215
226
231
233
244
247
252
254
254
100
104
102
116
141
178
202
200
207
206
206
208
209
217
209
206
216
224
238
233
230
236
236
241
234
228
229
230
239
233
228
231
228
231
223
223
231
229
238
236
238
239
233
240
241
241
236
225
229
219
218
226
223
236
245
249
253
253
254
254
93
102
106
109
132
173
202
202
205
207
205
213
218
223
216
216
231
234
243
242
239
247
246
249
249
248
251
250
251
248
243
244
236
238
240
236
242
236
238
242
236
240
238
243
246
236
236
226
222
223
218
231
230
236
252
252
254
254
254
252
96
104
110
100
121
170
200
209
203
208
210
215
228
223
225
230
234
244
243
247
251
249
251
251
252
254
254
254
249
249
247
243
245
243
247
243
235
236
234
244
246
246
252
247
248
240
232
233
219
222
227
225
233
234
244
254
253
252
248
249
99
100
107
91
108
167
200
212
203
206
215
217
229
225
229
241
240
246
244
245
251
249
251
254
254
253
251
252
249
249
251
248
251
248
244
238
220
227
237
241
250
250
252
249
244
239
231
228
224
224
230
222
223
231
240
252
247
248
239
231
