P2
60 28
255
116
114
112
110
107
107
107
103
95
83
74
74
77
78
79
77
80
83
88
97
102
110
113
110
114
132
150
139
115
134
162
181
171
125
111
111
113
116
108
110
113
108
109
109
113
132
151
166
163
141
118
96
83
86
93
89
89
90
95
103
118
115
112
111
107
101
100
98
91
88
84
76
70
69
80
91
97
101
99
100
102
106
111
110
110
116
148
164
155
170
187
197
173
130
118
117
118
117
113
116
113
109
108
108
109
121
143
152
154
150
132
114
93
71
79
94
90
93
97
101
109
107
109
110
108
107
101
96
89
79
73
68
75
91
96
96
95
98
98
100
103
106
115
123
117
119
149
170
177
181
202
220
173
124
115
119
119
120
121
117
115
113
109
110
109
114
120
126
137
133
127
128
105
73
66
82
88
91
97
103
87
99
100
102
102
101
98
91
81
63
62
79
88
93
94
90
91
95
97
101
108
112
118
126
123
126
140
162
160
152
194
216
167
121
114
119
120
118
119
119
118
113
110
108
106
108
108
114
117
113
127
130
111
90
75
80
88
88
94
97
64
78
86
92
95
96
97
85
67
68
81
91
94
96
94
88
92
97
102
107
105
111
119
125
131
131
146
160
134
127
154
160
137
119
121
120
119
118
116
119
119
119
116
112
113
110
107
112
112
109
110
110
110
104
92
82
82
88
86
87
67
69
78
86
92
92
78
66
72
90
94
95
98
95
93
94
97
101
100
104
105
107
115
118
124
128
135
135
127
122
116
118
117
114
117
116
115
114
114
119
119
117
119
113
110
110
108
104
103
104
102
104
108
110
106
98
88
81
83
88
83
74
74
82
85
81
73
77
87
95
101
96
95
94
89
94
98
101
101
101
105
106
110
114
111
111
111
110
113
107
103
100
99
99
94
93
94
98
105
108
109
111
114
116
114
112
106
99
100
99
100
102
105
108
107
104
91
87
97
106
96
94
81
79
78
68
72
87
95
95
94
94
89
88
91
96
100
98
100
98
96
97
95
95
98
103
107
109
113
111
104
98
95
96
90
89
85
79
83
87
96
101
102
106
107
108
106
100
97
95
94
96
99
103
102
101
96
93
104
116
81
86
82
79
73
66
76
87
88
91
93
93
90
87
90
92
93
92
91
88
81
84
88
89
99
107
110
106
103
104
98
97
97
96
94
87
87
88
82
79
80
87
94
96
99
100
101
101
97
95
93
90
92
94
100
99
92
92
105
120
61
70
91
100
96
84
78
81
84
87
88
85
84
82
86
92
90
85
78
80
85
89
96
96
98
99
98
102
98
97
96
95
96
92
91
86
83
85
84
82
79
81
90
94
96
96
96
98
98
96
91
90
91
90
96
94
84
92
106
114
59
124
227
243
176
94
69
77
79
78
78
77
77
79
82
84
78
75
82
87
89
90
92
91
89
94
95
96
100
97
97
95
91
89
86
84
78
82
88
84
83
84
86
90
91
93
93
93
95
94
93
91
86
86
91
89
78
88
105
110
49
77
135
160
121
76
77
82
81
78
76
78
76
76
76
72
68
74
89
89
85
85
83
83
84
86
85
83
87
86
78
70
66
70
68
69
74
75
80
78
79
83
84
87
91
93
95
97
98
96
94
91
88
88
85
77
72
83
105
116
49
58
92
98
76
66
89
96
87
84
79
76
75
73
70
66
74
87
90
84
77
74
77
78
76
68
60
54
49
51
45
40
46
46
45
53
69
81
78
73
72
78
81
84
94
95
100
105
107
106
98
96
94
87
82
74
67
76
97
115
82
95
130
129
95
78
91
100
95
91
87
82
78
74
72
72
78
85
80
77
74
70
66
61
56
45
36
37
37
34
32
33
36
43
47
56
79
96
94
87
80
79
81
77
85
97
109
122
121
111
101
97
95
88
79
63
52
69
94
111
107
105
111
105
74
73
98
108
103
98
93
84
81
78
72
69
70
72
71
67
61
55
49
51
54
50
45
46
50
45
38
37
44
51
47
67
104
111
101
92
91
93
91
85
76
91
111
120
121
112
102
96
92
86
73
60
52
67
95
108
107
108
109
102
76
73
100
111
108
104
98
91
85
80
72
66
62
56
53
49
46
46
48
58
76
82
68
55
52
52
52
52
53
54
63
91
113
112
100
91
86
80
78
83
88
101
113
118
115
105
97
94
89
84
65
46
56
70
93
109
106
107
111
106
77
68
100
116
114
110
101
95
87
76
70
63
59
53
50
48
45
53
63
78
97
108
99
77
63
59
59
55
55
69
94
111
108
95
82
80
78
85
96
103
110
111
114
113
106
99
94
96
95
76
47
31
52
78
94
111
107
106
110
110
81
67
98
117
115
113
108
103
97
86
77
68
60
61
62
65
67
70
78
84
95
110
116
111
97
82
73
79
91
99
103
96
88
90
89
90
90
92
104
110
113
113
111
109
102
95
88
90
87
61
31
32
58
86
105
117
111
106
109
114
84
66
95
118
117
114
115
110
104
97
88
85
80
81
80
75
77
79
81
82
82
87
91
98
103
101
98
97
102
100
92
96
99
103
103
94
90
91
97
105
110
114
111
106
99
92
88
82
71
49
26
40
72
93
107
115
108
107
108
115
92
70
88
111
119
120
118
114
108
104
97
95
99
96
92
87
82
78
77
84
85
85
88
90
92
92
94
93
89
95
96
97
98
91
87
82
84
95
103
108
109
111
111
104
97
93
90
87
73
43
33
57
85
102
112
114
107
109
111
112
94
69
85
110
116
118
117
116
112
107
101
97
99
101
101
98
86
83
85
81
79
80
85
86
86
88
82
78
77
84
93
89
88
84
80
89
92
98
103
104
113
116
110
102
96
95
92
82
62
44
52
76
96
109
115
118
107
106
109
116
106
67
69
107
117
115
117
117
114
107
101
97
98
103
103
103
103
101
100
93
92
91
87
89
87
87
86
88
91
91
94
93
88
91
94
99
102
102
107
110
116
115
107
102
97
93
86
72
57
47
66
93
104
112
117
122
110
107
109
115
109
82
68
95
115
113
113
115
116
111
104
101
98
98
102
103
103
103
104
103
100
104
105
103
102
101
101
99
98
99
95
94
96
100
105
105
107
109
114
114
113
111
106
100
97
91
81
65
50
57
79
98
104
110
119
122
108
112
110
114
115
94
74
86
108
113
113
114
115
117
111
103
101
100
100
101
104
106
105
106
107
106
106
106
106
104
104
104
100
99
102
106
106
107
112
113
116
119
119
118
113
110
105
97
93
87
74
59
55
76
94
100
108
113
119
119
106
109
107
109
118
108
81
77
101
113
114
115
118
116
113
110
108
102
100
102
100
101
102
104
107
104
103
104
102
102
101
101
104
106
111
112
110
111
113
117
120
123
124
119
115
110
104
98
96
87
61
53
62
82
100
103
112
115
115
122
105
106
113
112
112
110
96
87
95
108
113
113
116
119
119
116
110
106
103
102
102
102
103
104
107
108
106
106
105
104
105
106
110
112
114
116
113
112
117
125
127
124
124
121
118
111
101
103
95
74
61
56
73
93
101
104
105
115
119
120
105
106
109
109
107
112
109
102
96
98
108
110
115
117
116
118
114
111
112
111
105
100
102
107
109
109
107
107
107
106
107
108
115
118
117
121
120
118
120
121
125
124
123
123
117
112
104
99
87
69
60
60
77
96
98
103
108
114
121
120
109
111
109
110
111
114
117
109
102
98
103
111
113
117
119
118
116
113
112
111
109
106
107
111
112
111
112
112
113
115
115
116
113
116
121
123
120
116
119
122
126
127
122
119
115
108
103
92
79
70
64
72
83
94
103
105
112
114
120
123
