P2
60 28
255
100
99
99
97
89
81
76
76
77
75
80
93
101
97
94
98
117
135
120
93
89
109
129
142
149
139
118
99
93
92
91
91
89
88
88
90
84
79
80
81
81
83
84
85
82
80
86
89
91
90
86
79
69
57
39
42
59
68
75
74
97
100
102
98
84
76
79
79
78
71
70
88
100
98
96
98
109
121
106
90
95
112
123
122
139
148
122
100
96
97
94
92
92
93
89
88
88
85
84
83
82
82
84
85
80
80
83
83
87
89
84
75
65
45
33
51
74
80
85
88
98
96
99
95
85
75
72
76
72
66
73
87
90
86
85
85
92
99
96
91
94
108
118
122
133
136
116
98
96
96
96
96
94
91
92
91
90
88
85
85
82
79
82
84
84
84
84
82
83
87
87
79
63
45
37
51
73
85
88
92
101
99
96
90
84
79
79
83
77
75
83
87
86
82
79
79
82
84
88
89
88
100
115
117
126
129
113
100
97
98
98
96
96
94
90
92
89
87
88
88
82
78
78
78
79
81
83
84
84
88
91
85
72
52
40
51
67
78
84
86
102
99
96
93
86
83
86
93
88
79
80
83
85
80
73
77
79
84
89
89
91
106
117
105
98
107
105
100
102
101
100
98
93
90
89
89
87
87
87
84
83
83
82
81
80
82
84
80
79
83
86
86
78
67
60
65
69
76
84
81
98
98
95
90
88
84
93
111
102
85
81
83
82
80
78
77
81
85
89
92
95
100
103
100
95
94
95
96
100
100
97
95
92
89
86
83
85
84
83
82
83
83
81
82
83
84
85
83
83
84
86
89
84
77
71
61
62
71
81
85
100
100
96
89
80
76
108
134
104
78
78
79
78
75
76
80
83
87
89
89
92
93
93
93
94
96
96
96
97
96
92
89
87
86
84
82
81
80
80
80
78
78
78
78
77
77
75
74
77
80
83
90
90
79
68
57
56
65
75
82
97
93
92
87
68
68
125
159
113
77
79
79
77
75
75
77
78
83
88
90
88
88
90
91
90
90
91
90
88
87
84
81
82
80
80
76
72
75
74
73
73
72
74
74
73
72
69
72
76
75
76
87
97
88
72
58
47
58
73
78
97
82
67
59
47
44
60
76
79
79
82
78
74
76
77
78
80
83
87
86
82
79
80
81
83
84
82
82
82
81
83
84
83
83
81
79
76
74
73
69
68
70
70
72
71
70
71
70
74
78
77
78
76
92
113
82
47
55
70
75
101
65
39
46
52
63
75
73
73
76
75
74
70
70
71
72
76
77
74
71
71
75
76
77
83
87
91
92
89
87
85
86
85
84
81
81
80
77
75
73
73
73
74
75
71
72
72
74
77
79
82
82
70
94
130
92
53
55
66
76
83
53
37
42
44
45
52
61
67
68
64
64
66
64
66
67
67
69
70
74
77
79
79
80
85
87
87
88
87
87
89
88
84
80
79
78
76
76
74
73
71
70
76
80
83
86
86
81
77
77
78
88
103
110
108
108
105
76
63
75
80
64
50
48
53
62
78
83
71
64
62
63
64
60
61
65
66
69
73
76
78
77
75
76
80
81
82
86
86
86
86
85
85
83
75
69
69
71
69
68
66
64
67
68
74
86
91
91
86
78
75
101
122
94
79
138
148
82
63
76
74
56
51
52
53
64
84
87
75
68
65
63
60
59
59
65
68
68
71
72
71
72
72
75
78
81
85
86
87
86
83
80
80
76
70
66
64
63
62
58
56
63
64
65
73
85
89
86
83
78
78
94
100
72
82
145
129
66
62
74
65
68
66
69
70
67
71
73
74
73
71
67
60
57
63
67
68
69
71
71
70
72
72
73
75
79
82
79
80
80
78
74
72
72
66
59
57
55
58
64
70
74
77
81
81
82
86
85
83
79
75
78
78
69
71
79
75
68
72
76
94
93
90
84
80
80
73
65
70
78
76
70
67
65
65
63
64
66
66
68
70
68
68
68
71
71
71
74
75
76
73
68
65
59
55
52
49
52
58
65
72
76
81
85
88
87
85
85
83
82
82
83
81
71
60
55
61
68
70
73
97
96
92
89
88
87
81
71
68
75
79
73
71
68
64
62
59
60
61
60
61
64
67
66
71
72
67
67
64
61
61
56
55
55
54
53
52
56
59
63
67
74
80
82
82
83
85
88
88
88
86
84
84
72
62
64
67
70
71
70
100
96
89
87
87
90
87
77
71
71
73
71
70
70
66
63
65
63
59
55
56
58
55
57
58
57
56
53
54
54
54
52
54
57
55
51
51
60
66
67
71
74
74
72
70
75
84
89
92
90
89
87
78
69
64
66
69
69
69
68
99
99
93
90
88
86
87
81
76
74
76
77
74
72
72
70
67
62
59
57
56
56
52
53
55
56
54
47
49
54
57
59
57
58
62
62
63
63
66
67
68
70
70
73
76
79
88
90
90
88
87
84
71
66
66
68
73
72
71
73
101
101
97
91
92
92
93
91
78
68
71
76
79
80
79
75
72
68
63
66
65
60
54
53
58
60
57
55
56
62
63
63
66
69
72
69
66
68
67
68
68
69
72
76
81
84
88
89
87
90
89
77
67
63
69
73
72
69
67
72
100
100
97
91
91
95
94
93
87
74
69
76
85
89
85
80
75
75
75
73
72
68
63
64
70
69
61
60
65
71
73
73
76
77
77
74
71
72
70
69
73
73
74
76
80
88
91
91
88
90
87
66
59
65
71
75
71
70
71
71
98
98
94
94
94
94
94
92
87
80
66
61
76
86
84
82
79
75
76
74
71
68
68
76
78
74
72
71
73
75
77
75
77
81
78
73
71
71
73
74
76
78
79
83
84
87
89
86
82
73
64
61
65
75
75
72
70
73
75
71
101
100
98
96
97
94
93
91
88
90
85
74
68
73
81
85
83
77
76
77
75
76
76
78
83
81
78
79
78
79
80
81
80
80
78
76
75
74
76
78
80
84
84
86
89
89
91
86
75
65
61
67
74
75
75
72
73
72
73
75
102
100
98
97
96
96
92
90
96
97
92
87
73
59
64
74
80
82
83
84
79
78
79
79
82
83
82
79
81
84
82
81
81
79
79
80
81
80
79
83
87
89
87
87
90
87
77
65
61
66
68
74
78
75
75
74
74
74
72
73
99
101
101
97
95
95
94
95
95
93
93
92
92
78
61
58
64
76
83
85
83
80
81
85
89
92
89
87
86
87
88
81
77
78
81
82
79
80
83
88
95
94
94
89
78
68
62
64
65
67
73
76
78
76
74
74
71
72
72
72
101
102
97
96
96
93
93
96
96
92
91
92
93
94
88
73
58
56
66
74
82
86
86
87
86
88
90
89
88
86
84
85
83
84
84
83
81
82
89
92
90
90
86
75
65
67
68
67
69
71
78
81
77
75
69
69
71
72
74
73
102
103
102
100
97
96
95
93
97
96
93
92
89
89
92
91
83
66
53
54
67
77
78
82
85
86
88
90
90
84
83
88
88
86
84
84
86
84
84
83
80
79
76
75
75
73
74
72
71
72
75
80
77
73
70
70
74
74
75
75
99
101
99
98
99
98
97
96
91
90
92
93
92
88
92
93
91
89
80
74
73
69
64
65
73
81
86
90
88
86
85
87
88
88
90
85
78
73
64
63
68
74
76
76
80
78
75
74
71
73
76
76
75
70
71
73
73
73
71
73
100
100
101
102
101
99
96
95
93
93
95
90
91
94
92
93
89
89
92
92
87
80
73
64
63
65
67
70
71
74
75
72
73
75
74
71
65
65
69
74
80
80
83
84
82
82
78
75
76
78
79
75
74
72
69
71
68
69
74
75
