P2
60 28
255
217
219
221
224
224
229
228
228
233
233
235
235
235
237
231
227
221
217
216
208
204
200
191
190
181
177
173
162
163
157
157
156
156
164
161
162
164
162
170
171
178
185
187
197
201
211
218
221
231
236
243
251
253
254
254
254
254
253
253
253
220
225
223
228
231
236
239
237
242
241
241
243
241
243
239
234
231
225
222
214
207
206
197
194
188
180
176
165
165
162
159
160
155
157
158
158
162
159
162
167
173
184
185
194
203
208
220
224
231
238
243
251
253
254
254
254
254
254
254
254
218
221
228
233
240
241
242
242
242
245
245
243
241
237
233
227
220
216
210
207
202
198
196
191
189
181
177
174
163
160
153
153
157
151
156
155
156
162
158
164
171
176
184
187
198
207
215
227
230
238
244
248
254
254
254
254
254
254
254
254
217
223
233
239
243
245
244
245
241
237
230
224
220
213
205
197
190
186
183
183
180
178
182
177
176
175
170
172
164
159
157
150
154
154
153
154
153
157
158
160
164
170
180
185
193
205
213
224
230
239
246
249
253
254
254
254
254
254
254
254
220
227
232
238
241
239
233
225
218
205
197
191
187
186
177
178
178
174
179
170
167
166
158
160
155
155
155
154
161
156
156
156
150
149
146
149
153
153
158
156
162
169
174
184
189
199
210
216
225
231
240
249
252
254
254
254
254
254
254
254
233
236
237
235
226
214
201
190
187
183
182
187
190
198
201
203
208
203
206
201
193
191
175
168
159
150
148
142
146
146
148
154
147
148
148
145
150
151
155
157
160
168
171
181
189
196
209
217
226
233
241
249
252
254
254
254
254
254
254
254
232
228
218
203
193
184
180
184
188
200
207
212
222
225
222
220
218
217
215
210
201
196
192
182
174
162
152
147
136
134
136
142
150
145
147
144
145
151
149
155
159
162
171
178
187
194
203
213
220
230
238
245
253
254
254
254
254
254
254
254
218
202
190
177
178
186
193
205
211
217
221
218
218
218
215
211
208
207
203
196
187
181
182
175
168
162
154
153
143
135
132
129
139
141
141
146
144
149
151
152
158
162
172
178
185
193
199
210
214
225
239
246
252
254
254
254
254
254
254
254
186
173
171
182
196
208
211
209
208
207
207
204
198
194
187
180
178
181
178
171
168
168
166
161
148
146
144
139
142
137
133
132
131
135
133
138
142
141
149
148
155
165
169
177
181
189
198
204
214
221
234
245
250
254
254
254
254
254
254
254
169
173
182
195
203
207
207
199
188
180
178
173
163
155
149
145
147
148
148
141
141
148
144
139
133
125
126
124
127
129
127
129
123
126
128
133
142
137
143
149
154
167
170
178
184
188
200
206
214
222
233
245
251
254
254
254
254
254
254
254
178
184
186
188
192
189
184
173
152
138
139
140
130
121
117
111
108
106
102
103
107
115
120
117
117
114
112
114
111
116
117
117
118
114
123
127
129
138
138
147
153
159
170
174
184
191
199
211
214
223
234
244
251
252
254
254
254
254
254
254
188
186
178
170
167
160
149
143
129
110
101
94
88
83
79
75
71
70
69
71
77
75
77
82
89
94
96
104
107
109
111
107
111
109
114
125
126
134
139
148
157
162
173
177
186
197
200
210
219
228
239
245
251
254
254
254
254
254
254
254
180
179
165
143
126
118
112
108
95
73
65
69
70
69
69
66
62
64
66
66
67
67
68
71
69
72
78
85
96
100
102
100
97
104
104
114
125
133
145
145
155
165
169
183
194
202
205
207
219
229
239
247
251
253
254
254
254
254
254
254
161
152
137
116
102
92
85
78
71
67
66
80
92
82
72
68
64
65
70
72
71
78
79
74
69
70
81
88
90
91
89
92
88
92
94
99
118
130
144
150
157
172
177
188
200
207
212
214
221
229
238
246
250
253
254
254
254
254
254
254
129
112
98
88
84
80
81
86
84
70
69
99
115
100
83
72
67
67
71
72
76
87
91
86
79
78
92
109
117
114
99
87
83
81
89
91
100
126
141
155
162
171
185
191
206
214
214
219
224
232
237
244
250
251
253
254
254
254
254
254
98
77
70
72
76
85
101
118
109
84
80
91
102
102
90
83
74
69
72
75
84
95
99
96
87
85
103
130
142
137
122
100
87
81
79
82
87
113
137
157
170
176
191
198
210
221
219
222
226
231
239
241
248
253
253
254
254
254
254
254
76
70
70
78
92
114
141
150
126
95
81
83
96
97
91
87
76
66
62
67
82
97
103
101
92
90
110
138
151
152
141
120
102
93
84
80
81
90
124
151
171
184
189
205
214
221
223
225
232
232
238
246
247
252
254
254
254
254
254
254
72
72
80
94
117
141
165
170
139
101
84
86
92
94
91
83
71
62
62
70
88
102
106
105
97
97
119
147
157
156
147
132
114
103
95
86
86
85
112
153
176
192
196
207
218
225
230
230
235
236
235
241
245
250
253
253
254
254
254
254
86
85
91
107
133
155
170
176
161
117
92
93
94
93
91
84
79
75
73
85
101
110
111
104
94
100
129
153
159
155
145
133
121
111
103
94
92
98
112
151
176
188
203
209
220
226
228
234
234
236
239
243
248
246
250
253
253
254
254
254
115
109
109
117
129
146
164
178
176
137
101
89
89
94
94
92
89
88
87
95
109
113
111
100
90
105
135
156
160
152
142
130
124
118
110
107
106
117
134
162
186
190
205
216
223
229
233
241
239
237
242
245
251
252
252
254
254
254
254
254
145
138
130
122
124
136
150
171
175
155
119
90
89
93
94
93
93
94
97
100
105
107
102
92
95
123
144
147
146
140
132
124
118
116
113
121
134
144
166
178
188
196
203
221
228
234
242
243
243
240
243
248
249
252
253
253
254
254
254
254
167
164
157
147
139
135
142
160
166
155
129
105
97
95
92
92
97
96
96
98
101
101
95
94
109
127
139
140
135
132
127
125
125
130
134
142
160
174
190
195
191
203
215
226
237
241
245
242
238
240
243
249
252
253
253
253
254
254
254
254
173
177
178
170
162
151
148
145
145
144
130
116
105
99
98
98
99
98
98
101
103
106
105
114
128
130
132
136
132
137
143
146
153
152
160
167
179
193
192
198
206
215
227
232
240
245
246
247
242
242
245
248
252
251
252
254
254
254
254
254
184
186
188
184
174
164
155
152
146
138
135
131
127
122
119
119
119
120
121
119
119
125
133
137
139
141
139
147
153
160
166
167
174
173
174
186
191
196
198
203
216
225
235
242
243
247
247
247
245
243
244
247
251
252
252
254
254
254
254
254
192
195
189
182
174
169
163
157
153
145
144
141
139
140
135
135
137
136
136
132
134
141
143
148
147
152
158
161
173
173
172
175
177
183
188
196
198
197
207
216
228
237
242
248
248
248
248
245
245
243
244
248
247
251
254
254
254
254
254
254
198
197
193
191
189
183
174
166
162
156
154
154
150
146
143
140
139
134
133
132
136
147
151
155
161
165
176
179
180
179
177
185
190
196
201
200
207
211
218
228
237
247
250
252
251
248
248
245
245
243
242
248
251
252
252
252
254
254
254
254
208
200
199
196
189
178
174
173
163
162
159
154
152
148
148
145
143
144
141
149
154
163
172
171
179
178
178
182
179
185
191
201
208
201
206
209
216
227
232
240
246
250
252
251
250
245
243
245
241
242
244
247
251
251
252
254
254
254
254
254
222
215
209
200
192
182
173
171
166
165
168
168
167
163
166
169
163
166
170
174
179
181
186
182
180
181
180
188
191
199
208
205
211
212
213
223
229
238
246
251
253
253
253
250
248
246
241
242
238
239
246
247
251
251
251
254
254
254
254
254
