P2
60 28
255
157
168
192
202
189
179
175
175
176
175
176
179
182
185
188
193
201
208
220
216
208
211
208
208
200
191
184
179
172
162
158
159
165
170
170
173
176
176
177
173
169
169
169
170
173
177
185
196
207
215
224
239
249
252
253
254
254
254
254
254
165
185
206
206
191
179
170
168
159
156
158
156
158
157
157
154
151
160
163
171
175
170
178
179
181
184
180
182
179
173
169
167
164
162
160
165
169
173
177
178
177
178
177
175
176
178
184
192
202
215
225
236
247
252
254
254
254
254
254
254
184
181
171
156
148
137
127
126
119
116
112
110
114
111
109
101
96
111
146
164
138
137
149
132
125
126
131
146
157
164
170
171
168
166
165
162
162
167
172
173
174
179
182
183
181
182
184
189
203
218
228
238
245
251
254
254
254
254
254
254
168
149
128
116
104
98
103
108
110
111
115
120
118
113
103
95
89
115
161
158
124
126
132
117
105
99
96
107
135
153
155
158
159
162
167
167
168
170
174
177
182
185
186
185
183
184
186
191
200
214
226
235
245
252
254
254
254
254
254
254
148
130
116
107
97
95
103
114
125
132
138
141
144
133
115
103
102
104
110
111
108
108
103
105
105
104
104
117
147
170
176
172
162
153
154
159
165
176
185
193
196
195
197
193
192
192
189
190
198
210
219
230
243
250
254
254
254
254
254
254
151
133
122
115
111
112
116
132
159
174
178
180
175
146
117
111
112
109
101
111
124
114
103
104
112
114
114
127
157
189
200
192
182
173
161
154
157
164
184
201
203
197
196
196
196
196
195
194
199
208
219
230
241
250
254
254
254
254
254
254
165
158
147
142
139
139
148
156
175
192
196
200
191
155
127
120
116
105
96
103
107
100
99
108
114
118
123
137
173
202
208
204
202
206
195
173
160
153
167
195
207
208
208
204
201
200
199
195
196
206
220
230
239
248
253
254
254
254
254
254
200
195
189
178
172
164
164
169
177
192
204
212
202
169
137
125
125
118
104
93
90
91
99
112
122
127
126
143
181
209
217
222
223
214
198
177
164
157
156
175
195
202
204
201
200
200
195
193
198
207
218
228
238
246
251
253
253
254
254
254
216
209
208
200
186
179
180
186
191
195
207
219
214
188
152
129
123
120
113
109
108
106
112
122
132
132
131
153
186
200
209
221
215
200
186
171
159
160
158
170
192
205
208
199
198
201
197
195
196
206
219
228
238
244
249
253
251
252
254
254
226
218
212
209
201
190
188
195
200
204
210
217
224
214
183
150
130
123
122
118
119
123
126
129
129
132
144
166
183
192
194
194
189
183
176
173
173
170
174
177
189
203
202
198
198
201
200
190
196
206
216
228
232
242
248
250
251
251
253
254
227
223
218
215
202
192
192
193
200
209
214
219
223
221
208
181
149
129
127
132
134
135
136
140
143
154
174
183
191
195
201
208
199
191
185
184
189
189
188
186
189
195
194
192
192
196
196
193
199
205
212
225
231
243
249
248
252
252
253
254
230
229
228
215
205
201
201
199
198
202
208
217
222
222
215
201
180
162
150
145
149
153
158
167
189
201
202
208
209
211
209
204
201
197
199
198
195
196
195
192
192
194
196
194
194
196
198
199
196
208
221
230
242
246
251
253
253
253
252
253
226
225
225
214
207
212
213
216
211
204
204
205
210
214
212
212
210
202
195
196
202
210
220
226
227
223
213
206
206
211
210
203
204
205
205
205
200
200
194
192
196
195
197
191
193
199
193
195
203
213
227
233
242
246
247
252
252
253
253
253
225
219
212
213
214
216
220
219
219
215
208
202
197
193
193
197
202
207
209
209
211
218
220
216
215
215
212
208
212
210
208
210
208
210
208
205
199
196
199
198
202
203
193
195
195
194
196
197
208
215
228
237
238
244
245
249
253
253
254
252
226
219
207
209
212
214
219
219
220
215
213
218
212
196
184
187
194
193
194
194
198
206
205
210
216
218
220
214
212
212
212
213
213
213
211
205
201
201
206
204
202
203
198
198
195
190
193
195
209
218
223
235
236
243
251
250
252
251
251
250
224
220
217
213
215
214
216
219
217
218
223
226
223
210
206
211
211
206
202
208
213
217
223
218
216
217
218
218
215
217
219
219
218
213
209
206
206
209
208
208
206
204
205
198
196
196
196
200
205
222
228
231
241
245
250
252
252
251
250
252
225
220
219
217
215
215
217
222
223
225
224
220
218
212
211
212
206
207
209
211
212
212
216
218
219
219
218
224
227
225
220
214
213
211
210
212
210
212
211
209
207
202
203
194
191
198
203
209
211
219
228
234
243
248
250
253
251
252
254
254
231
229
223
222
219
219
222
223
224
225
224
225
220
216
210
207
207
204
208
213
219
222
224
231
232
235
238
234
231
227
226
223
218
218
218
219
218
215
215
210
209
210
205
200
197
202
208
209
217
224
234
244
244
249
251
251
253
253
254
254
234
236
230
229
224
225
229
223
227
226
225
227
222
223
222
221
221
216
222
228
232
238
237
239
238
233
234
233
235
233
232
236
233
230
228
227
223
216
213
208
203
204
198
197
199
203
209
211
221
228
236
246
244
248
253
253
254
254
254
254
246
243
242
234
234
234
231
230
225
230
233
232
234
231
233
234
231
233
232
241
245
243
243
238
239
238
238
241
240
241
241
239
238
236
234
229
223
222
215
210
200
194
198
196
203
212
214
221
223
233
241
246
251
252
254
254
254
254
254
254
249
246
247
242
242
241
237
239
235
237
239
237
240
238
242
243
240
243
243
246
249
250
253
250
247
245
243
244
244
243
243
242
244
240
236
232
223
220
213
205
198
191
198
203
207
214
215
224
229
234
243
246
250
254
254
254
254
254
254
254
253
251
248
247
244
245
243
237
239
239
241
242
240
242
242
247
251
251
253
252
252
253
253
253
251
251
249
248
248
244
241
242
244
247
239
232
228
218
210
202
200
198
196
206
209
214
220
225
236
239
240
248
251
253
254
254
254
254
254
254
254
251
248
249
245
243
244
240
247
245
243
247
248
252
252
253
254
254
254
254
254
253
251
252
251
251
252
249
247
242
241
246
247
247
244
239
231
218
210
201
198
203
207
217
220
221
232
234
236
235
238
247
249
251
253
253
254
254
254
254
252
252
254
249
248
246
245
247
245
248
250
250
252
253
254
254
254
254
254
254
253
253
253
252
253
253
252
251
247
248
250
249
248
243
239
234
229
221
209
206
205
207
217
220
223
225
227
235
234
237
244
249
253
251
252
254
254
254
254
254
252
251
251
247
247
246
244
249
251
252
248
245
249
253
254
254
254
254
254
254
254
253
253
251
251
253
252
252
250
251
251
247
246
240
234
232
223
218
210
210
212
209
216
219
224
228
228
234
235
237
244
245
250
251
251
254
254
254
254
254
254
254
253
251
248
249
251
250
251
250
251
250
250
254
254
254
254
254
254
253
253
251
249
251
253
253
254
254
254
253
253
251
246
243
236
230
225
219
215
210
214
218
219
224
226
232
232
231
238
239
243
249
248
251
253
253
254
254
254
254
254
254
253
252
250
250
253
253
252
249
250
252
254
254
254
254
254
252
252
249
244
245
245
250
251
250
253
254
254
253
252
248
240
240
237
229
226
217
215
216
214
221
224
225
224
226
233
233
236
243
246
249
248
250
252
252
254
254
254
254
254
254
254
251
251
251
251
252
249
248
248
251
254
254
254
254
254
253
251
252
247
244
248
248
251
253
253
254
252
252
250
244
238
232
233
231
225
221
216
220
223
224
230
224
224
228
227
230
234
243
246
245
247
249
252
254
254
254
254
254
