P2
60 28
255
54
88
101
107
112
112
114
113
111
106
102
101
100
103
106
104
105
108
112
112
104
97
92
90
84
79
76
68
66
65
64
66
66
69
65
60
69
77
82
89
93
99
105
115
118
118
129
132
136
139
140
147
150
154
155
155
158
158
160
159
63
92
106
108
110
109
111
110
103
100
99
101
107
111
110
106
107
112
114
119
120
116
110
105
103
94
87
82
75
73
72
71
66
66
70
67
67
75
82
86
91
99
103
100
109
113
118
131
134
138
139
141
142
142
151
156
158
159
156
158
69
99
111
109
106
105
103
102
99
99
102
101
107
111
110
108
107
115
118
118
120
116
115
116
118
120
115
109
105
99
94
83
76
69
69
75
69
70
74
78
87
96
103
104
105
113
118
128
134
134
138
136
138
140
142
145
148
155
159
158
74
106
108
109
109
106
105
101
100
98
99
102
109
112
107
106
110
116
122
122
123
121
119
121
120
122
127
126
123
120
119
113
99
88
75
73
74
72
76
76
83
94
94
97
101
111
118
120
128
130
134
138
135
136
139
142
147
148
153
156
78
113
112
109
105
100
102
100
100
99
98
101
101
106
105
104
112
110
115
121
120
122
117
122
124
122
130
131
132
132
132
130
123
114
105
98
92
88
87
86
86
91
91
95
102
106
113
112
118
124
128
135
133
133
137
139
142
145
148
149
84
110
115
109
108
104
99
102
100
99
100
102
103
99
100
103
106
113
113
115
115
117
117
112
120
128
130
135
138
139
139
137
133
126
123
118
112
106
98
93
88
90
99
99
100
103
103
110
112
115
121
121
128
136
141
142
141
145
145
149
90
111
115
107
104
105
99
95
93
95
97
95
98
95
95
101
99
107
114
115
117
114
115
117
119
127
132
138
142
140
139
138
141
137
131
127
118
114
109
107
105
98
97
95
96
100
99
105
112
117
122
124
130
129
130
137
139
144
145
150
99
117
110
107
107
103
96
95
101
100
100
99
97
102
101
98
100
102
107
109
108
111
113
114
115
125
132
133
141
143
140
141
140
139
133
128
122
116
118
117
113
110
101
100
98
95
97
99
107
113
118
124
125
129
130
134
141
140
144
148
99
116
110
107
108
105
101
97
97
96
98
102
97
95
97
98
103
101
100
102
103
107
108
110
112
111
118
123
127
130
129
130
128
124
122
124
125
123
122
117
112
109
102
100
99
97
100
100
105
112
114
120
126
129
133
138
142
141
144
147
104
114
114
109
107
103
96
95
97
101
100
97
96
94
97
95
93
95
88
82
81
87
96
96
103
112
119
129
132
129
126
123
116
110
107
105
106
110
112
113
112
110
108
105
105
102
98
97
96
105
114
122
129
132
136
139
140
144
144
148
106
113
109
100
100
102
97
97
100
100
99
99
96
96
96
89
75
69
70
75
84
91
98
103
112
124
131
136
133
128
129
129
127
125
121
116
109
103
96
96
101
100
102
103
103
102
98
97
97
98
106
113
122
128
131
134
135
141
141
145
111
114
107
107
105
103
102
102
105
103
99
96
96
95
87
73
56
62
81
85
88
93
97
103
105
113
126
133
133
127
123
118
117
116
112
115
115
111
111
105
107
108
104
105
104
100
95
94
96
93
99
111
116
121
123
129
137
139
143
144
110
111
107
105
103
103
105
105
106
102
97
95
92
90
84
72
70
74
80
82
84
87
87
87
89
94
101
103
103
103
99
101
107
109
109
106
109
113
113
113
113
115
111
106
103
99
99
95
93
94
95
104
109
116
120
120
130
134
137
140
114
110
106
105
106
104
104
104
102
105
102
95
93
85
78
73
69
73
76
78
74
63
53
44
35
14
15
60
74
41
31
51
76
92
98
96
94
98
99
103
107
109
117
117
115
113
107
104
97
94
91
97
108
110
115
121
128
136
136
141
109
107
107
106
105
105
101
102
101
101
99
96
93
81
73
67
58
56
52
44
39
35
35
31
26
22
12
10
26
38
36
43
73
108
120
110
97
88
79
80
89
91
101
113
122
128
124
115
105
98
93
92
101
108
112
117
119
130
132
133
109
110
103
104
106
105
106
105
106
101
95
90
82
78
71
65
56
44
40
38
40
57
68
56
43
39
28
9
10
34
46
54
90
134
150
137
119
104
93
93
100
91
88
98
100
110
127
129
119
105
94
93
96
104
109
114
119
121
128
131
108
111
106
106
106
104
107
105
104
102
96
88
78
73
70
71
66
52
55
65
70
77
82
71
47
37
39
41
47
52
48
68
122
146
136
118
106
100
94
91
84
85
86
87
81
76
101
124
126
114
97
92
95
100
104
110
119
117
119
125
118
110
109
105
107
107
109
111
103
99
92
81
83
85
87
89
86
86
84
84
85
85
88
84
68
53
47
47
57
59
59
86
113
114
101
92
97
102
96
92
88
86
92
91
95
101
111
125
125
115
100
92
95
96
101
104
110
118
117
124
118
108
110
105
103
108
104
106
102
99
95
85
89
94
100
102
96
97
92
90
93
89
95
96
94
93
86
87
91
93
98
101
107
111
111
112
111
111
104
100
103
99
105
112
120
132
135
133
123
108
95
86
91
95
99
106
107
115
117
120
113
110
104
109
107
106
107
102
103
97
95
95
90
95
99
103
98
86
95
101
102
105
98
93
92
95
100
106
113
109
107
112
115
119
114
112
112
107
106
101
102
104
104
122
136
142
140
125
112
102
94
90
91
93
95
104
111
111
117
117
107
108
102
106
107
106
112
106
101
100
99
98
94
96
96
97
98
95
101
103
102
109
107
107
107
102
104
107
109
108
104
111
109
109
117
117
113
110
112
109
102
107
111
119
130
129
126
115
103
98
94
94
92
91
90
96
107
109
117
121
107
105
106
104
106
108
105
105
102
102
102
100
99
98
100
99
98
102
105
109
111
112
116
113
113
114
115
118
115
116
115
120
129
129
130
123
116
115
112
118
119
117
118
115
117
119
116
108
99
100
100
97
95
86
89
95
104
114
111
114
105
105
109
107
104
104
101
101
99
101
99
94
95
97
98
100
99
104
103
103
111
111
116
116
117
120
117
120
121
120
123
122
123
126
124
123
120
120
122
123
124
121
117
112
107
108
104
101
100
98
99
91
90
90
89
98
98
104
110
110
99
106
107
107
103
106
110
101
101
100
98
100
99
101
97
99
104
103
107
104
103
105
103
105
109
113
114
109
113
110
109
112
116
122
123
123
120
128
136
131
129
126
123
118
108
102
98
95
102
100
95
94
89
92
93
94
101
103
109
110
95
105
107
108
105
102
104
99
100
99
97
102
101
103
103
100
107
108
109
111
111
111
102
101
103
102
108
112
117
121
118
118
115
118
123
124
131
136
137
138
134
130
123
112
106
105
106
102
100
97
90
92
89
88
90
89
100
100
105
110
101
105
109
108
108
105
103
104
98
99
99
98
101
100
100
101
103
108
111
113
114
116
121
115
115
116
118
124
120
120
119
120
128
129
133
135
135
135
135
138
134
124
119
112
110
114
109
106
100
95
92
91
96
91
90
92
96
104
99
105
94
103
107
105
106
107
101
103
100
96
102
99
100
101
102
106
102
110
112
112
114
111
115
114
113
121
120
122
121
119
125
128
130
129
133
141
138
136
135
131
125
114
113
114
116
112
101
99
98
95
95
89
89
89
88
95
92
97
99
98
90
103
105
106
102
101
105
101
103
100
98
98
96
104
105
105
105
105
112
108
108
116
112
113
114
118
125
123
125
126
128
133
133
135
128
126
132
127
126
122
117
115
116
122
118
110
104
98
98
93
93
93
85
89
93
92
96
91
94
96
