P2
60 28
255
192
165
126
97
80
79
82
80
74
69
83
104
138
184
203
213
218
213
209
187
177
186
191
196
188
183
183
175
169
155
142
135
131
136
134
134
137
132
132
128
136
159
174
192
198
208
221
223
236
244
246
251
248
251
251
251
251
250
252
249
190
170
132
98
85
85
87
80
72
77
87
119
164
194
215
216
220
211
180
175
180
185
184
177
182
177
169
161
149
142
133
131
129
128
135
135
135
132
125
126
122
136
155
163
178
184
199
214
221
236
238
243
247
241
244
243
245
251
248
250
193
167
123
98
92
87
81
76
67
75
97
140
189
207
216
215
206
188
171
180
184
180
183
181
192
197
194
201
200
216
222
213
219
206
206
196
175
168
145
133
128
123
132
143
159
170
178
193
202
217
225
225
230
227
235
241
239
244
240
235
190
151
115
101
93
87
80
78
78
80
114
159
195
215
215
216
199
185
190
193
194
190
190
202
209
226
236
238
241
232
235
226
219
220
213
227
233
236
246
239
218
181
146
131
133
153
166
174
190
200
214
218
223
237
236
240
238
234
239
224
185
150
119
101
88
83
82
78
74
81
128
181
204
223
220
203
189
186
200
197
199
209
214
224
218
219
225
221
231
232
233
230
210
202
191
186
183
172
178
185
200
220
219
206
167
151
166
167
179
192
203
213
218
234
232
231
237
234
243
230
196
183
142
99
83
85
86
75
67
99
148
194
218
223
217
191
187
191
187
203
210
214
216
216
227
227
233
236
234
242
237
237
231
214
211
201
195
186
175
179
173
177
186
192
207
196
182
178
175
187
189
199
214
216
230
230
234
244
239
235
197
179
133
95
88
89
80
69
74
117
163
201
224
220
206
189
184
190
193
205
211
216
228
224
227
230
227
227
221
231
230
222
225
214
212
206
192
191
180
177
179
178
182
179
188
191
188
189
180
185
185
186
204
208
226
238
239
245
235
237
192
173
142
108
90
84
76
78
93
126
179
208
222
224
199
189
192
200
205
200
209
216
219
223
216
223
223
218
219
212
212
204
197
197
185
181
170
163
166
163
171
173
175
180
178
186
181
176
180
174
180
184
191
216
228
241
250
249
251
252
193
180
147
107
88
81
76
78
102
139
184
215
221
219
199
186
187
194
209
210
208
208
204
211
207
204
206
196
194
180
167
157
144
148
140
132
135
127
132
139
146
159
162
173
176
178
185
178
177
167
169
178
181
210
228
240
253
253
254
254
198
183
148
114
92
83
82
81
97
146
193
218
227
216
194
182
191
202
207
209
201
200
201
200
201
184
177
165
142
136
130
143
163
179
194
192
189
176
157
144
124
130
145
156
175
176
180
183
176
173
163
173
187
198
227
246
251
250
250
254
195
190
163
127
100
84
82
87
105
155
201
222
228
203
184
191
203
211
203
196
191
189
192
184
175
156
135
130
137
155
159
145
145
149
154
157
155
177
194
190
166
134
126
132
150
165
170
180
176
176
169
166
183
198
220
214
175
168
189
226
198
194
177
147
107
80
94
119
128
160
222
253
252
227
201
205
204
198
194
186
185
181
175
164
142
130
126
136
142
134
131
131
130
123
116
120
114
121
149
164
173
167
148
125
119
145
161
168
180
181
178
170
186
188
134
127
187
236
254
248
197
196
192
162
109
80
95
111
115
140
190
206
172
160
189
212
205
191
187
182
178
173
156
138
120
129
145
128
117
131
169
192
147
119
176
238
254
225
154
122
144
166
166
154
130
124
145
159
177
185
183
182
163
123
126
202
244
235
243
243
201
202
195
167
124
96
87
71
101
175
210
217
197
178
206
216
204
194
185
180
167
158
141
118
125
137
127
112
136
196
225
193
152
180
212
199
197
199
174
155
164
170
159
154
156
136
133
157
175
192
194
187
143
112
164
209
232
250
251
254
198
200
195
181
147
113
94
82
115
187
224
222
198
187
210
216
206
197
183
175
165
147
130
119
129
125
110
135
189
235
232
163
143
196
188
133
124
166
185
170
192
213
175
137
142
154
157
171
182
201
214
184
124
119
177
222
245
254
254
254
198
199
201
196
162
117
108
111
135
188
228
226
194
189
212
218
209
197
185
173
164
142
130
139
134
119
123
160
211
244
234
178
148
167
169
126
111
162
183
165
197
238
210
155
124
139
171
190
206
215
200
152
116
140
191
231
252
254
254
254
198
196
201
200
164
121
109
101
134
190
221
223
196
191
209
216
208
198
192
176
161
154
149
153
145
142
151
169
208
243
234
187
162
168
167
160
164
177
173
168
211
245
222
192
155
132
158
196
206
168
140
135
124
151
205
241
254
254
254
254
198
198
201
196
168
133
110
95
130
192
215
222
205
184
205
218
210
204
195
187
173
170
167
160
168
169
171
182
197
222
237
206
167
170
177
179
192
195
187
200
223
224
213
204
193
176
194
220
179
117
123
133
121
160
219
249
254
254
254
254
198
199
197
190
172
143
105
83
119
186
212
217
211
183
194
214
210
209
197
189
180
172
183
183
188
189
187
198
196
206
221
214
206
201
208
221
226
232
228
232
231
214
211
206
217
234
240
221
150
114
142
131
124
179
233
251
251
254
254
254
196
197
197
191
180
149
97
82
135
191
220
227
214
194
189
212
216
203
197
185
185
190
195
202
196
200
198
201
204
198
203
201
203
213
212
218
219
218
220
211
212
205
202
216
221
235
239
191
126
128
148
115
136
207
236
247
252
252
254
254
199
197
199
192
183
156
100
93
159
207
224
233
227
215
201
216
223
196
192
194
200
209
205
214
213
210
211
202
206
203
197
200
191
196
194
197
210
206
206
196
194
210
212
218
214
211
221
213
196
174
163
166
181
220
237
241
252
253
254
254
197
196
197
198
191
164
116
110
164
214
227
233
238
226
216
215
224
224
216
223
218
215
217
216
228
230
230
222
209
211
202
204
209
205
213
210
212
214
207
217
213
210
209
204
213
211
217
225
208
184
172
189
212
226
238
246
249
254
254
254
195
196
195
198
196
175
133
128
173
216
226
229
237
229
228
222
220
232
230
231
223
211
216
212
221
232
226
226
220
222
225
222
228
221
223
224
217
220
208
205
203
199
213
212
215
224
226
226
188
173
188
201
227
235
242
248
248
254
254
254
197
197
199
199
192
171
136
136
188
219
230
233
232
239
233
233
225
222
232
227
229
224
218
221
215
216
211
204
209
205
211
212
208
215
208
210
207
200
204
197
208
219
221
227
226
239
231
195
184
188
203
224
237
240
234
241
251
251
254
254
196
195
198
206
208
190
148
138
189
220
231
237
233
241
239
238
235
221
225
228
231
237
230
234
230
222
218
202
207
204
204
212
207
215
207
205
213
206
214
213
217
230
225
235
247
239
196
149
170
201
225
245
236
239
239
241
251
252
254
254
197
196
200
209
222
203
150
141
186
224
230
234
240
238
243
238
238
239
226
223
223
234
241
234
238
230
232
233
223
229
225
227
228
221
229
223
225
232
223
228
228
233
244
244
245
196
130
129
171
217
246
249
239
230
240
248
250
252
252
254
197
199
203
206
222
209
154
153
193
223
232
235
241
241
247
241
235
242
235
235
228
216
227
229
233
235
234
241
231
235
239
232
237
233
236
237
232
239
230
233
241
238
239
223
223
217
183
182
205
234
251
243
233
227
240
247
245
251
254
254
196
195
192
183
197
201
150
145
196
220
231
235
237
244
237
241
244
240
244
240
245
239
226
225
219
229
235
234
240
235
240
237
233
241
235
241
240
232
238
230
226
221
225
244
247
239
213
212
238
247
252
241
231
235
241
248
250
250
254
254
