P2
60 28
255
89
77
80
113
172
216
235
248
248
243
228
210
209
211
212
207
205
206
204
211
213
204
197
187
188
182
170
163
152
147
141
139
140
133
132
128
124
128
130
149
165
171
185
191
209
221
228
242
243
248
249
245
245
243
247
251
251
252
247
242
88
78
89
129
187
229
242
249
243
229
215
211
225
226
215
208
202
208
210
214
221
217
226
227
231
236
225
225
206
192
191
171
165
152
141
138
126
127
126
129
141
149
167
175
185
202
208
227
231
230
238
234
242
242
240
244
243
248
242
225
89
85
99
143
196
233
246
248
242
216
210
224
225
224
217
220
223
219
227
229
235
245
242
248
249
249
250
247
251
254
254
254
254
254
249
235
209
175
156
141
137
145
150
172
178
184
200
207
224
225
230
241
240
247
242
240
243
240
245
226
87
87
102
147
202
235
246
245
235
218
214
217
210
218
227
227
231
228
239
240
235
243
241
245
244
238
241
232
229
222
214
219
214
219
228
235
247
247
243
211
170
161
154
163
176
179
191
197
209
218
220
233
233
237
240
234
242
244
245
232
87
89
103
152
214
242
246
243
227
220
217
211
210
214
233
240
237
238
229
233
236
239
246
243
248
249
246
243
229
222
217
211
208
195
192
186
190
208
213
229
233
215
194
174
176
182
185
197
199
209
217
220
234
230
237
243
241
250
245
238
94
89
110
162
216
244
247
242
227
217
219
219
228
230
233
233
223
232
233
233
241
237
243
243
242
246
240
240
233
227
225
213
210
203
192
191
182
186
188
190
203
211
220
204
184
185
184
194
192
193
208
209
227
237
237
246
246
250
247
243
99
81
108
175
231
251
251
241
227
210
215
234
238
238
227
225
229
227
232
229
236
243
239
244
239
239
239
228
228
221
214
209
196
192
181
181
184
178
184
181
186
193
194
202
191
183
185
180
190
188
195
213
219
239
252
252
254
253
253
254
106
78
107
181
236
248
247
235
225
219
223
235
226
222
223
218
220
216
220
227
225
233
231
230
228
220
219
204
201
199
185
182
173
169
167
158
164
161
164
173
174
184
186
190
188
175
178
176
183
190
190
209
223
238
253
253
254
254
254
254
111
72
114
187
236
250
244
233
217
221
226
222
220
210
211
208
208
217
217
222
217
213
218
210
205
193
183
182
172
175
174
172
172
158
154
146
141
145
144
156
166
175
185
185
191
186
172
172
173
185
196
204
229
248
254
254
254
254
254
254
117
72
118
199
243
249
241
227
213
216
222
214
208
202
197
199
197
206
206
199
194
185
186
177
168
173
179
200
218
233
246
239
238
222
202
190
166
151
137
127
139
150
166
176
181
185
177
172
166
177
195
200
225
249
253
254
254
254
254
254
131
80
115
202
245
250
242
214
208
224
226
216
201
196
189
190
193
188
189
177
168
159
153
168
185
212
237
242
247
247
247
241
235
230
216
211
200
179
164
142
128
128
136
160
171
178
186
178
173
170
187
208
219
242
249
245
236
231
245
254
143
99
135
216
250
247
225
198
220
242
228
215
204
197
187
181
183
177
169
156
137
149
172
198
221
222
219
209
195
185
174
169
165
166
176
183
191
181
169
163
149
141
129
135
155
170
187
190
184
178
182
203
194
159
144
186
239
254
254
254
119
154
214
247
254
248
230
224
240
241
227
216
206
192
184
176
170
161
135
125
144
174
193
191
190
175
150
133
131
138
133
123
117
115
128
132
135
147
149
160
162
158
149
131
144
169
188
205
194
181
194
182
120
131
216
254
254
254
254
254
117
142
183
203
205
179
166
217
251
245
234
218
207
193
182
174
156
140
121
131
163
168
161
144
127
130
149
165
174
174
168
158
154
156
156
153
136
127
133
142
154
151
153
154
152
172
187
206
212
197
185
129
119
200
248
254
253
253
254
254
101
94
132
212
238
199
189
229
251
241
229
220
206
196
185
172
152
129
134
149
152
142
126
129
145
170
198
202
158
127
144
156
152
149
157
168
160
139
151
163
158
146
133
153
180
199
209
222
231
205
155
119
153
217
246
254
254
254
254
254
170
117
128
209
240
205
200
231
248
243
231
223
211
202
189
167
156
149
153
150
135
126
127
153
184
204
223
209
144
117
144
162
139
103
113
145
159
149
153
183
180
151
122
128
178
212
225
235
235
198
128
118
175
224
249
254
254
254
254
254
197
155
162
209
231
203
194
231
244
241
234
226
222
210
199
186
177
176
160
157
157
150
155
171
197
223
242
220
156
135
158
165
142
115
118
150
169
152
150
184
184
156
137
123
157
203
225
222
189
159
126
133
188
235
253
254
254
254
254
254
188
151
176
224
234
207
195
231
240
234
233
228
228
219
210
201
187
190
188
188
196
188
186
189
197
217
237
230
174
144
158
162
158
155
162
175
170
159
166
177
178
163
162
167
185
228
218
153
127
141
124
132
199
246
254
254
254
254
254
254
189
157
182
233
240
209
201
230
246
237
231
226
212
213
207
205
212
214
224
218
212
213
212
213
209
213
228
243
218
175
172
179
176
182
195
208
216
216
221
212
203
208
209
225
242
238
180
112
127
142
112
135
208
249
254
254
254
254
254
254
193
165
186
232
253
226
202
225
249
244
233
225
198
197
208
209
225
229
229
226
217
221
219
221
223
213
225
246
249
241
239
248
246
247
254
249
246
235
227
220
209
224
233
241
253
223
134
89
147
150
104
145
223
254
254
254
254
254
254
254
193
168
194
226
243
235
206
217
243
251
246
233
225
215
221
227
230
240
236
235
228
220
223
220
223
218
216
224
224
237
249
248
248
241
242
234
225
229
219
221
231
236
244
245
246
208
119
108
163
136
107
172
238
254
254
254
254
254
254
254
180
167
202
235
245
251
225
213
238
252
251
244
244
241
238
237
228
230
231
233
239
227
224
220
215
219
207
208
206
204
213
210
219
220
221
231
222
229
233
230
238
227
231
236
238
240
206
180
169
153
165
212
248
254
254
254
254
254
254
254
158
160
198
236
248
251
243
224
232
251
253
252
249
250
245
241
235
221
228
231
235
244
240
244
237
231
226
217
221
216
214
222
223
236
236
235
240
235
239
230
224
232
235
242
245
244
238
204
189
193
210
242
253
254
254
254
254
254
254
254
126
143
204
242
250
249
252
245
244
248
249
253
251
251
248
241
240
229
227
232
228
236
240
245
252
251
253
254
254
251
248
250
247
247
245
233
234
222
220
231
233
244
243
243
247
238
223
194
193
210
227
249
254
254
254
254
254
254
254
254
127
142
209
239
247
251
250
253
243
243
251
251
254
252
252
249
245
245
240
241
236
231
240
241
246
250
248
251
249
249
248
243
244
233
232
225
215
228
232
241
247
244
250
251
252
239
204
195
201
217
245
252
254
254
254
254
254
254
254
254
142
144
209
242
247
252
252
254
254
248
243
248
253
254
254
252
249
251
250
249
247
243
248
246
241
243
237
243
243
236
238
228
232
230
227
237
231
239
244
241
247
248
251
254
242
210
193
215
221
232
254
254
254
254
254
254
254
254
254
254
145
145
203
243
250
251
254
254
254
254
252
249
250
254
254
254
254
254
254
254
254
253
253
254
254
254
251
247
250
245
242
245
240
246
246
242
243
241
248
252
252
254
254
254
205
159
197
223
233
253
254
254
253
253
254
254
254
254
254
254
152
146
197
239
250
249
253
253
253
252
252
254
247
247
252
252
254
254
254
254
254
254
254
254
253
253
253
253
253
249
246
251
249
249
250
246
249
249
250
253
253
254
249
212
148
141
192
228
246
254
254
254
254
254
254
254
254
254
254
254
