P2
60 28
255
203
209
209
211
192
124
62
36
31
25
14
30
83
130
148
148
139
118
97
94
98
86
75
79
86
96
98
99
103
109
110
95
76
63
54
50
49
50
50
46
48
54
68
83
92
99
104
111
122
128
132
136
140
141
140
144
146
144
141
126
209
206
209
211
194
136
63
31
26
20
20
43
97
140
148
142
125
106
104
107
96
95
99
104
105
107
116
114
117
126
132
132
124
112
97
84
69
58
55
53
50
51
54
67
82
90
99
106
116
124
128
131
130
134
139
141
145
141
133
115
207
205
208
214
197
148
86
43
25
22
30
67
111
138
150
138
113
104
103
101
100
109
113
113
118
119
126
131
134
144
143
141
136
124
116
105
100
93
84
77
66
62
60
58
71
88
95
99
112
120
119
128
133
136
138
132
135
136
122
100
201
206
204
209
211
180
121
52
21
25
39
78
124
147
148
121
104
107
94
91
107
116
121
124
127
130
126
130
125
122
125
120
120
114
112
116
113
108
102
95
88
79
75
74
78
90
97
102
107
113
121
125
134
137
133
133
131
131
123
99
203
207
208
210
216
201
136
47
17
26
41
90
142
151
139
127
115
110
108
104
108
114
115
117
117
117
114
111
110
110
117
116
117
119
113
115
114
113
112
109
109
98
92
91
89
99
102
105
111
113
118
124
131
135
132
136
141
138
124
103
207
203
206
210
220
215
151
62
20
20
48
107
146
147
131
117
110
106
114
118
113
115
120
118
108
104
111
111
114
116
119
126
126
126
123
119
119
113
110
108
108
109
99
97
95
91
98
102
107
109
110
120
128
134
140
140
146
139
120
110
207
203
204
207
215
217
173
91
28
17
53
119
155
148
133
121
114
111
112
115
118
120
113
105
102
101
104
111
118
123
123
125
128
130
127
120
119
113
110
110
102
103
106
102
101
96
95
94
96
106
112
118
126
135
144
143
141
130
124
138
202
210
207
205
207
210
201
128
38
14
61
124
152
146
128
110
99
111
123
121
114
111
108
100
99
100
103
111
111
110
111
113
116
117
116
115
109
106
101
95
96
96
101
102
103
103
96
95
96
97
108
117
126
135
139
144
141
141
141
139
201
207
207
208
209
214
214
137
37
18
70
130
151
140
119
100
108
122
117
109
103
101
98
93
91
95
98
102
105
103
105
102
106
111
109
108
104
101
99
93
89
86
86
90
94
101
100
97
94
94
100
103
116
129
134
136
128
129
131
128
203
201
206
205
206
222
213
134
38
19
77
133
144
128
103
110
129
124
109
100
93
92
89
90
94
94
99
99
96
90
90
95
92
95
98
96
96
93
92
89
84
83
78
78
84
92
100
102
97
91
89
96
103
117
126
124
128
127
125
121
203
203
209
206
205
220
194
114
38
27
116
198
168
99
92
131
139
119
105
95
87
87
86
85
87
90
92
95
99
95
88
87
89
91
93
92
95
95
93
94
86
83
77
71
73
81
96
110
110
101
93
89
91
100
102
88
93
117
119
110
200
205
201
206
212
217
187
82
9
21
87
138
106
71
115
151
133
115
110
113
103
89
84
79
91
120
174
212
177
131
103
96
103
105
106
106
104
106
101
93
84
78
83
75
65
91
158
193
179
155
105
83
84
61
37
40
72
105
108
101
199
202
203
205
212
224
188
78
8
32
106
143
126
116
132
142
121
105
127
152
140
100
65
88
134
161
179
182
163
117
94
89
72
63
64
63
63
63
67
71
78
91
99
96
71
109
182
194
213
188
122
84
39
23
64
104
113
115
111
108
204
203
204
204
210
219
210
156
70
48
99
126
112
114
127
128
120
111
109
109
105
95
83
92
100
118
124
115
122
119
141
104
24
18
103
171
130
87
73
42
58
118
154
157
114
121
136
125
144
140
111
63
31
58
95
106
116
119
120
120
200
199
202
204
201
206
212
193
108
47
80
115
111
108
121
127
125
119
111
107
121
125
105
93
109
130
145
144
108
119
148
115
62
42
69
75
39
29
43
59
67
89
128
99
79
87
81
103
110
114
105
61
49
76
98
108
119
127
126
127
196
201
200
203
204
200
206
200
147
86
95
119
117
114
126
134
127
120
109
109
128
136
107
97
116
133
174
161
124
171
200
145
72
53
64
47
32
41
59
59
58
87
109
89
72
72
88
110
106
100
87
56
59
87
105
119
122
126
127
122
196
202
203
202
204
204
197
167
131
122
134
136
126
116
123
136
130
116
102
97
123
134
107
113
119
139
198
179
131
145
159
125
75
58
59
59
61
64
66
62
61
68
67
68
70
83
97
86
69
74
75
50
64
103
114
120
118
123
133
126
202
199
202
205
214
204
135
63
55
104
140
145
130
113
119
139
138
114
99
105
129
139
119
125
137
166
204
183
124
106
117
97
86
85
81
83
83
84
88
88
83
78
72
79
92
100
92
70
59
74
66
51
77
108
121
123
131
130
132
133
199
197
200
209
209
177
122
85
82
121
147
147
138
118
115
135
143
128
117
120
137
140
124
113
118
155
200
187
122
92
86
80
84
92
101
104
105
104
97
88
76
75
84
91
95
89
73
58
61
78
63
61
90
107
120
123
128
132
133
134
197
202
201
210
205
157
117
95
91
126
151
144
138
127
122
130
142
139
123
120
135
141
125
105
93
125
176
162
104
84
86
80
82
86
89
95
96
95
86
81
86
91
93
88
86
89
70
50
69
70
51
75
110
114
115
127
128
128
132
130
198
201
200
209
213
167
114
88
95
131
150
144
137
131
123
124
132
135
131
124
134
136
119
112
100
110
147
146
119
100
93
89
91
96
89
91
92
93
96
93
98
98
94
91
94
115
122
105
86
61
65
93
109
115
116
127
127
127
131
128
201
197
201
211
216
181
111
76
93
136
152
142
134
129
126
121
125
127
128
129
133
133
123
116
100
91
105
111
105
103
99
99
99
105
107
108
112
107
105
103
99
95
90
98
112
122
120
101
80
71
85
108
109
114
126
125
128
124
123
126
202
199
202
207
217
195
120
69
90
137
150
141
133
129
126
116
117
122
117
119
118
118
117
111
105
95
99
102
104
110
108
109
109
108
114
112
111
113
107
107
99
92
99
114
136
140
116
87
81
93
104
109
109
112
123
123
123
121
119
127
199
204
202
202
217
204
132
74
91
137
154
142
134
128
122
118
114
118
121
120
119
114
117
114
107
106
102
102
106
110
115
112
114
115
113
115
114
115
107
98
102
108
118
130
132
114
89
85
92
103
115
110
108
112
113
118
116
118
120
120
199
202
202
205
218
199
134
78
92
136
150
143
136
126
116
120
118
115
117
121
127
122
120
120
109
105
107
111
111
110
116
113
115
119
115
117
114
107
105
105
112
121
130
126
104
76
60
71
94
111
116
107
103
108
110
119
121
121
123
120
203
199
203
207
216
203
134
79
95
137
148
141
133
127
124
118
122
120
116
116
115
130
133
125
121
117
118
116
115
114
112
112
110
115
115
111
110
105
109
120
125
123
115
103
78
52
61
83
103
115
108
105
104
107
111
110
119
120
119
123
202
199
203
205
212
206
145
90
100
131
142
140
136
134
131
122
125
124
119
124
120
117
121
131
140
132
125
122
116
117
114
115
116
111
112
107
108
114
114
116
107
102
105
104
103
91
91
101
112
115
103
102
105
106
111
110
115
120
120
125
198
204
203
205
216
207
151
100
108
136
145
139
139
138
134
135
127
126
126
123
122
117
121
117
117
128
131
139
145
141
136
126
121
117
112
114
110
110
109
109
116
116
121
120
109
107
108
115
119
112
104
102
107
107
108
116
118
121
124
122
