P2
60 28
255
160
161
165
168
162
165
158
153
154
152
162
158
152
153
148
153
154
158
164
162
171
169
167
170
162
161
159
158
157
147
143
139
131
128
123
125
130
136
142
138
150
157
164
180
183
192
187
186
201
201
212
212
211
220
212
220
223
220
230
226
155
162
162
165
164
153
153
149
151
156
157
166
167
169
165
155
158
156
155
153
143
145
142
140
139
133
136
133
131
129
124
125
119
114
110
107
118
122
128
138
141
155
157
167
179
174
183
184
192
207
204
213
212
210
215
208
218
220
223
233
156
160
162
158
158
149
149
150
151
158
158
168
173
170
173
164
158
154
146
143
134
126
122
118
120
119
123
124
119
120
113
112
115
109
107
99
103
114
117
131
135
146
158
159
168
168
175
184
188
203
202
205
208
199
209
204
212
225
224
235
161
158
162
157
147
151
148
147
150
155
167
172
178
177
172
172
163
159
152
142
136
130
128
126
119
118
114
114
114
111
111
103
107
107
99
106
102
109
116
116
131
136
146
155
156
167
169
182
192
191
204
200
202
207
198
206
206
219
228
221
161
160
156
151
139
143
143
143
152
155
166
174
176
178
171
171
167
162
158
146
140
134
132
132
124
123
117
111
112
106
109
107
104
106
100
104
107
109
117
114
125
130
132
142
144
159
165
170
184
184
193
192
191
199
193
203
209
211
224
218
155
158
154
149
144
138
147
149
155
165
171
183
185
182
180
174
172
167
162
156
145
142
138
139
140
135
134
128
123
124
120
124
121
115
116
111
118
118
117
121
118
127
128
132
142
142
155
161
166
178
175
184
185
184
194
198
215
217
216
223
154
155
152
145
147
141
145
154
159
173
176
182
188
182
184
178
174
172
165
164
158
155
153
149
154
149
146
144
135
138
134
133
134
127
129
124
124
127
122
125
124
123
125
123
130
131
141
153
153
168
167
170
177
176
196
203
210
219
213
220
160
157
156
152
146
147
145
157
169
176
186
184
187
184
172
171
164
162
162
160
161
155
157
156
151
155
152
152
146
139
143
137
136
136
133
137
132
132
133
129
133
128
126
126
124
132
132
141
149
150
162
161
170
182
187
205
207
214
220
212
160
156
151
149
144
147
150
156
166
171
181
180
175
171
159
155
149
143
145
144
144
141
138
138
135
140
139
135
136
129
131
128
126
133
128
134
134
133
139
135
139
136
130
131
126
129
129
132
143
142
154
160
166
184
186
199
207
210
223
217
163
161
156
150
146
144
153
154
160
169
166
164
157
149
143
137
140
139
140
141
135
133
126
124
127
125
133
133
130
130
124
124
115
113
119
118
127
130
137
148
146
148
143
136
136
127
131
133
134
146
147
162
174
183
204
206
216
221
223
235
165
161
158
147
147
145
150
153
151
153
140
132
130
127
139
144
145
141
132
128
115
107
103
98
106
113
117
120
121
129
127
126
124
112
111
108
107
116
123
136
142
147
148
144
143
134
133
136
135
148
153
164
181
190
209
213
221
232
229
239
171
163
161
155
146
148
145
149
145
125
114
117
132
140
140
144
136
123
107
94
88
77
76
78
86
97
90
88
89
97
117
124
132
134
126
120
109
107
113
121
134
141
145
144
140
140
132
137
144
147
163
168
181
197
206
227
230
235
242
237
173
167
158
157
149
149
146
141
134
109
105
120
133
136
127
122
118
110
97
82
78
83
80
83
95
107
99
79
70
75
94
114
126
135
131
129
124
115
115
114
121
126
133
140
134
134
134
135
146
149
161
172
183
200
205
225
235
232
241
237
173
172
165
158
156
149
148
139
124
111
109
123
122
114
112
117
126
124
112
96
89
87
78
74
81
91
91
82
76
83
104
123
123
122
129
127
127
126
124
124
116
118
121
124
129
125
128
132
139
150
154
172
183
196
216
219
235
240
236
242
177
174
172
161
159
150
145
138
122
117
114
115
109
105
118
136
151
152
130
100
86
81
77
72
70
76
82
85
85
97
126
154
156
136
125
118
121
127
126
132
125
120
120
115
121
121
122
127
131
149
159
169
183
192
216
225
232
241
239
247
191
182
179
169
158
159
151
142
132
118
114
111
111
117
132
155
177
177
145
109
91
81
76
73
69
69
74
82
86
105
148
188
193
170
142
128
119
119
124
128
137
130
126
125
121
125
121
127
136
142
161
169
181
198
205
226
232
238
245
241
196
192
187
182
167
165
156
144
136
121
120
122
127
136
143
162
186
189
161
124
99
85
76
73
72
74
77
77
89
123
170
204
208
195
171
148
129
120
121
118
129
136
136
143
138
139
139
136
143
146
163
172
178
198
201
218
229
231
240
240
198
204
198
187
180
166
161
149
137
131
122
135
147
151
158
170
187
198
190
157
124
103
87
77
76
76
80
92
117
156
191
215
217
201
183
162
149
138
131
131
125
128
131
143
159
161
161
154
150
160
161
173
180
188
206
207
225
234
234
243
204
210
208
194
191
175
162
154
141
136
128
142
163
169
177
178
188
203
209
196
167
134
111
98
95
96
104
122
154
191
212
220
214
201
189
167
158
156
146
149
140
132
133
137
161
168
170
168
156
166
170
178
184
185
205
209
218
233
231
242
224
218
214
207
192
183
167
158
149
137
138
143
163
181
186
193
197
204
209
214
208
188
163
142
131
134
149
171
197
216
226
223
216
203
185
175
163
160
160
153
154
141
138
149
160
177
174
172
170
165
183
184
185
192
192
213
217
227
239
235
226
228
223
218
201
190
173
162
158
149
148
145
156
178
186
200
204
202
212
217
223
224
215
202
190
191
200
212
221
221
222
216
209
205
190
185
173
162
169
161
161
158
154
165
165
171
171
168
173
173
189
192
186
193
191
207
217
221
234
229
220
229
230
221
211
192
180
170
167
168
161
159
154
164
183
190
207
214
215
222
224
225
223
222
222
220
223
225
224
224
218
219
208
201
204
190
185
177
178
186
179
184
181
177
181
173
173
171
172
186
189
194
189
187
201
200
215
224
225
234
222
227
227
219
217
197
184
178
171
178
171
166
162
158
170
174
189
203
203
213
216
224
230
222
228
225
228
230
218
218
207
202
201
193
197
189
187
191
183
187
186
187
190
182
186
178
174
178
179
195
191
188
193
185
196
200
209
225
221
233
233
230
229
225
214
208
190
184
185
183
186
174
169
170
171
181
182
186
187
186
202
206
215
217
211
218
212
211
206
195
197
187
188
191
189
196
192
193
192
184
190
184
184
188
180
183
178
182
193
190
196
187
185
191
189
205
210
220
231
229
231
231
227
227
214
208
193
188
196
190
192
188
178
180
176
182
186
185
188
179
187
193
194
199
195
203
205
200
201
194
199
198
194
200
192
193
192
186
190
182
186
188
184
188
180
185
187
185
199
194
197
194
183
191
189
199
210
212
228
227
226
232
230
223
219
204
199
196
194
199
195
197
192
186
188
185
195
194
192
197
193
199
202
203
210
208
214
214
213
218
210
214
210
201
201
191
191
185
181
189
187
194
190
186
194
188
192
196
196
202
189
192
190
186
197
193
207
216
223
237
224
226
227
217
221
214
211
208
198
206
204
203
201
191
194
193
195
200
199
210
207
209
216
211
220
220
220
223
216
222
219
215
212
200
200
189
184
188
183
191
192
196
200
191
198
194
196
202
192
199
194
189
195
189
197
196
201
219
223
234
226
222
222
223
216
222
215
212
211
203
208
205
202
202
195
200
197
199
207
208
218
213
214
219
218
229
228
224
223
217
219
210
206
201
191
195
187
186
194
197
208
203
204
206
196
203
198
200
204
196
199
192
192
198
191
201
204
217
229
225
