P2
60 28
255
121
124
138
155
175
196
203
215
215
212
215
210
218
220
215
205
201
211
205
201
201
190
186
172
157
149
136
131
127
127
131
126
125
123
120
120
112
115
115
117
129
128
137
143
149
160
160
171
177
184
198
196
211
223
226
236
230
238
239
234
115
124
133
153
172
189
204
207
214
208
207
214
210
211
206
204
208
200
196
190
184
182
169
160
149
141
137
128
129
126
124
126
120
123
121
120
125
121
125
123
126
135
135
143
149
149
156
162
175
181
188
202
204
219
226
231
240
234
241
242
106
115
127
150
171
188
205
206
209
207
203
210
207
203
200
198
202
191
183
178
169
165
158
158
157
153
154
150
152
151
143
143
140
142
137
128
134
136
139
141
140
145
142
145
152
151
159
159
165
175
178
196
201
212
225
227
239
237
239
246
105
110
128
147
173
193
206
217
208
203
204
204
205
194
194
196
191
189
174
171
169
164
168
166
175
180
177
184
180
179
175
168
173
167
161
154
147
152
149
153
155
153
157
152
157
162
156
162
163
169
180
184
202
208
224
240
237
242
242
245
102
106
127
147
171
197
207
218
210
202
204
200
197
184
184
193
188
183
173
178
185
182
189
193
199
204
198
202
201
197
197
189
187
182
175
172
163
163
159
157
164
160
163
162
161
166
161
165
165
171
186
187
202
212
221
241
243
249
248
245
99
112
124
151
175
196
215
214
210
201
199
200
185
179
181
187
190
183
189
192
194
202
201
211
214
215
219
211
216
214
210
208
196
199
192
183
179
161
159
158
158
162
156
161
165
166
171
168
173
173
178
194
198
216
231
241
251
246
248
249
94
109
125
155
183
198
211
208
203
198
194
192
178
176
183
189
201
198
201
203
205
216
213
220
228
229
235
228
227
227
219
222
217
218
214
195
187
172
164
163
156
158
153
154
157
155
165
168
172
177
179
197
206
224
243
243
251
253
253
251
95
104
135
161
188
203
205
210
203
196
189
179
179
176
184
195
197
206
203
208
214
213
224
225
233
235
228
234
228
233
233
222
226
222
219
210
194
185
168
164
162
153
159
154
154
153
149
165
168
177
189
191
212
231
244
249
249
253
253
253
100
110
142
168
190
206
207
213
207
194
186
175
179
185
193
203
200
206
205
207
217
216
227
228
227
235
228
232
231
227
231
222
222
217
208
203
190
188
179
166
162
151
153
152
146
149
144
155
164
170
187
189
210
233
242
251
251
252
253
253
103
119
140
171
190
200
211
209
202
187
180
182
185
197
200
201
205
202
206
206
212
223
222
230
229
227
229
219
222
216
214
214
199
197
187
180
183
174
173
163
155
153
141
143
142
143
151
151
163
169
175
194
206
232
247
248
254
254
254
253
105
125
145
175
194
201
215
209
194
179
174
190
197
202
201
195
200
198
203
204
203
218
220
224
227
218
215
201
193
187
174
171
157
153
154
146
150
144
142
144
137
141
135
134
139
137
147
148
158
169
171
190
203
224
244
244
251
254
254
254
106
125
155
179
197
204
207
210
192
181
181
186
200
198
199
198
195
203
201
206
210
211
221
213
209
197
174
161
143
139
138
128
130
124
124
122
118
124
115
113
115
118
129
128
131
134
136
151
155
166
178
182
205
220
236
251
250
253
254
254
106
125
158
184
197
206
204
208
198
185
188
190
201
202
199
199
193
201
201
201
209
205
208
193
168
151
135
139
139
132
129
111
108
107
100
107
104
111
115
112
114
106
113
119
123
136
134
143
155
163
178
183
200
218
233
252
252
252
253
252
108
134
161
187
196
202
207
202
201
189
187
197
194
197
194
192
198
195
202
203
203
200
174
150
138
143
152
144
131
115
102
93
88
91
93
95
92
88
96
104
113
119
110
115
121
128
138
140
157
170
179
193
198
222
241
246
253
251
252
253
108
134
158
184
199
200
210
206
199
192
188
193
187
188
193
189
196
194
199
205
193
171
139
138
153
149
141
122
107
120
127
112
101
103
108
110
109
93
92
104
107
117
120
123
128
128
139
145
157
171
178
196
202
219
240
242
250
252
252
253
104
126
159
183
199
203
204
207
196
192
192
191
194
188
192
195
190
196
198
192
163
130
135
144
142
133
134
140
134
146
154
132
106
87
90
114
123
107
100
118
122
111
116
121
133
141
143
160
168
178
187
191
211
221
235
248
246
252
251
251
101
118
156
184
197
204
200
205
200
193
194
193
198
192
190
195
194
205
198
156
126
126
140
130
116
140
178
185
152
128
132
131
108
74
70
106
128
118
112
131
143
121
111
114
129
155
159
172
185
191
201
198
214
229
235
247
248
250
249
248
101
119
144
179
195
200
205
198
198
195
193
199
194
198
197
196
202
193
169
128
119
135
125
114
131
165
196
202
161
117
118
130
114
88
88
125
145
122
119
139
147
130
105
107
122
151
186
191
199
205
202
208
211
230
241
241
246
242
247
249
99
118
140
170
192
197
205
202
202
201
196
202
198
197
199
198
199
172
133
122
133
135
115
115
145
173
201
219
187
132
121
133
135
136
140
143
137
119
129
155
149
134
118
114
120
141
194
218
223
224
211
218
222
230
241
237
245
245
244
247
97
108
139
165
188
200
200
205
202
202
200
197
203
196
194
197
180
146
123
138
146
139
144
141
154
176
198
223
214
165
128
129
137
140
142
136
122
127
146
159
153
137
138
136
144
165
193
225
226
221
221
216
226
230
236
244
239
246
246
246
98
103
131
162
185
202
201
202
203
201
202
196
200
199
196
191
156
138
142
147
158
161
174
179
175
182
192
208
211
190
164
148
143
147
151
151
154
174
186
182
184
178
185
195
204
221
220
219
218
219
225
218
229
234
230
241
241
246
248
243
97
107
124
157
182
197
206
200
204
203
200
201
196
201
196
173
156
149
158
161
167
183
187
196
195
192
195
196
202
198
200
205
199
204
204
202
205
201
205
202
199
204
201
214
223
225
227
214
219
221
220
228
223
231
234
234
242
240
247
245
96
104
114
145
177
193
206
204
206
207
202
204
201
198
188
169
168
164
167
177
179
194
200
206
211
202
202
193
188
191
189
195
193
195
200
194
198
195
197
205
201
209
211
213
221
216
216
211
217
227
220
226
225
228
239
236
245
244
240
243
96
95
105
130
170
198
202
209
207
206
206
202
206
197
187
178
168
177
182
193
206
209
219
217
219
218
205
201
191
190
188
179
184
181
188
196
195
203
200
208
214
210
221
222
221
216
210
225
227
227
228
221
232
232
236
243
239
246
241
240
97
97
105
128
165
200
204
206
207
206
210
203
208
207
197
190
181
195
207
213
226
225
229
224
217
222
212
209
207
204
214
211
216
220
215
219
212
213
213
211
222
219
224
228
217
219
221
230
233
222
228
225
231
240
236
245
244
246
248
241
93
102
101
124
166
198
208
201
208
210
206
210
206
208
203
191
200
210
223
226
228
236
232
234
231
230
238
232
238
237
233
239
231
233
226
220
226
214
212
215
222
232
227
229
223
227
239
232
232
225
219
229
226
237
246
244
248
242
246
244
90
102
103
120
164
196
211
206
209
211
204
214
214
210
207
206
220
225
229
230
233
246
246
246
246
243
249
250
250
247
240
242
236
231
237
231
233
225
220
229
227
233
233
232
239
237
243
236
228
229
219
226
229
233
246
246
251
250
248
248
98
99
102
106
152
200
204
208
206
207
212
215
225
216
215
223
226
239
231
231
243
245
251
248
247
248
247
251
250
250
250
244
245
239
240
241
234
239
227
224
232
231
239
240
242
246
238
238
229
226
228
221
231
233
239
251
249
252
253
253
