P2
60 28
255
110
109
107
105
102
94
88
84
82
83
78
73
68
67
71
77
85
91
95
101
102
105
110
111
114
125
141
143
144
167
198
187
136
108
108
108
101
96
92
90
96
102
111
116
116
119
119
117
121
125
117
104
93
85
83
80
88
91
89
93
104
100
102
104
104
99
91
87
79
67
64
71
81
91
98
102
104
106
106
108
110
114
119
117
119
132
163
160
153
182
198
187
139
113
118
116
122
123
119
119
117
122
126
126
124
122
120
114
107
102
96
95
97
94
90
90
87
96
101
102
99
97
101
104
103
100
89
72
60
69
87
97
100
99
98
102
103
104
106
106
114
122
124
128
126
144
172
164
162
161
163
158
128
122
122
119
118
114
116
113
110
111
113
119
124
127
130
128
125
115
94
77
79
89
95
98
97
98
104
105
92
99
100
98
95
85
67
65
83
96
103
106
101
100
100
101
101
99
105
110
115
122
128
129
130
157
173
162
144
132
134
126
121
123
122
120
120
121
120
115
112
107
107
109
114
121
118
120
120
113
102
81
69
82
97
99
99
99
105
109
82
90
97
96
80
62
71
89
100
105
100
99
99
98
99
98
103
107
106
108
111
118
126
121
128
144
149
142
125
118
114
112
113
113
113
115
117
119
120
121
116
112
112
110
110
113
114
118
117
114
106
90
66
62
85
95
99
99
102
110
80
85
89
75
67
81
93
99
98
98
98
95
96
98
101
102
103
104
102
104
102
100
101
101
103
101
105
105
97
94
91
89
92
95
98
100
105
109
110
115
115
114
112
109
107
106
109
110
112
112
108
102
86
76
84
89
88
93
96
104
84
82
78
72
81
95
97
101
102
100
96
91
94
98
98
98
95
89
84
80
87
89
94
105
104
106
107
108
109
97
95
94
88
84
79
80
83
88
99
105
108
109
110
108
102
101
97
93
96
99
104
106
94
80
77
83
89
88
88
89
94
83
71
78
90
93
96
97
99
98
93
92
92
93
92
86
80
79
88
92
91
94
97
102
102
102
102
100
104
99
96
98
91
85
83
83
82
78
80
89
97
101
104
106
104
105
100
92
92
93
97
104
101
92
85
82
80
83
88
91
94
82
71
79
85
88
94
95
93
93
89
88
91
87
79
75
83
88
90
97
94
93
96
97
100
99
99
99
98
101
94
91
90
88
87
84
87
85
79
81
86
95
99
96
98
101
98
94
91
91
91
97
99
94
91
90
95
104
112
117
139
105
82
83
84
84
87
91
88
88
90
89
85
74
72
80
86
89
86
88
90
90
91
88
89
90
90
88
81
81
79
80
87
83
83
86
86
87
84
83
81
84
93
96
99
100
96
92
91
89
87
92
93
87
88
92
93
106
115
118
249
157
70
80
86
82
83
82
80
80
80
79
76
74
82
96
94
84
82
80
84
83
78
73
61
54
55
54
54
55
56
53
53
64
73
82
84
82
84
84
85
84
87
91
91
93
93
92
91
89
89
89
88
86
86
89
96
108
118
121
156
95
75
94
96
93
87
82
82
79
78
77
69
76
90
92
87
80
77
70
63
59
55
48
40
42
45
47
50
48
51
51
48
55
69
83
84
79
79
79
82
89
89
91
93
94
94
95
96
94
91
86
81
79
80
87
97
106
118
123
76
69
84
104
106
100
95
88
82
80
76
74
72
76
79
77
74
68
61
54
50
53
58
54
49
52
51
44
37
34
38
50
50
50
75
98
99
87
79
75
73
81
89
93
101
103
106
107
103
98
94
91
82
76
79
79
92
108
114
124
137
94
95
111
112
109
103
95
86
82
78
73
73
70
70
63
53
50
47
50
59
78
95
86
64
58
56
47
38
37
46
55
54
59
93
115
111
102
91
87
80
75
84
94
107
118
121
118
107
100
96
89
83
76
75
77
87
107
116
124
98
68
88
117
117
115
110
104
98
88
78
72
68
64
58
54
50
52
59
68
85
104
119
116
87
59
53
55
58
58
56
54
60
85
111
121
115
102
96
92
89
83
77
87
106
119
120
114
105
100
99
92
79
72
64
69
86
104
115
120
91
66
89
116
120
120
118
112
104
91
81
76
69
61
57
61
66
66
70
80
93
104
116
122
107
82
64
60
58
55
54
63
90
114
118
114
98
82
82
79
78
85
90
101
113
117
116
110
103
98
94
87
77
69
55
54
81
100
112
119
92
66
88
117
122
121
121
115
107
103
94
87
80
75
76
79
83
81
77
84
89
92
106
118
121
114
101
89
81
82
93
105
115
114
103
88
85
82
76
87
94
102
107
112
115
111
107
102
97
94
90
86
76
62
58
64
82
99
111
121
98
67
88
114
118
122
121
121
116
113
108
101
98
95
93
93
90
86
85
85
85
87
89
96
105
109
111
112
111
114
114
105
98
91
92
94
92
94
93
97
101
106
109
106
106
105
102
96
93
93
89
82
67
50
55
66
81
103
113
118
103
68
81
112
120
123
124
122
118
114
108
102
104
104
100
100
95
88
83
81
85
84
83
87
89
96
96
95
99
97
96
93
95
99
102
107
102
94
93
93
97
102
104
107
107
103
97
93
90
89
90
76
48
37
49
69
88
105
118
118
107
70
75
112
121
118
119
122
121
117
111
106
103
103
104
105
102
91
86
85
85
85
83
90
94
95
96
90
89
85
90
99
98
101
97
90
84
82
88
96
102
103
105
110
109
103
98
90
85
80
77
65
35
31
52
77
98
105
113
115
111
73
69
104
119
117
120
121
120
118
110
104
100
100
105
107
108
105
101
98
93
90
91
87
85
85
87
85
80
84
89
92
93
90
90
85
84
89
95
102
101
102
106
108
108
100
93
89
86
80
72
55
32
34
64
89
105
112
111
117
119
84
73
97
115
121
119
120
120
118
113
104
101
102
104
104
104
106
105
106
104
101
103
101
101
101
99
100
97
96
99
95
95
91
91
94
96
101
101
104
104
105
112
108
103
99
93
91
85
78
70
51
40
51
75
96
106
116
118
118
116
87
69
88
110
117
116
119
119
117
117
112
106
103
100
101
101
103
105
104
106
108
108
107
106
105
107
105
102
101
100
96
97
99
100
103
105
105
106
108
113
114
111
109
104
98
89
88
87
76
62
46
47
67
88
104
110
117
125
123
117
101
71
81
107
114
117
114
115
119
118
116
110
106
102
101
103
103
104
104
104
104
106
108
109
106
103
102
103
102
102
104
103
107
108
108
109
111
115
118
117
113
107
104
98
92
91
90
86
70
51
46
59
84
96
102
111
114
119
121
115
108
85
78
99
112
117
114
116
120
117
116
115
111
108
102
102
102
101
102
100
101
103
104
103
100
100
99
99
103
106
108
109
109
109
107
113
121
123
123
121
117
110
105
100
93
90
87
78
62
46
56
79
92
101
107
113
115
115
121
117
116
101
81
89
107
115
118
114
117
120
117
117
115
112
108
106
102
99
101
103
105
105
103
103
102
101
105
105
106
110
111
112
109
108
109
113
121
121
120
120
115
110
104
98
94
91
85
70
57
54
68
90
100
104
109
114
121
117
118
117
119
115
96
87
101
111
114
114
112
117
119
118
113
110
112
110
107
106
103
105
106
107
108
107
108
107
107
108
107
109
112
114
115
112
114
118
121
124
122
119
113
108
104
95
94
89
76
60
53
67
83
95
102
99
107
113
113
117
116
113
113
114
110
92
94
111
113
114
116
115
116
114
112
108
109
110
107
110
111
110
114
112
112
112
111
110
110
112
110
113
119
117
114
113
116
122
123
123
120
116
113
104
98
96
92
85
69
58
59
74
92
96
100
106
112
120
117
119
115
