P2
60 28
255
216
216
223
209
151
89
57
51
48
43
50
84
123
142
148
145
133
115
107
108
104
97
94
96
104
109
112
112
116
124
118
105
90
75
69
67
68
68
68
67
66
72
83
94
104
109
117
122
129
143
146
147
150
148
152
154
158
159
156
158
221
221
220
203
150
94
59
50
45
47
64
99
134
148
148
138
119
114
120
116
106
111
120
118
119
125
127
128
131
140
145
143
134
117
103
87
74
69
65
65
64
66
74
83
97
103
107
117
122
133
138
141
148
144
146
149
151
156
151
150
211
215
212
204
174
117
71
50
45
49
76
115
141
150
145
135
120
112
110
109
117
119
120
126
128
139
141
143
148
143
146
144
143
141
131
122
111
103
92
78
75
70
70
73
80
97
105
110
118
126
135
137
138
141
142
147
147
149
150
140
213
214
219
212
195
150
81
43
47
55
87
129
147
150
137
122
117
114
111
110
123
127
123
130
128
129
127
123
127
125
128
132
127
124
118
118
117
114
118
114
105
95
81
76
78
94
107
108
114
121
130
134
136
145
147
149
147
140
142
137
217
216
218
223
209
157
79
42
47
61
95
137
154
145
133
122
121
122
121
123
121
121
125
127
126
121
122
122
123
129
126
128
129
126
128
125
123
120
114
115
117
116
112
104
95
95
105
109
114
124
126
130
137
141
147
143
142
144
140
138
215
217
218
231
225
173
96
49
45
69
111
145
157
145
130
120
116
118
120
124
127
128
128
121
120
119
120
123
121
126
127
125
125
120
121
120
116
117
114
112
114
116
119
116
113
109
108
112
113
119
122
126
135
137
142
145
145
148
142
133
211
215
215
220
218
180
119
61
40
65
115
148
153
144
130
121
112
115
126
129
127
120
116
115
111
113
116
120
119
114
115
112
108
106
103
99
95
97
100
101
109
112
113
118
117
116
108
102
107
110
116
121
128
136
139
149
149
146
144
129
217
218
216
211
219
208
144
68
42
71
124
150
147
142
122
112
119
127
128
121
117
117
113
113
111
107
106
105
102
93
85
82
81
85
84
80
80
79
83
85
93
100
103
112
116
119
116
107
107
106
110
119
126
139
144
152
156
144
138
133
215
212
215
221
224
214
148
66
42
82
134
153
147
130
114
116
128
124
115
113
112
111
108
103
100
92
88
83
80
84
84
83
87
91
93
93
93
91
90
89
83
83
88
99
110
112
117
117
108
105
105
116
128
133
146
147
148
149
140
142
211
212
211
221
228
213
147
73
52
96
155
164
128
104
118
137
135
124
113
107
105
104
105
99
88
79
78
85
83
78
73
66
65
64
70
74
73
82
94
101
98
88
82
83
98
106
111
121
118
112
106
105
114
123
139
143
140
141
137
140
209
215
215
219
232
201
123
56
40
96
162
157
107
98
135
147
128
117
112
105
104
100
95
85
76
80
79
72
67
82
113
116
89
74
76
76
73
75
82
86
96
98
92
85
81
93
104
114
118
112
108
105
106
119
127
125
113
111
123
121
214
214
220
222
225
188
88
18
38
100
141
138
117
125
146
143
126
117
112
104
102
98
84
76
78
80
87
101
129
152
144
115
90
84
79
71
74
85
88
78
84
99
100
99
91
88
107
119
127
130
118
106
100
103
89
68
67
90
123
122
214
211
211
219
222
199
129
60
55
111
147
139
126
133
145
138
125
118
124
125
111
92
78
82
96
126
175
216
222
183
141
102
80
86
88
80
75
83
92
96
109
116
111
107
93
100
147
180
192
195
166
123
88
51
52
85
115
132
129
129
213
216
215
218
216
202
153
82
64
114
140
129
123
129
138
136
125
129
141
148
136
102
89
104
130
162
166
191
206
185
176
122
74
91
139
138
91
85
90
85
118
162
175
157
120
140
168
193
201
199
191
126
66
50
84
117
128
135
133
132
211
213
214
213
214
211
183
104
69
97
118
122
124
130
133
133
126
123
118
115
115
104
103
95
111
127
128
152
170
201
197
129
84
75
73
65
63
80
82
82
123
163
173
141
123
126
121
146
136
137
150
104
70
79
101
122
129
132
136
131
213
213
218
211
209
211
203
146
86
98
127
128
119
126
136
136
130
125
121
116
128
132
113
116
129
136
167
174
167
190
188
135
84
75
84
87
90
87
89
100
127
144
127
113
92
85
104
110
117
123
117
101
76
83
106
122
132
133
140
137
213
213
214
214
204
187
164
141
128
139
148
138
126
127
142
144
134
122
112
116
133
136
124
137
146
158
197
185
156
166
165
126
91
84
88
91
91
90
89
95
98
95
90
89
86
87
109
117
108
100
99
87
72
87
113
121
131
140
136
137
209
213
215
218
179
119
83
82
113
146
152
143
133
128
141
146
131
113
107
118
142
145
133
132
142
169
199
200
154
139
149
116
100
105
109
114
117
119
114
107
100
96
100
97
100
112
119
112
83
81
101
84
72
92
120
130
131
140
140
139
209
212
219
204
157
115
91
94
128
148
152
146
135
129
137
150
140
125
117
122
146
146
135
140
154
171
203
209
152
121
122
109
109
116
118
124
122
122
120
108
105
102
101
101
108
119
112
96
83
95
104
75
75
107
125
133
133
135
143
141
212
215
216
185
141
120
102
105
135
148
152
149
138
132
136
146
147
137
125
124
146
150
129
126
129
152
197
191
148
117
113
117
115
116
115
119
122
116
111
101
100
106
106
113
114
108
93
69
73
98
86
63
86
123
129
130
137
138
145
143
211
214
219
195
143
114
106
113
140
155
149
144
140
134
130
138
147
140
130
130
141
145
126
116
113
139
185
177
140
123
118
121
124
123
126
123
120
113
107
110
111
114
114
110
108
106
105
99
104
97
64
73
107
121
134
136
142
146
140
147
212
216
220
200
145
111
102
113
142
158
151
145
141
135
133
130
133
139
134
135
146
145
134
116
105
127
160
157
132
123
122
122
124
124
127
126
122
122
117
114
115
115
114
105
105
113
118
122
106
88
83
98
118
122
132
137
138
146
141
142
207
212
227
215
156
105
96
117
145
150
146
142
139
137
131
127
125
130
134
135
143
141
132
124
109
111
124
131
125
116
118
120
124
128
125
127
125
127
127
118
119
116
111
110
113
128
132
115
101
95
100
112
119
126
129
137
141
141
144
139
209
212
224
216
164
107
87
113
152
154
144
141
138
136
127
123
125
130
135
133
135
134
127
125
117
115
117
115
119
121
124
127
127
133
133
131
132
129
128
120
118
117
111
117
129
132
121
100
97
101
109
124
127
130
132
136
140
136
140
138
210
210
219
216
169
114
93
119
149
155
146
139
135
130
128
124
123
126
130
138
132
132
129
121
119
115
116
118
116
121
122
125
126
125
129
126
127
125
119
120
118
117
119
125
126
111
94
90
99
115
122
125
125
122
131
134
141
143
133
142
209
212
218
213
167
112
95
122
151
155
147
143
137
128
128
129
129
128
123
129
136
138
138
127
123
120
118
122
122
122
123
125
130
128
129
129
129
131
121
116
121
125
128
121
105
81
70
84
102
124
133
125
124
120
126
133
134
138
131
137
208
211
225
217
172
118
96
120
152
150
146
144
137
132
125
129
129
129
128
123
130
136
140
146
140
134
129
127
128
126
125
121
124
127
124
126
124
119
119
118
123
121
117
114
98
92
93
100
120
131
132
124
117
121
121
129
135
135
138
134
209
212
222
215
173
123
108
126
147
148
147
142
138
140
134
133
131
130
136
134
132
129
125
135
142
149
156
155
149
141
138
132
126
126
125
124
122
117
123
122
121
125
125
127
120
113
112
116
133
136
125
117
111
118
122
126
133
134
138
135
