P2
60 28
255
108
106
111
112
129
155
172
195
203
207
213
208
212
214
219
224
214
208
206
203
200
193
195
189
177
167
152
147
141
134
130
124
124
122
121
125
121
123
123
122
123
122
133
136
140
150
149
159
164
172
186
190
203
207
216
232
228
238
237
234
106
102
104
110
127
155
171
192
208
208
213
206
205
212
211
211
203
202
204
197
194
186
180
170
155
155
149
146
146
143
147
141
139
140
136
139
133
131
135
133
137
137
138
144
144
152
150
152
163
162
175
183
191
204
210
227
234
237
242
240
102
97
98
111
129
149
177
192
205
212
208
207
202
209
212
202
199
196
195
189
178
175
168
163
164
161
166
167
172
176
171
172
165
164
167
160
157
150
151
154
151
155
153
155
155
149
157
156
159
165
166
181
186
199
215
221
236
241
244
248
94
93
95
107
125
144
177
197
203
211
205
204
202
202
202
186
185
191
192
186
170
172
173
174
179
179
190
193
189
196
191
193
188
183
186
174
170
166
157
159
154
161
163
159
164
159
162
161
157
164
165
179
192
197
216
225
240
248
243
245
93
86
91
104
128
158
181
201
208
210
209
197
199
200
193
184
177
186
187
183
184
181
186
192
199
206
207
215
213
211
213
207
207
202
198
198
184
177
167
157
160
154
157
156
155
162
159
164
167
168
176
176
191
201
214
236
245
252
250
249
90
89
93
105
129
162
183
200
207
205
205
197
196
194
184
178
176
186
194
189
195
194
197
207
207
216
219
223
228
223
228
221
217
218
212
219
206
191
180
161
159
155
152
154
147
152
152
155
164
164
174
179
191
209
221
242
252
252
252
249
88
90
92
109
138
164
189
199
206
206
201
200
187
181
178
172
181
187
195
200
197
205
205
211
218
218
229
230
232
233
228
234
227
228
232
224
223
205
192
180
164
164
156
153
151
143
147
144
151
165
168
183
190
208
235
242
249
254
254
253
86
90
98
114
143
169
191
200
204
209
200
192
183
175
175
174
185
192
195
204
199
204
208
212
226
221
226
229
226
232
227
231
230
224
229
221
218
212
201
197
176
166
158
147
148
140
142
144
146
159
164
178
189
204
233
245
251
251
251
254
86
83
99
118
146
177
189
201
205
205
202
184
177
175
181
192
193
199
198
197
204
201
211
216
219
229
227
232
227
223
230
222
225
223
214
212
203
208
205
194
186
164
154
144
137
140
136
142
147
153
165
166
184
207
226
245
249
252
254
254
89
86
99
123
148
177
191
201
207
204
199
179
172
182
188
198
194
190
193
189
196
196
202
214
217
228
227
226
224
211
216
210
206
206
197
206
204
201
201
186
179
160
147
143
131
135
132
134
146
150
164
167
179
206
222
242
252
252
254
254
86
92
99
124
156
178
196
197
203
207
195
186
179
184
193
193
195
191
193
194
192
202
203
213
223
219
224
216
212
207
199
209
204
204
204
193
191
177
168
162
149
148
140
137
135
126
133
131
138
153
159
175
178
194
222
235
250
254
254
253
86
90
102
126
158
178
194
199
201
206
197
189
184
187
197
193
195
191
186
196
194
199
204
209
220
213
211
202
197
208
205
202
194
181
173
158
155
148
136
132
118
117
119
121
129
124
129
133
135
154
164
174
183
192
220
239
247
252
250
252
86
91
107
126
156
184
192
200
204
205
204
190
189
192
191
190
184
189
189
192
200
197
205
209
208
206
190
185
179
174
175
165
164
161
162
171
164
167
163
149
140
126
124
118
114
122
121
130
138
148
167
175
189
200
215
238
245
251
251
251
84
90
102
121
150
183
193
198
202
199
199
189
186
188
181
184
182
183
188
187
198
203
207
205
189
177
157
151
161
168
176
174
166
155
144
142
135
131
131
126
132
130
125
125
116
124
128
133
150
157
172
177
187
204
214
237
249
249
250
249
81
91
94
116
148
174
194
196
202
203
197
194
187
192
191
183
189
186
187
191
193
201
190
171
146
136
155
166
177
176
158
143
126
112
101
97
105
100
94
95
101
116
115
118
126
129
145
150
162
179
183
193
193
207
226
232
246
252
252
250
81
91
98
112
142
164
187
198
198
202
195
193
192
191
195
188
190
189
189
202
202
188
154
128
141
160
168
162
149
137
121
112
107
101
90
83
95
109
104
102
116
131
120
106
112
119
148
174
180
197
198
197
202
208
227
234
241
248
241
245
84
89
99
106
127
163
182
196
200
199
201
193
194
196
195
197
190
193
197
202
191
144
124
135
150
158
147
142
139
129
115
107
109
98
71
56
73
110
115
107
126
137
130
110
99
106
127
179
212
218
222
209
211
218
225
238
240
246
246
244
83
92
98
104
126
161
179
192
201
199
202
198
197
199
193
195
189
190
196
182
153
129
134
139
132
133
134
137
149
147
122
107
111
104
77
67
97
126
118
104
126
142
128
117
107
104
116
170
223
230
228
215
210
224
227
240
243
239
244
241
89
89
94
102
125
154
181
190
197
200
197
202
197
197
199
192
195
195
184
154
129
134
133
132
137
131
131
140
166
177
142
108
111
119
119
121
129
125
108
112
135
145
132
131
143
157
186
205
217
223
215
220
218
224
233
232
242
243
246
249
89
86
96
100
116
141
173
191
195
201
200
201
197
194
196
191
197
190
162
145
137
140
143
150
162
158
156
158
170
185
163
124
112
120
126
128
131
125
131
162
169
172
178
183
200
209
219
225
215
215
213
219
222
220
234
229
234
245
242
249
98
87
97
97
105
131
159
188
197
199
203
198
198
197
194
197
186
174
161
153
154
153
162
170
173
179
177
175
173
177
176
165
161
159
160
166
175
189
191
191
195
189
193
196
201
213
212
211
207
211
224
217
224
228
224
234
236
244
246
240
109
94
96
96
97
124
160
189
204
201
204
202
199
199
195
195
182
172
169
160
166
171
173
183
183
190
189
180
181
176
180
183
187
197
192
195
192
186
185
179
189
193
195
209
209
218
216
208
214
216
225
220
220
231
224
236
243
238
244
240
122
100
92
98
97
113
159
189
200
202
199
203
201
201
201
196
193
179
172
177
178
192
200
205
207
201
203
196
190
182
167
170
168
166
167
164
174
177
187
195
194
207
211
218
224
219
221
215
221
232
222
225
221
225
237
233
243
243
245
247
129
99
90
99
103
111
150
190
204
205
199
204
205
201
206
203
200
189
184
200
207
218
224
218
219
207
202
200
192
191
178
178
181
176
188
191
201
210
204
207
203
215
228
226
233
224
223
229
228
233
222
222
228
225
238
238
242
247
242
248
138
104
91
100
101
102
133
188
206
201
208
205
205
204
205
210
202
204
210
216
227
226
231
230
226
228
217
217
224
228
231
221
223
227
225
228
220
226
221
214
225
225
232
236
232
235
229
234
234
228
227
219
226
229
232
245
246
250
250
247
142
115
96
97
96
97
128
186
213
203
208
203
203
214
216
217
210
216
228
231
238
230
233
244
243
248
242
240
248
245
249
243
239
241
232
235
233
230
237
228
231
231
229
239
236
242
240
233
234
227
229
223
220
232
228
239
250
250
253
250
149
121
97
99
96
85
125
181
208
210
203
209
209
218
227
219
224
228
236
243
240
244
246
248
251
248
251
252
252
251
248
251
246
244
246
241
243
236
236
233
226
238
237
239
246
240
242
233
229
230
219
225
223
228
237
238
250
254
254
254
147
122
98
95
92
84
123
185
211
210
203
209
216
223
230
223
232
240
239
245
244
248
250
246
249
252
253
253
253
254
251
251
248
243
246
241
240
237
225
232
234
239
246
242
246
240
238
234
225
228
222
225
229
226
239
248
251
254
254
254
