P2
60 28
255
128
154
178
191
207
205
205
202
201
210
209
213
209
199
203
201
198
192
191
193
183
175
163
146
142
131
124
119
115
120
114
113
113
107
113
107
102
103
102
114
118
125
134
137
150
151
156
164
165
180
183
191
204
210
224
219
221
229
219
227
133
155
184
199
203
210
202
202
203
201
208
201
195
196
193
193
185
183
183
177
168
154
148
140
134
133
123
122
118
114
118
115
115
113
109
111
107
110
110
111
122
120
125
133
136
146
147
156
164
168
181
181
195
207
208
221
222
226
227
223
139
163
184
200
203
210
202
197
202
200
201
193
189
192
188
188
179
171
168
160
158
153
151
151
144
147
148
144
142
135
136
137
133
131
122
124
123
124
129
125
129
130
132
138
134
142
145
149
161
161
176
185
189
206
208
221
228
227
236
231
138
168
185
196
203
200
202
197
196
199
191
186
181
183
187
178
174
167
169
171
162
166
162
166
172
167
173
170
166
164
157
161
154
150
148
137
142
141
140
144
140
146
141
140
146
140
146
148
154
165
164
177
186
197
215
219
229
227
230
237
141
172
190
198
207
202
200
197
194
196
186
181
178
177
183
175
171
172
173
183
179
181
187
186
191
186
186
184
179
181
172
172
173
163
159
151
151
149
142
151
146
146
149
143
150
149
152
152
147
164
169
177
192
198
217
226
234
238
236
241
150
168
190
199
201
207
197
192
188
183
180
169
171
178
181
188
183
185
187
187
197
194
196
197
197
201
193
195
195
185
186
178
180
177
165
165
151
146
144
142
148
143
146
150
149
156
153
158
161
159
172
178
192
206
217
238
239
241
243
237
153
176
189
201
200
203
200
190
183
175
173
168
173
183
185
192
191
192
200
198
203
201
203
213
205
208
206
202
204
193
194
190
189
190
175
171
160
149
153
147
147
145
144
147
141
149
152
152
162
160
174
185
193
218
229
242
249
246
247
243
156
180
191
198
204
201
197
182
175
175
168
174
176
181
191
192
198
196
200
208
200
207
208
209
215
208
210
204
204
206
194
197
193
188
185
171
168
157
151
150
141
146
144
140
140
134
144
150
157
172
175
190
205
221
240
244
250
252
249
245
157
179
192
197
204
202
195
182
174
179
178
186
189
186
195
190
192
198
195
204
206
209
211
205
211
205
206
210
203
208
200
196
193
178
176
167
161
159
149
148
141
140
140
133
138
135
140
150
151
166
173
188
214
230
244
246
248
252
249
251
158
179
194
199
203
209
195
179
173
178
188
185
185
183
182
188
187
195
199
197
206
203
207
209
203
207
200
201
200
190
190
179
174
166
155
155
146
148
144
135
139
130
129
133
128
136
136
143
152
156
175
185
210
237
242
249
252
252
251
244
156
180
194
205
203
206
197
184
182
179
186
185
184
187
184
190
190
191
194
191
202
201
200
206
197
199
192
183
184
170
165
152
137
136
126
128
123
116
121
114
117
121
121
127
125
131
133
136
152
152
167
187
208
234
242
249
252
252
254
250
145
178
191
197
201
198
197
185
183
188
185
192
188
183
187
185
193
193
194
199
194
200
194
187
185
169
161
149
137
126
111
109
104
104
109
103
107
106
103
104
97
107
110
112
123
124
132
138
145
157
160
183
206
226
244
247
252
254
254
253
139
171
190
194
203
201
197
188
182
191
186
183
183
180
187
188
193
195
189
193
187
183
177
158
148
131
116
106
94
90
80
80
87
85
91
90
91
100
102
110
102
100
106
105
118
121
124
137
145
161
166
183
205
218
242
252
253
254
254
254
136
162
186
197
199
202
193
190
186
182
184
175
178
184
184
192
192
196
193
182
174
156
142
126
113
107
98
98
103
99
94
94
101
102
99
97
85
88
98
105
114
109
111
112
113
125
123
133
147
155
174
179
199
225
237
251
253
253
252
250
133
162
183
198
199
203
198
193
193
188
188
181
180
186
183
191
192
187
181
160
143
127
115
113
110
122
126
126
139
130
113
104
96
100
113
119
99
91
107
109
110
112
113
124
123
128
134
140
155
160
178
189
200
226
239
249
252
251
253
251
119
155
180
194
200
196
198
194
190
188
181
185
186
188
192
186
186
170
142
123
114
117
110
113
136
160
158
138
130
130
119
97
81
83
104
118
110
102
123
133
114
107
106
115
133
137
148
156
163
172
173
191
206
223
242
246
251
251
251
253
108
142
177
193
203
199
199
196
188
191
188
190
190
188
194
186
168
135
107
112
116
109
112
133
166
188
174
132
109
117
116
90
57
58
99
126
116
106
128
144
120
102
100
105
131
150
160
167
171
185
186
197
214
222
241
251
251
251
249
252
101
130
174
198
197
202
198
198
194
186
190
187
189
191
182
166
127
107
114
121
124
112
124
150
169
189
186
141
108
118
120
102
85
93
123
130
109
110
136
143
128
103
99
107
119
156
175
185
191
186
197
201
214
231
235
247
249
250
250
248
103
128
166
197
197
199
201
200
199
190
191
188
188
193
171
136
108
115
140
137
136
137
138
151
170
193
203
166
119
113
123
126
126
131
130
118
106
115
138
135
125
114
108
115
118
152
190
205
211
199
204
210
215
234
238
245
248
245
249
252
96
124
166
194
204
198
202
200
195
193
187
188
187
177
150
118
126
138
143
155
160
170
165
165
175
184
198
186
141
113
115
121
123
128
120
104
117
136
141
140
129
136
143
151
168
175
197
207
206
210
205
214
220
227
242
241
247
245
245
251
96
115
158
187
205
204
204
202
195
195
191
187
182
155
137
136
146
154
155
170
176
184
189
182
179
180
184
183
169
152
144
141
141
144
151
151
159
171
165
168
166
172
184
189
202
199
197
203
205
217
215
218
230
230
242
245
242
243
242
249
94
100
151
195
200
203
199
200
197
189
194
186
174
157
145
156
158
166
176
179
191
190
192
191
184
185
180
185
189
188
197
193
192
192
184
184
175
175
176
172
182
182
187
197
196
204
200
202
212
215
223
219
226
237
236
245
240
242
246
241
95
99
143
199
204
201
201
200
203
196
196
189
178
174
162
166
176
187
201
203
208
207
203
205
193
188
180
172
175
172
176
175
170
173
168
171
172
171
182
179
187
193
194
201
198
199
200
205
221
220
223
225
223
235
236
242
247
242
246
244
85
90
138
195
211
201
204
203
199
200
192
194
190
179
174
178
199
208
212
218
210
210
206
203
200
186
183
177
173
173
162
164
162
167
181
179
186
187
189
199
197
206
203
196
202
199
211
220
223
227
216
224
228
225
234
234
244
249
248
248
83
89
139
194
212
201
202
204
196
201
200
200
197
188
196
201
213
222
220
226
219
215
212
205
208
204
202
202
195
201
199
201
207
199
203
201
200
203
198
208
207
206
208
205
214
215
221
231
226
231
222
223
235
225
233
239
239
245
244
249
88
91
141
196
206
210
203
203
205
205
216
208
203
206
207
220
220
219
224
226
237
235
234
234
232
243
238
234
230
219
221
215
216
215
208
215
205
203
209
207
216
212
215
220
218
230
231
234
231
219
229
225
228
235
232
241
238
242
246
238
94
107
148
203
212
209
204
203
208
210
220
214
207
215
218
230
231
229
236
234
243
246
240
239
238
246
243
236
236
226
226
224
217
226
226
228
222
211
214
207
211
221
226
234
231
236
240
232
232
219
224
228
224
236
235
242
245
239
245
239
105
134
165
196
212
204
205
205
212
223
218
219
219
223
231
229
236
240
239
244
242
247
248
247
249
246
248
244
241
242
234
237
235
234
238
229
229
216
205
211
215
232
237
236
243
237
241
233
224
226
219
229
232
232
240
238
246
246
241
242
