P2
60 28
255
105
101
98
98
94
94
95
95
95
90
88
82
75
74
72
71
69
81
113
136
130
107
123
164
181
175
138
85
58
62
65
62
58
62
66
71
72
73
75
77
78
72
70
75
78
80
79
76
80
84
87
91
92
95
95
95
91
90
94
96
103
101
98
98
95
95
95
94
96
89
79
71
63
68
74
76
87
112
134
145
145
118
114
135
151
157
133
91
68
70
72
74
71
69
68
68
73
75
75
77
82
86
86
86
87
99
107
86
75
79
81
89
91
95
94
88
92
92
90
92
100
99
97
93
97
97
98
94
89
83
71
65
63
67
73
70
72
86
111
145
153
111
110
151
164
168
146
102
82
84
84
84
81
78
78
75
75
76
79
81
82
86
88
91
97
93
89
82
78
80
77
80
86
87
94
93
90
90
87
83
100
100
99
97
96
96
92
89
83
77
73
70
77
76
71
73
83
89
97
128
140
112
114
142
138
141
137
113
100
94
92
92
91
88
86
83
83
86
83
81
86
93
102
107
110
112
101
83
73
75
79
79
82
83
86
85
80
74
68
80
101
101
99
97
97
98
93
83
77
70
68
78
99
101
88
91
91
83
90
124
133
111
133
158
158
161
161
147
119
102
98
95
91
91
90
91
90
86
85
76
80
118
154
155
152
149
129
112
94
85
89
81
75
81
76
60
43
29
36
56
99
98
95
98
99
96
89
79
75
71
73
83
96
102
98
94
91
83
84
117
131
113
122
133
139
151
149
128
109
100
97
95
95
96
92
89
91
90
85
82
82
97
111
113
117
117
113
116
110
98
93
89
79
68
47
32
40
52
64
72
99
99
101
99
99
92
84
79
78
78
70
70
85
97
98
93
90
86
87
117
142
112
95
119
123
146
173
151
120
104
97
95
95
95
94
91
93
93
92
89
87
86
85
84
85
84
85
88
91
92
85
78
74
57
36
42
65
76
79
87
98
98
98
98
99
92
81
77
78
74
63
68
88
97
96
89
88
95
107
129
138
113
96
116
126
134
157
151
126
110
101
96
96
96
95
95
90
90
90
87
86
85
86
86
88
89
84
81
84
89
91
83
71
55
38
49
70
83
91
94
99
99
96
99
95
87
80
77
79
72
68
77
87
93
90
83
84
91
99
111
114
107
109
118
123
124
135
135
116
105
99
94
92
92
90
91
90
89
90
87
83
84
87
87
88
87
83
83
83
87
95
88
71
54
36
45
69
77
87
91
96
101
101
98
92
87
82
80
88
83
78
82
84
88
82
76
79
82
90
99
100
97
98
108
117
116
121
121
101
90
89
85
78
73
75
76
76
77
79
79
80
83
83
82
83
85
85
84
81
83
93
97
82
63
53
56
67
77
86
87
97
98
100
97
92
87
84
91
106
99
81
82
86
85
81
76
79
82
82
86
91
88
89
105
107
87
75
82
85
80
79
77
69
61
60
60
63
65
66
71
75
80
82
83
85
85
84
82
79
79
88
98
91
77
73
66
66
75
80
88
95
97
98
97
96
86
80
102
118
103
83
77
81
78
76
77
80
85
85
85
82
78
79
85
87
82
80
82
79
75
77
76
70
65
64
66
65
67
67
65
65
64
69
76
81
84
83
83
83
82
87
94
91
81
73
62
57
67
76
84
99
98
99
99
89
75
74
124
163
120
82
79
79
79
74
75
80
81
77
71
67
66
69
74
76
79
82
81
81
78
73
68
66
64
63
67
69
68
68
67
69
66
63
68
72
75
77
76
77
81
84
90
96
92
74
58
51
59
74
78
91
95
94
85
73
62
50
71
97
88
80
79
78
78
76
76
77
71
63
62
68
74
77
77
73
71
69
63
55
49
45
39
36
37
45
54
60
60
63
66
69
71
71
71
69
70
72
70
70
73
74
75
71
85
109
84
51
56
69
78
96
99
77
51
47
44
53
70
74
75
77
78
75
73
73
71
69
60
57
68
72
71
73
74
70
57
43
37
40
40
46
46
35
33
44
62
74
70
62
60
60
67
74
80
81
76
74
71
73
78
82
82
64
77
133
108
50
51
67
79
96
95
68
39
41
48
48
54
63
68
70
69
70
71
69
62
54
55
62
64
66
69
65
56
44
37
34
43
49
41
42
45
43
34
40
71
94
95
84
70
62
62
67
75
82
85
81
75
74
77
80
82
87
100
119
113
85
67
66
73
91
83
68
52
47
50
54
69
77
70
67
64
63
62
57
53
54
59
64
67
65
56
51
49
43
37
33
34
38
38
38
41
44
40
49
83
104
105
97
84
72
66
66
65
71
83
88
88
84
79
78
87
114
115
77
123
170
101
59
72
80
86
72
51
49
53
60
84
94
75
65
66
64
61
56
53
56
57
59
55
46
49
61
60
47
39
39
39
39
38
40
46
46
43
61
92
105
99
87
76
69
67
67
68
68
76
87
86
83
81
76
85
108
90
62
137
170
84
54
74
78
75
59
53
60
60
63
71
73
72
69
69
69
57
52
55
56
56
50
44
48
64
76
74
59
42
38
38
39
42
42
42
43
52
73
90
90
80
75
71
69
72
73
72
78
81
85
87
83
80
77
78
80
65
70
103
99
70
67
76
69
72
79
83
80
77
77
75
69
70
73
72
69
62
59
56
51
53
51
49
57
67
78
85
77
59
46
43
41
41
45
46
52
66
79
81
78
75
75
75
77
79
85
85
84
81
80
82
84
83
82
79
79
72
59
55
55
66
72
73
85
93
97
95
88
86
86
82
74
71
75
73
69
66
61
60
61
61
62
64
68
70
72
77
78
71
59
52
53
55
59
65
72
78
80
80
79
77
78
79
80
78
78
83
85
83
80
82
88
88
87
87
87
80
65
61
64
69
74
70
94
99
96
94
91
90
89
83
74
68
72
75
71
68
67
65
67
66
67
68
66
68
68
69
69
68
70
70
70
76
79
78
78
77
77
78
77
74
76
76
74
74
74
74
77
78
80
86
90
91
88
88
84
73
64
64
67
68
72
73
97
103
102
95
95
94
93
93
86
78
75
76
76
73
75
71
69
70
69
72
71
70
70
68
70
73
74
71
71
77
77
79
77
76
76
76
76
73
73
76
74
72
70
71
75
78
81
86
90
91
87
83
75
65
67
69
69
72
72
72
97
98
100
96
94
92
89
92
88
80
71
70
74
78
82
81
79
79
79
78
73
68
68
67
66
68
70
69
70
73
77
78
80
78
76
76
76
77
73
73
74
69
68
70
75
82
86
90
89
89
92
85
71
64
66
70
72
73
70
73
98
99
100
98
93
91
92
93
94
86
73
67
74
83
87
86
82
80
79
77
76
76
78
77
75
76
78
80
80
80
82
81
82
86
84
80
77
75
74
72
74
71
69
77
83
87
90
90
91
93
91
75
61
65
69
71
70
71
77
74
95
99
100
99
97
93
94
94
95
91
82
70
67
77
84
84
83
81
80
79
77
80
82
84
80
78
85
87
87
87
85
85
84
84
82
77
76
74
73
75
76
75
75
80
81
82
88
89
89
81
68
62
58
66
75
74
73
71
74
75
96
98
101
99
99
96
96
95
92
91
90
84
75
73
78
85
85
78
74
77
77
79
82
80
82
84
87
89
88
87
84
83
83
82
80
78
78
77
75
76
76
78
83
85
89
89
89
87
77
65
61
64
68
71
75
73
73
73
71
78
98
97
100
100
99
99
97
93
89
89
94
92
86
74
65
70
76
78
77
77
77
77
80
76
78
80
80
83
81
82
84
81
81
82
82
81
78
79
79
79
82
84
90
91
91
89
80
74
65
60
66
70
73
74
73
72
69
71
71
72
