P2
60 28
255
117
119
116
116
112
108
106
101
97
89
79
70
65
71
81
91
96
96
97
95
99
103
100
104
108
109
132
158
156
139
132
163
192
171
139
116
112
113
112
113
107
108
110
107
111
119
137
153
155
148
119
88
83
97
96
89
93
94
102
107
106
112
111
110
110
105
102
94
85
76
63
66
80
91
98
95
94
93
94
100
102
107
110
115
119
122
133
145
168
161
151
172
184
174
134
110
116
115
114
116
108
105
104
107
112
114
126
142
157
161
139
100
75
80
92
90
90
93
96
105
87
103
110
106
104
104
99
87
68
62
72
84
92
91
94
94
94
99
99
104
108
111
117
119
124
126
119
150
180
169
179
183
193
177
125
115
117
119
119
115
111
106
109
109
102
106
113
123
141
158
152
117
84
69
79
90
92
98
100
105
62
80
91
98
96
98
86
65
64
77
85
89
92
93
87
88
93
100
107
106
108
112
117
121
125
124
122
150
172
172
167
179
206
167
117
116
117
117
121
119
114
109
107
106
105
107
108
114
123
135
131
111
93
80
83
90
92
94
98
100
57
69
76
85
93
87
65
62
85
93
90
94
95
96
94
95
100
100
105
104
104
111
114
120
129
126
128
147
161
151
132
145
161
137
117
117
118
115
117
119
115
115
114
112
111
106
108
112
115
124
124
118
108
97
87
86
94
95
93
94
80
77
72
78
81
65
67
86
94
97
94
93
92
92
96
97
101
101
100
105
106
107
108
113
116
116
125
126
129
124
107
107
107
107
110
107
110
111
114
118
117
118
117
115
110
107
106
104
107
111
110
110
109
118
118
93
79
78
83
91
100
93
80
77
71
68
81
90
92
92
91
91
93
90
92
96
98
102
99
100
100
98
101
99
99
103
103
108
108
103
99
91
90
89
89
94
93
98
103
106
110
112
114
114
109
109
107
103
100
100
105
106
107
127
135
108
88
94
102
106
84
89
84
79
71
75
86
88
88
89
92
90
87
90
95
98
98
97
92
87
88
85
85
92
97
107
108
108
110
108
107
100
96
94
90
88
85
88
88
88
96
103
106
107
109
110
107
104
99
100
102
100
102
121
131
105
88
100
116
121
62
90
134
139
97
76
80
81
82
87
88
85
83
88
94
93
91
84
79
79
83
90
90
95
99
98
104
101
98
98
95
97
95
94
94
89
91
90
83
80
82
89
95
101
104
103
107
106
100
96
94
95
98
106
108
92
88
101
114
120
86
179
246
227
125
58
71
74
78
82
79
80
80
81
88
90
81
74
80
86
86
92
92
88
92
92
94
96
98
100
97
93
87
86
90
83
84
87
87
88
83
84
87
91
96
98
101
102
99
96
92
95
94
96
99
85
86
102
111
119
52
102
155
138
82
73
83
84
81
79
78
76
76
82
83
76
70
80
88
88
87
86
88
84
84
87
83
86
91
88
85
78
78
78
81
85
82
84
83
84
85
82
89
93
91
96
97
97
98
98
97
95
93
92
90
82
84
101
110
116
50
87
111
92
71
81
91
90
86
80
79
78
77
78
72
69
77
89
91
83
76
75
79
80
76
71
61
55
57
61
62
59
61
56
51
63
77
86
82
77
81
83
87
93
95
96
94
98
99
96
95
93
90
90
85
79
81
97
112
117
89
122
143
121
88
90
99
98
94
86
83
80
77
74
68
70
86
90
83
75
72
73
66
60
53
41
36
38
42
44
42
42
42
42
43
57
85
91
84
76
73
79
81
88
95
100
105
109
110
103
98
97
92
88
77
67
76
92
108
117
109
112
108
77
66
90
104
102
99
99
94
88
81
74
74
76
80
77
70
64
59
52
48
51
52
46
45
48
45
34
29
34
42
48
47
63
94
105
97
87
80
77
75
77
91
104
116
122
116
106
99
94
89
81
68
53
62
91
105
118
108
109
104
80
73
95
108
111
106
101
95
89
85
80
71
66
63
59
53
45
45
49
52
65
81
76
60
55
51
45
41
43
51
51
56
85
113
116
102
95
99
95
87
81
86
105
118
121
116
106
99
93
87
77
60
48
56
87
104
114
109
112
110
84
70
94
109
110
110
106
102
94
87
78
70
65
58
52
50
44
47
56
71
93
110
106
77
55
54
58
56
56
55
55
78
111
119
109
93
84
86
81
77
86
94
110
119
116
108
99
94
91
84
67
51
56
69
86
107
115
106
110
111
87
70
93
113
115
115
111
107
99
87
80
72
63
58
56
63
64
63
72
85
96
107
112
103
85
70
64
58
57
66
85
108
110
97
85
80
78
80
89
97
107
111
113
113
108
100
95
96
95
79
47
32
47
71
91
107
116
108
109
111
86
64
82
111
116
116
118
113
109
103
91
84
79
77
77
77
80
81
80
82
84
95
106
113
109
101
93
89
95
98
98
98
88
87
90
90
97
94
97
107
112
114
110
107
101
91
89
93
89
65
31
31
56
82
103
112
121
107
105
112
92
69
83
106
116
118
121
117
109
104
99
98
98
96
94
88
82
81
79
81
83
84
87
92
98
99
97
95
95
99
93
93
102
101
105
100
94
95
96
104
110
110
109
105
99
92
84
82
73
51
28
39
68
88
105
112
116
109
109
113
100
69
78
106
116
120
116
115
112
107
103
98
99
101
100
99
89
82
77
78
83
83
87
91
92
94
91
89
89
92
96
99
104
97
90
86
87
95
102
107
109
109
109
103
98
93
89
84
71
44
32
51
80
98
109
118
115
107
110
113
108
73
69
105
117
119
119
118
117
110
106
101
99
98
100
105
101
94
94
88
84
85
84
86
85
87
83
78
83
89
96
95
91
90
87
88
95
102
103
102
108
113
111
105
97
92
91
81
65
42
44
71
91
108
112
117
121
108
111
114
110
85
70
97
115
116
117
115
113
112
108
103
98
100
102
102
103
102
100
98
97
101
100
96
94
94
95
96
98
98
95
95
92
93
96
101
106
105
106
109
111
111
106
102
98
90
84
72
55
47
62
88
100
111
120
122
125
108
106
114
114
96
79
86
107
114
114
115
116
115
110
106
103
102
102
103
105
106
104
105
105
107
111
106
105
106
105
103
101
101
99
99
99
100
107
109
108
112
116
116
112
109
106
97
93
91
84
69
50
56
79
95
104
108
118
119
119
108
108
111
113
104
89
87
102
112
112
113
114
114
115
109
105
103
100
99
100
103
101
105
107
104
105
105
105
106
106
104
101
101
105
107
112
114
114
115
114
116
118
115
111
106
101
95
96
91
73
59
55
73
94
98
107
112
112
118
119
108
109
109
112
111
100
93
98
109
112
112
115
116
118
113
108
106
102
102
102
102
101
102
104
104
105
106
103
102
103
105
106
107
113
116
116
116
115
118
124
125
125
118
112
106
99
96
93
81
65
53
64
83
96
102
108
117
118
121
121
104
107
110
110
113
108
100
98
102
108
110
113
115
113
118
118
113
108
105
102
101
103
103
103
107
106
105
107
107
108
109
112
114
115
119
118
117
117
122
126
122
119
116
109
108
102
96
89
69
59
60
74
93
97
102
104
109
115
117
120
106
107
112
112
112
113
107
102
102
108
111
111
117
117
116
115
113
112
108
106
106
104
105
107
108
111
111
112
112
110
112
113
115
119
120
120
116
120
121
123
125
120
117
110
103
98
93
84
66
60
68
80
98
102
103
109
110
118
119
114
110
111
111
114
111
112
112
105
104
104
106
110
113
116
114
117
114
107
110
108
107
108
110
111
112
114
115
113
114
114
114
116
118
122
120
117
117
119
125
126
123
117
112
107
101
101
92
73
65
62
72
88
96
103
101
107
114
116
120
116
