P2
60 28
255
198
209
205
207
203
205
212
212
219
219
217
213
202
204
199
195
199
197
196
184
182
184
175
168
157
148
143
136
134
125
120
120
113
115
112
108
114
115
123
130
138
142
139
150
154
155
163
161
173
178
180
191
190
205
212
213
218
207
215
219
201
206
209
204
208
203
204
212
211
211
203
199
200
198
198
194
197
195
182
180
176
163
151
139
134
125
122
121
115
117
113
111
111
103
106
102
103
109
110
121
128
129
131
135
151
151
154
164
162
172
178
185
194
193
213
215
212
215
209
221
201
200
208
203
204
205
207
213
206
201
195
192
197
191
188
185
185
186
175
167
157
143
140
133
125
119
115
117
111
110
110
106
109
105
104
102
99
104
104
115
119
116
128
133
143
147
148
159
158
167
177
176
187
191
206
214
208
216
212
213
202
207
205
206
199
200
202
201
201
190
189
191
188
188
178
176
175
171
167
153
149
145
137
136
130
128
126
121
119
113
116
115
110
113
107
109
109
106
112
110
118
121
120
129
129
138
143
144
156
159
167
175
181
196
199
210
216
215
223
216
201
208
205
206
200
197
197
193
191
181
180
184
181
182
172
166
167
159
161
158
152
154
152
156
152
147
148
139
137
134
135
135
125
123
118
116
125
124
123
121
122
127
123
129
134
134
137
138
150
157
164
177
175
188
199
202
216
215
222
224
200
204
209
202
199
192
192
194
182
178
175
179
184
176
174
169
169
172
167
170
167
167
174
169
172
171
167
164
154
152
152
149
145
137
136
135
135
137
133
140
139
135
137
133
138
140
142
145
144
155
160
166
178
179
198
207
212
225
221
228
202
201
205
199
193
187
183
182
174
172
173
176
185
181
180
177
174
183
180
183
182
177
186
180
180
178
174
179
168
164
164
158
160
149
143
144
138
141
136
139
143
139
144
143
147
148
144
148
146
153
163
161
176
183
195
208
214
229
223
228
201
204
202
199
192
185
177
172
174
169
174
183
187
194
186
185
188
192
197
189
190
191
188
193
186
185
183
178
179
170
169
169
162
160
149
145
140
132
138
136
137
139
138
146
146
149
149
149
155
152
162
171
175
192
197
213
232
231
234
229
200
208
206
201
188
179
175
170
176
175
176
186
185
191
190
189
199
198
198
192
191
199
193
197
191
188
190
181
180
170
167
174
165
164
156
145
145
138
140
138
135
139
135
140
141
140
148
148
156
158
158
172
177
191
206
222
240
235
237
235
201
205
206
195
187
178
177
179
183
192
186
185
192
191
196
192
195
200
193
198
195
195
198
192
195
189
185
184
175
175
170
168
167
157
155
147
144
143
135
136
134
134
135
128
133
132
137
150
149
163
167
173
188
195
219
233
240
247
241
245
201
202
205
199
186
178
179
187
188
188
184
180
191
189
190
192
190
198
192
194
194
186
192
185
183
181
173
179
168
161
161
151
150
143
140
139
132
135
131
131
131
126
132
128
127
130
132
145
146
157
170
173
194
208
226
242
242
249
248
247
199
205
206
204
192
186
184
183
188
184
184
184
185
190
184
191
191
186
193
186
186
182
175
174
160
160
156
145
143
132
130
122
112
113
106
110
108
104
114
111
117
119
117
125
125
128
131
133
145
149
164
176
187
217
232
243
248
247
252
250
198
205
202
200
190
186
189
186
189
186
185
186
182
189
188
187
188
179
180
176
168
164
149
141
129
117
111
100
96
86
78
76
70
74
76
78
86
87
95
95
96
107
106
115
121
124
132
132
141
149
156
175
190
219
240
245
252
251
252
251
197
200
204
198
196
188
188
189
181
183
184
186
190
186
190
188
182
174
161
159
145
129
118
103
99
88
79
74
71
77
76
78
83
81
82
76
78
89
90
98
97
96
102
102
113
119
123
134
138
148
155
168
196
215
239
251
251
254
253
253
198
200
206
199
195
191
187
187
177
174
178
180
188
186
186
185
177
164
143
127
111
96
95
103
113
107
97
101
101
98
97
94
97
105
107
91
82
96
98
101
106
101
104
102
111
119
118
133
139
148
158
168
194
209
230
248
248
252
254
254
198
203
201
203
194
191
191
186
186
180
180
182
181
184
179
174
159
134
117
103
96
98
115
141
156
145
133
138
131
110
98
88
86
109
118
102
92
106
120
109
107
110
108
114
113
118
124
129
146
152
164
174
185
214
230
242
252
252
254
254
200
207
198
197
196
193
191
183
184
182
182
185
179
179
170
150
130
109
101
96
97
118
149
176
184
163
136
129
129
118
92
72
76
103
121
110
102
114
132
125
111
111
110
119
123
124
132
136
150
156
163
181
187
211
231
240
254
254
254
254
198
202
204
198
202
198
190
188
183
186
187
187
184
173
157
125
106
106
102
96
110
144
171
190
197
171
127
110
123
119
93
72
76
106
128
115
104
123
140
134
109
95
104
114
133
139
138
152
156
163
166
176
197
206
231
249
250
254
254
254
199
199
206
202
202
199
189
191
188
183
183
181
179
158
128
110
108
117
112
109
130
157
177
193
207
193
142
109
115
120
115
110
115
129
129
111
110
138
149
140
119
101
106
111
132
152
147
159
163
168
178
182
202
213
230
248
250
254
254
254
200
208
204
208
203
198
192
188
189
182
183
181
165
141
111
113
122
123
133
137
142
158
178
198
219
220
178
130
114
123
126
125
131
130
117
111
127
149
156
138
123
113
109
118
125
155
175
170
180
177
181
195
204
223
231
240
253
253
254
254
201
211
202
206
204
198
195
185
186
185
181
175
147
124
117
124
137
142
160
169
165
170
176
192
209
213
198
159
124
115
113
117
122
116
110
126
149
147
141
132
121
122
115
116
124
155
192
194
197
190
185
202
207
222
236
241
252
252
252
254
205
207
207
200
204
200
194
192
184
184
177
159
140
125
132
138
148
165
173
185
185
182
182
182
188
194
192
178
156
134
124
122
124
124
134
146
155
154
138
138
136
135
141
137
150
168
186
202
197
196
195
203
220
221
236
248
248
254
254
254
207
207
204
198
202
201
192
192
185
180
169
148
145
141
147
155
159
176
182
190
196
190
190
181
180
183
179
185
186
182
176
167
168
163
160
164
161
164
153
153
159
155
168
168
172
180
180
194
197
202
209
208
223
226
234
247
245
250
254
254
204
209
200
205
201
202
200
190
191
180
170
162
153
159
161
175
186
189
198
197
200
198
191
191
181
179
179
175
181
177
180
180
173
176
165
163
165
158
162
154
156
162
161
175
175
177
183
185
201
210
220
224
219
231
234
242
250
248
252
254
196
212
204
206
204
202
201
193
193
187
183
177
163
172
184
193
205
206
209
207
204
207
199
197
188
179
181
170
170
164
157
163
155
159
159
152
156
152
159
160
156
163
159
165
167
171
185
191
212
221
220
229
224
234
241
239
249
249
250
250
201
212
210
202
206
199
193
199
196
195
187
181
181
183
203
211
212
217
212
212
208
205
204
194
196
188
182
184
173
175
165
159
168
165
167
160
158
164
160
167
167
166
169
163
170
175
184
205
214
229
229
227
234
234
244
248
247
249
246
250
204
207
210
204
206
204
199
210
206
203
198
191
199
205
213
217
217
223
222
222
219
214
219
211
207
206
198
198
193
194
193
185
187
176
173
172
166
176
173
174
178
171
177
175
179
191
198
220
223
226
232
222
231
234
238
245
240
247
247
247
208
211
205
209
206
205
209
211
217
209
202
206
209
219
221
221
221
222
233
233
234
233
231
236
229
225
222
213
211
200
197
195
187
188
180
182
183
179
187
181
182
181
177
189
195
207
218
226
239
231
232
230
223
234
236
242
247
243
248
248
