P2
60 28
255
245
240
243
241
236
234
231
235
231
228
229
226
227
225
222
221
216
216
212
211
213
209
209
204
201
201
193
193
189
185
188
182
183
182
178
180
175
176
173
170
178
174
179
179
178
184
182
188
189
188
198
197
203
208
215
225
230
239
247
251
241
240
240
238
231
231
228
229
231
227
229
225
222
220
216
219
215
211
204
200
204
199
196
194
188
185
179
177
179
174
177
176
176
174
171
173
169
170
170
166
175
174
175
180
175
181
181
183
190
190
198
200
204
213
217
227
234
242
250
252
236
238
233
233
230
223
224
224
226
224
218
217
208
205
208
205
207
200
186
175
172
175
169
167
162
154
155
152
152
152
148
155
154
154
161
159
165
161
161
164
163
173
170
172
178
175
181
180
183
190
193
201
203
213
222
225
237
240
245
252
234
233
231
228
226
220
220
218
216
217
210
206
197
189
192
188
181
171
152
139
138
147
151
151
150
141
140
138
139
143
135
133
136
138
147
144
150
155
154
161
158
165
168
167
176
171
174
179
179
188
192
200
206
210
224
229
235
241
243
250
231
226
228
226
221
217
211
209
203
200
197
192
183
164
154
155
150
147
130
118
133
147
158
162
159
160
156
155
157
158
152
140
141
141
139
139
131
139
147
150
157
155
164
164
166
175
171
176
179
182
191
192
200
210
218
230
233
241
247
249
231
227
227
226
219
214
206
201
192
179
175
167
156
141
128
132
139
146
140
125
133
147
152
158
158
161
157
157
170
168
155
146
149
155
151
148
139
132
135
136
149
153
157
163
161
168
169
172
177
175
183
189
196
206
214
227
234
241
249
249
228
230
224
223
219
206
198
187
176
163
147
141
136
133
129
124
129
136
130
113
109
119
128
134
135
135
134
139
152
150
135
135
139
145
149
148
151
141
134
133
135
150
153
157
164
162
168
167
169
174
175
185
191
202
213
220
233
240
246
251
226
228
226
218
212
199
187
172
155
139
124
124
132
136
128
105
100
113
111
95
90
91
93
94
100
103
104
115
122
119
113
122
129
131
140
143
145
144
141
141
135
145
152
152
160
159
166
171
167
172
175
184
194
199
210
219
228
237
244
252
229
223
221
213
204
195
177
155
129
112
115
125
125
112
100
89
78
75
73
74
72
70
71
69
75
86
94
103
101
96
98
103
112
117
124
132
132
136
136
136
141
136
143
149
152
161
160
167
170
169
175
178
189
195
201
217
226
236
245
249
228
219
212
203
190
181
165
141
111
97
116
120
100
84
77
72
68
67
68
67
70
72
70
72
79
95
114
126
131
124
121
120
114
109
102
113
120
125
134
133
141
140
139
145
146
157
160
163
169
167
176
179
182
192
200
215
222
228
240
247
219
214
200
190
178
162
145
122
115
119
109
91
72
66
65
62
60
62
66
74
84
88
89
89
92
112
143
170
181
181
179
173
161
142
122
107
107
107
115
127
129
136
136
140
148
150
159
159
165
173
171
179
183
191
202
209
223
226
235
247
219
208
189
173
161
138
116
108
121
131
108
78
65
62
61
59
62
72
78
88
101
106
107
107
105
117
152
188
206
213
216
211
208
191
165
140
123
112
106
116
121
129
137
140
149
147
155
161
163
173
170
175
183
188
202
209
222
230
234
245
214
201
184
162
138
118
102
105
117
112
90
70
68
65
60
61
74
105
119
105
97
98
106
116
116
120
153
193
220
234
233
230
221
209
197
183
166
144
119
107
114
117
129
139
142
153
154
163
168
169
176
175
183
194
203
217
222
230
239
245
205
190
174
153
127
111
105
107
106
90
72
67
70
68
63
61
94
165
180
121
85
92
107
124
130
128
152
199
237
251
245
239
229
220
216
209
200
179
152
125
113
110
116
129
136
154
160
164
173
169
175
177
184
202
211
219
225
233
242
246
192
183
162
142
127
116
116
106
93
78
72
78
78
74
64
62
113
199
207
130
80
81
103
127
137
137
156
204
241
250
251
244
237
232
224
217
208
201
186
160
133
119
109
114
128
143
166
170
174
181
176
181
189
205
218
221
230
237
242
245
187
172
155
138
133
125
120
110
93
87
86
90
87
77
74
83
124
191
190
115
77
86
111
131
140
141
158
207
242
249
252
251
249
239
226
218
212
208
201
186
162
139
118
106
117
135
164
180
180
187
185
190
200
211
225
228
235
239
241
248
184
163
152
142
135
130
116
106
94
92
99
102
97
88
88
99
126
150
138
99
83
102
125
141
144
140
168
212
241
251
249
251
248
244
236
222
213
207
200
188
175
158
137
116
108
126
145
174
191
192
200
200
212
225
229
235
234
240
244
242
177
165
155
147
133
123
112
103
101
101
109
114
104
92
93
110
126
126
114
102
101
118
135
140
135
136
177
227
247
249
247
251
251
247
239
229
221
214
206
192
182
169
152
139
119
118
133
168
201
203
207
209
219
234
237
241
242
244
247
243
170
163
149
141
132
123
125
119
118
120
121
124
117
106
104
112
119
120
118
116
118
125
132
129
122
140
190
235
251
249
251
250
251
246
236
231
222
210
198
185
175
167
153
147
146
126
130
160
195
213
211
223
230
239
246
242
245
245
244
245
167
160
150
144
145
139
141
143
143
145
140
140
139
129
121
117
118
121
121
118
118
123
128
126
128
161
202
233
243
242
248
247
247
241
228
221
210
196
180
173
166
158
155
157
168
157
159
185
206
219
214
222
235
240
247
246
246
246
243
246
173
162
161
157
155
163
165
170
166
159
158
159
162
159
150
141
137
135
127
123
123
124
123
127
147
174
204
217
223
228
224
227
224
214
210
202
192
189
185
181
179
173
179
185
189
198
199
213
219
214
222
225
236
245
246
248
246
249
246
243
184
178
175
176
173
182
184
182
181
176
175
181
186
186
184
180
171
158
147
141
140
141
141
147
158
169
188
193
195
203
200
202
201
194
192
192
193
199
204
201
205
202
199
203
206
221
226
224
225
218
227
237
244
250
249
251
250
246
246
245
197
199
195
196
199
197
199
193
190
189
191
194
192
192
191
185
180
176
169
162
162
163
162
164
163
164
166
165
176
182
183
190
190
190
190
194
205
205
209
212
206
208
204
210
221
221
225
222
221
226
233
245
252
253
252
250
251
246
245
248
215
215
216
216
220
216
209
202
199
200
198
197
195
193
193
190
189
186
179
176
178
177
172
169
171
170
170
173
176
183
182
186
189
190
200
202
208
213
207
207
203
204
210
215
223
219
219
225
227
237
247
251
254
253
253
251
250
247
243
248
234
230
233
233
232
231
218
214
211
208
207
199
203
206
203
200
193
189
184
183
185
179
178
176
174
174
171
175
179
184
193
191
198
203
208
215
207
207
203
202
210
211
222
222
217
222
222
230
238
246
254
253
253
252
251
251
247
248
247
244
244
240
242
244
239
237
228
227
229
220
216
212
210
212
206
203
196
190
191
187
186
182
180
183
183
190
193
194
200
201
209
212
211
210
202
207
206
205
210
213
224
221
218
222
219
226
234
240
250
253
254
254
254
253
250
250
251
249
248
245
248
251
249
248
246
239
242
240
239
235
227
226
219
213
209
202
199
190
191
196
194
199
198
201
206
209
217
215
215
216
212
212
204
200
202
201
211
214
217
220
217
223
220
222
231
236
245
250
253
254
254
254
254
253
251
248
248
248
248
248
252
252
252
251
251
246
248
252
251
253
250
248
244
235
231
220
214
211
210
219
222
226
227
224
227
221
220
218
210
212
206
203
203
201
214
219
221
223
218
222
223
224
230
231
239
248
252
254
254
254
254
254
252
250
250
247
247
245
241
247
