P2
60 28
255
94
95
96
95
97
100
99
99
102
105
105
108
109
109
115
115
114
114
111
110
113
114
108
98
93
84
81
78
74
71
64
66
66
62
64
67
75
81
89
96
98
105
107
113
119
123
129
131
133
140
146
149
147
148
151
150
152
151
148
149
93
93
97
93
93
95
92
99
102
104
102
98
105
108
110
112
111
114
114
115
115
114
119
121
116
110
104
99
89
82
73
64
68
70
68
68
71
77
83
90
97
100
104
106
113
125
130
132
134
139
140
136
139
143
148
149
147
150
148
148
96
94
95
94
91
98
97
98
99
98
103
100
102
106
107
112
113
115
118
116
118
119
121
124
123
125
122
119
116
107
98
83
74
71
69
73
71
71
82
92
97
98
103
110
116
122
125
130
133
132
134
132
135
141
141
147
149
149
148
144
94
92
89
91
90
91
96
96
98
97
98
102
100
104
110
112
115
111
116
117
116
121
120
124
126
129
133
130
126
120
114
110
101
92
87
84
82
80
86
90
90
92
91
101
112
112
119
122
126
130
133
136
130
132
137
139
145
145
144
146
90
92
93
92
92
89
92
96
95
97
96
100
104
103
110
108
109
108
108
114
112
117
124
128
130
127
133
135
132
130
123
118
117
111
101
97
94
90
87
86
88
97
99
102
109
108
110
115
122
127
126
129
130
135
139
135
138
141
144
147
92
91
93
92
93
95
95
95
92
95
96
95
98
98
103
105
102
103
104
109
110
107
119
125
126
130
131
130
128
127
125
120
118
113
109
108
103
97
91
91
93
92
97
101
102
102
104
112
115
119
127
124
129
134
132
134
136
139
141
147
94
90
93
93
92
98
98
95
94
94
96
95
96
97
94
97
97
97
99
96
98
97
102
107
110
117
118
117
117
117
117
117
115
110
106
109
104
100
101
96
93
94
95
95
95
100
104
110
114
120
127
125
127
128
129
135
135
139
143
144
91
90
89
95
95
96
95
91
92
94
96
95
92
90
80
75
78
77
85
92
93
99
104
111
118
117
114
110
109
105
100
98
92
91
96
98
100
99
98
97
95
95
94
96
96
95
102
106
111
118
123
125
123
126
132
134
139
138
140
139
92
94
94
97
96
90
92
91
89
91
90
88
73
64
69
71
79
84
90
100
100
105
113
118
127
125
119
115
111
110
103
95
90
85
83
84
86
86
89
94
92
93
94
95
100
99
100
105
113
118
118
124
124
127
137
136
137
139
140
143
98
95
95
95
96
93
87
90
91
87
80
64
57
65
75
81
83
87
89
92
94
99
106
112
117
116
113
111
104
100
101
99
96
94
92
90
84
85
86
85
85
88
93
93
91
93
97
104
109
114
123
126
128
128
130
137
135
139
141
142
93
94
97
98
97
96
91
92
91
80
71
63
68
75
75
77
78
79
83
79
74
70
63
57
50
52
52
51
53
61
74
81
86
90
92
92
87
88
94
94
91
92
91
87
87
95
96
93
100
109
117
120
125
128
128
131
132
139
145
146
91
93
93
98
98
94
94
90
86
78
71
70
66
71
71
68
67
59
51
48
51
46
29
20
51
101
82
55
53
37
38
50
62
73
80
86
88
89
97
99
100
99
91
87
86
89
95
92
96
105
113
118
117
120
125
126
131
131
134
140
94
95
94
97
99
95
96
91
85
77
63
58
53
49
47
39
38
39
41
60
84
79
43
19
75
153
106
43
41
37
35
44
73
86
81
75
78
81
88
102
107
111
108
99
95
92
93
93
93
101
108
113
114
115
123
126
132
136
135
138
95
94
98
99
99
98
91
87
76
65
59
52
48
38
33
38
41
56
83
102
116
102
53
32
34
24
23
14
11
34
42
48
91
125
113
94
84
82
78
83
98
112
128
127
112
100
96
94
90
93
101
107
113
114
118
125
124
130
135
136
102
100
101
103
99
96
85
79
75
66
66
60
55
53
58
71
75
81
98
117
135
122
62
30
37
34
24
21
32
48
47
55
105
133
121
119
117
102
85
77
87
96
107
124
125
116
103
95
92
91
96
104
112
111
109
118
121
125
129
128
93
99
99
103
98
90
85
73
71
74
76
80
74
75
82
89
92
86
88
99
124
138
103
52
37
44
42
42
48
51
49
73
110
113
99
94
92
80
73
90
119
117
85
93
117
118
111
99
92
93
92
101
104
107
112
109
117
120
122
126
95
98
99
99
95
86
83
80
81
86
89
92
89
86
89
88
89
89
88
91
101
118
116
83
53
48
46
43
43
46
62
79
86
85
84
81
80
75
71
76
79
80
72
82
112
117
114
105
90
89
90
98
103
102
109
111
116
117
120
127
99
96
100
97
92
88
86
89
85
86
92
90
93
95
91
89
89
92
93
97
99
97
97
90
86
84
79
77
77
84
92
94
93
95
97
92
85
86
84
88
96
97
106
112
116
120
114
103
90
88
91
88
94
100
102
110
110
116
116
116
96
94
94
91
90
95
93
91
88
87
94
94
93
90
93
100
97
100
104
99
98
97
96
102
107
109
106
106
107
104
104
102
99
100
96
97
93
93
94
89
101
117
128
133
126
115
105
96
89
87
92
93
99
101
99
108
109
113
119
117
92
97
92
92
94
95
100
92
88
90
92
94
85
85
93
98
104
105
107
108
106
99
96
103
105
105
103
98
100
101
101
102
98
99
99
93
90
86
91
96
106
124
132
132
119
107
102
92
86
89
88
91
90
92
97
98
107
107
115
120
92
94
91
89
95
97
97
93
90
96
96
97
93
94
100
102
109
112
112
110
110
113
110
109
113
112
109
106
106
110
110
111
107
99
98
97
100
96
91
97
107
115
117
115
112
108
101
94
88
89
88
91
90
89
98
101
109
111
107
112
96
90
93
92
94
98
91
92
93
93
96
93
96
97
97
105
107
112
113
108
112
113
114
114
115
114
112
117
119
123
124
117
112
107
106
104
100
106
105
101
102
103
108
105
102
100
96
95
90
86
87
86
86
88
96
104
106
111
111
108
95
91
90
90
90
97
94
97
96
93
97
96
100
102
98
101
101
105
110
109
112
115
118
119
119
123
120
118
119
118
121
121
118
118
114
115
116
114
115
106
100
98
99
99
93
93
93
93
92
87
88
84
84
90
92
98
101
105
110
105
92
93
89
91
92
90
94
94
98
102
101
104
105
105
104
103
105
104
107
104
100
109
110
111
111
110
115
115
118
119
120
125
122
120
122
123
123
121
119
111
101
102
100
95
95
94
96
92
91
88
83
88
86
89
93
93
101
101
104
104
94
93
89
90
95
92
91
94
99
100
97
99
104
107
106
105
110
109
106
107
105
109
112
115
121
121
122
121
118
120
122
123
125
126
129
128
127
127
123
117
111
105
103
103
102
96
96
94
87
88
89
90
87
83
93
94
96
103
99
103
93
88
93
90
89
94
96
101
96
93
98
99
104
106
107
113
114
116
115
113
117
118
122
126
127
125
123
124
123
125
127
126
128
127
129
134
133
132
127
120
112
105
108
105
101
100
92
92
87
86
92
88
87
84
89
94
91
101
102
101
92
88
92
96
93
96
95
96
95
91
98
98
101
106
106
111
113
115
117
116
117
118
122
127
126
124
124
130
135
133
133
133
133
133
131
131
131
127
120
113
114
113
111
103
93
95
92
91
91
85
88
87
85
88
88
95
94
94
101
99
92
97
91
93
94
91
95
91
92
96
97
102
102
107
109
103
107
109
115
118
116
120
122
128
129
128
133
133
137
137
132
130
130
135
132
129
126
118
115
114
112
115
106
99
99
94
94
89
89
88
84
86
82
85
87
86
92
90
92
95
