P2
60 28
255
226
229
230
227
233
229
228
227
223
226
221
224
226
218
221
214
216
218
215
222
215
213
214
207
209
202
202
201
194
197
190
189
191
182
184
180
177
177
171
173
169
170
177
175
183
187
197
209
210
223
234
241
249
248
251
253
253
253
253
254
228
226
229
226
229
228
224
226
221
224
223
219
225
219
216
216
215
220
215
217
217
210
213
207
205
204
198
201
194
195
194
187
189
184
184
182
175
178
172
169
169
167
174
173
178
183
189
204
209
221
232
236
245
248
251
252
251
253
254
254
220
220
221
223
220
225
224
222
222
215
219
220
218
219
214
220
221
220
224
216
216
211
208
208
195
200
199
197
200
190
191
187
183
187
180
183
180
175
177
168
169
169
167
174
172
178
184
192
211
215
224
234
239
247
250
252
253
253
254
252
212
218
215
219
218
220
225
219
220
215
214
219
214
220
224
227
229
221
222
217
214
216
207
209
202
197
198
190
194
191
187
188
178
180
180
178
178
171
176
172
168
170
165
172
176
180
189
191
202
210
216
227
236
247
249
248
252
250
252
252
209
212
215
213
218
216
218
217
211
215
211
214
220
222
230
227
225
220
211
214
206
203
201
194
197
188
186
188
182
187
181
179
177
168
174
170
170
176
172
175
168
164
168
169
177
180
187
196
199
212
219
226
239
244
249
247
247
250
247
249
209
209
213
207
209
211
210
214
211
218
222
221
229
225
226
221
210
211
201
198
192
181
184
178
177
173
169
174
168
175
178
170
174
165
169
171
164
172
169
169
169
163
168
170
175
180
184
196
202
210
221
226
238
242
246
248
245
248
247
247
206
206
203
207
202
206
209
213
224
225
229
225
217
215
208
210
202
193
197
189
189
181
175
178
167
165
160
156
163
155
164
167
162
166
162
167
165
164
172
165
166
166
165
173
173
183
190
194
205
210
221
230
232
240
241
246
247
244
248
241
201
205
199
202
202
207
216
218
228
226
218
212
203
207
207
208
212
208
212
207
202
201
188
188
182
174
172
162
163
157
154
160
155
160
159
159
164
161
166
161
159
165
165
176
181
185
192
194
204
211
222
233
231
240
244
241
245
242
245
246
193
194
196
196
206
208
219
225
217
216
205
206
213
217
230
229
229
226
217
217
209
203
200
192
191
182
180
181
172
169
158
153
152
147
155
156
156
159
155
160
159
162
169
174
187
190
189
197
203
216
225
230
235
234
239
236
237
245
244
248
191
185
193
193
205
215
214
215
206
207
212
217
231
233
238
241
234
234
230
227
222
210
209
203
197
193
185
185
179
175
168
155
153
146
147
150
145
151
147
149
154
156
168
178
192
198
194
200
204
216
226
230
236
235
238
241
237
244
243
244
187
185
187
198
201
210
205
202
212
214
226
230
230
235
232
236
235
234
232
225
224
217
210
206
196
193
191
185
182
170
166
161
154
151
144
146
145
141
146
143
153
159
166
188
202
211
206
200
210
214
226
232
229
235
234
238
240
240
245
241
184
187
185
197
196
194
199
203
219
222
224
231
227
226
227
224
227
226
228
227
218
212
204
197
190
185
186
181
177
170
165
162
153
155
153
150
152
146
151
149
151
162
168
193
216
223
221
208
213
221
225
232
231
237
238
236
241
239
244
246
177
181
186
184
187
186
195
207
211
220
219
223
224
217
216
212
214
215
216
213
201
193
188
184
179
171
170
166
160
161
153
153
156
151
155
153
155
161
157
161
159
163
183
201
222
229
221
214
212
223
223
226
232
230
236
236
238
244
243
248
177
175
182
178
184
191
193
205
208
212
217
215
216
208
201
200
194
194
191
185
178
164
160
158
155
151
144
148
145
143
143
140
145
141
142
150
152
162
161
165
170
175
198
216
233
235
222
221
218
223
229
226
233
232
234
240
237
243
244
245
176
175
171
178
179
192
199
200
205
207
213
211
204
190
175
166
156
149
143
136
130
120
117
117
114
115
113
117
123
118
122
121
117
120
120
130
135
141
151
148
157
173
191
218
233
233
220
215
224
223
226
229
227
233
231
234
237
238
245
245
171
174
165
174
182
190
200
197
198
199
199
197
181
159
142
125
111
97
93
91
88
88
85
87
88
84
87
89
96
100
100
107
101
100
100
101
114
117
125
129
132
151
174
208
231
228
222
219
226
228
230
233
228
233
234
233
240
238
245
249
167
165
167
171
182
186
191
194
189
184
176
165
145
123
102
85
79
75
71
68
65
65
71
78
79
72
74
82
96
109
107
105
101
92
94
89
94
104
102
107
105
126
174
208
226
223
219
223
221
228
226
226
231
227
231
233
237
243
240
245
162
160
169
171
179
186
186
187
177
159
142
121
103
88
78
79
76
72
66
62
63
63
72
82
84
80
75
90
111
124
124
113
109
100
94
94
93
106
109
118
137
163
207
226
224
220
219
228
225
225
227
225
231
228
230
237
239
244
242
242
160
162
165
172
174
175
171
165
153
132
110
88
74
67
68
77
78
75
69
62
60
65
80
94
96
87
76
91
120
129
127
123
116
112
107
117
129
141
158
166
187
209
225
231
219
217
220
221
226
222
223
224
222
229
227
234
239
240
246
242
158
163
164
165
162
156
149
137
122
105
88
78
67
65
73
80
83
77
70
66
67
76
92
101
100
88
83
98
125
132
131
135
131
134
140
153
172
179
194
208
217
230
226
221
218
218
224
223
226
224
220
226
222
225
230
234
242
237
243
246
159
164
164
156
149
136
123
108
96
91
87
81
73
71
77
83
84
82
83
86
88
94
101
101
95
86
90
110
129
141
139
140
146
152
168
175
184
195
200
214
219
218
216
214
218
216
220
226
221
221
218
220
225
223
233
236
237
240
237
243
162
162
161
147
128
114
100
92
89
92
102
102
91
80
76
81
85
88
89
90
95
97
98
99
100
105
114
131
140
146
148
142
149
153
163
175
181
197
202
206
212
212
216
215
217
221
220
228
224
220
221
215
221
224
233
240
236
242
242
244
159
156
146
132
110
94
86
88
98
111
126
129
112
88
77
80
85
87
86
88
95
100
107
114
119
131
138
138
145
143
147
146
144
158
165
179
193
199
205
207
211
214
215
219
216
221
226
223
225
217
216
214
213
229
232
238
242
240
247
246
152
143
127
113
98
90
94
100
110
122
130
134
127
110
94
87
93
97
97
102
108
120
130
137
139
138
140
137
144
146
145
149
149
168
185
193
203
207
210
210
214
221
218
219
218
217
227
222
218
213
213
218
215
228
236
237
244
243
247
251
152
133
112
94
92
95
103
112
115
122
126
128
127
122
118
115
115
112
112
120
126
132
138
136
135
131
134
140
140
146
144
153
172
184
199
200
204
210
209
219
220
220
223
215
216
219
223
223
213
213
210
209
220
227
239
241
243
250
249
252
148
126
110
102
112
123
125
131
131
129
126
124
125
127
133
137
131
123
118
123
127
125
130
131
136
138
137
143
142
149
165
177
194
200
202
206
206
215
218
222
226
221
220
215
214
220
220
220
211
209
210
208
225
235
241
247
247
252
254
254
147
132
127
139
142
143
145
148
147
134
129
128
128
139
144
142
131
125
128
126
129
132
137
146
142
143
143
146
162
170
188
200
203
207
206
212
214
218
227
223
225
223
216
219
215
220
221
213
215
207
208
215
224
240
246
250
253
253
254
254
156
155
161
169
162
155
160
159
153
144
140
142
142
146
151
151
147
142
145
143
144
148
144
146
142
142
155
164
182
194
199
209
206
209
217
218
226
227
228
230
226
223
215
218
219
218
221
212
213
211
206
221
232
244
251
251
254
254
254
253
