P2
60 28
255
241
241
238
230
219
209
203
198
192
190
190
191
196
193
192
190
182
185
181
179
175
167
169
164
165
166
162
167
162
159
157
152
157
151
151
155
155
161
161
161
166
171
179
186
196
207
215
226
233
239
247
251
254
254
254
254
254
254
254
254
229
219
208
199
191
190
191
196
202
206
213
218
224
228
222
221
215
213
217
206
195
184
172
164
154
153
152
153
159
155
157
155
148
152
151
154
157
155
160
162
166
173
178
188
196
205
215
224
234
238
244
251
253
254
254
254
254
254
254
254
199
190
186
195
201
207
215
218
222
224
226
229
231
230
226
222
222
219
216
211
203
196
186
180
167
154
150
143
145
146
147
150
145
149
148
151
156
154
161
162
164
172
176
185
194
201
214
222
229
237
245
253
254
254
254
254
254
254
254
254
183
193
205
213
220
219
217
220
220
219
221
223
219
216
215
214
214
211
205
197
190
189
187
178
173
164
157
151
138
138
140
144
148
145
149
147
147
154
153
159
165
171
181
185
193
200
209
219
225
235
245
251
254
254
254
254
254
254
254
254
201
209
215
219
218
214
209
206
206
204
206
202
197
195
191
190
191
192
188
182
178
175
172
166
162
157
151
151
143
137
133
131
141
142
143
146
146
152
152
156
163
168
179
183
187
197
208
217
222
231
241
248
253
254
254
254
254
254
254
254
201
202
209
209
208
202
192
184
179
176
172
167
165
162
158
159
162
165
162
157
160
160
154
150
146
143
139
139
143
135
131
131
131
139
140
142
144
145
152
154
162
170
175
182
189
198
207
213
221
227
238
248
251
254
254
254
254
254
254
254
190
189
188
188
183
173
162
148
142
142
140
135
132
130
126
127
133
133
131
135
140
141
135
129
124
123
124
122
127
127
124
125
125
132
135
138
144
140
148
158
164
172
175
183
189
194
204
214
222
228
237
248
252
254
254
254
254
254
254
254
177
165
159
153
149
146
138
120
109
106
101
96
92
87
81
81
85
88
89
98
106
113
114
109
113
111
113
114
110
118
118
118
122
122
131
135
138
144
145
155
163
169
178
183
191
197
203
215
222
231
241
249
254
254
254
254
254
254
254
254
155
134
120
116
115
112
98
80
74
74
75
73
71
69
68
67
64
67
69
69
73
76
81
84
92
99
102
109
108
109
109
105
111
117
125
131
133
143
148
157
166
168
175
183
197
204
207
218
226
235
245
249
253
254
254
254
254
254
254
254
121
107
101
91
82
79
70
66
67
75
83
76
68
66
63
63
65
68
71
70
72
71
69
71
76
87
90
94
101
97
102
102
100
108
115
128
135
140
152
156
162
170
177
192
200
206
211
216
228
235
244
252
252
254
254
254
254
254
254
254
88
87
83
82
84
82
78
70
72
96
109
95
83
74
65
63
68
71
72
80
84
79
72
72
78
83
89
91
92
92
91
95
95
99
103
114
133
140
152
158
164
175
182
197
206
208
213
218
228
237
242
250
253
254
254
254
254
254
254
254
72
75
81
93
108
113
102
82
78
92
103
99
89
82
75
69
71
73
78
87
91
90
83
76
86
101
112
113
103
93
83
84
91
86
90
100
120
144
152
163
171
178
191
202
212
215
218
223
229
239
242
247
253
253
254
254
254
254
254
254
74
82
101
124
141
142
115
87
81
86
98
98
89
85
75
66
64
66
77
91
97
95
91
86
93
117
134
136
128
110
92
82
82
80
84
91
106
135
154
170
180
184
196
208
216
219
220
228
235
241
246
247
251
254
254
254
254
254
254
254
83
100
126
148
166
162
126
97
83
85
92
93
92
82
72
62
57
65
80
95
102
102
97
88
98
131
148
149
142
127
111
95
85
83
79
83
98
124
160
174
183
193
200
212
220
228
230
231
238
240
246
250
251
254
254
254
254
254
254
254
97
110
131
150
168
166
140
107
88
91
92
91
90
83
75
70
71
78
92
104
108
106
98
89
106
136
152
154
147
137
121
107
95
89
84
82
90
113
154
176
186
199
204
216
226
227
231
234
237
241
244
249
252
253
254
254
254
254
254
254
111
115
125
143
160
170
157
117
93
90
90
91
90
86
84
84
86
92
102
109
110
106
95
95
118
143
156
153
145
135
124
113
102
92
91
87
91
115
150
181
192
200
212
221
231
234
235
240
241
243
244
248
252
252
253
254
254
254
254
254
133
124
124
129
142
161
158
127
100
89
90
94
91
89
91
91
92
97
105
109
106
97
92
103
129
149
152
148
141
132
124
117
110
100
98
105
110
135
163
186
196
200
216
224
231
237
238
243
243
244
245
248
253
254
254
254
254
254
254
254
160
151
139
131
135
144
144
130
104
90
94
96
91
90
94
95
93
96
103
104
97
88
94
113
138
148
143
138
131
122
119
116
111
111
116
132
148
166
185
191
199
211
220
232
236
241
246
245
244
244
249
253
253
254
254
254
254
254
254
254
173
167
156
147
141
134
132
126
115
104
97
95
93
93
95
95
95
97
99
97
93
96
107
120
132
136
134
128
124
122
122
128
127
135
148
163
182
190
196
198
205
219
228
238
244
247
248
244
242
243
247
252
253
254
254
254
254
254
254
254
178
172
165
159
153
144
139
134
127
123
117
112
110
110
109
107
107
108
107
107
109
115
123
127
128
131
133
136
140
147
151
155
162
164
177
189
197
201
201
209
218
228
237
241
246
248
248
245
241
246
251
252
254
254
254
254
254
254
254
254
187
180
176
167
158
154
148
143
140
139
137
132
129
127
127
127
124
123
122
127
133
135
139
139
141
146
150
160
163
167
175
174
178
184
192
198
196
202
210
219
232
238
243
247
247
249
248
247
243
243
249
250
252
254
254
254
254
254
254
254
190
183
178
171
163
159
154
154
154
146
142
139
135
135
134
133
132
127
131
139
144
145
147
153
157
166
170
173
178
180
185
186
189
198
199
202
207
212
221
230
241
247
250
252
250
250
250
246
247
247
249
252
252
254
254
254
254
254
254
254
195
189
177
171
169
163
161
158
154
152
148
147
143
142
140
136
139
138
144
155
158
162
162
168
176
179
184
181
185
192
197
203
200
202
204
205
217
225
232
241
248
252
253
252
249
249
249
245
245
245
247
251
253
254
254
254
254
254
254
254
215
202
193
187
184
175
172
175
175
174
169
166
165
163
164
161
160
161
165
178
181
179
182
180
183
183
186
194
194
200
202
203
206
205
215
224
233
244
248
251
252
253
253
252
251
248
247
248
245
247
252
252
254
254
254
254
254
254
254
254
242
233
230
222
213
208
206
208
203
202
200
193
192
189
187
185
178
180
181
185
186
182
186
186
189
197
198
202
204
206
212
212
218
225
231
240
246
251
254
254
254
253
252
250
248
246
242
244
241
243
249
250
252
253
253
254
254
254
254
254
248
243
240
237
231
230
228
225
224
219
213
207
203
202
193
190
189
187
193
194
197
197
196
203
205
208
208
210
216
218
225
230
235
242
247
253
254
254
254
253
253
252
252
251
248
247
243
240
245
247
250
252
250
252
254
254
254
254
254
254
249
248
247
245
239
234
234
228
225
221
216
214
207
205
201
199
202
202
204
206
206
210
209
209
211
214
221
223
228
235
236
243
251
252
254
254
254
254
254
253
252
252
252
252
248
244
245
241
243
250
252
254
252
252
254
254
254
254
254
254
253
252
251
249
248
245
245
241
235
232
226
222
221
216
213
212
213
215
215
216
213
214
217
220
227
229
235
241
243
248
252
254
254
254
254
254
254
254
253
253
254
253
251
249
247
243
246
248
251
254
254
254
253
253
254
254
254
254
254
254
