P2
60 28
255
237
242
241
243
249
236
185
103
48
40
43
61
105
134
145
150
143
140
136
115
98
96
102
108
108
102
98
95
93
96
94
83
78
71
70
78
81
89
92
100
111
111
114
118
121
130
140
144
146
156
161
155
154
156
158
163
163
167
167
164
235
239
240
239
244
245
220
141
59
36
50
75
111
137
146
150
145
139
124
104
98
102
106
102
96
94
92
89
83
78
74
68
67
70
72
73
72
72
74
81
96
109
115
117
117
125
133
139
148
154
157
152
151
153
153
158
161
166
166
159
241
238
239
238
238
247
233
157
61
35
56
87
120
140
148
147
144
133
114
104
105
102
98
99
101
98
98
95
94
89
79
73
73
73
72
73
74
72
70
69
76
94
102
110
118
121
128
130
140
150
151
157
154
152
153
153
161
165
161
154
237
236
237
239
243
247
222
159
78
43
54
91
129
143
148
147
138
121
115
120
117
106
99
105
111
112
116
121
125
131
124
108
95
78
72
72
72
72
68
69
72
80
90
94
103
109
116
125
134
144
145
150
149
144
148
146
149
154
149
143
236
238
235
237
242
242
236
179
87
40
51
93
137
149
147
142
124
116
122
122
118
120
126
127
127
134
136
135
137
143
150
147
136
119
103
94
84
77
72
70
67
67
80
91
95
104
110
116
125
130
138
142
142
139
138
146
145
146
145
131
234
236
236
236
237
235
245
209
101
35
53
98
141
152
144
137
122
115
110
107
121
129
130
134
133
136
136
135
135
131
139
143
140
137
127
121
110
97
93
82
74
74
73
76
87
99
105
113
122
127
130
133
136
140
138
140
138
136
136
121
237
237
240
238
235
243
249
217
116
34
47
106
140
150
149
135
125
122
121
118
119
128
127
127
131
130
140
150
161
169
168
175
171
165
157
145
141
131
117
107
96
86
80
80
85
94
105
107
112
123
126
131
134
138
140
135
137
135
130
121
238
237
237
239
235
242
246
215
126
44
50
107
140
146
141
128
120
116
121
128
122
121
121
126
135
143
147
138
141
154
160
172
165
138
125
120
122
121
118
121
118
116
107
98
98
100
105
109
114
120
119
125
137
137
136
133
135
139
137
126
232
237
236
236
240
240
243
219
137
48
46
106
145
152
144
134
126
122
120
122
125
123
125
121
132
157
156
147
150
172
182
202
187
125
114
117
111
110
108
109
115
115
119
119
112
106
103
108
114
112
117
123
130
133
135
142
140
137
130
118
234
236
239
235
237
244
243
209
145
69
53
106
144
147
137
131
127
122
118
117
125
128
124
127
129
142
150
134
147
153
165
192
159
111
96
92
90
91
92
94
100
109
115
119
121
118
105
99
106
106
112
118
124
133
135
142
143
136
132
123
239
236
235
237
235
238
231
215
178
104
65
111
148
150
144
129
120
112
115
124
131
130
119
116
122
147
142
116
132
136
156
178
138
105
102
103
104
99
99
98
91
91
99
114
123
126
125
108
100
103
104
113
122
132
140
140
142
139
135
140
237
234
234
237
235
239
239
220
164
90
71
120
148
143
137
122
108
110
118
125
127
123
117
109
114
131
119
106
106
112
144
156
134
120
111
91
84
89
98
109
110
99
82
92
131
172
186
167
126
94
93
103
114
125
138
141
142
141
136
141
232
238
236
236
239
244
228
162
104
73
75
119
146
142
129
110
107
121
125
123
122
115
112
103
101
114
116
108
92
101
137
180
206
200
159
102
79
80
83
92
101
108
97
96
132
133
148
166
133
108
97
91
101
115
125
130
125
126
127
122
233
235
234
232
240
242
202
139
104
69
60
100
132
132
112
110
128
127
120
118
118
114
108
104
101
116
122
86
70
107
175
223
219
183
121
88
91
87
91
90
86
101
102
111
104
84
105
119
127
119
102
89
90
104
103
90
70
78
112
124
237
234
237
238
242
243
193
125
87
59
62
143
209
184
130
117
128
125
118
113
113
114
101
95
101
113
106
94
114
147
181
198
189
158
111
94
88
83
95
97
97
119
124
110
104
103
108
112
126
128
109
97
88
74
54
61
94
117
130
130
236
235
234
237
242
252
214
124
56
45
78
131
151
117
98
115
127
123
118
118
111
105
101
95
97
92
88
104
123
154
176
165
153
122
89
125
150
127
114
99
95
122
147
130
103
98
108
114
111
115
114
102
73
43
66
103
125
135
132
133
234
236
234
233
241
249
232
159
103
98
113
137
142
121
120
139
138
131
124
118
116
109
103
98
92
87
88
99
115
148
173
158
125
96
93
91
83
63
68
94
89
107
146
143
117
98
91
103
111
115
115
98
65
53
78
114
126
131
139
136
233
235
236
236
242
249
233
168
115
104
116
138
141
125
124
147
147
134
131
123
120
111
101
103
102
104
105
101
104
109
123
138
115
87
89
85
76
76
90
93
85
100
119
117
97
80
82
91
105
109
104
86
69
73
87
112
126
131
139
137
237
233
236
237
236
247
238
176
118
104
116
144
151
126
124
145
150
141
127
117
111
111
107
111
113
110
113
111
111
109
106
110
107
101
96
99
102
100
101
102
102
105
101
98
98
96
101
110
110
87
73
80
71
73
95
112
128
136
139
143
235
234
234
235
233
243
242
190
125
103
113
142
152
126
119
136
147
143
128
118
115
119
123
122
121
116
114
116
111
108
105
105
107
109
116
120
125
128
128
129
120
113
107
98
104
110
111
109
95
68
63
72
62
68
99
119
130
138
140
144
232
238
238
235
236
245
244
197
131
99
116
142
148
130
116
136
148
143
137
129
126
122
120
118
117
121
118
120
121
118
116
109
112
117
119
126
129
133
131
121
115
110
112
112
112
115
109
95
75
66
82
74
56
76
102
125
133
135
141
140
232
233
235
234
236
240
247
212
133
96
117
138
151
145
116
117
138
145
140
132
130
120
114
115
112
116
117
117
120
118
121
121
121
124
120
123
124
123
123
114
116
116
111
111
107
104
103
87
58
62
85
69
58
84
112
132
133
136
145
141
237
234
235
236
235
242
250
222
146
100
112
137
146
142
127
113
133
143
135
133
127
124
117
114
112
106
112
116
120
127
125
132
135
132
129
125
130
126
123
122
116
114
108
104
105
103
105
105
99
98
90
67
65
95
120
129
142
142
141
147
238
235
234
236
233
239
250
230
159
103
107
134
144
143
140
127
128
135
136
137
134
130
124
120
119
110
108
108
108
118
116
118
124
122
125
123
124
123
115
113
105
103
108
107
110
109
111
115
113
105
89
81
86
104
122
126
135
145
143
147
233
236
232
233
234
233
245
236
171
112
115
132
140
143
138
135
126
125
133
134
133
130
131
128
123
123
114
112
111
108
114
109
109
110
110
113
105
107
109
106
111
110
114
116
115
121
123
121
111
97
87
85
98
113
120
131
137
144
147
144
233
234
234
231
236
234
242
240
184
125
122
135
141
143
138
132
123
122
126
129
136
133
133
134
125
123
118
118
123
121
122
118
116
120
118
121
119
116
118
112
112
113
116
124
127
130
130
121
106
92
92
95
107
120
120
131
139
144
147
140
238
235
235
234
232
238
242
249
216
142
115
131
136
140
142
135
133
128
123
128
131
138
139
135
134
125
125
121
121
125
120
123
121
117
119
117
115
111
114
119
119
127
129
127
125
122
119
99
88
97
100
109
112
117
125
127
138
140
139
144
237
235
233
236
233
236
236
244
236
172
123
132
138
139
143
139
142
141
133
130
126
131
135
133
134
126
123
122
117
124
124
122
122
119
123
120
120
123
124
133
135
133
128
121
120
112
95
72
72
99
117
122
119
114
123
131
139
145
138
139
