P2
60 28
255
154
102
87
78
73
71
85
126
183
216
182
137
123
126
134
138
139
144
145
143
143
143
142
138
143
142
138
137
126
119
109
102
108
108
107
99
90
90
100
131
155
170
180
171
172
170
171
181
182
201
212
218
233
237
246
251
250
250
243
246
146
101
92
76
66
72
85
130
192
205
165
129
126
130
132
140
146
150
148
144
145
149
159
164
164
173
176
173
168
157
150
135
127
127
124
122
110
107
108
105
118
132
152
173
172
168
157
160
177
184
203
215
233
247
246
251
253
252
248
244
138
96
88
78
65
67
83
129
193
194
150
132
127
131
139
147
153
156
165
164
168
174
177
187
187
194
196
189
193
188
183
173
156
149
144
144
139
130
132
122
119
126
138
166
173
167
158
158
178
182
197
223
238
251
254
254
254
254
254
250
133
91
86
78
68
61
79
132
189
189
143
132
137
143
152
155
160
162
170
181
181
190
196
197
206
204
205
208
205
206
199
198
192
179
173
162
160
156
150
149
138
139
140
145
164
164
167
170
172
190
201
227
252
253
254
254
254
254
254
254
133
94
91
78
66
61
84
143
180
168
146
152
164
160
164
167
170
180
187
202
207
212
219
216
219
209
211
224
217
218
210
204
201
184
179
172
167
168
160
163
158
151
153
151
164
169
165
171
173
194
215
236
254
254
254
254
254
254
254
254
134
96
90
76
66
61
78
144
190
168
154
171
184
183
175
181
185
194
208
210
220
223
228
233
224
227
224
224
226
219
222
213
204
199
184
180
173
170
168
159
160
159
160
163
159
172
171
171
188
200
226
249
253
254
254
254
254
254
254
254
135
99
92
79
68
65
85
144
183
167
160
170
175
182
182
189
195
198
211
212
220
223
221
231
230
230
228
222
224
217
214
207
194
196
186
177
173
166
171
162
159
162
160
166
164
170
174
174
194
212
235
254
254
254
254
254
254
254
254
254
149
104
93
81
70
58
84
148
183
177
167
175
181
184
192
190
199
206
211
223
220
227
227
220
226
221
222
219
212
214
204
198
190
182
181
167
167
167
162
168
162
162
163
161
168
168
178
182
188
217
240
250
254
254
254
254
254
254
254
254
155
104
92
85
75
59
83
152
183
186
189
193
192
184
190
191
196
208
206
213
213
213
218
209
210
211
209
207
193
189
179
172
170
157
159
155
151
160
154
159
160
157
165
163
165
167
174
188
193
214
239
249
254
254
254
254
254
254
254
254
153
101
92
83
70
63
85
154
193
188
194
195
191
186
186
199
197
196
200
194
201
200
201
203
191
191
183
171
163
150
146
137
134
133
122
129
128
135
148
147
154
156
160
168
165
172
177
185
201
212
236
254
254
254
254
254
254
254
254
254
162
110
93
87
75
62
88
161
202
195
192
191
188
190
189
193
194
193
194
184
186
184
170
171
178
193
194
183
184
174
165
160
152
152
141
131
122
114
125
127
133
144
149
160
161
171
186
193
210
220
236
252
252
254
254
254
254
254
254
254
169
120
90
87
78
60
96
167
193
190
183
184
181
182
196
196
196
191
181
171
152
152
167
194
228
227
201
172
155
146
131
132
135
137
140
133
134
128
118
120
119
130
141
145
162
175
195
209
215
232
245
252
254
254
254
254
254
254
254
254
168
109
85
87
80
63
97
172
199
196
189
185
181
179
188
188
186
178
151
139
155
182
193
175
145
112
88
81
75
69
67
67
73
75
86
98
110
121
119
124
123
126
144
150
166
187
204
221
223
237
248
248
254
254
254
254
254
254
254
254
172
108
83
83
72
70
104
172
201
191
193
186
181
185
182
183
170
147
141
164
185
169
131
98
88
85
95
126
117
88
86
88
91
86
70
76
88
100
108
106
121
128
141
167
180
204
219
225
233
234
246
254
254
254
254
254
254
254
254
254
174
110
84
86
80
66
103
182
215
201
194
189
183
186
178
170
148
136
166
175
142
100
88
117
134
112
130
169
143
102
92
94
97
99
83
88
124
131
118
101
100
110
124
161
189
214
225
222
234
240
246
254
254
254
254
254
254
254
254
254
183
120
89
90
83
68
116
194
219
213
201
196
189
183
181
158
131
140
164
140
87
81
122
178
188
142
117
125
120
100
83
81
91
99
94
95
134
151
138
131
109
101
104
132
186
206
220
230
231
245
252
254
254
254
254
254
254
254
254
254
190
126
85
84
77
72
128
202
214
208
200
192
189
178
172
152
135
138
120
86
80
114
162
197
202
155
107
103
100
87
73
71
94
103
90
96
138
157
144
142
127
110
119
148
192
209
214
230
238
248
254
254
254
254
254
254
254
254
254
254
200
134
91
85
80
77
127
207
224
208
205
197
189
180
165
151
134
117
97
83
104
146
182
206
211
172
115
102
105
94
93
97
103
107
94
110
140
147
147
138
135
132
143
170
187
215
229
236
247
247
252
254
254
254
254
254
254
254
254
254
204
133
87
83
78
80
141
208
223
212
206
198
186
181
166
156
144
119
111
112
129
162
188
211
228
210
150
106
103
103
105
110
106
103
105
130
149
149
159
153
156
170
174
199
212
228
240
236
247
254
254
254
254
254
254
254
254
254
254
254
215
143
81
80
81
85
157
222
224
217
210
203
193
179
175
159
142
130
131
143
147
158
176
199
226
238
219
164
121
114
113
124
142
157
171
167
171
175
172
187
189
197
207
215
235
236
242
248
246
252
254
254
254
254
254
254
254
254
254
254
217
150
90
83
86
100
166
224
225
222
217
208
199
185
181
168
162
168
165
169
173
175
180
183
202
214
215
214
195
187
182
186
200
194
195
190
186
196
192
202
208
211
229
233
244
243
240
247
248
251
254
254
254
254
254
254
254
254
254
254
221
162
100
87
88
109
175
226
231
223
224
215
204
200
187
183
183
186
191
192
205
209
208
209
208
207
198
196
198
193
200
201
201
205
199
206
204
211
224
218
231
242
245
248
241
245
245
245
250
250
253
254
254
254
254
254
254
254
254
254
222
167
103
88
90
118
184
223
229
224
225
219
210
207
193
197
203
200
208
206
221
233
225
229
223
217
216
210
218
212
211
211
205
217
219
229
238
234
243
243
245
251
244
245
239
240
245
242
249
253
253
254
254
254
254
254
254
254
254
254
220
172
106
87
95
122
187
227
229
233
224
218
213
206
210
207
216
218
211
219
220
230
230
227
237
227
221
216
208
215
208
217
235
238
246
245
248
250
250
254
254
254
249
244
245
245
247
248
246
252
254
254
254
254
254
254
254
254
254
254
213
158
103
88
91
126
195
234
229
234
231
225
226
218
224
223
220
219
205
213
216
218
227
217
224
220
212
217
210
227
240
241
249
247
250
251
251
254
254
254
254
252
251
249
251
249
245
247
248
251
254
254
254
254
254
254
254
254
254
254
212
156
111
92
88
134
203
233
236
233
239
235
229
231
226
231
223
215
213
207
217
218
220
227
221
233
233
234
244
243
249
254
254
254
254
254
254
254
254
254
254
251
251
252
248
250
248
248
252
251
253
254
254
254
254
254
254
254
254
252
203
162
119
94
87
135
207
231
236
234
239
240
232
235
230
233
231
219
224
220
225
229
226
238
238
243
249
247
252
254
254
254
254
254
254
254
254
254
254
254
254
252
249
251
250
250
248
245
250
254
254
254
254
254
254
254
254
254
254
254
210
170
125
96
92
135
205
239
238
240
237
239
239
232
237
233
237
238
232
238
235
241
246
243
251
252
252
254
254
254
254
254
254
254
254
254
254
254
254
254
253
253
252
250
252
246
246
250
250
254
254
254
254
254
254
254
254
254
254
254
