P2
60 28
255
242
243
248
246
195
117
82
72
60
52
44
48
54
74
113
140
149
147
142
125
102
100
104
101
99
98
100
96
93
89
82
78
73
73
75
76
81
85
82
75
72
84
101
112
121
126
133
135
143
156
155
160
164
163
167
166
171
172
171
172
240
243
245
247
223
173
117
70
52
49
48
50
64
90
126
148
154
150
130
110
103
102
103
103
108
116
119
117
121
134
135
121
109
91
80
78
76
78
80
80
76
76
89
102
111
118
120
129
134
143
153
154
162
162
161
161
161
169
167
159
238
241
242
247
247
199
111
59
54
55
51
45
67
107
140
158
156
143
121
112
118
113
112
115
121
132
135
136
139
143
153
158
154
141
121
111
99
89
84
80
80
78
82
88
96
112
117
126
134
137
146
151
155
153
151
159
163
164
160
148
241
239
245
243
231
186
108
60
54
53
47
51
79
124
150
154
146
126
122
128
123
122
126
131
135
139
141
140
150
155
158
167
166
167
161
152
146
126
115
107
94
89
88
87
89
100
118
117
123
136
140
146
149
155
159
156
155
152
153
145
244
241
243
244
235
193
112
60
52
52
40
53
94
134
159
156
141
124
118
117
120
134
138
136
139
139
144
143
144
150
143
146
147
142
144
138
139
138
134
131
119
110
102
100
103
105
117
123
124
136
136
140
150
155
157
149
151
154
156
152
240
241
241
248
244
201
132
78
53
48
51
68
111
146
159
152
134
129
124
117
119
128
133
132
135
137
135
137
132
135
144
143
143
138
134
135
130
129
126
125
130
126
123
118
116
119
120
128
126
127
136
136
148
153
152
155
154
160
158
144
240
242
243
247
241
208
149
83
51
48
57
82
124
155
158
148
131
127
129
126
129
132
137
140
135
134
133
133
134
134
140
139
138
136
129
129
125
124
120
117
124
126
129
130
122
123
117
119
127
127
131
130
138
147
151
163
162
160
155
140
243
239
242
244
245
234
186
111
53
44
55
82
130
160
157
141
131
122
123
130
138
141
135
131
128
125
126
128
131
130
129
127
120
116
110
102
102
101
102
107
108
115
119
125
129
125
121
114
117
123
127
135
138
145
154
160
165
155
150
146
244
243
244
244
245
251
221
130
57
49
55
87
137
162
160
140
126
119
125
136
137
134
130
126
124
120
118
118
115
109
97
91
89
95
103
96
97
96
92
92
90
98
108
115
127
129
127
119
115
118
116
127
137
145
156
159
162
158
153
158
242
244
242
243
247
249
218
131
58
39
52
95
145
164
152
129
117
129
137
137
133
127
127
121
118
114
102
95
88
90
92
85
81
86
94
97
95
99
104
105
100
92
94
104
115
126
128
129
122
113
115
116
126
135
145
154
150
149
149
149
241
244
243
245
247
247
232
173
88
43
57
104
152
164
142
122
129
144
138
126
125
119
116
114
109
103
86
78
82
80
83
93
101
106
98
92
87
87
99
110
116
112
101
93
96
111
119
124
125
117
116
115
117
128
137
146
145
141
143
137
244
241
244
242
241
247
242
196
112
55
68
149
198
166
122
123
148
145
130
125
121
114
110
110
100
86
84
78
73
84
118
155
166
134
98
89
87
86
88
97
106
114
115
108
98
96
107
117
126
128
121
113
111
121
126
117
103
100
131
144
242
242
243
243
240
246
249
194
93
33
57
142
175
125
100
134
158
142
127
124
116
111
109
99
85
75
74
72
86
127
167
175
141
103
90
89
85
92
102
108
113
123
122
118
115
103
103
113
119
127
126
118
111
100
79
61
77
101
120
130
241
244
240
241
244
247
247
169
50
17
62
124
154
130
121
152
157
141
131
123
117
110
105
95
86
80
74
91
119
149
170
155
114
95
96
84
69
75
94
103
122
151
145
120
114
117
115
115
119
127
131
122
106
68
55
99
128
137
138
134
241
245
243
242
244
248
247
188
86
36
70
138
159
131
130
154
152
139
130
122
120
113
106
100
89
85
86
102
138
177
204
181
112
79
100
158
176
134
114
103
110
150
163
141
117
119
129
126
132
138
142
131
89
63
82
118
128
131
136
135
240
238
244
243
245
252
239
198
125
58
71
131
146
127
135
153
151
139
131
126
124
133
139
126
101
93
109
144
195
237
254
232
175
122
100
98
79
75
92
91
102
141
174
186
183
168
146
130
164
226
227
157
85
75
98
114
132
136
140
144
244
240
241
241
242
249
235
197
132
66
75
129
139
126
135
147
148
142
136
131
122
136
156
144
116
92
110
167
183
202
232
221
178
120
91
89
91
98
101
98
112
136
154
151
145
136
112
129
166
213
223
144
78
78
105
118
131
142
146
149
238
241
239
241
243
241
238
232
176
80
66
112
131
125
129
141
141
140
134
131
124
115
117
117
125
118
122
130
128
155
169
192
181
116
91
101
109
108
102
105
105
106
106
97
110
106
114
129
107
118
124
113
94
84
113
132
134
142
144
146
238
241
243
244
243
239
244
243
202
114
82
123
143
132
129
145
148
142
136
127
122
115
122
155
161
144
147
158
189
202
198
210
185
135
114
124
130
131
132
125
121
110
105
109
112
128
129
120
108
88
111
110
76
93
119
139
141
142
147
148
242
240
244
240
238
240
236
243
217
155
133
149
154
146
132
139
154
144
130
124
124
126
129
156
166
152
150
167
200
212
206
190
164
136
121
131
140
136
128
119
111
111
107
113
122
126
122
107
97
104
125
103
72
102
129
131
144
145
149
153
240
238
241
244
241
245
235
211
166
133
139
154
157
154
143
136
148
149
139
138
134
129
131
152
163
145
148
174
188
217
214
170
143
124
122
125
130
129
118
116
114
117
120
115
115
112
107
97
92
115
107
77
87
115
131
133
144
147
144
151
238
240
236
242
248
242
199
121
77
98
143
158
159
156
145
139
142
150
148
143
135
128
132
148
155
141
147
163
174
212
214
159
130
129
132
131
123
124
124
122
125
122
121
114
108
109
118
128
127
120
92
75
105
125
129
141
144
150
147
143
237
238
239
243
252
231
166
116
103
112
148
164
160
154
146
142
137
144
151
147
142
131
127
148
153
139
135
128
154
209
217
165
130
132
133
137
135
133
131
120
120
121
120
118
115
126
142
145
135
110
95
102
122
130
129
141
143
145
148
143
240
237
241
245
248
214
152
119
107
117
150
168
162
154
149
143
139
136
140
143
140
136
135
152
158
141
124
113
143
186
186
154
128
129
132
131
132
128
130
128
124
125
118
122
130
142
156
144
120
109
107
118
126
131
134
135
147
144
143
146
240
238
240
245
250
216
149
116
110
124
152
164
158
152
148
141
138
134
135
140
139
144
153
164
165
145
131
123
127
160
169
147
132
130
134
131
135
138
131
130
123
122
127
135
146
149
143
123
108
112
119
129
129
126
133
130
136
141
134
139
234
241
240
243
253
235
162
106
104
122
154
162
155
148
144
142
136
137
134
137
142
143
151
157
156
143
133
127
122
135
143
134
133
134
136
139
136
136
125
119
125
132
143
144
142
137
109
91
96
113
130
130
129
126
122
132
137
140
142
142
239
242
240
242
250
241
182
116
103
125
154
161
155
149
143
141
136
141
141
133
138
145
151
149
137
131
128
130
131
128
132
128
128
133
130
132
130
128
128
128
138
144
146
141
126
104
71
73
102
122
137
131
120
121
123
130
133
136
139
135
240
238
241
240
245
245
188
118
102
123
153
164
156
149
141
136
139
138
139
138
134
139
141
150
153
147
146
137
134
132
127
132
129
129
127
123
125
125
135
140
137
139
133
128
120
107
107
111
123
135
131
123
115
123
130
126
130
131
141
147
