P2
60 28
255
118
114
108
104
100
102
102
99
98
92
85
75
69
70
68
74
98
124
125
110
104
100
94
90
91
91
89
86
77
73
75
75
72
71
71
71
71
73
76
75
78
76
76
78
77
81
75
72
80
82
84
86
89
95
91
91
90
88
94
95
117
114
107
102
100
103
101
96
95
87
75
65
62
67
65
69
84
91
100
122
140
125
100
118
146
151
157
139
98
83
84
81
80
81
78
75
75
77
79
80
80
82
81
83
86
89
85
75
75
78
81
87
88
91
89
88
91
87
87
90
118
112
109
104
106
104
102
98
89
80
73
73
76
71
67
70
79
85
96
121
143
129
109
126
147
156
166
147
106
89
91
91
90
87
86
82
81
81
80
82
81
80
80
84
90
84
73
71
72
75
78
83
85
83
88
88
86
83
73
87
115
112
111
106
106
107
102
94
80
72
72
83
93
82
83
90
86
80
83
108
135
125
105
125
147
162
173
147
107
95
95
91
91
87
86
88
88
88
84
83
84
81
81
84
89
92
85
78
74
77
77
75
80
82
81
74
59
51
66
105
116
111
108
107
108
108
97
83
76
70
76
90
94
95
92
90
83
79
83
108
133
119
108
133
149
154
169
155
118
99
95
94
93
93
90
90
89
86
85
81
84
92
104
106
99
97
96
93
88
88
87
76
75
71
51
35
30
37
50
58
117
115
108
108
109
106
94
81
79
74
68
76
89
96
91
85
82
79
82
100
124
125
126
143
136
133
167
169
127
101
99
98
93
95
93
89
90
87
88
81
80
105
134
143
142
130
115
104
97
93
87
81
67
48
32
39
58
64
72
77
117
115
113
113
112
102
92
83
76
71
65
74
88
91
91
85
82
83
79
105
139
121
110
137
150
159
172
160
131
108
94
93
95
95
94
90
90
89
87
83
81
85
94
103
104
102
100
98
97
96
85
73
60
35
38
60
76
83
82
86
114
114
113
113
109
97
81
76
72
68
71
79
87
87
85
82
81
84
81
95
124
121
110
128
128
128
166
181
148
112
95
91
94
93
91
90
88
89
87
83
81
80
82
82
84
84
79
80
84
88
85
70
57
43
45
64
77
87
89
92
115
115
112
109
102
95
87
84
82
76
77
78
82
84
79
79
82
83
87
107
131
119
107
121
115
120
164
170
130
101
91
85
84
85
82
82
84
85
84
79
80
82
82
82
81
85
84
80
81
87
91
80
62
45
41
61
77
81
89
90
116
114
113
111
104
94
90
99
99
84
79
80
81
81
79
82
83
81
88
107
119
104
96
112
110
99
117
144
134
99
78
71
66
63
61
64
70
72
75
76
77
81
81
79
81
81
81
80
80
86
95
91
72
64
59
61
74
79
85
85
113
113
112
109
106
93
93
113
108
85
76
78
79
78
80
81
82
81
84
94
95
84
84
99
97
89
100
112
103
84
74
71
64
60
63
61
58
58
60
66
69
74
78
79
83
83
82
79
77
83
91
93
84
78
72
59
64
75
78
86
111
112
112
109
101
78
97
162
140
80
74
75
76
75
74
76
78
78
76
76
73
66
72
92
98
89
87
87
81
74
72
68
62
60
64
66
65
64
59
58
63
63
70
76
80
83
80
79
77
80
90
91
84
76
66
56
57
71
79
83
110
111
108
99
81
63
73
108
107
81
77
78
78
76
72
73
74
70
63
59
63
67
72
76
77
74
66
58
51
46
44
39
38
45
52
58
60
63
67
63
63
62
62
68
71
76
74
76
80
80
92
102
97
88
69
52
53
67
79
78
113
103
68
49
45
47
64
76
79
78
76
76
74
73
72
72
67
57
56
60
63
68
67
63
55
46
40
33
30
29
29
32
33
37
50
62
60
57
59
63
62
65
67
67
68
71
72
70
74
77
80
77
78
117
115
56
42
60
72
79
118
101
53
35
46
48
56
66
70
73
70
71
71
70
69
65
60
58
59
63
64
65
59
47
41
37
38
44
47
48
51
47
37
38
55
79
88
77
63
58
62
70
75
76
75
71
69
68
70
77
78
66
71
125
129
59
40
60
70
79
112
91
57
45
51
53
60
75
72
65
66
65
65
64
61
54
52
59
63
64
61
55
55
50
41
36
34
63
86
65
57
55
43
35
47
83
98
92
77
65
62
62
69
75
80
82
76
74
74
75
79
85
101
115
110
100
79
65
70
75
101
85
68
58
56
60
79
98
84
63
62
64
64
62
55
55
60
63
60
52
52
64
71
59
44
39
35
36
36
35
39
44
43
38
51
85
103
97
87
76
68
62
61
66
74
82
82
79
80
71
76
105
107
72
103
176
126
54
63
74
86
75
57
50
54
59
71
79
74
67
66
66
64
59
53
55
59
56
50
49
56
72
76
61
45
37
36
36
39
40
39
43
44
40
60
94
103
95
84
75
68
64
64
63
65
75
82
81
81
75
78
100
84
60
132
179
101
48
64
72
74
69
71
74
76
76
75
71
70
72
71
71
66
58
57
55
52
50
51
59
67
78
82
73
55
41
37
38
38
38
37
39
43
53
77
92
90
81
74
70
67
68
68
65
71
75
78
81
79
78
76
74
66
57
82
85
64
63
69
75
86
99
105
97
90
86
80
73
68
72
72
67
67
62
58
55
52
56
55
57
68
76
83
82
67
49
41
41
40
39
41
43
49
60
72
77
74
72
70
69
72
73
77
76
76
76
74
78
81
83
82
79
75
63
52
52
58
69
70
71
105
114
111
103
91
89
88
78
71
71
76
73
67
65
60
59
61
65
69
67
67
68
73
79
76
65
49
45
49
50
54
60
68
75
76
77
74
74
77
76
79
80
82
83
79
76
77
82
86
85
85
83
77
66
57
58
63
65
68
68
114
117
110
101
95
93
89
80
75
76
77
74
69
68
66
64
69
72
72
70
68
67
66
69
71
69
67
65
69
71
71
74
76
78
76
75
75
75
73
74
73
76
78
77
76
75
79
83
87
87
85
81
71
63
57
60
67
66
66
67
113
116
113
103
98
94
89
86
81
75
73
71
69
69
71
70
70
73
72
71
67
67
68
68
73
74
70
69
74
77
75
76
77
77
75
71
72
71
70
71
69
68
67
65
69
75
82
87
87
88
82
74
70
62
60
62
64
67
67
69
114
115
114
106
98
93
87
87
82
73
70
73
78
78
79
78
76
79
74
72
73
68
67
64
65
67
65
69
72
72
75
74
73
72
73
74
72
71
69
70
68
64
64
67
76
81
81
85
86
90
85
68
61
59
63
65
63
68
69
70
112
114
113
106
96
91
89
90
90
80
69
70
79
83
81
82
82
81
80
77
78
74
70
71
71
72
72
73
74
72
73
75
80
81
76
76
76
73
70
69
71
69
66
73
78
85
88
88
90
82
67
55
54
62
66
67
66
66
71
72
113
115
111
105
96
92
92
89
86
83
78
75
77
82
84
84
80
78
80
77
77
80
76
78
80
79
82
82
82
82
81
84
83
80
76
72
73
72
72
73
72
73
73
76
82
85
86
81
74
66
59
57
56
63
68
67
68
68
70
70
110
109
110
105
99
94
93
93
87
88
89
84
78
73
79
80
77
76
75
77
78
79
79
77
79
78
82
85
83
83
80
80
81
78
76
75
76
74
71
75
77
77
78
82
87
86
82
72
61
63
62
63
68
67
67
65
68
69
68
73
111
110
109
104
102
98
94
93
90
92
92
89
87
76
70
72
74
76
75
75
77
78
78
76
75
76
79
83
82
81
80
78
78
76
75
76
76
77
71
72
78
78
81
82
78
72
62
61
61
63
68
66
68
69
70
69
66
69
68
70
