P2
60 28
255
127
131
133
129
128
122
121
119
114
115
119
121
123
126
128
127
129
128
126
127
123
116
110
102
92
87
87
83
77
76
75
74
79
89
103
111
118
121
121
134
146
156
164
176
202
213
211
205
198
195
188
186
188
181
191
210
230
248
251
253
132
137
134
127
126
124
118
112
108
115
123
125
127
127
125
126
126
127
124
121
122
123
124
118
110
106
100
93
86
83
82
79
80
83
84
88
88
87
86
94
111
124
135
146
168
190
193
187
178
173
172
169
178
181
199
226
240
251
254
254
134
133
136
141
139
137
135
128
125
126
127
128
131
138
138
137
137
138
141
142
144
146
148
153
152
148
136
121
114
107
101
98
94
92
88
88
87
83
85
88
93
98
103
121
147
178
188
175
169
164
169
177
179
195
212
234
251
252
254
253
142
146
152
161
164
164
161
150
143
139
140
143
148
160
163
160
161
157
164
173
175
177
174
180
184
181
178
164
160
152
140
132
122
119
115
108
109
105
110
110
105
113
117
129
143
162
175
162
158
166
176
188
191
210
231
240
251
253
254
254
147
147
151
159
174
178
172
165
161
162
160
159
163
173
184
186
189
192
192
198
203
205
208
205
208
208
203
199
185
178
173
166
160
146
144
141
135
137
133
137
138
139
149
143
148
159
159
160
163
178
194
205
218
227
242
250
250
254
254
254
141
139
146
155
165
177
179
179
175
174
179
179
185
190
198
207
209
217
213
212
216
210
215
217
217
217
212
214
204
199
197
185
185
176
166
160
152
156
155
158
163
164
171
167
167
171
166
173
178
188
209
222
237
241
244
250
249
252
252
251
163
165
166
168
167
173
178
178
184
186
192
199
205
215
216
223
229
229
232
230
232
230
223
221
217
220
221
215
218
212
207
201
189
185
173
167
166
160
166
167
170
176
176
185
182
181
187
184
191
197
211
230
238
246
245
247
250
249
251
245
175
181
177
178
179
176
179
179
189
197
204
213
212
220
225
224
231
230
233
237
235
237
229
227
222
219
226
218
217
214
205
198
184
180
175
169
174
172
177
178
176
184
182
188
191
189
199
200
205
209
216
234
235
239
240
237
244
240
237
233
172
179
184
182
188
187
187
192
195
205
210
218
224
220
227
228
228
234
232
235
233
232
234
224
225
221
219
220
211
207
198
188
183
171
172
173
175
181
178
181
182
181
186
184
191
197
202
214
213
218
220
223
232
229
231
230
231
235
227
226
162
167
180
184
188
190
189
199
202
206
213
214
224
225
224
225
221
229
228
227
226
223
228
224
224
223
216
215
208
200
193
181
174
166
164
168
167
177
177
178
181
178
185
186
191
204
209
220
225
228
228
221
227
223
219
225
222
229
225
218
168
173
175
184
183
189
194
197
208
207
212
213
211
216
212
215
218
219
227
224
224
225
224
228
227
225
218
208
204
190
177
166
157
158
155
159
163
164
175
173
177
183
181
189
197
210
220
224
233
228
225
220
212
217
215
221
225
219
224
219
178
185
180
186
187
189
198
199
205
206
205
209
203
203
204
205
213
214
223
228
227
231
226
227
223
214
209
194
183
176
168
166
161
162
165
163
166
164
168
172
174
184
185
194
204
213
227
226
229
229
219
215
206
208
214
214
225
222
223
223
183
186
192
187
190
189
191
198
194
200
201
202
204
194
199
203
207
214
215
224
222
219
220
217
217
214
210
201
188
183
175
172
166
161
167
166
168
173
170
175
176
182
197
202
213
218
221
229
225
223
218
211
212
205
212
216
219
226
219
222
188
188
193
189
188
187
185
190
189
192
196
194
198
194
194
193
190
194
198
202
207
211
215
219
216
211
203
189
177
169
164
156
149
146
149
152
149
160
165
168
175
176
194
204
211
217
214
222
222
217
214
202
207
208
208
217
215
226
224
215
193
194
189
194
190
187
183
178
184
182
183
184
181
182
177
177
181
185
195
203
209
206
199
187
171
160
145
132
123
117
117
113
114
117
112
116
121
125
144
151
159
168
177
196
202
206
210
210
218
214
206
204
202
213
211
217
225
221
229
222
193
197
192
191
185
179
178
168
166
166
164
164
162
166
174
181
186
187
186
180
160
138
117
95
81
69
64
65
60
63
75
89
93
87
84
83
90
93
101
115
124
143
157
179
196
199
207
202
206
205
194
202
201
212
223
219
230
227
226
227
197
195
193
185
182
174
166
164
155
151
152
156
164
171
179
178
168
151
130
107
82
64
57
58
59
62
70
72
69
76
90
108
112
102
99
98
101
107
107
121
131
141
165
175
192
199
196
202
197
201
198
196
210
215
228
231
227
232
226
229
201
195
194
188
182
174
160
158
149
149
157
158
165
163
147
131
112
94
84
83
81
73
72
73
76
82
85
93
99
110
123
122
127
125
124
132
128
137
140
152
169
170
183
185
190
199
194
199
196
196
203
199
212
220
223
233
230
233
231
227
202
202
194
191
181
174
167
156
157
154
149
141
131
119
99
82
70
72
92
114
122
115
105
102
104
112
124
134
143
144
149
151
148
158
156
157
161
156
166
171
181
191
187
193
190
193
197
191
197
194
198
208
210
223
226
230
232
226
232
227
204
207
197
191
185
177
175
165
156
143
124
109
93
81
74
71
75
88
113
135
145
155
152
155
159
160
172
174
171
169
167
174
171
174
175
170
177
174
180
186
185
194
191
194
197
193
198
191
194
200
201
214
217
222
229
227
234
229
228
230
209
207
206
195
192
183
172
165
152
137
121
106
96
90
92
95
104
124
139
156
164
167
174
175
183
183
183
188
184
186
187
190
194
188
189
185
181
188
184
190
191
190
199
194
196
196
192
196
193
203
210
216
228
223
230
232
230
233
227
231
210
205
205
197
191
184
169
166
155
142
135
123
121
119
125
141
151
170
175
178
187
185
188
191
197
201
192
199
202
201
204
198
205
201
196
199
190
195
191
189
196
193
201
196
191
194
188
197
201
206
219
216
223
224
226
234
226
230
230
227
208
209
203
199
188
182
180
171
168
160
158
157
152
159
163
178
193
196
203
203
209
214
208
214
216
215
212
206
214
212
212
215
210
212
204
203
203
192
196
194
199
206
202
203
190
187
193
195
210
209
213
221
216
224
227
231
234
229
234
228
209
209
198
197
194
185
187
183
185
184
181
187
178
184
192
199
212
209
214
218
219
227
220
221
221
217
222
216
219
222
219
224
218
215
212
205
208
205
208
209
204
208
201
200
195
187
198
198
208
218
213
220
218
223
227
221
232
229
229
230
215
208
208
200
201
198
197
197
188
195
196
195
200
195
205
213
214
220
217
222
224
223
227
221
223
221
219
224
220
227
226
222
220
211
213
212
213
218
214
217
214
209
208
195
195
195
198
209
207
214
213
211
219
218
224
223
223
229
224
228
218
210
209
202
202
206
201
200
194
196
199
192
198
198
203
211
210
219
218
219
224
219
225
225
225
226
221
227
228
229
234
225
221
215
213
219
216
224
225
221
223
211
207
200
196
203
201
208
210
210
217
211
216
217
215
221
216
222
224
220
212
211
204
207
203
201
201
197
202
196
194
195
192
204
206
209
213
211
220
218
221
224
224
233
232
233
234
232
237
234
233
229
222
226
223
221
223
224
231
228
225
217
204
206
201
204
210
208
215
211
211
215
212
218
212
213
218
216
224
219
208
212
204
204
202
197
200
194
199
199
194
198
196
201
207
207
215
211
217
223
222
233
231
232
237
236
241
237
234
233
228
230
225
229
228
219
223
223
226
224
214
217
210
207
210
208
216
213
212
212
209
216
211
210
214
210
219
217
218
219
