P2
60 28
255
14
21
25
30
32
41
68
101
114
110
105
102
96
92
97
99
100
102
102
107
105
100
97
92
86
75
71
71
68
70
72
70
67
65
66
63
70
81
83
90
96
98
104
107
115
120
125
136
137
145
149
148
154
155
160
162
162
163
159
160
20
22
25
31
32
45
79
104
108
108
108
103
101
97
96
100
100
103
103
107
114
114
113
106
98
92
86
82
76
72
69
68
69
67
68
69
65
70
77
84
90
93
98
99
105
117
122
128
133
139
145
143
147
151
157
160
159
163
159
155
19
19
25
31
29
49
85
104
109
108
105
103
102
103
99
105
109
105
105
107
117
121
121
123
116
115
110
98
92
83
79
79
75
68
64
67
67
65
74
81
87
92
96
101
105
113
123
128
135
136
137
136
138
149
150
151
159
158
158
156
16
18
28
35
33
50
91
113
113
107
104
104
99
98
98
101
111
112
114
117
121
128
122
121
122
121
126
123
115
109
105
103
93
84
74
69
72
68
69
74
80
91
94
94
100
111
122
122
123
129
135
138
134
138
143
145
151
151
153
155
10
21
30
33
37
57
86
106
108
107
102
101
101
99
103
108
109
110
114
120
121
122
126
120
121
120
121
127
125
123
120
122
119
105
96
85
79
81
79
81
83
85
90
90
98
107
108
116
120
128
132
131
136
134
138
141
144
147
149
154
7
20
35
35
38
66
93
108
108
105
103
100
103
105
106
108
107
106
107
116
120
116
119
120
121
124
121
126
129
128
131
131
131
125
116
109
101
99
94
89
88
87
93
96
99
106
105
109
114
119
127
126
135
137
136
141
141
146
149
153
7
21
32
32
35
71
101
106
106
100
99
100
97
101
103
107
109
107
110
111
113
115
117
120
114
117
120
122
130
129
129
131
132
131
125
123
118
111
110
101
95
96
95
98
98
100
102
101
108
113
121
126
126
130
130
134
140
140
148
147
7
19
31
31
39
73
98
103
106
103
99
100
99
103
105
103
105
103
107
113
112
114
111
112
112
110
118
123
126
130
132
136
132
133
133
127
125
118
112
110
104
101
96
96
97
94
99
102
109
115
119
127
123
125
128
131
139
137
143
146
4
16
27
30
50
83
102
106
103
100
95
95
99
100
103
103
103
105
103
107
106
103
105
106
110
105
103
110
111
116
117
116
120
121
123
123
120
115
110
109
107
106
104
99
97
94
94
103
106
111
117
121
126
124
131
136
135
141
141
145
9
23
29
33
58
89
103
109
106
103
99
94
99
103
101
101
100
99
97
99
98
91
93
88
85
90
89
96
102
105
107
104
104
102
99
99
100
106
107
108
108
105
104
98
97
99
94
96
99
105
115
119
124
126
128
134
134
136
140
148
16
25
31
33
53
93
110
104
102
99
95
96
96
101
101
98
98
95
98
96
88
80
73
80
89
97
102
105
113
117
118
114
110
114
110
104
98
89
90
91
96
101
101
101
100
97
92
93
95
97
109
116
115
121
121
127
134
129
136
141
18
27
25
27
57
95
113
110
107
102
98
100
99
100
101
97
95
94
92
79
66
72
80
91
92
89
90
88
91
96
95
97
97
102
110
109
105
101
96
93
89
91
94
95
98
99
98
93
90
89
98
111
111
116
119
120
129
128
134
139
14
25
31
35
68
102
108
108
106
102
98
98
99
96
95
92
92
93
75
61
67
77
82
81
77
64
49
39
32
32
34
33
32
44
66
80
88
98
101
104
103
100
100
95
94
90
89
94
90
91
97
102
108
106
112
120
121
131
132
133
16
24
25
35
76
107
108
108
107
104
101
100
100
96
96
98
92
83
69
69
79
79
76
57
41
55
66
52
45
43
37
28
26
35
38
49
67
82
90
96
104
108
116
110
98
93
87
90
90
87
89
94
103
106
111
117
116
121
124
125
10
22
24
42
83
110
110
102
105
103
100
102
102
98
94
94
89
79
74
72
69
58
45
45
70
108
106
67
30
62
142
156
131
95
49
52
94
108
92
84
89
98
111
126
124
111
101
91
88
87
90
94
97
105
104
110
117
112
118
121
19
30
28
51
93
109
108
104
104
104
102
103
104
102
99
93
87
79
69
59
45
32
38
65
100
123
104
58
24
56
106
89
69
65
48
55
117
155
137
111
91
83
87
102
123
134
125
104
93
91
89
91
93
97
99
99
110
110
114
122
33
29
26
48
95
111
107
108
104
103
102
104
107
103
98
93
85
69
54
49
42
43
54
75
104
129
127
74
36
34
35
40
46
52
51
78
131
148
140
141
136
103
75
73
89
109
119
115
99
90
85
84
91
90
95
100
102
110
110
116
43
31
28
53
101
112
103
107
106
106
104
104
108
102
99
93
78
70
63
64
71
74
77
79
90
114
136
118
68
44
48
51
52
49
61
101
126
121
107
98
90
78
84
100
98
85
88
104
103
95
89
82
87
92
92
99
103
111
112
112
52
36
30
65
103
110
108
103
109
108
104
106
106
103
94
85
77
71
75
78
85
90
85
85
83
93
114
120
93
62
60
66
68
71
81
92
94
92
95
89
86
85
79
83
83
85
96
110
111
95
85
83
83
88
91
100
109
109
113
107
58
33
33
71
105
110
107
103
106
109
106
109
106
99
89
79
81
88
95
95
93
95
91
96
97
95
95
93
93
98
104
107
106
108
111
111
110
102
98
97
91
92
92
98
110
117
122
112
100
91
81
81
80
83
88
92
106
106
106
109
61
28
34
72
102
108
107
108
105
108
108
106
105
95
86
84
91
102
103
101
95
92
99
102
105
101
97
101
104
111
118
116
118
116
116
115
110
106
98
96
94
93
97
106
122
128
118
107
93
87
84
81
83
82
86
90
95
105
103
106
54
25
38
81
108
110
106
110
111
111
108
105
104
95
90
95
97
103
98
89
90
95
104
107
109
112
111
113
115
115
117
113
117
121
118
120
113
107
103
102
100
94
96
104
107
109
102
95
91
87
88
83
81
81
83
92
94
99
100
101
52
26
45
90
110
111
109
105
108
109
108
105
99
100
98
97
99
95
97
94
97
105
106
109
111
114
116
111
112
116
120
124
125
131
132
125
118
112
111
104
107
110
100
98
95
94
92
89
92
89
86
84
82
85
85
91
95
92
101
103
51
27
47
94
112
108
109
110
112
110
107
106
101
101
100
95
96
96
101
101
98
103
104
110
111
112
120
119
121
123
123
125
125
129
129
126
124
118
117
117
112
110
102
95
93
87
88
87
88
90
86
86
81
84
88
86
94
91
92
99
52
24
39
86
112
110
107
109
110
111
106
104
105
98
98
98
97
100
97
98
99
95
102
105
108
110
109
114
112
115
117
116
123
123
122
122
121
122
123
125
120
113
108
95
94
96
93
95
89
86
84
81
86
85
87
84
81
91
90
96
55
24
40
84
107
112
108
109
111
112
108
100
100
96
96
100
96
99
101
104
106
104
107
105
105
108
105
112
117
120
127
125
123
123
122
125
125
129
133
131
128
120
111
102
101
102
93
92
90
84
85
80
80
82
80
84
82
87
91
90
64
33
36
78
104
111
114
110
109
105
103
102
96
96
96
98
102
100
102
103
107
113
112
116
114
110
110
115
126
126
123
121
120
127
128
131
134
130
131
125
118
112
104
105
103
97
92
87
88
86
85
85
75
78
79
80
87
85
93
95
72
43
41
76
100
105
110
108
105
105
100
99
95
96
100
99
102
100
101
107
109
111
112
117
118
113
115
118
122
123
121
127
132
132
132
132
135
129
123
120
113
107
105
108
105
96
95
89
88
88
81
81
76
77
81
76
87
90
92
100
