P2
60 28
255
97
104
106
103
105
101
100
90
70
145
239
182
82
65
83
89
89
93
98
104
106
99
117
150
149
136
145
171
196
199
158
115
111
113
113
113
112
115
114
113
112
109
110
108
107
114
123
124
129
151
178
179
167
157
129
132
157
145
133
121
100
103
106
106
102
101
82
82
165
235
169
76
68
80
87
91
84
89
101
108
111
101
117
146
149
144
148
172
197
203
159
114
115
114
111
115
117
115
117
116
115
111
111
109
107
112
120
123
116
133
157
161
164
165
164
179
168
98
69
87
103
104
102
103
98
89
67
121
222
173
79
72
81
85
87
84
85
89
105
112
106
105
112
143
154
136
145
153
187
206
157
123
117
115
114
115
113
111
114
115
114
114
109
108
112
117
126
125
123
129
136
145
149
153
168
199
178
99
82
99
101
103
101
101
104
85
93
149
145
96
84
89
88
89
89
87
93
95
103
109
107
107
115
146
154
133
129
138
183
195
151
136
128
114
111
114
116
113
113
114
111
115
111
112
137
167
184
174
167
154
139
135
133
142
174
208
171
97
79
100
103
104
107
106
103
98
104
106
91
84
86
86
93
90
88
89
89
99
104
108
111
111
124
142
145
141
121
121
154
171
186
184
145
107
101
106
105
109
111
114
117
113
114
116
129
148
137
134
131
123
125
119
127
140
166
196
154
91
86
102
106
101
92
108
140
142
132
118
92
92
99
94
92
89
83
88
91
97
102
105
108
107
123
132
136
142
133
119
122
150
164
145
116
93
89
94
96
101
105
108
115
113
114
117
117
117
114
117
114
114
119
111
123
146
185
213
141
79
91
104
99
94
62
122
228
253
223
145
85
79
86
85
81
78
80
86
92
92
98
101
95
98
98
100
102
103
129
133
132
161
184
173
116
86
90
86
86
82
86
93
100
106
107
113
121
119
121
121
114
116
115
116
121
127
174
212
132
68
95
107
84
90
60
115
220
254
214
116
69
81
81
79
77
77
79
84
92
93
95
92
81
81
90
97
96
102
128
132
131
145
175
164
103
83
92
90
86
81
78
82
88
95
97
105
113
110
113
114
111
112
111
119
122
130
186
198
110
70
95
108
86
84
46
77
166
198
153
84
66
76
76
73
74
73
74
81
89
94
87
80
82
86
99
102
98
113
126
126
102
102
140
130
94
85
87
88
85
85
83
78
75
79
90
95
98
104
105
106
105
106
112
117
114
127
182
164
81
71
95
105
88
88
67
71
101
117
124
106
75
72
77
73
70
68
72
84
84
74
71
77
85
85
93
98
99
115
120
116
100
89
98
96
91
86
84
85
81
82
83
84
81
77
85
93
95
100
101
101
101
101
100
103
97
118
191
161
65
62
91
101
98
94
87
84
82
93
113
104
84
80
79
77
72
72
76
78
73
69
75
79
78
82
82
86
88
86
95
95
93
90
80
81
80
80
84
81
82
81
81
82
80
83
85
91
97
95
96
99
101
102
101
101
96
127
179
127
50
51
82
100
105
104
101
99
101
101
102
98
91
93
88
83
80
76
75
70
69
71
75
77
73
73
71
76
80
77
77
68
62
60
56
57
54
55
60
62
71
75
77
79
78
81
84
90
94
98
104
103
103
103
104
93
97
154
166
86
40
56
78
99
106
103
103
100
105
107
103
102
103
102
95
89
86
79
72
68
67
73
75
73
74
71
70
70
64
55
45
41
40
49
63
58
56
60
55
60
73
86
84
77
77
74
81
88
96
106
108
112
110
106
102
84
97
171
155
58
39
64
83
100
106
103
104
106
106
109
108
105
107
109
106
101
94
81
74
71
66
67
70
67
67
57
50
48
50
54
49
50
50
41
35
38
48
54
56
61
82
99
91
78
75
69
70
76
81
98
110
112
110
104
103
107
133
173
114
37
45
70
89
103
104
102
106
110
106
108
120
115
104
105
106
102
96
88
77
65
58
53
52
50
45
42
42
49
65
72
64
56
53
48
42
46
53
59
59
63
79
82
78
77
75
75
73
76
82
97
113
113
107
97
88
113
177
169
69
32
58
76
95
103
107
108
107
106
110
110
119
116
103
102
100
99
96
87
73
61
54
45
40
43
43
46
48
56
65
71
69
60
57
60
64
70
71
72
74
74
79
81
82
85
86
94
97
102
108
109
109
106
102
95
83
100
158
136
48
38
72
90
99
109
108
104
102
100
103
104
110
113
100
98
102
98
95
88
80
74
65
66
66
66
69
69
70
71
74
75
74
77
80
79
81
86
92
92
91
92
88
92
91
89
96
99
106
111
111
108
104
102
96
90
84
110
146
98
38
53
81
99
106
109
103
105
107
111
111
113
114
109
104
102
100
96
93
92
90
91
89
90
96
95
96
93
91
89
89
90
85
87
90
89
93
96
103
108
104
103
95
91
90
89
95
101
105
109
107
105
102
99
98
89
84
138
159
70
35
77
91
94
105
108
108
106
104
110
111
108
108
108
106
101
103
102
96
97
96
96
100
101
104
106
105
106
106
108
112
109
107
105
107
108
105
109
109
106
101
96
96
95
98
98
98
102
99
104
109
107
104
98
94
82
91
141
124
54
54
88
97
96
103
107
108
106
106
105
110
108
104
107
107
105
105
105
102
98
97
97
98
99
100
103
104
104
105
107
107
108
111
111
110
111
108
106
104
103
104
99
100
102
102
102
99
102
106
107
108
105
101
95
93
92
104
116
73
47
77
92
97
100
101
110
106
108
108
105
107
108
107
111
113
111
109
110
111
102
96
95
93
96
98
99
100
100
101
101
100
103
103
102
102
104
103
97
100
104
106
105
105
111
106
102
105
108
111
111
107
106
101
97
81
91
144
120
57
63
89
94
93
101
104
109
108
107
106
105
104
106
103
102
113
117
115
113
110
104
96
94
92
92
93
93
96
95
97
99
97
98
95
94
99
100
104
105
109
114
113
111
107
108
110
109
114
117
113
110
106
102
96
92
89
115
136
79
54
86
93
96
97
101
111
111
108
104
101
104
105
107
106
99
109
130
128
112
102
99
93
90
91
91
94
92
92
97
97
99
101
102
102
100
102
104
106
108
108
109
105
102
106
110
117
119
121
120
113
109
105
98
92
85
101
137
102
52
65
88
94
94
100
100
108
111
108
107
106
105
106
106
103
99
98
120
140
121
100
96
93
86
86
90
89
93
95
95
96
97
100
99
100
101
102
103
99
103
108
107
108
109
113
116
119
121
117
117
115
109
105
99
85
89
133
131
65
53
78
89
98
98
102
106
107
114
107
106
108
107
108
106
103
105
103
105
120
124
110
96
90
88
86
91
90
93
98
96
100
100
102
105
103
106
107
109
109
106
110
111
112
115
114
116
118
117
115
111
109
105
100
92
88
113
122
82
57
68
81
90
98
103
102
109
113
117
106
105
107
106
103
106
104
101
104
102
105
107
104
97
85
85
86
90
95
94
98
100
100
103
102
106
106
107
111
112
115
114
114
112
110
115
115
114
115
113
112
109
106
101
93
86
103
123
96
68
73
77
83
92
95
102
107
112
119
116
104
108
106
105
106
106
102
97
101
103
99
99
101
104
96
91
91
88
96
98
98
103
102
105
104
105
110
108
113
116
113
116
114
114
114
113
115
114
115
111
108
109
102
98
87
96
124
105
77
75
77
83
84
93
100
102
109
112
117
120
107
107
105
105
107
105
102
100
99
102
99
95
95
97
100
93
90
90
89
96
98
101
102
101
107
109
113
114
112
115
113
113
113
110
116
115
114
115
111
113
111
108
103
93
97
115
109
79
74
83
79
80
86
91
102
108
114
115
112
117
