P2
60 28
255
130
150
180
197
206
214
208
206
203
205
212
209
209
202
199
203
196
195
192
191
191
184
179
164
147
143
132
125
122
121
121
115
116
114
109
110
105
109
110
111
122
126
133
136
141
156
156
163
168
170
184
183
194
202
209
225
216
219
224
222
130
162
182
199
205
208
211
200
203
205
204
205
195
193
194
194
193
184
184
181
177
173
156
148
139
134
132
123
123
118
115
116
110
113
112
106
107
103
107
107
113
123
123
131
139
145
154
150
160
167
173
185
182
194
206
214
223
218
226
224
135
168
185
197
203
204
212
202
199
202
201
199
190
191
191
187
187
179
175
168
159
161
154
150
149
145
148
144
140
136
128
130
127
124
124
117
118
117
119
120
116
125
126
127
134
134
146
147
153
165
166
178
180
190
207
209
223
223
221
229
140
165
192
197
203
207
204
205
197
197
198
188
183
178
187
188
176
173
170
174
172
164
167
163
167
170
168
172
164
160
156
150
154
147
141
137
129
134
132
132
135
135
138
134
137
139
139
149
147
154
166
170
183
186
200
212
216
231
226
229
147
167
191
200
206
212
204
199
194
194
194
180
176
178
182
187
181
179
178
181
186
182
187
188
186
187
181
185
183
178
179
171
169
162
156
153
144
147
144
142
148
144
147
146
144
149
143
148
150
150
165
165
174
188
198
217
221
231
233
231
147
175
189
203
205
207
207
196
191
185
180
176
169
178
186
190
191
186
191
188
192
201
193
197
199
199
199
189
192
188
183
183
172
171
167
160
157
146
146
144
143
147
143
148
149
148
153
148
153
154
161
172
172
192
199
209
233
232
237
238
150
181
192
201
207
206
207
196
186
180
173
172
171
178
187
190
197
193
197
204
203
206
199
204
212
206
206
201
199
198
188
187
183
181
176
164
163
152
145
148
145
148
143
143
147
146
154
152
156
164
160
172
178
190
207
218
241
243
241
243
152
173
194
198
204
207
201
193
178
175
173
176
186
184
190
197
195
202
200
204
205
203
210
206
210
211
203
208
200
201
196
186
189
181
179
171
157
157
149
148
144
139
144
141
143
142
139
147
150
160
168
170
186
195
213
235
241
249
247
247
150
173
196
199
201
209
203
191
179
177
186
187
193
191
191
197
193
197
199
199
207
205
209
206
202
208
201
206
204
195
195
184
182
175
167
165
152
154
151
143
143
138
142
140
135
139
136
144
150
156
172
176
190
208
225
242
245
250
252
248
145
177
191
202
206
209
206
191
183
182
186
190
185
185
184
189
195
191
197
198
201
207
201
204
201
200
198
188
191
181
172
171
159
154
143
137
139
131
134
132
129
132
127
133
133
132
139
140
149
155
164
179
184
212
233
239
249
249
252
251
134
170
189
199
205
207
208
196
189
187
189
195
191
189
190
188
194
193
196
196
192
203
198
193
190
178
176
160
152
148
128
122
109
99
98
91
99
100
99
104
102
110
114
121
129
128
135
134
141
151
152
173
189
211
237
244
252
254
254
253
131
159
185
193
203
206
202
198
187
190
191
189
193
187
188
191
192
195
193
194
189
184
184
171
160
147
127
114
97
87
78
72
72
71
73
74
78
87
88
93
96
94
104
108
116
124
123
133
139
147
156
161
189
211
232
249
247
252
254
254
129
155
185
197
199
207
202
197
189
187
190
183
184
186
189
193
189
194
194
185
179
163
150
130
109
105
101
97
87
79
84
87
89
91
94
96
87
86
90
95
105
102
102
103
108
121
121
130
141
148
163
165
187
211
226
245
250
253
254
254
122
155
179
196
200
203
204
196
193
188
185
185
180
184
187
191
193
190
187
172
155
136
112
99
101
118
133
124
122
133
124
109
102
99
104
114
107
90
101
110
107
111
109
114
115
117
124
124
139
153
160
176
184
208
229
238
252
253
254
254
110
148
176
196
203
201
202
193
190
190
186
190
183
184
189
184
185
180
166
145
118
104
98
105
132
167
185
161
143
151
141
116
93
82
95
118
119
97
105
129
121
113
111
118
125
123
133
135
143
159
164
180
188
205
230
240
251
254
254
254
103
128
172
193
203
204
197
202
196
191
190
187
190
187
188
189
183
166
134
118
109
95
101
125
162
195
206
174
133
129
132
115
85
67
83
119
128
110
112
136
134
113
110
111
125
134
134
148
154
164
173
177
194
206
230
248
249
253
254
254
103
120
165
194
202
206
199
202
199
194
195
189
191
189
186
184
161
130
110
112
112
100
117
152
176
199
213
184
129
112
124
121
100
88
105
131
126
111
121
143
148
119
104
104
116
145
151
158
165
170
182
182
198
214
226
244
251
254
252
252
97
120
158
193
202
202
205
199
200
196
191
193
187
189
185
167
133
106
118
122
122
128
133
154
176
197
223
216
157
115
121
130
131
130
132
130
118
114
137
153
146
129
111
113
117
139
176
177
181
186
184
195
197
216
232
240
252
248
250
253
97
112
151
192
205
202
206
202
199
193
187
192
187
188
179
144
122
119
132
141
147
161
161
161
175
197
218
224
191
140
121
123
123
129
131
115
112
129
146
148
134
127
117
117
122
131
176
198
201
201
190
202
210
220
235
238
249
252
252
252
93
100
147
189
207
208
202
206
198
192
192
189
188
179
159
134
128
140
143
158
172
179
188
180
182
188
196
204
193
173
142
125
126
128
130
127
137
158
154
147
143
137
145
141
146
162
180
207
209
206
208
206
219
223
232
244
243
250
250
250
90
92
141
193
208
207
204
208
201
195
195
188
183
167
150
147
145
155
161
169
186
189
197
196
189
190
189
189
191
192
192
188
184
181
179
180
175
177
175
167
171
168
175
179
183
197
193
197
204
206
218
212
217
228
231
244
248
251
248
246
87
85
129
195
210
201
205
200
203
200
194
192
179
170
160
158
165
164
181
188
192
202
200
207
202
196
192
181
186
189
190
194
189
193
186
179
181
174
179
177
175
180
174
185
191
191
201
199
206
215
218
225
220
233
239
239
246
242
247
248
86
86
129
193
214
205
208
204
203
201
193
197
191
185
176
167
181
190
201
211
208
213
210
211
211
196
193
189
185
182
173
174
170
169
172
169
177
175
176
181
176
184
185
184
191
192
199
200
210
223
218
227
224
224
238
238
247
247
245
247
89
87
134
187
208
206
201
206
201
199
198
193
195
185
183
187
196
213
216
219
220
214
217
209
209
206
194
198
193
194
195
184
185
184
186
188
182
189
184
187
193
191
199
193
193
196
195
209
217
225
228
221
229
228
234
243
238
245
245
246
100
102
140
190
208
210
204
206
202
201
211
204
201
194
195
209
213
221
223
225
232
227
230
229
226
232
226
223
219
216
221
215
213
209
199
198
190
194
198
196
205
200
198
199
199
210
208
217
228
227
230
221
227
233
228
240
240
244
248
244
112
127
150
194
210
207
208
201
206
211
216
220
204
205
213
217
229
222
220
226
235
245
238
240
241
240
244
237
236
227
216
216
206
210
211
206
207
198
201
202
202
208
202
210
214
216
227
226
233
232
224
230
226
234
232
228
240
241
248
249
151
166
174
196
211
206
208
205
208
216
218
223
216
220
227
226
235
231
232
239
239
247
243
240
240
238
244
237
232
230
220
223
220
219
223
219
221
211
205
210
203
209
216
221
230
227
236
237
235
236
225
233
233
228
234
233
244
247
244
248
208
198
198
202
208
210
205
213
214
221
226
219
226
228
232
238
235
241
239
241
245
243
247
244
246
249
243
245
239
238
237
230
234
231
235
234
223
223
210
208
211
214
234
235
237
242
237
241
233
228
228
224
233
227
233
244
238
245
243
244
