P2
60 28
255
167
94
68
64
56
49
46
45
49
60
84
122
140
145
149
138
117
99
95
98
99
99
99
103
105
101
102
105
103
95
84
77
72
71
74
74
77
76
71
69
77
94
106
112
118
122
130
135
141
147
148
157
158
155
157
155
160
161
158
157
175
121
88
66
55
52
48
50
53
74
104
132
147
147
145
128
111
106
106
104
98
102
109
113
120
120
125
133
137
143
135
119
103
91
84
78
75
74
69
69
72
77
90
100
108
112
120
127
131
142
147
148
147
145
153
155
157
158
151
143
219
161
89
53
54
55
49
43
47
83
128
147
155
153
134
119
117
121
116
108
118
123
126
135
137
142
146
146
146
145
148
143
138
135
128
122
112
103
95
83
79
78
80
90
98
110
115
123
132
134
141
146
149
152
151
151
149
149
148
137
213
151
83
55
57
55
49
48
66
100
135
151
155
143
122
121
123
119
120
120
127
127
129
136
131
134
134
129
134
135
140
136
128
129
127
128
124
118
121
117
110
98
86
86
92
107
115
116
127
131
133
141
147
154
149
147
147
144
149
136
211
146
80
56
53
51
42
42
71
117
145
153
153
137
119
113
110
110
120
130
129
131
133
136
137
131
132
134
140
144
140
138
137
137
139
133
126
122
124
125
119
121
117
109
106
106
116
119
124
132
131
139
148
152
154
147
150
153
150
138
214
160
93
57
48
48
48
57
85
127
151
156
147
127
125
124
118
119
121
130
135
133
130
128
133
131
129
133
136
141
138
138
139
133
133
130
129
127
123
124
124
125
125
120
118
111
112
119
119
124
130
140
148
146
152
153
154
154
143
131
218
160
98
60
47
47
47
65
100
137
156
151
143
128
116
117
120
126
129
129
132
126
126
125
124
131
131
134
136
133
133
129
127
123
117
118
116
116
117
117
124
124
122
124
124
122
111
109
115
116
124
129
137
147
152
158
156
146
136
130
222
186
129
73
46
45
50
66
108
146
158
150
139
122
110
114
123
131
133
124
120
120
117
117
118
127
127
121
119
113
105
100
101
99
93
93
90
91
97
99
110
119
121
124
125
128
124
113
109
110
120
129
139
153
152
155
152
144
146
143
230
204
155
90
47
45
53
72
113
153
160
150
132
115
116
125
131
123
121
123
116
118
119
116
113
110
109
101
94
90
89
96
95
96
99
95
93
85
84
86
90
104
114
121
127
125
125
120
112
110
109
122
131
139
149
147
148
144
141
146
231
228
180
97
46
42
54
77
122
156
153
139
115
109
129
134
129
123
115
113
112
115
115
106
98
86
82
85
82
82
79
78
82
84
88
90
98
105
100
94
87
86
95
105
119
122
119
123
119
114
111
117
123
129
141
139
129
127
127
128
239
238
187
102
59
66
57
68
139
190
172
123
108
127
137
129
117
114
111
110
114
109
103
93
83
82
77
75
76
82
95
100
97
89
84
82
82
97
108
109
106
95
85
88
99
111
114
117
118
116
112
102
105
120
115
90
68
90
121
121
229
222
202
151
103
79
40
52
131
167
135
89
106
149
141
124
120
114
109
107
107
101
86
81
80
75
71
82
111
148
163
133
94
84
86
83
87
89
89
96
110
112
100
91
86
95
108
113
117
118
114
108
102
81
52
67
100
119
132
125
230
233
227
178
100
37
27
81
139
157
135
112
133
156
140
121
121
117
109
105
101
89
76
76
75
67
85
125
160
165
132
92
82
87
81
84
96
95
100
114
116
115
111
104
99
97
104
110
115
118
115
106
73
46
80
119
132
134
136
140
231
240
237
187
91
22
32
94
145
158
134
119
141
152
133
123
120
116
109
104
97
88
81
71
68
81
112
148
166
149
112
89
95
90
63
60
77
93
102
125
146
129
107
106
112
110
108
111
111
117
120
102
68
68
105
122
127
132
128
133
224
236
232
183
117
63
54
103
149
150
130
117
137
151
140
132
124
117
110
102
98
90
85
78
81
101
129
153
165
147
102
83
99
134
143
116
102
100
94
117
159
155
123
99
104
124
122
113
112
117
121
98
81
85
102
125
129
133
136
130
228
233
226
178
112
57
56
107
147
146
130
122
138
149
139
131
124
118
113
105
103
99
93
95
101
109
132
158
174
158
106
81
91
107
98
71
80
92
87
112
162
178
155
133
116
107
111
113
115
111
108
87
67
86
107
124
133
136
142
136
234
232
215
173
111
57
58
104
137
144
129
120
132
143
142
135
129
121
116
113
104
97
93
104
118
123
131
159
205
214
147
84
80
84
83
90
96
92
87
110
171
202
186
170
137
122
131
123
113
101
103
94
76
90
116
124
128
131
136
139
233
229
207
177
127
66
56
98
128
135
126
116
129
143
139
134
134
137
128
117
105
102
115
135
174
211
203
177
167
166
133
87
81
88
94
97
91
91
91
99
111
99
106
98
102
165
201
194
176
160
132
89
70
94
126
130
132
138
136
142
230
227
213
205
163
72
42
91
125
136
139
121
121
143
142
133
141
157
155
133
107
110
147
166
188
204
200
182
160
163
126
97
107
108
111
114
113
112
110
106
106
99
102
92
121
179
201
199
171
176
136
62
73
109
124
136
137
138
142
139
229
225
223
219
176
91
75
130
152
142
143
132
127
145
148
129
116
116
126
127
119
127
125
133
142
156
167
146
171
170
123
111
115
121
123
127
128
121
117
108
104
104
98
113
122
131
143
106
119
142
102
69
81
120
126
131
139
141
146
140
226
223
225
226
195
129
109
139
155
155
147
143
136
140
151
141
129
121
134
156
146
139
147
155
169
197
190
145
153
154
120
118
122
120
124
123
125
116
106
104
105
113
115
117
116
113
117
111
123
115
69
73
104
122
132
130
140
144
141
147
228
226
213
196
162
121
121
147
156
156
147
140
137
134
139
144
139
131
141
161
146
135
156
167
188
218
188
135
117
125
122
122
127
124
124
120
113
112
112
117
119
117
114
105
104
120
137
143
126
95
80
96
118
123
130
133
139
145
139
143
233
227
171
106
76
85
126
155
159
154
152
145
139
133
133
142
140
137
142
152
142
127
141
152
175
208
195
146
118
121
129
125
126
130
127
125
121
122
120
116
118
116
112
105
111
135
148
134
106
91
96
109
123
129
130
138
138
139
139
134
240
198
141
117
93
94
131
157
159
151
150
145
139
136
129
133
136
129
140
153
142
137
146
156
172
204
198
142
119
121
124
126
129
135
132
130
128
123
123
118
116
113
112
120
131
137
130
111
102
99
111
125
125
129
129
135
138
134
136
131
231
178
133
122
105
97
129
156
158
158
148
144
141
136
131
126
134
140
146
154
145
139
134
132
164
204
189
133
115
125
125
129
130
130
130
125
131
129
125
121
115
115
120
127
131
126
110
95
99
114
123
127
124
124
129
125
132
136
132
133
228
165
120
119
107
105
139
159
151
149
145
146
142
132
133
126
125
133
142
152
144
136
130
120
155
194
169
133
121
125
127
130
131
127
131
132
131
129
120
115
118
125
130
128
125
98
70
81
103
124
133
126
122
120
124
125
128
134
130
133
241
187
119
107
103
110
142
160
154
146
146
141
137
135
131
135
131
127
130
135
152
152
136
127
155
178
151
125
124
124
128
128
131
133
127
128
125
121
119
122
129
129
126
119
96
82
84
102
120
129
132
121
116
116
117
123
125
130
132
128
244
200
130
108
99
104
139
156
154
145
143
139
132
133
130
133
132
132
135
131
133
140
148
161
162
159
150
134
134
130
128
129
126
129
125
125
120
113
121
122
125
125
122
124
114
108
107
114
130
133
130
122
113
116
118
122
124
123
133
129
