P2
60 28
255
139
160
187
197
205
209
210
217
213
219
221
219
227
220
216
207
198
201
198
200
195
189
194
191
181
168
157
152
144
139
134
125
124
116
114
113
111
121
121
131
142
146
154
150
160
167
164
177
176
185
196
194
208
212
225
232
220
227
224
230
140
164
178
195
199
208
209
207
214
212
218
221
215
212
202
204
202
198
203
195
189
184
177
165
146
137
132
128
127
123
126
122
116
118
110
108
108
107
115
116
126
136
137
147
151
159
164
167
176
177
189
197
199
214
222
233
230
223
232
225
137
162
177
198
207
210
212
204
210
212
215
217
207
205
203
203
199
192
197
191
185
177
158
148
141
136
130
119
119
117
116
117
109
112
111
109
111
104
108
111
119
129
128
140
147
150
158
158
170
177
185
196
193
210
221
225
233
225
232
231
133
159
183
197
211
210
207
208
205
211
206
202
200
196
202
196
187
182
177
178
167
156
152
145
144
136
132
134
127
127
124
123
123
120
122
118
117
121
119
122
126
127
130
132
144
143
145
157
159
174
178
185
200
202
216
221
227
238
231
236
135
156
185
200
213
213
207
208
203
208
205
195
196
190
193
189
178
176
167
163
160
157
161
156
160
162
157
160
155
147
144
144
144
138
135
131
129
135
135
135
136
134
141
138
142
146
143
155
158
164
174
178
194
199
211
221
225
238
234
238
141
165
184
204
208
211
206
198
203
202
199
190
183
188
186
181
172
167
175
171
173
173
173
182
179
183
183
179
179
168
167
167
161
160
150
148
148
144
146
145
150
151
146
149
145
151
153
150
158
159
170
179
182
202
207
223
235
232
240
238
143
171
186
204
207
205
203
199
202
198
192
182
174
181
183
180
177
174
185
187
190
196
195
202
200
200
200
192
194
187
182
181
172
170
161
156
156
148
151
151
153
157
148
152
155
155
161
152
155
161
171
184
185
204
212
222
242
241
245
246
150
176
195
199
206
203
201
200
194
192
182
173
174
179
188
188
191
193
192
203
202
205
212
210
216
210
208
208
199
201
191
185
187
176
175
167
159
154
145
151
148
148
151
147
157
157
158
163
156
165
170
178
194
199
220
235
243
250
244
248
156
179
199
199
209
209
202
200
188
181
174
169
176
183
197
200
196
203
202
211
215
211
219
217
221
220
215
217
209
207
201
193
197
189
182
172
157
156
149
151
151
144
150
147
149
153
152
162
163
169
174
177
198
205
225
245
246
252
251
251
160
180
191
205
206
208
203
190
183
173
174
173
176
192
195
204
206
204
212
208
214
217
217
222
213
217
216
210
213
202
202
199
192
192
179
173
164
154
156
148
146
146
144
149
142
142
145
149
164
166
179
189
196
221
234
244
250
250
253
250
162
186
192
203
207
205
198
182
178
174
176
187
189
196
196
198
206
203
207
208
211
218
208
209
208
205
206
197
199
192
183
183
170
165
158
151
152
145
144
141
140
145
140
142
139
138
144
142
157
167
173
190
197
222
242
246
251
251
253
252
163
184
198
199
206
204
192
179
171
181
186
194
197
193
199
199
201
204
201
209
205
204
206
195
192
181
174
171
158
152
141
135
129
115
114
111
113
121
119
125
126
127
133
132
141
138
138
146
147
162
169
181
204
220
241
251
251
254
253
253
170
187
200
201
206
207
192
181
177
189
195
191
194
191
195
197
195
201
194
193
197
188
186
169
157
146
125
119
105
92
86
76
75
72
76
82
83
92
89
94
103
103
120
123
129
138
136
145
146
153
165
173
203
222
238
250
250
254
254
254
170
190
195
204
204
205
197
182
184
185
190
192
192
198
194
199
201
196
195
184
179
168
149
135
114
104
95
84
76
70
74
74
74
76
74
79
83
87
97
96
100
99
98
112
116
127
134
136
147
152
162
176
191
221
238
246
252
252
254
254
168
192
197
204
208
207
201
186
189
193
195
198
192
195
194
194
197
190
185
169
149
133
111
101
97
98
104
88
80
89
95
95
95
101
103
96
89
89
106
108
106
110
101
105
114
122
133
133
145
155
162
177
186
213
236
245
254
254
254
254
166
186
197
199
207
203
197
192
186
191
185
184
190
188
195
195
190
183
165
147
123
110
102
99
118
136
124
111
139
145
118
103
96
99
118
120
100
99
114
120
115
114
118
114
120
124
129
136
142
162
169
178
198
208
233
250
251
254
254
254
159
183
200
200
205
204
194
193
189
189
186
183
189
188
192
190
182
173
144
119
106
96
99
121
160
181
151
143
181
171
121
92
75
80
116
132
110
106
131
144
130
115
122
125
129
134
134
144
150
163
176
179
199
213
233
250
250
254
254
254
154
178
188
200
200
203
201
196
195
189
190
189
187
194
187
182
168
142
124
109
101
89
104
151
193
206
183
156
148
148
130
99
73
82
119
138
120
111
140
151
138
121
114
127
133
143
145
147
166
166
175
187
197
220
232
243
251
249
252
253
146
177
188
201
203
201
198
189
193
192
189
192
188
192
189
177
156
123
110
106
96
101
133
174
203
223
211
153
122
134
134
116
98
110
136
137
117
119
150
160
143
121
102
118
135
148
164
162
175
181
183
197
204
224
236
240
250
250
251
251
142
170
191
195
204
204
203
201
193
196
191
189
191
186
185
165
133
112
110
117
107
118
154
182
206
231
229
176
129
125
136
138
140
143
140
127
124
143
162
167
146
124
117
117
138
160
178
185
178
192
192
197
214
221
237
246
248
253
250
251
139
167
191
197
204
204
202
205
197
197
195
188
191
187
177
149
118
115
120
131
141
143
157
179
206
233
243
217
167
134
132
135
138
139
132
130
141
162
168
159
146
131
132
129
130
151
187
214
207
206
207
204
221
227
235
246
245
251
249
249
127
155
182
203
201
202
202
199
199
193
192
189
187
189
162
131
118
125
141
148
168
174
173
184
196
213
224
219
196
166
146
134
137
142
139
156
175
177
173
158
155
148
143
153
148
165
199
213
222
215
214
215
217
231
232
241
248
244
246
248
112
148
179
200
201
201
206
199
198
193
192
193
186
178
144
125
134
139
157
170
182
195
193
195
196
200
206
206
207
208
205
202
200
201
200
197
200
195
196
191
187
192
188
198
202
205
214
210
218
220
217
225
224
237
245
243
246
243
247
250
108
139
179
198
208
205
205
207
195
194
193
189
182
158
141
136
149
162
166
182
188
200
212
208
211
203
199
198
197
208
208
210
214
207
209
204
201
202
195
199
196
197
203
201
210
209
210
214
211
221
222
224
231
228
241
244
243
247
243
248
106
134
180
199
206
208
204
206
199
195
192
186
180
158
154
161
164
179
184
197
206
206
217
216
214
208
198
200
196
192
190
185
185
181
188
191
183
191
191
195
199
194
202
202
204
211
206
212
216
225
229
222
232
230
232
241
240
249
252
252
104
127
171
203
203
204
204
204
206
197
194
188
177
176
166
172
185
195
211
212
214
216
215
220
214
215
211
204
205
192
191
190
188
198
193
197
196
189
200
198
204
207
205
210
204
207
209
209
224
225
227
229
227
236
230
237
246
241
248
248
96
123
168
205
206
202
206
204
206
201
197
197
188
185
180
188
206
211
221
222
220
223
218
221
221
220
223
216
221
222
218
221
214
214
207
197
203
199
206
210
209
214
209
214
213
210
220
222
233
233
227
235
231
234
235
235
246
244
246
250
91
109
168
205
211
205
204
208
201
203
202
202
199
187
197
207
215
223
221
230
232
235
241
239
245
245
244
244
233
230
222
217
218
209
212
208
206
210
203
213
214
213
219
216
222
222
228
239
232
234
228
227
235
228
238
243
244
248
242
247
