P2
60 28
255
131
138
141
142
140
139
144
146
148
158
167
167
167
168
170
175
176
170
163
155
145
131
118
107
98
91
78
68
63
56
55
63
63
71
92
112
125
129
132
134
127
122
131
141
148
158
169
179
180
174
174
180
188
196
206
207
203
197
192
193
147
153
153
157
159
154
152
155
157
159
162
163
168
176
178
179
180
177
177
179
181
177
164
148
138
126
114
103
92
82
75
70
69
75
85
99
117
125
128
126
122
125
130
141
152
155
159
167
173
177
179
186
195
199
198
196
193
190
194
198
142
145
146
148
154
157
158
159
160
163
158
159
167
176
182
183
182
184
183
177
176
176
170
160
149
140
139
141
138
132
121
104
87
83
87
94
107
121
128
126
120
120
132
145
148
149
154
162
170
176
179
187
192
191
191
192
195
195
192
196
150
148
148
151
153
158
159
163
167
168
167
161
162
166
171
176
178
181
183
177
175
174
169
162
160
157
151
149
146
144
139
129
122
119
112
96
93
107
115
118
119
121
130
137
141
146
153
160
167
173
181
188
191
195
199
198
197
196
188
194
144
146
146
144
146
149
149
150
153
156
157
157
156
154
156
159
159
161
161
159
156
155
154
150
145
137
136
140
146
148
141
140
139
138
133
126
118
116
121
119
116
118
127
138
145
147
153
162
171
177
180
182
186
194
201
200
197
192
193
199
138
137
140
140
140
140
136
134
132
131
130
127
126
126
123
121
120
121
125
126
125
121
120
121
120
120
125
129
128
131
137
142
143
142
142
137
131
126
120
115
114
118
123
135
146
148
151
158
169
177
180
185
190
195
198
194
192
195
195
196
126
124
124
119
117
113
110
102
94
91
86
79
74
76
77
75
76
82
93
105
110
112
116
115
111
109
110
113
116
119
126
134
135
136
141
144
142
138
136
129
123
120
121
127
138
147
152
157
164
172
176
180
184
182
187
190
193
200
198
194
111
103
98
89
86
83
77
68
61
60
55
49
43
40
44
43
47
49
54
67
82
98
111
117
124
129
126
120
114
112
116
123
131
136
142
144
143
141
133
127
128
124
119
124
136
152
156
158
164
167
172
175
181
186
178
183
195
199
197
191
96
88
82
78
67
53
48
48
59
73
71
57
43
35
36
38
43
42
41
48
50
57
66
78
97
114
131
137
131
120
112
112
117
125
132
138
142
139
133
130
129
128
126
125
129
140
148
153
160
165
170
174
176
180
179
181
186
187
189
190
83
86
76
62
45
43
55
78
117
142
124
75
45
52
56
49
45
43
41
39
41
43
43
46
56
80
105
121
130
131
127
122
116
119
124
129
129
128
134
133
129
128
127
125
127
133
141
148
154
164
168
170
170
170
177
181
186
188
185
186
89
77
47
34
35
59
102
144
174
166
117
63
48
61
64
56
49
44
44
51
53
55
52
45
62
82
86
98
114
124
135
135
126
120
118
119
122
125
129
132
130
131
128
125
130
132
136
143
148
159
163
164
169
168
172
173
174
178
181
187
64
43
39
47
69
109
149
172
183
162
96
62
68
65
76
100
87
68
77
81
75
70
65
51
70
129
139
105
95
104
116
126
132
127
122
123
124
124
127
135
136
133
132
133
129
129
134
142
150
156
164
168
168
169
172
175
176
177
180
185
38
43
56
74
99
135
168
176
178
149
82
65
76
50
83
183
194
130
157
196
123
71
67
52
70
136
189
182
138
106
96
106
118
125
129
133
134
130
130
133
132
130
133
131
126
127
134
140
146
152
162
166
167
175
174
174
178
177
182
177
49
61
79
106
123
146
168
179
184
142
84
67
69
41
69
177
155
65
87
115
95
72
61
55
69
137
196
210
198
160
118
101
102
109
114
125
143
145
134
131
137
139
133
127
123
124
134
138
143
158
163
164
167
165
168
170
177
183
182
184
72
78
97
127
145
162
171
178
187
150
86
60
68
58
41
51
65
75
73
62
60
63
67
60
74
142
192
197
196
189
168
140
111
97
100
112
131
141
136
133
136
135
129
124
121
122
130
138
145
158
162
163
165
165
170
170
174
184
183
185
86
97
116
147
157
161
174
184
188
164
97
58
66
73
61
50
73
90
80
72
69
71
67
55
85
159
200
197
188
196
202
183
145
114
105
109
119
128
131
131
130
131
130
124
119
127
136
147
156
158
168
169
170
172
169
171
171
178
186
184
106
108
123
154
161
158
175
183
191
196
143
75
61
71
66
60
62
63
65
70
73
72
62
69
122
177
193
185
178
179
158
127
109
110
116
116
113
116
129
132
125
122
121
123
123
132
142
146
154
155
164
170
165
170
164
165
174
179
185
180
110
107
112
124
133
153
177
191
202
211
191
121
67
63
69
67
66
67
71
75
77
70
58
89
152
186
175
162
154
135
114
106
108
112
118
110
106
115
126
126
121
121
120
123
127
131
145
148
147
164
167
169
167
161
166
171
181
185
181
186
134
117
112
113
119
132
154
184
200
207
220
192
118
71
64
68
68
71
75
75
68
56
76
117
139
139
126
118
112
108
105
102
104
99
100
103
107
118
121
119
113
114
122
125
131
134
142
154
157
167
167
163
167
171
179
183
183
181
176
181
174
134
115
116
126
130
139
158
177
196
203
213
195
136
90
71
70
77
79
79
86
101
113
116
112
114
116
118
118
112
110
107
110
113
112
114
110
114
122
120
117
114
118
126
130
139
142
152
163
164
171
169
171
175
174
182
184
184
184
182
170
133
117
117
120
124
130
136
147
153
156
167
166
151
128
108
117
132
130
126
128
127
125
122
122
128
129
123
122
118
117
120
118
119
118
117
116
113
116
116
112
114
119
127
133
147
158
156
164
169
168
168
171
178
177
183
192
190
188
184
160
132
125
128
125
123
125
128
132
132
133
141
140
137
136
137
135
133
139
144
143
145
143
140
140
139
140
137
135
138
135
133
130
125
125
119
119
121
119
120
118
121
123
128
145
154
160
161
164
174
175
176
175
173
178
180
188
189
187
193
162
147
147
148
144
137
133
135
129
122
126
132
135
133
138
146
148
152
155
155
155
156
154
151
150
149
149
145
137
137
135
129
128
128
126
119
119
122
120
120
121
123
127
132
145
153
160
168
167
171
172
174
178
174
177
183
187
193
187
191
167
149
152
154
151
149
147
144
131
125
135
141
141
144
148
152
158
165
170
168
166
165
163
160
149
145
144
145
145
139
131
125
122
121
123
124
119
122
126
118
120
125
129
135
142
154
160
165
168
168
173
173
174
178
175
178
183
190
195
194
163
158
155
156
153
147
150
157
155
152
155
157
158
159
157
164
172
169
165
167
170
165
165
165
156
156
152
141
139
135
130
128
122
121
125
128
124
120
119
118
126
130
132
145
152
156
163
163
167
167
170
176
176
179
178
184
189
184
190
193
158
154
155
155
154
150
157
167
163
163
163
161
158
161
169
169
167
171
174
174
174
173
169
165
161
156
151
142
136
133
127
128
126
128
133
126
123
118
114
119
124
134
140
145
154
160
166
166
165
170
173
173
171
178
186
181
183
186
185
191
148
152
153
153
156
157
161
165
163
164
157
154
160
163
165
166
169
171
173
180
179
176
175
173
166
150
144
147
139
130
127
130
135
133
132
128
117
115
119
124
132
140
145
148
154
159
163
164
163
168
172
171
175
179
184
184
185
192
188
189
149
151
151
151
154
164
159
157
160
159
163
162
159
160
162
170
173
175
177
177
180
175
168
164
156
155
153
149
147
142
143
142
140
135
130
128
118
114
124
135
142
143
149
152
153
161
164
164
167
173
180
178
181
186
186
191
190
192
190
184
