P2
60 28
255
112
109
107
106
101
95
89
85
86
89
93
95
93
87
84
84
80
73
79
98
121
131
126
119
109
97
91
93
97
107
124
126
109
93
96
117
160
182
159
174
193
142
118
133
127
121
115
105
97
85
72
75
78
72
73
75
80
88
96
99
106
104
99
100
100
96
90
85
88
88
83
77
73
74
73
73
77
80
87
91
96
102
105
108
109
120
136
135
137
162
184
166
121
101
104
102
101
101
95
93
98
103
109
110
108
103
99
103
104
109
112
102
86
84
84
82
89
91
95
93
95
98
101
101
103
101
98
93
85
77
70
69
75
87
96
98
100
101
101
103
105
112
118
121
119
135
161
149
137
136
146
140
118
117
118
115
113
114
116
113
112
115
115
121
122
119
114
105
101
92
86
86
85
84
89
86
90
99
99
105
93
98
102
96
95
95
90
82
72
72
79
91
99
96
96
97
95
99
101
103
108
112
120
129
132
148
160
154
138
127
128
123
120
120
119
117
112
117
115
107
108
108
112
120
121
123
122
118
114
102
88
75
75
84
91
93
92
100
104
106
82
89
95
99
96
91
78
66
72
88
100
99
97
99
96
94
95
98
104
106
109
115
121
120
125
134
132
129
124
119
118
115
116
118
116
118
114
114
118
114
110
107
104
101
104
106
104
105
104
102
96
75
64
79
89
96
96
96
105
109
77
86
90
95
89
73
68
78
94
97
99
101
96
95
94
96
98
98
103
105
103
107
109
107
108
110
113
113
108
104
97
96
97
99
101
104
109
111
110
109
111
113
106
102
101
97
95
94
95
99
99
87
64
65
83
92
96
94
99
107
81
78
83
80
67
66
86
100
98
99
97
93
91
91
96
95
97
97
96
95
91
92
93
96
99
101
105
103
101
98
90
86
84
81
83
82
85
95
101
106
108
109
110
109
104
96
91
89
92
95
101
102
83
73
84
88
89
90
90
99
91
84
80
64
68
85
94
98
99
97
95
92
93
95
92
90
84
80
76
79
86
88
97
100
101
105
101
98
93
95
97
93
90
87
84
82
78
78
82
89
99
102
103
105
103
98
91
86
85
86
93
98
89
69
67
76
78
79
86
85
99
91
70
67
84
93
92
95
97
94
92
90
90
89
83
77
77
82
89
90
95
95
95
98
96
100
100
97
98
96
96
93
91
90
86
87
84
82
79
78
87
92
96
99
100
100
96
91
86
84
88
92
90
84
83
84
84
92
101
102
92
94
71
72
85
88
88
88
90
90
90
90
86
80
71
73
84
87
91
94
92
92
91
92
91
94
99
97
96
93
86
89
89
86
83
81
86
86
82
76
75
84
92
93
94
94
93
90
87
84
83
88
86
82
88
90
93
105
115
119
123
115
86
82
86
84
84
85
85
87
85
83
78
67
71
85
94
90
83
84
84
86
86
83
81
77
74
68
64
67
66
66
67
70
79
81
81
77
76
80
80
81
84
88
89
90
91
90
91
91
88
89
84
78
85
88
95
106
112
120
254
212
109
69
91
89
84
82
79
75
77
74
68
71
85
93
86
82
78
75
76
74
71
58
45
40
41
55
61
56
58
53
47
50
65
80
80
77
77
80
83
85
88
89
93
95
94
95
93
91
89
86
83
76
77
85
91
104
112
118
158
121
80
84
99
97
91
84
78
75
75
71
70
74
80
85
83
77
68
58
54
53
53
47
41
45
46
43
40
38
40
45
46
49
70
93
94
85
77
72
72
77
86
93
97
104
108
107
103
96
94
86
76
75
74
81
94
105
116
120
68
60
66
101
112
103
99
92
86
80
75
70
65
67
69
68
62
54
51
50
50
59
68
67
57
53
55
45
31
31
38
50
49
53
85
110
108
94
86
83
79
76
78
93
106
112
117
112
104
98
95
89
79
74
72
75
94
104
113
124
148
119
89
97
113
112
107
102
95
88
79
70
66
60
59
56
50
46
46
54
65
84
105
105
81
59
54
51
48
48
51
52
52
69
104
119
112
101
95
93
84
79
79
85
104
117
118
112
103
98
94
88
77
69
65
68
88
104
111
122
110
76
68
101
119
118
115
112
103
97
87
76
72
63
57
54
54
61
62
67
79
95
110
113
98
74
58
57
58
56
54
56
73
103
113
106
92
82
77
75
78
82
92
102
111
114
110
107
101
99
93
81
71
64
54
57
78
103
112
116
113
76
65
97
113
118
118
115
113
107
98
89
82
76
68
73
79
79
78
78
83
92
104
112
115
106
88
72
67
67
72
82
100
105
95
85
81
81
83
87
98
105
109
114
113
108
103
99
98
94
89
81
69
62
54
63
79
96
114
119
115
84
66
97
114
118
121
117
115
109
104
101
93
96
95
91
90
83
82
82
82
86
86
92
101
105
104
98
93
91
92
94
91
88
88
91
97
95
95
96
97
104
106
108
106
103
98
92
88
89
84
78
67
52
53
66
86
99
112
117
117
88
68
91
118
122
121
122
120
118
111
105
102
100
101
100
96
86
79
82
81
81
84
88
90
91
95
95
93
92
91
95
98
101
108
105
101
94
84
89
97
102
105
104
105
100
96
93
87
87
91
80
53
35
47
66
86
107
113
118
118
87
67
92
117
120
116
120
119
117
110
101
100
100
102
106
106
100
92
89
88
85
88
87
87
90
88
89
84
79
85
94
103
101
95
92
84
85
88
95
102
101
104
104
103
100
96
91
85
82
78
63
40
31
51
75
91
108
114
115
119
93
66
87
111
119
119
118
120
115
110
105
102
101
101
105
106
103
103
99
96
94
95
93
85
88
89
89
90
88
93
96
98
97
87
87
89
93
100
98
98
101
104
108
106
100
94
89
84
74
65
49
30
38
59
84
101
108
117
116
119
104
70
80
108
117
119
114
118
117
111
107
100
101
103
102
103
104
104
105
106
107
108
108
105
102
103
104
105
104
97
97
97
94
92
95
102
105
106
107
108
109
109
109
104
98
94
89
87
81
65
46
35
49
73
91
108
114
117
116
113
105
76
69
100
114
114
116
114
118
115
111
108
101
100
99
100
101
101
103
104
106
105
106
109
108
106
103
102
101
98
98
99
101
108
110
111
108
104
111
112
107
104
103
102
96
90
87
86
78
59
45
50
65
86
99
110
120
121
123
116
111
81
61
89
112
113
116
113
114
117
116
114
107
102
100
97
97
96
100
101
99
100
99
100
101
99
101
101
99
101
105
113
115
113
111
113
115
115
116
115
110
108
103
98
94
91
91
84
70
53
45
59
79
94
104
108
115
119
121
114
112
92
69
80
107
115
114
113
111
113
114
114
114
107
104
102
96
95
96
99
99
99
101
101
101
102
104
107
108
111
114
113
110
105
107
112
117
118
116
116
112
107
105
101
96
92
88
79
61
50
54
74
92
99
107
110
113
120
117
112
116
108
84
79
102
118
114
109
111
116
117
110
111
108
106
107
102
101
99
99
102
102
104
106
106
105
106
110
110
110
112
109
108
110
113
118
119
120
119
114
109
106
104
98
94
92
83
70
58
51
66
86
98
102
103
112
114
117
117
112
112
112
96
84
92
106
112
111
115
115
115
114
107
108
108
107
107
107
109
107
105
108
109
107
107
107
107
107
111
112
113
116
115
115
116
118
119
117
117
114
109
105
98
94
91
86
76
58
52
60
79
95
99
104
107
113
118
113
114
112
111
117
114
93
82
94
109
111
114
117
115
113
106
104
104
103
107
108
107
110
110
109
108
112
113
112
115
116
116
113
111
116
117
121
124
118
119
116
113
111
106
104
97
91
88
81
71
59
57
67
84
100
100
101
108
110
116
114
113
