P2
60 28
255
224
224
219
225
221
221
226
223
225
219
218
222
218
224
219
217
216
210
218
216
215
216
210
212
203
199
199
192
195
185
180
181
176
178
172
170
172
165
168
164
163
168
167
178
182
186
199
202
213
222
227
240
246
250
253
253
254
254
254
254
211
217
214
218
220
216
223
219
219
219
216
221
218
218
218
213
221
217
217
220
215
217
211
210
208
199
205
197
193
193
183
186
179
176
175
168
172
167
167
167
159
166
165
169
176
177
191
199
210
219
224
238
240
245
249
248
252
254
254
254
208
207
214
213
216
219
218
223
218
217
216
214
218
215
221
223
221
228
224
224
222
218
222
214
211
205
198
201
193
195
191
183
183
174
176
174
168
173
166
167
168
164
168
165
173
178
178
194
203
213
224
229
239
244
248
252
252
254
254
254
208
203
211
211
208
215
212
218
216
214
219
214
220
224
229
237
230
232
230
225
224
216
220
215
205
207
198
200
196
190
193
182
182
177
171
175
167
171
170
163
167
162
164
166
169
179
178
189
200
207
217
221
234
241
243
251
252
253
254
254
199
204
204
210
204
205
212
212
220
217
221
227
225
235
235
236
234
223
225
221
218
218
209
210
203
199
199
190
193
190
187
185
175
175
170
168
171
166
169
167
165
168
162
165
169
174
183
187
201
207
212
225
229
241
250
250
253
252
253
254
194
204
202
204
206
203
213
213
219
229
227
234
232
234
237
230
229
218
215
214
203
205
196
195
192
179
184
179
179
183
178
183
174
170
171
165
170
165
164
167
161
165
161
162
170
171
180
185
196
207
212
224
229
238
249
247
251
252
252
252
198
198
202
193
200
208
210
222
225
234
235
227
231
226
227
222
213
215
207
207
204
196
198
187
186
179
171
174
166
169
171
168
173
166
167
167
162
167
163
165
164
159
167
167
173
177
177
190
196
205
214
218
232
239
245
249
247
252
252
252
194
188
193
196
200
212
216
228
233
233
231
221
225
222
217
219
212
217
217
214
214
201
200
195
187
187
174
174
169
161
166
160
165
162
157
164
158
164
166
160
164
159
168
170
171
183
182
189
195
204
218
223
233
240
241
246
244
248
250
247
185
188
183
196
204
216
225
222
228
224
223
226
224
232
229
227
228
222
224
219
215
211
201
202
194
192
192
180
180
169
162
161
152
159
155
153
160
154
159
157
155
164
163
172
180
184
190
189
199
207
216
227
229
238
243
244
247
245
250
248
181
186
185
195
204
208
217
212
214
220
222
230
229
233
237
231
233
230
231
230
222
221
211
206
205
196
198
189
183
178
166
164
152
148
148
143
153
150
149
152
153
161
158
168
186
190
194
192
200
210
215
228
230
235
243
241
246
247
247
249
183
179
186
189
198
202
201
213
219
228
232
232
234
230
233
232
231
233
230
234
228
221
218
205
204
200
192
192
182
177
170
160
159
149
149
147
143
149
143
147
153
154
168
176
194
207
202
205
203
210
222
228
237
236
240
244
240
245
245
248
181
177
187
191
190
196
198
213
220
221
228
227
231
230
225
226
224
226
226
219
217
211
206
200
190
188
180
176
170
162
162
154
154
152
145
149
144
147
147
143
152
154
168
183
199
218
216
209
205
211
226
228
234
237
236
241
236
242
248
244
178
185
182
185
183
193
206
209
217
220
224
229
224
224
216
213
213
211
212
203
198
194
187
186
176
168
165
157
156
150
150
153
146
149
146
147
153
148
151
152
155
164
171
194
217
228
227
215
214
216
224
232
230
236
238
236
241
241
248
248
175
180
176
179
185
192
207
209
213
218
215
217
214
208
206
200
196
190
181
173
162
159
156
153
149
142
144
142
139
139
133
136
133
133
138
139
149
149
152
158
156
172
184
204
230
237
235
218
214
221
221
231
232
233
238
236
242
240
241
246
177
170
176
180
188
195
201
208
208
209
207
199
192
182
180
174
162
152
137
129
121
115
118
112
112
112
109
115
114
121
123
115
115
111
117
123
127
140
139
147
158
166
194
212
231
244
233
222
215
222
227
224
233
234
236
239
238
244
241
243
172
165
172
179
185
196
197
198
197
193
186
170
158
147
131
122
113
104
97
88
86
84
85
87
86
86
84
89
98
107
111
104
106
104
98
103
102
114
123
125
140
149
177
205
226
239
226
218
220
223
229
225
230
233
233
242
238
242
246
241
163
167
168
181
187
189
188
180
179
173
157
137
120
105
89
84
83
81
78
71
71
72
76
84
85
82
79
82
104
116
119
119
109
108
100
96
103
99
107
109
114
128
152
199
230
232
224
216
226
229
226
233
229
235
238
237
242
236
243
246
160
168
172
177
180
177
173
161
148
141
127
105
87
73
71
75
79
82
78
70
66
67
76
91
98
91
83
90
114
134
132
127
121
117
113
105
108
106
108
113
114
140
175
213
231
222
220
216
222
230
227
232
230
232
238
232
238
239
240
246
163
165
172
167
165
161
152
140
124
109
94
82
70
65
71
77
82
82
76
70
66
71
88
103
106
95
83
98
127
145
146
139
131
118
113
114
116
127
135
152
169
186
219
233
231
222
214
223
225
229
232
226
233
233
235
234
231
241
242
246
166
165
167
159
146
139
127
116
105
94
88
81
72
71
74
82
87
84
82
81
81
88
99
108
106
91
83
105
135
145
147
139
135
130
127
138
143
162
180
192
213
224
233
232
222
220
217
222
225
225
233
228
229
232
229
234
231
238
246
243
163
163
151
139
128
117
107
100
95
93
101
100
89
75
75
87
88
89
91
94
100
102
104
106
99
88
92
116
139
147
149
151
152
160
161
169
183
188
202
213
219
224
221
219
213
215
224
223
227
225
225
231
227
233
234
233
240
237
242
243
160
154
136
121
109
98
94
91
94
106
118
126
120
94
79
83
87
91
91
94
97
100
102
101
99
99
116
135
151
157
151
158
164
171
179
180
189
194
202
211
211
216
211
211
218
217
225
225
226
227
220
226
227
228
232
231
239
242
242
245
159
139
121
103
92
88
89
93
102
118
132
141
137
119
98
84
82
84
88
93
97
101
105
110
121
133
140
151
154
156
155
153
163
163
169
178
186
200
203
209
210
208
215
213
216
222
222
229
225
225
224
218
225
225
228
233
233
242
241
243
149
129
109
93
87
93
95
104
114
120
130
137
145
145
127
111
103
101
104
107
114
121
131
137
141
148
146
147
150
149
152
150
157
164
169
187
193
203
209
206
212
213
218
219
217
224
221
228
229
223
225
220
224
227
227
236
237
243
244
240
137
121
100
99
105
113
122
122
118
117
121
129
143
154
147
134
123
118
122
128
133
141
145
145
139
140
146
141
146
146
146
153
157
176
191
200
206
203
210
211
214
221
218
222
221
222
230
226
229
226
220
222
220
227
231
234
241
239
244
243
133
114
107
117
131
137
143
136
127
124
122
130
140
143
137
129
125
121
126
133
134
141
137
132
133
135
146
144
144
148
148
164
179
193
206
203
207
209
213
219
220
227
224
219
220
217
227
228
225
224
215
219
217
221
233
234
240
239
238
243
144
136
143
148
154
158
152
144
135
137
139
142
151
150
141
130
127
131
127
127
131
133
142
139
142
146
144
152
151
160
178
186
200
203
208
210
209
214
213
222
229
226
228
220
218
224
225
228
219
217
219
215
221
222
229
238
237
243
241
244
166
168
177
170
164
167
157
154
150
147
152
153
156
156
149
148
146
147
142
137
143
143
148
148
142
146
146
159
173
180
197
200
206
211
210
217
216
220
227
229
231
223
224
223
218
226
226
226
219
211
216
212
215
222
226
239
237
241
248
244
