P2
60 28
255
113
116
114
120
127
134
135
132
134
143
149
145
139
133
123
109
101
91
79
73
73
71
60
51
49
50
59
81
105
121
133
137
139
146
143
137
138
145
156
164
163
164
170
181
189
195
200
198
197
200
203
208
209
208
209
208
205
205
212
214
122
123
125
127
136
148
155
158
157
157
162
168
171
171
168
160
149
138
123
106
97
95
93
85
73
67
64
60
64
78
94
105
116
131
135
135
141
142
141
141
148
152
158
174
184
189
190
189
189
191
196
202
206
207
206
207
205
204
207
209
134
142
143
142
142
148
150
155
170
178
174
175
180
182
182
182
183
182
174
161
148
135
127
122
111
100
91
76
67
73
81
87
103
120
134
141
139
140
137
135
141
148
151
161
176
188
192
190
190
191
195
200
204
208
208
204
203
205
205
209
154
157
154
153
154
157
161
164
165
166
171
180
184
186
187
185
183
179
179
177
169
159
151
146
140
131
121
113
102
91
88
89
91
105
129
143
146
141
131
127
134
147
157
164
168
174
184
187
188
193
197
202
202
198
198
199
199
200
204
212
149
151
154
159
162
162
166
169
167
162
164
173
182
186
189
187
185
183
182
181
170
164
161
159
157
153
153
151
144
127
109
101
102
107
117
128
140
144
141
132
132
146
157
160
167
173
179
186
189
196
200
202
204
202
202
203
201
199
206
214
150
145
146
154
160
159
159
164
161
160
162
160
164
172
170
171
180
180
172
171
171
166
160
153
152
155
157
154
146
139
137
134
128
120
115
121
129
133
134
134
136
143
149
151
159
168
176
183
187
192
195
198
204
206
205
207
201
200
212
218
143
144
145
146
146
148
146
148
156
154
148
144
147
150
152
156
154
154
157
153
152
152
150
146
144
145
149
153
152
150
148
146
146
142
134
131
131
133
131
128
131
140
149
155
157
165
178
183
187
193
197
198
201
207
206
204
201
203
213
217
139
138
138
136
132
128
125
125
124
120
115
112
112
109
106
100
103
111
113
118
122
124
126
125
125
130
137
140
139
144
151
151
149
150
146
136
134
133
133
134
134
138
146
154
158
161
168
178
185
188
193
198
203
207
206
202
204
204
209
214
129
122
115
113
108
100
94
86
81
79
75
67
59
60
59
60
70
73
82
95
104
116
123
122
118
117
118
118
125
132
137
145
151
151
151
151
145
140
136
132
129
131
139
149
161
168
174
180
187
192
193
196
197
198
201
201
204
207
205
207
105
93
89
88
81
72
65
58
56
59
63
57
48
47
44
42
44
44
53
62
71
87
98
110
120
124
124
120
116
118
124
131
140
147
151
153
149
143
140
134
131
132
138
145
150
160
170
178
183
188
194
193
192
192
195
202
206
207
205
205
97
90
84
71
53
47
49
61
82
115
132
100
62
48
49
48
46
49
46
45
49
52
59
68
87
112
128
135
135
125
118
121
126
133
144
149
146
143
141
141
140
135
134
139
145
157
165
169
179
185
187
195
195
191
193
197
199
201
204
206
81
83
73
45
31
48
86
131
168
191
164
93
58
62
62
56
53
47
44
53
57
53
48
45
57
78
100
122
131
136
139
132
124
120
123
131
138
142
141
138
137
139
137
136
142
149
159
169
176
179
180
186
187
186
192
198
201
201
202
204
76
65
40
33
54
96
146
180
202
192
135
75
57
66
71
69
62
51
47
58
63
63
58
49
71
111
116
107
111
123
133
139
134
126
124
123
126
132
136
138
135
136
139
137
141
148
155
163
171
183
184
181
187
188
188
189
191
194
198
201
51
43
46
64
96
136
172
192
206
179
107
74
75
65
76
133
143
93
113
128
90
79
74
60
73
135
174
153
123
110
113
128
136
135
131
128
128
132
136
139
139
138
138
138
140
146
152
157
165
172
174
174
179
185
187
187
187
193
195
196
47
48
64
93
124
156
182
198
199
170
109
77
82
55
78
179
211
148
145
189
139
83
74
60
71
141
202
218
190
143
118
116
123
129
134
144
147
141
136
139
144
143
141
140
137
142
151
154
160
169
174
176
177
183
184
186
187
185
192
192
58
72
95
123
148
163
177
195
196
166
105
71
74
47
68
145
131
63
53
79
83
77
75
63
72
137
197
215
212
193
159
128
115
114
121
133
146
147
138
139
145
143
139
135
136
139
143
152
162
168
172
179
180
183
187
186
189
189
189
189
77
90
109
144
160
171
187
188
196
178
114
72
71
75
58
51
76
86
81
72
68
72
70
66
87
154
207
212
210
208
201
192
155
119
113
123
143
150
148
148
145
140
139
137
130
134
148
155
161
171
173
171
176
180
185
188
194
200
196
192
94
112
131
168
176
180
196
195
202
189
132
79
67
77
70
59
67
77
78
77
77
80
74
66
104
176
211
207
208
205
186
159
134
125
131
134
131
134
137
138
139
138
133
128
129
138
143
155
169
174
177
177
180
178
179
186
188
196
195
192
114
117
131
160
176
178
189
203
210
220
187
105
67
73
79
75
65
63
68
72
78
81
69
79
143
200
207
200
191
176
149
121
123
133
139
139
125
125
142
146
141
136
136
135
133
142
155
161
168
172
178
185
182
181
178
180
186
188
194
194
124
122
121
129
147
161
176
199
207
221
224
174
107
71
69
75
78
76
76
79
80
68
70
118
179
198
183
168
151
136
124
118
118
114
110
105
113
129
137
133
127
130
130
132
138
142
155
164
169
174
175
180
179
176
175
176
187
191
192
194
150
131
122
125
130
144
171
192
214
222
228
231
182
113
79
70
67
70
73
74
73
81
110
149
156
144
140
132
127
124
120
117
117
112
115
118
120
127
132
131
124
123
127
129
136
142
152
163
167
178
180
174
176
175
185
194
195
198
192
196
196
162
127
126
133
143
153
166
196
207
212
227
225
196
142
95
86
92
94
96
110
122
132
133
128
134
135
136
135
133
130
124
123
123
126
129
121
122
128
128
126
127
133
134
138
147
152
163
173
178
180
174
180
184
188
196
189
190
191
194
192
154
124
125
134
141
145
152
156
168
178
181
188
184
174
156
148
155
154
147
143
141
137
136
138
145
147
138
136
133
133
138
136
135
133
130
127
125
127
126
126
124
124
133
139
148
157
163
177
180
179
180
179
189
192
193
194
189
194
195
186
152
131
131
130
128
134
141
146
149
147
151
154
150
149
147
147
147
151
157
159
157
152
152
154
155
156
152
149
148
147
148
144
140
140
134
127
129
131
127
124
125
128
135
143
150
164
172
178
178
177
181
181
185
191
196
201
197
196
199
183
164
156
153
147
141
139
140
138
130
130
143
147
143
148
157
161
167
173
174
171
172
173
167
165
161
162
164
157
155
153
149
143
140
139
134
130
131
130
127
126
130
132
137
154
168
173
177
179
183
182
184
188
186
193
199
198
201
200
201
175
162
162
163
160
155
151
147
137
131
139
144
149
153
156
162
171
178
180
182
181
174
172
168
163
162
159
157
152
148
147
143
133
124
128
135
132
133
132
130
129
128
135
145
157
167
169
175
180
183
188
185
187
188
190
198
197
200
200
198
175
166
161
163
162
160
162
161
153
149
159
163
159
164
167
172
179
178
177
179
180
179
179
178
167
164
167
162
159
150
146
143
136
132
139
144
136
127
126
126
128
133
140
148
157
168
173
173
183
185
184
190
186
186
189
194
201
200
204
205
171
161
162
164
157
154
164
170
168
166
164
169
173
171
173
177
176
175
178
181
180
180
182
181
175
167
165
159
151
147
142
142
138
138
141
137
136
131
123
125
129
137
144
154
162
163
171
175
176
180
178
182
188
188
187
189
197
197
200
208
