P2
60 28
255
158
143
127
121
123
131
134
132
133
133
134
133
135
142
144
141
137
136
141
149
154
158
164
167
171
182
189
192
196
196
200
203
204
204
203
205
206
208
207
205
211
217
221
218
217
221
221
224
225
225
221
216
214
207
198
195
209
235
250
253
164
143
129
122
119
121
118
116
113
113
118
122
128
133
135
135
133
137
142
145
147
152
157
156
155
162
173
182
185
188
191
187
188
190
193
200
201
197
192
191
197
202
208
212
214
220
222
223
225
225
221
212
204
197
184
191
215
237
250
249
137
125
114
106
98
88
84
85
90
97
101
106
111
112
112
113
114
114
115
119
124
129
132
136
141
146
155
162
166
170
168
168
170
173
177
176
176
173
173
176
177
185
189
195
205
209
217
220
220
219
211
199
186
175
173
198
232
245
247
244
122
117
105
94
87
82
81
79
78
80
82
84
85
84
86
89
93
96
98
101
106
112
114
118
128
137
146
151
151
152
155
155
155
159
159
154
155
159
161
166
174
183
189
195
203
206
210
215
211
207
199
189
173
155
173
213
239
247
247
244
125
119
112
104
93
85
77
75
74
76
80
79
75
72
76
80
79
81
82
82
88
95
102
110
121
136
146
146
142
142
148
149
147
147
144
141
140
147
156
165
172
179
190
198
202
204
200
200
198
193
185
171
156
155
182
218
237
246
245
241
133
128
127
120
108
98
90
85
82
79
80
79
75
72
70
67
61
59
60
63
71
77
91
107
116
125
128
128
135
141
140
133
130
128
125
129
133
139
151
163
177
186
192
198
197
198
194
188
185
180
172
154
144
167
198
221
235
237
236
234
127
126
121
116
111
104
96
87
81
77
73
70
69
67
68
69
65
63
62
63
69
80
84
92
103
107
109
110
113
115
111
113
119
122
125
131
135
146
167
175
178
187
188
185
183
182
181
172
168
166
154
143
147
178
203
214
231
235
234
230
118
121
119
112
107
104
99
88
82
80
77
76
76
74
69
62
59
60
59
61
60
63
68
71
79
83
87
89
89
94
104
113
112
110
117
122
142
172
183
179
172
170
173
176
174
166
164
163
157
152
142
144
165
186
206
217
226
231
229
226
112
117
122
120
118
118
117
117
113
108
103
94
92
90
78
66
61
63
62
59
59
54
55
58
61
66
68
66
65
71
82
85
91
98
101
109
130
158
168
165
156
145
153
158
151
149
146
142
141
140
143
156
182
201
216
228
228
228
225
219
123
130
135
131
127
126
124
127
128
123
120
114
106
101
91
80
75
74
75
73
67
62
61
62
59
59
57
55
57
62
69
66
65
73
73
77
89
108
136
148
144
134
132
133
128
129
133
132
135
136
150
173
193
212
223
233
237
236
236
224
144
147
148
149
148
144
140
143
148
148
145
140
128
119
112
102
93
84
86
86
82
79
71
68
66
63
64
62
64
68
69
68
66
73
76
79
86
95
117
140
142
123
111
117
120
122
130
133
140
151
166
190
204
217
230
241
249
245
239
231
152
157
159
161
166
166
164
160
154
151
148
145
140
132
125
118
113
110
105
98
90
86
83
81
79
74
76
79
81
85
79
80
90
92
97
100
99
102
111
132
134
114
110
116
123
127
136
147
150
163
185
206
220
227
239
246
250
252
249
247
165
157
152
154
157
158
156
159
157
150
143
141
140
135
127
118
108
100
89
76
67
64
70
73
76
77
74
79
82
87
93
98
111
112
113
117
115
118
122
126
126
124
130
128
129
138
155
174
178
185
200
215
229
237
245
252
253
254
254
252
164
160
154
151
142
139
141
141
140
132
127
123
116
105
91
79
66
53
44
39
43
46
55
70
77
82
84
85
87
85
92
102
110
122
126
126
126
126
135
135
134
141
146
146
141
153
172
185
198
205
217
229
233
243
251
253
254
254
254
252
147
145
140
139
132
124
119
112
101
87
74
68
62
54
49
48
52
51
46
42
43
55
58
63
72
82
91
93
97
98
98
104
108
117
122
124
127
129
137
140
144
154
158
161
162
165
176
188
205
215
221
230
235
245
250
252
254
251
246
246
101
99
92
84
76
66
77
92
79
61
60
64
65
58
52
57
69
70
65
58
57
73
87
80
73
73
84
95
100
109
111
114
120
120
126
130
131
136
140
150
159
163
168
170
175
174
180
194
204
216
224
229
238
244
250
253
253
253
248
243
63
73
73
64
46
48
94
136
106
66
73
85
85
65
53
65
76
81
81
70
70
93
116
116
97
79
74
82
88
99
113
119
128
131
136
141
141
149
152
160
172
174
179
182
186
183
178
193
205
214
221
224
236
243
245
248
248
251
251
248
68
84
105
101
64
51
86
114
96
75
75
74
68
61
60
71
80
85
84
72
73
107
135
133
121
107
87
79
84
87
102
113
118
133
143
153
157
156
161
164
174
182
184
191
194
194
192
194
204
211
217
222
228
239
242
245
248
248
246
244
85
116
143
136
94
58
60
80
82
76
71
67
62
65
70
76
90
93
84
68
76
117
137
128
116
105
95
85
89
89
83
91
100
113
130
151
167
163
167
172
179
185
185
192
197
197
196
192
202
212
216
223
225
231
235
235
241
241
240
243
107
118
132
140
118
87
80
83
83
84
81
78
79
79
81
82
85
83
73
74
91
112
116
109
105
102
100
97
93
99
93
88
93
93
112
138
155
166
170
178
179
180
190
195
201
198
195
198
201
211
215
219
223
226
234
235
238
238
237
243
128
129
136
138
132
123
113
107
96
96
103
105
106
106
103
99
97
103
106
111
118
117
118
114
116
122
118
119
115
110
107
99
102
103
110
128
147
168
176
180
182
180
191
198
200
200
196
198
202
208
215
216
222
227
230
237
237
240
242
239
154
154
156
158
154
150
145
144
142
142
141
138
147
150
143
137
136
144
147
138
139
143
144
145
140
140
134
131
135
130
131
134
132
137
132
139
155
167
183
185
184
187
191
201
203
202
199
195
198
203
209
213
217
225
228
231
232
235
236
234
181
186
182
177
173
164
157
158
164
172
173
169
166
168
170
164
162
163
165
165
159
158
156
157
156
150
148
139
144
147
146
153
154
160
161
159
163
167
179
186
184
189
193
200
204
203
202
195
199
201
196
206
215
223
228
225
228
228
230
232
197
201
201
198
193
181
175
179
183
183
179
175
172
177
181
175
171
171
173
176
174
171
169
168
167
158
154
156
153
159
162
167
175
176
181
177
172
178
182
190
193
191
191
194
203
205
200
196
195
201
201
208
222
225
231
230
227
226
224
227
207
205
203
203
201
198
194
199
203
199
198
192
190
188
189
191
185
185
180
177
179
176
180
180
176
169
160
166
166
167
175
175
182
185
187
188
184
185
186
191
196
190
188
191
200
203
195
194
193
197
207
210
221
227
228
233
229
232
233
229
211
203
198
208
217
220
216
209
210
212
215
211
205
203
199
199
198
196
194
188
191
193
190
192
187
181
175
172
176
175
181
186
185
187
184
184
189
188
192
197
198
191
184
192
195
194
192
191
198
198
208
217
222
228
227
232
237
237
236
223
204
205
206
212
216
218
220
216
212
213
215
215
212
209
205
202
206
202
198
199
196
196
190
188
187
182
184
180
179
182
183
186
183
182
184
190
197
192
196
198
194
192
188
191
190
186
192
194
200
204
208
222
220
216
220
221
230
232
229
224
205
206
211
210
213
215
215
215
214
214
210
207
206
202
204
203
202
200
196
199
197
197
196
186
186
185
184
188
185
187
188
189
190
184
189
198
200
197
195
202
200
193
194
189
189
185
185
196
195
200
205
211
216
212
220
227
230
228
220
222
