P2
60 28
255
201
204
209
208
211
212
209
213
215
216
219
219
220
219
220
222
214
209
204
201
198
190
188
180
173
169
161
161
155
150
152
149
153
155
157
161
159
162
163
169
178
181
185
190
195
200
206
219
227
233
243
246
250
253
253
254
253
253
252
251
202
210
209
213
217
216
216
222
228
226
229
234
232
233
234
230
225
218
214
210
204
197
189
187
177
170
168
156
155
152
148
150
148
152
153
153
156
155
157
160
168
178
183
190
194
201
212
218
225
232
240
249
252
254
254
254
254
254
254
253
203
205
206
213
221
224
230
234
237
236
236
240
244
245
244
238
233
229
224
217
209
205
196
190
184
175
174
164
158
152
148
153
148
148
149
146
154
157
158
161
162
170
177
186
197
204
212
220
226
235
243
250
254
254
254
254
254
254
254
252
201
201
212
218
225
232
233
239
242
244
245
246
247
246
243
237
232
227
222
216
209
198
194
190
187
179
168
165
158
153
149
142
145
143
144
147
147
153
153
153
158
165
175
181
189
198
212
221
225
234
242
249
254
254
254
254
254
254
254
254
208
209
217
225
232
239
243
245
244
243
240
234
230
229
226
219
212
205
199
195
190
184
183
179
176
175
167
165
161
155
151
143
147
147
145
148
145
148
150
150
157
162
170
178
185
195
208
219
227
235
244
250
254
254
254
254
254
254
254
254
214
223
226
233
239
241
241
236
228
219
211
204
198
199
194
189
186
176
175
172
170
170
165
165
160
155
157
150
154
155
149
152
147
144
142
141
144
143
149
151
154
162
167
174
182
195
208
215
225
234
241
250
253
254
254
254
254
254
254
254
227
234
237
237
232
226
217
206
198
192
188
191
191
194
197
195
199
196
192
192
186
184
176
169
161
152
148
140
141
142
140
147
144
144
144
139
142
142
147
151
153
161
166
173
181
189
201
210
222
233
243
252
254
254
254
254
254
254
254
254
230
232
225
212
200
190
185
187
193
202
207
210
214
218
219
219
218
213
208
204
199
193
191
185
174
164
155
151
138
133
133
129
136
138
140
140
136
142
143
146
150
154
164
171
178
189
198
209
219
231
242
248
254
254
254
254
254
254
254
254
217
207
196
183
176
182
194
210
224
229
226
221
219
221
221
219
215
211
208
202
195
190
184
176
172
167
155
152
147
137
133
126
127
130
132
138
136
139
141
143
154
157
164
173
179
187
196
207
214
225
241
250
253
254
254
254
254
254
254
254
191
184
177
183
192
202
212
220
225
223
219
217
217
216
215
211
205
199
193
189
188
181
171
166
156
150
150
144
143
138
132
131
121
123
125
127
136
134
137
143
148
158
164
172
178
182
193
201
211
223
236
247
252
254
254
254
254
254
254
254
174
179
188
201
208
208
208
211
213
217
212
206
207
202
195
189
187
182
176
172
171
167
159
151
147
141
140
133
131
131
123
126
123
120
124
124
131
130
132
142
147
158
165
172
180
185
194
203
211
224
236
247
253
254
254
254
254
254
254
254
188
195
200
203
203
201
202
200
198
196
192
188
180
171
163
156
153
148
145
146
145
143
141
134
132
130
125
126
120
116
116
113
114
110
113
117
119
128
129
137
149
158
167
171
179
187
194
206
216
226
239
249
253
254
254
254
254
254
254
254
194
194
194
195
192
188
184
178
172
164
159
154
147
142
134
126
120
117
115
115
117
112
111
114
113
114
110
112
112
108
109
103
106
104
101
111
116
126
135
142
151
157
166
175
185
194
196
206
217
227
241
248
252
254
254
254
254
254
254
254
186
184
183
179
171
162
153
147
141
135
129
120
112
106
95
88
84
79
77
75
74
79
81
85
88
90
94
93
97
98
96
97
94
95
95
98
106
116
131
141
150
163
172
184
191
197
205
208
218
229
239
250
253
254
254
254
254
254
254
254
179
175
163
148
136
126
122
119
111
98
85
79
74
71
72
69
68
66
59
59
62
69
70
68
71
70
73
78
84
90
88
89
87
85
88
86
93
103
125
145
152
166
177
189
201
207
211
213
221
235
242
249
254
254
254
254
254
254
254
254
149
143
128
110
99
93
93
89
83
78
72
67
66
65
68
71
69
62
60
62
64
72
77
75
74
72
75
86
93
97
97
87
82
77
78
79
78
93
113
140
164
172
183
192
204
214
216
220
225
234
242
247
252
254
254
254
254
254
254
254
111
99
87
81
78
79
78
78
85
89
83
73
68
72
71
70
71
69
66
69
77
83
86
84
79
80
89
104
115
116
115
106
92
83
76
78
72
73
95
132
165
177
191
200
208
219
218
223
231
235
242
246
250
254
254
254
254
254
254
254
92
83
74
74
74
76
78
87
106
115
104
86
78
75
74
75
74
73
72
73
81
89
89
85
81
87
106
127
135
131
126
117
103
95
88
84
80
71
86
120
158
186
191
202
213
217
225
228
235
238
239
245
250
254
254
254
254
254
254
254
95
87
83
80
78
76
81
96
113
127
121
100
86
78
77
77
78
78
77
80
83
88
88
80
80
97
124
138
134
129
123
112
101
94
92
85
90
93
105
133
160
186
196
205
213
216
226
231
235
241
240
245
252
253
254
254
254
254
254
254
108
102
103
104
104
101
99
103
114
123
121
107
90
81
76
73
76
79
81
83
83
84
82
80
88
104
119
125
120
115
109
104
102
97
98
98
103
122
133
151
173
180
192
205
214
222
229
239
236
238
242
244
252
254
254
254
254
254
254
254
133
130
134
135
130
132
130
124
122
120
117
110
95
84
79
80
84
86
87
87
88
86
87
94
103
111
113
113
114
112
114
113
113
115
116
124
130
145
160
170
181
184
199
213
221
230
234
241
242
240
245
249
252
254
254
254
254
254
254
254
163
162
160
158
154
151
145
139
136
130
122
115
108
105
101
99
100
100
101
100
102
104
104
110
113
115
120
119
121
122
127
132
132
140
143
143
153
159
169
175
178
190
199
215
229
239
246
244
243
243
246
253
252
253
254
254
254
254
254
254
183
175
171
173
171
162
152
147
145
142
134
127
120
120
119
116
119
118
118
120
116
116
118
125
127
124
129
128
129
134
133
139
145
151
153
151
162
171
176
183
186
199
212
224
237
240
247
249
246
245
247
252
253
253
254
254
254
254
254
254
194
185
181
180
176
167
160
158
152
146
142
136
136
133
131
130
126
125
123
123
120
118
125
127
128
129
133
144
143
146
151
148
154
154
156
162
167
176
178
184
196
207
224
234
240
244
245
248
244
244
249
252
253
254
254
254
254
254
254
254
205
198
193
190
182
175
170
167
162
157
155
149
145
142
139
136
131
133
132
127
128
128
133
138
138
143
144
152
156
151
157
155
159
165
167
177
177
180
187
195
210
222
235
246
246
247
249
249
246
243
249
253
254
254
254
254
254
254
254
254
215
211
202
194
185
182
176
166
162
158
154
152
148
148
146
142
140
135
141
142
142
146
144
155
158
157
162
156
156
156
159
169
170
177
177
179
184
186
198
209
221
234
243
250
251
251
251
249
245
245
250
254
254
254
254
254
254
254
254
254
229
224
215
204
199
192
185
175
166
159
154
157
158
162
162
156
157
154
158
164
163
166
161
161
164
158
163
159
156
165
168
180
186
185
189
189
196
203
209
224
235
246
253
253
253
251
251
251
248
247
249
252
254
254
254
254
254
254
254
254
245
240
231
224
219
210
203
198
187
182
179
176
185
186
183
179
175
178
172
169
166
161
163
163
165
165
164
171
173
182
187
187
195
194
197
203
211
224
232
243
251
252
253
252
251
248
247
250
247
248
250
250
253
254
254
254
254
254
254
254
