P2
60 28
255
97
94
98
97
91
95
92
85
78
72
71
68
69
72
74
78
80
80
82
85
85
80
79
82
85
87
83
83
76
65
64
63
62
62
64
70
72
71
71
71
71
72
75
78
77
76
75
80
86
87
92
92
96
100
97
99
99
97
98
99
99
97
96
99
96
90
84
77
76
71
67
67
69
74
76
79
81
81
84
92
106
105
92
92
95
100
101
93
87
79
78
76
73
73
73
78
84
81
74
67
67
69
71
77
78
76
76
78
84
86
88
92
93
96
97
98
100
95
96
96
99
98
98
99
94
87
82
78
75
73
70
73
78
83
82
80
88
92
94
110
121
115
104
99
113
134
128
103
89
88
87
88
91
90
91
90
91
89
78
67
57
60
70
76
77
75
76
76
78
86
85
87
91
96
97
96
100
98
93
94
99
100
102
100
93
82
78
80
76
73
73
76
86
87
87
95
106
110
102
102
110
119
120
111
112
115
109
96
89
89
86
87
91
92
94
92
91
94
94
96
89
80
84
83
81
79
74
77
78
81
86
85
88
91
94
98
96
99
98
95
100
100
100
95
86
83
78
71
68
72
80
82
85
77
75
96
103
100
103
99
100
115
125
119
126
143
128
99
89
89
90
90
90
90
90
93
93
90
93
95
101
104
99
91
91
93
84
75
76
79
81
82
86
89
92
98
96
94
95
94
100
103
99
93
87
82
74
66
71
77
82
83
72
64
69
81
91
95
97
94
92
106
122
123
131
152
134
98
91
93
93
95
91
87
88
92
93
90
90
94
99
104
106
107
103
92
72
64
70
74
79
82
84
88
90
91
96
95
95
93
99
101
96
88
83
75
73
72
76
83
84
74
63
73
87
88
92
95
95
91
90
103
115
120
134
143
125
103
95
95
95
98
96
92
90
88
88
91
92
90
90
94
96
99
103
100
83
67
64
71
73
76
81
83
87
87
84
78
75
79
104
101
97
87
78
74
73
78
78
84
89
83
81
83
87
88
88
89
90
94
96
104
116
120
121
125
114
99
95
94
93
92
94
94
92
89
87
85
84
83
83
85
88
91
97
100
99
88
74
75
78
75
77
76
67
53
41
38
50
66
101
100
96
85
78
78
80
83
77
68
77
83
82
80
81
86
86
86
90
94
98
106
116
112
94
87
90
88
85
81
82
81
81
81
81
82
81
82
82
80
82
82
78
81
86
91
93
94
91
87
82
78
76
60
37
38
47
57
70
72
99
97
90
84
80
81
84
80
64
58
76
87
82
84
84
81
81
84
89
86
88
95
98
91
79
75
72
69
70
68
65
64
61
60
61
64
67
70
76
78
80
81
77
80
84
85
89
90
92
89
79
75
68
44
39
64
75
72
78
80
98
94
88
82
79
81
83
67
52
65
80
84
83
82
83
79
77
79
79
77
72
71
72
73
78
77
77
75
74
76
73
69
67
64
64
65
64
64
64
68
72
76
78
78
80
80
79
82
85
92
88
72
60
45
46
63
71
75
81
86
99
93
87
82
80
82
79
67
64
76
81
81
80
77
78
76
72
69
66
65
67
69
73
77
82
83
79
78
76
75
67
61
64
67
69
72
71
68
67
65
63
66
73
77
76
75
76
81
85
88
87
77
61
40
40
59
69
81
86
86
100
93
87
84
82
85
81
75
77
80
79
79
79
76
72
68
59
56
62
68
74
73
72
73
71
61
53
52
52
49
44
40
43
54
60
63
64
68
68
67
68
67
68
70
72
72
75
80
83
85
88
85
72
57
54
63
69
78
84
84
96
94
91
90
84
88
91
78
77
80
79
79
77
74
65
55
52
56
63
65
69
71
63
52
43
38
38
45
52
51
45
40
41
55
69
72
65
59
60
64
71
77
75
73
73
73
74
77
84
86
89
90
79
73
71
67
70
75
83
87
95
92
90
85
86
96
96
82
76
77
78
78
75
65
56
51
56
62
64
65
60
52
42
35
29
38
62
70
63
60
54
46
42
59
95
105
88
73
65
63
67
77
83
83
81
78
75
77
82
88
89
90
86
78
69
61
65
74
79
84
94
87
84
78
83
108
107
85
77
77
78
76
68
58
54
55
58
61
58
53
49
46
39
33
30
33
41
44
40
42
45
42
42
62
95
107
99
88
75
66
63
64
74
86
88
82
78
80
80
78
83
92
92
80
63
53
56
69
75
81
76
63
60
52
53
71
79
76
75
75
75
68
59
54
54
59
59
54
46
48
59
63
50
40
36
35
40
41
40
42
45
45
47
72
100
106
98
87
75
66
64
62
64
74
84
89
86
83
80
80
82
83
78
81
75
57
53
63
75
78
59
42
46
48
57
70
71
71
74
73
72
65
57
58
59
57
52
48
54
62
74
76
59
41
36
40
41
41
40
40
42
45
56
84
102
95
85
74
72
71
67
65
64
70
80
86
87
83
82
83
84
77
73
108
112
66
54
64
72
75
50
37
43
43
44
50
60
67
68
70
66
61
59
56
55
52
50
52
57
68
81
87
77
56
45
43
43
42
42
44
45
52
66
80
85
80
74
71
71
72
72
73
74
80
85
86
87
83
80
80
84
96
104
110
107
96
82
66
69
76
79
70
64
63
64
68
71
70
66
64
62
60
59
55
55
57
58
61
65
70
74
80
82
74
59
48
46
47
47
54
61
69
76
76
77
76
76
78
79
81
83
84
84
83
85
88
85
83
81
78
83
114
131
100
94
132
114
70
65
70
96
89
84
81
79
78
73
71
70
68
64
59
57
57
57
63
68
69
69
67
71
73
73
74
70
65
63
65
68
70
75
78
79
81
79
80
78
78
82
81
79
82
84
82
83
87
87
85
86
81
89
115
108
74
79
97
75
61
67
67
100
96
94
94
86
75
72
73
75
71
65
64
63
66
66
67
69
67
69
70
70
70
72
76
76
73
74
78
80
78
78
79
79
78
77
77
76
73
73
75
75
73
73
76
78
85
91
91
91
86
80
80
77
69
75
82
71
63
68
74
97
96
94
93
89
74
68
74
78
77
72
71
70
73
74
71
73
72
69
69
67
69
70
71
74
70
70
73
72
74
75
76
77
75
75
75
75
74
75
77
75
72
72
75
81
86
90
92
90
88
83
81
75
60
53
55
63
70
72
75
100
96
97
96
93
81
70
74
80
81
79
79
83
81
78
78
77
75
71
70
71
69
71
69
70
71
70
73
73
75
75
75
76
76
79
78
75
74
74
75
74
72
76
82
87
87
89
94
91
89
87
81
79
68
61
62
62
69
74
78
105
102
96
91
92
91
75
68
78
82
84
83
86
84
80
81
76
73
75
75
79
78
77
78
78
82
83
82
80
79
84
84
82
80
76
76
75
75
78
78
78
79
83
87
88
92
93
91
91
90
88
82
73
65
60
60
64
72
76
76
103
102
95
96
100
96
82
72
77
84
87
92
89
86
83
79
76
73
76
80
80
82
81
81
82
87
89
83
81
82
81
84
83
79
74
73
75
75
79
80
80
83
85
86
90
91
89
88
88
86
84
80
69
66
66
64
72
75
75
77
100
99
99
100
97
90
87
75
70
79
86
89
89
87
84
73
72
76
78
83
81
79
80
81
84
86
87
86
82
79
78
81
79
76
77
78
79
79
78
80
81
85
86
87
90
88
88
85
81
81
78
73
65
63
68
71
75
77
78
83
104
102
103
100
96
94
92
85
68
68
80
86
93
91
88
82
76
81
83
81
80
78
80
79
81
83
82
84
82
80
80
80
80
79
78
78
77
78
78
81
86
89
92
91
90
91
88
87
86
86
81
67
63
62
63
67
72
76
74
78
