P2
60 28
255
230
232
229
226
228
224
226
223
219
221
214
219
220
215
219
212
214
216
215
219
214
216
213
206
207
199
199
195
187
185
176
176
176
173
175
172
175
176
172
175
171
178
184
183
192
196
205
216
223
234
238
245
251
252
254
254
254
254
254
254
230
229
227
221
221
221
221
222
212
216
217
218
223
217
219
216
215
220
216
221
219
216
217
207
207
202
199
200
189
190
185
181
185
175
178
177
174
177
169
169
169
170
178
178
188
195
200
213
216
227
235
239
246
249
252
252
252
254
254
254
223
220
218
218
215
220
219
220
219
212
218
218
219
222
218
222
219
222
228
222
224
219
217
215
207
210
204
200
201
195
195
187
184
184
174
179
177
171
172
167
170
170
171
179
179
188
196
204
217
221
233
238
241
248
247
251
254
254
253
253
213
213
210
216
214
215
218
215
220
215
218
222
219
226
224
226
230
225
231
226
224
224
217
219
209
205
205
197
200
195
193
189
181
185
178
179
178
168
172
168
167
168
166
176
175
181
191
196
210
217
228
236
237
245
249
251
253
253
253
254
206
209
211
209
214
212
218
219
216
220
217
223
229
230
237
232
230
227
226
226
217
219
215
208
209
201
201
201
197
198
189
187
186
177
181
177
177
176
171
173
167
167
170
167
176
180
186
196
200
214
220
228
237
242
250
252
252
253
253
254
203
203
207
201
208
209
212
220
214
222
225
226
234
232
233
225
214
212
199
197
194
190
193
184
184
183
180
188
186
189
185
180
182
172
176
176
171
176
171
173
167
162
168
168
175
179
184
196
201
208
213
220
234
240
247
251
249
252
252
252
202
201
203
205
201
209
211
218
227
229
236
231
224
220
208
203
190
184
185
177
181
177
172
171
161
164
160
163
171
169
177
173
171
174
168
174
172
171
176
170
169
166
167
172
171
180
185
190
201
206
216
223
233
244
243
247
250
249
250
247
198
202
197
203
202
210
220
222
232
230
225
216
203
203
194
193
195
193
199
193
191
192
183
183
173
170
168
158
160
151
152
161
159
168
166
166
169
164
172
166
163
167
166
173
172
177
186
189
201
206
214
225
230
240
243
245
248
246
249
246
192
195
195
196
208
214
224
227
224
219
207
205
206
210
219
214
218
217
212
217
208
205
203
198
199
193
195
185
171
166
150
150
152
149
160
159
164
166
163
168
161
165
172
172
181
180
186
195
200
211
217
225
233
237
245
244
246
247
244
247
188
188
195
196
210
217
217
212
200
208
215
219
227
224
224
222
221
223
217
218
215
210
211
206
204
200
198
196
184
178
168
154
149
141
149
154
152
160
156
160
163
163
171
173
181
185
186
196
199
209
217
223
234
236
242
244
241
246
241
242
190
183
189
204
204
208
201
201
213
218
225
225
227
227
224
228
224
221
220
219
219
209
208
205
199
202
198
192
187
176
172
162
157
154
143
147
148
149
154
151
159
162
166
180
188
194
192
193
203
209
221
226
231
240
238
243
244
242
247
241
185
188
188
198
193
191
199
214
226
220
217
216
214
220
217
214
218
213
210
207
204
201
193
192
186
184
182
172
172
165
161
163
157
156
149
146
147
141
147
148
154
162
165
185
199
204
200
197
204
209
221
229
227
237
235
235
242
239
244
243
181
187
190
185
189
194
211
221
217
213
207
207
205
206
207
198
197
193
183
176
168
170
164
159
163
161
163
159
153
154
148
152
153
149
154
150
152
151
144
151
153
161
175
188
209
214
211
205
203
217
224
231
232
230
238
232
235
242
240
247
181
180
182
175
187
199
206
218
213
206
197
191
190
184
178
165
151
147
136
125
123
118
116
115
120
126
128
135
134
136
136
133
141
139
146
151
151
156
152
155
158
162
184
198
218
228
220
214
208
219
226
225
230
229
233
234
235
243
240
243
184
176
171
180
186
199
202
207
211
197
183
169
158
141
127
115
99
95
93
88
91
88
85
88
88
94
94
102
114
114
119
117
116
124
127
139
145
149
157
155
167
175
189
215
226
234
226
212
216
220
225
227
230
236
231
237
240
239
244
239
176
172
168
182
188
190
191
193
197
185
159
137
115
94
82
78
81
83
85
86
86
88
90
92
90
84
82
93
116
121
116
115
108
111
109
114
127
130
145
150
160
181
197
219
233
237
229
213
215
222
225
227
225
232
230
234
242
237
242
242
166
164
174
182
189
185
180
174
165
152
129
103
79
68
80
96
99
93
89
88
90
92
96
108
110
91
83
102
130
144
135
132
121
107
109
103
112
120
118
135
146
164
191
213
237
238
225
219
218
224
224
225
228
230
240
237
239
243
240
246
166
166
177
179
184
184
169
149
128
106
89
74
65
70
100
126
119
101
89
78
75
82
95
113
118
102
84
97
130
152
155
146
138
119
111
107
103
110
108
118
123
131
169
206
232
231
218
221
219
223
224
221
231
232
234
237
235
242
241
245
163
164
169
172
166
162
148
126
101
85
84
77
73
82
108
126
119
107
91
77
76
81
98
118
123
111
87
91
130
158
159
148
139
130
116
115
108
108
119
115
121
138
175
219
227
223
219
220
226
223
228
227
223
231
230
235
237
239
245
243
159
163
159
157
147
132
118
100
89
94
103
101
83
78
97
111
113
107
95
80
71
75
94
120
130
117
92
91
132
163
164
154
139
135
123
117
122
123
141
148
157
184
209
230
225
218
220
219
224
224
225
229
224
231
231
230
239
240
248
247
158
158
148
131
121
105
91
86
93
111
128
119
89
81
89
102
113
109
98
82
76
84
105
127
133
120
96
97
134
164
164
158
148
135
131
124
136
157
172
196
205
218
233
227
222
218
219
222
218
225
222
224
228
225
233
233
236
242
240
245
161
150
135
113
96
86
85
100
119
133
147
136
100
83
89
101
109
111
108
102
100
107
120
131
131
112
90
106
143
166
169
162
159
151
153
163
171
189
202
214
222
227
228
218
214
214
218
225
219
220
219
219
230
226
229
236
235
242
238
241
158
145
122
102
87
86
102
124
138
152
159
150
126
95
90
98
106
113
112
114
118
122
128
128
123
106
100
127
158
169
175
175
176
178
177
188
196
202
212
215
220
219
214
214
211
218
221
221
223
216
219
221
219
228
227
236
242
239
242
239
143
129
106
96
90
97
118
135
146
157
168
168
148
112
92
91
98
107
110
112
115
120
123
123
124
127
140
159
174
172
172
180
179
184
185
189
199
199
207
212
212
212
208
212
214
217
224
222
223
217
215
220
221
228
228
234
242
237
242
242
133
109
93
96
108
116
125
136
143
150
159
167
164
143
113
98
98
101
105
107
113
124
131
139
151
156
162
169
171
170
163
166
170
168
180
187
199
207
206
211
213
214
214
213
219
219
223
225
219
222
217
217
222
223
236
237
237
241
238
243
117
99
104
113
120
123
123
132
137
142
150
157
169
167
145
126
119
120
125
132
139
145
155
164
169
167
160
161
159
161
162
160
169
174
189
200
203
212
209
211
215
216
221
217
219
222
222
227
218
216
215
212
222
226
233
238
234
240
238
242
125
123
131
137
131
136
138
132
132
135
141
151
164
168
158
144
138
141
145
151
160
161
158
156
151
152
150
153
159
149
151
160
174
194
201
208
209
210
215
212
220
223
220
219
214
220
223
220
221
213
216
216
216
228
231
239
241
239
245
244
146
157
160
158
152
151
147
141
139
139
144
151
155
153
140
134
137
137
145
146
148
147
138
143
142
147
153
149
154
154
163
181
189
203
209
210
213
211
217
219
221
225
216
217
215
219
226
217
217
212
211
215
213
225
231
235
243
244
248
249
