P2
60 28
255
162
181
198
201
209
204
204
210
209
216
215
210
209
202
205
202
196
195
190
188
181
172
167
156
148
140
134
132
126
126
123
120
121
115
115
112
112
116
114
123
128
133
139
139
149
153
156
166
167
178
183
188
201
203
217
221
223
232
226
231
165
179
200
205
210
209
204
210
209
210
209
202
203
201
201
197
189
188
184
180
173
164
158
147
141
138
131
132
128
126
124
121
126
119
116
118
116
120
118
123
129
129
138
138
143
150
148
158
162
171
181
183
197
199
211
226
223
233
232
232
169
188
196
208
207
207
205
203
207
204
202
197
192
196
193
191
184
175
176
168
164
162
154
155
150
148
148
145
147
139
137
136
131
133
128
128
129
126
132
132
134
138
136
143
141
144
151
151
161
162
172
183
186
202
208
220
229
227
237
235
169
192
200
210
209
205
203
201
205
201
193
190
187
192
187
182
180
170
171
169
166
168
166
171
170
169
170
163
162
160
157
157
150
151
147
144
145
139
142
143
142
145
140
144
147
146
154
151
158
167
168
182
185
200
212
219
236
233
237
241
175
191
204
204
208
204
200
201
195
194
186
182
187
186
188
182
175
179
175
177
175
178
186
183
185
183
183
186
178
180
176
171
171
161
161
155
149
150
145
149
148
147
154
149
153
152
151
158
155
164
172
177
193
198
216
227
230
240
236
243
182
190
204
206
206
202
196
199
193
187
181
177
184
185
186
187
182
187
185
190
196
194
201
199
200
197
191
197
191
189
187
180
184
175
170
166
156
157
150
150
153
147
151
150
153
156
152
159
157
163
173
177
196
204
220
237
237
246
244
243
181
196
199
207
203
202
196
187
188
180
176
176
178
189
188
190
191
191
199
197
201
206
204
213
206
206
208
201
207
200
197
196
187
190
178
170
165
154
156
149
146
149
147
151
147
149
154
154
165
167
175
187
192
214
223
235
248
245
250
247
182
196
200
208
205
198
195
184
182
177
177
183
183
191
191
193
200
197
205
207
206
212
209
216
215
209
213
208
211
208
201
202
194
192
184
174
169
156
157
155
148
149
143
145
146
146
154
153
162
169
174
191
198
219
234
240
250
251
252
251
183
196
206
202
204
198
189
183
175
179
180
182
192
190
194
194
196
202
200
208
208
210
217
212
219
212
209
215
209
210
203
198
198
183
181
174
164
162
150
148
144
143
148
139
142
141
141
152
155
167
176
186
208
219
236
249
249
253
250
251
188
195
206
204
201
195
185
184
179
183
188
186
192
191
195
198
194
202
202
206
213
211
219
213
213
216
207
209
203
199
197
184
181
171
164
162
150
150
142
141
142
135
141
136
135
142
142
153
156
164
175
183
208
223
236
248
248
252
254
254
188
198
200
205
199
195
187
181
185
184
191
193
188
194
193
195
196
196
206
203
209
214
209
215
206
202
196
186
187
175
168
160
146
147
137
135
136
127
131
127
131
131
125
134
131
133
139
140
153
157
167
186
201
225
236
244
252
252
254
253
186
200
201
205
201
195
191
183
189
191
189
191
185
190
191
191
198
193
202
204
204
209
201
200
192
179
176
158
150
140
126
125
116
118
113
106
113
108
113
114
112
120
118
125
128
129
140
140
151
159
165
185
198
221
238
243
252
254
254
253
188
195
202
202
202
194
188
191
188
192
190
189
189
184
193
193
194
201
197
201
199
195
190
174
164
150
135
127
115
106
101
97
92
92
97
96
97
101
102
108
108
109
117
116
123
128
133
143
146
160
171
180
199
213
233
246
247
253
252
253
189
193
202
203
202
199
191
192
189
188
189
185
189
187
190
195
193
200
195
191
188
173
163
147
135
126
114
110
107
102
97
91
90
90
94
99
93
96
99
105
111
109
116
118
122
129
129
143
151
160
175
181
200
212
228
246
247
252
253
253
186
199
199
203
198
197
193
189
192
186
185
186
186
192
189
195
197
192
192
179
167
153
135
128
121
118
116
114
116
112
104
96
92
94
100
100
97
100
108
109
112
113
110
122
124
130
140
142
157
163
175
188
196
218
230
240
250
248
252
254
179
197
198
203
201
196
195
189
193
191
185
187
184
192
193
193
196
185
175
160
142
131
121
125
134
137
135
128
123
120
110
95
88
92
104
109
110
109
117
120
113
116
113
121
131
134
146
151
164
173
177
192
198
218
236
240
249
251
252
253
174
189
201
199
201
198
192
192
190
195
190
186
193
190
193
190
181
170
151
137
123
115
119
135
155
164
153
137
127
120
112
100
92
98
109
113
114
119
123
130
123
114
118
118
132
143
151
169
170
181
187
191
209
214
233
246
244
249
247
250
177
188
199
201
201
199
192
195
192
193
193
186
193
192
189
183
165
150
134
121
116
118
130
150
170
182
170
146
133
124
117
110
106
110
119
123
120
128
137
137
130
113
116
119
131
154
164
179
184
188
200
197
213
222
231
243
242
249
250
250
169
187
193
201
200
203
203
196
198
194
192
191
188
191
179
163
145
130
129
122
124
133
142
162
178
188
183
161
139
128
123
121
122
123
123
123
124
132
144
140
134
125
117
131
139
156
180
187
200
200
202
210
210
226
233
240
248
243
248
250
160
184
194
203
203
201
203
197
198
195
194
196
188
184
170
148
138
133
139
142
144
153
157
169
185
194
192
177
153
139
132
128
130
134
132
133
141
146
152
149
139
140
136
144
155
167
193
201
208
209
206
217
217
228
239
237
244
244
247
248
156
178
198
199
203
202
199
200
193
197
197
191
188
172
156
142
138
144
146
160
167
169
177
179
187
192
193
186
169
160
150
148
150
148
151
154
159
166
161
162
160
159
166
164
180
191
195
208
208
213
214
214
226
224
235
244
239
243
241
246
155
176
197
201
202
205
200
200
195
194
193
186
179
163
152
148
146
159
164
173
183
183
191
190
188
193
190
189
183
179
176
172
175
175
177
179
175
181
179
177
181
176
186
190
194
204
203
211
213
214
222
215
223
228
230
241
239
246
248
246
149
179
194
205
204
202
202
198
201
195
192
188
174
167
156
157
166
170
183
186
195
202
197
202
194
192
193
186
189
185
184
184
180
186
183
186
188
183
190
184
187
193
193
202
201
205
208
207
219
217
220
225
221
233
230
234
241
237
246
244
143
177
192
202
202
202
206
201
202
198
192
191
177
173
170
170
183
187
199
205
205
212
207
208
205
196
198
189
190
189
185
191
188
192
192
189
196
190
195
197
194
206
205
208
212
208
214
213
220
225
221
228
222
228
235
231
242
242
246
247
140
171
199
200
205
204
201
205
198
200
199
192
192
180
184
190
197
208
208
217
218
216
222
215
215
208
204
208
200
202
199
198
203
198
202
201
198
206
202
207
209
209
215
209
215
213
213
224
222
229
226
221
229
225
232
235
234
242
238
245
135
166
198
203
205
208
203
206
202
202
204
195
196
192
198
207
208
220
221
224
229
223
228
224
225
226
218
223
219
219
220
215
219
214
214
218
209
212
211
211
219
216
222
220
219
226
224
233
232
227
229
221
228
229
230
240
236
244
245
241
127
168
192
208
204
204
209
205
210
208
208
208
203
211
211
218
225
222
231
232
236
238
232
238
236
239
240
233
236
229
227
228
222
227
222
221
222
213
217
216
219
224
222
230
227
229
236
232
233
225
224
226
221
233
231
235
243
238
245
241
128
167
190
205
207
204
209
207
217
217
212
216
212
221
227
227
233
229
238
243
241
246
243
247
246
243
247
242
244
242
237
240
232
234
234
227
230
222
222
224
221
230
228
235
239
234
241
235
232
229
221
228
226
232
239
234
243
243
246
246
