P2
60 28
255
95
91
93
93
92
91
89
85
81
80
79
75
70
70
71
70
72
79
79
78
79
76
74
68
64
64
63
64
62
62
64
60
62
65
67
67
65
67
68
70
69
69
75
78
75
74
78
85
86
87
90
88
92
92
91
94
92
95
98
99
92
89
93
94
89
90
86
79
77
73
68
66
69
72
74
78
80
82
84
84
86
86
87
85
79
77
75
75
76
75
75
72
71
70
68
71
72
70
73
70
71
71
72
77
75
75
76
79
82
84
88
91
93
94
90
91
90
88
92
91
96
94
93
94
91
88
84
77
73
67
63
67
70
74
77
79
83
84
88
90
92
95
94
90
85
87
90
88
88
87
86
85
81
79
78
77
78
77
77
76
74
76
74
77
78
74
75
76
81
81
82
87
88
92
92
93
94
90
91
91
96
93
94
95
96
86
77
75
73
72
70
74
80
82
83
81
84
88
87
90
91
94
95
92
96
98
97
96
94
93
90
90
89
88
89
87
86
83
80
81
78
76
76
76
77
77
79
79
79
85
85
86
89
89
92
92
95
94
88
87
93
92
98
96
89
82
76
77
74
71
72
77
85
86
86
87
87
92
90
92
94
92
94
93
95
98
97
99
97
96
95
94
95
92
90
91
85
84
83
82
81
78
78
76
74
75
76
80
78
80
83
83
88
89
90
94
93
91
90
90
99
98
99
95
85
82
78
71
69
71
77
81
84
86
85
85
85
88
92
91
93
93
94
97
96
99
101
100
99
97
99
98
97
96
93
91
89
87
85
85
82
80
80
80
78
78
77
78
81
82
84
83
85
89
88
93
91
91
95
88
99
99
95
92
84
78
74
69
71
75
80
83
82
84
85
84
84
84
91
91
89
94
97
100
100
99
100
100
101
99
95
97
96
94
93
92
91
91
91
87
84
83
78
78
77
75
76
75
76
76
79
87
86
89
91
92
95
89
93
95
97
97
95
88
83
76
72
70
73
80
82
83
82
81
84
81
82
86
86
89
93
95
95
96
99
97
96
98
96
95
95
96
96
94
92
90
89
88
86
84
82
81
82
81
80
78
78
76
74
79
80
83
87
85
90
92
93
96
94
95
97
96
94
88
80
76
75
78
80
81
80
78
78
77
82
86
85
87
87
89
93
94
95
92
89
89
89
89
89
90
89
86
89
88
86
88
86
86
86
84
82
80
80
80
79
79
75
77
78
78
80
80
85
86
87
90
90
96
96
96
97
96
94
87
75
73
78
82
79
77
83
81
78
81
80
84
87
85
87
84
86
89
87
83
79
80
78
77
76
73
72
69
69
71
69
72
77
80
81
81
81
79
78
77
77
76
76
78
78
78
79
79
81
83
85
88
89
89
93
91
94
94
89
83
78
77
80
79
80
77
78
82
79
81
81
82
85
83
83
79
73
74
71
68
68
70
72
66
64
68
65
60
57
59
60
61
63
61
65
74
79
81
80
79
79
79
77
75
75
77
78
79
80
81
83
86
89
88
89
89
95
92
87
80
79
79
80
80
78
80
80
79
79
78
80
81
81
76
69
64
61
64
69
73
80
85
84
78
73
75
73
69
65
61
65
65
66
66
63
64
66
71
78
79
80
77
75
76
76
79
80
80
79
77
81
82
83
88
88
90
93
89
85
78
78
79
79
80
78
78
81
78
79
79
79
78
67
62
62
63
66
69
75
78
81
84
82
79
74
70
67
60
60
63
66
68
66
69
70
66
64
62
67
73
76
74
72
73
77
81
82
80
79
77
78
80
80
86
88
90
93
90
86
83
80
82
81
80
80
80
82
80
78
76
71
65
59
60
66
69
72
73
71
72
71
64
51
45
42
39
37
33
36
46
56
60
61
63
67
67
71
71
67
68
67
69
69
68
72
76
81
83
81
79
77
81
80
80
86
85
93
94
92
89
85
80
79
80
84
82
80
82
81
74
64
58
61
64
65
65
71
72
62
52
41
35
46
45
40
48
44
34
27
38
64
77
71
58
57
63
68
77
80
77
74
70
68
68
74
80
83
85
82
78
74
75
83
83
86
88
96
93
89
87
87
84
83
81
79
80
79
78
72
61
55
58
65
66
67
67
62
52
40
32
29
31
38
37
35
39
42
40
31
45
85
107
101
83
66
58
58
67
77
83
87
78
71
71
73
79
82
84
85
78
74
75
79
80
83
88
97
94
89
88
88
86
83
83
81
80
79
75
69
61
61
63
64
65
61
54
49
43
38
34
31
29
31
37
37
33
35
37
38
55
90
109
102
88
73
62
55
52
57
65
78
82
77
79
75
74
81
84
88
82
76
77
77
79
82
84
95
91
88
84
82
86
84
83
84
80
76
70
64
64
62
61
59
54
46
45
57
60
48
37
35
36
34
34
35
33
36
38
42
61
81
86
77
70
64
56
57
57
54
58
65
76
81
79
78
77
82
87
87
82
77
75
75
79
83
79
99
96
90
89
88
86
85
84
86
83
71
65
64
63
60
54
51
47
46
53
60
64
56
44
37
35
38
38
39
44
47
51
57
64
68
68
69
69
72
72
74
79
73
71
74
77
82
78
74
76
81
87
87
83
76
73
79
78
80
79
98
95
93
90
92
89
86
86
82
74
66
67
65
60
58
55
58
61
63
63
61
62
62
60
61
58
60
64
63
66
66
68
71
72
73
69
70
74
74
77
80
85
85
80
78
78
78
76
73
81
86
88
88
81
76
73
75
78
77
79
97
94
92
88
88
87
83
80
76
73
71
70
67
63
62
65
67
68
68
70
71
71
73
74
73
69
69
75
75
75
72
68
73
74
70
72
71
72
73
76
80
80
80
79
77
76
76
80
79
80
88
86
82
76
72
77
77
75
74
73
95
91
91
91
89
88
86
81
78
73
72
70
68
73
71
73
76
74
72
70
72
72
71
72
69
67
68
71
72
73
76
72
70
71
70
72
73
73
74
71
70
69
67
67
70
76
79
82
87
88
91
87
77
76
74
74
75
71
70
68
98
96
94
92
88
85
83
79
76
72
73
79
80
82
84
83
81
77
77
76
73
75
72
73
75
72
76
77
78
78
78
79
78
77
74
70
70
69
69
67
63
64
63
66
72
77
84
86
90
89
86
86
80
74
71
71
73
69
69
71
99
97
93
89
89
88
90
88
84
85
86
86
85
84
83
81
81
78
79
83
80
80
81
81
84
86
87
85
84
83
82
81
79
73
66
63
63
64
67
72
65
64
69
73
80
81
82
87
86
91
90
84
80
74
74
73
70
71
70
75
100
94
94
93
94
93
89
88
88
90
91
88
87
86
84
79
77
78
78
81
84
82
82
81
82
83
82
84
80
76
77
76
76
71
66
68
67
69
71
70
69
70
77
79
81
84
83
88
87
86
88
80
76
75
73
73
71
73
72
73
97
96
95
94
90
90
89
91
94
91
92
89
86
86
81
78
79
79
80
79
81
79
75
77
78
79
78
75
76
74
74
75
74
72
69
70
68
69
73
71
76
79
76
81
82
82
83
83
87
85
82
79
76
78
73
71
71
71
75
72
99
98
96
95
91
92
96
94
97
93
89
92
92
90
87
87
88
83
83
81
79
78
74
76
78
76
79
77
77
76
74
76
74
76
73
71
74
72
77
82
83
87
82
84
85
82
82
81
82
80
76
79
75
74
72
71
75
72
74
78
100
101
98
94
94
93
95
97
94
94
92
92
91
88
90
89
90
89
84
85
84
85
88
85
85
85
85
86
83
81
76
73
76
77
78
75
73
78
83
89
89
89
88
84
86
84
83
83
78
80
80
78
79
74
72
71
72
74
72
78
