P2
60 28
255
140
134
133
137
142
142
141
146
146
144
145
142
143
147
146
146
149
155
156
160
172
177
177
170
169
175
170
158
149
153
156
153
154
163
179
190
187
191
204
218
225
225
231
229
231
236
239
239
233
236
243
246
251
252
253
252
251
252
252
252
129
129
127
124
124
124
122
121
118
125
139
147
147
145
146
146
142
138
132
131
136
138
133
131
143
150
146
142
140
142
148
154
156
160
172
180
176
178
192
203
202
202
216
225
228
234
236
239
237
236
243
245
246
246
246
249
248
246
244
242
143
135
126
120
111
103
105
108
111
111
115
121
117
112
107
107
113
111
110
116
123
126
121
119
122
126
127
127
127
128
131
142
146
153
161
166
177
182
189
196
201
204
204
213
221
225
232
234
235
235
235
238
237
241
244
245
247
240
239
239
147
136
118
104
95
92
93
93
93
93
94
97
92
87
81
78
82
85
84
81
85
91
94
104
118
131
137
140
142
131
124
126
126
140
156
162
174
186
194
199
202
207
206
209
216
218
224
227
228
233
232
232
230
232
241
242
245
241
236
237
138
123
110
102
100
98
90
87
85
80
79
81
84
82
77
75
75
77
74
75
78
78
84
94
105
115
119
126
134
139
140
138
140
152
169
175
174
182
190
198
205
205
205
204
207
212
215
219
223
226
225
222
222
225
234
241
242
243
240
236
115
106
103
98
96
94
91
92
91
88
86
86
84
79
75
72
71
76
79
77
74
71
70
74
87
100
105
116
131
143
155
161
166
171
174
179
184
188
191
195
200
196
195
196
197
202
198
203
218
218
221
219
220
229
232
238
239
238
239
234
108
109
111
107
100
94
96
97
93
87
82
80
75
73
72
70
67
65
72
77
73
69
68
67
63
66
79
93
115
137
150
159
164
171
175
183
190
184
176
177
184
190
187
190
192
191
198
203
211
211
212
214
213
223
226
227
237
240
239
234
116
120
118
111
110
112
111
106
98
91
90
88
83
76
71
69
72
69
66
69
73
74
67
69
73
68
69
74
81
100
123
143
158
168
173
171
173
168
162
167
169
177
172
169
181
180
186
200
202
206
211
217
215
217
226
226
233
239
238
236
106
103
101
103
113
121
124
126
122
114
108
105
103
99
92
88
83
79
72
71
78
87
93
86
80
77
71
67
63
70
83
91
104
114
125
134
142
158
159
160
163
164
162
153
162
173
176
188
192
198
208
212
223
225
231
238
239
245
242
236
103
104
109
114
119
122
122
126
136
144
144
136
131
125
122
124
121
115
109
102
97
94
99
107
109
105
96
91
87
85
83
79
83
90
93
105
126
147
156
155
157
153
151
151
154
168
176
181
187
188
201
213
224
233
236
243
243
246
248
244
109
112
118
127
136
142
144
141
147
157
167
176
176
171
170
173
169
161
157
150
141
134
125
126
130
135
133
124
119
114
108
103
97
100
100
105
118
131
145
153
156
152
142
148
153
161
170
169
177
186
198
215
224
236
243
245
252
254
254
253
133
141
144
148
159
167
176
180
181
184
183
186
188
191
196
197
195
191
187
186
183
179
170
159
157
154
150
145
142
144
142
139
131
127
127
119
117
120
129
144
146
146
145
146
154
159
167
172
179
192
203
223
234
239
249
251
252
254
254
254
152
150
155
162
167
173
180
187
193
201
205
202
203
205
207
207
205
204
200
196
190
185
182
174
169
166
163
164
162
164
161
155
152
144
144
144
139
135
132
137
144
146
152
149
151
159
167
182
188
197
210
221
236
245
250
254
254
254
254
254
161
163
166
172
175
180
181
181
187
196
202
202
207
211
210
209
206
204
199
190
189
184
177
174
168
168
167
167
168
164
165
163
159
156
155
159
156
153
150
145
148
149
150
153
152
159
170
183
193
199
210
223
235
245
249
253
254
254
253
253
179
188
191
189
186
187
192
194
195
191
188
188
194
203
205
201
198
194
193
187
181
175
168
169
163
156
151
150
157
159
160
164
162
163
162
163
164
160
161
156
155
158
157
159
160
163
173
183
196
207
219
230
235
244
252
253
254
254
254
250
184
192
191
191
191
189
191
190
192
195
189
186
184
183
185
178
172
163
155
150
141
131
121
115
113
111
115
119
123
132
136
144
149
150
158
161
163
162
159
160
157
159
161
161
166
167
172
180
187
204
214
224
233
241
250
252
254
253
253
254
176
178
178
177
179
179
179
182
177
174
172
166
160
148
136
125
106
83
62
50
44
41
46
50
57
65
76
94
99
101
103
109
123
129
141
150
154
160
156
158
162
163
168
169
172
174
175
185
191
200
211
216
229
238
245
251
251
252
253
254
171
170
168
164
161
162
157
150
144
134
123
108
87
65
50
39
36
42
46
47
50
48
48
48
54
67
75
86
100
106
113
113
112
115
117
130
139
144
152
154
162
167
172
179
179
181
182
183
189
196
208
217
224
235
236
243
245
245
247
249
158
153
147
143
136
126
114
93
76
64
51
42
41
46
54
61
76
103
134
135
117
97
76
61
61
90
112
104
97
102
110
122
127
132
133
137
145
146
155
161
167
176
181
186
188
190
194
188
189
193
201
214
220
228
231
236
244
243
245
246
138
127
115
101
88
73
59
55
66
71
61
50
57
83
111
156
187
206
230
197
145
123
102
80
71
101
157
173
145
119
110
110
111
119
134
139
149
163
172
179
177
182
191
193
198
197
197
193
189
194
199
209
217
218
227
231
240
243
243
250
112
96
92
81
63
49
48
74
114
130
99
61
81
144
155
147
152
132
116
102
104
114
107
94
83
111
170
202
196
176
154
133
123
112
111
117
128
155
183
199
197
198
203
197
200
205
202
197
189
191
198
202
213
216
223
231
234
243
243
245
92
87
83
64
42
50
90
136
166
164
118
74
94
136
138
115
99
74
57
64
86
104
107
101
92
120
181
211
204
201
200
197
191
168
131
119
116
122
155
179
194
205
207
202
198
205
203
196
193
187
190
196
203
212
215
229
235
235
241
240
83
80
65
48
54
87
135
166
182
185
138
93
97
113
115
107
96
73
60
64
85
104
105
99
92
132
198
215
199
198
201
206
216
216
186
161
149
119
120
151
179
204
207
201
197
202
207
198
192
188
189
196
194
205
217
227
238
235
241
244
76
66
52
60
86
113
147
171
191
199
167
107
83
99
111
106
95
85
79
85
88
99
107
92
94
156
214
209
187
166
145
143
148
153
153
140
139
138
134
153
175
196
201
193
198
200
203
202
192
190
188
193
201
209
225
228
235
240
241
250
68
60
66
81
104
127
153
180
202
215
204
144
89
89
107
104
94
94
90
95
101
103
95
86
114
171
194
178
159
150
147
144
150
149
154
158
161
173
170
171
177
186
199
196
194
193
193
202
195
186
188
192
205
210
221
231
230
238
242
247
68
73
88
97
105
126
154
183
203
225
239
208
134
90
93
99
101
100
100
100
104
101
97
117
145
161
157
157
162
160
164
161
165
177
175
181
187
188
191
187
188
186
192
201
194
190
191
192
191
182
188
194
201
216
219
222
221
227
240
237
79
88
100
115
125
131
147
169
191
215
238
245
213
144
101
94
98
99
101
104
114
130
145
160
164
162
163
164
177
182
180
183
179
188
192
196
207
206
205
198
193
189
190
202
193
185
190
187
184
180
185
193
193
208
213
214
229
235
243
241
106
116
125
128
135
143
157
163
172
183
194
216
238
237
195
139
117
124
135
154
166
178
180
180
187
182
187
189
189
198
196
199
205
206
213
214
217
217
207
201
192
192
196
194
193
189
191
186
176
178
177
186
196
199
211
214
227
238
239
243
