P2
60 28
255
124
116
112
111
110
113
122
126
131
135
137
139
137
143
147
146
141
135
132
126
120
114
102
95
90
88
88
84
81
81
84
89
94
107
123
142
159
160
162
166
167
168
167
174
192
211
222
220
220
220
211
207
197
190
185
180
200
228
245
253
122
117
115
116
120
120
121
123
119
125
130
128
133
135
137
138
135
136
132
131
127
118
110
99
90
85
82
80
76
76
78
81
84
90
104
116
125
130
129
140
153
162
168
174
197
216
215
212
206
201
193
188
185
175
176
185
213
240
246
251
125
127
129
125
121
119
117
113
109
117
127
132
136
134
132
133
131
130
130
130
131
128
124
114
101
93
90
88
83
80
81
78
79
84
88
92
91
93
92
99
118
130
144
156
175
195
198
193
186
179
176
169
170
174
178
205
232
245
252
250
129
134
130
125
121
117
113
109
114
122
129
134
136
139
137
136
137
136
139
139
142
145
144
146
138
128
118
108
101
94
91
89
86
88
85
85
84
79
83
88
93
99
102
118
141
175
191
180
171
163
165
169
171
179
190
218
239
247
254
253
128
130
130
129
130
129
127
125
128
134
140
146
152
156
154
148
150
154
158
163
161
164
167
169
175
175
167
152
139
130
121
117
114
110
109
103
100
97
95
99
99
105
110
121
141
163
181
172
158
164
168
174
179
189
213
229
242
253
253
254
134
137
144
148
154
151
148
145
143
149
150
157
170
176
179
174
174
176
176
186
189
191
191
188
194
193
187
183
172
166
156
146
138
128
130
127
124
127
123
125
122
126
133
129
141
155
163
162
156
169
180
192
202
208
228
240
246
253
253
254
144
143
150
160
169
174
165
163
166
169
169
168
177
189
195
200
198
199
199
199
204
206
209
207
203
205
199
194
191
181
176
169
166
164
156
155
150
148
150
148
155
158
161
161
156
163
161
162
171
177
199
214
224
234
238
246
250
252
252
250
143
140
143
157
168
177
179
178
182
181
188
194
194
204
209
216
216
212
216
211
211
209
204
208
204
207
206
200
199
191
190
185
176
174
163
160
155
152
162
162
167
171
171
178
175
178
179
176
184
190
207
223
230
237
235
242
248
245
248
242
149
153
157
164
173
178
183
184
191
199
200
209
212
217
223
221
224
222
222
224
218
218
210
202
204
203
205
202
198
194
184
179
167
154
151
144
149
153
158
170
171
177
184
185
188
184
189
192
193
204
209
224
232
231
234
233
238
238
236
235
175
176
176
174
180
182
187
195
202
214
215
215
217
217
221
217
215
219
218
220
213
209
208
199
197
194
190
186
175
171
161
144
132
124
125
128
140
156
162
171
173
181
187
186
191
193
198
206
206
212
212
218
227
222
225
225
226
232
224
224
180
182
188
192
191
194
194
203
208
211
220
218
220
219
211
211
207
208
209
203
203
196
193
188
175
166
154
144
136
127
127
125
127
129
129
138
142
151
161
162
172
177
182
187
189
202
207
213
221
220
222
215
217
220
215
223
222
223
227
220
174
183
186
196
193
196
204
206
214
210
207
209
207
204
195
191
189
185
185
177
168
158
147
133
118
103
92
87
92
104
118
129
135
143
146
151
152
151
160
161
168
175
174
184
194
206
213
218
227
223
220
217
211
215
210
213
219
216
219
213
171
184
189
195
202
199
206
210
208
207
196
193
186
177
168
154
150
139
127
114
98
91
89
90
86
83
79
73
74
79
88
105
117
129
143
147
158
161
163
168
169
180
186
192
205
212
221
224
226
226
217
215
208
204
209
210
219
219
217
220
182
185
189
186
195
199
201
203
196
190
176
166
157
141
129
113
92
76
64
69
84
96
116
132
133
126
112
99
82
73
83
96
106
111
121
131
143
158
161
173
179
184
198
198
205
214
217
222
219
221
216
207
205
198
208
212
211
218
214
215
192
189
191
194
193
197
192
188
178
160
152
139
126
114
100
86
77
69
62
86
123
144
160
166
154
130
114
109
98
88
103
131
139
123
110
114
121
138
154
161
176
184
195
204
206
214
212
215
220
215
214
203
202
204
203
213
211
215
218
208
195
191
191
195
190
186
176
160
147
130
122
122
115
97
74
71
92
93
81
107
148
156
148
142
117
94
98
106
105
100
115
153
167
152
130
115
108
110
127
136
151
167
178
194
197
201
204
205
214
210
205
201
195
204
204
207
216
213
219
212
197
192
189
187
187
173
155
133
114
106
104
98
81
64
67
97
132
128
94
96
123
127
117
105
91
87
99
110
108
103
119
150
158
152
142
128
121
114
114
127
133
150
168
181
197
193
196
200
204
207
196
198
200
202
215
212
221
224
219
221
196
193
191
182
175
152
128
110
97
94
84
74
74
79
100
125
146
145
122
116
122
124
120
114
113
110
114
119
114
115
125
138
143
138
139
139
136
138
135
148
154
159
174
179
192
194
193
198
193
195
192
191
202
210
222
222
219
227
221
222
203
195
186
175
155
133
112
106
99
87
89
97
113
130
141
153
157
157
157
158
160
158
160
162
159
156
149
149
150
147
151
152
153
156
154
159
158
163
173
176
186
184
184
190
190
195
191
191
195
190
194
194
204
214
217
227
224
224
227
222
203
193
178
167
141
123
118
118
117
112
128
145
161
182
183
188
189
186
193
188
181
182
181
185
184
185
183
178
180
174
177
179
173
176
171
176
180
180
191
191
196
196
189
197
194
195
193
187
195
190
192
200
201
215
219
223
227
221
223
222
199
189
172
154
146
140
142
142
146
159
161
175
187
198
209
205
206
211
212
211
204
207
209
207
206
203
204
200
196
196
190
193
193
192
194
187
192
194
193
197
191
195
197
195
198
192
193
188
187
197
195
205
212
214
224
224
227
223
221
224
194
178
169
159
165
161
161
167
166
177
179
185
200
205
215
212
215
227
228
229
222
222
226
219
222
217
214
215
206
208
205
203
205
198
201
199
196
198
192
193
190
193
200
194
195
190
186
189
187
199
201
204
217
215
222
225
220
223
219
223
196
182
179
179
175
181
174
175
180
177
186
189
197
206
209
216
216
223
227
222
227
226
224
222
215
219
215
215
215
210
215
208
205
206
201
206
200
194
195
193
200
198
199
197
187
188
184
190
199
199
209
208
212
219
219
228
224
223
225
221
196
191
185
188
184
183
178
177
183
178
185
190
191
203
201
208
214
213
219
216
220
220
217
221
214
215
215
211
218
216
215
213
208
211
206
208
209
202
207
204
204
204
198
199
186
182
188
190
204
206
211
213
210
219
218
223
228
221
229
223
192
192
194
193
193
182
184
185
184
190
186
195
196
199
210
206
213
214
215
221
215
220
220
218
220
212
216
220
220
224
219
217
214
212
213
207
212
214
214
216
206
205
200
193
193
184
192
198
201
212
209
215
214
214
223
218
223
223
222
227
194
194
199
188
188
181
182
191
187
194
195
198
205
201
210
211
211
217
214
221
222
220
223
218
223
222
223
229
226
231
227
222
222
213
214
210
210
221
218
222
215
205
202
188
191
193
192
201
200
211
213
207
215
213
218
218
215
223
219
220
202
198
193
190
184
193
193
196
203
201
210
207
209
216
215
219
212
216
225
223
227
224
226
230
230
239
238
235
231
226
229
223
220
218
211
215
217
225
231
225
225
211
198
194
192
200
196
201
209
204
210
208
209
213
209
216
214
215
219
214
198
198
190
196
193
200
204
205
216
213
217
218
213
223
219
220
222
221
227
225
228
230
230
238
235
237
238
230
230
223
220
221
216
220
216
219
227
225
229
220
213
210
198
200
196
200
207
202
209
207
208
212
207
212
208
208
214
211
218
214
