P2
60 28
255
226
226
233
212
145
64
27
29
32
31
22
19
27
40
62
97
126
132
135
128
108
88
78
82
88
86
81
83
82
73
70
68
61
54
52
56
57
53
52
56
65
80
93
102
110
115
118
119
125
134
141
148
148
149
148
151
160
164
165
157
226
224
231
205
114
46
38
37
33
28
25
26
28
45
81
117
136
136
130
111
88
82
85
86
82
78
80
78
71
62
52
47
46
48
53
57
59
57
53
51
53
65
77
89
98
105
113
115
121
133
139
143
147
147
145
149
155
152
151
147
225
230
230
180
99
66
52
37
29
26
26
28
36
64
103
126
133
134
119
96
83
81
81
79
82
86
93
97
92
96
95
83
74
61
54
51
52
53
55
55
53
59
70
78
86
93
100
109
115
126
132
134
138
138
142
142
144
149
145
139
225
231
232
214
164
97
43
28
30
25
24
26
45
83
120
136
135
129
109
93
92
89
83
81
90
101
108
113
115
127
142
144
138
123
106
88
75
66
59
56
55
52
58
67
76
87
94
105
112
119
126
128
133
133
137
145
142
141
139
127
229
227
234
229
176
88
38
32
35
30
20
24
57
101
129
139
139
118
100
103
105
97
98
109
114
119
127
128
128
129
136
138
136
132
121
118
114
102
92
81
70
65
62
61
64
77
92
96
102
110
118
125
131
139
141
138
135
135
139
128
229
227
232
223
173
90
40
32
32
26
17
34
77
118
135
140
129
109
107
106
103
107
113
119
121
124
128
130
138
140
138
141
135
130
124
119
118
110
107
104
99
90
80
77
79
85
97
101
103
113
118
120
127
136
137
134
135
136
138
129
227
228
225
227
185
103
46
31
29
23
19
42
87
125
143
140
124
108
97
95
101
110
121
119
122
122
118
120
115
117
120
122
124
117
115
113
109
110
106
105
103
97
96
92
94
96
101
108
108
113
113
117
128
128
132
136
139
144
136
121
227
230
230
227
186
117
58
29
24
26
31
56
104
133
139
135
118
111
112
111
106
107
116
116
117
122
120
118
114
115
121
120
119
120
119
114
104
106
104
100
103
104
107
104
102
103
99
103
105
110
114
112
122
130
136
144
146
143
130
121
228
226
231
228
207
144
66
29
26
28
36
64
115
144
139
127
115
106
106
109
112
115
116
119
116
109
107
111
114
114
116
112
105
101
94
91
86
82
86
85
88
94
96
105
110
107
102
97
97
101
104
111
122
133
136
141
145
139
134
131
228
224
230
230
220
186
116
47
21
31
42
75
126
148
140
128
116
105
104
112
120
123
118
112
107
103
100
102
103
98
90
82
73
69
74
73
73
71
68
68
70
79
88
97
104
106
106
100
95
95
100
108
114
123
133
138
140
136
134
134
226
230
229
228
231
215
137
46
20
26
37
75
126
147
140
129
110
98
108
120
118
112
110
108
104
98
92
85
73
71
70
68
64
65
74
79
78
78
82
85
79
71
68
76
91
102
107
108
98
94
95
99
108
114
125
130
128
128
125
127
226
228
228
232
236
218
157
82
34
19
40
90
132
144
135
111
95
105
119
118
112
107
106
101
94
89
74
65
64
60
62
60
59
66
69
65
60
61
69
84
95
91
81
70
72
86
94
104
106
99
93
89
96
103
113
119
118
124
124
120
228
226
229
225
227
228
198
120
46
19
37
92
137
144
124
101
107
122
117
108
103
99
96
95
86
72
64
61
54
49
67
108
136
111
76
65
63
63
66
69
75
87
96
92
72
67
80
93
103
105
99
93
90
92
98
96
79
68
95
115
228
226
229
226
227
234
221
156
81
46
41
106
187
171
109
96
123
129
114
105
96
90
87
85
72
59
60
51
50
81
128
156
129
77
66
70
64
71
80
78
84
96
97
98
96
81
78
85
97
106
105
99
94
84
56
36
54
83
102
106
225
227
223
228
228
233
226
166
81
20
24
91
138
110
76
105
142
133
112
104
99
92
87
74
63
54
50
54
77
117
145
139
96
72
76
71
56
53
73
80
87
125
130
99
89
94
94
93
96
103
105
103
90
50
29
62
102
113
114
118
226
229
224
226
227
232
234
166
53
5
44
111
147
133
117
133
140
127
112
103
102
95
85
74
67
61
57
72
105
138
165
147
94
63
76
152
184
139
108
79
74
121
153
128
93
89
99
104
105
105
114
113
81
42
53
89
101
112
118
120
225
226
229
223
229
235
220
168
76
17
50
116
144
123
108
132
137
123
115
106
108
110
99
87
76
74
90
123
168
216
231
184
116
72
69
75
57
59
72
66
71
115
161
162
150
125
98
121
163
177
177
153
84
48
68
90
105
113
123
126
227
221
228
227
230
234
213
170
105
39
50
112
130
115
111
129
137
126
117
112
123
152
153
113
76
76
129
179
183
208
222
219
185
98
64
66
68
77
81
75
84
115
152
155
152
112
95
157
192
219
211
151
77
50
75
97
110
115
122
127
225
228
224
228
229
231
220
183
119
46
48
105
127
115
110
122
129
126
120
116
103
102
100
92
95
88
105
105
114
139
144
178
162
95
62
71
84
84
81
82
80
86
75
74
90
68
90
106
120
137
108
109
85
54
81
105
111
123
124
128
225
227
225
229
230
226
224
221
167
58
37
91
117
116
109
117
126
127
119
113
108
94
107
130
124
125
125
140
181
176
166
175
155
109
85
96
103
107
108
107
103
92
90
86
87
106
104
106
99
64
78
93
63
62
93
115
116
125
128
128
225
224
229
223
226
225
224
230
187
91
65
111
131
129
113
113
130
131
120
107
103
101
124
152
133
129
136
161
204
199
170
146
116
94
98
110
115
115
111
100
95
91
88
92
96
104
99
94
80
67
94
96
59
68
97
107
119
121
127
128
227
223
229
225
225
226
222
227
211
141
107
135
145
138
121
111
130
139
126
114
106
110
130
142
131
125
142
162
196
215
167
111
97
103
106
105
107
104
99
94
90
91
95
103
102
93
91
88
74
81
90
69
60
88
107
109
121
124
125
126
224
228
223
228
227
228
216
170
130
108
116
136
141
138
130
121
123
135
137
127
118
115
131
148
133
120
144
162
190
195
134
100
104
107
112
109
107
106
99
99
99
100
105
99
93
85
92
105
107
106
81
56
78
105
107
111
116
124
123
123
221
227
225
227
231
220
163
93
66
78
122
152
150
141
134
125
120
130
139
133
122
110
127
144
124
117
116
135
183
167
120
109
111
112
113
118
116
117
114
109
106
104
106
95
87
97
115
129
123
98
70
73
97
106
104
112
117
122
121
117
224
221
228
227
232
200
137
104
85
86
124
149
143
140
136
130
126
123
130
131
126
112
124
149
133
110
90
104
141
132
115
112
109
113
117
119
121
117
117
114
112
110
100
94
100
117
134
135
115
88
82
97
106
106
105
109
114
115
118
115
228
223
226
230
228
182
126
107
87
92
131
153
144
137
133
127
125
117
116
123
125
127
136
147
138
119
111
102
105
110
110
115
116
120
125
124
121
120
121
118
110
104
99
107
124
134
130
108
89
88
93
106
111
106
105
106
113
117
118
119
223
223
222
231
236
197
128
99
89
96
134
149
141
133
130
130
124
118
114
121
126
128
139
141
134
124
110
105
105
108
114
114
116
115
117
119
119
120
117
110
98
100
114
121
126
123
108
81
64
83
105
113
108
100
104
107
108
116
117
117
223
227
225
229
237
212
140
93
80
94
136
150
140
134
133
129
122
121
120
117
120
122
130
132
126
122
112
108
106
108
115
117
120
118
118
119
113
112
109
102
106
116
127
125
115
98
67
50
65
95
116
112
100
95
99
106
106
110
113
117
