P2
60 28
255
111
109
104
105
110
119
123
118
118
123
125
120
108
96
85
74
65
61
54
50
52
48
46
50
53
60
74
95
117
129
135
137
141
147
151
155
161
170
173
171
170
170
172
176
186
195
199
204
205
203
204
209
215
212
210
209
208
210
214
216
127
128
126
127
134
141
145
143
140
139
143
147
148
144
138
128
113
96
82
73
67
62
55
49
48
50
55
71
95
117
131
133
136
144
151
151
148
154
162
163
165
166
168
173
177
185
193
198
197
194
197
206
211
211
209
209
212
213
212
213
125
129
131
133
135
141
148
155
159
161
165
162
160
163
166
168
162
146
131
117
101
89
81
72
66
58
57
58
60
82
106
118
128
131
135
139
139
144
146
149
155
157
161
167
175
184
192
196
193
193
198
205
209
212
212
210
210
209
210
215
149
154
155
152
151
151
150
149
154
161
164
163
168
173
175
177
175
172
168
164
152
132
116
110
106
94
81
74
68
62
68
82
88
101
119
131
134
138
146
143
138
145
150
159
171
176
183
192
191
189
195
198
203
208
208
207
207
207
205
208
150
152
152
151
149
150
154
156
155
151
150
155
161
166
166
165
169
173
170
168
167
162
155
142
135
127
119
109
95
84
78
77
81
90
106
123
129
132
139
138
132
133
141
152
161
170
180
189
189
190
194
198
203
206
210
210
208
207
208
206
143
143
141
140
145
148
148
151
154
149
146
148
152
154
154
154
156
157
155
151
157
157
148
143
141
139
138
140
143
134
119
106
93
93
102
115
127
135
139
132
126
134
146
156
162
167
173
179
187
194
196
199
206
209
207
206
204
202
204
207
142
141
135
130
132
134
128
125
126
126
127
123
118
119
121
119
119
122
127
132
133
135
139
140
140
141
143
144
145
146
141
127
119
119
114
112
118
126
129
130
131
135
144
149
153
160
169
176
186
195
198
203
204
209
213
208
210
207
205
211
123
118
112
111
108
101
94
87
85
85
82
76
68
66
60
52
56
56
61
71
81
88
96
104
110
115
123
131
137
141
140
140
143
143
136
127
124
124
126
128
125
131
141
147
157
166
173
184
189
192
198
203
209
215
215
215
216
211
208
215
111
104
85
73
66
58
50
49
56
60
70
79
73
54
39
38
32
29
37
40
46
63
73
81
94
101
107
110
116
124
131
139
140
143
145
143
141
136
131
133
137
134
137
145
155
165
174
184
188
194
200
201
205
213
217
217
217
216
214
217
87
81
76
61
48
45
51
69
95
127
161
163
122
73
52
50
48
47
45
46
46
48
56
60
74
95
110
119
115
115
121
127
136
143
146
147
144
141
137
132
130
131
134
143
153
163
172
178
186
192
196
202
207
212
215
216
213
214
218
218
78
79
62
40
40
52
85
133
168
195
198
149
87
58
58
53
51
53
51
52
53
55
50
47
61
79
95
111
123
125
121
121
122
127
137
142
147
149
144
140
140
140
140
144
152
162
175
178
183
190
193
202
205
205
208
210
215
217
218
216
60
57
49
52
66
94
144
182
203
205
179
116
62
61
74
74
64
56
52
51
56
63
62
60
79
109
116
108
114
128
133
132
128
124
126
134
141
142
145
145
140
137
140
143
149
160
171
182
184
189
196
196
202
204
204
210
216
217
215
217
47
50
58
71
93
131
168
190
204
202
157
95
70
72
79
97
94
72
69
76
74
73
70
59
67
122
166
145
119
117
124
133
137
137
132
129
132
135
142
146
144
140
141
142
147
157
164
171
178
186
195
197
201
201
200
206
210
214
214
213
57
57
74
97
125
153
178
201
202
192
147
89
78
73
74
147
212
154
130
175
144
94
84
72
68
114
184
208
178
136
113
116
135
144
141
141
137
135
142
146
146
145
146
147
146
150
159
167
176
183
191
196
191
194
199
203
208
208
210
209
69
76
93
117
146
164
179
198
200
190
144
90
83
67
66
146
192
108
69
105
103
88
79
72
72
111
175
214
218
192
144
120
124
131
139
147
153
150
147
151
152
150
151
151
150
153
156
164
174
181
183
190
193
193
197
201
200
201
207
212
74
91
111
149
173
172
184
189
200
194
139
85
68
76
64
56
66
67
71
65
60
69
82
82
82
126
186
208
210
210
188
158
138
121
119
138
160
165
154
150
155
157
155
150
147
152
161
169
172
178
184
186
192
191
190
194
198
202
203
204
93
115
139
179
197
186
189
192
199
192
147
97
75
77
75
63
63
86
95
85
76
77
83
75
83
139
196
206
205
210
215
205
175
141
122
129
149
164
161
155
157
159
158
153
146
147
152
163
169
176
185
185
190
192
191
197
197
197
197
199
109
118
134
158
175
179
187
201
203
208
190
119
73
77
77
69
69
67
69
74
82
88
86
83
109
170
208
210
204
209
204
166
142
144
147
150
146
145
157
160
157
157
157
153
144
144
151
156
167
177
180
182
185
191
193
198
202
201
205
204
120
125
126
133
146
164
181
197
203
216
217
168
106
76
75
76
75
73
78
81
82
81
73
85
140
196
212
202
185
174
157
146
146
146
156
153
137
137
149
155
157
152
146
145
143
144
153
158
169
181
182
187
189
191
193
189
196
203
204
207
158
142
132
135
137
147
168
188
210
221
226
220
173
109
74
75
79
80
78
80
84
75
83
132
179
196
186
168
153
142
135
139
141
130
123
118
123
139
154
156
149
149
150
147
147
151
155
169
179
185
188
189
197
194
193
194
195
202
200
203
184
164
135
132
141
152
162
179
203
212
219
231
224
190
136
94
78
75
78
85
90
99
128
157
162
149
137
136
137
132
126
121
128
131
130
133
132
139
153
152
142
138
145
146
142
148
157
170
177
177
183
185
192
195
190
190
189
199
202
199
192
169
138
134
140
149
157
162
169
191
207
213
227
224
201
172
147
135
131
132
141
147
146
143
139
141
145
146
146
142
139
138
137
140
139
138
137
134
139
144
143
139
139
146
146
153
161
162
173
179
182
187
187
192
187
189
200
203
206
202
188
160
136
135
137
139
147
154
161
166
165
169
176
173
173
176
173
170
166
158
154
155
153
149
153
157
158
152
147
145
142
148
152
153
152
144
139
138
141
144
141
140
136
140
145
147
162
168
174
183
188
194
186
186
195
200
207
201
199
202
180
166
155
150
147
141
142
145
148
148
147
157
159
154
154
161
163
159
162
168
171
174
173
167
163
161
164
168
162
163
167
168
167
162
158
151
145
146
145
142
140
142
140
133
141
152
158
169
175
186
189
188
196
196
199
200
199
201
197
200
179
169
162
161
160
157
147
144
142
133
135
142
149
153
155
165
172
176
180
181
179
181
177
172
172
171
170
171
174
173
168
164
164
158
153
152
146
143
143
141
143
141
138
140
148
160
165
173
179
184
194
192
195
198
200
206
205
209
210
205
178
166
162
163
162
163
161
158
153
144
147
153
158
164
169
175
183
185
186
188
188
186
184
180
171
169
174
174
172
174
174
167
156
151
148
150
148
144
145
145
143
143
141
147
153
165
180
182
186
189
194
200
198
201
201
203
207
209
211
205
174
169
165
167
167
161
164
171
173
168
165
170
171
173
177
177
179
183
184
184
182
182
183
182
180
178
179
173
171
173
164
159
156
151
149
151
150
145
143
141
140
145
145
148
159
168
179
183
188
195
196
201
199
201
203
201
207
207
209
211
161
160
166
166
164
162
164
172
173
171
171
168
171
171
172
179
182
183
185
188
190
191
193
191
191
188
184
181
170
164
163
159
157
154
153
155
151
150
149
146
145
145
150
151
157
167
177
187
190
196
197
198
205
199
195
198
204
214
213
212
