P2
60 28
255
99
96
93
92
95
92
92
89
82
79
74
70
69
67
69
74
77
79
80
84
86
100
117
114
104
90
80
76
80
84
79
76
75
72
70
67
68
79
84
80
71
67
69
72
76
77
75
75
76
81
82
86
92
93
96
93
93
98
97
96
98
93
94
94
92
92
88
84
78
72
71
67
68
72
75
78
80
86
97
106
113
127
155
174
155
113
89
88
88
85
85
81
80
82
82
83
83
87
90
87
77
64
63
70
78
80
76
77
78
79
84
86
90
93
92
95
93
96
99
93
101
100
95
96
94
92
89
82
78
76
75
71
72
81
83
82
87
116
136
123
115
121
134
147
140
114
101
95
88
83
86
85
82
84
84
88
91
92
96
97
112
132
121
100
93
90
87
80
78
76
80
84
84
90
92
92
95
97
99
94
98
100
97
98
96
88
84
81
80
75
68
74
78
82
84
71
82
130
147
121
119
121
113
124
133
132
125
104
91
89
86
87
87
88
88
87
90
91
86
84
115
167
184
168
130
97
97
93
80
75
75
80
83
86
89
91
96
97
95
97
98
95
97
98
96
87
81
79
72
71
74
79
85
81
72
73
98
141
150
120
108
109
106
110
114
114
109
101
95
92
91
91
92
89
89
87
86
89
87
85
95
107
119
130
130
116
98
84
72
71
75
78
81
82
86
89
94
96
91
93
98
95
98
100
92
88
81
74
71
72
79
85
87
80
81
94
106
116
117
104
96
104
118
119
125
145
136
111
100
97
97
95
94
93
91
89
88
89
87
85
89
93
94
95
104
109
104
96
79
65
71
77
81
83
81
86
88
88
84
81
99
97
100
101
92
83
74
70
73
73
83
98
98
91
89
93
96
98
99
94
91
100
117
120
131
149
138
112
96
95
96
95
94
95
93
91
89
87
88
86
87
91
91
92
96
96
98
100
92
80
78
79
77
80
81
76
68
54
40
42
101
99
97
94
87
79
77
74
76
80
75
77
86
87
82
83
89
86
84
84
81
95
120
123
126
139
125
96
89
92
89
89
89
88
90
88
88
88
86
84
83
86
88
89
92
93
92
93
95
93
88
87
81
81
76
50
35
37
45
58
99
97
98
92
83
76
73
76
82
75
57
63
82
83
80
82
85
86
85
88
85
90
108
114
112
115
108
90
80
78
76
73
72
72
72
73
75
78
78
80
80
81
82
82
84
85
87
87
87
90
89
84
79
74
58
36
46
68
74
79
102
100
97
92
83
78
78
86
84
67
64
77
85
84
82
86
82
82
88
89
87
86
101
98
75
76
82
76
71
69
68
65
62
59
59
62
63
65
67
71
76
77
80
81
82
84
84
84
84
84
90
87
76
66
50
43
54
70
76
78
96
96
92
88
81
80
81
82
76
66
73
83
82
83
81
80
79
79
83
80
75
76
83
84
79
78
79
81
79
78
77
73
67
64
63
65
66
65
66
64
67
73
76
79
82
82
83
84
83
84
89
90
83
68
48
38
51
66
75
82
96
95
90
84
81
79
82
88
86
79
79
83
80
79
80
79
77
70
66
66
67
72
74
72
73
75
74
67
65
67
64
59
52
53
61
65
67
65
67
70
64
61
64
71
75
76
77
77
79
83
87
91
88
76
61
51
57
66
72
82
96
96
91
84
85
80
82
100
99
85
78
78
81
80
78
74
68
60
57
64
71
74
74
70
64
55
45
39
39
43
42
38
38
41
52
58
57
59
63
65
65
65
69
67
67
71
73
76
75
77
82
87
93
84
72
67
66
68
71
82
98
96
93
91
85
77
93
125
107
78
79
79
80
78
72
65
55
56
61
66
72
70
66
55
42
37
33
35
36
39
42
39
38
44
64
84
84
71
61
59
63
67
75
75
71
72
72
73
72
75
82
84
89
89
81
74
66
65
71
79
96
95
90
87
79
64
89
132
112
79
77
77
76
74
62
51
53
58
64
65
62
58
50
43
39
29
43
75
71
65
68
53
41
41
62
95
105
91
77
65
61
67
75
81
85
82
77
72
73
77
78
80
90
97
88
68
57
55
66
73
98
83
61
54
53
46
53
68
74
76
74
74
72
67
59
52
55
58
59
55
51
58
56
47
40
37
42
50
48
43
45
49
44
40
64
97
108
100
87
77
68
65
66
71
83
87
82
79
79
78
75
78
84
84
84
76
62
54
60
72
87
67
46
45
48
51
67
72
70
73
70
69
67
58
55
53
53
55
49
48
58
70
68
50
41
38
35
38
39
38
40
44
42
45
71
101
107
99
90
80
70
65
65
65
72
83
88
87
81
77
78
81
79
68
91
118
85
55
61
70
91
63
37
39
45
43
44
55
64
69
72
68
62
55
53
55
50
45
46
55
69
80
76
56
41
40
41
41
41
41
41
42
44
55
85
104
99
90
80
73
72
69
69
67
68
81
88
88
84
76
77
82
84
83
101
121
93
67
68
69
83
68
57
53
54
60
70
77
73
68
67
61
54
54
52
49
50
52
54
60
72
83
82
67
51
42
41
41
43
43
43
45
49
62
79
83
78
71
72
71
71
74
75
78
82
85
88
88
82
77
75
79
100
116
109
104
127
129
83
62
73
75
74
73
69
66
78
85
75
68
65
61
58
59
59
55
56
57
60
65
71
77
83
84
70
53
46
42
42
45
50
54
63
75
81
77
75
74
74
76
75
80
85
88
87
86
89
87
83
80
73
80
109
121
87
72
120
119
69
62
96
93
88
81
81
78
73
69
68
71
69
64
61
59
59
61
64
68
69
71
69
67
72
74
72
67
62
61
61
64
69
74
78
80
80
77
74
75
76
76
76
78
81
84
84
84
84
87
88
84
80
80
87
90
69
73
104
87
61
66
101
95
91
89
85
89
84
71
69
73
71
67
66
66
65
67
68
70
70
68
70
69
70
72
74
75
72
73
78
81
81
78
77
78
78
75
70
71
74
73
75
75
74
77
79
80
83
88
90
88
84
81
80
77
68
59
57
61
65
66
100
98
95
91
90
90
86
74
70
73
74
73
72
72
73
73
72
71
70
68
71
71
68
72
75
73
71
71
73
74
76
77
76
75
72
73
76
75
72
72
70
67
69
74
76
80
85
86
89
88
87
87
85
82
72
62
58
61
69
71
101
101
98
95
92
90
91
82
69
71
76
78
80
83
83
77
78
77
72
69
68
71
69
70
73
72
74
73
73
74
74
76
75
76
77
76
75
74
74
73
71
68
69
72
77
84
88
89
92
92
88
88
86
81
73
63
61
63
68
74
103
99
95
90
93
95
94
87
74
73
76
83
88
83
83
81
80
81
76
73
73
76
80
78
78
78
79
83
83
79
80
82
83
81
80
77
73
72
70
71
74
73
73
75
80
86
87
90
90
88
84
82
84
76
67
65
62
67
71
72
103
102
100
98
95
97
94
89
81
71
74
83
88
88
85
83
77
74
75
74
78
80
82
81
80
82
83
87
86
83
84
84
85
84
79
76
74
74
77
81
81
77
80
85
85
91
93
90
86
85
86
82
77
70
63
64
65
69
73
73
99
99
96
94
95
95
91
86
87
77
69
74
84
91
90
84
77
74
77
75
77
82
80
81
81
85
87
87
86
83
80
81
81
80
77
76
77
76
79
79
81
82
82
89
91
91
90
88
88
85
85
85
73
65
62
62
67
70
74
73
100
99
99
100
101
94
91
94
96
88
69
65
77
85
88
85
83
81
81
79
78
80
79
78
82
81
82
84
84
82
79
82
83
81
80
79
80
80
80
83
82
84
88
90
91
89
91
89
87
87
88
79
60
58
65
66
70
71
70
73
