P2
60 28
255
113
120
132
142
166
189
201
213
211
212
212
210
220
221
224
220
210
208
201
205
207
199
196
188
184
170
152
144
135
134
133
130
130
122
120
118
114
118
113
117
122
128
141
143
153
161
163
175
177
184
196
199
210
215
230
240
234
239
234
239
112
118
131
145
165
188
199
212
211
208
212
210
218
220
220
215
203
208
206
200
205
197
191
182
167
153
141
140
133
127
128
121
122
117
115
120
114
117
116
112
121
125
133
137
141
153
152
163
173
178
192
194
205
217
224
235
231
240
238
233
106
110
117
143
165
182
197
202
210
206
206
212
211
215
207
202
205
202
199
189
186
188
174
162
152
147
145
135
135
131
129
128
122
129
124
122
126
122
126
124
126
134
135
141
143
146
153
155
165
172
182
195
196
210
218
227
239
234
241
242
101
109
120
144
163
180
205
209
209
206
202
210
207
206
202
196
200
192
187
183
176
170
159
157
154
150
156
152
155
157
149
150
148
149
148
139
139
137
143
143
141
148
144
146
151
150
157
154
158
169
173
186
188
199
217
225
240
236
237
245
100
104
121
140
163
185
202
214
208
204
201
201
206
197
191
193
188
187
175
171
171
167
169
163
171
177
178
186
181
185
183
174
177
172
170
163
151
154
152
153
155
155
161
153
155
158
153
161
158
163
173
179
197
202
213
229
235
246
245
246
94
97
116
136
161
190
201
213
210
202
203
201
201
190
184
189
186
184
174
172
182
181
188
191
196
205
201
204
201
199
202
192
191
186
179
178
166
164
158
154
159
155
158
157
157
165
159
164
165
163
174
178
196
207
212
233
243
250
250
249
90
102
114
141
167
189
207
208
206
197
196
203
195
183
175
179
186
184
185
183
187
197
199
209
210
213
220
216
220
217
214
213
200
203
199
191
186
169
161
154
153
158
151
153
154
156
162
161
170
171
171
182
187
206
223
235
249
248
250
252
86
100
116
142
173
191
204
206
204
199
194
194
184
174
170
177
192
193
195
197
199
214
214
216
223
224
232
228
226
228
223
224
216
218
221
208
198
181
171
165
155
158
153
152
155
150
154
155
163
172
172
187
195
211
234
240
249
254
254
252
94
102
126
151
179
195
199
208
204
199
190
178
177
170
174
182
188
200
198
203
209
209
220
217
223
228
225
233
228
231
233
225
227
220
219
215
199
193
177
168
165
153
153
147
144
144
140
148
151
162
175
180
198
211
232
247
246
252
254
254
96
101
127
156
181
199
200
207
207
196
188
175
174
175
180
193
194
203
204
202
210
209
221
224
220
227
221
227
227
224
230
221
221
220
209
203
190
186
178
168
165
154
153
146
139
143
141
148
152
155
169
173
192
213
230
248
252
253
253
253
97
112
129
160
181
194
205
205
204
191
179
177
177
189
195
198
201
196
203
202
204
215
214
221
221
221
225
215
217
213
209
207
195
193
177
165
165
156
159
155
149
147
133
138
140
138
141
138
149
155
161
174
182
210
233
241
250
252
254
254
92
114
136
164
184
191
205
205
201
187
171
179
187
194
196
191
197
193
194
198
196
209
211
215
219
214
217
205
196
190
175
167
147
135
132
119
122
118
114
117
112
120
121
127
134
129
135
138
145
157
158
172
181
202
229
238
249
254
254
254
92
110
141
164
186
198
198
206
201
189
177
177
189
189
192
191
190
199
197
200
202
201
211
208
209
205
187
176
151
130
118
99
92
89
89
89
91
102
103
108
106
99
108
109
118
126
127
138
142
152
164
170
185
195
219
241
245
252
254
254
96
110
143
170
188
201
201
205
202
193
187
181
190
197
196
197
189
196
196
195
204
199
203
199
184
170
143
125
107
93
92
83
80
80
81
91
87
89
94
100
113
112
114
111
110
124
125
130
139
152
170
173
185
197
214
238
247
252
252
252
97
118
142
172
187
195
203
201
203
192
184
189
190
193
190
190
193
190
196
198
200
201
188
178
152
127
114
107
106
99
99
104
102
106
113
117
114
98
93
101
107
113
113
120
121
121
131
131
143
154
167
185
184
200
219
234
250
248
250
253
93
115
138
169
191
194
203
202
202
196
186
190
183
180
181
182
192
188
195
201
194
191
168
142
122
107
113
131
133
132
155
156
126
112
105
108
128
122
103
112
125
123
114
121
132
130
139
142
152
166
168
181
187
202
224
233
247
252
252
252
93
108
138
165
186
196
198
205
199
194
191
185
190
185
185
187
186
192
192
190
178
152
131
114
105
111
146
184
175
151
149
148
127
102
84
95
124
129
106
118
150
141
123
114
123
137
146
161
164
178
187
184
199
207
224
239
241
250
251
251
94
104
133
161
182
196
198
206
203
193
192
187
191
189
186
192
190
197
200
180
147
119
115
105
100
131
175
209
199
146
124
134
128
98
66
77
123
139
113
119
153
147
127
108
107
134
157
182
187
189
201
195
205
215
223
239
244
249
248
246
95
105
122
152
174
190
200
196
198
196
191
194
191
194
190
190
195
192
182
142
116
120
111
99
117
155
182
206
204
155
116
124
132
117
103
120
147
138
119
131
158
156
131
119
113
122
160
191
212
217
210
209
202
218
230
234
244
243
248
248
93
103
115
144
173
187
201
199
200
200
195
200
198
197
195
190
193
179
149
121
119
129
123
122
135
158
184
207
216
187
137
124
139
146
148
148
143
123
122
150
160
153
135
128
137
135
158
198
227
233
217
217
215
222
235
236
247
245
244
248
90
95
116
140
170
189
195
203
197
198
200
195
198
193
192
192
186
166
126
124
135
134
150
153
161
171
180
201
220
212
162
130
131
135
141
143
129
129
154
175
171
160
168
169
180
196
203
220
220
221
222
214
220
219
229
241
236
245
246
247
91
93
109
136
163
190
196
202
202
200
203
194
197
196
194
196
174
146
133
137
149
153
173
186
188
193
190
199
210
206
193
178
166
163
168
180
187
199
211
213
214
207
209
211
213
228
230
228
217
210
221
218
222
225
223
235
234
241
248
244
89
95
99
124
154
181
198
196
201
202
201
200
192
196
192
177
162
145
149
152
156
171
176
190
198
199
203
198
202
201
204
216
216
221
219
216
216
207
213
213
207
210
206
213
217
220
226
212
209
213
218
223
217
229
229
225
237
239
247
247
91
97
97
113
147
175
200
201
201
204
199
201
197
196
194
177
167
159
163
169
171
187
193
202
213
210
212
204
194
190
187
192
187
185
188
184
194
197
199
207
203
209
211
216
226
222
217
209
213
226
222
228
225
223
232
229
241
247
244
247
93
93
99
106
137
175
195
204
200
202
204
199
204
199
192
183
170
172
174
186
201
208
218
212
215
219
211
209
194
192
195
185
190
185
192
204
205
215
207
209
214
214
226
223
226
226
214
221
222
228
227
217
228
224
229
241
237
246
244
244
94
91
97
103
128
173
195
203
201
201
205
200
203
201
199
200
182
181
194
209
222
221
225
222
216
220
214
216
216
213
221
219
227
231
227
232
219
219
218
210
220
221
226
230
226
228
221
225
233
227
228
220
225
232
230
241
241
245
249
243
93
94
100
103
121
167
205
203
202
204
204
207
201
206
205
197
195
195
214
223
222
229
230
238
239
237
243
245
250
249
243
241
233
236
232
226
231
223
221
214
217
230
228
235
233
229
236
230
236
230
219
225
220
232
238
236
244
244
249
246
94
96
100
96
111
157
202
204
204
208
201
204
207
215
213
202
212
220
229
229
221
234
241
246
250
244
244
249
252
250
244
247
242
239
241
234
240
238
233
233
223
228
231
234
241
236
241
236
232
232
219
225
224
225
236
237
247
251
251
251
