P2
60 28
255
83
103
106
104
105
101
101
97
89
86
82
81
82
81
81
81
80
77
73
70
72
82
99
114
115
107
105
97
94
96
96
103
117
122
101
86
90
119
176
174
153
185
180
128
115
122
115
108
103
95
82
71
67
69
74
72
77
87
96
103
63
85
94
95
97
97
95
92
86
84
80
76
77
72
67
68
70
72
78
87
92
95
97
96
102
106
103
115
131
126
130
143
172
161
107
98
100
87
90
84
83
92
92
98
106
109
107
107
103
104
108
107
104
93
83
80
79
82
87
89
62
71
81
89
90
94
93
92
90
85
78
66
59
64
72
85
93
95
96
94
95
96
101
105
111
115
116
135
151
145
129
122
133
124
110
110
109
110
110
108
109
106
107
111
117
117
115
112
103
92
88
86
86
88
83
82
82
87
96
96
76
75
75
85
91
92
92
92
88
73
60
61
73
87
92
90
89
89
90
92
96
101
102
108
116
120
130
139
144
143
127
117
117
117
116
114
114
111
108
109
108
102
101
100
105
108
110
109
106
106
101
90
75
73
80
86
88
85
94
101
85
82
76
77
86
87
92
89
67
56
66
83
92
94
95
88
87
91
93
97
98
103
108
111
114
113
121
125
126
127
121
118
116
114
114
113
113
112
111
109
105
103
100
99
98
96
97
98
98
101
101
97
81
63
75
86
88
93
97
106
101
100
86
76
79
89
83
64
55
72
87
92
96
93
91
91
90
92
93
97
101
100
103
106
111
116
114
118
121
119
119
113
109
107
107
112
111
110
110
108
107
105
102
97
94
96
96
97
95
96
100
100
93
69
63
76
83
91
97
102
101
109
92
80
75
77
62
60
81
90
94
95
94
92
88
89
92
96
97
95
98
99
100
98
94
96
95
96
98
93
94
90
87
87
88
93
94
97
101
102
105
106
106
102
100
99
95
92
89
87
89
92
92
81
70
78
86
86
87
86
89
105
99
91
83
67
65
78
89
91
93
96
93
89
87
91
96
92
89
86
80
80
80
81
84
89
95
94
96
95
91
92
88
85
86
83
79
78
83
89
93
98
100
100
101
101
99
89
86
88
87
88
92
89
75
66
72
77
80
81
52
69
79
86
80
63
71
81
81
90
90
89
88
86
86
87
89
81
73
73
77
84
88
89
93
94
97
96
93
92
91
95
91
87
89
85
81
79
75
74
76
82
90
92
94
96
96
92
88
85
84
86
88
91
86
79
78
80
86
95
61
62
75
87
84
73
75
84
80
81
84
85
86
85
85
80
70
68
73
82
86
86
91
87
85
91
89
93
95
94
96
90
87
85
83
83
78
80
80
78
76
73
78
84
87
91
92
92
88
83
82
85
89
88
86
86
85
92
104
116
58
95
201
254
184
84
68
81
78
75
77
79
79
80
77
68
64
77
87
84
82
79
79
82
83
87
83
82
83
81
78
71
70
73
74
78
76
76
80
76
76
75
76
80
80
84
87
87
88
86
84
83
84
83
78
79
84
93
108
113
42
80
180
226
147
73
81
89
84
81
77
75
73
72
68
68
79
91
91
80
73
74
74
76
73
62
57
49
51
63
61
59
57
51
47
54
72
74
73
72
74
79
78
81
82
83
88
87
85
86
87
86
83
80
77
75
81
91
107
117
42
30
45
52
51
66
94
102
93
87
80
77
75
71
69
68
76
84
79
74
70
64
56
53
50
43
39
37
44
53
47
42
43
44
45
54
75
86
82
76
72
74
77
79
85
89
92
94
92
91
89
86
81
74
74
73
77
93
105
118
73
81
115
124
99
85
99
108
102
95
87
81
78
69
67
69
68
68
63
58
56
52
48
50
57
55
46
48
49
39
29
30
41
49
45
55
83
99
96
87
77
70
71
76
86
96
103
109
107
102
96
86
83
79
74
72
71
88
104
113
103
106
111
103
75
75
103
113
109
102
95
89
79
69
64
64
61
58
50
40
44
51
55
71
89
85
65
56
53
48
44
46
52
52
50
71
101
111
103
89
87
89
85
76
75
94
111
117
113
104
94
88
84
76
65
58
59
81
105
113
106
105
108
102
73
74
104
115
117
114
105
97
90
82
70
63
58
53
53
52
53
64
76
90
108
105
82
60
51
55
55
55
53
53
70
100
115
110
98
85
83
81
77
76
82
102
116
115
110
101
93
89
83
73
62
50
55
78
102
114
106
105
109
101
70
67
103
117
114
116
110
104
98
87
81
73
71
70
72
77
72
75
84
91
104
115
112
95
77
64
56
56
62
79
103
110
101
89
80
78
74
79
93
100
105
108
110
106
99
96
90
85
80
71
60
50
57
81
99
114
105
104
113
103
69
68
97
112
115
117
117
111
104
96
95
95
89
90
87
82
82
82
84
83
88
98
106
109
102
94
94
97
100
100
96
91
84
83
84
86
89
92
102
107
109
109
103
100
93
89
86
81
79
64
42
44
61
86
106
114
104
105
109
105
77
67
98
116
116
117
117
113
108
103
99
100
99
97
94
87
81
78
79
83
83
84
88
93
95
92
94
97
97
94
90
95
101
102
102
92
88
89
94
101
103
105
101
96
89
84
85
88
78
47
27
42
67
91
110
114
105
107
108
109
79
60
93
115
114
115
115
112
107
103
99
99
101
101
101
96
86
83
80
82
85
85
90
89
87
89
85
83
83
88
91
92
95
88
82
80
86
96
99
101
103
103
102
97
90
85
75
67
55
35
32
53
79
96
111
119
104
103
107
110
86
61
88
113
111
114
114
112
111
105
101
98
98
101
103
102
98
95
90
86
85
80
79
81
80
81
75
75
83
86
90
86
83
82
82
90
96
98
98
102
107
104
102
95
88
87
82
71
50
27
34
60
88
106
111
118
105
102
112
112
91
66
80
107
109
110
110
110
112
106
101
100
98
98
100
103
104
102
101
97
95
98
95
92
91
93
93
87
91
91
88
88
85
91
95
95
96
97
101
106
108
106
101
95
88
88
83
66
51
40
51
80
96
110
115
117
102
102
107
114
99
70
72
97
110
111
111
110
108
108
103
101
98
95
96
98
101
101
101
104
107
107
104
102
102
101
99
94
93
93
89
92
97
101
104
100
101
107
109
106
104
103
98
90
87
85
75
59
46
51
68
89
101
112
122
122
98
103
106
111
102
76
70
91
111
112
110
111
112
115
111
107
104
98
98
96
95
97
101
103
101
100
102
101
98
98
98
97
95
97
100
104
107
107
107
109
111
114
112
108
105
99
93
89
88
84
67
51
46
61
82
95
109
114
120
124
105
107
107
105
110
99
77
84
101
110
108
106
111
113
115
113
110
106
99
99
98
98
98
97
99
100
100
100
96
97
98
100
103
105
107
107
109
109
110
117
119
119
116
109
104
96
92
89
86
76
62
50
55
74
90
99
106
113
115
121
109
107
108
106
111
113
88
78
96
107
107
108
114
115
114
113
111
109
107
105
101
96
100
101
100
99
99
103
104
102
104
105
109
113
111
108
107
110
114
119
119
116
114
109
104
101
91
89
83
64
50
51
72
88
97
107
110
113
118
118
107
105
105
109
108
110
102
86
88
100
107
109
111
114
113
112
110
109
111
108
106
107
106
104
102
106
107
107
106
104
105
106
107
111
112
113
109
110
117
118
119
116
112
107
102
95
91
86
74
59
54
60
79
94
96
104
110
114
119
115
106
109
105
108
110
111
115
101
87
91
101
110
113
116
114
112
111
106
107
108
108
111
110
111
113
110
110
111
111
111
112
113
111
116
116
112
114
115
118
121
116
113
107
103
100
92
87
81
68
58
57
72
86
97
101
102
113
118
121
120
