P2
60 28
255
89
85
75
70
80
100
150
193
202
204
187
159
140
136
143
146
149
153
150
147
140
129
119
110
106
98
89
87
86
88
88
88
91
87
89
102
129
154
161
171
177
181
185
181
188
190
192
200
201
216
220
224
237
238
247
251
248
245
242
247
87
81
70
70
73
103
153
194
207
188
155
131
132
133
136
142
137
142
150
146
139
133
130
122
112
107
102
96
88
84
86
88
94
95
88
86
89
115
143
158
173
177
173
167
165
174
173
181
194
198
215
219
226
241
241
249
245
241
242
240
86
79
66
69
70
98
154
201
208
166
130
121
126
135
135
137
139
138
139
137
137
136
134
137
138
137
133
130
124
110
103
104
108
110
101
96
93
91
107
122
139
157
164
169
162
160
160
164
182
187
206
226
232
247
251
252
249
243
244
245
84
81
67
63
71
97
156
205
196
148
116
119
128
133
136
136
142
140
136
138
137
147
151
155
165
165
167
164
158
155
139
132
128
126
126
117
115
110
104
109
111
132
153
164
167
150
153
165
170
188
200
228
248
248
254
254
254
251
247
250
83
81
66
55
64
94
157
207
185
141
125
124
127
133
142
146
150
155
154
158
160
170
182
181
186
183
182
186
183
184
176
165
158
147
147
145
140
137
127
125
122
128
145
152
165
159
157
170
170
188
210
232
253
254
254
254
254
254
254
254
85
83
71
62
59
99
167
203
174
133
130
131
137
145
146
153
156
164
170
169
178
182
184
190
194
203
201
200
201
192
194
187
179
172
157
158
153
151
153
145
144
138
142
156
156
161
160
168
184
191
220
248
254
254
254
254
254
254
254
254
95
84
68
63
60
99
172
196
162
133
142
148
151
159
158
163
166
170
186
195
205
207
205
211
202
203
209
208
213
204
202
197
186
185
172
167
165
159
160
153
152
151
146
152
156
163
164
166
192
207
231
253
254
254
254
254
254
254
254
254
91
84
70
62
60
98
175
194
157
147
166
180
172
164
170
173
184
191
198
210
209
215
217
215
220
211
214
216
210
212
205
200
191
181
178
165
163
163
156
157
152
155
155
152
162
159
166
180
189
218
242
252
254
254
254
254
254
254
254
254
90
83
71
58
55
99
175
197
164
153
161
173
178
172
179
182
188
198
198
210
213
216
220
216
224
218
216
217
206
208
200
192
190
178
173
162
157
160
154
159
157
154
158
154
164
165
167
181
192
222
246
252
254
254
254
254
254
254
254
254
93
89
77
63
58
106
175
188
166
155
165
173
178
181
180
189
195
200
206
206
216
212
208
215
211
214
208
202
202
191
187
178
169
167
157
158
154
152
155
149
155
155
156
161
155
166
173
179
196
214
241
254
254
254
254
254
254
254
254
254
95
86
79
69
59
106
174
189
184
182
187
185
178
181
181
190
196
197
205
201
207
211
204
207
200
200
195
181
175
161
155
150
139
140
135
136
141
141
151
148
147
153
153
160
159
166
175
180
200
218
239
254
254
254
254
254
254
254
254
254
98
88
80
62
58
104
175
194
184
187
188
187
180
175
185
186
191
192
186
192
189
192
190
177
175
165
156
149
143
143
135
137
134
126
125
114
117
120
123
135
133
142
148
148
163
165
178
192
202
226
243
251
254
254
254
254
254
254
254
254
100
85
81
66
65
108
177
204
188
184
182
182
180
176
186
189
189
189
181
182
173
158
150
155
186
198
185
177
162
150
141
141
145
134
133
129
121
120
110
115
121
129
143
140
159
177
188
207
210
230
250
251
254
254
254
254
254
254
254
254
97
80
79
68
62
115
181
198
189
178
179
175
171
177
181
191
187
178
168
146
141
153
174
194
188
161
131
104
85
76
80
85
91
94
96
109
115
118
121
116
123
127
135
152
162
187
204
211
225
235
247
254
254
254
254
254
254
254
254
254
94
76
78
72
64
113
183
204
199
183
177
172
171
180
179
182
177
153
135
140
170
182
160
124
90
76
83
88
81
70
72
79
76
74
70
79
96
100
110
113
120
132
141
166
180
199
215
218
232
237
244
252
252
254
254
254
254
254
254
254
102
84
82
71
66
112
187
205
187
184
177
178
174
171
178
167
147
132
149
174
160
126
98
93
89
92
136
147
103
82
84
91
96
85
76
92
117
112
99
101
98
115
137
160
197
207
217
224
225
240
251
254
254
254
254
254
254
254
254
254
110
90
85
68
70
118
182
212
201
193
179
174
178
171
170
149
126
145
170
149
103
80
105
143
138
114
120
127
108
92
86
91
102
92
84
109
143
151
126
112
100
93
111
142
189
207
209
224
228
240
252
252
254
254
254
254
254
254
254
254
115
80
80
76
71
125
192
211
207
194
189
180
175
174
159
137
130
154
149
97
72
100
154
186
163
116
98
104
92
74
68
72
91
96
83
109
142
147
142
129
123
112
123
161
185
207
214
224
239
242
250
254
254
254
254
254
254
254
254
254
125
83
81
78
69
125
198
210
207
198
191
184
174
172
155
132
130
128
100
74
95
138
176
201
181
127
99
98
94
83
84
90
99
100
91
120
147
141
141
129
125
133
141
170
186
208
229
233
244
252
253
254
254
254
254
254
254
254
254
254
132
83
79
79
75
122
199
217
203
202
193
186
178
168
152
133
124
106
82
89
123
163
192
213
213
160
106
96
98
97
96
103
102
91
106
128
143
141
137
145
142
156
173
180
210
222
232
242
241
251
254
254
254
254
254
254
254
254
254
254
136
85
82
73
76
134
202
220
207
206
197
187
180
167
160
146
127
115
114
124
140
161
188
211
226
211
160
117
98
98
104
110
121
128
147
156
159
166
161
171
175
181
201
206
229
238
234
243
245
249
252
252
254
254
254
254
254
254
254
254
154
98
84
83
84
143
207
219
213
204
202
191
179
171
157
148
131
129
139
139
154
161
174
196
211
225
215
182
150
138
154
165
178
187
176
177
172
174
186
183
196
201
212
238
237
240
242
243
248
248
252
254
254
254
254
254
254
254
254
254
165
100
85
85
89
152
214
221
219
211
205
195
181
179
171
160
158
164
175
169
175
186
183
191
200
202
199
197
198
189
189
190
186
195
187
183
187
190
205
206
214
230
236
247
239
238
245
240
247
252
252
254
254
254
254
254
254
254
254
254
168
101
82
87
96
151
211
221
215
219
210
202
197
189
184
175
183
186
185
199
204
216
211
201
208
194
191
192
189
202
195
198
199
192
204
203
215
222
217
231
236
244
249
240
240
234
240
246
241
247
251
252
254
254
254
254
254
254
254
254
177
107
84
86
99
155
211
228
222
224
214
205
201
190
193
195
200
206
199
208
217
220
225
218
226
220
211
214
203
205
200
199
215
216
232
237
234
241
243
250
254
253
252
239
240
245
240
243
242
247
250
250
254
254
254
254
254
254
254
254
168
115
94
86
94
158
212
222
225
217
216
210
205
205
202
211
210
208
209
203
215
215
216
226
221
221
212
204
205
200
217
228
234
243
241
247
250
250
254
254
254
254
251
245
243
249
248
244
245
247
251
254
254
254
254
254
254
254
254
252
170
122
97
88
97
161
216
223
227
223
222
220
214
216
215
220
217
205
205
202
211
215
209
218
212
212
213
209
225
232
240
250
249
252
254
254
254
254
254
254
254
250
246
250
250
249
247
243
249
252
252
254
254
254
254
254
254
254
254
254
176
129
100
85
98
162
220
229
225
232
227
227
224
219
226
219
217
213
203
211
207
212
217
214
228
228
237
246
241
248
253
254
254
254
254
254
254
254
254
254
252
252
249
246
249
248
249
248
246
251
254
254
254
254
254
254
254
254
254
254
