P2
60 28
255
114
138
170
183
200
205
207
213
205
206
206
211
216
209
208
200
198
205
195
194
194
191
190
182
179
165
148
140
128
127
125
124
124
115
116
111
107
108
104
114
118
124
138
138
145
150
156
167
163
172
175
181
196
194
211
218
218
223
212
222
121
143
174
189
203
206
204
210
204
203
205
204
207
200
197
196
193
196
189
186
186
179
177
167
156
146
135
134
123
116
117
114
116
109
108
112
108
109
102
104
111
113
124
126
130
141
146
157
157
163
177
180
191
189
198
219
215
220
217
219
128
153
172
195
199
205
210
206
207
201
200
200
196
195
185
186
191
186
184
175
172
169
157
153
147
146
144
136
137
131
127
123
117
122
117
114
112
108
113
109
110
114
117
125
127
134
141
142
157
155
163
179
178
194
201
211
218
217
228
220
128
156
176
195
202
206
211
206
207
199
194
198
192
187
178
182
190
180
176
168
165
170
159
161
158
153
159
154
157
156
147
147
142
143
140
134
134
125
127
129
125
130
127
129
132
133
140
139
148
153
155
174
175
185
199
203
217
217
224
226
130
160
185
194
205
208
208
209
199
194
188
186
186
173
172
176
179
183
174
177
177
176
179
174
179
178
177
180
175
177
173
166
165
158
160
157
146
142
137
139
140
139
144
141
142
141
143
148
142
152
158
162
176
177
194
206
212
228
225
233
133
160
187
196
203
207
205
208
197
191
184
174
174
170
175
182
184
191
185
184
187
184
193
190
190
193
187
192
188
187
185
176
179
170
165
164
153
154
147
142
145
142
146
143
144
150
146
152
150
149
158
159
175
182
193
209
214
231
229
229
131
159
182
203
202
206
213
207
200
185
179
176
170
175
177
184
190
189
194
190
193
200
196
199
199
202
205
200
202
195
192
189
179
184
180
175
170
157
151
141
142
145
138
143
144
148
153
150
159
156
157
168
172
190
196
207
229
235
241
234
123
155
178
198
205
207
213
206
197
183
176
181
181
190
190
187
193
191
194
195
198
206
200
204
206
205
212
205
207
205
196
197
186
186
186
179
177
161
154
148
139
144
140
141
142
140
143
141
153
161
159
171
173
188
203
213
236
241
244
242
120
147
180
192
202
207
207
208
199
188
179
183
191
187
189
189
188
192
190
194
196
198
208
205
209
207
205
212
206
210
205
197
200
191
189
182
171
170
158
153
148
140
140
136
136
133
132
141
143
157
166
172
188
194
217
233
237
248
247
249
114
143
175
189
199
207
205
206
198
190
185
182
189
185
180
183
181
189
189
193
199
194
205
204
205
210
202
206
202
201
204
192
195
187
176
172
161
161
152
148
147
133
133
131
127
129
126
137
144
149
163
168
186
202
223
241
241
249
252
250
112
142
168
194
200
205
207
201
199
191
190
193
189
192
187
186
189
186
194
191
193
197
196
207
205
203
202
194
199
189
187
185
170
170
157
150
147
137
141
133
130
129
120
124
120
123
128
127
140
146
158
171
179
207
229
242
249
248
252
251
106
135
162
188
198
200
207
201
200
194
188
191
184
184
181
178
188
187
192
194
193
200
196
200
197
191
192
177
170
163
153
149
135
128
123
118
120
114
113
109
100
109
109
115
118
115
127
128
135
146
151
164
175
204
230
239
249
253
254
252
95
121
159
182
201
204
204
206
199
196
189
185
185
177
182
184
186
196
192
199
198
193
195
184
181
170
153
145
128
121
110
98
96
89
94
96
96
101
100
108
106
101
106
99
106
114
117
128
131
142
152
160
183
200
229
246
245
252
254
254
95
107
148
183
200
206
201
202
196
194
195
187
188
180
180
185
184
190
192
196
195
182
175
160
144
132
114
106
99
95
95
88
90
92
94
100
95
91
87
93
104
104
110
110
109
117
115
124
132
142
160
164
183
198
218
241
247
252
254
254
97
110
141
183
197
202
205
200
204
200
195
192
186
187
185
187
191
189
193
184
168
148
132
127
116
112
114
112
110
109
113
109
98
92
91
103
112
99
91
94
103
107
105
114
114
120
125
123
140
147
158
174
180
201
218
236
252
252
254
254
97
105
133
182
200
200
206
201
205
203
194
194
188
190
190
188
192
187
177
151
124
118
115
115
115
119
137
148
130
109
112
115
97
72
63
82
112
109
100
117
125
118
100
100
114
121
136
138
151
161
161
175
183
201
223
235
249
253
253
254
93
97
130
170
201
207
205
210
204
203
197
191
192
186
189
189
185
173
134
112
110
118
122
115
125
142
162
177
151
109
104
112
93
61
53
88
126
118
99
122
134
118
106
94
107
128
144
157
156
168
176
178
195
206
229
245
247
254
254
254
93
87
121
168
200
209
203
207
205
202
198
190
193
187
186
188
165
135
113
116
132
134
135
130
137
155
172
190
171
120
104
114
109
98
101
117
123
109
107
131
140
122
111
100
100
121
147
176
177
178
186
184
200
210
223
240
243
250
251
251
91
83
107
171
204
211
208
201
207
202
197
195
188
190
184
169
144
125
133
139
147
156
159
159
154
160
176
190
185
145
113
115
121
122
123
123
111
102
119
131
129
120
108
114
107
114
154
182
201
197
194
203
203
218
225
235
248
245
250
253
89
86
106
166
207
210
207
203
207
202
195
196
187
184
173
153
147
143
152
156
156
170
171
178
179
170
173
175
177
161
132
116
112
116
118
112
110
118
137
141
131
134
128
137
145
149
176
188
199
202
199
212
212
222
234
237
247
251
252
251
94
95
117
165
209
213
204
208
206
205
202
196
197
185
175
164
157
159
157
169
176
180
187
185
190
184
175
176
173
171
169
162
154
148
151
152
152
161
159
161
160
157
167
166
181
190
188
197
197
205
211
210
219
219
235
245
243
250
250
252
111
116
128
164
204
213
203
208
207
207
205
196
199
192
185
175
163
176
183
190
201
198
201
198
195
193
180
179
171
169
179
175
178
177
175
175
166
168
165
166
169
161
173
177
182
195
191
196
200
209
222
215
223
226
229
241
241
248
249
248
159
153
139
174
204
211
211
204
208
203
199
203
199
200
190
184
188
195
211
212
215
216
205
204
198
196
192
179
175
165
164
165
157
160
155
159
166
165
172
170
174
179
179
192
189
188
194
191
208
218
224
229
222
233
235
239
247
244
249
248
207
196
170
182
205
210
213
205
209
207
206
217
210
203
200
203
213
212
220
222
217
221
214
211
205
195
197
188
182
180
172
177
174
177
181
176
184
180
182
187
184
193
192
195
199
194
201
203
218
228
223
230
224
230
240
237
246
244
245
248
216
209
199
194
208
212
205
209
206
209
216
217
220
211
212
217
220
232
227
224
227
232
239
232
230
228
226
232
224
221
215
208
214
208
206
201
192
198
194
200
204
201
207
199
206
211
211
225
223
230
230
223
232
226
235
243
240
246
246
249
225
215
208
203
208
212
206
213
211
214
223
221
226
221
223
231
232
240
235
231
237
239
246
242
236
236
233
240
237
230
226
214
218
210
208
216
208
210
202
200
210
203
209
212
213
224
224
231
235
233
236
224
228
228
228
238
236
244
249
248
224
219
205
207
209
212
214
212
222
222
226
230
223
231
234
238
242
236
242
244
244
246
244
249
245
243
247
240
242
235
230
231
222
227
224
224
229
220
217
210
208
212
216
230
228
232
240
236
242
233
228
232
224
235
232
231
238
240
249
252
218
219
203
203
210
210
215
211
219
224
225
231
226
233
240
239
244
238
242
245
242
247
247
249
250
248
250
248
249
243
236
242
235
234
241
235
236
225
214
208
203
220
227
234
244
240
244
237
236
235
224
232
229
231
238
233
243
244
246
249
