P2
60 28
255
26
31
31
43
73
94
107
110
107
111
109
105
101
99
100
98
99
103
103
108
110
107
106
104
100
89
82
76
69
69
64
64
67
62
67
68
65
67
75
84
86
96
103
101
112
118
120
127
130
140
145
148
149
148
159
163
161
160
157
162
37
37
36
50
75
103
112
110
106
104
109
107
104
104
106
109
107
109
112
108
111
118
124
123
115
111
107
99
90
85
81
69
69
73
67
69
71
69
68
74
86
88
93
99
102
111
113
122
133
135
138
139
146
150
149
156
159
159
157
157
35
35
39
58
81
103
112
109
108
107
106
103
100
101
101
105
113
117
117
111
115
119
121
120
113
116
122
121
116
100
93
89
85
83
70
63
65
67
73
74
78
81
90
102
101
105
111
119
132
136
138
141
139
142
143
147
151
153
158
156
38
35
38
60
90
103
104
104
106
107
105
105
104
104
107
108
114
114
112
115
114
119
123
121
121
118
121
123
125
125
118
117
113
104
98
82
76
75
76
74
69
79
86
94
101
99
109
119
125
132
131
136
137
134
140
142
144
151
152
154
32
35
43
66
90
95
103
106
102
105
101
101
102
101
109
110
109
108
104
109
110
112
116
117
122
122
123
123
124
129
125
124
125
120
118
105
95
91
85
86
83
85
92
92
96
100
107
113
116
127
131
135
138
134
138
139
142
145
146
155
33
32
47
75
94
107
106
106
105
99
104
101
101
101
101
109
107
108
111
113
116
113
114
118
116
118
116
119
126
128
134
133
134
133
129
126
114
110
107
97
94
90
92
98
100
106
106
108
110
115
124
125
129
135
135
139
139
142
147
147
37
41
57
84
100
108
107
103
104
102
102
101
102
106
102
105
104
102
107
105
108
110
110
111
108
114
115
118
129
125
125
133
134
135
131
127
123
118
117
111
108
102
95
96
97
102
106
104
108
111
117
122
125
133
133
137
139
139
145
147
36
38
59
92
106
104
109
107
102
100
94
95
94
99
102
100
103
102
100
100
101
108
106
105
109
107
109
110
113
118
117
125
126
123
128
124
121
121
119
118
116
111
107
103
98
99
102
98
100
109
116
127
132
131
131
126
134
139
142
151
33
38
64
91
109
110
107
105
101
99
97
100
103
103
104
102
100
99
94
97
97
94
93
86
85
85
88
93
95
102
103
101
99
98
101
102
104
105
105
109
110
106
105
103
103
98
98
102
101
108
111
115
123
124
130
132
136
144
141
147
33
37
68
100
109
109
106
106
101
97
99
99
100
102
100
97
94
99
99
94
88
75
72
75
86
97
98
102
108
115
118
111
108
105
102
98
90
87
88
93
102
104
103
102
99
102
100
101
102
103
112
116
123
129
129
136
136
138
141
141
34
47
78
103
107
109
109
107
107
98
97
98
98
102
94
91
94
95
91
74
66
70
79
89
91
93
91
89
92
96
97
98
99
103
105
104
101
95
92
85
85
91
93
99
97
99
100
97
98
99
105
110
115
123
128
131
132
137
144
140
35
56
89
110
112
104
108
107
102
97
92
98
97
96
99
94
94
88
72
61
65
78
81
85
81
65
50
39
33
32
35
38
38
50
69
85
97
95
96
98
90
93
93
92
92
93
99
99
95
94
95
106
115
115
121
125
131
134
134
139
33
54
96
112
109
105
105
105
100
101
98
98
101
96
97
94
89
79
66
72
77
76
73
55
43
58
61
44
40
41
35
25
25
34
36
46
68
86
93
99
101
105
109
101
96
93
90
92
92
96
97
98
106
108
114
116
122
133
132
138
41
63
94
108
110
108
102
102
104
104
105
101
98
96
94
94
86
79
71
68
67
54
41
44
75
112
100
52
31
74
125
116
95
67
41
61
98
100
79
80
92
96
108
116
109
102
94
93
94
95
96
91
100
109
110
118
121
125
133
132
33
65
101
114
107
103
99
100
107
99
98
100
100
101
94
90
82
71
62
51
42
33
42
74
107
123
99
46
26
81
106
66
48
54
49
68
134
151
119
92
81
83
94
111
119
121
115
101
96
95
91
90
95
104
105
113
117
116
124
122
36
78
113
112
107
103
104
103
102
103
99
103
105
102
99
89
79
70
58
50
52
57
62
80
112
136
115
63
35
32
37
37
46
53
50
83
138
151
143
158
151
104
76
82
100
125
138
124
107
99
93
92
91
95
104
105
112
117
119
125
48
83
109
108
108
102
103
105
101
103
101
100
101
98
95
83
76
72
65
69
74
80
83
82
96
124
139
107
56
40
48
50
49
45
68
122
144
134
123
115
107
89
83
92
103
104
109
122
116
107
95
88
90
95
104
102
106
113
111
118
48
87
110
111
106
108
104
103
104
99
102
103
101
94
86
80
71
74
80
78
87
92
89
87
89
97
117
118
79
56
59
59
56
67
95
106
101
93
86
83
83
76
80
92
85
73
81
110
124
113
102
90
88
95
98
105
104
107
112
112
52
90
110
110
103
103
103
103
109
105
105
107
99
91
81
81
86
89
95
92
92
94
91
94
95
96
96
95
92
91
98
98
91
97
97
100
99
94
99
94
91
89
84
91
95
100
107
114
118
109
97
88
89
96
94
98
104
106
117
117
54
93
110
111
110
103
105
105
102
104
103
104
99
92
93
93
95
98
99
98
92
94
98
102
108
102
101
102
103
112
116
115
109
112
116
111
111
104
100
98
90
93
94
99
119
130
131
123
112
103
92
89
90
89
91
92
102
111
113
119
60
99
112
108
110
104
105
108
100
104
102
98
96
92
95
96
95
97
95
94
93
97
106
108
113
112
111
117
115
118
118
113
117
115
113
111
107
107
101
97
94
92
96
104
119
126
122
113
101
95
88
87
93
86
85
92
99
106
108
114
62
103
115
108
102
105
102
103
106
102
101
95
95
100
96
97
96
97
97
93
101
103
106
114
112
116
115
117
120
119
125
120
122
128
126
123
114
109
109
105
103
98
99
105
106
112
111
104
95
87
89
90
89
90
86
91
94
100
108
106
58
103
110
109
103
104
107
104
106
99
98
97
96
103
99
96
94
96
101
97
98
101
105
113
112
115
120
120
125
128
128
130
129
129
127
125
122
115
117
112
113
115
108
104
96
98
98
92
95
93
90
89
87
90
87
91
98
98
106
104
47
97
112
103
103
102
107
107
103
105
97
94
99
96
96
97
98
97
98
103
104
105
105
108
112
110
115
117
115
120
122
123
126
127
128
125
125
123
124
128
119
117
110
101
101
100
99
93
92
95
90
88
87
89
90
87
95
97
95
108
54
94
107
103
108
104
105
107
101
102
95
96
98
93
97
100
101
101
101
108
108
106
110
106
106
106
109
113
113
124
127
126
129
123
124
124
121
126
128
130
128
122
120
110
101
98
97
100
97
96
91
86
91
85
87
89
90
97
92
99
56
89
100
106
106
110
106
104
103
98
99
96
95
97
99
105
103
105
105
103
110
114
114
114
111
114
114
118
125
124
128
127
128
129
129
135
135
136
134
133
132
126
120
109
102
104
98
95
98
91
89
85
88
89
83
90
91
88
93
90
48
87
102
105
104
107
108
106
106
97
94
93
91
97
95
96
100
100
103
105
108
110
111
115
113
115
116
116
122
123
124
126
126
133
133
133
137
134
133
131
126
118
111
112
108
106
102
93
97
92
90
90
85
87
84
85
87
85
94
94
48
80
102
104
105
106
108
107
105
103
97
96
95
92
96
96
100
103
104
110
109
110
109
110
117
116
117
122
126
131
130
132
137
139
138
131
131
131
131
128
118
113
111
112
116
105
104
101
92
91
86
87
86
80
82
79
85
89
87
94
