P2
60 28
255
112
108
106
107
104
98
92
85
82
82
87
91
95
100
101
102
102
102
100
97
102
107
115
129
137
142
146
150
161
175
176
170
145
108
147
227
244
201
164
173
173
127
88
86
85
84
83
81
77
60
59
73
80
81
83
90
99
113
117
117
110
108
105
103
98
92
85
82
87
91
96
100
97
91
87
83
80
78
93
129
147
144
137
133
132
121
111
103
98
113
118
113
104
84
103
151
168
144
133
178
197
143
107
105
100
98
103
103
99
93
85
84
85
80
78
80
83
90
91
88
101
102
100
96
95
90
88
86
87
88
85
85
79
73
68
62
66
74
82
90
95
101
103
107
117
126
128
124
145
166
139
109
104
105
103
100
102
106
103
96
100
105
106
105
102
102
98
89
90
99
106
101
90
87
89
88
93
99
99
103
98
99
101
101
100
98
94
92
87
82
79
74
72
76
87
96
99
101
102
106
113
114
121
129
146
161
144
126
133
137
127
120
120
120
119
120
117
114
117
112
114
118
120
125
123
119
113
105
100
90
82
79
80
83
89
93
91
97
103
109
97
99
97
95
94
96
95
88
74
67
73
81
94
101
98
100
101
100
102
105
111
116
123
130
143
149
137
131
125
123
126
123
123
122
119
118
114
117
115
110
109
103
102
105
108
107
102
103
102
99
90
73
65
81
92
97
97
98
107
110
89
96
95
96
97
93
82
67
66
77
92
102
101
99
95
93
97
97
100
105
109
115
119
122
126
129
127
122
120
120
116
114
114
117
119
116
114
114
114
113
109
107
103
101
104
100
97
99
101
103
98
81
61
67
85
94
100
97
100
109
83
89
92
95
91
71
59
68
86
100
101
98
97
95
94
93
97
100
103
107
109
112
111
113
114
114
116
114
107
100
94
93
92
94
98
100
104
107
110
113
114
111
106
104
101
96
95
93
95
99
98
90
71
63
78
89
90
91
95
104
82
79
83
84
68
59
76
97
99
98
97
93
94
94
96
97
96
96
97
98
97
91
92
98
99
101
103
101
96
93
93
88
86
84
83
83
83
88
96
103
107
108
109
106
100
97
93
88
87
87
92
93
84
75
75
83
85
90
89
87
82
80
83
69
61
81
96
99
100
100
97
93
94
95
94
91
86
82
84
84
87
90
97
102
101
104
100
97
97
96
99
98
94
89
84
86
82
78
81
88
96
97
99
100
97
96
93
89
86
85
87
90
89
78
73
76
76
80
84
85
92
86
68
62
78
90
96
98
97
95
91
89
88
87
84
77
78
81
87
92
95
97
96
100
101
101
101
96
98
100
95
94
92
88
85
82
87
87
81
79
82
90
95
98
98
95
94
90
85
84
86
90
88
83
86
91
93
98
109
113
97
85
59
69
88
89
89
90
88
89
89
88
84
76
72
75
84
87
86
91
91
90
92
92
94
97
101
101
99
93
87
89
87
83
83
82
83
82
80
80
79
82
86
89
91
91
92
92
90
89
87
90
87
76
80
86
93
106
113
120
88
84
73
76
81
84
85
86
83
84
85
82
77
68
71
87
91
87
83
85
87
86
91
89
82
81
79
74
69
68
66
62
64
67
75
84
81
80
79
78
80
83
86
89
89
90
89
93
94
91
89
86
83
79
81
87
92
106
116
121
181
132
87
83
86
86
83
79
78
79
80
75
70
72
86
95
87
81
77
75
80
77
69
58
45
39
44
63
65
55
52
48
47
54
72
84
82
80
77
74
80
83
85
89
91
97
99
98
98
91
87
85
79
76
75
80
89
103
118
120
248
175
87
82
94
90
87
80
77
76
72
72
70
73
83
87
83
76
70
62
54
53
52
47
42
44
45
39
34
35
37
44
45
51
79
97
97
88
80
74
71
78
85
96
104
108
111
109
104
99
93
88
77
73
74
75
90
104
115
123
90
72
67
92
108
102
94
89
81
76
71
67
67
68
71
69
63
59
52
49
49
55
63
63
56
56
54
43
34
33
44
53
52
63
94
115
112
99
90
91
87
83
81
87
105
118
120
112
107
102
94
88
78
70
71
71
86
103
111
125
95
76
77
99
112
108
100
98
88
82
77
67
63
62
58
55
47
44
47
53
63
82
103
98
72
58
55
54
53
53
55
53
56
81
114
123
111
98
92
89
87
79
78
92
109
118
119
115
106
99
95
88
77
68
60
57
72
100
112
119
124
90
78
105
116
112
110
106
99
87
77
71
66
60
54
56
57
52
56
67
82
96
108
111
95
72
63
62
60
57
52
58
84
111
119
109
94
84
76
74
85
91
98
109
114
116
114
109
101
96
94
86
72
63
55
54
69
94
114
116
108
75
70
102
116
118
118
110
106
101
95
84
74
70
68
67
71
73
76
82
87
95
107
117
119
112
94
74
66
68
79
97
112
112
101
90
85
83
87
90
96
108
109
109
113
107
103
101
95
91
88
82
70
57
54
62
78
94
109
117
108
74
68
99
115
115
118
117
111
108
101
95
91
89
88
86
84
82
84
88
84
83
88
95
104
109
110
105
104
107
108
104
98
93
94
92
96
98
91
94
97
103
107
107
107
105
102
97
90
87
87
83
67
48
47
58
78
101
113
120
113
78
63
94
117
119
118
122
120
114
108
101
99
100
98
98
92
85
81
83
87
86
87
87
88
93
96
95
95
97
98
94
95
98
103
106
98
90
83
85
96
101
106
109
108
105
100
93
88
88
93
82
54
30
38
67
86
106
117
119
119
85
60
97
121
119
118
118
118
115
110
102
98
99
100
98
96
94
87
79
81
82
83
89
93
95
95
94
93
83
83
92
97
97
91
89
84
81
87
93
98
100
104
108
109
106
100
94
89
78
68
61
38
30
47
73
93
104
114
115
114
93
62
85
116
117
118
118
118
117
113
108
102
99
98
101
105
102
98
95
90
88
87
87
83
80
85
83
82
81
81
90
92
90
87
83
88
90
96
101
99
102
110
115
111
104
98
94
90
83
72
54
31
34
56
81
103
109
115
119
119
99
65
77
108
116
119
118
115
118
114
107
103
100
98
96
98
100
103
104
101
99
99
99
98
95
95
95
92
95
96
95
93
90
92
94
99
102
99
104
108
112
114
112
110
104
94
88
88
86
72
48
38
48
76
95
106
118
120
120
115
100
72
72
100
115
114
115
116
118
117
111
106
102
100
100
99
100
103
104
103
104
107
108
106
105
103
102
101
99
97
95
98
98
100
105
104
106
108
112
116
114
112
109
106
100
92
89
88
80
64
46
48
64
86
103
105
115
119
121
115
108
73
69
94
110
114
114
115
113
115
114
110
108
104
101
97
97
101
101
101
102
104
103
101
103
102
101
102
99
99
101
102
105
108
108
108
110
113
116
120
115
110
108
101
96
91
88
89
77
56
49
59
80
92
100
108
113
119
119
111
113
83
62
81
106
117
115
114
113
116
118
114
113
110
104
101
100
104
103
102
106
104
102
102
101
102
101
103
103
103
109
111
111
112
110
114
118
122
121
118
119
114
110
106
99
95
88
81
71
55
57
72
89
102
108
115
114
117
118
109
111
103
76
76
103
111
111
111
114
115
115
115
114
114
110
109
105
99
102
104
104
105
103
104
105
105
102
105
111
109
110
112
113
112
109
114
119
120
121
118
115
112
105
101
96
90
85
72
61
49
59
85
97
106
109
114
118
115
117
110
110
111
91
79
92
106
115
114
111
115
117
119
116
113
113
111
109
107
105
104
105
108
109
112
113
109
109
111
110
112
115
118
117
116
112
112
122
124
122
120
114
111
106
100
96
90
82
64
50
57
73
93
100
103
109
111
120
120
116
