P2
60 28
255
219
216
215
216
221
224
227
231
233
236
238
243
248
249
251
253
254
254
254
254
253
250
247
242
237
225
218
213
201
194
184
179
173
166
166
163
165
170
170
172
172
173
178
181
189
196
201
208
216
227
236
243
251
254
254
254
254
254
254
254
217
213
215
216
218
225
224
223
229
237
245
251
253
253
253
254
254
254
254
254
254
253
252
249
243
236
224
217
208
195
193
184
176
169
161
165
163
161
163
163
169
168
172
180
183
191
200
212
221
229
238
243
249
254
254
254
254
254
254
254
217
217
217
219
221
225
226
228
236
244
250
254
254
254
254
254
254
254
254
252
249
245
241
239
233
227
220
213
210
199
192
184
176
173
164
162
161
160
163
159
165
168
168
175
179
190
198
204
219
230
237
245
251
254
254
254
254
254
254
254
215
217
219
221
224
227
233
239
244
250
253
254
254
251
244
237
229
222
218
215
209
204
198
197
198
192
193
193
191
190
183
183
177
170
168
161
160
157
155
159
158
163
166
170
180
184
192
203
216
229
239
248
253
254
254
254
254
254
254
254
222
221
220
223
230
236
243
251
253
250
247
240
228
216
208
202
199
200
202
206
204
201
202
197
197
193
186
180
170
168
165
166
169
166
166
160
158
157
150
158
161
162
163
164
175
182
189
203
213
224
237
247
252
254
254
254
254
254
254
254
221
220
224
229
236
243
248
247
238
224
211
201
198
199
202
209
213
219
228
233
235
233
231
227
222
220
209
197
184
168
160
149
148
152
152
159
156
154
155
153
158
159
163
166
168
179
188
199
212
221
232
244
251
254
254
254
254
254
254
254
224
227
234
239
240
236
226
214
200
191
192
198
207
219
227
230
233
234
235
238
238
237
234
231
226
219
213
203
196
185
175
161
147
143
140
148
150
149
153
148
149
156
160
166
171
178
189
197
209
219
230
242
250
254
254
254
254
254
254
254
227
231
233
231
222
208
195
184
185
198
209
218
224
228
230
229
227
226
224
223
221
216
212
211
207
205
199
192
188
180
170
166
156
145
139
134
142
144
145
151
148
155
159
160
170
177
186
195
206
217
224
238
248
252
254
254
254
254
254
254
228
227
221
210
193
181
184
192
201
212
216
216
220
221
216
210
207
204
198
192
189
186
184
185
184
181
176
172
164
159
155
152
153
146
141
135
134
139
138
145
148
151
157
159
171
179
185
194
204
217
225
235
246
251
254
254
254
254
254
254
218
209
197
184
177
185
197
204
206
206
204
204
201
193
184
175
165
160
154
146
143
141
142
144
148
146
143
148
146
143
142
133
132
134
130
129
127
131
138
138
144
147
155
162
168
180
188
197
207
214
225
236
247
254
254
254
254
254
254
254
205
192
178
179
186
191
194
197
195
188
178
172
164
155
148
136
126
118
112
105
100
97
95
99
101
104
110
118
126
123
121
119
116
120
120
121
119
119
131
135
141
147
153
164
168
180
190
198
209
215
227
239
248
254
254
254
254
254
254
254
186
180
179
184
187
186
183
178
169
150
132
126
124
120
105
90
80
75
76
75
71
69
69
70
72
75
78
82
89
94
94
100
104
108
111
108
109
106
115
134
139
149
156
162
176
181
191
205
213
220
228
240
250
253
254
254
254
254
254
254
179
179
183
176
169
167
157
144
129
113
102
95
90
84
78
74
71
75
77
75
72
70
71
70
71
77
77
75
71
75
82
89
96
94
96
97
97
102
104
119
134
147
158
164
177
187
201
214
218
225
232
241
251
254
254
254
254
254
254
254
177
170
165
153
141
129
112
98
84
80
82
82
85
89
85
75
77
86
87
83
76
68
63
62
74
84
85
83
79
83
95
103
106
101
92
88
85
88
92
96
122
144
159
174
180
196
210
222
227
228
237
245
250
254
254
254
254
254
254
254
162
148
136
126
111
97
86
75
71
71
76
94
114
120
105
88
84
89
89
83
75
68
61
61
75
92
98
93
87
94
120
138
136
129
112
95
84
80
85
85
107
136
159
182
190
203
217
226
234
236
241
248
251
253
254
254
254
254
254
254
150
137
123
112
102
91
86
82
80
79
85
103
131
147
126
101
90
89
89
83
79
75
70
76
89
99
100
93
90
107
142
159
153
145
128
108
94
86
83
79
83
121
163
185
200
210
222
232
236
239
243
249
251
252
254
254
254
254
254
254
153
145
139
132
125
118
113
113
108
102
99
107
129
147
138
110
87
87
91
86
86
85
84
88
98
102
98
91
95
122
149
155
154
147
134
117
104
97
89
91
91
112
159
189
205
215
227
240
244
246
248
251
252
253
254
254
254
254
254
254
173
168
169
170
164
158
155
154
147
136
126
121
126
136
137
115
97
92
88
86
86
88
90
93
98
98
94
93
109
136
147
148
145
134
124
115
104
98
100
105
117
134
168
197
207
222
233
240
247
250
251
250
250
254
254
254
254
254
254
254
192
194
195
198
192
185
181
176
172
165
154
146
138
137
135
121
105
95
91
90
91
94
94
93
96
94
93
101
118
134
137
134
131
127
120
117
116
116
126
137
155
177
192
205
215
230
242
247
251
253
252
251
252
254
254
254
254
254
254
254
221
226
222
211
202
195
188
183
185
180
166
157
151
147
139
130
123
119
112
109
110
107
105
106
106
107
112
120
127
132
131
133
136
139
141
141
149
154
160
175
188
200
209
215
225
237
248
253
254
254
253
253
254
254
254
254
254
254
254
254
242
241
236
226
217
206
198
194
190
184
176
171
165
155
149
143
138
138
134
129
127
129
129
127
126
129
132
138
143
144
144
149
158
161
168
175
178
181
183
199
208
210
218
224
237
249
252
252
254
253
252
253
254
254
254
254
254
254
254
254
254
250
244
236
227
222
214
206
199
194
190
183
174
165
159
156
153
151
145
139
138
138
136
133
131
137
141
147
149
150
162
170
177
180
178
187
188
191
202
209
215
219
228
239
248
253
253
254
254
254
253
252
253
254
254
254
254
254
254
254
254
252
250
247
243
237
226
213
205
200
194
184
177
173
164
162
161
155
152
147
144
145
143
143
144
152
159
162
171
177
183
188
185
188
189
194
205
210
218
221
225
234
240
249
254
254
254
254
254
254
254
253
253
254
254
254
254
254
254
254
254
254
254
254
254
251
243
231
223
215
204
193
182
177
174
170
173
173
168
165
164
169
168
170
177
180
187
187
184
186
183
187
191
198
211
217
222
223
226
232
237
247
252
254
254
254
254
254
254
254
253
253
254
254
254
254
254
254
254
254
254
254
254
254
254
254
254
254
249
242
234
226
219
210
208
207
209
211
202
199
201
202
197
190
190
189
190
191
186
188
194
199
209
215
222
225
226
233
236
243
251
253
254
254
254
254
254
254
253
253
253
253
254
254
254
254
254
254
254
254
254
254
254
254
254
254
254
254
254
254
251
246
240
234
230
231
229
227
223
218
215
206
198
192
189
195
195
197
201
206
216
218
222
226
230
236
238
244
250
252
254
254
254
254
254
254
254
254
253
251
251
250
251
253
253
254
254
254
254
254
254
254
254
254
254
254
254
254
254
254
253
253
251
249
245
241
238
233
227
220
220
216
208
208
207
211
217
216
222
225
227
232
232
238
241
242
249
253
254
254
254
254
254
254
254
254
254
254
254
251
251
252
252
254
254
254
254
254
254
254
254
254
254
254
254
254
254
254
254
254
254
254
254
254
253
251
248
244
239
236
232
229
226
225
228
229
229
230
232
235
235
242
247
250
252
252
254
254
254
254
254
254
254
254
254
254
254
254
253
252
251
251
254
254
254
254
254
254
254
254
