P2
60 28
255
228
224
227
227
230
235
195
103
45
42
40
29
24
26
31
53
90
119
131
132
121
99
79
80
88
87
85
80
78
74
71
69
61
51
48
52
52
50
53
55
63
78
90
100
106
114
119
121
131
139
144
147
142
144
147
154
163
161
160
151
227
222
228
226
228
234
175
99
69
51
31
24
25
25
35
70
111
130
136
127
103
84
80
86
81
75
78
79
75
66
55
49
46
46
48
50
55
56
53
49
46
59
75
87
96
101
108
113
122
131
133
139
141
142
144
142
146
148
147
137
223
227
222
227
231
233
225
174
90
37
29
28
26
22
44
90
121
133
131
113
94
86
83
81
84
86
90
94
92
93
99
97
87
70
60
56
52
58
59
53
51
53
64
77
87
92
95
105
113
123
129
131
135
133
136
142
143
146
141
126
223
227
224
227
230
231
229
176
81
33
35
29
16
19
60
112
135
135
125
103
95
99
93
84
87
98
103
112
116
120
132
136
134
124
108
92
77
67
58
53
52
52
55
61
71
84
89
95
105
113
123
125
126
131
135
140
139
138
131
111
225
222
228
227
229
230
217
166
85
39
32
24
15
36
86
124
138
128
112
109
111
106
102
109
113
114
118
121
126
130
133
142
149
151
152
144
131
113
96
83
75
66
59
59
62
76
92
96
103
111
114
122
129
137
139
133
133
133
129
107
229
223
225
226
226
232
230
184
97
42
27
21
21
47
92
128
144
128
108
100
91
98
112
115
114
115
118
120
122
123
123
127
124
122
120
114
116
118
117
113
100
90
82
76
78
83
94
98
100
108
113
118
126
134
134
130
135
137
126
107
223
227
223
226
229
231
229
189
118
52
22
21
28
61
112
140
134
115
105
106
103
101
108
109
111
117
118
120
113
112
116
119
123
119
115
114
111
108
101
100
103
103
102
95
93
96
96
103
108
107
108
113
124
129
134
140
142
140
127
110
223
228
224
226
227
225
231
213
152
74
26
20
35
71
119
141
132
119
106
102
104
105
108
114
117
119
115
110
108
108
114
114
112
110
109
105
97
94
93
91
95
100
103
102
97
96
92
96
103
105
109
111
117
126
133
142
140
131
125
123
228
224
228
226
225
228
229
228
190
94
23
21
40
82
131
143
130
114
101
97
107
118
119
115
107
105
104
99
105
105
102
99
89
84
80
75
70
68
71
69
72
83
91
99
103
101
95
90
96
100
104
115
121
129
136
142
141
132
135
139
228
224
228
227
225
230
228
236
205
102
28
18
36
88
135
140
125
103
95
108
114
113
110
106
103
99
96
92
88
83
74
67
64
68
77
80
79
79
77
75
70
66
71
81
95
105
107
97
88
90
96
108
113
123
133
129
128
128
128
130
224
230
225
227
228
225
230
233
211
138
54
14
40
97
137
137
109
99
112
121
116
111
109
102
98
93
86
74
61
62
66
64
59
56
55
55
59
65
73
89
93
85
74
66
76
91
101
104
96
91
93
95
104
113
120
123
123
125
125
123
223
228
224
225
226
223
226
226
226
181
77
16
45
103
136
122
99
117
131
115
105
99
96
96
90
83
66
58
59
50
53
78
110
114
83
59
59
61
62
69
78
86
90
81
69
75
87
100
104
94
89
88
91
99
105
108
102
106
115
110
227
225
227
225
225
227
225
232
229
154
49
27
109
179
158
100
97
134
131
110
103
98
92
90
78
64
59
55
50
60
96
141
150
103
66
66
64
65
76
75
73
86
96
98
87
74
78
90
103
103
94
93
90
85
66
41
48
86
112
107
228
222
225
226
225
228
224
235
218
109
16
18
79
129
102
71
106
140
129
112
104
94
87
82
72
60
53
44
56
95
135
155
130
84
68
71
54
44
61
76
83
102
110
98
93
91
90
93
98
104
101
98
79
34
31
71
97
108
111
111
223
228
223
227
228
225
230
236
207
89
4
10
65
128
122
98
117
135
124
110
102
99
94
82
72
66
60
60
79
116
153
193
176
101
63
113
161
135
100
84
77
107
146
125
89
85
101
99
90
121
130
97
52
35
68
98
107
117
118
119
221
228
226
225
227
223
229
236
231
167
64
23
69
120
114
100
119
133
120
108
104
97
97
124
139
112
79
72
108
168
217
240
230
167
92
69
68
57
61
69
69
107
138
144
148
138
127
102
107
172
196
115
50
61
80
99
111
119
123
123
225
222
227
225
225
227
226
234
235
188
91
32
69
115
106
104
126
130
122
117
109
98
95
109
116
106
81
82
125
161
188
197
212
181
104
70
63
73
78
69
82
111
133
136
125
131
115
100
116
167
177
95
51
70
92
105
117
124
127
125
227
222
224
224
223
228
225
227
230
208
122
40
68
112
106
106
122
127
123
119
108
103
99
85
88
108
114
106
91
121
140
159
211
178
93
62
76
83
82
78
82
88
88
69
80
86
82
106
89
86
101
80
57
71
100
112
120
124
127
130
223
228
224
227
226
223
227
225
226
233
189
77
56
110
112
103
116
131
124
113
107
102
99
90
102
141
148
118
119
160
175
197
211
164
108
93
102
103
105
111
103
90
88
79
80
93
100
104
71
63
90
75
58
80
107
120
125
129
126
130
221
226
224
223
224
222
226
222
223
232
212
148
118
133
122
107
120
137
131
110
99
102
105
106
116
149
148
118
136
154
179
207
185
131
93
99
111
116
114
105
96
85
82
89
94
99
96
82
69
81
92
62
63
95
107
119
123
126
131
131
224
222
227
225
225
229
223
226
228
205
153
113
119
138
136
112
114
134
137
124
114
115
113
108
114
142
141
125
149
166
194
199
151
110
94
102
107
109
103
87
83
90
93
96
95
88
77
64
66
84
83
63
75
103
110
117
129
128
128
127
227
223
227
225
223
228
225
232
201
114
65
84
124
145
140
127
120
125
133
131
123
123
118
108
113
133
138
132
125
141
173
165
125
103
106
103
106
104
96
95
95
103
103
97
91
85
93
97
95
86
55
62
95
104
114
120
123
122
121
126
221
226
224
226
226
224
233
227
173
104
87
104
133
144
139
133
121
119
122
128
129
120
119
110
112
134
138
120
106
115
146
150
122
105
109
114
111
113
112
109
106
104
104
94
91
101
117
128
112
79
70
88
105
109
116
121
118
121
119
123
217
223
220
222
226
224
232
215
156
105
89
106
138
146
136
135
130
118
115
119
123
121
118
119
121
138
140
120
111
103
108
109
108
113
111
117
120
120
122
116
116
112
99
96
106
124
135
122
90
75
88
100
105
105
108
117
118
120
119
117
225
221
227
225
224
227
230
227
176
105
84
111
137
141
136
130
128
120
113
113
117
121
118
120
132
139
133
120
116
108
104
113
115
116
117
121
124
123
124
118
110
105
97
106
125
133
121
92
86
93
99
107
105
107
110
113
120
118
116
120
225
220
223
226
224
226
229
234
187
102
81
112
135
139
132
127
126
120
118
119
117
120
122
124
127
123
117
112
112
109
108
117
119
118
118
118
122
119
114
111
101
101
113
123
126
113
84
60
74
96
103
107
103
103
107
108
116
117
116
121
221
227
222
223
225
220
229
237
203
113
71
106
138
140
134
132
120
118
120
119
116
113
118
121
120
117
110
106
107
109
111
115
120
120
120
120
117
117
110
104
108
115
123
120
106
82
54
56
81
103
108
98
99
105
108
111
111
116
120
121
221
229
222
220
224
222
231
237
206
122
74
105
141
143
135
131
121
120
124
123
121
116
116
120
126
131
124
121
121
117
117
115
116
117
114
115
112
108
106
111
121
120
114
111
106
100
89
87
101
110
110
99
103
109
105
111
113
118
124
121
