P2
60 28
255
216
221
221
224
224
226
229
229
235
237
236
239
240
243
244
245
245
236
233
229
226
221
210
210
201
194
188
178
177
170
167
166
161
165
162
164
170
168
173
173
175
186
191
196
199
204
214
223
231
233
241
250
252
254
254
254
254
254
254
254
218
219
218
217
224
230
235
239
242
245
244
248
251
251
252
251
252
249
245
244
236
231
220
212
211
201
194
188
180
177
170
167
164
160
163
158
161
165
162
168
171
176
184
190
197
204
214
222
227
236
242
249
254
254
254
254
254
254
254
254
215
214
216
214
224
232
237
244
247
250
252
252
253
252
252
250
245
242
239
233
228
221
215
208
207
204
196
193
183
178
171
164
164
157
159
159
157
164
162
164
167
171
180
183
194
205
212
223
228
235
241
248
254
254
254
254
254
254
254
254
213
212
214
221
230
239
244
248
251
252
251
246
237
232
226
221
215
209
205
200
198
196
192
193
189
189
184
180
182
175
174
168
161
163
156
158
159
159
164
161
164
169
175
183
186
196
208
217
227
234
241
249
253
254
254
254
254
254
254
254
215
217
222
232
237
242
246
247
243
231
222
209
199
199
196
194
195
191
195
194
196
196
188
187
179
174
168
161
167
166
165
166
159
161
155
151
155
151
158
160
161
167
171
176
184
194
204
214
224
231
241
249
252
254
254
254
254
254
254
254
220
229
238
241
243
238
230
220
208
199
191
192
198
203
215
219
226
228
227
231
228
227
219
205
200
188
176
166
153
156
152
156
161
156
157
152
151
152
153
159
161
165
172
177
185
192
201
210
217
230
239
247
253
253
254
254
254
254
254
254
226
232
237
232
224
212
199
192
188
196
208
217
226
230
234
238
239
236
233
232
229
226
221
212
206
200
190
180
164
157
148
140
148
146
149
149
147
153
150
155
160
160
168
172
179
187
195
207
216
227
237
243
250
254
254
254
254
254
254
254
229
225
217
204
190
186
190
200
215
223
229
230
230
229
228
229
228
222
217
216
214
208
204
199
195
190
182
175
170
159
155
144
136
142
140
146
148
147
152
151
156
161
166
174
178
186
194
204
215
220
230
240
248
254
254
254
254
254
254
254
215
201
186
183
187
197
210
217
221
221
219
217
212
210
208
203
197
191
189
190
189
185
180
182
177
169
162
154
153
150
150
145
136
138
133
134
140
141
147
148
153
164
166
174
182
185
191
201
212
219
227
239
248
253
254
254
254
254
254
254
190
181
180
188
202
208
211
215
215
209
198
189
184
178
173
165
160
155
152
156
155
150
151
153
155
148
142
137
132
136
134
134
134
129
131
129
135
141
141
150
153
160
168
170
179
187
192
201
211
222
229
241
252
253
254
254
254
254
254
254
179
183
196
200
199
196
195
195
192
183
165
147
141
140
137
129
120
113
105
105
105
102
107
117
122
124
122
120
118
122
121
119
125
121
121
124
127
136
136
145
152
157
169
170
178
190
195
204
213
223
231
239
250
254
254
254
254
254
254
254
182
191
197
199
196
183
168
162
154
147
138
118
101
92
85
82
77
75
73
71
73
71
75
78
79
87
90
93
100
104
111
110
109
111
106
113
121
130
140
141
154
162
167
176
181
195
204
208
217
224
235
244
248
254
254
254
254
254
254
254
187
186
183
183
178
157
134
122
118
111
98
82
70
70
75
72
69
67
64
60
60
65
68
70
69
67
70
76
84
89
95
101
99
105
103
102
111
122
139
145
153
164
167
178
190
200
211
211
219
227
234
243
247
252
254
254
254
254
254
254
178
174
166
154
140
122
108
96
86
81
78
73
66
75
90
89
81
72
66
62
63
69
75
83
85
77
75
78
88
98
98
99
94
91
96
93
97
107
123
148
158
166
177
183
199
209
214
217
218
229
238
246
250
251
254
254
254
254
254
254
157
148
138
117
93
85
83
83
86
94
98
88
77
81
95
99
87
77
73
68
71
70
74
89
95
91
84
88
106
124
129
118
102
87
86
88
85
94
109
137
158
170
186
192
205
217
221
226
226
231
238
243
250
253
254
254
254
254
254
254
133
115
98
82
72
72
76
88
106
131
135
110
90
82
89
95
91
86
73
67
68
68
79
95
102
99
89
92
118
146
156
144
123
103
87
87
84
83
99
121
158
181
191
204
210
223
230
231
235
235
242
246
247
253
254
254
254
254
254
254
109
96
82
73
71
74
90
110
133
160
158
122
93
83
92
98
92
84
72
62
58
65
84
100
108
105
92
97
127
156
162
153
140
121
103
93
88
81
85
109
149
184
195
206
217
227
235
234
237
239
241
245
247
251
254
254
254
254
254
254
103
94
84
80
82
92
110
129
153
170
171
142
104
95
96
96
96
87
80
76
75
84
100
108
110
102
91
105
136
157
162
156
142
129
118
104
97
94
87
109
152
185
204
209
223
233
237
237
237
241
241
245
250
251
253
254
254
254
254
254
128
123
117
110
109
111
115
126
145
163
180
162
119
95
91
96
95
89
90
91
91
98
108
113
109
95
88
114
151
161
156
148
140
127
118
109
101
106
112
139
176
193
205
211
224
235
239
242
242
242
241
243
251
253
253
254
254
254
254
254
167
162
152
147
139
129
122
125
135
155
176
171
142
104
90
94
96
97
97
97
99
103
110
110
103
93
101
131
152
155
149
138
127
119
111
113
121
136
157
174
195
202
207
223
234
242
246
247
248
244
246
250
252
254
254
254
254
254
254
254
183
176
171
170
165
156
150
141
136
145
155
157
141
112
99
98
95
94
96
99
99
102
105
103
96
96
114
133
144
143
136
133
129
133
137
143
157
172
191
199
202
208
213
228
239
246
249
247
246
245
246
248
249
252
254
254
254
254
254
254
195
188
182
179
182
180
173
162
154
145
142
140
133
126
116
108
104
105
106
103
104
108
107
106
113
123
134
139
141
145
145
150
159
164
172
174
183
194
199
206
208
216
229
238
244
247
251
251
247
247
245
247
252
252
254
254
254
254
254
254
203
195
193
190
190
190
179
171
165
160
154
144
139
136
134
132
127
127
127
126
128
127
127
132
138
146
148
148
152
163
172
175
184
185
187
195
198
205
204
206
217
226
239
244
246
248
248
250
248
246
247
249
253
254
254
254
254
254
254
254
218
209
203
202
199
193
186
185
180
165
158
155
152
149
146
146
143
141
140
140
139
137
140
147
152
154
157
167
178
183
188
189
191
197
197
205
206
208
213
217
231
239
246
252
252
253
252
251
251
245
246
250
251
253
254
254
254
254
254
254
230
225
215
209
201
194
193
189
181
171
164
160
158
159
153
150
148
141
142
139
138
142
145
160
167
171
179
183
189
191
191
194
197
206
211
209
211
214
223
234
240
247
252
253
252
251
250
249
250
247
246
250
251
253
254
254
254
254
254
254
243
240
232
221
213
204
197
187
179
177
170
167
168
167
168
162
159
162
160
162
161
166
174
182
191
187
187
188
191
197
199
204
208
209
211
214
223
231
240
250
252
252
253
253
254
250
248
246
244
247
244
247
253
253
254
254
254
254
254
254
254
252
249
242
236
227
217
209
199
195
189
187
193
194
194
191
189
193
189
186
185
184
190
192
194
192
187
194
198
202
204
203
210
215
222
234
240
248
253
254
253
252
253
253
253
251
247
248
244
243
247
247
251
254
254
254
254
254
254
254
254
254
254
253
251
249
243
235
233
229
228
225
226
229
222
216
212
210
205
193
190
189
192
196
193
200
202
204
207
207
215
218
224
234
239
247
253
254
254
254
254
254
254
253
251
252
251
248
245
241
246
251
252
253
253
253
254
254
254
254
