P2
60 28
255
217
219
219
220
224
218
218
216
215
216
210
213
211
209
213
209
213
211
209
211
205
205
199
193
193
185
185
178
168
169
165
166
163
163
166
161
166
164
162
166
164
172
175
179
192
196
207
213
220
232
238
246
253
253
254
254
254
254
254
254
217
214
218
215
217
219
212
214
210
212
217
214
216
211
212
215
211
217
214
214
216
206
203
196
194
194
184
182
173
170
172
163
166
162
161
167
160
163
160
158
165
164
171
176
182
195
202
213
220
226
237
241
249
253
253
254
254
254
254
254
213
211
215
215
210
217
215
213
216
215
221
218
217
217
215
223
220
219
220
215
218
211
208
206
198
200
190
185
183
175
178
170
166
167
163
166
159
160
161
156
162
162
167
171
176
191
197
208
221
225
235
238
245
252
252
254
254
254
254
254
206
211
207
212
214
212
214
208
213
216
216
221
218
224
224
221
227
222
223
219
213
215
204
202
200
194
195
187
189
183
174
177
167
165
165
161
164
158
157
157
154
163
161
165
173
176
192
202
210
220
226
236
242
247
252
252
254
254
254
254
202
207
210
210
213
212
217
213
215
222
219
227
228
230
234
223
220
217
212
211
204
204
198
193
195
188
191
189
182
182
174
174
169
164
168
160
163
163
159
161
156
160
162
164
173
175
185
197
206
218
223
234
241
246
253
254
254
254
254
254
201
201
206
204
208
215
213
218
219
221
225
224
226
217
208
198
186
186
177
171
171
164
170
165
167
176
174
180
176
175
174
160
163
162
159
163
158
162
160
157
157
153
159
161
168
179
181
192
201
209
220
226
240
247
249
252
252
254
254
254
203
201
202
205
206
216
218
224
228
218
213
201
193
183
170
170
160
157
159
151
154
146
143
143
139
147
144
149
157
154
161
156
157
159
153
160
156
156
158
153
156
155
158
165
166
174
181
192
202
206
217
225
238
248
248
252
254
254
254
254
196
201
198
207
214
218
227
219
208
192
178
178
173
179
180
182
192
185
188
188
180
179
170
166
158
146
145
135
135
137
134
146
146
150
151
147
155
152
155
156
151
158
158
162
167
171
185
190
198
208
214
229
235
243
250
249
252
253
253
251
189
197
201
206
215
210
205
192
181
182
183
198
209
213
223
221
222
221
217
218
208
206
202
195
194
183
176
161
143
138
127
131
134
135
146
145
150
151
151
155
152
159
162
163
174
178
186
192
198
212
217
227
237
243
250
249
251
251
250
252
190
194
207
208
198
187
179
188
192
204
220
223
228
226
225
225
222
222
218
217
211
204
205
200
197
195
185
180
166
153
145
130
129
129
133
143
140
145
146
148
155
154
161
167
173
181
182
192
201
210
221
226
237
244
244
247
247
251
250
250
190
195
196
188
171
178
192
208
218
215
222
225
224
222
218
219
212
207
210
205
202
197
192
192
186
183
178
172
169
161
158
146
137
134
127
134
133
136
144
145
152
153
161
175
177
183
185
192
206
212
222
227
236
244
242
248
248
249
252
247
184
189
173
167
178
198
215
212
212
213
212
212
208
207
203
201
195
182
182
179
175
174
170
170
166
163
164
157
158
156
152
156
146
144
140
130
134
133
138
144
145
156
165
180
190
188
192
193
204
216
220
230
232
237
244
243
249
249
249
246
173
167
159
171
200
210
215
211
201
201
195
192
190
181
175
167
156
146
140
140
131
128
131
134
141
138
144
145
141
144
137
141
146
145
149
141
141
139
136
144
147
158
173
190
205
202
201
200
204
221
225
230
234
235
243
241
246
249
245
245
166
153
164
184
202
212
209
201
186
178
170
158
149
134
120
112
105
103
99
97
94
91
94
97
101
106
112
122
120
122
126
122
132
138
142
149
143
145
145
147
158
164
185
204
214
216
206
207
211
220
230
228
233
237
238
243
239
244
247
245
154
157
176
193
194
197
198
189
170
149
133
112
95
89
82
84
86
85
87
85
86
85
88
89
81
87
97
111
117
110
114
112
114
122
126
138
140
143
151
151
164
178
199
221
229
229
214
208
215
221
229
228
232
240
237
239
240
243
248
247
151
172
184
188
184
174
168
160
143
118
96
79
71
81
90
88
85
82
82
85
88
94
104
102
87
83
103
127
132
124
118
116
106
105
110
113
127
130
140
154
163
188
206
226
238
227
216
208
216
223
223
232
233
235
236
235
243
244
247
248
157
175
182
179
170
155
140
124
104
86
70
63
78
104
112
100
89
82
77
80
87
99
113
111
95
84
103
137
148
146
135
124
110
102
107
105
114
119
119
135
148
175
201
222
237
223
210
211
217
224
224
231
234
234
240
239
244
246
242
247
166
168
170
165
154
133
110
94
84
80
71
72
90
111
117
107
96
83
76
79
84
100
115
113
101
87
99
138
157
155
147
132
122
113
108
109
102
109
112
113
131
155
198
227
229
222
211
217
222
223
228
225
232
234
235
242
240
245
245
241
164
158
148
142
125
106
93
90
96
95
83
79
84
99
113
110
101
85
77
75
78
99
120
122
106
90
104
141
163
157
149
139
132
126
115
117
117
122
128
123
142
172
210
232
221
215
214
219
226
223
228
227
230
237
235
242
241
240
246
242
149
143
128
113
99
89
90
102
118
119
98
79
81
95
107
106
97
86
75
72
83
105
125
130
113
92
107
140
160
162
153
147
132
124
120
117
134
144
156
170
181
207
222
226
220
211
218
222
224
226
224
231
231
234
238
236
243
242
245
247
138
122
105
92
87
91
104
121
139
140
112
86
87
95
104
108
103
96
92
94
104
117
129
126
105
91
113
149
165
167
156
145
136
129
139
146
165
184
194
211
218
227
231
222
219
215
219
224
222
229
228
229
231
231
238
235
240
245
241
247
127
102
88
82
91
110
127
142
154
155
131
99
87
96
108
110
109
108
109
114
120
125
128
118
95
97
128
159
170
170
173
164
162
166
174
187
196
210
220
225
227
224
222
215
213
219
217
222
224
225
230
225
230
233
232
237
234
241
247
245
114
96
88
92
108
128
143
153
163
168
154
125
92
89
101
102
107
110
113
118
120
124
122
111
103
126
158
175
180
177
181
181
182
190
194
201
206
209
215
215
215
213
210
212
214
221
223
223
226
220
225
227
229
234
229
234
237
241
248
247
94
95
102
110
121
134
144
152
161
168
168
147
115
95
90
95
101
105
107
111
116
117
118
127
141
159
177
178
174
173
175
183
181
186
191
192
203
205
209
211
207
210
209
216
219
218
226
223
220
223
220
227
228
229
233
231
240
241
244
248
94
107
114
119
126
130
135
144
151
159
169
170
156
129
108
105
107
111
115
120
130
142
151
157
166
168
173
170
164
167
165
171
173
176
191
196
205
211
210
214
209
210
216
217
222
222
225
227
221
222
220
225
228
226
235
237
242
246
243
248
122
129
133
132
135
136
131
135
141
148
160
170
167
152
139
131
130
138
145
150
156
162
167
165
161
159
154
159
161
158
162
162
175
187
196
206
207
211
210
211
217
217
223
220
216
223
222
227
225
218
222
218
225
229
230
240
239
244
246
242
158
156
150
150
145
140
136
135
138
145
157
164
159
150
141
140
145
150
156
159
159
154
153
152
148
154
156
157
155
150
164
177
189
203
206
212
212
212
217
217
223
223
223
224
220
227
225
225
226
215
220
220
222
229
227
238
241
241
245
241
170
167
161
158
152
145
145
142
147
152
156
155
142
136
134
134
139
137
141
144
139
143
139
147
154
151
156
151
156
168
176
194
201
206
209
209
216
214
217
224
225
229
222
221
224
220
227
224
221
220
215
223
223
225
233
234
243
241
241
245
