P2
60 28
255
100
100
99
99
95
94
95
95
94
89
87
84
76
72
68
70
77
95
115
107
112
141
157
133
105
118
141
155
167
128
70
57
62
68
71
72
72
71
73
74
75
73
75
79
78
75
69
70
81
82
83
85
87
92
88
87
88
85
89
91
101
104
101
98
96
93
95
94
93
90
80
71
65
67
70
75
101
120
105
86
102
136
155
126
100
127
141
157
170
125
80
75
74
70
72
75
77
75
76
80
81
81
82
84
92
90
78
69
69
76
79
84
90
89
89
88
89
84
84
90
103
104
100
93
95
96
95
94
87
81
73
64
62
63
65
67
77
89
91
85
95
124
145
131
109
133
152
165
172
133
93
83
82
82
81
79
77
77
77
81
83
84
87
87
93
88
73
71
74
74
73
75
84
85
84
84
83
81
72
90
102
99
99
98
94
96
96
92
85
75
72
72
76
72
69
80
88
87
83
82
88
125
153
126
116
140
159
167
171
141
95
89
89
88
88
88
87
86
83
80
80
77
83
93
102
107
95
79
73
74
74
72
76
81
78
72
57
52
68
103
100
100
98
97
96
98
94
86
77
69
70
84
93
84
80
93
94
85
79
82
86
110
143
131
125
138
143
157
186
163
101
86
91
92
90
91
91
86
84
84
79
80
105
138
149
151
150
123
96
90
85
77
73
67
50
35
31
38
49
55
101
101
98
94
96
97
92
80
69
68
73
87
92
88
91
92
92
88
85
85
89
113
140
139
131
147
153
174
194
146
96
93
96
93
94
94
92
89
88
87
84
82
97
122
127
129
133
126
114
98
86
76
65
47
31
41
61
67
71
76
99
99
98
97
99
96
87
80
77
74
66
68
81
88
90
90
88
86
86
89
93
105
130
133
121
125
123
153
194
159
103
92
96
94
93
93
91
91
90
89
86
79
81
87
83
85
88
91
98
95
82
69
59
40
41
58
70
80
81
84
98
100
99
98
99
95
85
81
79
68
60
68
81
86
87
85
83
86
86
92
98
117
138
129
124
124
117
168
222
169
100
90
92
94
96
92
89
89
90
87
83
82
85
86
86
84
83
88
92
92
86
69
58
45
42
62
74
80
86
86
100
97
98
100
95
89
79
72
71
67
70
78
82
83
81
82
85
87
89
95
103
116
125
119
120
120
116
144
176
147
100
86
84
84
85
83
83
84
84
83
80
80
82
84
85
87
87
84
87
92
92
81
60
46
44
59
72
77
85
88
98
101
101
100
97
88
82
81
82
76
74
83
84
82
78
74
82
87
86
91
98
101
101
98
107
114
101
119
156
139
93
73
68
66
66
63
65
68
73
78
78
78
80
81
81
84
85
83
84
90
96
92
74
62
60
58
68
76
81
86
93
96
97
96
96
90
85
94
100
90
82
81
80
79
79
79
83
84
83
84
88
87
81
80
89
100
77
85
155
160
103
71
62
58
59
58
60
62
59
61
68
74
79
81
84
87
83
82
82
84
95
100
91
79
68
57
60
74
77
83
93
95
98
98
94
92
91
106
108
88
82
81
78
76
74
77
78
81
82
76
69
66
70
75
90
100
90
82
85
85
76
68
61
57
60
63
63
63
64
64
63
64
70
75
78
83
83
82
84
88
99
108
100
77
59
54
57
70
78
78
91
96
96
97
92
79
83
132
142
95
76
78
77
78
74
75
79
76
72
64
60
68
72
72
76
76
73
64
53
48
43
41
38
38
46
54
58
61
66
68
67
67
65
69
71
74
76
77
78
79
91
106
103
88
66
51
54
62
76
80
88
94
90
86
81
62
57
85
93
81
77
79
80
78
75
73
74
66
59
60
65
71
72
70
65
56
44
36
35
34
32
33
30
32
42
59
69
63
59
62
65
69
72
73
71
68
71
73
73
75
77
71
72
114
114
54
42
62
72
81
92
96
74
53
49
47
58
72
71
74
77
78
77
72
72
72
65
58
57
63
68
70
68
57
46
41
33
44
66
65
63
60
46
33
41
69
93
94
74
62
60
65
76
82
82
79
74
72
72
75
81
69
71
124
124
64
49
61
69
80
94
97
61
39
44
46
49
57
63
68
73
73
70
69
68
62
56
57
60
66
67
61
57
52
46
41
34
50
79
71
51
51
48
40
43
68
97
103
91
78
66
63
65
69
80
87
80
76
77
78
79
89
107
114
105
124
108
60
64
75
90
89
64
51
49
53
59
69
73
67
66
66
63
63
61
56
53
58
63
57
51
54
64
64
53
43
39
35
35
40
40
44
46
40
47
74
102
106
95
86
75
67
64
64
69
79
86
85
83
79
80
109
119
71
89
178
142
61
63
73
73
80
70
56
51
50
63
85
82
66
64
66
62
59
55
53
56
56
50
45
51
61
75
78
58
45
42
38
39
40
41
42
45
46
59
85
95
90
82
74
67
68
70
67
69
77
83
83
82
78
81
98
94
55
106
172
107
54
69
78
61
78
69
52
51
57
61
69
71
69
68
69
70
63
57
55
53
50
47
48
55
68
80
82
68
50
40
38
38
38
40
41
45
51
63
76
80
77
72
71
74
76
79
79
79
81
83
84
80
78
79
78
73
64
69
76
68
68
71
73
53
63
68
72
74
76
73
69
66
68
75
76
71
62
56
55
54
54
56
58
61
63
70
75
73
62
48
44
47
50
53
56
63
70
74
75
74
75
76
79
81
83
88
89
86
83
81
83
85
84
83
81
77
66
55
56
61
68
69
67
57
76
87
93
90
88
86
76
69
70
75
75
69
65
63
61
60
61
67
70
69
67
67
70
71
70
67
63
64
70
73
76
75
78
82
81
79
76
78
80
79
83
84
84
82
78
81
84
89
90
88
87
79
69
61
61
67
68
69
69
61
90
99
98
94
89
87
82
73
71
74
77
73
69
68
66
66
70
73
72
68
68
69
69
71
72
69
66
70
76
78
78
78
80
79
77
77
78
79
77
76
75
73
72
71
73
79
84
91
92
89
86
76
68
65
61
66
69
66
70
76
94
99
96
93
89
90
88
80
76
74
74
75
73
73
71
69
73
74
74
71
72
73
69
68
68
66
66
69
72
76
79
80
79
78
77
77
78
75
74
73
71
70
68
68
74
81
87
88
90
88
79
70
64
66
67
65
67
68
72
82
94
98
100
96
92
88
88
86
78
73
73
77
78
79
81
78
77
78
76
77
77
75
75
73
74
75
76
78
80
82
82
84
85
82
80
77
75
74
73
74
73
73
72
73
81
85
88
91
91
89
73
62
65
66
68
67
68
72
70
87
98
99
101
97
93
90
90
90
82
73
72
78
85
85
83
82
79
80
78
76
80
80
80
81
80
81
82
84
85
84
85
83
82
79
75
76
75
76
78
79
77
76
76
76
82
88
86
89
91
75
58
57
69
73
70
70
68
72
73
84
95
99
99
98
92
89
90
92
91
81
74
77
83
86
86
83
79
77
77
76
78
79
79
80
81
82
81
80
79
76
77
80
80
79
77
79
78
77
79
76
78
82
80
81
83
85
87
81
69
59
59
62
67
71
68
68
69
72
77
78
91
97
96
96
93
92
95
92
90
91
85
78
79
82
85
82
79
75
77
78
77
78
76
76
77
76
79
79
80
80
79
81
80
79
78
77
79
79
79
81
82
84
83
85
85
84
79
65
59
62
65
69
71
70
68
69
71
69
73
80
95
98
98
97
97
95
94
93
94
96
93
86
75
71
76
81
83
83
79
79
77
76
77
77
80
78
77
81
83
83
80
79
78
78
81
80
79
79
81
87
89
90
91
87
82
70
60
58
60
69
72
72
73
69
70
70
69
72
73
