P2
60 28
255
102
99
96
90
89
86
79
78
78
78
78
76
73
73
77
81
84
89
92
94
94
96
110
124
124
109
106
129
147
150
123
97
99
97
100
104
101
100
99
98
97
102
112
116
123
122
114
104
90
85
83
77
76
78
78
83
82
83
86
87
99
98
94
91
87
84
81
77
71
67
69
76
82
85
87
87
89
90
90
95
95
99
102
114
134
128
133
153
160
156
122
101
100
99
104
102
101
101
98
98
94
95
101
106
113
112
111
109
99
94
83
74
74
80
85
83
82
83
86
91
94
92
92
90
89
85
77
66
66
75
83
86
88
88
86
87
89
89
92
97
103
105
99
115
138
146
153
160
184
172
124
104
100
102
98
98
101
99
98
97
96
95
94
99
99
102
108
102
102
102
91
76
66
73
83
86
87
86
86
90
91
89
88
88
84
74
62
64
76
85
90
90
88
84
83
86
90
94
93
98
108
105
104
115
128
143
141
151
189
172
121
100
99
102
99
96
96
98
100
95
94
95
95
95
93
99
103
102
106
107
101
88
71
69
79
85
84
82
85
89
84
85
85
81
73
67
70
81
85
89
92
87
84
84
85
88
88
91
94
99
105
105
108
113
126
128
116
124
138
132
107
94
98
99
99
98
96
98
97
96
99
98
97
94
94
97
98
101
96
97
98
91
86
82
79
81
81
79
79
79
75
81
82
74
67
72
83
87
89
89
87
84
85
86
87
87
89
91
93
99
100
103
103
107
115
105
98
96
89
91
88
87
87
85
88
90
90
93
96
98
96
98
99
94
94
92
92
94
92
92
93
92
87
83
80
77
76
74
75
78
73
76
71
66
75
83
85
85
87
86
85
84
81
83
86
87
89
88
86
86
87
90
88
89
91
90
93
90
88
85
83
84
80
79
76
74
80
83
86
90
93
97
94
94
90
88
90
88
89
89
90
94
97
104
97
81
79
80
84
86
73
69
62
69
81
84
85
87
87
85
83
80
82
84
83
87
85
79
77
79
82
81
86
94
93
94
92
89
87
79
80
79
77
78
73
73
73
72
75
80
87
88
89
92
91
90
89
86
86
84
84
86
94
108
97
84
84
89
94
96
75
72
68
72
77
79
80
82
82
82
79
78
82
83
82
77
72
74
78
80
83
84
89
90
90
89
85
82
80
80
80
76
77
75
76
76
71
69
68
70
76
78
83
85
86
90
89
89
86
85
84
81
94
101
90
83
83
89
96
95
93
85
73
70
74
74
76
78
77
76
75
76
77
75
74
71
75
78
79
81
81
82
82
84
86
84
81
78
78
80
77
77
74
70
72
71
73
74
71
70
70
76
80
82
84
83
84
84
83
83
81
80
91
100
88
78
83
88
94
97
180
119
77
70
74
73
74
73
73
73
72
74
72
66
65
72
78
78
76
77
77
76
75
78
78
76
76
73
71
71
67
68
66
67
71
70
73
73
71
72
71
75
79
81
82
81
84
83
83
82
79
81
91
98
84
75
80
88
92
96
137
97
70
76
79
77
74
72
70
70
71
69
65
66
72
79
79
75
70
68
71
72
71
68
62
59
59
67
66
55
55
54
51
56
65
71
69
69
70
69
73
76
79
81
82
85
87
87
88
85
81
79
86
89
75
71
75
85
92
95
87
69
69
82
86
84
79
76
72
70
71
68
65
70
79
83
77
72
68
66
67
62
56
50
46
45
47
57
55
46
47
48
51
53
66
80
76
72
70
68
69
70
78
84
87
91
93
93
89
84
81
79
83
82
70
69
79
88
94
96
98
76
79
91
93
89
86
82
78
76
71
68
68
69
72
72
69
65
60
56
51
52
49
46
48
48
46
42
37
39
44
49
49
51
72
85
84
79
74
74
71
69
70
80
92
97
99
98
91
86
84
84
82
75
64
62
75
86
93
95
88
70
73
91
96
94
91
85
80
77
72
68
63
63
63
63
60
53
50
49
51
58
62
63
55
50
51
45
40
40
47
52
51
60
78
87
84
77
77
78
74
71
68
73
88
97
99
94
89
85
81
82
82
71
56
54
67
80
87
94
88
68
76
95
98
97
95
90
87
81
72
65
62
61
58
54
50
48
49
51
59
71
81
81
65
55
55
52
50
49
53
52
56
71
83
85
78
71
71
71
71
74
79
85
93
99
96
90
86
82
80
79
75
62
52
57
70
82
88
91
91
68
74
95
101
100
100
98
90
84
78
70
66
62
57
55
54
57
59
61
68
77
90
90
83
70
56
55
56
54
54
58
72
81
80
75
68
68
69
72
79
85
89
94
96
95
91
86
82
80
79
76
68
55
51
60
71
83
91
90
90
69
74
94
101
104
103
98
94
92
85
78
71
66
66
65
66
70
71
71
71
74
79
86
91
86
77
67
62
64
67
72
74
73
74
74
76
76
75
79
84
89
92
92
91
90
88
84
80
83
82
75
55
42
51
63
75
84
89
90
91
76
73
89
100
103
106
104
99
94
89
84
79
80
79
78
78
74
71
70
73
75
76
79
81
83
81
74
74
74
74
76
76
80
84
82
82
77
73
76
82
88
90
93
94
89
85
81
79
79
78
67
40
36
55
67
79
86
87
88
97
75
70
89
100
104
106
103
99
97
95
89
84
84
84
85
81
78
75
72
71
70
72
74
77
82
79
78
79
74
75
77
79
82
81
79
74
71
74
78
85
90
90
91
91
91
87
81
78
75
69
55
40
44
59
74
83
90
91
90
96
80
71
84
99
103
101
102
102
98
95
91
89
85
84
86
87
86
82
80
79
73
73
73
72
74
73
75
74
73
75
77
81
79
76
77
76
76
81
84
85
85
91
95
91
85
79
79
80
76
69
52
44
52
65
79
86
91
95
92
96
85
70
76
97
101
102
102
100
99
96
92
91
88
87
88
89
89
87
88
86
86
85
82
82
80
81
81
77
79
80
79
77
77
78
77
80
84
84
84
87
91
94
92
92
86
81
79
77
74
63
50
49
62
74
80
89
92
93
93
98
88
67
73
94
100
101
99
101
100
96
92
88
88
87
87
88
89
92
92
91
92
91
90
90
87
87
85
85
85
82
82
82
82
83
85
90
89
89
90
92
93
93
92
88
83
80
79
77
68
57
54
58
69
81
83
88
91
89
91
100
93
73
68
84
97
98
98
98
98
99
95
91
91
88
86
87
90
90
87
88
89
88
90
90
89
87
84
86
84
84
85
87
89
89
92
93
93
93
94
96
94
91
88
87
85
80
76
72
65
57
56
68
76
80
86
90
91
90
89
100
97
85
75
82
94
97
99
97
96
100
98
94
90
89
89
88
90
89
88
88
89
90
88
87
88
86
86
88
88
88
89
94
95
92
91
92
96
98
99
101
98
96
93
85
82
80
77
69
59
54
60
74
83
84
87
89
89
89
87
99
98
91
79
77
85
95
99
98
99
100
100
97
93
94
90
88
88
88
89
91
94
93
92
91
89
89
88
87
89
92
95
97
96
94
90
93
97
101
103
100
96
93
89
86
82
79
73
65
57
57
70
80
83
82
85
90
89
86
85
96
98
96
87
78
80
91
97
98
98
99
99
99
97
95
93
93
91
90
90
91
92
92
92
92
92
94
92
90
92
94
98
98
97
95
92
91
94
96
100
98
96
94
89
85
83
78
68
59
59
64
74
83
85
87
87
88
90
88
85
95
97
99
95
85
82
86
91
93
97
98
96
98
96
91
91
92
92
91
91
90
89
92
94
95
97
96
95
95
95
96
96
97
97
94
95
96
100
100
97
96
93
90
88
83
80
73
66
60
56
65
75
80
83
86
89
86
88
87
83
