P2
60 28
255
121
114
110
108
101
98
96
97
104
106
109
103
100
107
113
110
94
92
111
125
130
129
120
110
111
107
115
133
137
126
106
105
104
89
93
83
83
96
85
108
152
142
113
106
106
104
102
102
105
106
109
103
95
93
92
92
91
91
96
100
115
115
110
103
97
97
96
94
95
94
91
88
84
85
85
86
90
97
106
110
112
115
124
143
149
147
162
192
200
150
111
114
115
116
120
118
122
123
122
124
122
123
126
127
125
120
114
106
104
105
104
103
94
93
96
96
99
101
104
105
108
111
112
108
105
100
95
92
90
88
81
84
94
104
113
113
113
114
117
122
121
118
128
174
177
153
159
170
178
139
113
125
125
124
123
123
123
122
122
120
119
122
124
129
128
126
125
117
115
113
102
93
82
83
99
104
104
106
109
115
110
106
108
108
106
102
92
82
80
89
99
104
107
106
108
109
107
112
116
123
129
124
143
183
182
154
134
134
134
130
131
125
125
125
124
123
120
120
121
119
117
112
112
118
119
122
122
117
115
114
111
98
81
79
92
104
108
109
107
111
107
105
106
108
101
88
77
81
98
107
111
107
105
106
104
108
111
114
118
123
128
131
140
146
148
143
132
129
126
127
129
125
127
125
122
121
119
121
121
119
118
117
118
116
115
117
114
114
114
115
115
108
91
74
78
99
109
108
109
109
104
109
106
99
85
76
86
102
114
110
106
107
105
107
108
109
112
114
116
122
122
125
125
124
126
124
124
121
119
118
113
110
111
114
113
110
112
116
118
118
115
118
117
113
110
104
104
105
107
107
108
110
105
88
79
91
100
98
102
105
94
100
97
80
80
95
105
108
110
111
106
105
103
103
107
108
111
114
114
115
115
114
113
114
115
114
111
104
103
103
98
93
89
90
92
93
98
103
109
112
111
114
114
112
110
105
103
101
101
106
106
106
107
96
88
90
95
96
93
97
92
91
81
79
97
108
111
114
110
108
105
104
106
105
107
106
101
100
97
96
98
102
110
112
111
113
109
105
104
103
103
99
97
91
87
85
81
86
92
98
102
105
108
109
109
108
104
103
101
100
101
103
108
100
89
89
89
92
93
94
94
80
76
95
107
110
107
107
109
103
98
99
101
102
97
93
90
92
96
96
101
106
109
111
109
109
103
98
102
103
100
97
98
95
90
91
88
85
82
84
95
99
102
105
104
105
104
100
99
97
98
101
101
104
100
102
102
103
113
117
92
76
85
97
98
104
107
102
102
100
98
99
94
87
84
91
99
98
101
101
101
105
104
103
105
106
100
95
103
101
94
92
87
88
86
85
88
85
84
83
85
94
96
98
99
101
102
97
97
96
95
98
97
96
95
95
102
107
115
123
95
82
89
94
95
93
95
96
97
97
94
90
83
81
92
97
97
95
95
99
95
96
98
96
96
96
99
96
94
93
84
84
86
84
85
84
88
86
84
88
88
92
95
96
100
101
100
98
97
101
99
97
95
92
97
98
100
106
113
125
111
96
97
99
97
95
90
91
91
90
87
79
78
89
104
104
92
87
84
88
91
89
88
83
77
76
73
68
67
72
70
61
63
71
80
87
86
85
84
85
88
90
96
98
100
102
102
104
105
103
100
97
95
88
88
92
92
105
115
124
141
93
97
102
97
97
91
86
85
82
81
75
82
104
105
93
87
85
82
83
83
74
64
55
49
50
51
51
50
50
52
51
51
64
82
94
92
87
83
79
84
91
96
104
109
113
116
116
114
108
104
97
92
87
84
89
89
100
120
123
85
85
110
113
105
98
93
89
86
82
81
80
85
96
93
86
86
77
69
66
62
61
56
50
53
57
54
48
44
44
51
58
59
68
91
105
103
94
88
87
83
82
87
101
113
122
128
124
117
111
105
101
93
85
82
82
89
100
116
124
81
94
116
120
116
106
99
94
90
86
80
76
74
74
78
72
68
66
61
62
66
74
76
67
63
63
60
53
48
51
61
64
61
81
113
121
110
101
101
103
95
91
85
91
113
125
131
124
113
109
104
103
92
83
82
73
79
101
113
121
90
91
122
124
119
116
107
99
90
82
75
71
71
67
63
59
54
54
57
65
81
99
104
89
68
60
63
63
60
62
64
67
81
105
120
116
102
90
84
84
84
85
96
108
121
126
124
118
110
104
105
101
91
82
73
64
69
95
113
120
78
95
126
132
126
123
118
108
99
90
85
77
71
65
61
64
65
69
76
87
99
113
126
120
101
81
69
67
66
66
68
85
112
119
105
96
90
86
84
88
101
107
110
116
120
123
120
113
106
104
103
98
90
81
70
62
67
89
111
117
78
93
123
133
131
129
126
118
111
102
91
85
77
75
76
78
84
84
88
92
94
104
117
123
122
110
94
87
86
93
100
106
106
103
96
88
93
94
97
103
107
113
116
118
119
115
113
107
102
100
97
95
89
75
63
65
77
92
114
124
80
86
119
131
135
130
124
123
120
115
107
104
101
96
96
91
91
90
90
94
92
92
96
104
110
110
109
106
104
104
103
102
99
100
108
109
108
103
96
100
105
111
114
115
117
115
112
104
98
99
99
96
84
60
52
62
81
101
115
126
82
84
119
130
132
131
130
129
124
119
112
110
112
108
105
102
93
89
86
87
92
92
100
100
100
101
98
102
101
98
99
99
108
110
107
102
94
91
93
103
112
109
110
116
117
115
110
105
101
95
93
89
72
45
45
68
86
106
117
120
84
80
119
136
131
128
130
129
126
120
116
113
111
113
114
111
104
99
96
91
94
91
91
95
96
99
96
95
93
88
95
101
103
104
96
96
94
93
103
109
106
107
117
121
116
111
107
104
101
91
81
74
62
47
50
76
98
110
120
121
91
76
106
128
131
131
131
128
126
121
114
112
110
111
113
111
112
111
110
105
99
98
95
95
94
94
96
95
95
96
101
104
101
101
100
99
103
104
109
112
110
113
117
119
116
110
106
102
100
97
90
77
55
48
64
86
108
117
125
128
97
78
104
125
130
128
129
128
126
124
118
113
111
112
113
113
115
116
114
116
113
113
115
113
110
109
111
111
109
109
106
103
102
102
108
111
116
117
113
115
119
119
117
118
118
111
105
101
96
93
85
72
59
57
78
97
110
119
124
130
105
73
91
119
126
128
130
133
131
128
124
117
111
109
110
111
111
113
113
115
119
118
117
116
115
115
113
112
109
108
109
107
110
112
117
120
116
118
121
124
124
119
119
115
110
108
102
102
99
91
78
63
60
69
91
107
111
120
123
126
113
78
79
113
125
125
127
127
129
128
125
121
117
114
110
109
111
111
111
113
115
114
111
112
115
113
107
107
112
109
111
116
118
121
119
118
122
125
130
129
127
124
119
117
109
106
103
99
97
85
68
56
66
90
100
111
118
121
126
123
118
91
75
103
123
124
125
125
127
129
128
127
121
116
112
110
109
109
112
113
113
113
113
112
111
112
112
112
115
115
118
123
123
120
117
120
125
127
128
127
126
123
118
115
112
109
106
99
91
81
70
67
78
97
108
113
119
120
125
127
127
110
79
86
115
122
126
126
128
130
127
128
127
122
119
115
112
111
112
113
111
112
113
112
113
113
113
113
114
120
123
123
122
119
119
122
126
129
130
130
126
124
121
115
113
108
103
97
83
70
63
70
87
102
112
112
117
122
123
123
128
121
97
86
105
121
123
124
126
132
134
130
126
121
120
119
116
116
115
116
116
116
118
118
118
118
117
118
116
118
123
126
128
122
121
126
128
132
130
125
121
121
122
115
108
104
101
94
80
66
66
81
101
108
109
114
116
121
123
124
