P2
60 28
255
97
94
92
93
92
90
90
85
81
76
69
67
66
72
76
72
77
82
83
85
92
104
105
103
103
90
81
81
84
83
77
74
71
69
68
66
75
82
76
70
66
67
70
73
76
74
73
74
79
86
89
91
91
92
93
94
96
95
95
98
98
94
95
94
93
92
86
81
76
73
69
66
72
75
77
78
78
88
96
106
122
122
106
123
140
113
94
92
85
84
84
81
81
83
84
85
84
87
84
75
65
59
67
76
77
74
72
75
78
82
86
88
93
93
93
95
94
94
92
93
98
96
94
94
94
92
83
78
77
75
74
71
76
83
81
81
95
120
125
110
113
111
104
136
156
140
120
96
84
84
85
85
85
87
88
89
89
92
96
106
130
124
97
90
86
83
79
77
77
77
84
86
85
90
93
96
96
97
94
90
96
96
98
99
93
84
80
80
81
74
71
76
80
84
79
77
99
128
132
123
125
122
110
106
113
117
106
94
90
87
85
88
89
87
88
89
88
85
84
95
121
139
129
108
90
90
89
80
76
76
78
82
84
88
89
93
98
94
95
93
97
96
97
98
92
83
82
76
69
71
75
80
83
76
66
74
96
113
117
111
110
112
113
112
119
132
126
101
89
92
90
91
90
90
89
86
88
89
88
90
93
101
109
112
110
99
84
71
70
75
76
80
83
84
89
90
92
93
93
96
98
96
98
95
90
84
78
73
72
76
81
86
81
67
74
91
96
99
99
95
93
107
121
120
136
155
138
109
98
96
94
93
94
92
91
89
87
87
88
91
93
93
96
100
107
105
95
78
64
68
76
78
80
81
85
90
87
81
76
77
98
98
99
95
86
81
75
71
74
77
89
95
90
84
85
87
86
86
88
88
86
104
120
120
135
147
131
105
95
96
97
95
93
93
91
92
89
86
86
86
88
90
91
94
96
97
99
94
82
73
79
80
78
81
76
65
50
36
41
60
99
99
96
90
83
77
75
75
78
78
76
83
87
85
84
86
88
89
92
89
88
101
120
121
126
133
118
97
90
90
89
88
86
87
89
89
88
85
83
80
81
83
84
87
90
91
93
94
91
87
85
82
80
72
49
35
42
47
60
71
101
99
94
89
83
75
77
84
81
64
59
78
88
87
85
84
86
88
91
92
92
96
113
110
91
95
98
85
79
78
74
72
71
70
73
73
74
79
82
83
81
81
82
80
84
87
87
89
90
91
83
74
75
59
38
46
67
74
74
78
98
95
94
86
81
79
81
82
66
56
67
82
85
82
84
84
81
83
89
91
90
97
102
88
73
72
73
75
72
70
67
62
62
60
60
62
63
65
68
75
79
78
79
80
81
83
85
84
85
94
91
75
64
51
43
53
65
72
79
84
97
94
90
85
80
81
83
84
67
60
75
83
83
82
80
80
79
79
79
74
70
72
74
75
78
83
84
83
82
79
75
69
64
66
66
66
65
63
63
63
66
70
74
79
80
78
78
80
84
89
91
84
68
51
37
47
65
76
85
87
97
95
88
81
78
79
86
89
80
74
79
83
81
81
78
77
76
68
63
64
69
72
71
71
74
77
75
68
66
64
59
56
56
60
65
68
67
65
67
65
63
63
65
70
72
71
72
75
80
84
90
90
79
62
51
56
65
70
79
82
96
95
89
87
86
80
90
100
88
81
83
82
80
78
75
68
64
59
60
69
74
75
72
67
62
55
49
44
43
44
41
38
38
41
52
57
59
62
66
68
66
69
70
67
70
71
71
75
77
80
84
90
86
75
71
67
67
70
77
83
97
95
93
89
86
82
100
109
86
79
80
77
78
76
70
58
52
59
64
68
70
68
62
51
40
34
41
48
49
54
50
40
38
50
72
82
76
65
59
62
66
72
76
75
75
74
73
74
78
81
84
87
87
80
74
65
59
69
78
82
96
93
87
84
77
78
111
125
87
69
77
78
76
69
54
51
55
59
64
64
61
53
45
38
31
31
58
75
61
56
55
46
39
50
79
100
98
83
70
63
63
70
78
84
84
79
77
77
80
78
78
87
99
92
67
54
55
61
70
77
92
74
60
55
47
51
68
74
74
75
74
75
70
61
53
54
60
61
57
52
51
52
47
40
35
37
36
37
39
40
46
46
39
52
85
105
103
91
81
71
64
62
63
74
85
85
82
81
81
78
78
82
80
80
79
65
56
59
69
74
84
57
43
45
48
59
70
66
67
73
72
70
64
58
58
58
59
55
47
49
57
65
60
42
36
38
38
39
39
40
43
44
43
61
94
106
99
87
77
67
61
65
64
64
76
85
88
85
79
79
81
82
68
83
117
88
54
57
65
76
88
53
38
43
45
43
50
62
65
67
69
65
59
55
55
53
50
48
48
57
69
77
70
52
43
40
40
42
41
40
42
46
52
72
93
92
80
73
67
65
68
69
71
73
77
83
85
83
78
76
77
85
98
104
111
106
83
68
65
72
74
63
56
55
57
63
70
73
69
64
62
58
58
57
52
52
51
49
52
60
71
83
84
71
52
44
43
41
42
44
46
51
60
74
78
78
74
75
74
73
77
77
80
84
84
87
87
82
80
76
75
99
134
116
90
123
130
77
57
66
86
84
76
73
69
71
80
75
69
67
64
61
58
58
56
55
59
61
65
66
67
73
80
79
66
56
52
49
53
56
61
69
73
78
79
76
74
76
78
79
78
79
84
86
86
87
87
84
81
78
80
105
120
92
73
94
94
66
63
67
95
93
88
86
83
79
76
70
71
74
67
62
62
60
61
62
67
68
67
69
68
68
71
73
72
70
69
69
73
77
76
78
80
78
79
78
74
74
73
75
76
76
79
80
79
83
88
89
89
86
80
79
79
72
71
79
74
64
64
69
100
95
94
92
89
88
74
65
70
75
72
68
68
67
67
65
64
67
68
69
69
67
69
71
74
74
71
76
79
76
75
74
76
75
75
73
70
71
72
72
70
70
73
73
75
82
88
92
90
87
82
76
75
69
58
53
57
64
66
70
101
98
96
92
89
90
81
68
70
77
78
72
73
78
77
75
72
73
72
69
68
68
69
69
69
69
68
69
73
75
76
76
73
72
74
74
73
71
70
70
71
67
67
70
76
85
88
92
96
88
83
82
80
71
59
58
61
67
72
72
102
102
96
90
90
92
88
76
71
76
79
82
85
86
82
79
79
75
72
73
73
74
74
76
75
75
78
78
77
75
78
82
79
78
75
74
73
70
70
73
72
72
73
79
85
87
90
91
89
86
84
85
79
69
62
61
65
68
72
73
102
101
98
94
93
93
92
83
73
73
80
86
88
88
85
79
79
76
74
80
80
80
81
80
81
81
83
83
81
81
81
84
85
81
76
72
73
75
76
78
76
77
79
81
88
88
88
89
88
86
82
82
75
66
64
60
65
71
72
76
101
98
98
96
94
94
91
86
72
67
77
84
88
90
87
81
76
75
73
75
79
80
82
79
81
85
85
86
84
81
80
81
81
77
76
77
77
78
79
79
81
85
88
88
87
88
88
88
85
83
84
78
68
62
60
64
69
76
76
76
103
100
98
99
97
97
94
94
86
70
68
78
86
90
88
83
77
76
78
78
82
81
80
79
80
84
84
84
84
83
82
80
79
78
77
77
75
76
80
81
84
86
87
90
88
90
90
85
84
86
87
74
61
62
62
66
71
73
76
76
100
101
99
99
97
93
93
96
98
85
67
70
80
89
90
87
83
80
80
81
81
80
78
80
81
81
81
83
86
83
80
82
80
79
80
81
82
79
81
85
86
88
88
90
90
88
89
84
84
83
73
61
57
63
66
69
73
70
72
73
