P2
60 28
255
106
100
96
95
95
95
91
93
91
86
85
81
80
76
71
71
70
72
75
73
69
68
70
67
65
68
68
67
66
63
63
61
61
62
62
64
65
65
67
68
69
70
73
75
75
78
81
84
88
91
93
94
97
98
95
97
95
96
97
97
100
97
96
97
96
93
96
94
89
84
78
73
68
69
70
74
78
78
78
79
82
81
77
78
82
86
92
94
89
76
68
66
63
61
61
65
70
69
68
66
67
71
69
74
79
79
76
75
81
85
89
93
95
96
93
91
97
97
97
98
97
99
97
96
98
97
94
87
80
77
71
68
67
68
72
73
78
80
81
84
93
112
110
93
89
94
105
110
99
90
81
77
77
74
70
69
81
84
77
71
67
69
70
73
77
77
75
74
78
84
85
87
91
92
96
95
94
94
92
95
100
98
97
97
98
95
91
84
78
75
71
69
71
76
80
81
79
88
93
97
109
115
113
108
104
106
125
127
104
90
84
85
87
87
88
87
87
91
86
75
62
56
64
71
73
76
74
73
73
79
84
86
91
90
93
97
98
101
95
91
99
99
98
99
97
92
85
81
79
76
74
70
74
80
82
88
100
113
106
96
102
108
116
124
117
112
125
121
98
88
88
86
86
90
89
89
90
91
91
91
91
84
80
82
80
79
75
75
75
77
83
81
84
89
88
94
98
100
97
90
98
99
98
98
93
87
84
79
75
69
69
74
78
81
71
71
92
99
95
97
101
97
105
123
121
120
141
141
107
88
88
88
88
90
89
89
92
89
90
93
97
100
101
96
89
92
90
76
73
75
79
84
84
86
88
92
96
95
97
95
100
99
99
100
98
87
81
76
72
73
75
82
79
65
61
71
85
92
95
99
94
89
99
118
120
128
148
141
112
95
93
95
90
89
88
87
90
88
88
93
92
96
101
101
102
96
82
70
67
73
75
78
80
83
88
88
92
93
92
95
98
99
102
99
93
86
78
73
70
72
78
80
74
68
79
89
90
91
92
95
94
92
98
113
122
128
141
134
110
100
98
95
97
94
89
86
85
88
92
93
88
89
93
95
99
102
96
76
60
64
71
73
79
81
84
87
87
82
77
76
100
101
100
97
91
84
77
73
74
78
88
86
81
83
85
87
86
86
88
90
95
97
99
114
122
114
114
113
101
91
90
89
90
91
88
87
86
84
84
84
83
83
85
87
90
96
97
92
84
74
74
73
75
80
75
61
46
37
42
55
101
102
99
95
88
79
75
75
80
75
66
73
80
82
81
83
85
82
82
86
90
94
102
117
117
98
86
87
85
82
78
74
72
72
71
75
77
77
80
80
80
81
82
82
83
86
91
94
95
91
86
80
76
70
48
32
38
46
59
68
96
98
97
93
85
77
78
81
75
60
58
75
83
82
82
80
81
81
82
84
83
81
82
83
81
76
73
70
67
67
67
62
59
57
57
57
59
62
65
73
76
78
79
77
79
81
83
86
89
91
85
77
72
55
38
47
68
72
72
79
97
98
98
91
82
80
79
79
65
56
67
78
83
81
80
80
76
74
75
74
70
67
68
69
74
77
79
79
77
77
75
67
63
65
66
65
64
64
62
61
65
70
75
77
80
80
80
81
82
87
87
78
65
49
38
52
66
72
74
79
97
97
95
89
81
80
82
80
68
65
76
79
80
78
76
76
74
69
64
60
63
67
71
75
76
76
71
61
56
57
54
49
47
54
61
65
65
66
68
65
62
60
64
72
76
78
77
79
82
85
90
88
71
53
38
47
63
72
81
85
96
98
94
88
84
82
84
81
75
74
78
84
79
77
75
71
65
54
51
58
67
70
70
66
58
52
44
39
40
40
41
39
37
42
52
62
64
60
63
68
70
69
66
66
68
72
74
75
79
84
89
90
80
66
55
58
67
72
80
84
98
98
95
93
91
84
88
89
81
78
77
79
79
75
71
61
52
51
57
62
63
63
56
46
39
33
34
47
57
62
58
47
41
45
67
89
90
75
62
60
64
74
79
76
75
72
71
74
79
85
89
90
85
77
71
66
66
69
77
85
98
98
95
89
84
84
94
95
81
76
78
78
77
71
63
54
51
57
61
59
54
52
48
41
37
29
42
78
84
70
65
56
45
42
63
99
109
95
80
68
60
65
75
81
88
85
74
73
80
85
86
86
88
83
72
65
62
67
73
81
93
90
86
82
75
78
94
97
82
75
76
75
72
67
57
53
56
61
59
51
53
61
58
45
36
34
37
40
40
37
40
46
42
42
66
103
113
103
91
79
69
62
64
72
81
87
83
81
81
79
80
88
98
91
69
56
53
59
70
78
88
71
57
52
43
49
66
71
73
73
72
71
70
63
56
57
57
51
45
49
62
73
68
51
38
37
36
39
42
39
42
44
44
51
73
99
107
100
89
76
66
66
65
64
73
85
90
88
85
82
81
81
79
82
82
63
53
58
69
75
103
58
37
47
50
53
63
66
68
71
71
69
64
58
57
55
51
48
51
60
73
84
82
63
46
39
38
39
40
42
40
42
45
58
87
102
95
84
74
69
67
68
66
62
70
79
85
86
83
83
84
82
73
92
118
82
53
61
68
77
84
62
50
48
44
42
50
61
65
68
69
63
59
57
54
52
54
55
54
61
73
84
88
80
58
42
41
43
44
44
44
46
54
70
83
84
79
76
70
68
73
76
73
74
80
85
86
86
83
81
81
88
102
109
110
105
98
82
68
72
94
93
86
77
71
71
74
74
70
68
66
59
58
59
55
54
58
61
64
68
71
75
81
85
76
62
50
45
46
49
54
61
68
75
77
79
77
76
77
78
82
85
85
82
80
84
87
85
83
78
75
98
131
117
90
109
121
88
68
69
98
97
94
88
82
79
78
74
72
70
67
64
59
59
60
63
69
69
70
70
70
71
71
75
74
70
65
61
65
69
73
78
77
77
78
78
77
78
79
77
78
79
80
81
79
80
83
84
85
82
82
98
112
91
66
84
90
66
64
68
101
100
95
92
92
86
71
65
74
81
73
66
64
65
68
65
68
72
69
69
70
71
71
71
75
76
74
75
78
78
75
77
78
78
78
76
76
77
76
77
77
75
77
78
80
78
82
89
89
86
85
84
81
73
69
73
73
66
65
70
101
100
101
96
93
89
76
66
72
80
78
73
73
74
76
76
75
75
72
70
69
69
71
67
68
69
66
71
72
71
73
75
78
76
73
74
75
76
74
73
75
76
75
75
79
84
85
90
92
90
88
83
78
68
55
52
55
63
69
74
102
104
100
95
92
93
83
66
69
80
82
79
81
85
84
81
78
77
75
72
72
68
68
70
67
68
68
71
74
74
76
76
76
77
77
78
78
73
72
73
76
75
74
79
84
89
88
87
91
89
88
86
82
72
60
60
62
66
71
73
101
102
99
97
97
97
93
74
67
76
83
86
86
86
85
81
80
78
77
75
75
78
77
79
79
80
82
79
80
80
79
80
81
82
77
74
74
72
75
78
76
75
77
83
85
85
87
90
93
90
86
85
79
69
63
61
63
66
74
75
100
101
98
96
95
95
94
84
70
71
81
88
90
89
86
82
80
76
74
79
78
76
77
79
81
80
83
86
85
83
81
80
80
79
77
72
72
74
76
79
77
77
81
82
85
87
89
88
84
86
84
81
75
65
62
63
68
73
75
76
99
98
100
99
98
95
93
91
77
69
77
85
90
89
89
86
80
78
76
79
82
79
78
78
81
81
84
88
84
82
80
78
81
79
75
75
78
78
75
78
80
83
87
87
89
87
84
88
85
83
84
77
67
61
63
66
67
72
74
77
