P2
60 28
255
113
118
129
134
151
176
192
210
213
214
219
211
216
218
223
232
226
224
217
210
206
199
206
202
193
194
191
189
176
163
159
152
148
142
137
135
123
124
122
122
130
128
144
156
155
161
163
173
177
178
188
188
200
211
214
231
233
237
235
229
115
121
122
135
149
171
196
203
215
216
215
218
212
220
223
222
225
211
206
206
204
204
198
198
196
186
176
157
149
142
136
136
131
131
125
122
123
114
116
115
117
124
124
139
145
149
163
164
171
174
178
192
195
209
213
221
240
232
235
232
106
114
113
126
153
175
195
200
210
215
212
215
211
216
218
211
208
201
206
209
200
197
193
190
184
169
159
146
142
139
128
129
122
120
121
115
119
117
115
116
111
118
122
128
135
140
153
156
161
171
173
187
195
199
212
218
234
234
232
240
103
104
114
128
154
174
189
208
212
214
213
206
211
212
212
207
198
203
203
197
190
182
183
174
165
159
152
154
146
143
142
137
137
131
130
131
126
129
124
124
125
123
131
132
135
141
143
153
153
161
173
176
192
196
206
217
220
235
235
237
98
102
112
127
148
174
190
208
215
214
215
203
207
210
205
200
191
196
194
185
182
172
173
171
165
171
168
175
175
171
176
165
160
156
154
156
144
143
142
138
143
142
147
146
141
149
148
152
155
155
169
172
182
192
195
213
220
233
242
235
94
102
108
129
148
172
201
208
216
213
207
208
202
204
196
184
187
190
192
183
175
179
180
187
186
186
196
195
199
198
197
201
187
183
179
171
171
160
157
155
152
155
156
160
156
152
157
154
161
160
159
174
177
190
198
207
227
230
241
242
88
92
105
132
158
178
200
209
218
216
203
202
199
200
191
176
182
184
189
188
182
194
194
199
207
208
220
218
217
218
209
214
207
199
197
188
184
172
166
163
153
156
158
159
160
155
162
160
162
166
160
170
176
188
203
206
226
240
245
248
89
91
113
134
164
191
199
209
212
212
206
199
200
191
183
176
175
193
198
201
202
202
214
215
218
222
221
231
227
225
226
221
224
214
209
208
196
188
172
163
159
151
158
155
155
158
154
164
163
167
175
169
180
186
201
220
230
248
253
253
92
98
117
140
169
194
199
208
209
208
208
196
190
182
175
176
178
194
202
203
211
208
219
224
220
229
226
232
231
224
228
221
223
217
211
215
201
194
181
165
162
154
157
155
150
157
151
155
160
162
174
172
184
195
205
228
239
247
251
250
94
103
114
146
174
192
205
206
214
212
203
195
182
179
175
179
191
195
207
210
210
214
212
223
222
220
224
216
220
217
215
220
208
205
199
191
188
174
171
163
156
158
150
151
151
149
151
144
151
157
163
179
179
196
212
227
246
247
251
253
91
109
125
152
178
191
207
208
212
209
194
186
176
180
187
193
206
203
204
208
206
212
208
213
220
213
214
208
203
201
190
190
176
164
156
143
138
127
128
136
133
138
137
140
146
140
147
145
148
157
156
172
180
193
216
230
247
252
252
252
94
104
131
157
183
199
203
211
210
205
193
177
180
188
198
201
196
202
200
204
205
201
206
202
204
205
194
190
168
153
137
115
106
89
83
81
76
82
81
92
100
97
113
117
125
136
136
144
144
151
159
160
179
189
210
236
243
251
254
254
92
105
134
162
186
201
201
211
212
205
195
181
184
189
194
200
193
199
203
202
206
198
199
195
187
185
161
139
117
98
87
72
71
74
70
73
74
77
85
92
99
96
101
100
103
121
123
134
142
146
158
161
172
185
202
229
240
248
253
253
98
114
135
169
188
198
206
204
212
208
196
189
184
196
201
202
203
196
202
201
199
200
187
179
161
136
110
95
102
99
85
82
85
92
95
98
103
96
96
102
113
119
112
113
103
105
122
126
140
149
155
170
172
188
203
218
240
247
252
254
97
114
136
165
189
198
207
209
211
209
197
194
192
196
196
191
199
198
201
204
196
192
176
152
123
92
93
117
131
111
103
145
151
120
106
110
127
127
109
108
123
127
121
124
125
116
123
130
136
146
155
173
179
187
202
212
235
250
251
252
95
108
136
163
190
200
200
207
207
205
197
189
193
191
188
186
190
198
194
195
192
171
148
118
96
95
116
157
167
131
157
225
195
121
91
89
116
142
122
117
145
152
141
126
127
135
133
143
143
151
166
174
190
192
202
221
233
248
254
254
97
105
128
159
186
202
199
207
208
201
199
192
193
193
189
193
192
196
193
182
172
142
118
100
87
106
150
193
206
177
165
184
169
127
90
89
129
150
127
119
148
161
150
131
127
142
143
149
155
159
176
178
187
197
201
221
235
245
250
248
95
104
120
157
183
192
203
203
206
205
198
194
189
197
194
192
198
192
193
178
147
119
102
98
97
127
174
209
235
213
155
139
151
146
135
138
152
149
134
139
166
175
149
130
121
129
155
164
172
178
184
193
191
203
213
222
238
243
249
251
96
109
121
146
175
188
201
201
205
207
198
199
194
194
199
195
198
194
184
161
118
107
111
113
125
150
186
216
242
235
177
136
144
152
153
158
155
139
138
166
185
182
158
135
134
133
154
177
194
201
197
203
202
206
219
224
240
245
245
248
94
96
117
145
172
191
196
206
202
201
204
201
205
200
197
196
192
193
167
132
116
116
135
145
153
165
184
213
241
254
227
176
149
145
147
149
145
150
171
192
194
178
163
144
148
151
138
176
216
227
229
214
214
212
218
233
235
246
245
243
95
97
115
142
168
188
195
204
202
199
207
201
199
199
196
199
194
184
149
118
125
135
155
174
183
193
191
202
225
235
236
215
187
172
165
172
181
197
207
206
206
189
183
182
176
181
176
198
227
235
237
221
218
221
221
233
233
239
245
239
95
102
108
133
160
183
202
202
204
204
202
204
195
197
198
195
191
163
138
133
145
160
168
188
201
207
213
210
216
219
218
221
223
228
231
232
232
222
220
222
222
226
221
225
224
222
231
229
231
228
222
224
218
225
227
226
238
237
244
247
91
100
99
118
151
173
197
202
201
204
205
209
201
197
197
189
179
153
146
159
161
175
184
196
213
215
223
220
216
215
205
210
210
205
208
204
207
206
205
211
207
215
215
214
222
219
228
229
223
220
216
227
225
220
228
224
234
238
238
246
95
97
101
107
141
180
196
207
206
206
208
201
203
199
195
189
172
166
164
174
187
193
209
212
219
225
224
227
219
216
216
206
202
192
187
188
189
201
196
198
205
203
211
211
217
221
220
224
215
214
222
221
229
225
228
231
225
236
241
244
95
98
103
108
138
176
193
207
207
203
210
203
203
202
198
195
181
178
179
189
209
211
223
227
224
230
224
224
222
217
221
212
216
215
207
218
213
210
210
202
210
210
216
220
215
222
219
216
216
216
229
227
226
228
224
234
230
237
246
241
94
102
103
112
133
169
203
206
206
204
204
209
204
207
206
203
200
188
197
210
219
233
233
241
241
235
240
238
244
245
239
240
232
235
232
224
223
210
211
212
211
218
216
221
223
223
226
217
224
231
230
233
223
230
230
225
238
237
244
248
91
102
106
103
120
161
201
206
205
208
204
207
203
206
209
202
206
203
210
223
221
231
238
245
251
246
248
247
248
249
243
243
232
227
232
224
228
226
221
218
207
216
220
220
228
222
228
229
230
239
230
230
228
227
232
228
239
242
240
248
93
101
105
91
108
162
198
213
207
206
210
203
208
214
218
215
209
222
229
233
233
231
245
250
250
250
244
248
248
247
246
241
244
237
235
237
232
237
231
226
222
214
222
224
231
236
233
241
238
237
235
221
228
227
229
239
238
246
246
247
