P2
60 28
255
182
186
194
198
203
210
212
215
210
206
209
206
205
203
201
200
201
210
215
213
214
212
212
206
199
197
185
177
167
155
151
146
145
143
140
143
143
145
150
152
156
153
153
156
157
161
161
171
190
207
222
226
228
229
235
242
241
241
241
239
190
191
193
200
204
210
213
214
218
215
213
212
211
216
208
201
204
211
220
218
217
216
212
208
201
193
186
178
170
159
156
155
151
151
146
145
148
150
157
157
158
159
162
168
170
174
176
179
192
203
214
219
216
222
227
230
232
230
233
231
198
200
200
206
208
203
206
212
214
217
217
218
216
217
216
210
213
213
214
216
212
210
205
202
195
186
179
172
166
165
162
161
157
154
151
145
149
155
160
163
161
167
171
174
182
186
191
190
193
206
212
216
216
218
222
223
227
229
227
225
197
204
210
207
211
208
208
212
211
214
212
212
215
213
213
209
208
209
206
205
201
198
194
187
184
177
169
166
162
162
161
159
157
151
150
144
144
152
154
157
162
169
178
182
188
194
201
205
197
201
207
211
215
213
217
219
220
222
217
223
201
205
212
207
203
208
207
210
210
207
206
201
203
206
205
204
200
199
200
198
196
190
189
183
175
170
162
158
154
151
152
147
150
151
148
151
152
154
156
157
165
174
187
195
198
204
207
209
204
198
202
202
206
209
213
223
218
217
218
216
194
198
200
202
197
197
198
197
202
200
198
193
189
196
196
198
198
194
194
190
188
182
175
168
155
146
141
138
141
136
135
137
134
141
144
148
153
156
163
164
170
181
194
206
208
211
213
207
204
199
195
195
196
210
215
220
224
222
228
222
188
192
191
188
190
187
187
189
191
194
190
191
191
195
203
201
200
198
193
184
172
165
153
147
147
145
148
147
148
149
146
146
141
142
147
149
160
166
170
175
178
188
200
210
214
212
212
206
201
198
191
197
204
211
219
215
220
222
225
226
183
182
179
173
177
179
181
185
187
194
195
198
201
202
206
201
193
184
175
167
158
156
161
162
166
163
157
158
154
154
151
149
151
146
146
149
158
172
178
192
195
196
208
210
213
211
207
207
199
194
192
197
208
210
212
212
216
225
217
215
180
177
172
169
172
181
183
187
191
197
203
198
197
195
191
186
177
175
175
180
183
179
179
177
172
166
156
155
151
147
144
141
145
145
147
157
159
170
187
200
211
209
211
213
209
211
207
204
197
192
200
198
204
210
209
220
223
226
223
218
172
172
170
171
172
180
183
182
183
180
180
178
173
174
177
182
188
194
203
203
189
180
174
167
155
145
143
137
134
129
127
126
125
135
140
152
158
161
181
192
200
208
205
204
204
208
207
200
197
191
193
196
195
206
209
216
226
224
226
223
159
164
162
161
165
163
163
158
158
163
163
173
179
184
189
195
195
190
187
171
151
136
121
114
105
100
103
102
104
105
102
105
103
107
123
131
145
153
165
187
191
199
204
198
197
200
204
193
185
189
189
202
209
212
220
218
226
227
225
231
145
145
146
142
142
145
148
155
163
176
182
183
186
179
169
163
145
128
110
87
75
61
51
52
65
88
99
101
102
104
103
98
97
96
105
111
121
136
149
176
190
194
196
188
190
193
190
186
178
186
194
203
220
220
222
224
229
235
228
231
131
131
133
138
151
159
159
167
166
165
163
149
133
118
104
87
71
59
50
46
45
50
53
50
63
95
120
127
121
119
119
111
118
120
117
125
124
134
152
165
183
188
187
186
184
189
183
183
186
187
204
209
218
226
223
232
233
235
237
233
128
139
145
151
152
151
151
141
129
114
91
73
59
54
54
52
50
47
48
43
46
58
67
66
58
85
132
140
130
128
125
124
126
134
131
134
143
152
167
171
180
187
186
190
187
185
185
183
192
193
202
212
213
223
225
228
232
229
232
232
122
129
134
131
121
110
101
90
82
71
60
52
50
52
54
54
52
45
40
38
44
66
79
74
63
78
117
136
136
135
133
132
127
127
137
144
157
166
171
182
183
189
191
185
187
184
187
187
189
201
203
211
217
223
229
225
229
231
230
232
94
89
90
85
77
72
67
68
71
71
61
55
56
57
59
56
50
42
35
41
56
74
84
80
75
80
102
125
129
135
138
138
143
143
157
165
168
175
178
185
187
191
195
184
183
185
187
192
190
205
213
211
221
222
229
230
228
235
231
229
86
81
81
75
68
67
64
66
76
81
74
64
64
70
72
68
61
54
47
53
71
77
83
88
87
102
122
139
147
151
156
151
157
165
166
173
174
180
187
186
192
191
189
186
178
186
188
191
200
207
218
216
219
226
227
232
227
230
231
228
94
91
83
78
76
75
71
74
93
104
98
84
76
83
84
81
75
71
74
74
81
88
96
115
127
139
147
148
156
155
159
165
165
171
173
175
180
188
197
189
190
191
182
183
180
186
195
197
207
211
210
213
214
226
230
226
227
227
234
231
108
102
94
90
89
82
87
104
121
134
133
115
95
92
93
87
87
85
84
93
101
118
138
158
167
162
159
154
155
162
163
170
174
176
179
178
188
196
197
197
186
184
182
181
189
192
202
204
207
213
209
213
217
226
236
229
230
231
232
236
129
115
105
102
103
103
114
129
136
148
152
147
137
126
121
117
118
121
125
138
152
167
178
173
171
172
171
169
163
168
172
171
178
180
188
190
193
201
196
195
186
177
183
184
194
200
201
210
207
209
210
212
223
225
228
228
226
233
232
231
139
127
125
128
132
138
144
146
144
149
160
164
165
164
167
168
168
173
172
169
171
174
176
170
172
181
175
173
176
176
181
180
182
191
196
202
198
199
199
189
187
180
183
191
193
203
204
207
207
204
211
213
218
220
220
228
225
227
229
226
161
153
148
158
163
166
167
159
155
151
155
160
156
159
161
165
172
167
165
165
169
175
177
180
173
170
173
177
187
189
193
196
199
208
206
206
206
199
197
186
184
187
186
193
196
201
207
203
207
206
208
214
212
217
217
219
225
220
226
226
175
175
173
173
179
177
178
175
168
170
174
170
157
154
166
173
173
169
173
183
183
183
176
173
178
178
186
192
195
199
202
214
217
215
215
209
211
203
192
190
185
191
193
193
197
198
207
205
201
207
206
211
212
214
219
215
223
220
218
224
176
179
181
177
180
182
182
183
181
189
193
185
181
182
192
191
181
178
177
182
179
173
178
180
187
191
194
201
200
204
209
216
225
222
223
218
212
208
193
191
192
191
197
196
200
203
202
205
201
208
209
203
210
209
213
216
216
222
218
220
177
178
181
183
181
185
184
185
186
187
194
184
181
188
184
177
169
168
173
177
186
192
199
200
197
201
203
207
208
207
214
222
232
230
223
223
215
208
201
195
198
195
197
200
200
207
204
203
205
202
207
201
204
209
205
213
216
222
223
216
178
178
176
182
181
183
184
184
188
186
185
180
176
181
177
174
176
182
194
195
199
205
205
211
209
208
211
210
213
209
215
226
225
225
218
214
212
201
200
198
201
205
200
203
204
205
204
198
204
203
203
205
202
208
211
216
218
213
216
215
180
183
183
183
185
182
186
188
188
192
188
186
185
189
196
196
202
206
208
208
205
211
209
210
214
212
218
219
221
223
225
231
225
221
217
208
209
203
200
205
203
206
206
206
209
204
204
203
202
204
201
208
210
209
214
214
220
217
214
221
188
188
193
191
194
191
189
192
191
199
198
194
198
201
210
216
220
220
212
214
213
207
212
214
218
217
218
228
230
237
239
229
227
224
223
214
204
203
199
201
205
204
207
204
206
209
205
205
198
201
203
204
212
210
216
217
213
219
217
222
