P2
60 28
255
99
110
111
109
108
105
103
102
98
92
83
79
80
79
80
78
75
73
68
67
70
77
88
96
93
93
97
101
113
112
113
143
159
143
102
85
81
61
66
66
67
79
89
100
108
109
101
98
99
103
107
109
107
94
86
81
78
83
88
90
80
97
105
105
104
102
99
95
89
84
80
80
78
72
66
65
69
79
85
92
98
97
102
106
107
108
104
124
146
135
144
177
204
175
112
100
108
108
112
111
110
109
109
116
117
118
126
126
121
111
97
93
91
91
92
88
82
87
94
98
58
75
90
97
96
96
96
92
87
83
78
72
62
62
71
85
94
95
96
95
97
98
101
108
109
114
121
143
157
152
149
163
185
154
117
111
109
112
112
111
111
109
110
106
108
115
115
118
118
115
111
101
88
80
82
87
90
87
94
97
55
63
77
84
91
92
96
96
93
84
67
59
67
81
90
90
92
91
91
93
96
103
105
113
125
119
126
153
162
155
133
136
146
127
116
115
117
117
114
113
111
109
107
105
107
107
110
115
113
113
110
104
90
74
71
82
93
93
96
102
77
72
73
77
87
90
90
89
79
63
61
77
87
90
93
92
89
86
90
98
101
106
108
111
117
118
125
134
141
137
123
125
125
118
120
120
118
115
113
116
115
111
107
105
105
105
105
104
109
110
106
106
102
83
65
71
87
93
94
102
81
84
81
74
76
85
88
80
64
66
82
89
94
95
91
90
90
93
96
98
98
98
105
110
113
118
117
121
124
118
117
114
112
113
111
111
111
111
110
110
114
112
110
106
103
104
97
93
96
97
102
102
103
97
83
78
80
88
93
92
80
97
92
79
74
78
78
67
67
83
94
92
91
94
90
89
91
93
98
95
98
101
101
105
104
103
102
105
107
104
105
100
94
94
95
96
96
98
100
103
108
109
109
109
105
104
104
97
94
92
96
99
101
104
90
74
72
75
77
78
79
104
104
86
78
74
66
66
81
90
93
96
94
89
88
89
92
94
94
94
92
92
87
83
85
89
95
96
97
102
95
91
89
87
87
84
82
76
80
87
93
99
102
103
105
107
105
97
90
88
87
95
99
98
97
89
87
81
83
91
67
69
83
83
83
73
64
72
81
87
88
89
89
88
87
85
88
90
84
78
75
78
82
82
89
94
98
101
97
98
94
93
93
88
89
85
83
84
79
77
76
83
91
94
97
98
97
98
95
91
87
88
93
95
94
88
86
89
92
107
70
55
65
75
84
83
75
76
79
79
84
86
84
80
81
86
85
77
72
76
83
83
87
91
91
94
91
94
96
93
94
92
90
86
86
86
81
82
83
82
79
73
79
87
91
95
94
94
95
93
90
82
85
91
87
88
89
92
100
112
82
52
122
228
233
150
76
70
75
74
76
79
79
80
78
75
69
66
72
80
84
83
82
85
84
85
84
83
91
91
87
83
79
82
81
82
81
80
82
80
79
78
78
84
86
88
89
93
95
90
88
84
83
89
83
80
83
86
102
115
70
46
101
173
174
119
76
78
84
79
74
74
73
74
74
66
62
71
86
88
79
75
73
77
77
72
69
63
59
60
61
62
63
56
53
56
67
75
76
80
78
78
79
81
84
86
88
91
93
94
92
92
88
84
79
75
79
83
99
114
77
44
40
66
73
59
68
91
92
85
80
77
73
70
70
67
71
84
87
82
75
71
69
66
64
54
42
37
35
39
44
43
41
41
45
45
60
80
80
78
74
72
76
80
88
91
94
97
99
99
95
91
91
86
79
75
75
84
97
113
94
71
89
121
117
88
83
99
99
94
89
81
78
73
66
64
67
72
73
71
68
57
48
47
50
51
47
44
45
42
33
26
31
41
43
49
74
97
97
86
78
73
72
76
83
94
104
111
113
110
99
91
90
82
72
70
63
71
91
104
105
103
105
111
95
67
78
104
107
103
96
88
80
75
68
63
60
58
56
47
44
44
46
53
64
76
71
58
53
48
46
46
48
50
47
61
94
112
109
94
87
96
94
85
76
83
104
117
121
113
102
97
96
88
72
62
53
60
90
106
101
102
106
114
98
69
80
103
114
113
104
96
88
79
69
64
61
54
49
45
43
49
58
71
90
108
102
72
53
53
56
54
51
52
63
89
115
116
103
90
86
88
79
77
81
90
110
118
118
111
100
95
88
79
71
56
46
58
87
107
105
106
107
110
100
68
75
106
113
116
113
106
100
90
80
72
63
58
57
61
63
67
74
82
93
104
113
106
88
71
62
59
62
78
99
110
109
97
87
81
75
78
90
97
104
110
112
112
109
104
97
91
87
76
63
51
53
69
86
107
106
101
103
107
96
72
75
103
113
116
117
111
106
100
91
85
81
80
78
81
85
83
81
80
81
93
105
109
109
106
101
101
104
105
103
97
88
87
85
85
90
91
98
106
110
112
110
109
102
93
91
90
87
75
46
29
43
71
91
107
105
105
103
110
103
71
65
99
117
115
115
113
110
104
97
94
92
93
94
86
80
78
81
83
82
82
85
90
96
97
96
100
103
98
91
93
97
100
103
94
90
90
93
103
106
109
110
105
99
92
84
79
75
60
30
28
54
76
101
113
103
106
107
113
109
77
66
96
118
119
116
116
113
109
102
96
96
96
95
93
84
80
78
80
84
82
88
92
93
92
90
92
88
89
94
98
100
93
86
85
83
89
100
105
106
108
108
105
99
92
85
76
65
51
28
35
68
88
103
114
105
105
108
109
113
86
65
94
113
115
116
114
114
109
103
98
98
99
97
101
101
97
93
87
85
82
83
83
81
85
81
79
82
86
93
91
88
87
82
87
94
98
101
103
110
115
111
105
96
90
89
85
72
45
33
53
82
102
110
116
103
102
105
110
115
93
67
84
108
115
117
114
116
114
106
101
95
96
99
98
101
103
101
98
96
98
97
92
89
90
94
91
93
94
92
94
89
88
92
97
102
101
102
108
112
113
107
103
97
89
85
75
59
41
46
76
92
106
116
117
106
104
102
107
113
101
69
74
104
114
115
113
111
112
108
103
98
95
94
94
99
101
103
105
102
104
106
105
103
101
103
102
96
96
95
95
97
100
105
104
105
110
114
116
113
109
104
96
91
89
84
66
46
49
64
86
102
106
116
119
101
104
104
107
112
104
82
74
96
110
107
108
112
114
111
107
104
99
97
96
95
98
100
99
103
103
101
103
101
99
99
100
98
101
104
102
107
110
109
110
112
117
116
112
109
105
102
94
91
90
79
65
52
55
77
91
103
111
116
120
103
101
104
106
107
103
92
78
83
103
110
109
110
111
113
114
110
104
99
96
96
98
100
99
101
103
103
101
99
100
99
97
100
105
111
113
112
111
112
118
120
121
119
112
110
107
100
97
93
87
70
54
55
69
90
99
104
114
117
120
108
108
106
104
104
110
108
87
80
95
106
108
110
110
113
114
109
108
103
98
99
98
100
102
102
103
102
103
104
104
105
106
108
111
115
117
111
110
114
118
123
122
120
115
109
105
100
96
90
76
61
53
64
85
97
104
106
112
115
116
107
108
107
107
105
106
109
103
89
86
102
108
107
113
115
115
114
108
107
105
104
103
99
104
105
103
105
108
109
107
105
107
109
112
115
118
111
107
117
120
120
122
117
114
108
102
99
93
85
69
57
59
74
94
98
100
106
109
119
118
106
108
106
106
107
102
107
110
99
87
91
104
108
112
112
111
112
108
106
106
106
107
106
107
109
109
111
111
113
112
110
112
111
113
118
116
116
116
120
123
120
121
116
112
109
102
94
88
81
65
53
65
78
92
104
102
110
114
116
120
