P2
60 28
255
176
147
119
97
80
72
75
78
78
74
79
90
123
170
194
211
215
219
225
211
196
185
189
202
200
195
192
186
187
178
167
156
144
143
141
141
138
134
138
138
151
169
185
200
204
217
225
229
241
246
251
251
251
254
253
253
254
254
254
252
187
161
123
96
81
78
83
85
75
72
80
99
133
177
207
214
219
216
203
185
176
186
190
188
185
180
179
169
157
145
134
134
131
131
134
136
141
135
129
125
121
138
159
175
187
190
206
216
228
242
243
249
252
252
249
246
250
253
253
252
192
163
125
95
84
86
85
82
73
75
86
116
159
196
219
219
220
207
178
173
178
183
186
183
190
189
183
175
167
170
163
156
151
144
149
145
142
139
130
129
124
128
140
149
170
176
188
203
207
226
232
238
244
236
240
239
242
249
246
249
190
169
124
94
92
89
83
79
74
70
93
137
181
211
217
220
208
189
179
185
191
183
185
189
194
208
213
228
239
234
242
245
248
247
241
245
237
235
221
190
168
141
134
134
137
159
167
178
192
202
221
221
225
232
233
243
238
241
246
237
191
159
119
100
93
87
81
77
76
81
113
158
197
220
219
216
199
185
196
201
199
198
204
218
222
233
233
229
235
226
230
228
212
210
195
195
198
195
208
218
232
231
207
175
145
150
163
169
184
192
209
214
217
234
234
238
238
234
240
236
188
143
111
100
87
83
84
78
74
89
126
177
209
223
223
201
189
195
204
202
199
216
220
218
223
222
232
234
236
242
238
242
232
218
209
197
195
182
176
179
175
187
198
207
208
185
175
174
176
188
190
205
214
220
233
228
236
238
235
239
188
162
129
98
85
86
86
78
72
97
148
194
217
225
221
194
187
190
190
207
215
218
221
223
234
234
234
236
232
240
239
237
235
223
220
211
203
197
187
186
181
182
185
180
194
204
201
191
179
187
188
193
207
210
226
231
236
245
240
244
197
178
135
98
87
87
82
71
76
114
167
200
221
230
208
192
191
199
204
201
212
218
230
233
227
233
228
225
225
226
232
222
221
217
207
204
194
190
183
177
182
177
181
186
186
194
185
184
186
179
186
183
192
211
220
237
246
249
249
243
197
175
133
103
92
85
80
77
93
128
176
209
223
225
203
192
192
198
209
206
213
220
219
224
218
220
222
216
215
206
204
194
181
183
172
165
161
156
161
159
164
171
174
183
180
185
188
182
183
172
176
180
183
208
220
237
251
251
254
254
194
174
138
107
88
80
80
83
102
144
184
213
223
218
206
188
189
195
206
218
213
212
207
210
213
202
200
192
181
168
151
147
141
145
152
145
147
137
130
134
134
150
160
170
179
177
184
186
180
177
166
175
183
194
223
239
249
254
254
254
200
183
142
108
92
82
80
86
105
152
196
220
230
220
200
184
194
210
210
208
203
203
204
199
199
184
169
159
137
137
144
150
170
182
197
200
193
192
177
163
141
127
137
147
165
174
177
183
180
182
170
169
183
187
216
239
239
227
211
226
197
181
148
112
89
81
82
93
112
153
205
228
235
220
192
196
208
213
208
199
196
188
191
187
170
155
131
126
141
160
162
145
136
131
133
135
134
152
176
189
184
155
137
128
133
159
168
175
179
176
181
169
174
198
198
171
140
168
221
239
199
189
165
134
100
78
95
126
131
154
217
251
251
227
201
205
210
204
201
190
186
184
177
170
145
130
134
143
143
130
131
146
149
135
121
126
138
134
136
146
162
170
161
148
124
129
150
163
180
182
184
178
180
180
125
127
206
245
251
248
200
193
182
153
105
82
96
106
107
138
179
199
176
152
189
219
215
202
194
187
177
176
164
142
123
129
151
134
116
133
182
208
170
128
166
233
254
248
192
137
144
164
164
161
155
126
128
150
170
188
189
193
179
125
120
184
231
238
242
254
201
202
192
160
118
96
87
71
94
174
223
232
211
182
205
224
214
205
192
185
172
162
148
122
123
136
127
113
135
197
237
207
158
180
214
197
181
192
188
166
173
186
171
150
156
151
141
152
169
193
207
206
169
116
141
196
231
253
254
254
197
202
196
172
141
110
93
86
117
184
228
229
207
190
207
224
212
204
193
179
175
155
133
124
132
132
113
128
180
230
244
190
145
178
201
152
118
152
188
177
182
219
206
156
136
151
160
174
189
203
224
205
146
121
155
207
241
252
254
254
196
198
196
188
160
119
109
116
139
188
228
231
204
191
207
218
213
205
196
183
174
155
137
143
141
127
123
152
203
241
245
200
155
162
176
148
116
147
189
169
180
235
233
188
140
127
153
184
209
215
196
162
127
129
173
220
249
253
254
254
200
199
201
199
164
117
108
104
132
199
226
231
209
185
206
218
214
206
198
190
169
159
155
153
153
150
159
172
198
234
247
206
166
171
173
166
169
181
183
172
197
242
239
216
183
141
149
192
209
172
125
131
125
128
185
235
252
254
254
254
201
200
201
203
174
126
110
107
130
194
222
226
211
187
203
217
217
216
204
194
178
173
173
164
169
170
174
183
192
214
239
226
181
165
175
180
183
194
194
201
223
230
219
206
205
197
206
234
206
134
121
142
126
141
202
241
252
254
254
254
200
201
200
197
180
145
111
93
123
182
215
222
214
191
187
210
214
213
208
195
189
176
182
192
187
193
191
197
201
204
219
216
210
207
208
218
223
231
230
226
236
226
217
215
214
233
247
245
178
110
137
143
114
155
215
243
251
252
254
254
198
200
202
194
179
153
106
79
118
181
216
225
222
203
189
210
221
211
207
195
193
195
198
209
203
202
204
202
210
205
203
205
205
213
213
219
223
218
220
212
213
209
201
217
222
230
240
218
169
134
150
144
134
185
228
244
249
249
254
254
198
197
198
197
186
159
106
82
136
203
225
232
230
217
208
212
227
209
194
201
201
209
211
213
218
213
216
209
207
211
199
202
195
192
199
193
204
205
202
205
193
207
216
217
220
212
218
218
214
202
176
176
188
209
235
238
246
252
252
254
200
200
202
201
191
170
118
99
154
209
226
237
238
228
227
219
222
223
216
225
223
219
220
218
231
233
232
229
214
215
208
204
209
203
215
214
214
222
211
216
216
215
219
208
211
214
215
228
222
193
177
189
209
222
240
243
244
254
254
254
198
199
199
198
197
183
136
115
163
208
231
234
235
237
231
230
222
229
238
232
231
220
218
223
226
240
238
234
230
224
232
228
230
231
223
231
228
229
226
212
216
209
211
215
211
224
230
233
207
177
190
199
222
242
238
245
250
251
254
254
200
202
201
199
198
185
148
131
175
213
232
236
235
240
236
239
233
225
233
231
234
231
220
224
222
224
221
216
222
216
220
224
222
230
224
227
228
220
220
206
207
214
214
227
228
237
243
208
184
185
202
223
235
243
238
242
249
249
253
254
201
200
199
201
195
177
141
130
177
221
230
238
238
236
244
242
244
232
221
228
228
235
234
234
240
229
224
218
212
218
214
224
226
221
228
219
219
217
214
217
215
227
229
233
247
246
214
146
136
188
216
238
245
238
240
240
247
251
251
254
199
198
198
209
221
208
157
137
179
222
232
237
243
241
246
244
245
242
231
229
222
226
237
238
241
233
231
233
225
233
231
231
237
228
232
229
226
230
222
225
228
234
242
241
241
215
161
140
163
207
241
249
248
236
240
247
247
251
252
254
196
197
204
214
227
224
165
139
182
217
237
237
238
245
244
247
242
243
247
239
236
226
225
231
230
239
238
240
240
234
241
239
238
237
231
239
234
237
242
232
236
233
229
224
228
247
228
201
206
230
250
249
244
233
233
248
249
249
253
253
