P2
60 28
255
156
157
156
166
167
170
163
153
153
149
151
147
144
146
145
154
157
155
162
163
169
167
162
164
155
152
149
142
141
134
132
124
117
114
108
118
125
129
141
143
156
163
166
180
177
182
186
191
209
208
214
214
207
216
211
220
229
227
235
230
152
157
159
168
162
159
158
149
153
154
157
161
153
152
149
153
159
153
151
145
140
137
130
134
131
130
131
124
126
120
114
117
110
109
104
105
116
118
132
139
146
159
158
171
176
177
189
190
205
206
203
211
204
211
211
215
230
225
234
232
153
157
162
160
162
151
148
151
147
155
158
163
166
159
162
157
153
149
137
132
126
121
119
117
121
122
123
118
109
110
105
105
108
99
102
102
107
116
119
135
140
146
159
159
170
173
180
194
193
204
200
199
206
199
207
208
218
230
222
232
155
154
162
158
157
154
148
151
149
157
163
167
175
169
167
163
153
149
140
136
130
126
128
120
117
113
111
114
105
104
103
99
105
101
101
103
105
117
119
125
135
137
150
151
159
169
170
186
186
191
197
190
201
199
206
216
215
228
220
222
159
159
158
158
148
146
144
142
150
156
168
173
170
170
164
163
157
152
149
137
135
131
125
127
123
121
120
115
115
112
115
113
110
115
110
113
115
116
124
118
126
132
132
145
145
157
165
168
183
179
182
183
181
198
203
215
217
213
223
215
157
161
154
150
143
140
143
142
151
158
165
174
176
178
172
168
166
159
157
151
145
143
139
144
141
138
138
130
132
129
125
128
125
124
119
120
126
120
124
123
120
125
121
133
137
138
154
156
166
170
172
182
178
194
206
210
221
215
221
216
154
156
157
145
142
137
143
152
153
165
171
180
184
177
179
173
171
171
165
168
161
159
161
158
164
160
158
155
145
148
144
142
144
137
138
131
128
131
125
130
125
125
128
127
134
134
142
152
152
165
166
171
184
189
203
205
213
225
215
223
155
152
155
145
143
143
144
155
158
169
178
181
189
182
181
177
168
173
170
171
173
169
174
171
173
172
164
165
158
159
156
148
152
146
145
144
138
142
137
137
136
130
133
127
130
134
133
147
148
154
164
168
186
192
201
208
207
225
225
229
157
154
149
150
141
138
144
157
170
174
185
189
185
186
179
175
172
167
169
163
166
167
163
166
162
162
163
159
159
151
149
146
142
147
142
144
146
145
150
148
147
144
135
134
127
131
134
136
147
146
156
170
180
201
205
214
221
220
234
232
153
154
148
148
144
143
150
153
167
176
183
187
179
176
165
158
157
149
155
160
159
157
150
153
153
153
157
150
147
142
137
133
127
132
131
133
142
144
150
153
154
153
144
141
135
130
136
134
144
149
158
180
185
203
215
220
231
228
239
241
154
155
153
144
146
142
146
154
159
169
169
167
160
146
143
139
143
152
156
163
162
158
154
149
156
156
158
162
157
156
145
137
132
120
119
117
121
131
137
150
155
155
156
146
146
139
136
141
140
153
162
175
197
202
219
227
228
239
236
244
158
153
157
149
146
145
147
158
156
155
152
139
134
132
141
152
155
160
151
145
140
127
123
117
118
126
126
136
137
141
148
148
150
141
132
121
109
114
118
130
142
147
154
147
144
142
135
144
146
155
167
174
195
199
214
232
233
243
240
242
162
161
156
153
143
143
146
147
150
138
128
123
129
147
152
158
154
138
122
104
92
83
78
76
79
86
87
86
88
97
121
137
144
150
140
135
127
114
116
115
126
136
138
143
136
133
135
138
148
150
164
178
184
204
212
228
240
236
241
235
166
165
157
154
144
141
148
145
139
120
110
122
137
151
145
134
128
113
99
86
79
78
73
74
82
92
93
79
70
74
92
116
124
136
140
137
138
128
128
124
118
124
125
128
127
127
134
134
145
152
161
177
181
203
214
222
237
233
243
243
169
163
165
155
154
146
143
143
130
115
104
123
137
127
120
116
118
120
108
92
83
79
73
69
71
79
83
83
77
82
103
121
129
126
127
126
130
136
132
136
129
121
122
120
124
122
124
132
135
153
163
169
187
194
213
223
228
237
234
244
174
167
168
157
156
151
143
143
125
109
110
118
119
111
111
122
140
151
135
106
87
78
72
65
64
70
77
81
81
92
124
158
170
148
130
123
119
131
132
136
140
132
130
124
125
125
121
130
134
146
161
166
186
192
208
225
224
237
237
240
181
177
169
170
158
154
150
141
133
119
118
114
106
111
117
137
163
174
151
114
93
81
75
75
70
70
75
78
79
93
139
184
195
186
160
136
121
117
125
125
136
139
137
147
142
143
144
135
144
149
162
173
175
193
199
214
227
229
240
238
181
185
176
174
165
157
153
144
137
123
115
114
111
119
132
149
174
190
174
135
103
87
76
74
75
75
78
79
89
113
158
202
211
203
184
159
141
123
122
122
122
133
136
151
161
166
169
156
160
162
166
180
177
191
202
209
226
228
240
242
188
187
189
179
176
163
156
152
138
130
120
122
133
139
146
157
177
195
192
162
128
105
87
77
79
77
78
89
109
146
187
214
216
204
190
167
156
152
137
139
133
126
133
140
162
173
175
172
159
169
175
177
186
184
202
208
214
232
229
239
198
195
201
189
182
174
162
158
142
132
125
129
146
156
161
169
182
199
206
194
165
136
117
101
96
97
100
119
149
184
211
222
220
204
190
174
157
158
154
154
151
137
140
143
160
176
175
178
166
169
182
178
189
187
196
211
210
227
228
232
200
207
206
206
190
178
169
158
152
136
132
137
148
172
175
181
189
195
202
209
211
190
163
143
130
128
139
162
194
214
221
219
212
208
192
183
171
160
167
159
161
157
151
165
163
174
181
169
172
176
187
188
179
191
191
203
218
218
232
229
204
215
211
208
195
184
176
159
152
141
138
144
148
172
187
193
200
202
206
210
221
223
213
200
191
189
197
208
222
226
223
221
213
213
201
191
193
180
183
182
177
181
174
181
181
177
182
170
178
187
187
191
182
190
196
199
215
215
229
234
212
219
227
216
210
195
180
169
153
153
150
144
149
157
179
189
199
210
209
219
222
224
226
220
224
223
224
229
226
227
219
214
213
202
206
200
194
197
189
191
190
189
195
187
190
187
177
178
179
192
190
183
188
182
196
203
209
224
223
236
220
220
230
222
216
207
189
177
164
163
164
153
154
153
164
177
185
201
201
208
215
217
227
227
225
223
222
230
220
214
208
197
203
197
195
200
195
199
197
196
198
192
195
191
188
184
178
189
189
193
196
184
189
184
190
204
205
223
227
231
219
226
224
228
214
206
194
176
175
172
176
175
164
164
160
171
178
177
187
184
192
201
203
213
205
209
212
208
212
200
200
199
192
202
200
204
205
198
199
190
192
194
188
191
184
185
186
181
197
195
190
188
179
189
188
198
208
212
230
227
218
228
223
226
218
206
199
185
183
179
181
185
175
175
171
173
186
181
186
184
183
195
191
199
200
199
210
206
210
209
208
215
209
212
207
199
202
193
195
195
192
197
191
196
194
189
196
190
197
199
192
195
185
193
194
193
211
212
228
233
221
227
234
223
223
211
200
196
184
189
190
190
192
181
182
182
187
194
189
195
194
198
207
204
213
213
216
223
214
221
219
219
223
210
208
202
195
196
190
196
195
196
202
193
195
193
192
197
192
199
197
190
194
185
192
195
200
218
216
231
224
226
233
221
221
215
202
200
190
190
193
194
200
190
189
191
189
199
196
201
211
210
219
215
220
229
227
231
222
224
227
217
217
208
205
204
193
197
196
202
207
202
207
200
199
204
196
201
196
195
196
188
195
188
188
195
194
217
223
226
