P2
60 28
255
120
133
137
131
108
91
89
95
103
105
110
110
108
115
117
125
137
143
153
155
157
162
163
170
172
178
181
178
183
182
180
180
172
175
169
163
161
152
153
151
147
147
142
146
145
144
147
147
153
152
160
175
184
197
200
199
200
195
196
191
122
137
138
126
101
89
98
108
123
128
123
127
130
133
136
137
147
157
168
175
174
177
177
183
184
180
185
184
189
192
187
191
187
186
185
175
173
167
163
163
161
163
160
162
164
159
162
160
160
164
165
178
186
194
198
192
193
187
183
182
125
135
137
120
103
97
109
128
139
146
144
142
146
148
156
159
165
176
179
188
190
186
191
190
192
189
183
188
189
194
192
190
193
188
187
183
177
175
167
167
167
165
170
166
168
170
168
172
168
168
173
177
188
189
188
181
175
179
174
175
132
137
133
118
106
105
111
126
136
143
151
149
154
159
162
170
174
183
187
186
189
188
194
193
194
196
189
193
195
195
195
190
194
190
184
185
179
176
173
170
172
169
173
173
173
177
174
176
174
174
182
180
186
186
179
179
172
175
176
170
132
142
135
118
103
107
116
124
139
143
148
152
156
169
173
178
182
181
186
184
187
192
187
192
191
191
195
190
196
194
192
194
190
191
184
181
179
171
173
172
173
176
172
176
177
178
178
174
176
180
184
188
182
180
170
166
172
169
174
171
136
142
132
116
106
111
128
137
143
145
147
158
162
171
178
180
188
185
184
186
187
195
192
193
196
194
199
197
197
198
195
196
192
191
188
180
180
175
175
178
178
180
176
176
176
175
178
178
181
187
188
193
182
171
168
163
170
172
177
178
139
139
131
116
118
127
139
150
152
156
156
158
169
172
178
180
182
186
182
185
188
191
198
196
199
201
199
202
197
199
197
193
194
186
185
179
174
176
173
178
179
174
175
172
174
174
174
182
182
188
192
187
182
168
166
169
169
179
177
176
142
136
128
114
120
140
144
151
156
156
160
163
174
177
176
178
172
177
180
183
192
192
199
201
199
203
201
203
202
198
200
192
190
184
177
178
171
173
173
172
177
172
171
169
167
172
174
184
191
192
194
183
176
168
168
178
176
180
183
179
142
139
124
121
129
140
148
153
161
158
161
169
169
174
171
172
173
169
179
182
186
193
193
201
202
203
205
200
202
197
196
192
180
175
165
161
160
156
164
165
166
168
161
165
164
167
177
183
192
190
186
179
164
167
170
177
184
179
185
181
142
139
129
123
125
133
148
152
155
159
159
169
170
169
169
168
174
173
178
182
183
193
194
198
202
199
204
199
195
194
186
185
175
165
159
150
153
151
151
154
153
158
156
160
168
169
178
182
185
186
178
172
162
165
175
175
183
182
180
182
142
136
133
127
130
137
147
158
156
159
160
160
166
162
166
168
165
171
170
176
184
186
194
195
197
198
198
201
199
199
198
193
186
171
163
159
155
156
151
153
151
146
155
155
163
173
174
178
174
174
168
161
169
168
174
181
180
183
179
182
145
135
132
131
136
146
149
159
161
161
165
157
159
158
157
163
160
165
169
172
178
177
184
192
196
206
211
212
213
206
202
193
182
172
160
157
151
150
149
146
150
145
147
150
155
168
165
167
165
162
167
163
168
171
171
182
180
180
182
179
144
140
129
129
135
147
158
159
163
160
159
157
148
151
151
156
162
158
163
159
161
172
184
199
201
203
204
203
203
197
192
179
165
160
150
143
139
134
136
135
135
138
136
140
144
151
159
155
158
158
162
168
166
174
173
174
181
177
181
177
143
142
133
135
144
153
163
161
162
163
154
150
144
144
149
150
155
148
148
157
160
171
180
187
196
195
194
192
188
186
170
155
144
134
127
116
114
111
104
105
107
116
120
123
129
136
151
152
156
163
161
172
173
171
173
169
176
175
176
179
144
141
142
142
150
158
159
163
162
160
152
143
140
136
141
141
140
146
148
155
162
167
174
178
181
171
161
149
137
126
109
99
88
81
76
67
66
64
62
67
75
88
108
117
131
143
146
158
158
164
170
170
174
168
168
169
168
174
169
170
148
141
142
146
153
163
163
163
162
157
153
143
139
134
134
140
140
145
150
153
159
158
155
149
132
111
92
71
57
50
46
43
41
44
51
56
57
64
74
81
94
106
125
137
144
154
150
154
158
160
173
171
170
168
162
167
163
167
171
168
143
144
142
149
154
161
166
164
163
152
145
142
133
134
133
135
140
142
146
146
140
125
107
82
57
46
41
43
47
48
54
57
59
66
70
78
88
92
103
110
118
134
139
148
150
150
153
151
161
164
167
173
166
169
165
164
170
166
171
168
142
142
141
149
156
159
166
163
159
153
142
140
133
130
134
130
131
131
122
108
89
69
58
52
48
50
59
66
74
82
87
94
96
98
103
108
118
120
126
133
134
144
145
149
155
151
156
157
162
169
165
171
168
166
169
163
169
169
171
174
143
141
145
148
158
165
162
164
156
151
144
137
136
128
123
113
103
92
76
60
50
49
55
61
72
81
88
104
106
112
121
123
129
126
131
136
134
139
137
142
146
148
157
153
155
154
152
165
164
167
169
164
169
166
169
170
169
179
173
173
148
141
145
152
159
167
163
164
159
152
149
136
130
121
105
89
72
61
57
56
58
63
77
88
99
113
119
131
135
136
145
145
149
149
145
149
146
149
150
149
158
157
163
162
156
160
158
166
171
169
172
165
169
172
168
177
178
184
184
175
147
150
148
159
161
163
166
160
160
154
146
137
125
115
99
86
79
77
83
82
88
100
108
128
136
142
152
153
159
154
154
159
155
158
155
154
156
153
160
161
165
172
167
168
162
159
165
164
171
170
167
168
165
172
172
174
183
178
184
183
146
154
155
160
167
166
168
162
158
153
141
134
125
115
109
106
110
108
113
117
118
135
141
150
162
160
165
163
160
161
159
168
167
166
165
159
161
161
166
174
168
171
167
163
166
165
172
171
172
173
165
166
165
168
176
174
183
184
186
193
152
152
160
161
164
167
166
168
158
152
143
135
136
127
131
135
133
141
140
147
152
153
165
162
165
166
162
168
162
165
169
169
173
167
167
166
163
170
170
177
177
167
167
161
164
169
169
175
171
171
166
158
165
168
177
184
182
189
187
194
153
152
159
164
167
170
165
164
156
149
147
142
147
145
147
153
147
153
155
156
162
159
165
166
164
170
168
173
173
172
177
172
173
172
168
173
171
177
179
174
177
169
167
166
165
175
176
180
178
167
163
157
166
175
180
192
191
197
202
199
151
155
159
167
166
164
164
158
157
151
149
151
148
154
152
149
154
151
158
157
158
164
164
169
167
168
174
174
181
180
176
172
167
173
172
175
184
182
183
174
170
171
165
169
170
175
182
178
176
166
162
165
165
181
187
190
202
201
208
208
150
160
164
167
168
163
163
157
157
157
153
158
152
152
153
149
155
155
158
164
163
169
170
173
174
172
180
181
182
182
172
170
169
176
185
182
190
186
180
177
167
172
172
173
181
180
184
182
173
165
159
167
171
180
194
195
210
214
214
220
152
156
165
167
169
165
159
161
157
157
154
150
153
152
155
156
157
166
166
171
171
169
175
175
179
179
177
182
177
177
172
167
176
177
185
190
187
188
179
176
172
170
181
183
186
186
179
176
165
160
164
167
178
184
197
209
214
225
225
228
156
157
166
171
168
166
159
159
157
153
154
152
157
160
162
167
164
169
173
173
178
176
180
181
182
188
183
183
180
173
175
171
178
185
184
189
186
186
182
174
177
177
186
192
190
190
179
168
162
161
171
174
182
191
200
217
224
232
236
231
