P2
60 28
255
224
221
223
221
227
235
235
239
238
238
244
245
248
246
246
246
244
247
240
235
231
224
224
214
205
200
189
188
184
180
178
170
173
172
174
178
175
181
182
181
187
191
198
201
205
211
217
229
236
245
253
253
254
254
254
254
254
254
254
254
217
217
224
227
232
243
241
244
246
247
250
248
250
252
252
252
251
252
248
243
239
232
229
221
212
209
198
193
184
177
178
169
169
168
166
174
172
176
178
177
183
187
194
200
206
215
223
230
236
243
250
253
254
254
254
254
254
254
254
254
216
224
225
233
237
241
246
246
250
253
253
253
253
254
254
254
254
252
251
246
241
237
228
223
215
208
206
195
191
183
172
173
167
169
168
165
169
167
173
174
176
187
193
199
205
210
220
228
237
245
249
254
254
254
254
254
254
254
254
254
214
222
225
230
235
239
246
251
252
253
253
254
252
252
251
245
243
238
231
226
218
215
207
203
202
199
202
192
187
184
174
174
167
164
167
162
167
166
166
169
169
180
187
196
203
209
222
229
239
246
248
252
254
254
254
254
254
254
254
254
221
223
228
229
233
241
247
252
253
253
251
244
237
227
217
210
201
195
189
185
184
182
183
174
171
173
171
176
172
175
177
168
169
162
160
161
156
163
163
165
171
173
182
188
198
210
217
227
235
246
251
252
254
254
254
254
254
254
254
254
223
223
227
231
236
241
244
246
242
233
222
206
196
187
182
189
187
191
191
189
194
191
190
182
171
169
159
157
154
154
163
159
163
161
157
161
154
159
161
162
169
169
177
186
191
205
214
224
232
238
247
251
253
254
254
254
254
254
254
254
224
229
234
240
243
241
236
225
211
194
183
182
184
195
202
210
219
220
223
221
222
222
212
205
196
188
180
162
154
146
143
149
148
157
158
152
156
152
158
159
159
170
175
186
193
200
211
218
230
238
244
252
253
254
254
254
254
254
254
254
223
233
238
239
234
220
204
187
182
187
193
202
208
213
219
223
224
220
216
214
213
211
203
196
192
187
184
172
162
156
143
140
135
143
152
147
154
151
154
163
160
167
173
181
190
194
207
215
224
237
243
250
254
254
254
254
254
254
254
254
232
232
230
218
200
184
174
179
194
206
212
209
208
206
204
201
195
190
185
184
184
182
176
172
175
171
162
158
151
154
153
141
137
131
138
146
144
153
151
153
161
162
173
180
188
196
200
214
221
228
240
247
252
254
254
254
254
254
254
254
228
218
202
185
175
174
177
191
205
209
205
193
180
171
166
159
151
146
141
140
145
144
140
144
148
148
137
135
133
128
135
133
135
132
128
136
136
146
150
149
157
161
173
182
187
194
198
210
219
227
240
248
252
254
254
254
254
254
254
254
210
192
172
171
180
187
187
184
188
185
173
156
139
129
125
122
114
104
100
98
99
97
95
108
115
116
116
113
119
118
119
124
122
128
126
126
134
132
140
146
152
163
169
180
189
193
204
211
221
231
240
251
254
254
254
254
254
254
254
254
181
164
163
177
188
192
183
164
147
139
131
123
106
86
78
76
77
76
71
70
70
73
73
75
79
82
86
89
96
105
107
111
110
111
116
116
128
132
137
146
149
163
168
175
186
193
204
210
220
232
238
248
254
254
254
254
254
254
254
254
160
162
171
174
176
173
157
132
110
99
92
86
76
65
72
80
77
76
69
66
69
71
75
75
76
74
70
75
81
88
94
97
104
101
102
110
115
131
137
145
155
159
171
179
188
201
206
216
222
231
243
248
253
254
254
254
254
254
254
254
162
169
171
165
150
134
115
97
87
79
76
76
68
65
88
112
103
84
73
67
68
71
75
83
86
83
74
76
90
99
102
99
98
92
90
98
100
115
136
147
160
163
173
184
194
207
209
217
227
233
242
247
250
254
254
254
254
254
254
254
168
162
151
137
113
89
76
76
82
89
104
106
89
80
97
118
108
91
84
75
73
74
80
94
101
96
87
85
105
126
133
125
103
93
87
85
90
95
124
149
160
174
178
189
203
210
220
221
229
238
240
247
250
252
254
254
254
254
254
254
150
136
117
97
82
71
68
76
92
116
138
133
104
82
87
104
107
101
89
78
74
75
82
97
107
103
93
92
112
142
157
150
129
107
93
84
87
86
100
134
158
178
186
198
214
220
226
225
232
240
241
247
251
252
254
254
254
254
254
254
131
115
96
82
74
69
77
94
119
151
167
153
116
90
90
96
102
98
87
73
63
63
76
97
110
108
99
96
120
152
165
160
146
126
109
98
89
86
84
114
157
178
197
206
215
226
229
236
239
243
247
245
250
254
254
254
254
254
254
254
115
102
94
89
85
87
93
112
140
164
179
170
127
96
95
97
98
94
85
76
71
76
94
110
115
112
99
96
128
161
169
162
148
132
119
107
95
95
92
106
155
183
198
209
219
232
231
236
241
242
244
245
249
251
251
254
254
254
254
254
126
128
126
123
118
114
115
121
132
156
185
181
150
114
95
97
96
92
90
91
90
93
105
115
116
108
93
105
140
160
164
158
145
135
123
112
106
101
109
123
156
193
202
214
227
232
239
244
247
245
244
248
250
252
253
253
254
254
254
254
159
168
166
160
153
142
134
128
128
145
168
181
173
126
91
95
100
100
99
97
96
100
108
115
111
98
97
122
149
159
153
146
138
129
124
114
117
125
137
163
182
202
211
219
232
237
244
250
249
247
246
250
252
252
254
254
254
254
254
254
187
184
180
175
172
169
163
154
147
143
152
167
159
136
113
98
100
97
95
100
99
100
107
107
100
97
112
133
146
148
145
139
134
126
128
137
142
160
177
195
207
206
218
229
238
245
247
251
250
249
249
248
252
254
254
254
254
254
254
254
205
196
189
185
180
184
185
176
167
156
150
148
146
140
123
111
106
103
105
105
105
106
107
109
110
119
132
142
146
145
148
147
154
159
159
168
175
189
202
206
212
216
227
239
244
249
251
252
249
246
248
252
254
254
254
254
254
254
254
254
214
208
198
191
190
194
192
182
174
168
162
155
149
144
138
135
133
128
127
129
131
131
131
137
143
148
153
150
153
160
166
177
179
186
186
183
198
206
211
214
219
230
238
247
253
252
252
252
252
249
248
252
253
254
254
254
254
254
254
254
224
216
209
204
200
196
195
188
183
178
169
165
161
156
152
148
147
144
143
146
147
144
139
145
153
152
158
160
168
180
182
188
188
191
198
197
209
215
215
221
226
237
246
251
254
253
252
250
249
249
245
248
253
253
254
254
254
254
254
254
235
230
229
219
210
208
202
198
193
187
180
171
167
164
160
157
154
150
147
145
142
140
145
153
163
169
172
184
189
192
192
189
197
201
209
216
213
219
224
232
243
250
254
254
254
254
252
252
250
249
250
250
253
254
254
254
254
254
254
254
244
241
241
234
220
215
205
200
192
183
180
171
169
168
164
166
160
159
161
158
163
161
166
179
185
192
189
192
193
190
200
201
208
219
218
221
222
228
237
245
252
253
253
254
252
252
249
248
246
244
249
250
252
253
253
254
254
254
254
254
251
253
251
250
242
234
229
218
210
202
194
191
186
187
189
188
189
185
190
189
190
195
193
198
196
193
195
192
200
207
214
221
217
222
226
229
237
242
249
254
254
254
254
254
254
252
250
246
244
245
246
250
252
253
254
254
254
254
254
254
254
254
254
254
253
253
253
246
238
234
228
227
224
224
226
220
219
216
212
208
198
198
194
196
204
199
207
212
214
225
225
227
229
232
241
245
249
254
254
254
254
254
254
254
254
251
249
244
242
246
248
252
253
253
254
254
254
254
254
254
