P2
60 28
255
228
232
232
187
121
68
34
24
24
23
21
29
60
96
119
135
139
137
134
131
129
120
104
91
83
85
87
95
99
91
90
88
85
88
87
84
78
71
67
68
75
85
89
92
99
105
101
101
115
128
140
145
145
154
155
151
156
159
158
160
231
233
233
215
173
105
36
16
18
17
27
45
72
100
125
137
142
140
131
130
122
106
92
86
89
91
95
95
90
86
86
89
84
79
74
68
63
59
55
57
61
65
63
65
82
96
104
104
108
117
125
135
142
149
152
146
145
150
154
155
229
231
230
236
222
139
39
14
21
25
32
54
85
108
131
139
139
136
129
123
113
102
92
89
93
88
84
87
86
85
84
82
78
70
64
59
54
53
53
53
54
54
52
53
67
82
92
103
111
116
120
125
134
144
149
147
146
145
148
155
227
230
232
232
211
126
40
15
16
26
40
57
89
123
136
140
140
138
127
111
104
105
109
109
102
92
87
92
95
100
107
105
106
111
102
87
73
62
55
55
58
56
54
51
51
63
78
89
97
105
113
119
128
137
140
144
142
141
143
146
228
228
231
232
228
156
50
10
18
27
37
63
103
135
144
140
137
132
117
103
106
111
112
109
102
105
114
113
115
117
121
121
124
133
135
138
127
106
89
73
63
57
51
50
48
53
65
76
89
94
103
110
114
125
127
130
131
128
134
138
230
229
229
235
231
161
57
20
25
28
40
73
112
136
142
138
135
128
116
114
111
101
90
97
116
119
119
118
122
125
123
127
129
129
133
133
130
122
117
115
100
84
75
67
64
59
59
64
77
92
95
104
113
118
121
123
128
128
131
136
228
227
226
233
230
177
82
35
25
21
39
79
120
141
143
137
132
123
113
112
107
109
109
106
113
117
119
118
117
122
120
117
123
120
120
116
112
108
101
100
98
97
94
90
84
74
69
71
78
90
99
101
108
113
116
122
130
135
131
129
224
225
228
230
234
197
110
40
23
24
40
81
126
145
140
135
131
124
116
111
112
111
113
114
112
116
115
116
121
122
131
128
126
121
111
110
106
101
100
99
101
102
106
110
106
95
87
87
91
97
104
109
111
111
112
123
131
133
129
124
227
226
228
226
232
210
131
45
16
16
33
89
139
147
139
136
131
123
121
115
110
107
108
114
109
116
125
130
135
123
115
109
102
99
97
95
92
90
87
82
80
85
94
111
119
119
111
100
98
95
101
109
109
109
109
116
121
126
134
136
228
226
226
232
232
205
134
56
15
12
36
94
136
139
139
136
131
123
115
114
111
108
106
111
128
142
152
137
110
93
90
90
84
82
76
73
78
78
76
72
66
69
71
86
99
106
121
119
111
100
93
99
105
107
112
116
123
129
132
140
227
227
225
233
229
221
169
71
14
9
34
97
141
146
144
135
129
122
115
114
109
105
111
125
148
177
171
129
96
81
72
66
70
71
65
57
55
64
68
68
71
73
81
79
77
87
97
112
119
112
97
92
98
101
107
115
125
133
134
135
223
227
230
226
229
228
202
117
30
2
35
99
140
149
140
135
127
122
118
109
102
100
116
134
165
169
121
91
72
62
67
66
61
60
61
51
45
51
52
57
63
68
87
92
88
80
77
97
107
111
109
94
90
97
98
107
119
129
137
135
225
226
232
222
182
134
137
128
55
6
36
101
141
141
135
133
126
120
112
101
97
113
118
123
144
132
96
74
68
67
75
107
126
111
90
69
66
64
53
56
64
90
128
150
153
131
104
87
90
102
108
103
90
88
89
99
109
117
129
129
229
231
228
185
116
86
77
70
57
35
47
94
110
103
107
115
116
111
99
91
100
119
116
104
100
92
81
79
85
70
90
152
169
144
98
65
73
101
117
100
87
88
108
143
132
113
116
101
96
98
101
109
102
92
91
90
98
111
117
127
226
235
215
157
118
111
98
75
51
53
78
88
71
60
57
85
143
145
97
86
108
118
114
94
76
74
71
85
88
84
126
171
178
147
95
61
67
113
121
86
83
70
85
143
148
116
90
94
103
102
104
111
112
99
92
89
90
95
89
83
227
235
213
149
115
117
107
88
62
46
81
106
69
51
73
98
118
114
91
89
112
117
107
92
85
88
79
84
98
108
124
148
157
141
110
70
63
63
59
73
74
65
96
155
170
131
97
90
95
106
109
109
115
108
96
88
66
44
50
70
226
234
219
140
96
113
116
106
81
56
89
134
140
138
132
127
126
117
104
106
112
111
101
91
84
85
92
94
107
101
87
95
109
133
135
95
74
75
74
80
76
88
122
138
134
112
92
81
84
91
96
104
107
106
98
73
42
50
89
109
228
235
219
148
97
104
115
113
85
69
93
133
145
141
140
132
128
122
110
114
116
109
102
97
95
92
100
106
107
101
90
87
90
104
114
108
89
79
81
81
88
94
98
98
89
82
82
81
84
96
102
106
100
94
83
54
49
78
100
116
226
232
219
155
99
99
105
111
85
66
96
132
142
139
141
136
130
124
110
119
125
114
112
108
105
104
103
104
96
95
95
89
90
87
94
102
102
104
103
106
112
118
117
105
97
89
86
93
100
104
104
99
86
67
61
54
59
86
105
119
226
233
227
161
106
108
118
117
82
62
101
134
143
146
138
135
137
131
114
110
124
124
118
115
115
113
107
106
105
100
105
102
100
99
97
102
102
106
110
111
120
115
107
103
96
97
98
104
110
105
97
80
42
37
60
57
64
94
115
121
224
231
224
158
106
112
130
127
83
57
104
144
145
143
137
133
134
130
116
106
118
125
118
114
110
105
103
102
105
105
109
110
108
112
111
109
111
111
113
113
114
112
98
91
92
99
105
102
98
91
88
69
37
54
67
48
70
104
120
122
227
233
224
168
112
113
127
130
87
61
106
140
141
141
140
136
132
131
119
106
110
122
122
114
110
106
104
104
104
106
109
113
111
111
117
118
120
115
113
113
106
105
104
102
106
104
101
94
90
96
81
42
33
65
63
52
87
114
115
126
227
233
225
171
115
120
134
123
78
62
103
138
147
145
139
133
132
130
123
116
114
119
119
113
112
107
101
103
102
106
110
113
116
113
117
119
117
121
116
114
114
111
109
104
105
103
98
97
102
121
103
49
44
62
55
66
100
117
114
122
222
229
233
184
132
131
135
119
76
62
110
142
146
141
135
136
132
127
126
122
123
122
123
121
112
109
109
110
105
98
105
110
112
114
113
119
121
121
123
119
121
118
113
109
105
104
101
105
119
128
120
103
88
70
63
93
115
113
116
120
224
227
232
191
144
131
129
126
88
65
108
142
147
146
136
134
133
126
123
117
121
124
120
122
118
116
114
112
113
104
106
113
116
120
122
125
128
127
128
122
120
121
113
114
109
105
110
121
137
131
116
109
84
71
83
105
117
112
118
125
227
230
230
205
150
121
126
127
94
76
108
136
141
141
141
135
133
129
119
121
122
123
122
120
124
125
125
120
113
109
107
115
121
126
133
133
132
129
129
128
121
120
117
107
108
112
127
139
141
137
119
100
80
82
107
117
117
117
116
126
225
227
230
220
165
124
123
121
88
77
111
136
142
141
143
138
135
132
125
126
124
123
126
124
123
123
124
122
114
111
116
119
121
125
134
136
131
130
124
122
121
118
117
110
117
129
137
142
134
120
100
88
93
106
120
118
112
112
112
122
225
227
234
230
184
130
123
125
101
84
113
137
141
145
143
140
137
137
139
135
133
129
126
128
127
125
121
120
125
120
120
122
125
131
130
132
130
130
131
122
118
111
115
128
131
140
142
137
123
96
73
74
97
117
121
117
106
105
111
113
