P2
60 28
255
116
113
108
108
107
100
93
89
87
81
77
78
85
96
103
108
108
107
110
112
118
121
120
121
143
167
156
162
187
217
202
137
116
119
118
119
116
118
118
117
121
122
127
133
145
151
153
158
137
99
86
93
97
99
95
98
109
114
118
115
114
114
111
107
101
95
93
82
71
74
88
100
102
103
104
102
106
110
116
122
123
127
127
130
158
170
171
176
182
211
184
131
121
121
122
120
121
120
118
119
118
117
121
124
133
137
139
145
138
117
93
82
86
96
98
99
109
111
114
117
111
109
109
104
99
92
75
68
81
98
107
107
104
101
103
106
110
115
119
124
128
135
131
139
172
182
169
141
160
185
150
126
121
123
126
122
123
121
118
118
116
119
118
119
121
123
131
135
131
121
102
79
76
87
97
101
106
112
113
118
100
102
105
104
92
73
72
89
98
99
101
97
96
100
106
113
115
120
123
124
132
136
134
145
168
181
164
139
140
145
136
128
128
129
125
124
123
122
119
116
116
116
114
116
118
119
122
123
122
118
114
97
85
90
95
100
101
104
107
107
93
101
102
91
73
75
90
97
100
102
102
96
96
102
106
115
118
119
122
121
126
129
132
134
137
143
136
134
133
130
131
128
128
129
124
125
128
127
127
121
119
117
115
113
113
117
118
122
122
118
117
109
94
87
91
97
97
95
97
97
88
99
93
78
82
97
102
101
103
105
102
100
100
106
110
111
115
115
117
120
123
128
126
128
132
131
130
128
124
122
119
121
121
119
118
117
123
123
123
124
120
118
116
113
112
110
111
114
114
116
118
116
109
99
92
90
95
101
104
104
88
87
81
85
99
103
103
105
104
102
99
101
105
105
108
111
112
113
114
115
115
115
114
114
113
113
116
112
102
98
96
96
97
97
100
104
111
116
117
118
119
119
116
113
111
104
102
102
105
109
113
114
112
107
100
99
109
122
125
128
90
78
78
91
99
102
102
105
103
98
99
100
104
107
107
107
107
104
100
97
98
101
106
108
111
113
109
105
100
97
98
97
96
95
87
87
90
97
105
110
113
114
114
114
114
110
103
100
102
104
109
108
107
105
100
103
112
126
132
131
93
81
76
87
91
93
95
98
98
96
98
101
104
106
101
96
91
89
91
92
99
105
108
112
107
107
108
105
104
100
101
99
94
93
91
92
89
83
88
95
101
106
108
109
110
110
104
99
98
97
101
101
101
101
96
101
118
129
136
135
164
106
77
82
85
87
91
94
94
90
90
97
100
96
88
83
90
93
96
100
98
104
105
105
107
104
106
104
102
103
98
98
93
88
90
93
96
92
85
88
92
98
101
102
106
107
106
104
99
96
97
95
94
95
91
97
117
125
131
136
226
128
69
85
89
86
86
86
86
86
88
91
88
80
81
89
94
94
96
99
94
95
98
93
99
105
105
105
99
96
92
92
92
87
91
91
90
89
87
88
90
94
98
99
100
102
104
104
101
97
95
92
90
87
86
97
113
127
132
133
120
85
83
97
96
93
89
88
86
84
88
86
78
77
87
94
91
89
85
85
92
90
88
87
82
83
84
81
76
73
71
68
72
79
84
88
86
87
87
86
92
95
98
101
102
103
105
103
100
96
97
94
89
83
81
96
110
124
132
133
92
81
93
109
105
100
95
90
86
85
84
81
78
84
93
93
86
80
81
81
82
78
68
57
49
50
53
57
53
50
53
50
55
76
94
95
89
83
83
85
90
94
99
105
110
114
114
109
103
102
100
92
85
76
65
79
105
118
130
133
123
94
94
110
113
108
102
96
91
87
83
81
81
85
88
86
84
78
72
69
63
59
54
49
52
50
45
42
39
42
52
54
58
80
101
106
101
93
89
87
83
89
99
110
123
128
125
117
107
102
99
92
79
69
60
69
98
118
130
137
89
76
98
114
118
115
110
104
97
91
84
78
77
77
75
73
69
61
54
52
59
68
66
58
60
62
57
48
46
52
60
58
63
94
119
119
108
101
101
104
98
88
91
106
123
130
128
118
107
102
97
88
77
64
62
75
98
118
127
135
92
75
101
121
122
122
116
108
101
93
85
77
72
70
65
60
55
54
57
61
77
96
100
84
66
61
62
61
62
64
65
63
83
116
126
117
100
93
92
88
88
89
101
117
126
129
123
111
104
102
98
85
66
51
60
83
96
116
128
128
101
77
94
121
122
123
121
114
108
99
89
80
71
66
59
58
58
59
68
79
93
109
118
108
86
72
68
67
65
65
65
84
116
123
109
100
92
86
89
96
108
116
118
123
124
121
116
108
102
100
98
79
45
39
60
82
103
118
129
127
101
77
90
119
128
127
126
122
119
112
100
88
77
75
76
76
80
82
82
88
94
105
118
123
120
106
88
81
79
88
103
113
111
101
95
90
95
98
99
106
112
119
120
121
120
115
109
102
96
96
93
65
35
43
66
85
109
122
127
127
105
77
83
115
127
127
127
126
122
116
109
101
98
96
94
91
90
90
91
92
89
90
96
105
114
114
112
109
108
111
107
102
103
104
110
111
108
105
100
104
110
116
120
121
120
114
109
103
94
87
77
52
34
46
76
97
110
125
128
128
112
79
79
111
126
127
128
129
125
120
115
109
108
107
104
103
95
88
88
88
93
93
94
97
98
103
102
99
101
101
101
101
105
108
108
105
95
94
98
105
113
114
119
124
118
113
106
102
99
91
76
47
40
60
85
108
117
124
128
124
116
85
77
109
124
126
128
128
127
121
114
111
109
107
108
109
104
97
92
88
91
93
94
97
96
97
99
95
90
89
96
100
100
101
96
94
94
98
107
109
110
114
122
126
118
109
104
101
99
87
71
56
54
78
99
114
122
124
127
123
119
92
74
100
123
125
126
128
127
123
117
114
110
108
110
111
112
107
106
107
99
95
92
92
93
91
92
92
94
96
98
102
99
98
99
96
103
111
112
112
113
121
125
122
117
109
104
101
95
80
61
59
70
91
107
113
123
129
129
127
124
103
79
89
115
123
123
124
126
125
120
115
110
106
107
108
111
114
113
111
110
110
112
110
107
106
108
108
106
106
106
104
101
102
107
111
114
115
117
124
125
123
122
119
116
107
102
100
89
74
59
61
84
100
111
116
122
133
129
127
127
116
87
85
111
123
123
125
125
125
124
120
116
112
109
107
106
110
111
111
112
113
115
117
117
114
113
113
110
107
108
108
110
113
115
119
120
118
122
128
128
123
120
117
111
107
105
96
81
67
60
71
95
104
108
119
125
129
130
128
124
122
102
89
99
114
120
122
125
126
127
126
119
114
110
107
107
109
110
111
112
113
112
111
112
111
108
109
113
109
108
112
118
122
122
122
123
128
132
132
129
123
119
116
110
108
108
92
67
56
68
88
100
107
112
119
125
126
128
124
120
121
109
95
96
109
120
121
121
123
126
129
127
122
115
110
108
107
110
112
113
113
113
113
114
110
109
111
113
117
119
124
124
122
121
121
127
132
134
133
129
124
117
114
111
106
100
81
67
64
75
98
107
111
116
118
126
127
126
125
119
121
121
109
100
105
115
121
120
123
128
128
127
124
121
117
113
111
110
110
110
111
110
112
115
113
113
116
117
118
119
122
125
123
122
126
131
136
135
132
128
124
120
113
108
103
92
78
64
70
87
101
110
108
113
121
124
129
125
123
119
118
123
121
109
105
111
117
118
121
127
130
130
126
121
119
117
114
114
114
114
114
117
119
119
121
119
118
119
118
124
129
129
125
122
129
133
135
133
127
125
122
119
114
107
98
83
73
68
77
95
105
112
114
115
124
126
127
125
120
