P2
60 28
255
117
115
114
111
108
103
100
96
90
88
88
88
86
81
79
80
76
76
81
82
89
94
100
106
109
124
132
128
114
125
167
183
167
127
103
110
107
103
101
87
92
94
89
102
108
108
112
109
99
101
110
113
110
99
90
85
84
89
91
94
120
115
113
111
107
105
100
94
89
82
77
73
69
70
76
86
95
101
104
105
106
106
111
112
115
124
135
145
137
147
163
185
179
126
112
115
116
117
111
112
113
111
108
110
118
128
146
149
139
128
105
90
86
89
94
93
89
90
99
102
113
112
107
109
105
101
96
91
88
78
66
66
79
92
97
98
101
100
102
103
105
108
111
118
119
117
151
170
164
176
185
214
189
129
119
119
122
120
115
117
112
111
110
106
114
123
136
142
149
152
128
105
86
78
85
93
94
92
100
103
92
98
100
102
103
101
102
91
72
62
69
90
100
99
96
92
96
98
102
103
104
113
121
126
120
126
155
174
176
163
185
206
165
124
116
120
120
117
119
117
114
116
108
107
106
110
116
120
130
126
119
114
93
70
72
89
98
97
97
105
78
86
94
96
99
96
85
68
65
83
97
100
99
96
98
97
98
101
101
105
108
112
121
126
124
127
151
178
159
137
157
155
132
118
118
120
115
114
116
119
117
113
113
110
106
108
106
111
119
116
113
110
102
82
70
78
91
97
94
99
75
75
86
93
96
87
63
66
86
94
100
103
101
97
93
99
99
100
103
104
107
111
120
121
122
126
138
148
134
123
117
113
114
111
110
109
107
109
113
114
114
114
113
109
108
107
105
108
108
104
101
102
104
97
88
87
87
90
90
90
83
79
79
86
84
73
75
90
99
97
97
96
90
91
93
97
100
99
102
102
103
106
106
105
104
106
109
107
105
101
94
94
93
92
91
90
95
98
100
105
109
112
112
112
112
108
105
101
102
102
100
103
109
105
89
80
81
79
79
81
97
84
80
81
73
72
86
93
99
101
99
99
93
90
94
95
99
99
96
92
87
89
90
94
103
109
111
110
111
105
97
97
97
95
92
84
82
80
83
90
94
101
105
107
109
108
104
100
99
97
94
98
101
103
103
98
91
86
91
100
95
90
86
75
71
79
90
93
93
97
96
92
90
89
94
96
93
89
81
80
86
89
95
98
103
104
102
105
102
102
99
94
97
92
89
88
87
88
80
77
79
87
97
98
100
102
102
101
96
89
89
92
96
99
102
99
95
97
102
112
67
80
88
85
78
81
83
86
88
87
89
87
86
88
89
87
77
75
83
88
92
91
93
93
95
99
97
98
96
95
99
95
93
93
90
89
85
87
91
88
81
78
85
92
96
98
99
98
94
94
92
90
94
94
95
94
91
95
103
109
124
227
229
144
75
73
79
79
83
84
82
82
80
82
81
74
75
84
92
88
87
90
89
91
92
91
94
96
99
95
91
89
85
87
86
82
83
84
87
85
83
85
86
88
91
92
95
95
96
94
91
88
86
91
93
89
86
91
105
112
147
227
221
132
76
82
88
83
79
79
77
78
79
78
73
70
84
94
90
83
78
81
85
85
83
77
74
71
73
73
67
65
61
60
63
68
79
82
80
81
80
83
85
89
92
91
93
93
95
97
93
89
87
84
84
84
83
87
100
115
49
84
89
73
75
92
95
90
84
83
81
78
76
72
72
79
91
93
80
76
78
76
75
67
55
47
39
42
54
58
52
48
51
46
45
60
80
89
79
75
75
74
82
86
90
96
99
106
106
102
95
90
88
83
81
80
81
89
98
112
92
120
111
83
82
100
103
101
95
88
85
81
77
73
71
78
84
84
79
72
62
52
52
52
49
42
43
47
41
36
35
37
44
46
46
67
94
101
91
81
77
73
74
82
90
102
111
115
114
109
101
95
91
85
78
75
71
82
103
109
112
123
106
78
85
105
109
106
103
95
87
82
75
73
68
67
69
64
58
52
48
47
52
65
70
60
55
56
49
39
37
45
51
50
57
88
112
112
103
92
94
92
80
79
84
100
115
119
117
111
102
99
94
88
78
67
64
75
99
109
113
117
95
68
86
111
114
111
109
104
96
87
76
69
65
58
57
53
46
45
48
59
75
95
106
93
64
53
56
54
56
56
53
53
74
108
122
113
97
93
91
85
80
77
89
104
115
117
112
103
97
96
91
81
73
58
54
68
90
109
112
114
98
70
83
109
116
119
115
108
101
93
82
73
67
59
57
58
55
57
63
71
85
101
112
112
95
74
62
57
55
55
60
82
110
119
109
95
81
78
79
84
98
103
107
111
111
111
106
100
96
92
87
77
65
57
59
76
92
107
108
114
104
71
79
113
119
121
122
115
112
105
96
86
75
72
71
72
76
77
79
82
87
95
108
117
119
112
95
82
79
87
97
104
104
97
87
86
86
86
94
99
105
111
112
112
107
104
98
93
90
85
82
72
50
48
58
77
96
109
109
114
101
74
79
108
120
120
121
117
116
112
103
95
92
93
91
86
86
84
81
85
83
80
88
96
100
104
104
102
99
102
101
96
93
94
102
100
97
97
92
94
99
107
109
109
108
99
91
88
90
95
85
54
32
46
67
84
105
112
112
117
104
74
75
104
119
120
121
121
118
116
108
101
100
100
100
96
90
83
78
81
81
84
88
88
91
92
92
93
92
94
94
95
98
101
105
97
88
83
82
94
101
104
107
107
105
96
91
89
82
78
69
43
33
51
74
93
105
114
110
118
113
76
69
101
118
121
120
119
118
117
109
102
100
99
99
103
99
93
88
86
86
81
82
85
85
88
85
84
83
80
87
93
98
94
86
85
85
90
96
95
100
104
110
111
104
98
93
90
85
77
63
38
35
58
82
102
109
116
113
120
116
84
64
95
118
119
119
117
121
116
109
106
100
100
100
101
103
102
101
97
93
91
90
89
84
85
88
86
87
88
91
92
88
90
90
92
96
100
102
100
104
110
112
108
99
95
94
90
86
77
55
39
50
75
93
107
117
118
111
114
117
97
64
83
113
115
118
118
119
119
113
110
102
100
102
102
103
103
105
105
102
102
104
105
105
102
103
100
99
100
96
95
93
93
97
100
104
104
103
107
109
110
109
108
103
93
87
86
82
70
49
47
68
90
104
107
114
119
111
113
120
105
73
79
107
115
116
118
116
115
114
109
105
102
103
102
101
102
102
104
106
108
109
108
108
104
104
106
104
103
100
98
98
103
107
109
111
112
112
117
117
109
105
101
95
93
94
92
76
56
48
59
82
94
103
110
111
117
110
112
119
112
85
78
97
110
112
114
114
116
118
113
110
107
103
101
100
102
103
103
104
102
103
106
106
105
101
101
103
101
103
107
111
114
114
115
117
119
119
119
118
111
107
102
94
94
92
84
70
53
57
75
93
103
108
116
115
114
108
110
115
114
95
84
92
107
116
112
113
117
118
117
114
112
107
106
104
102
103
103
106
107
105
104
103
104
106
105
108
110
112
113
115
117
112
114
119
122
123
122
118
112
106
102
97
94
88
69
55
51
68
92
98
101
107
114
118
115
113
113
110
117
113
93
86
99
109
110
114
117
117
120
117
115
112
108
110
107
104
106
106
108
110
109
109
108
108
108
111
113
113
119
117
114
114
114
118
120
121
120
116
112
107
102
97
91
82
60
51
63
81
98
101
104
109
109
115
116
112
112
113
116
116
105
98
100
107
113
111
112
116
118
119
115
113
110
109
111
110
109
109
111
112
114
116
114
113
112
113
113
115
119
122
116
112
116
122
126
123
118
114
109
105
96
92
87
74
62
55
67
86
98
104
106
110
111
113
118
