P2
60 28
255
213
213
215
220
219
228
230
231
236
237
243
242
243
250
247
248
250
250
247
236
235
232
225
222
210
206
198
189
185
174
172
169
167
171
166
171
172
172
179
178
184
190
194
201
204
213
218
223
235
241
248
254
254
254
254
254
254
254
254
254
212
216
215
221
222
228
234
235
243
246
249
250
250
253
253
253
252
250
252
248
245
241
231
227
219
210
200
190
189
179
173
171
163
167
164
164
169
167
171
171
177
185
189
200
206
212
221
227
233
238
246
252
252
254
254
254
254
254
254
254
206
215
219
216
221
224
234
243
247
251
251
252
254
254
254
252
252
252
250
248
242
237
233
226
221
210
205
201
189
184
176
172
169
163
164
159
160
166
166
171
172
178
186
192
203
209
218
227
233
242
246
249
254
254
254
254
254
254
254
254
212
213
220
219
226
231
238
248
251
253
253
253
251
246
242
236
230
226
217
214
210
207
208
197
197
197
192
191
184
183
176
168
168
159
162
161
157
164
162
165
168
172
183
186
197
204
212
227
232
242
249
251
254
254
254
254
254
254
254
254
218
219
222
230
233
241
248
250
253
251
244
233
222
212
202
200
198
196
195
191
194
191
189
190
182
180
175
171
172
168
172
169
164
162
154
159
156
156
163
161
168
171
175
187
189
201
211
220
233
239
247
253
253
254
254
254
254
254
254
254
217
223
227
239
245
247
246
242
233
217
208
198
190
197
199
209
217
217
223
222
223
224
220
216
201
190
180
163
162
156
154
159
158
163
156
154
158
152
160
161
163
171
173
183
190
198
209
215
228
238
245
251
252
254
254
254
254
254
254
254
221
229
240
243
242
234
221
204
194
192
193
208
217
220
228
228
237
241
236
235
231
233
230
219
214
204
198
187
169
163
148
144
148
148
156
152
152
150
148
160
162
166
174
181
192
198
208
216
222
236
243
248
254
254
254
254
254
254
254
254
229
235
236
228
216
199
186
185
191
209
224
227
229
228
228
226
224
226
224
221
218
216
215
207
202
196
190
187
176
169
159
146
142
136
144
147
145
152
149
153
155
157
171
177
185
193
200
215
219
228
240
245
252
254
254
254
254
254
254
254
231
228
216
200
185
184
190
202
213
217
223
222
221
218
213
210
206
203
199
192
192
194
191
184
177
180
172
164
164
159
158
152
142
141
134
139
143
144
151
149
155
163
171
180
184
196
202
210
221
222
236
249
250
254
254
254
254
254
254
254
218
204
186
181
183
194
203
205
212
212
209
204
190
184
181
175
166
158
156
154
158
161
155
153
155
155
151
143
144
138
136
139
134
136
131
132
137
136
145
144
148
161
168
182
190
195
201
206
219
224
235
247
249
253
254
254
254
254
254
254
192
180
176
185
199
199
195
193
191
187
178
168
153
139
139
136
127
118
113
112
112
116
114
116
129
131
131
127
122
125
119
120
123
120
126
124
131
138
136
146
152
162
172
177
188
195
202
212
219
232
239
245
252
252
254
254
254
254
254
254
172
170
183
190
194
193
182
167
153
145
143
135
120
103
91
87
84
81
74
67
67
70
74
76
83
90
93
98
99
106
111
110
114
109
112
115
121
135
135
144
155
161
175
178
188
200
205
213
219
230
240
244
249
253
254
254
254
254
254
254
178
181
181
180
177
171
155
132
116
110
104
91
80
71
71
76
72
69
65
61
65
65
65
68
70
73
74
78
84
87
98
101
102
106
99
103
108
118
138
144
155
164
174
189
196
207
211
215
226
231
241
248
249
254
254
254
254
254
254
254
177
176
169
160
147
129
112
101
93
84
79
78
72
70
74
80
83
81
76
72
71
75
77
82
86
82
76
75
87
96
101
101
93
91
90
94
97
100
124
144
158
170
176
192
203
212
220
219
228
235
238
243
246
252
254
254
254
254
254
254
167
154
140
125
106
85
77
76
81
89
95
98
88
80
83
93
97
90
82
74
71
74
80
93
99
93
88
87
103
124
127
122
106
89
86
85
90
92
105
140
158
173
189
198
211
220
226
227
228
239
238
241
248
249
253
254
254
254
254
254
138
124
111
91
77
70
67
74
87
110
135
133
106
86
84
92
94
90
81
71
64
65
80
98
102
100
91
93
122
148
155
145
128
106
90
84
81
82
89
120
157
179
196
201
215
229
231
235
234
240
242
241
248
250
251
254
254
254
254
254
121
108
95
83
75
76
76
83
100
127
154
157
131
98
91
91
88
87
82
77
76
82
93
103
108
103
91
100
132
155
162
154
141
122
103
96
88
83
85
101
151
184
195
213
224
234
236
236
243
238
240
244
245
250
251
253
254
254
254
254
123
120
113
109
103
101
100
98
108
130
153
167
148
107
92
93
93
91
88
87
88
94
103
107
106
100
94
113
145
157
156
151
140
129
116
103
99
93
96
108
151
190
200
215
224
232
238
236
242
237
236
246
246
250
252
252
254
254
254
254
152
154
152
147
145
138
130
121
113
121
144
159
153
127
98
90
92
89
90
92
94
99
104
106
101
90
102
133
153
157
150
145
135
120
114
104
103
113
120
147
178
199
209
217
234
236
241
245
242
244
241
245
249
247
251
254
254
254
254
254
182
180
178
171
170
165
158
154
144
137
138
143
142
128
108
97
91
90
91
93
95
97
100
98
95
98
113
134
145
145
137
130
128
122
124
125
128
148
162
184
200
203
218
228
239
249
249
249
242
241
242
241
249
252
253
253
253
254
254
254
203
197
189
182
177
179
179
173
163
152
146
142
138
129
118
109
105
106
108
106
105
104
106
107
111
122
133
139
139
138
142
143
146
154
154
161
167
177
197
204
210
216
225
241
245
248
249
247
245
239
243
247
249
253
253
254
254
254
254
254
219
210
198
191
190
191
186
173
168
165
159
152
147
143
134
132
132
127
128
125
123
126
124
129
137
142
147
144
149
154
163
175
173
181
183
182
191
198
211
212
214
225
234
243
244
244
246
242
243
239
240
248
248
251
254
254
254
254
254
254
229
221
215
206
203
199
195
190
187
181
168
165
162
154
152
147
143
141
137
138
137
138
138
139
151
153
156
161
167
179
183
187
187
184
193
197
205
212
212
219
227
237
246
249
250
247
249
248
243
244
242
245
251
251
254
254
254
254
254
254
238
232
231
222
213
205
196
196
190
183
174
168
167
161
159
156
149
148
143
142
140
138
147
150
161
169
171
182
184
186
186
184
195
200
208
215
214
219
219
227
238
243
250
251
249
248
244
246
242
241
245
245
251
254
254
254
254
254
254
254
246
247
245
240
226
218
210
202
195
184
178
171
169
172
170
169
166
164
166
162
166
168
172
182
188
190
187
185
188
185
192
200
209
219
218
220
220
225
237
243
250
251
250
250
247
248
244
242
245
239
244
249
249
254
254
254
254
254
254
254
252
253
252
253
248
243
238
226
217
209
203
198
192
198
199
198
197
192
196
192
189
191
184
190
188
188
190
183
195
203
207
215
215
221
226
228
238
244
249
252
252
251
248
250
248
245
245
239
241
240
240
246
245
250
252
252
254
254
254
254
254
254
254
254
254
253
253
249
243
241
234
229
226
224
226
220
214
213
207
200
191
189
190
188
198
197
203
212
213
221
219
224
229
233
242
245
250
253
253
253
252
252
251
248
250
245
243
244
237
242
246
249
251
249
252
254
254
254
254
254
254
254
254
254
254
254
253
251
247
247
244
240
241
232
231
227
216
218
211
206
203
200
207
208
215
219
217
222
221
224
233
235
240
243
248
254
254
254
253
253
251
249
251
247
246
244
240
245
241
244
249
245
250
253
253
254
254
254
254
254
