P2
60 28
255
31
47
77
101
109
108
108
104
101
97
93
96
96
99
105
105
109
105
101
101
95
89
80
73
68
64
69
69
67
66
65
69
67
66
73
80
89
97
100
102
108
119
119
120
127
130
135
140
145
149
150
155
157
159
163
161
161
158
156
156
31
43
81
103
110
106
101
107
105
103
98
93
100
101
101
103
106
115
119
118
109
99
100
91
83
79
73
70
67
68
67
63
66
67
68
73
77
86
91
94
97
100
108
115
123
128
132
139
141
143
146
148
154
157
157
156
154
156
150
148
35
50
84
105
107
107
103
103
101
101
105
101
106
111
110
108
106
115
120
117
117
116
118
114
107
100
89
84
79
75
71
63
62
65
66
71
76
81
88
93
98
99
99
107
120
131
133
136
137
136
138
142
152
154
153
158
156
155
154
148
32
56
90
104
104
103
105
101
102
99
96
103
107
111
109
111
118
117
121
122
119
119
119
122
124
118
113
106
103
98
89
78
66
67
67
66
70
72
81
89
93
96
100
112
119
121
127
128
130
134
132
137
140
144
146
149
156
151
151
150
32
58
88
101
105
102
101
100
102
102
101
108
109
108
108
108
116
117
116
119
119
120
119
120
123
125
125
120
120
120
109
98
88
81
77
73
76
79
83
87
87
92
99
108
114
117
125
130
132
135
131
133
136
138
144
145
148
149
149
152
33
65
94
104
106
103
99
99
95
99
105
107
109
104
105
105
105
112
118
121
118
117
122
122
124
124
123
127
128
128
126
120
110
103
99
94
89
87
85
86
91
92
95
99
103
109
112
118
121
126
129
127
133
133
135
142
141
146
148
149
43
76
104
109
104
103
97
99
101
100
104
106
110
109
106
107
105
108
115
115
115
110
112
114
119
129
126
127
129
128
127
122
119
116
111
107
100
92
86
86
93
94
97
101
102
105
107
114
120
120
127
130
133
135
135
140
141
149
151
142
39
79
105
109
104
98
98
96
97
98
102
103
96
100
102
102
106
107
109
107
108
110
103
107
111
111
120
123
124
125
123
122
120
118
117
115
112
106
104
100
95
93
91
93
96
105
111
111
118
123
123
126
125
127
133
135
141
141
145
144
41
82
106
108
106
102
98
92
95
98
97
101
100
102
103
99
103
101
100
99
93
95
92
90
96
96
100
105
105
106
107
107
105
105
108
107
107
107
107
104
100
97
93
95
98
96
104
112
116
120
119
122
126
130
135
137
141
142
142
143
51
84
105
109
108
103
95
96
97
100
103
99
100
97
98
99
97
94
84
78
75
77
87
93
101
105
109
114
112
110
106
102
101
91
86
90
94
101
103
100
96
92
96
95
94
97
99
104
110
116
120
119
127
132
132
135
136
142
144
144
55
95
114
109
105
104
96
96
95
95
101
95
92
97
99
97
89
78
68
75
90
91
93
97
99
107
111
114
113
111
113
112
107
103
97
92
87
85
88
90
92
93
94
95
92
92
91
99
110
114
120
121
122
127
128
136
137
141
148
146
64
105
115
109
105
101
97
95
98
100
101
99
95
93
92
83
71
66
74
80
84
87
82
77
72
64
57
56
59
63
72
86
98
105
102
99
99
92
91
91
87
91
89
91
93
90
92
89
97
109
111
115
116
123
128
129
136
138
144
144
66
104
112
106
107
105
97
95
98
97
94
95
93
89
84
66
61
73
79
83
79
66
51
42
39
33
31
33
27
21
23
36
48
62
85
100
106
104
105
106
99
97
92
89
93
91
90
88
91
103
106
108
109
114
126
126
132
137
138
142
68
99
109
105
104
106
102
99
99
99
95
92
95
90
79
69
69
75
72
61
42
43
74
92
70
47
51
59
60
60
61
53
42
53
73
79
82
92
99
109
116
112
103
91
86
87
88
90
88
93
102
101
109
117
121
126
129
136
132
136
76
103
110
106
103
103
99
99
101
102
100
96
95
85
73
71
68
60
46
36
50
82
112
115
78
35
37
125
175
132
107
78
44
67
116
123
98
84
84
91
108
121
123
116
102
91
87
89
89
88
99
103
107
111
114
124
122
125
130
129
86
108
105
103
101
101
103
100
102
102
99
99
90
79
70
61
49
38
40
50
77
108
122
120
78
42
31
33
42
41
53
59
51
77
136
157
138
126
112
88
83
95
113
131
129
112
96
89
86
87
92
99
101
106
111
112
120
120
124
123
87
107
106
105
104
100
100
100
106
105
100
97
89
79
68
56
52
56
62
68
82
106
128
138
114
60
37
46
45
44
53
53
63
112
155
154
144
146
135
102
74
76
91
109
124
118
106
99
92
89
87
94
98
102
111
109
115
121
122
124
95
109
108
106
105
105
100
100
103
102
102
98
91
78
70
67
68
80
83
84
85
93
113
146
159
118
67
45
47
50
46
60
102
142
144
126
108
95
89
85
84
100
110
88
87
110
113
105
93
87
89
89
93
97
105
112
108
115
118
118
95
108
108
107
103
105
105
104
104
102
99
89
82
75
74
80
80
86
94
93
91
91
93
110
134
138
119
87
69
63
69
92
104
101
98
97
94
92
88
80
82
84
82
81
88
108
116
107
94
86
88
88
93
97
99
110
111
113
115
113
94
109
110
107
105
105
106
104
105
103
97
89
80
82
88
94
97
91
91
92
94
95
93
95
98
102
101
99
104
97
97
105
107
108
108
109
108
97
96
94
92
98
101
111
119
116
111
101
89
84
84
89
89
96
102
104
115
112
112
111
104
117
110
107
108
108
109
104
103
105
97
90
88
93
100
101
103
97
93
94
98
102
100
99
99
95
101
111
115
115
112
115
118
117
121
114
110
105
99
102
100
106
122
134
134
118
105
96
88
84
79
84
88
90
103
105
110
111
110
115
108
110
109
112
109
107
105
106
104
104
102
94
96
100
104
106
98
95
96
100
104
106
109
105
106
108
110
115
110
112
119
118
120
120
120
114
107
104
95
95
98
103
118
126
121
110
100
95
88
86
85
79
85
91
96
105
103
110
107
109
103
113
112
108
106
110
109
107
104
101
103
100
100
101
101
101
95
94
100
104
108
108
112
115
112
117
117
117
117
117
128
131
130
129
121
114
107
105
105
102
105
107
109
110
104
100
96
93
90
85
86
80
84
92
90
102
105
108
111
106
99
110
106
107
106
107
110
105
102
101
101
103
98
99
97
98
102
100
104
106
107
113
112
114
117
115
117
119
124
129
133
136
132
130
125
120
120
114
114
116
112
104
101
102
96
89
93
91
87
85
82
86
81
86
95
96
103
102
106
108
99
109
105
104
107
106
109
105
101
103
103
105
100
97
100
100
102
102
101
106
112
114
113
114
120
118
121
125
125
130
134
135
135
133
131
126
125
126
121
120
115
108
101
97
94
89
92
91
88
87
80
82
84
87
95
92
98
100
99
107
88
103
112
110
108
109
108
110
102
100
102
96
97
99
97
97
99
102
103
104
105
108
112
110
113
118
120
125
124
127
130
130
134
133
127
127
132
134
132
128
121
112
105
100
96
92
89
91
86
83
87
82
83
87
90
94
92
96
96
100
88
104
110
111
108
112
107
103
101
98
101
100
101
103
103
103
102
105
106
106
111
110
111
113
110
117
121
124
130
133
135
130
128
129
129
134
138
137
135
133
129
117
105
102
96
92
90
88
86
82
83
80
83
88
83
90
89
91
100
97
82
101
105
110
110
109
109
100
99
99
97
101
99
103
104
103
108
108
113
113
112
117
114
115
118
121
130
130
128
128
129
134
135
137
136
136
139
136
136
128
116
115
109
104
96
90
92
87
85
85
82
84
81
83
83
83
92
91
98
98
