P2
60 28
255
107
109
107
103
100
98
100
94
90
86
81
84
85
84
80
74
72
71
70
71
80
85
91
93
96
105
108
115
120
124
155
161
130
103
89
94
83
76
68
60
67
70
90
98
94
101
95
91
93
96
99
101
100
95
84
76
78
83
84
86
90
101
101
98
99
98
96
89
84
83
79
77
74
68
67
71
81
91
95
101
102
101
104
105
107
113
137
149
139
150
183
184
142
107
103
108
108
113
112
109
112
107
108
113
117
122
117
113
109
99
94
91
90
92
92
86
84
91
94
100
71
82
89
92
96
98
97
96
90
83
77
70
69
75
87
95
95
95
94
95
98
101
112
116
114
122
153
168
141
142
170
163
126
110
112
111
111
109
107
109
107
106
105
103
109
109
113
115
108
112
109
96
82
75
83
91
88
91
95
98
69
75
83
92
92
92
92
90
86
75
68
70
81
91
92
92
90
92
96
97
102
107
112
120
121
126
149
150
140
129
126
128
120
120
118
116
115
110
110
110
107
106
104
106
105
105
110
105
102
102
101
98
86
72
74
90
92
91
100
103
77
76
76
83
89
89
92
87
75
67
75
92
97
96
94
89
90
93
98
101
102
105
111
116
117
120
123
123
124
120
119
123
119
114
114
116
115
111
112
112
110
110
106
103
101
99
97
97
99
101
101
100
94
78
64
69
87
92
96
103
88
83
75
76
84
89
84
70
68
79
90
94
94
93
94
91
92
96
95
98
98
102
106
107
109
111
110
111
109
107
105
105
106
102
102
106
106
107
107
108
108
107
107
103
103
100
93
92
95
97
95
96
99
91
77
73
80
87
89
92
96
97
81
73
74
76
66
68
84
92
96
96
94
92
89
91
92
96
97
95
95
92
92
89
88
89
92
95
93
91
89
85
85
84
84
83
82
85
89
97
103
105
109
105
101
99
93
90
89
90
90
93
102
99
84
72
71
76
78
79
83
91
87
82
75
68
68
80
90
92
94
91
90
90
89
92
88
86
87
81
78
77
82
89
92
97
96
94
95
92
92
93
92
93
87
84
79
74
76
78
86
94
96
100
101
99
97
90
86
85
87
90
94
98
90
87
84
81
87
87
58
68
74
79
79
72
76
81
85
89
88
86
82
82
84
85
83
77
74
76
81
87
86
91
92
92
95
91
90
89
91
94
87
86
84
82
82
80
80
75
74
80
86
91
92
92
96
94
86
80
81
89
93
94
88
85
91
90
99
110
59
65
118
131
107
87
77
79
81
83
81
80
82
82
80
73
67
69
76
83
81
83
86
83
85
85
87
92
93
94
89
87
87
84
84
80
77
81
81
80
76
74
79
84
89
91
93
95
90
85
80
81
86
86
83
83
87
93
103
115
56
95
206
239
186
110
74
77
77
75
76
76
75
74
73
65
66
83
87
81
74
69
76
78
79
75
68
68
63
61
60
58
57
56
64
72
72
78
80
75
74
73
79
83
84
85
84
88
90
87
84
82
84
83
78
80
82
93
105
112
47
31
63
96
91
69
76
87
86
81
75
71
70
69
64
67
79
88
87
78
69
66
65
66
60
46
40
34
45
67
63
52
50
46
46
59
73
77
77
74
76
77
79
85
85
87
87
86
90
89
87
86
84
80
74
77
81
92
109
112
66
58
86
97
81
71
90
101
94
85
78
76
73
69
66
71
77
78
76
70
60
52
50
52
49
41
39
42
40
35
36
35
40
47
48
61
86
90
83
74
68
72
75
83
91
95
99
100
99
95
89
88
83
76
74
73
77
87
103
113
96
100
119
123
89
69
94
107
102
95
85
80
74
65
65
65
63
61
56
49
46
47
53
64
71
64
56
57
48
34
29
33
45
49
51
73
101
107
97
91
81
74
73
76
89
101
110
113
108
100
91
87
84
78
72
62
64
83
97
112
101
102
109
107
75
66
98
113
107
99
92
84
73
66
64
62
55
49
47
47
50
59
75
93
106
96
72
58
53
50
48
49
50
49
61
92
115
114
101
94
94
87
81
77
85
102
113
119
112
102
95
89
85
76
64
52
51
76
102
112
106
106
109
111
77
67
99
115
116
110
102
94
85
75
67
60
57
59
63
61
64
73
85
99
109
108
90
69
60
59
57
54
53
64
92
113
113
100
90
81
78
75
76
86
96
106
114
115
108
98
94
88
80
73
57
48
55
74
101
108
100
104
108
112
82
63
99
118
117
115
110
105
95
86
79
74
75
74
77
79
79
81
85
90
102
116
115
100
84
72
67
71
85
105
113
107
97
84
79
78
80
91
99
105
111
114
110
103
99
93
86
85
83
72
51
44
63
79
96
112
102
105
108
106
81
63
94
118
119
119
116
112
104
95
92
90
87
85
81
83
81
83
84
81
85
93
102
107
106
104
105
105
104
99
95
86
84
89
87
89
88
94
103
103
105
107
106
99
90
87
87
86
79
59
36
34
58
83
99
112
104
102
109
113
89
66
87
115
118
118
117
112
109
103
97
96
96
95
88
82
78
75
78
83
85
87
90
93
93
93
95
97
96
91
93
97
96
99
93
84
87
91
98
101
103
106
103
95
88
85
80
73
66
41
23
45
69
90
107
116
105
104
106
115
94
68
85
112
117
116
115
113
110
102
96
96
96
97
99
93
86
84
82
83
83
87
88
89
90
88
85
79
84
93
90
92
89
81
81
82
90
99
100
101
106
108
103
95
91
85
77
71
58
36
30
55
81
96
109
114
104
106
108
114
100
67
79
108
113
114
113
115
112
105
96
93
96
99
101
100
97
95
90
88
86
84
84
82
86
83
78
82
83
90
89
82
84
80
83
92
95
97
99
106
111
109
103
94
89
88
85
76
52
34
43
67
95
107
112
117
102
103
108
111
104
72
71
100
109
114
112
112
112
104
102
99
99
98
97
102
100
99
100
99
99
98
97
94
91
93
91
91
95
92
91
88
88
93
96
98
98
101
107
108
110
107
101
96
88
85
78
62
46
44
65
86
101
113
115
119
103
104
107
111
110
84
67
93
107
109
113
111
112
112
107
103
98
97
98
99
101
100
103
105
105
107
105
104
100
101
103
97
97
95
93
97
100
104
104
101
106
110
111
109
106
106
99
90
87
86
76
56
47
56
78
97
103
114
120
119
102
104
105
108
105
92
72
82
107
110
112
112
112
114
112
107
102
100
97
96
98
98
97
100
101
101
101
100
100
98
98
96
98
104
103
104
106
105
110
113
114
114
112
110
103
97
93
90
91
81
67
51
49
72
86
98
106
110
119
118
105
106
105
107
112
110
92
79
95
108
107
110
112
112
113
110
106
104
102
101
100
101
103
103
102
102
103
101
100
101
101
105
106
110
112
108
108
108
114
120
121
121
115
107
104
99
96
91
84
71
54
51
64
86
97
97
108
110
113
120
103
104
105
103
112
115
103
86
88
102
105
107
112
114
115
111
109
107
105
105
102
102
103
103
105
105
106
104
103
103
103
107
112
112
113
112
109
112
117
121
118
115
115
108
103
96
92
90
77
64
53
58
78
90
100
103
106
117
117
116
109
104
107
107
107
113
111
97
83
90
103
107
112
114
115
114
109
110
111
107
106
107
107
105
107
111
110
112
112
110
109
108
113
116
115
112
109
112
117
117
119
115
111
106
100
98
92
86
73
59
58
68
89
98
99
106
109
116
118
118
106
102
102
108
106
107
109
107
100
90
95
107
113
114
112
109
106
106
109
107
109
111
109
110
112
114
114
114
115
112
111
110
110
118
116
114
113
114
120
119
118
115
108
106
97
92
87
79
68
56
59
74
88
99
102
108
112
113
118
116
