P2
60 28
255
225
230
233
238
243
248
251
254
254
254
254
254
252
250
251
251
252
253
253
252
251
247
242
237
229
221
211
199
195
186
181
177
169
171
161
155
153
150
157
157
161
166
166
176
183
192
201
210
222
231
240
249
253
254
254
254
254
254
254
254
229
232
235
238
243
246
249
251
250
250
251
252
249
248
249
250
252
249
247
243
238
238
237
235
232
221
212
205
196
188
176
172
168
161
162
157
152
151
150
157
159
160
167
174
183
188
197
208
218
227
234
246
253
253
254
254
254
254
254
254
232
236
238
238
240
241
241
244
246
249
252
253
251
249
247
247
244
241
236
229
228
226
227
226
223
218
212
207
194
187
177
168
166
160
162
159
151
151
150
154
156
160
171
174
181
187
191
205
218
226
231
241
252
254
254
254
254
254
254
254
231
230
231
232
232
234
240
246
249
251
253
251
246
239
237
240
235
233
230
225
219
211
211
212
210
210
206
201
191
177
175
170
165
161
154
157
153
148
150
148
153
159
167
177
181
190
195
203
217
225
234
244
251
254
254
254
254
254
254
254
224
228
230
235
237
238
245
248
247
246
241
239
232
226
226
228
231
226
223
220
214
209
204
202
201
200
195
186
184
175
169
167
157
158
155
152
152
145
146
144
150
161
167
177
184
193
200
206
218
226
235
245
250
254
254
254
254
254
254
254
221
227
233
236
236
236
238
234
233
230
228
224
217
215
214
215
218
220
217
211
206
204
198
194
192
187
187
183
175
171
163
158
153
149
150
148
149
147
142
148
150
157
169
177
187
193
203
211
217
230
238
246
253
253
254
254
254
254
254
254
223
227
228
224
221
224
228
226
221
216
217
218
216
211
206
203
204
207
205
201
197
190
187
184
181
177
172
171
165
164
159
149
147
140
139
142
142
141
135
142
150
158
171
178
191
202
207
215
218
230
241
247
252
254
254
254
254
254
254
254
222
219
214
209
209
212
213
215
211
210
209
209
208
201
195
195
196
198
196
192
187
179
176
174
167
167
164
159
154
147
150
145
139
135
125
127
127
129
139
136
148
161
171
188
197
211
219
220
224
234
245
250
252
254
254
254
254
254
254
254
208
204
203
202
202
201
202
200
200
202
201
200
198
196
192
187
187
183
180
176
172
169
166
167
161
154
150
141
140
135
133
131
123
125
120
116
118
118
129
135
146
163
175
194
206
216
226
229
231
237
244
250
252
253
254
254
254
254
254
254
187
187
187
189
187
182
179
180
185
184
181
180
178
177
174
170
170
168
163
157
155
157
153
151
151
144
137
129
125
128
121
115
113
110
112
110
112
111
109
127
148
170
185
197
212
223
232
234
236
241
245
248
251
252
254
254
254
254
254
254
165
159
156
156
155
154
151
151
155
157
159
156
156
155
154
152
149
148
142
137
136
133
132
131
129
124
120
118
110
108
107
101
102
97
96
97
96
100
98
117
150
176
196
206
217
229
238
241
241
244
248
250
251
253
254
254
254
254
254
254
149
136
124
115
110
107
105
111
118
124
127
126
127
124
119
114
112
116
112
105
104
104
105
107
102
101
103
102
93
86
85
83
83
82
75
77
81
84
86
93
139
182
199
213
222
233
240
243
246
247
248
249
251
254
254
254
254
254
254
254
144
134
121
106
93
83
79
82
88
94
96
96
93
90
85
79
83
86
81
79
76
75
74
78
84
89
97
95
88
79
72
69
65
69
65
64
71
73
82
103
146
187
203
216
227
237
246
246
248
248
248
250
251
254
254
254
254
254
254
254
151
143
135
122
110
97
88
86
88
90
88
84
82
80
74
75
79
77
74
71
69
69
66
67
76
82
87
87
84
82
79
80
79
78
81
82
92
103
117
148
175
196
210
220
234
243
248
251
251
250
248
250
253
253
254
254
254
254
254
254
180
162
148
132
114
106
98
91
89
87
83
80
81
81
79
81
80
76
74
77
76
71
71
70
73
81
84
85
83
82
87
93
102
107
116
121
124
140
157
181
197
202
214
229
243
251
253
253
250
249
250
251
254
254
254
254
254
254
254
254
210
188
163
139
124
114
104
100
97
91
92
96
97
95
94
94
90
89
88
85
86
84
84
85
87
93
95
91
92
95
106
114
122
138
148
152
152
163
184
194
204
210
222
238
247
251
252
253
253
250
250
253
253
254
254
254
254
254
254
254
225
209
187
166
148
137
134
129
119
111
115
120
115
111
109
109
108
106
105
102
97
97
95
96
101
107
110
107
113
121
131
141
145
157
165
167
175
184
196
202
207
220
234
247
252
252
252
252
252
251
251
253
254
254
254
254
254
254
254
254
230
219
207
193
179
167
164
157
143
137
136
135
128
122
120
116
117
112
110
110
106
111
113
112
117
118
126
132
136
146
149
156
163
167
178
184
193
199
199
205
216
232
244
250
253
252
253
252
251
251
250
251
252
252
254
254
254
254
254
254
241
235
229
217
205
193
182
170
158
154
150
143
138
132
133
132
129
130
128
129
130
132
135
132
140
147
148
152
151
155
161
167
180
187
196
203
202
206
212
222
232
243
252
254
254
253
252
252
251
251
252
252
254
254
254
254
254
254
254
254
254
253
251
242
227
217
206
196
188
178
172
164
161
160
153
154
155
156
158
151
154
153
150
151
150
157
158
160
164
165
179
187
195
204
205
209
210
216
228
238
250
254
254
254
253
253
251
249
250
250
252
254
254
254
254
254
254
254
254
254
254
254
254
254
250
243
237
231
228
217
207
202
197
193
185
184
186
184
184
176
170
166
160
165
168
169
173
174
185
190
194
203
206
215
220
221
231
238
244
251
253
254
254
254
253
252
252
250
250
249
249
252
253
253
254
254
254
254
254
254
254
254
254
254
254
252
250
243
236
233
227
223
220
213
207
201
199
195
190
189
180
180
182
181
191
190
190
195
198
206
209
214
219
227
234
236
244
252
253
254
254
254
253
253
254
253
253
248
244
247
249
251
252
252
254
254
254
254
254
254
254
254
254
254
254
254
253
250
245
243
240
238
238
232
227
220
214
212
205
205
204
199
205
202
202
207
205
209
211
217
224
227
236
242
248
254
254
254
254
254
254
254
254
254
254
253
249
248
245
247
252
252
254
254
254
254
254
254
254
254
254
254
254
254
254
254
254
254
252
251
251
250
248
246
241
235
230
228
226
220
221
220
220
219
213
218
222
222
227
233
236
240
248
253
254
254
254
254
254
254
254
254
254
254
253
252
247
247
249
250
253
254
254
254
254
254
254
254
254
254
254
254
254
254
254
254
254
254
254
253
252
253
254
253
252
247
244
239
236
235
234
233
228
229
232
233
237
238
243
248
252
254
254
254
254
254
254
254
254
254
254
254
254
254
253
251
249
247
250
254
254
254
254
254
254
254
254
254
254
254
254
254
254
254
254
254
254
254
254
254
254
254
254
254
254
253
252
249
248
249
242
237
237
240
245
245
248
253
254
254
254
254
254
254
254
254
254
254
254
254
253
253
254
253
253
250
249
249
250
253
254
254
254
254
254
254
254
254
254
254
254
254
254
254
254
254
254
254
254
254
254
254
254
254
254
254
253
253
252
252
252
250
250
253
253
254
254
254
254
254
254
254
254
254
254
254
254
254
254
254
254
253
253
254
253
250
249
252
253
253
254
254
254
254
254
254
254
254
254
254
254
254
254
254
254
254
254
254
254
254
254
254
254
254
254
254
254
254
254
254
254
254
254
254
254
254
254
254
254
254
254
254
254
254
254
254
254
254
254
254
254
254
254
254
252
251
251
253
253
253
254
253
253
254
254
254
254
254
254
254
