P2
60 28
255
119
116
112
111
111
110
107
97
87
85
85
86
87
90
96
107
112
104
91
82
93
108
104
94
94
101
112
126
143
155
137
106
98
96
98
102
97
90
80
79
80
84
102
121
128
123
121
118
108
105
106
110
110
103
95
91
95
100
107
110
116
116
114
112
110
108
104
99
94
89
87
90
87
80
80
83
85
92
101
108
113
118
116
119
149
148
142
165
198
220
165
117
119
118
120
118
116
121
121
123
119
119
126
128
137
136
133
131
128
133
120
99
89
88
93
96
96
97
105
113
114
112
110
108
107
103
97
93
91
92
88
80
79
83
95
104
107
109
108
114
118
123
115
126
159
165
155
151
200
219
154
123
124
123
123
119
120
119
118
118
115
117
115
117
120
121
125
121
129
137
129
113
93
79
85
93
95
99
100
108
106
105
106
107
105
102
97
94
91
85
80
84
98
107
107
106
105
108
110
114
124
130
130
145
161
163
151
141
165
168
135
124
127
126
123
124
123
123
123
119
119
118
117
121
119
119
119
113
115
118
119
114
100
82
75
87
94
100
104
107
92
100
103
106
106
105
102
94
81
76
89
100
101
100
99
102
105
110
116
117
125
127
133
140
141
145
138
138
140
135
135
135
132
129
127
126
121
122
125
121
119
115
115
115
113
113
109
111
114
113
113
112
108
95
80
81
91
96
101
106
84
95
101
101
101
101
93
81
81
94
102
106
105
102
101
101
106
113
116
119
122
127
130
131
133
135
138
135
130
131
131
131
128
125
124
122
121
120
120
121
121
120
117
113
112
109
107
108
109
112
111
112
116
109
93
85
88
92
96
97
81
83
90
95
102
96
78
81
99
107
108
107
103
99
102
107
109
111
112
114
117
122
123
124
127
127
128
125
120
121
119
118
119
117
114
112
113
115
118
120
120
121
119
115
114
109
105
103
104
108
107
108
114
113
101
89
86
87
91
96
92
82
83
91
92
84
86
100
104
104
105
103
101
101
104
108
110
112
112
111
112
110
110
111
110
110
106
105
102
97
99
95
92
95
93
93
93
97
105
111
116
118
119
117
114
110
104
101
101
101
102
102
106
110
105
100
96
99
108
117
102
89
84
86
78
81
95
100
103
104
102
98
97
100
104
108
108
105
102
97
94
94
98
104
106
110
109
107
107
101
101
100
99
97
91
89
86
83
89
95
101
105
108
111
109
107
108
104
100
96
96
101
106
106
98
95
99
100
115
131
85
89
90
79
74
84
95
97
98
101
100
97
96
97
100
98
95
93
91
91
93
99
103
106
109
108
108
105
101
103
102
102
99
95
95
90
88
90
89
88
87
95
101
104
106
105
107
104
100
98
95
97
102
102
97
94
97
103
119
134
73
82
92
99
95
87
89
92
91
91
92
89
89
92
91
86
85
89
93
97
98
100
98
98
103
102
106
107
104
106
103
98
95
93
93
86
85
90
89
89
86
87
91
96
99
99
102
104
102
100
97
97
100
98
90
88
94
104
114
127
173
242
207
141
100
88
88
87
87
85
87
86
87
85
75
74
83
93
93
91
95
95
95
95
95
97
95
96
95
91
88
82
80
82
82
85
85
85
86
86
88
89
90
95
97
97
98
100
102
103
99
96
100
95
86
85
85
99
116
124
126
175
166
117
85
94
98
93
88
84
84
83
80
77
77
87
97
93
88
83
83
86
87
85
77
69
62
65
66
63
66
63
59
57
65
83
89
87
88
84
84
88
91
98
100
101
104
108
110
106
102
99
95
91
83
79
80
93
116
125
58
79
87
74
78
102
107
99
93
88
84
83
79
75
78
87
94
89
86
83
77
76
71
60
52
45
45
48
47
45
43
48
54
55
67
89
101
95
88
85
79
83
88
95
107
113
118
121
118
111
104
102
97
91
84
70
63
79
107
126
107
129
125
94
90
108
111
109
102
95
89
83
77
73
77
81
82
81
76
69
62
61
62
61
54
51
58
57
48
42
45
56
60
57
77
105
116
111
102
97
91
87
91
90
98
115
127
130
123
114
107
105
99
88
79
65
56
76
101
121
118
125
115
79
84
113
117
114
108
100
95
88
81
74
70
68
65
61
57
57
58
64
75
85
81
70
62
60
60
58
58
62
63
70
99
125
126
114
103
100
102
97
90
88
100
120
129
130
122
111
107
102
94
87
76
64
62
80
103
117
119
130
117
79
82
118
126
120
115
107
96
86
80
76
69
62
58
55
56
58
68
83
101
118
114
91
70
65
67
67
66
62
69
96
120
127
119
101
92
85
84
90
95
107
118
125
127
125
118
109
104
100
97
88
59
47
63
82
103
116
120
129
117
81
81
114
130
128
122
117
108
100
92
82
71
64
66
70
73
77
85
94
104
116
127
124
106
88
78
75
78
89
109
124
123
109
99
93
91
92
93
105
115
121
122
120
120
118
110
102
97
100
97
78
48
39
62
84
104
121
116
125
122
81
79
114
128
131
128
124
118
111
104
95
89
87
85
87
89
91
90
92
95
102
112
120
123
119
114
112
115
118
114
107
104
98
98
101
98
99
102
105
112
117
119
120
118
112
106
101
94
88
81
62
41
41
66
94
110
123
121
123
121
88
77
109
128
132
129
124
122
118
112
106
104
102
97
93
89
88
91
91
91
94
95
100
107
107
108
112
111
105
101
100
103
112
113
109
101
97
100
107
113
117
119
120
118
112
107
100
94
86
76
54
39
55
77
101
117
123
119
128
128
99
76
102
127
130
129
128
124
119
114
109
108
107
103
101
99
91
87
87
90
96
96
99
103
104
104
102
98
96
100
105
103
102
97
91
92
97
105
109
112
119
124
123
118
111
106
102
98
89
74
52
43
65
93
107
120
126
119
123
126
107
80
93
120
126
127
127
124
120
116
111
107
105
110
110
105
100
97
95
91
92
93
90
92
92
89
90
89
89
95
103
104
98
95
94
98
105
109
112
115
124
129
123
117
111
107
105
99
84
64
55
63
79
102
115
123
128
120
124
129
112
80
83
117
128
123
124
126
125
121
112
108
107
108
110
111
113
112
110
108
106
107
102
99
101
100
102
101
102
104
101
101
101
100
104
108
111
112
117
124
124
125
124
117
112
103
100
93
75
61
55
73
96
107
120
126
129
120
122
127
121
87
76
104
125
127
127
128
127
124
117
112
109
108
109
111
112
114
113
113
115
116
117
114
112
111
109
110
108
107
108
106
108
111
113
116
118
124
128
126
124
123
121
112
108
106
98
89
73
60
64
84
106
111
117
125
129
118
122
125
128
100
78
99
118
124
124
124
127
126
121
116
112
107
105
109
111
112
111
111
114
115
115
114
112
110
109
109
109
109
113
116
119
120
122
124
125
130
131
126
124
121
115
113
111
107
94
77
63
60
77
94
105
112
115
124
129
117
118
119
123
112
89
91
112
122
122
123
128
129
128
122
116
111
106
106
109
110
112
113
111
111
112
113
111
110
110
109
112
117
122
125
120
119
124
129
133
133
136
130
124
121
115
113
111
103
87
66
60
70
90
105
109
115
121
125
129
116
118
120
121
126
109
88
100
117
123
124
126
131
129
125
122
118
114
111
110
110
111
111
110
112
113
113
113
112
114
116
116
121
124
123
123
125
130
130
132
134
132
129
126
122
116
111
106
94
80
69
67
82
96
105
110
114
122
124
127
118
116
119
123
126
125
98
90
105
116
124
125
129
130
128
127
121
116
115
114
113
112
113
115
115
117
119
119
118
117
118
120
126
127
126
127
124
127
135
137
136
130
126
125
120
113
108
103
89
74
64
69
90
104
109
115
114
121
128
126
