P2
60 28
255
163
188
197
202
209
207
213
209
208
215
213
218
209
206
212
205
201
195
196
194
183
177
159
144
141
134
133
123
120
123
115
117
114
113
117
115
117
109
108
118
119
127
128
132
143
143
154
156
162
178
178
193
197
200
218
219
230
232
231
235
165
180
198
202
207
208
203
209
209
211
212
206
206
204
201
194
185
184
182
175
166
154
150
145
143
138
131
135
131
128
127
124
130
124
124
126
121
126
121
124
128
127
137
135
140
147
145
157
159
164
176
179
194
198
208
222
223
234
232
233
167
178
200
211
211
213
202
205
208
208
210
199
197
198
196
188
176
175
169
163
162
156
158
157
156
161
156
156
155
148
150
147
148
144
137
139
133
138
139
137
143
137
140
143
141
149
149
152
157
159
174
176
186
195
201
221
226
233
235
231
163
187
198
211
213
205
204
200
207
209
200
194
186
192
191
180
175
167
169
169
168
173
168
177
179
177
185
176
176
173
167
171
162
161
155
147
153
148
148
148
148
154
148
148
148
149
156
151
157
159
164
180
180
196
209
214
230
231
237
240
163
190
203
212
217
205
201
198
201
201
188
184
184
189
187
176
174
172
180
187
183
190
190
196
201
191
196
194
190
191
179
179
174
168
168
158
158
152
151
155
150
155
154
153
157
153
159
157
156
163
164
180
188
196
212
215
235
247
243
244
171
188
206
211
210
205
195
201
202
196
184
173
180
182
184
186
181
190
190
194
202
200
210
209
209
212
207
210
202
199
198
187
192
183
174
172
160
157
150
149
152
148
152
150
153
159
154
163
162
164
172
170
190
195
206
228
237
248
246
245
177
193
205
209
209
207
196
197
193
183
179
171
181
190
191
196
190
197
202
204
213
209
215
220
217
222
215
215
216
208
208
200
204
201
186
182
168
160
154
150
156
150
149
149
144
154
153
160
166
163
175
177
191
207
216
237
245
249
250
247
180
201
200
204
204
200
200
189
186
180
173
177
178
191
199
198
202
200
210
211
212
223
217
225
226
220
223
214
220
217
211
215
206
207
199
184
181
164
160
155
145
149
145
146
145
142
150
150
159
168
173
187
190
210
230
236
245
249
252
250
182
200
205
209
211
201
196
185
176
174
174
186
190
193
198
193
201
204
207
213
213
222
219
217
222
214
219
217
215
219
209
215
208
198
196
179
180
172
161
159
147
149
146
140
142
137
143
146
151
165
168
183
194
211
236
241
248
252
252
253
188
194
205
208
206
200
186
181
175
178
188
190
196
193
195
197
196
206
204
211
220
214
223
218
214
216
208
212
207
203
203
192
190
177
171
170
159
162
157
149
146
138
142
137
136
143
140
147
151
158
169
173
195
211
228
246
245
250
253
253
190
196
206
208
202
199
182
176
179
186
199
194
192
191
189
196
195
200
203
202
215
213
216
215
206
205
190
189
189
177
173
158
151
147
138
144
138
137
138
132
136
128
129
130
127
139
138
143
149
151
167
173
189
213
225
244
249
250
253
253
190
200
200
210
207
194
187
177
184
189
191
192
183
189
193
192
200
196
200
202
205
211
201
198
188
173
162
145
142
133
120
120
113
115
115
111
115
107
107
107
107
119
120
127
129
127
138
140
149
155
161
176
183
206
224
234
248
251
253
253
193
203
199
204
210
196
190
183
184
193
192
197
190
190
196
193
201
200
202
205
195
194
182
162
148
128
124
118
109
108
96
96
95
93
101
98
104
106
106
109
99
103
107
112
125
127
133
135
144
159
162
176
184
197
223
236
248
252
252
254
197
197
205
207
204
200
188
188
190
195
196
188
192
188
189
197
194
200
195
191
181
157
144
129
125
125
115
109
99
90
87
83
84
85
86
85
83
93
99
106
112
108
111
110
117
128
125
134
142
156
172
174
189
198
218
240
244
251
253
253
198
198
203
209
206
202
189
188
190
185
186
180
185
188
188
201
201
201
193
170
152
129
126
130
124
123
109
104
114
109
101
98
102
105
107
106
90
90
99
101
111
109
114
117
114
126
127
133
149
158
175
179
190
205
216
238
248
251
250
247
193
201
200
206
204
198
193
183
187
187
181
184
183
188
189
189
196
184
166
136
123
133
128
123
122
128
130
138
158
146
119
103
91
93
112
119
105
96
113
117
109
115
116
124
129
128
137
140
153
163
168
185
191
208
223
231
247
248
250
249
194
201
203
206
209
201
198
191
190
192
185
187
186
189
196
192
186
158
123
118
122
127
118
117
148
179
171
146
142
140
123
99
79
76
104
125
116
104
120
138
122
110
109
117
132
135
147
154
162
176
176
190
200
211
229
235
245
249
248
251
191
194
201
200
200
198
191
195
189
188
191
186
193
192
196
194
163
127
110
122
124
109
115
141
177
204
186
134
115
129
125
99
69
66
101
129
119
111
128
146
138
113
108
108
125
152
159
169
173
182
192
192
208
215
226
241
242
249
248
247
186
194
200
205
200
202
196
197
195
190
197
190
192
195
185
171
132
113
124
126
115
106
131
166
184
203
196
140
109
123
125
109
97
105
127
139
116
109
137
149
142
115
104
107
112
148
173
189
198
198
205
201
208
219
223
239
244
247
247
241
179
196
196
202
201
199
204
197
199
196
190
194
190
190
176
140
118
117
135
134
123
127
138
161
184
208
211
171
123
115
130
134
134
138
139
128
117
122
147
152
136
127
113
119
121
135
184
206
217
219
207
213
213
225
236
235
245
242
245
247
177
194
200
201
203
198
201
198
196
198
192
195
193
183
156
120
123
138
144
154
156
162
162
167
185
202
216
199
151
122
125
130
133
137
130
115
125
145
152
151
140
140
140
145
158
165
195
213
215
221
212
220
223
225
238
237
245
247
243
247
178
191
202
200
200
206
202
202
195
192
195
189
189
164
135
132
139
151
155
167
184
184
188
182
184
193
196
198
180
158
148
143
146
149
154
160
166
182
182
178
180
176
190
197
207
219
212
214
210
212
222
216
226
228
228
237
234
244
245
246
173
189
199
201
200
207
203
201
199
193
194
186
177
153
138
152
150
158
170
175
192
197
200
199
193
197
193
193
199
202
207
205
204
204
201
202
196
197
198
192
198
193
198
211
213
223
217
210
215
217
226
220
223
233
227
234
234
239
246
243
163
192
197
205
206
204
207
198
199
199
193
188
170
163
161
161
171
171
184
196
199
209
207
209
203
191
189
181
185
187
184
189
187
191
190
187
192
187
194
199
196
205
204
212
216
212
212
207
219
224
219
227
223
232
233
227
239
240
245
248
158
191
202
204
207
202
205
201
200
203
192
188
176
165
169
173
188
198
205
214
209
214
212
210
209
195
192
185
183
185
172
175
175
177
191
192
200
199
199
208
204
212
215
213
218
211
213
218
225
234
224
230
232
228
233
231
242
246
242
247
159
185
203
204
202
204
203
206
201
200
200
194
194
182
184
198
204
220
223
223
223
213
215
209
207
208
197
202
199
202
210
203
210
210
210
214
203
208
207
211
220
215
222
221
216
219
218
229
230
230
231
221
229
229
231
240
236
246
245
244
154
187
206
206
202
208
206
208
207
204
207
199
196
195
199
216
217
225
230
228
236
228
230
234
234
242
238
238
235
227
231
223
223
223
216
222
214
210
214
215
228
226
226
228
222
231
234
238
240
228
230
225
227
235
233
244
242
242
248
241
136
186
205
208
208
208
212
204
206
209
205
207
201
210
219
226
232
222
231
241
242
246
241
245
248
243
245
238
240
237
227
230
222
229
231
226
228
217
222
226
222
233
230
231
234
236
242
238
239
232
220
229
225
235
239
234
245
246
249
248
