P2
60 28
255
223
227
225
230
234
218
144
67
46
40
34
28
24
22
35
60
92
122
130
133
127
103
82
78
83
82
78
78
80
75
63
53
51
48
49
51
50
53
56
55
51
55
73
87
96
107
113
117
121
131
140
143
146
149
149
149
154
162
162
161
227
226
229
227
234
222
166
104
61
37
31
25
22
29
44
75
111
131
137
130
109
83
77
83
82
83
87
91
92
89
93
94
86
74
61
56
55
58
60
58
56
52
57
73
87
96
103
109
116
123
134
141
144
147
142
144
148
149
152
149
226
224
230
227
228
236
210
129
52
31
32
29
25
24
51
99
128
136
136
123
101
93
94
92
85
86
97
103
111
113
116
132
137
132
116
91
75
66
61
57
55
55
56
61
73
85
95
103
110
116
121
130
135
136
137
141
147
148
147
141
227
229
224
228
232
230
194
114
50
35
35
29
22
30
73
116
135
142
127
106
102
107
103
101
110
114
118
126
125
128
133
135
139
136
134
130
120
108
93
79
71
66
60
58
63
71
84
95
98
107
117
123
130
131
133
138
140
143
140
132
224
229
226
230
228
227
198
117
56
37
32
23
19
42
89
123
141
140
113
101
102
99
107
114
116
123
125
127
127
134
142
141
142
139
136
133
124
123
118
109
99
84
76
69
65
71
81
95
101
107
116
118
125
131
137
139
132
134
132
125
229
226
230
227
230
234
208
137
65
33
26
24
31
61
101
129
139
129
117
111
106
102
108
117
118
121
122
120
124
119
118
123
122
125
120
118
115
113
113
106
106
105
97
90
86
89
93
98
107
109
113
119
123
133
138
136
132
131
140
135
227
225
229
226
229
232
210
154
79
36
26
26
38
72
113
139
140
123
110
109
113
115
110
110
114
118
122
117
116
116
115
118
118
118
117
114
113
109
105
101
102
108
106
102
100
98
101
101
107
111
111
111
117
130
133
134
140
142
139
128
229
230
225
229
228
231
225
186
120
48
17
25
39
79
131
147
135
119
107
106
107
110
114
118
124
120
112
109
110
115
113
112
111
105
103
100
95
90
86
87
89
96
105
105
107
105
101
100
101
110
110
107
115
122
131
138
143
142
133
123
225
228
226
231
229
227
235
221
145
51
19
27
45
88
136
146
134
122
106
103
109
115
121
120
114
108
104
101
99
101
99
87
78
75
73
74
73
74
72
69
71
74
83
93
101
111
110
102
96
97
101
106
118
126
132
141
139
138
132
132
228
227
231
226
228
230
234
221
144
58
28
27
49
102
138
141
132
114
98
104
123
121
113
112
106
101
97
91
84
73
67
68
66
65
67
74
77
77
79
81
80
73
70
77
87
98
107
108
105
95
96
102
106
117
125
132
138
132
133
134
228
225
230
225
227
230
231
230
192
110
37
20
51
103
138
140
118
94
105
124
119
108
104
104
98
90
85
70
61
63
61
59
61
69
75
70
64
63
64
75
90
94
84
72
72
81
98
105
106
100
95
96
96
104
118
127
127
124
128
129
227
227
225
230
227
227
231
235
214
135
62
33
53
122
159
134
97
105
126
122
114
108
101
96
93
84
70
63
60
55
55
85
128
145
118
78
66
65
67
70
72
80
92
92
81
70
77
93
105
110
100
93
92
94
105
113
113
115
116
116
226
231
227
229
229
226
231
235
221
149
67
27
52
139
172
112
84
120
134
119
111
102
96
92
83
68
52
53
54
56
92
138
154
126
77
63
69
67
75
80
78
85
98
99
95
85
72
81
97
105
105
97
95
92
89
76
52
57
90
111
227
224
230
225
227
229
227
236
222
133
31
11
61
124
133
100
105
136
136
118
106
100
94
92
79
68
61
49
56
88
126
152
145
99
73
75
64
52
58
76
84
101
125
113
91
93
95
93
94
104
111
103
99
78
34
35
75
95
108
110
227
223
229
226
227
229
227
236
210
131
41
18
73
132
138
120
127
135
127
114
107
104
97
92
82
71
68
65
75
114
172
206
175
94
48
87
160
161
113
90
77
90
139
150
108
87
95
107
114
125
132
122
94
45
33
75
105
108
112
117
227
227
224
230
227
227
231
231
208
148
71
36
82
128
123
111
122
134
129
120
108
111
132
148
132
88
70
93
145
196
222
240
212
148
90
65
65
59
63
69
64
85
132
177
184
155
127
103
163
221
207
176
108
52
56
84
99
116
122
123
224
228
224
227
227
225
230
225
211
173
83
31
74
116
122
117
119
130
128
121
117
109
111
120
111
93
76
96
141
141
161
198
204
171
98
63
69
74
79
74
71
97
126
144
129
119
94
91
152
183
187
150
81
59
78
99
109
117
122
124
228
225
228
225
227
228
226
225
225
207
116
40
67
112
118
110
117
125
125
121
117
108
96
96
102
115
113
110
118
130
154
160
180
166
93
66
80
86
86
86
88
88
83
83
82
86
87
91
107
96
93
93
72
63
78
106
120
118
123
128
228
223
228
226
225
228
223
226
231
217
148
76
89
130
134
115
112
126
130
122
111
105
96
104
140
144
130
132
144
188
203
182
172
140
100
91
102
109
110
110
105
99
89
84
89
93
105
110
99
78
71
90
72
58
92
111
121
124
127
130
225
229
226
229
227
226
228
224
225
220
174
117
119
140
139
127
113
124
139
128
113
109
108
114
140
141
128
130
150
190
209
192
144
112
106
103
110
115
114
110
100
93
90
85
94
102
106
95
82
78
88
90
64
68
98
108
115
125
124
132
225
229
223
227
226
224
234
219
157
88
63
89
129
143
143
136
121
123
134
133
128
119
113
115
137
146
126
134
166
189
210
171
108
98
103
107
105
109
106
92
88
91
99
103
97
93
84
76
68
66
94
81
59
84
106
116
119
126
128
129
228
224
227
224
228
232
230
185
119
86
74
103
138
144
142
137
131
122
128
138
135
123
114
115
133
142
123
122
132
168
192
141
102
109
110
110
110
105
104
101
101
103
104
103
97
91
90
97
100
98
82
55
70
103
108
115
126
125
127
126
227
224
228
225
226
235
219
158
112
95
81
108
138
146
142
136
133
123
121
129
131
125
116
114
134
140
125
110
105
140
154
123
105
112
115
117
122
119
119
115
106
107
104
99
93
93
111
123
120
105
79
74
91
109
112
112
124
124
122
122
226
227
224
228
228
234
223
159
112
96
87
117
148
144
136
134
129
125
121
120
124
124
123
127
143
141
121
112
102
103
108
109
113
117
121
121
120
119
118
122
119
115
106
95
101
114
131
136
114
88
77
94
112
111
111
113
116
122
118
120
223
228
223
225
227
231
230
168
105
89
87
117
149
143
135
132
125
124
119
117
121
119
122
134
147
143
126
119
111
108
112
111
117
119
117
120
120
121
121
118
113
103
102
107
117
128
127
112
93
83
92
103
108
104
102
110
113
115
116
116
226
225
230
226
227
232
232
186
113
83
87
121
146
144
136
132
128
123
123
119
118
123
126
128
128
127
120
110
111
110
112
118
118
119
119
123
125
117
118
113
103
102
111
122
125
121
105
77
68
82
103
115
110
105
102
105
112
115
123
121
227
224
228
224
225
231
234
193
117
81
85
121
147
145
139
130
123
115
119
125
120
118
117
128
132
123
118
111
113
115
111
115
113
114
117
116
117
111
110
110
107
116
123
124
119
100
64
47
68
94
107
112
98
94
102
104
110
110
114
120
224
228
224
227
225
228
237
197
122
82
85
121
149
144
137
131
125
126
124
126
125
121
122
118
123
130
135
141
130
122
118
116
120
118
117
117
111
108
107
114
121
117
113
108
108
106
97
93
96
112
115
102
102
102
105
108
110
117
118
122
