P2
60 28
255
122
136
143
157
171
189
200
200
207
203
203
208
209
219
219
221
222
217
220
208
206
210
201
200
195
197
196
176
167
158
152
149
140
138
128
123
125
118
124
129
133
141
145
157
153
159
175
174
184
183
185
202
205
219
224
232
242
229
235
237
123
132
142
150
167
181
194
203
204
209
204
207
215
216
224
218
213
213
208
209
203
201
198
189
188
173
156
147
140
141
136
133
134
125
122
116
116
117
113
119
119
128
138
137
149
156
162
171
172
181
185
197
207
206
224
232
234
237
234
241
120
129
141
148
167
182
193
208
206
211
209
209
218
215
219
212
202
209
205
203
199
197
197
185
175
159
148
146
134
128
127
125
125
118
118
117
115
120
114
116
117
118
132
135
143
149
152
164
165
175
187
189
203
205
216
229
229
238
234
236
120
129
132
145
163
187
202
208
216
209
209
209
210
218
210
205
202
201
204
192
188
190
180
168
155
152
143
137
139
132
133
129
126
130
124
125
125
123
129
122
123
127
130
140
139
148
152
152
163
166
179
186
192
207
206
220
231
232
239
234
116
123
129
148
165
187
204
207
216
211
208
210
207
211
202
201
204
197
194
185
179
173
161
160
155
158
163
159
164
161
158
157
150
151
149
144
143
137
143
144
142
146
142
148
149
151
158
154
161
162
169
184
185
199
207
219
234
233
243
242
115
123
130
140
169
185
197
205
203
209
203
203
207
200
200
195
195
194
179
175
171
170
172
165
175
180
186
194
191
195
185
177
178
175
176
166
160
159
154
158
154
154
159
153
157
154
156
161
154
162
165
175
190
193
211
218
230
245
241
246
113
113
124
137
165
184
195
208
206
205
201
202
208
197
189
188
190
188
172
174
178
180
189
190
202
210
212
215
208
212
210
201
200
190
187
181
172
171
161
161
161
156
160
156
159
163
162
169
163
168
174
174
190
195
209
226
235
250
248
248
108
111
120
143
159
184
201
208
213
203
199
200
198
193
180
185
188
182
183
180
193
200
203
218
216
224
228
222
227
221
223
221
211
213
203
200
190
175
172
158
160
162
156
159
154
160
165
164
172
168
176
181
184
203
210
230
248
246
252
251
105
111
119
141
161
184
204
207
209
201
198
200
192
184
174
180
194
195
199
198
204
214
214
223
225
228
234
229
234
229
228
230
221
226
225
217
207
186
178
165
159
162
153
157
156
155
160
156
165
168
174
187
188
208
224
234
245
246
252
252
96
103
119
135
163
186
202
211
205
202
195
190
184
172
175
181
193
203
201
210
212
221
229
223
229
227
228
232
223
228
223
221
223
215
220
210
199
191
175
172
161
156
160
153
157
154
151
153
150
165
172
181
194
199
225
241
246
251
249
252
93
101
120
137
168
193
201
209
206
202
193
182
180
173
180
189
193
206
206
210
214
216
225
222
223
222
215
222
214
214
214
202
202
190
184
178
166
167
159
160
157
150
157
153
152
150
144
151
149
158
171
175
193
202
224
246
244
250
254
254
95
101
118
147
169
193
203
206
209
199
192
179
171
179
186
197
200
201
209
206
211
214
214
220
213
216
212
199
196
183
175
164
149
140
122
112
108
107
119
122
128
133
133
142
138
144
149
148
156
155
166
173
179
205
217
235
247
246
252
252
96
104
122
156
180
196
206
204
206
195
181
178
179
194
199
198
203
199
204
205
204
209
206
212
205
194
189
165
147
128
104
92
79
78
76
77
86
84
92
95
94
103
103
119
131
134
143
140
149
154
159
173
172
198
220
230
245
248
252
253
101
107
129
156
183
194
202
208
200
191
173
173
189
192
196
192
195
200
198
204
200
199
203
196
186
160
134
113
95
85
73
69
71
73
74
74
79
84
91
100
100
103
106
101
113
123
131
140
143
158
163
168
182
189
212
230
241
251
249
251
99
108
134
160
182
195
202
210
199
187
178
180
194
195
198
198
196
202
200
202
201
190
188
168
141
115
91
92
93
85
80
83
90
94
99
108
104
97
95
111
120
113
118
109
107
119
127
141
140
150
168
173
186
191
210
232
239
250
251
251
100
114
136
169
184
197
205
204
202
188
185
187
191
201
198
202
200
196
202
197
195
182
159
137
107
92
103
126
117
95
113
129
118
110
109
124
134
115
106
118
129
123
121
129
120
123
131
132
142
150
168
182
184
199
206
228
246
242
248
248
101
118
138
170
188
196
204
204
205
192
184
191
190
192
190
193
201
197
201
196
182
164
126
99
92
105
139
158
127
130
199
201
130
93
91
105
137
136
113
124
150
146
126
130
134
136
144
139
149
158
167
184
187
202
214
224
241
243
249
248
100
118
149
174
191
195
199
206
201
196
187
188
190
185
191
191
193
194
190
184
156
127
106
87
95
126
169
191
163
153
192
184
133
97
81
104
141
142
121
135
163
158
139
123
134
144
153
162
158
174
181
183
197
203
221
230
236
246
240
245
99
119
151
173
191
200
203
209
201
194
190
188
195
190
191
194
191
197
187
164
132
104
93
86
111
157
195
224
214
162
146
156
147
125
118
142
159
146
128
150
177
166
143
117
120
140
162
186
181
188
197
192
203
208
219
234
236
245
241
242
104
124
148
175
187
199
201
199
201
191
190
191
191
197
192
195
195
190
176
135
112
106
97
105
133
173
206
235
234
174
133
143
156
160
161
161
155
137
143
173
190
175
143
132
126
137
162
195
219
210
208
206
203
218
221
234
243
236
242
240
99
118
141
176
192
194
202
201
201
195
192
195
191
196
197
196
196
179
152
118
107
118
117
126
146
175
211
238
246
216
163
143
151
152
156
154
144
149
176
193
190
176
150
145
147
140
151
189
232
237
227
223
213
220
225
227
239
235
242
248
98
114
140
165
189
196
199
201
194
198
196
195
198
194
196
195
189
164
124
113
121
136
154
160
172
180
198
224
239
237
202
172
159
156
163
167
174
191
203
208
197
189
188
181
192
190
193
218
229
237
227
218
222
218
228
224
227
240
237
245
96
111
139
162
185
194
196
203
199
203
201
195
200
195
193
191
178
149
119
129
144
154
179
188
196
202
202
212
219
219
217
218
220
222
228
229
225
227
223
226
229
223
228
224
228
237
234
238
226
219
222
216
225
222
223
230
228
241
241
240
100
110
128
157
174
191
199
197
201
197
199
197
194
199
192
189
166
130
133
146
163
176
185
205
211
219
218
210
210
202
208
212
207
211
208
210
208
204
213
210
217
219
212
220
220
228
231
223
222
216
222
222
217
229
222
232
242
236
242
238
98
108
123
155
176
188
200
198
200
199
197
201
196
197
191
177
158
145
160
169
178
193
198
214
222
223
228
217
216
212
206
206
192
190
187
187
201
198
205
208
207
214
209
217
224
222
226
214
215
221
220
229
222
226
229
227
239
238
245
245
96
102
123
150
175
189
198
201
197
204
203
198
200
196
190
170
161
168
172
187
196
207
220
221
228
226
225
225
217
221
212
209
213
205
215
215
213
215
206
213
210
214
224
218
225
220
216
220
220
232
225
222
228
219
230
237
241
247
242
247
95
96
120
145
171
190
196
204
200
202
203
201
205
198
192
180
170
181
191
206
217
222
234
231
231
233
230
237
231
233
238
233
237
231
228
225
213
216
210
212
219
215
226
225
227
229
219
227
229
231
231
220
226
224
228
240
239
248
250
250
96
99
107
132
155
181
196
197
205
201
201
203
201
204
197
195
188
188
211
218
228
235
236
244
239
244
250
248
250
244
243
236
226
231
223
224
226
219
221
212
218
224
223
232
226
227
231
229
237
229
227
226
220
229
224
233
246
242
250
252
