P2
60 28
255
99
98
96
96
96
105
110
110
111
111
113
110
97
85
76
67
58
54
56
52
46
47
47
45
48
59
71
84
106
125
137
142
146
148
151
163
172
170
172
179
181
177
178
180
181
188
195
202
205
204
201
205
211
213
212
212
211
214
216
217
117
118
122
121
121
124
127
131
129
126
129
133
130
121
114
108
96
83
75
71
65
60
55
50
49
49
52
61
75
104
128
135
143
148
152
160
158
158
160
162
167
169
171
172
175
181
190
198
204
199
195
199
204
213
213
213
211
213
214
211
123
128
131
133
134
136
144
152
159
164
161
161
166
167
164
158
148
136
125
112
104
96
83
77
69
63
57
52
61
76
90
110
124
127
132
137
141
141
144
154
160
163
164
168
174
179
187
192
195
194
196
202
207
208
210
213
214
212
210
212
148
155
156
155
155
152
152
155
160
166
172
176
178
179
185
188
190
186
176
168
159
149
135
122
118
108
92
77
69
67
69
74
80
93
102
115
135
143
144
146
143
143
149
154
161
172
183
189
193
192
189
193
199
206
212
214
215
213
210
210
158
161
166
169
169
168
168
171
170
170
172
177
181
185
190
192
192
192
191
187
183
181
172
156
147
143
132
120
111
99
88
81
79
77
82
106
125
133
140
143
143
139
138
145
155
166
172
182
191
190
190
193
199
206
209
212
212
208
205
207
157
160
159
162
167
171
174
177
179
179
180
178
182
191
194
194
197
195
193
187
185
187
184
179
170
156
150
149
148
144
139
125
109
99
97
104
113
128
137
140
135
127
135
151
162
165
166
172
181
190
196
200
207
212
212
211
209
210
210
210
160
161
158
161
166
169
174
175
177
182
181
176
176
181
186
190
189
190
194
190
185
183
178
173
167
162
159
157
156
153
147
140
131
126
121
111
109
114
121
130
128
124
131
144
153
155
161
170
181
190
195
201
205
208
208
208
209
210
210
207
157
154
154
157
161
164
166
164
164
170
173
172
174
173
172
175
177
178
176
173
170
168
164
160
154
148
146
145
146
152
152
143
140
144
145
138
130
126
123
126
127
126
133
140
146
155
164
170
179
191
198
201
206
211
218
219
217
217
212
211
145
144
146
148
148
152
153
149
148
149
151
151
148
148
150
147
144
143
141
138
136
137
137
133
130
127
124
126
133
138
141
146
148
147
148
150
146
142
138
133
128
126
129
136
148
156
166
175
181
188
196
201
203
206
215
220
219
217
212
211
127
124
125
127
128
128
127
126
124
122
120
114
111
105
100
95
93
98
98
107
120
124
133
137
135
130
124
122
122
123
125
127
135
141
143
147
149
146
144
141
135
131
127
132
145
155
160
166
175
185
193
200
206
213
216
217
216
216
218
216
120
113
111
115
118
112
103
101
91
83
75
71
66
54
50
51
59
58
54
59
62
70
83
95
108
120
128
129
123
120
120
120
119
124
134
140
142
144
143
140
140
136
130
135
142
153
165
173
183
190
194
201
206
209
210
209
211
215
218
217
110
120
118
112
98
86
75
60
59
62
65
65
53
43
45
50
53
47
47
52
48
47
43
41
48
68
96
115
127
131
134
134
121
116
121
130
135
137
139
139
140
141
140
138
140
144
155
168
177
186
191
199
202
204
206
202
208
218
219
219
121
117
95
72
54
47
47
58
77
103
126
109
70
59
66
91
129
105
80
106
97
65
53
49
45
55
73
89
105
114
124
132
137
135
130
127
129
135
139
141
142
143
140
140
140
146
158
166
174
181
188
193
197
201
203
203
205
212
213
214
98
78
57
41
42
58
81
112
145
177
173
117
78
65
54
121
216
188
137
187
192
114
79
74
63
68
103
128
125
117
109
109
123
131
130
132
135
137
138
142
146
143
142
143
141
141
149
158
166
178
188
192
194
201
203
204
206
210
214
209
61
41
40
54
73
98
129
160
177
192
169
107
80
72
60
107
187
152
75
94
106
79
78
84
67
64
122
174
171
154
135
118
114
116
121
131
147
156
151
144
145
148
147
146
142
140
143
152
162
172
181
188
189
191
194
198
199
200
205
209
50
55
73
110
134
144
159
172
189
196
170
111
75
81
70
58
61
72
93
78
51
55
67
72
67
79
136
189
202
193
179
167
148
124
110
114
137
160
160
151
153
153
147
143
143
141
143
153
163
172
177
182
188
191
195
197
198
200
201
205
89
96
113
143
156
162
173
186
195
194
174
117
75
78
77
71
68
72
84
72
57
65
76
82
70
82
148
194
202
200
201
195
165
132
122
120
125
144
152
153
154
153
150
145
142
141
142
152
161
170
178
181
188
190
192
196
197
201
197
203
127
121
118
130
148
166
183
196
201
211
197
137
85
72
82
81
67
57
54
58
63
75
84
80
69
97
164
198
192
199
194
155
135
133
132
134
129
131
142
150
150
147
147
147
140
138
139
146
159
166
176
181
181
189
193
196
197
197
202
203
151
138
128
128
138
154
175
193
199
215
223
184
114
76
83
80
74
69
68
68
73
79
82
78
79
120
167
172
156
154
149
144
142
125
111
108
110
124
144
147
142
143
142
142
138
135
139
145
157
169
178
183
181
185
189
191
199
200
205
208
168
143
129
135
139
149
162
178
204
213
223
222
172
110
77
73
78
82
79
82
85
81
69
67
95
133
145
134
132
128
122
122
121
115
114
114
116
128
141
147
143
135
136
139
138
135
142
151
159
174
182
185
188
186
190
192
193
200
205
212
177
157
134
131
144
155
153
162
184
196
210
220
214
180
123
85
78
79
80
83
82
79
84
100
118
129
128
128
128
130
134
128
126
126
130
131
125
128
133
137
136
126
128
135
134
138
144
154
163
175
185
188
196
193
192
196
195
201
202
203
181
155
138
134
138
147
153
160
162
169
179
189
202
193
168
138
113
105
111
111
111
125
139
142
135
138
146
145
144
137
135
136
139
143
139
137
132
130
132
133
134
132
130
133
132
136
145
157
173
177
181
185
189
197
192
190
190
192
200
203
184
161
146
143
143
139
141
149
156
162
160
162
164
164
162
159
160
158
161
163
161
160
157
152
146
145
146
149
152
151
153
152
148
148
146
140
136
133
133
132
132
132
128
131
134
135
146
155
166
169
174
186
188
191
188
183
191
197
207
212
176
163
155
159
162
157
151
149
149
149
145
146
151
155
165
168
164
163
165
167
165
161
165
168
168
165
163
164
163
166
164
158
155
151
146
141
138
134
132
135
133
132
133
127
132
138
150
161
164
175
183
191
191
185
193
194
202
210
203
206
172
159
160
162
161
162
164
164
157
147
139
139
149
155
152
155
160
163
165
171
176
174
175
179
177
167
162
168
167
166
165
157
151
144
141
144
141
137
137
140
138
136
134
128
131
141
150
160
162
173
186
186
188
190
191
197
199
205
203
201
171
165
164
168
170
168
164
165
172
168
156
158
169
166
161
165
169
173
178
176
176
177
175
177
175
172
171
169
169
164
160
154
146
142
139
141
142
138
139
139
135
129
129
137
136
142
155
163
175
181
187
190
191
198
194
197
206
208
214
209
161
158
157
166
172
168
163
167
176
174
168
172
174
172
172
173
177
179
180
183
186
188
187
185
184
182
179
174
169
157
151
149
145
145
143
146
150
142
138
137
134
134
134
138
144
151
162
171
182
186
192
197
193
196
195
197
206
209
212
212
156
157
161
165
171
171
170
175
176
172
169
169
171
173
178
176
176
179
180
184
188
192
196
197
195
187
178
170
163
160
150
143
146
148
150
149
146
142
138
139
135
134
138
137
146
150
162
178
181
187
189
193
197
196
198
199
202
208
212
215
