P2
60 28
255
116
111
109
107
104
98
88
82
80
82
84
87
93
98
101
104
105
109
110
109
107
105
103
98
100
103
108
123
139
170
215
241
221
161
118
107
105
106
107
109
107
104
104
103
103
104
112
107
88
88
96
100
103
102
101
104
106
108
104
101
112
110
107
104
98
93
88
86
88
93
97
97
100
103
105
104
99
97
96
96
98
94
93
96
98
115
124
125
130
132
140
140
130
130
152
174
161
132
122
113
97
87
85
85
85
81
78
71
65
69
77
84
85
92
100
110
117
121
122
114
106
106
102
101
95
87
85
86
88
92
95
96
93
89
86
82
82
86
95
109
115
108
97
90
84
80
80
79
86
97
100
99
97
107
142
176
180
179
190
180
137
126
144
152
156
151
132
110
93
78
77
81
77
77
77
82
90
87
89
90
101
101
100
101
100
93
89
90
93
91
81
77
74
67
64
66
73
79
85
90
96
100
100
107
121
131
129
117
113
118
117
107
101
104
96
95
92
88
98
97
99
105
109
114
119
120
123
124
117
107
91
85
87
86
92
94
98
104
102
104
100
100
100
99
99
99
96
90
80
73
70
72
78
84
90
95
97
100
99
101
110
116
117
121
128
136
132
123
117
114
116
114
115
113
110
112
111
109
107
105
107
108
106
104
103
101
96
92
85
78
76
76
85
91
94
98
99
110
113
110
94
100
99
99
97
91
80
66
61
69
83
93
98
98
97
99
98
99
101
101
106
111
117
119
121
125
121
118
120
116
116
118
117
118
115
113
113
114
109
105
104
102
104
104
107
109
105
105
100
83
71
71
81
93
95
102
105
106
112
111
89
93
94
98
93
77
63
64
80
93
98
99
98
98
95
95
96
98
102
103
106
112
114
115
116
114
111
110
110
105
99
100
102
104
108
108
110
112
112
113
108
104
101
100
101
98
98
99
98
88
68
58
70
91
96
95
102
106
113
114
81
87
92
87
72
60
71
87
95
100
101
98
97
96
96
95
95
96
95
95
92
90
91
94
97
99
98
94
91
89
86
84
81
81
84
88
96
101
106
108
107
107
104
99
96
93
92
93
93
92
76
63
66
78
93
93
94
100
107
114
84
82
86
73
61
74
94
101
99
98
97
93
94
93
93
89
85
85
81
83
89
91
97
101
102
103
99
99
97
96
93
89
89
85
83
82
78
81
88
94
100
101
100
102
98
93
89
87
87
87
83
74
72
80
88
91
90
91
94
96
93
84
69
66
79
92
97
100
102
98
96
92
90
86
79
79
78
82
88
90
95
96
97
99
99
102
99
98
99
95
93
89
88
88
83
82
80
79
77
81
88
92
96
97
98
96
90
88
87
88
90
82
72
70
73
76
78
80
84
82
95
77
68
80
90
96
98
96
95
92
89
90
84
76
73
75
83
89
93
93
89
91
92
91
95
98
100
97
92
88
87
92
88
83
82
84
87
83
79
76
78
86
90
93
94
91
91
90
90
89
87
89
85
86
87
90
101
105
113
115
84
69
75
82
86
89
89
90
91
91
89
84
75
68
75
85
89
83
82
88
87
89
84
79
75
66
64
61
58
56
53
57
61
68
78
81
83
82
80
81
81
83
89
89
91
90
90
91
89
90
86
82
79
81
91
96
106
118
122
126
81
75
85
89
85
84
82
83
84
84
81
75
73
76
87
91
84
80
78
76
75
68
58
49
41
43
52
61
61
59
58
51
48
57
74
83
81
81
80
82
84
84
89
91
90
92
95
95
93
92
88
81
79
80
86
95
105
119
124
126
188
108
85
92
90
87
81
80
80
78
78
73
71
78
84
85
79
75
66
56
55
55
53
48
47
48
46
42
40
42
47
52
53
63
85
97
90
82
77
72
78
85
91
96
101
105
105
104
99
93
90
82
77
83
84
94
106
116
127
127
218
121
77
97
99
94
87
80
77
74
72
72
72
74
75
68
62
55
51
51
58
75
79
67
61
59
51
39
32
37
49
52
51
70
99
110
106
95
86
80
74
81
92
102
110
116
118
110
102
99
90
78
71
74
76
87
107
113
123
128
62
70
93
111
111
104
96
87
78
75
70
67
64
62
61
54
49
50
58
72
89
108
114
96
70
58
57
54
54
57
58
56
64
91
114
119
114
102
97
99
93
85
85
96
113
120
118
111
102
99
90
78
73
68
74
87
104
120
124
128
92
83
104
113
112
113
107
101
90
82
73
66
66
58
54
57
55
58
67
80
94
110
119
113
89
66
59
59
58
57
58
66
91
116
121
114
100
93
88
86
84
82
95
108
115
118
114
109
102
97
90
78
71
63
60
75
95
114
120
121
118
89
98
114
119
118
115
109
101
94
89
75
65
63
69
79
80
78
79
85
95
105
115
119
116
101
81
71
69
72
85
105
119
120
110
96
83
80
83
87
97
105
110
115
113
112
110
104
99
94
85
73
64
60
58
75
97
109
124
125
75
73
98
117
118
118
119
114
110
104
96
93
89
85
82
82
85
85
88
88
90
97
103
111
120
122
119
115
114
117
119
117
109
100
91
86
90
90
93
97
99
106
109
109
107
104
103
98
94
90
81
69
57
54
61
78
99
110
121
123
79
74
97
110
117
120
121
121
116
111
104
98
97
96
96
95
92
88
85
87
86
84
86
93
99
104
107
104
105
109
106
102
98
96
102
103
99
95
92
94
97
102
105
107
110
105
100
95
90
86
74
56
41
42
66
83
100
115
117
120
83
72
96
113
120
122
120
122
120
116
110
102
101
102
100
99
92
85
81
82
84
87
90
89
93
96
95
97
96
95
97
93
96
98
97
95
87
86
89
94
99
102
106
110
108
103
96
92
90
91
77
47
33
44
67
90
104
118
121
118
89
76
93
111
116
120
121
122
121
116
112
104
100
100
96
102
103
97
90
83
82
82
85
91
92
94
91
89
88
84
88
92
92
91
84
82
83
89
95
97
99
102
109
112
109
104
98
91
82
70
56
38
33
54
75
95
109
117
123
118
93
75
82
106
117
119
121
119
119
117
113
109
102
99
101
104
105
99
97
97
94
92
90
90
88
86
87
85
85
87
89
94
90
89
91
90
95
99
98
99
101
108
112
112
109
102
95
90
88
76
55
40
40
63
88
101
115
119
122
122
98
76
79
101
115
116
119
120
117
118
116
112
107
101
101
101
101
104
105
105
103
103
104
105
103
98
100
101
99
99
96
96
94
91
95
99
103
106
105
111
113
113
114
110
104
98
95
93
87
73
53
43
53
74
96
108
117
126
124
123
103
80
78
95
110
115
115
120
120
119
115
109
109
105
102
100
97
98
101
101
103
106
107
107
106
106
103
103
102
101
100
100
100
100
103
108
108
107
109
114
117
114
110
107
102
99
93
89
80
63
49
51
70
90
104
112
116
123
122
122
111
88
70
89
105
113
117
117
119
118
118
116
114
113
109
105
100
100
101
100
102
103
103
105
105
103
101
101
105
105
105
106
107
110
110
112
114
116
118
121
121
115
110
105
99
97
94
88
76
52
46
62
79
95
105
113
117
119
125
122
111
95
69
81
103
112
117
113
115
117
116
117
116
116
113
111
108
103
100
99
101
102
103
104
103
102
104
103
102
103
107
111
112
113
112
110
113
119
123
124
121
117
113
108
102
96
90
82
71
56
54
74
90
101
112
115
117
119
123
122
110
104
82
75
100
111
114
116
114
115
116
117
117
116
116
113
111
110
107
104
105
106
106
106
109
109
107
106
106
110
113
114
113
113
114
116
118
121
123
123
120
115
111
105
101
96
91
76
59
57
65
84
101
107
112
116
120
118
116
117
