P2
60 28
255
228
228
223
222
225
220
222
217
215
219
214
220
220
217
220
214
217
217
218
222
215
217
215
207
207
200
202
199
193
191
184
187
183
180
183
175
179
176
173
175
170
175
178
183
191
194
208
215
222
234
238
246
251
252
254
254
254
254
254
254
219
218
223
219
218
221
218
221
215
216
220
218
223
218
219
223
222
226
224
223
223
218
219
213
206
206
202
204
199
196
196
188
189
184
181
183
176
177
172
169
172
170
177
179
184
193
197
211
221
226
236
239
245
251
252
254
254
254
254
254
214
210
213
215
214
220
217
219
219
214
219
217
221
226
225
231
229
230
229
223
227
221
218
215
205
208
205
202
200
194
197
187
182
183
180
183
178
176
175
167
169
168
171
175
176
186
193
206
215
221
236
238
242
248
249
253
254
254
254
254
207
210
208
213
212
213
222
216
216
217
217
227
228
233
236
232
231
223
223
221
216
215
209
209
204
199
202
195
196
195
190
190
181
184
183
175
180
176
175
174
168
170
169
173
177
181
194
200
210
219
225
237
240
245
252
252
254
254
254
254
201
207
206
207
211
208
216
217
217
225
227
232
233
232
229
215
209
200
194
195
186
188
183
177
180
175
184
187
186
189
180
181
178
174
178
171
176
176
173
174
165
168
169
170
178
180
190
198
207
216
220
229
235
243
252
251
252
253
253
254
203
202
205
203
207
213
214
224
227
232
233
227
223
210
199
193
182
182
175
172
172
165
169
160
156
158
153
164
166
171
178
169
171
169
171
175
168
171
171
169
168
163
169
171
175
184
187
197
205
212
220
224
238
247
249
251
251
253
253
253
203
200
202
204
205
216
221
229
231
223
214
201
200
198
190
194
189
192
193
185
190
182
178
174
163
165
154
150
151
147
156
155
160
166
162
168
164
168
174
164
166
164
168
174
174
183
186
195
204
206
219
224
233
244
245
249
250
250
251
247
194
196
194
203
213
219
227
219
213
204
195
203
204
212
216
214
219
213
213
210
206
206
195
195
193
189
184
167
162
154
143
148
147
157
161
158
165
163
166
165
162
171
171
174
181
183
191
194
204
214
218
230
236
243
247
246
249
248
250
249
182
187
194
203
216
211
207
198
197
206
209
224
229
227
226
220
223
220
218
219
211
209
205
200
202
199
197
188
178
171
155
149
143
140
149
148
155
159
158
161
158
168
172
175
186
187
195
197
202
214
219
230
236
239
246
242
246
249
245
245
186
186
199
203
201
196
192
204
213
222
227
225
231
226
225
227
223
224
220
218
213
208
207
201
199
196
189
188
179
173
168
157
153
145
143
145
144
151
150
154
162
160
170
181
190
194
190
198
207
215
226
228
235
240
242
245
243
247
245
243
186
186
193
193
183
192
203
215
221
217
220
218
218
221
218
219
216
212
211
206
204
199
195
192
185
185
178
174
172
164
165
159
156
153
143
145
141
140
148
148
158
162
170
184
195
203
198
200
208
215
228
230
233
240
240
244
242
242
245
241
181
188
183
182
185
199
218
218
215
211
209
208
205
208
205
201
200
191
181
179
177
172
168
169
165
163
164
155
156
154
150
156
153
155
152
148
151
144
147
152
154
165
173
191
208
212
210
205
208
217
227
236
234
238
241
236
241
242
247
249
182
182
175
175
191
200
212
217
209
202
197
194
188
184
178
168
161
152
139
136
132
127
125
123
131
134
140
140
138
143
137
138
143
146
153
153
155
153
150
155
153
165
181
199
220
221
216
208
209
223
228
234
235
233
238
234
240
246
245
247
179
170
175
181
192
204
208
213
206
189
174
166
157
142
129
117
107
102
98
97
94
88
91
93
96
100
102
117
117
119
124
118
126
131
138
147
147
155
155
159
168
171
194
216
228
233
222
213
212
220
231
229
234
234
234
240
238
245
245
243
174
168
173
185
190
193
194
196
192
170
149
133
109
91
83
82
83
86
89
87
87
85
86
91
88
83
85
99
113
114
114
109
108
111
113
129
134
140
150
155
172
185
203
224
237
243
226
216
219
222
230
228
231
236
234
241
240
242
245
239
163
172
180
188
191
184
176
171
163
143
117
92
71
71
89
98
92
86
86
84
85
90
98
105
100
85
84
106
131
133
126
122
108
102
103
106
121
123
133
147
156
181
201
224
241
237
229
219
222
226
226
234
233
235
238
239
245
243
245
247
158
171
180
182
186
176
157
140
121
103
86
69
62
82
115
122
105
91
80
76
80
88
102
114
110
93
84
107
140
151
143
135
119
106
106
102
108
111
113
124
130
155
185
216
239
231
222
220
221
228
227
231
233
232
238
236
240
244
242
247
166
169
173
170
165
155
139
116
94
85
76
68
73
95
118
119
109
96
83
78
77
84
106
118
115
99
87
106
137
154
151
138
131
120
115
114
104
111
115
112
122
146
190
223
230
226
218
224
226
225
230
227
232
234
235
240
235
242
246
245
163
163
159
154
142
126
108
92
90
98
99
87
76
86
104
114
111
98
86
74
70
82
104
122
121
102
86
107
145
158
153
143
134
128
120
120
115
124
138
137
156
180
209
229
223
221
219
222
227
226
232
229
229
235
232
235
236
241
246
243
157
154
140
128
114
99
92
92
101
117
120
95
76
83
97
108
106
96
83
75
76
87
114
131
126
104
88
110
148
161
160
155
141
133
128
127
144
158
178
193
202
222
230
230
221
214
221
223
225
227
224
229
230
231
232
232
241
241
244
248
153
138
121
106
94
84
91
106
121
137
141
112
82
83
96
106
108
104
97
95
101
109
121
129
122
99
91
118
152
169
165
160
154
148
155
163
179
196
206
220
226
231
227
219
221
218
223
226
220
222
223
228
229
226
235
235
238
244
242
244
153
130
105
89
85
92
111
131
143
157
154
131
99
85
95
102
109
110
110
115
116
121
124
121
110
98
113
144
163
169
172
172
175
176
183
195
200
209
215
220
224
217
215
213
216
223
223
227
226
221
226
223
226
228
230
239
237
243
244
243
135
114
98
92
93
108
127
140
149
156
161
155
122
92
88
95
102
103
106
111
115
119
121
121
122
133
152
169
175
169
175
179
180
184
183
193
200
206
214
214
216
213
212
217
215
220
224
226
226
219
221
220
223
230
229
238
242
241
243
239
113
97
95
102
110
119
128
137
145
154
164
163
150
124
98
95
100
105
107
111
120
128
137
146
151
159
170
170
169
165
161
170
172
177
186
194
207
208
213
216
211
216
217
220
221
221
229
227
225
224
220
225
223
228
237
237
241
238
239
244
99
100
114
119
123
124
128
131
134
141
152
161
164
150
128
118
119
124
130
137
145
153
159
164
168
161
161
161
157
160
156
163
173
179
197
204
208
212
209
212
213
216
220
219
223
225
228
226
220
223
217
218
222
225
237
234
236
237
238
246
122
133
142
141
140
140
131
130
134
137
145
159
164
153
140
134
137
145
151
159
165
161
157
154
152
151
148
155
154
152
161
169
188
198
205
209
210
218
216
218
225
222
221
220
221
228
227
226
223
219
221
215
220
228
233
241
237
243
246
243
159
165
164
162
157
151
139
136
141
143
150
154
152
144
133
134
136
141
145
145
150
142
137
143
144
151
150
150
157
159
176
191
201
210
209
212
215
217
221
222
226
225
222
221
220
227
228
222
219
213
216
214
217
229
230
238
241
241
247
246
179
181
173
168
165
156
152
151
153
155
159
161
154
150
147
145
145
140
139
142
140
145
144
147
150
147
156
160
173
188
195
207
212
215
216
214
218
220
225
228
224
225
222
219
221
223
225
216
214
216
209
214
218
227
237
237
244
245
247
252
