P2
60 28
255
240
241
240
235
225
214
204
197
194
189
187
185
182
183
179
179
178
176
177
169
167
166
163
169
166
167
165
159
160
153
153
153
150
156
151
154
158
156
163
164
169
177
182
194
198
208
219
226
235
239
247
253
253
254
254
254
254
254
254
254
230
221
210
201
191
185
185
182
189
192
195
201
199
204
201
199
199
192
191
181
170
167
157
156
150
149
157
152
157
154
150
152
145
149
150
149
154
153
157
160
166
175
176
186
196
203
219
226
233
240
246
252
254
254
254
254
254
254
254
254
202
193
187
185
192
194
201
209
209
218
221
224
226
220
221
219
218
215
206
200
189
182
174
161
157
145
142
147
145
153
152
149
148
144
148
148
150
157
157
162
165
171
179
180
193
205
213
224
229
238
245
249
254
254
254
254
254
254
254
254
184
185
198
206
213
216
215
216
216
219
219
220
219
214
212
213
210
207
199
190
187
182
178
167
158
152
141
138
134
139
143
141
147
143
143
146
145
152
153
158
163
167
178
185
194
202
210
223
228
238
249
251
254
254
254
254
254
254
254
254
197
208
215
218
214
212
210
210
210
207
204
204
202
197
192
195
195
190
185
178
174
171
166
164
153
152
149
140
136
129
136
140
140
146
142
142
146
148
156
157
161
168
175
186
191
200
209
215
228
236
244
252
253
254
254
254
254
254
254
254
200
204
205
211
210
197
187
187
187
182
178
173
166
164
162
164
169
163
160
158
161
158
149
147
142
139
141
137
138
131
128
134
132
137
139
141
145
144
151
154
158
167
171
182
188
197
209
213
223
232
241
250
252
254
254
254
254
254
254
254
191
194
195
192
186
174
158
149
151
152
146
140
136
133
135
137
137
135
134
141
143
141
135
127
128
123
123
130
127
129
124
123
129
128
137
139
140
148
149
155
160
168
177
180
190
197
205
214
218
230
240
246
254
254
254
254
254
254
254
254
175
168
165
161
156
146
127
119
118
110
105
103
99
93
91
95
94
93
99
109
115
114
114
113
115
117
114
118
118
119
119
117
125
124
130
137
134
141
148
155
160
165
175
181
187
195
202
213
218
229
241
245
252
254
254
254
254
254
254
254
150
136
127
127
128
118
98
82
76
75
76
73
72
70
69
71
70
71
77
77
81
85
88
96
96
102
108
108
112
110
114
112
110
122
124
131
137
139
149
152
159
167
172
184
191
198
207
212
224
229
240
251
252
254
254
254
254
254
254
254
121
113
103
94
88
81
74
67
68
80
84
77
70
70
68
66
67
68
68
69
69
70
70
74
79
87
96
98
103
103
103
107
103
113
120
127
138
137
148
156
158
167
171
185
195
200
209
212
224
233
241
251
253
254
254
254
254
254
254
254
92
91
84
80
83
82
75
68
79
109
116
97
82
74
68
66
73
74
74
81
82
78
71
67
74
81
88
91
92
97
94
96
103
103
117
125
132
142
146
157
164
170
180
188
199
204
210
221
226
236
246
250
254
254
254
254
254
254
254
254
73
77
85
97
110
113
96
76
86
115
125
106
88
79
71
70
73
75
83
91
93
87
79
72
80
96
100
101
94
87
87
85
91
91
98
115
129
145
150
158
168
172
186
195
202
207
210
222
227
235
246
248
252
254
254
254
254
254
254
254
78
90
107
127
145
140
110
88
83
100
109
101
100
92
77
71
73
76
85
98
101
97
90
86
94
114
127
126
118
97
86
82
80
86
88
105
128
141
157
160
170
181
189
203
208
213
218
223
233
238
245
252
252
254
254
254
254
254
254
254
90
112
136
153
165
155
121
94
85
93
100
100
95
88
76
64
62
67
80
95
102
102
95
86
98
125
144
149
136
114
96
87
81
82
83
91
117
137
158
169
173
186
193
204
213
216
222
226
233
238
243
249
252
254
254
254
254
254
254
254
104
128
151
174
178
164
135
99
89
93
96
99
94
84
74
65
63
72
89
103
108
107
98
89
104
135
155
155
146
133
113
99
89
80
82
83
101
137
158
174
182
190
202
208
218
223
225
234
238
243
246
248
254
254
254
254
254
254
254
254
117
128
147
170
180
176
146
106
93
94
94
94
91
88
82
79
79
91
104
110
111
104
94
95
117
146
158
154
147
135
120
107
99
90
85
83
92
128
159
177
188
192
206
214
219
224
226
234
239
243
247
248
252
254
254
254
254
254
254
254
123
127
139
149
172
183
162
127
94
87
93
94
91
89
89
91
91
99
109
110
107
102
95
101
125
148
156
154
144
134
125
112
102
98
92
94
102
125
163
179
189
200
206
217
221
225
233
237
242
241
244
250
251
254
254
254
254
254
254
254
143
137
133
139
159
170
163
137
100
86
93
97
95
92
93
93
95
102
105
106
100
93
93
112
139
152
152
146
139
131
120
111
102
101
103
108
122
141
171
186
190
202
211
220
224
230
240
240
240
240
244
251
251
252
254
254
254
254
254
254
168
158
148
142
142
149
149
132
113
97
90
91
91
92
96
95
97
99
103
102
92
87
102
127
142
145
142
135
128
123
117
111
108
110
127
137
151
173
181
190
196
205
218
223
232
238
239
243
241
244
248
250
252
252
253
254
254
254
254
254
179
166
158
151
143
138
133
129
120
108
100
98
98
99
98
97
97
99
99
96
97
103
118
128
132
133
128
127
123
121
124
122
131
139
151
166
175
188
190
194
204
211
224
233
239
243
243
244
241
245
250
250
252
254
254
254
254
254
254
254
180
170
165
159
151
147
141
136
134
130
126
122
117
113
113
112
108
111
112
112
118
122
126
130
130
134
135
136
144
144
149
152
151
163
173
186
193
191
199
201
210
223
232
242
245
247
246
244
246
248
251
252
252
254
254
254
254
254
254
254
184
180
173
164
157
153
151
146
142
140
136
134
131
130
132
129
127
126
130
133
135
138
138
138
140
146
154
154
161
167
170
172
169
178
185
187
193
194
204
214
223
235
239
243
244
244
247
243
244
247
250
254
254
254
254
254
254
254
254
254
190
184
178
171
166
160
156
154
150
148
143
138
136
135
134
129
127
129
134
142
144
143
147
151
160
164
168
172
170
173
175
180
184
184
190
194
197
207
216
229
238
243
247
248
250
250
247
244
243
248
253
253
254
254
254
254
254
254
254
254
188
177
176
172
167
163
160
159
153
150
147
140
142
141
139
138
135
141
148
155
157
155
165
168
173
177
171
173
174
181
189
190
197
194
194
202
208
220
229
236
245
249
252
250
249
248
245
248
246
246
250
250
253
254
254
254
254
254
254
254
206
194
184
180
171
169
171
172
174
167
165
162
159
160
156
158
160
161
169
172
174
172
169
175
174
176
180
181
191
197
197
196
198
205
207
216
228
238
247
248
251
252
250
251
248
248
249
244
246
249
252
253
253
254
254
254
254
254
254
254
228
223
213
209
205
201
200
196
197
193
189
191
184
183
180
176
180
177
180
179
173
174
171
176
181
185
194
193
196
197
199
207
207
215
226
233
242
246
250
252
252
253
250
250
245
242
247
244
246
250
251
254
254
254
254
254
254
254
254
254
241
237
234
227
225
222
218
217
211
208
202
200
200
187
182
179
177
179
178
183
183
183
189
189
197
200
200
203
202
208
212
219
228
233
245
250
252
252
251
252
253
252
251
249
250
247
245
246
245
250
253
253
254
254
254
254
254
254
254
254
245
241
241
235
231
229
222
221
215
211
209
202
200
191
190
190
184
192
194
198
203
197
201
202
205
210
209
217
220
222
231
235
244
252
252
253
253
253
253
253
252
251
252
250
247
245
241
244
246
247
251
250
252
254
254
254
254
254
254
254
