P2
60 28
255
229
151
83
71
70
61
56
51
53
54
71
105
132
152
154
147
133
115
114
115
111
110
116
124
130
139
142
142
149
154
162
162
147
131
113
101
93
86
85
84
83
84
86
98
110
115
121
127
137
143
148
152
155
161
161
162
166
164
165
157
228
168
114
81
62
55
54
52
51
53
82
125
149
160
157
142
127
125
127
118
123
137
138
143
147
149
153
150
155
157
159
158
148
144
137
131
125
113
105
96
87
87
88
91
99
112
122
122
128
139
143
148
149
156
163
163
162
157
160
154
246
219
146
80
58
60
59
54
45
64
101
136
158
158
147
132
127
125
123
131
137
140
145
143
148
149
151
154
149
151
150
147
147
139
138
134
130
130
122
120
111
103
100
93
98
112
123
127
129
144
145
145
157
159
163
160
154
154
150
152
248
220
141
77
59
61
59
54
51
75
121
151
162
157
143
127
119
118
120
137
146
139
142
140
143
147
140
139
138
144
149
144
144
139
139
142
136
135
129
127
127
118
116
113
114
117
122
131
130
133
142
143
154
159
159
158
154
162
164
155
240
202
135
78
58
54
52
49
59
88
131
157
162
157
136
128
134
131
132
132
131
135
140
146
144
141
136
135
142
143
145
147
147
146
139
135
132
128
130
131
134
136
127
125
124
122
124
128
135
134
136
140
145
157
158
161
164
161
162
147
244
212
140
74
51
52
55
53
69
103
142
161
157
150
135
127
131
131
132
135
141
147
141
135
131
131
135
135
142
144
142
141
137
137
131
126
127
125
123
123
126
131
131
132
129
126
129
125
128
132
132
139
141
150
159
165
170
163
156
145
242
213
151
92
61
52
51
55
71
115
153
164
160
146
136
126
123
130
136
143
138
133
131
125
127
125
126
137
132
126
121
118
116
110
107
101
98
102
104
110
114
118
126
128
133
133
125
121
119
124
129
137
149
151
161
168
164
159
152
155
240
220
174
112
64
48
53
62
78
120
159
166
160
144
125
118
130
143
138
136
133
125
127
125
120
119
117
117
106
97
94
91
99
101
101
102
97
96
90
92
99
106
120
125
129
136
133
129
117
119
128
128
139
148
156
164
161
160
156
157
245
234
203
146
78
43
51
61
89
131
161
167
152
132
117
133
146
137
132
128
127
126
122
120
112
104
93
86
90
92
89
83
88
95
96
97
96
103
110
103
99
97
99
114
121
125
129
130
128
121
119
121
126
138
148
152
150
145
146
144
243
243
234
165
77
49
58
58
87
137
161
157
132
119
132
145
142
130
125
121
118
117
114
113
102
90
90
84
79
84
91
99
102
98
97
92
92
99
109
118
112
107
95
95
106
114
124
128
128
124
118
118
118
127
139
142
143
138
140
138
246
252
222
155
94
72
83
63
72
171
218
171
118
117
149
148
134
128
122
121
117
115
109
92
85
87
81
73
89
122
158
167
131
98
89
87
90
92
96
103
109
118
115
94
92
105
114
124
128
131
123
116
119
120
123
112
84
86
114
134
240
246
242
209
145
94
56
40
82
142
156
116
97
138
167
148
132
131
123
115
112
105
95
82
81
78
76
97
131
165
173
135
99
97
94
90
96
101
99
107
122
124
126
117
104
103
106
118
125
129
129
121
117
102
70
62
85
110
125
130
239
240
250
231
161
69
16
41
107
154
170
147
129
151
161
145
133
126
123
118
109
98
88
84
76
77
95
125
158
176
147
102
95
97
84
68
75
99
101
113
151
149
122
117
116
116
114
111
120
125
125
125
108
65
56
101
127
130
138
136
243
242
251
235
160
75
46
66
120
160
159
134
130
156
157
144
136
128
123
118
111
106
97
93
85
87
113
143
170
177
140
100
89
106
148
147
126
117
102
104
147
177
141
107
107
120
129
122
119
125
129
126
89
65
86
113
128
132
138
140
241
244
246
232
171
95
51
67
125
163
153
131
135
154
156
139
133
133
128
122
112
105
102
98
105
111
119
144
175
178
138
96
88
113
127
111
91
94
96
98
140
178
160
132
117
112
119
124
121
124
130
123
98
82
100
118
126
139
143
146
241
247
246
223
157
87
54
75
122
149
148
132
132
153
159
148
140
136
125
120
117
113
111
106
105
111
115
132
169
196
179
114
81
94
92
92
98
100
97
100
150
189
190
179
145
123
117
121
127
120
122
108
83
84
106
126
129
139
143
146
238
240
239
204
156
104
55
68
125
147
147
138
134
147
152
146
141
135
132
125
118
114
112
114
136
168
180
180
180
204
197
129
89
89
98
103
101
100
94
101
128
149
161
155
137
148
168
175
164
148
137
116
83
86
118
135
140
137
145
148
240
243
240
215
177
107
51
69
113
131
142
138
124
139
151
144
144
161
173
160
133
115
121
153
195
213
231
219
171
164
152
120
107
109
118
120
122
122
121
114
108
116
108
101
110
152
215
227
208
217
179
117
81
90
125
132
145
146
146
147
241
240
229
229
216
137
46
59
121
148
152
144
132
138
162
153
133
130
140
149
138
134
136
153
163
169
202
185
167
189
165
122
115
124
133
138
138
135
125
119
111
109
107
112
123
135
194
182
153
181
154
90
75
106
129
133
137
147
144
150
240
238
234
241
230
155
80
103
152
162
159
153
143
141
155
160
140
131
133
140
150
141
145
150
143
172
186
169
168
181
169
128
123
129
125
132
132
125
115
111
111
111
120
118
116
123
107
92
91
117
131
88
88
116
131
140
143
153
148
146
239
239
240
236
231
178
113
122
157
162
160
157
151
145
147
158
153
141
144
157
166
148
149
166
178
214
221
177
140
151
152
130
127
131
130
129
123
115
120
122
125
126
120
117
110
122
131
134
131
118
94
80
105
128
133
139
148
147
150
145
237
242
242
205
165
133
115
139
171
169
160
157
150
145
143
150
158
147
140
157
159
146
145
157
176
205
227
191
137
126
130
133
133
135
134
130
132
129
127
126
124
126
116
111
113
126
151
161
147
111
89
107
126
133
134
136
146
146
146
143
242
248
205
136
98
83
103
150
167
163
158
155
155
147
141
140
145
145
141
156
161
146
145
156
168
191
219
192
136
126
129
132
137
138
143
139
135
134
127
126
125
124
119
116
130
148
158
148
120
104
105
119
131
129
133
137
141
149
142
139
248
230
173
131
116
99
112
152
167
166
160
154
152
146
141
136
138
145
143
154
162
147
147
152
157
193
215
185
137
130
141
139
141
141
141
141
136
138
133
126
124
118
124
136
145
156
147
122
109
114
123
126
132
128
126
133
132
138
137
135
252
216
148
126
120
104
121
153
166
163
160
156
149
148
141
136
136
141
151
155
159
154
146
136
138
181
210
178
141
130
137
140
139
142
139
140
140
135
131
120
121
131
140
146
142
139
125
103
105
117
132
137
129
129
124
129
136
133
141
139
251
219
147
121
118
102
122
159
171
160
155
152
146
145
141
138
139
136
142
153
157
156
145
129
137
177
198
168
139
134
135
140
139
142
142
134
135
129
126
126
132
146
145
139
132
107
77
76
106
127
131
131
121
123
128
126
134
133
134
137
245
230
154
104
111
107
121
159
167
158
152
150
147
138
142
142
139
141
135
136
144
157
166
150
142
158
170
159
139
135
134
131
133
133
137
132
125
127
129
137
138
135
136
130
115
97
93
106
119
137
138
126
123
121
127
128
127
134
136
140
246
240
178
121
109
101
121
159
166
159
155
148
144
139
141
143
138
142
140
140
140
135
145
157
168
178
172
162
149
140
139
134
136
135
131
130
128
134
136
137
135
131
136
131
126
123
118
126
134
143
135
116
120
126
127
129
131
138
138
136
