P2
60 28
255
99
98
95
95
95
97
97
92
88
86
83
79
73
72
62
71
109
126
120
111
104
97
92
86
89
89
94
96
79
68
66
66
65
66
71
73
72
71
73
77
77
79
78
84
93
85
76
75
82
86
85
90
94
93
88
88
92
88
91
96
102
100
98
95
95
95
94
95
91
87
77
69
70
69
73
85
103
102
96
100
107
113
98
98
110
110
118
115
94
81
77
75
74
72
73
74
74
77
77
78
79
81
84
85
89
79
72
76
77
81
83
86
89
88
91
91
87
85
79
110
102
101
101
96
94
95
94
93
85
75
64
59
64
64
69
79
84
87
93
111
140
152
124
121
151
169
183
167
118
87
85
84
84
81
79
79
78
79
80
81
81
79
83
89
91
87
76
74
78
80
80
82
85
86
84
78
63
60
88
138
98
97
96
97
94
94
91
86
82
72
72
81
78
74
81
87
86
84
86
103
132
143
120
114
140
156
169
167
120
89
92
92
91
88
87
87
84
80
81
80
81
81
81
85
90
95
91
81
87
90
81
77
79
75
54
34
30
41
53
60
100
99
99
99
97
94
89
80
75
72
82
100
97
90
95
95
87
79
79
99
129
138
119
119
147
167
172
164
124
94
94
92
90
91
90
89
90
87
85
84
83
87
94
99
100
97
98
97
97
97
88
79
67
41
32
43
58
66
73
78
100
100
97
96
97
92
84
76
69
71
77
84
91
93
94
90
82
81
87
100
125
139
127
134
140
137
166
186
149
104
93
94
95
93
94
93
91
90
87
83
79
98
135
151
146
132
121
110
98
91
82
71
55
37
48
67
75
82
83
85
99
98
98
98
96
89
78
75
71
64
65
78
90
92
90
86
83
85
88
96
125
139
126
135
150
150
171
186
151
103
94
96
95
96
95
93
91
91
90
87
84
92
100
108
110
106
108
107
106
98
83
68
52
39
47
69
80
87
92
94
101
102
101
101
95
88
83
78
73
66
72
83
88
91
90
88
86
87
88
97
120
130
114
130
154
153
179
210
168
104
92
91
91
95
91
89
89
90
90
89
83
82
88
84
86
88
84
87
92
96
93
76
53
38
44
68
83
86
90
90
97
100
101
100
92
81
75
75
75
72
76
84
85
86
86
86
87
85
87
92
116
136
122
118
119
114
154
196
160
108
93
87
85
85
85
83
84
86
85
83
81
85
83
83
86
86
86
86
87
94
97
86
64
56
61
69
78
81
87
89
99
98
97
96
91
81
80
89
85
78
79
80
82
79
77
81
88
96
100
108
128
132
109
106
110
104
137
180
161
106
79
73
67
65
66
65
68
74
77
78
80
86
88
87
87
85
87
84
80
97
112
103
86
74
67
65
72
82
86
88
100
99
100
96
90
81
89
108
100
87
83
79
82
81
79
84
87
90
96
101
106
106
96
101
103
91
105
126
115
84
70
67
63
60
59
63
64
62
63
67
74
77
79
85
89
88
85
81
82
92
107
105
90
77
62
57
62
76
84
86
97
99
99
97
85
77
115
135
101
80
80
80
78
77
78
83
85
84
85
87
86
82
78
95
110
89
83
99
92
78
75
69
64
67
66
64
64
67
69
64
63
65
70
76
83
85
81
82
83
84
98
107
96
79
57
51
63
69
78
84
93
97
97
92
79
69
120
161
109
74
78
79
77
74
77
78
80
76
70
65
65
72
77
85
91
90
81
71
63
57
52
46
45
50
60
62
60
63
68
71
69
68
67
69
73
77
79
81
81
83
94
97
95
116
93
47
52
65
74
80
96
91
81
70
57
44
57
77
78
80
79
76
74
72
75
75
72
65
58
62
69
73
73
73
69
57
47
36
32
32
30
32
34
39
49
57
61
61
61
67
69
71
76
73
73
75
72
72
78
87
93
76
86
137
113
48
46
65
74
82
99
77
48
43
47
58
76
79
74
76
77
76
74
71
72
71
62
57
63
67
71
72
68
64
49
37
35
42
49
51
53
46
37
38
56
85
92
78
66
61
65
73
81
83
82
80
72
71
74
75
81
81
100
126
110
84
70
64
71
79
100
70
37
38
43
46
52
62
71
71
69
68
67
68
66
58
52
59
66
68
68
63
56
50
43
35
39
64
68
56
57
52
39
34
54
91
104
97
86
73
65
63
66
75
84
87
81
78
79
78
84
105
108
83
126
191
122
55
69
75
90
75
58
54
57
59
81
93
73
64
65
64
64
64
60
54
57
63
65
62
55
58
61
55
46
41
36
35
34
35
38
41
42
44
62
90
104
101
88
76
67
64
62
63
73
81
84
84
81
76
85
113
90
59
146
199
106
52
69
74
86
79
72
62
56
58
83
94
74
64
63
63
64
60
57
56
59
60
54
49
53
70
77
62
47
41
39
40
39
40
42
44
43
46
69
97
101
92
80
70
65
66
67
65
70
79
83
80
77
76
78
87
68
57
125
138
76
66
76
75
78
71
55
47
50
57
64
69
69
70
70
69
67
59
53
54
54
51
49
50
64
82
87
75
53
42
40
39
39
39
41
43
44
56
76
84
82
78
72
71
72
72
75
78
79
80
79
80
81
80
80
79
73
57
50
56
61
70
71
70
68
58
51
60
66
71
72
68
72
76
74
69
64
59
57
56
53
51
52
57
67
78
86
85
71
55
45
41
43
43
43
47
56
70
78
80
75
73
79
79
78
81
84
83
76
75
77
81
85
85
87
87
80
71
60
61
66
67
71
71
60
70
80
83
84
84
82
74
73
75
74
72
68
67
63
58
59
58
61
66
66
68
73
77
73
64
54
49
55
63
65
67
72
78
83
81
79
77
78
80
78
81
83
81
77
75
81
87
91
91
89
88
77
64
61
62
67
69
69
69
77
94
98
92
89
87
83
78
72
74
78
75
71
66
63
62
64
69
70
70
69
68
70
70
72
72
68
66
72
78
79
78
76
78
80
77
77
77
75
77
77
76
75
73
76
80
84
89
91
91
89
81
68
64
67
68
68
70
70
72
88
99
96
93
91
91
89
84
78
76
76
75
72
70
70
70
68
69
67
67
70
69
69
70
70
72
68
67
74
77
78
78
77
76
73
73
74
74
74
72
73
72
69
71
77
84
84
85
90
91
86
73
67
69
69
70
69
72
73
75
93
101
98
96
94
93
92
89
86
78
77
75
74
76
76
76
73
73
76
72
69
69
68
71
69
65
63
69
77
76
77
78
76
77
78
78
76
73
70
70
70
70
69
72
79
88
91
89
96
97
82
63
59
69
72
71
70
71
75
74
94
98
98
99
97
93
91
87
84
77
71
76
80
83
84
81
80
80
81
77
74
75
73
74
75
75
78
80
79
81
82
83
85
85
81
76
75
75
74
74
74
76
76
78
83
87
91
89
84
75
60
58
63
70
75
71
71
71
73
76
98
100
101
98
94
91
90
92
91
83
75
76
82
86
88
85
82
82
82
83
81
80
81
81
81
81
83
84
83
86
85
84
82
81
81
78
77
78
76
77
78
82
84
83
88
89
88
84
71
65
64
67
73
72
71
69
70
74
73
77
95
99
100
97
95
95
92
93
91
87
86
83
83
84
83
83
80
76
75
77
79
79
81
79
77
83
82
82
84
82
82
82
83
82
79
79
80
81
78
78
85
87
86
88
90
87
75
66
64
65
71
71
72
73
72
73
69
68
70
75
93
100
100
99
96
96
93
89
90
90
93
92
84
77
74
79
79
78
79
77
77
80
76
75
77
78
80
82
84
84
82
80
81
81
80
79
76
75
78
82
88
89
87
85
76
67
63
60
63
66
70
76
73
73
72
72
71
70
73
72
