P2
60 28
255
109
108
106
107
105
106
102
100
104
102
103
108
111
112
109
110
115
121
124
122
119
111
105
103
92
85
81
77
73
67
69
71
67
69
71
68
67
75
85
86
91
100
104
110
115
119
119
124
132
133
139
143
143
147
152
156
154
154
156
155
102
100
99
102
103
101
100
100
101
101
102
110
111
111
111
108
117
117
119
121
115
115
116
119
119
111
101
90
85
83
80
79
70
65
68
70
68
70
80
85
85
95
99
102
107
105
112
120
128
133
136
142
141
141
144
146
150
151
152
155
102
103
103
101
101
99
100
100
99
104
111
113
111
105
109
114
120
120
117
122
122
121
121
121
125
126
124
118
109
106
100
92
81
71
73
76
75
74
75
83
84
92
103
103
106
105
110
123
130
134
135
138
140
136
137
142
148
151
149
150
104
100
101
99
100
102
99
101
99
100
105
104
105
103
106
112
109
112
115
117
121
120
122
123
123
125
126
129
125
123
124
115
106
94
83
82
79
77
77
78
81
87
99
100
101
108
112
121
126
126
132
129
131
133
133
139
139
141
144
147
103
100
100
102
95
98
99
96
102
102
105
105
104
106
103
107
108
110
115
113
119
122
118
122
124
126
125
131
136
129
127
125
118
112
103
96
93
93
94
90
91
95
97
98
94
101
109
115
121
121
124
125
129
133
131
133
136
138
141
140
98
101
100
97
95
93
94
94
99
101
97
97
97
103
107
103
110
111
113
113
109
113
110
113
119
123
126
124
124
127
125
124
122
119
115
112
112
104
100
97
90
94
96
99
104
106
111
109
108
116
119
123
125
124
125
127
133
132
135
144
99
102
102
94
96
98
100
101
100
103
99
100
101
97
102
99
102
103
97
101
101
99
97
94
100
106
106
108
110
113
112
115
118
117
119
113
113
113
107
105
99
100
102
100
105
105
105
105
106
115
120
122
121
122
131
135
133
130
134
141
104
103
101
95
95
98
95
97
98
99
101
98
101
98
94
97
91
89
82
76
77
78
87
91
95
105
106
106
103
99
97
93
94
95
95
101
104
107
110
107
108
110
106
101
101
103
98
101
109
109
113
117
124
125
121
126
126
130
132
133
105
102
99
96
94
101
102
104
106
97
96
97
98
100
92
84
72
69
78
82
91
95
97
102
104
112
117
116
117
110
104
102
98
92
86
87
91
95
99
102
105
105
102
103
101
99
99
102
110
110
114
118
122
126
122
124
128
133
140
136
98
99
98
98
99
100
102
100
98
96
94
97
98
92
74
61
72
81
83
85
86
86
79
73
69
69
71
72
79
84
90
100
103
100
95
90
92
89
87
88
92
98
98
98
100
98
102
103
103
110
111
115
120
122
125
126
133
136
137
141
100
98
99
99
100
101
101
98
97
99
96
94
86
62
56
68
78
81
79
79
69
55
45
34
27
28
34
34
29
35
43
60
86
97
98
98
101
100
91
90
87
89
96
99
102
98
97
98
98
103
108
115
120
120
127
128
131
131
131
140
101
100
101
100
99
104
101
100
98
94
97
91
74
63
63
74
74
64
56
46
51
79
78
50
45
44
34
16
11
27
36
39
51
71
81
92
101
102
103
104
104
95
91
95
96
98
99
100
95
92
102
108
114
118
119
125
126
131
139
138
101
99
101
104
101
102
104
102
98
96
94
83
74
70
65
60
49
36
42
71
106
127
96
51
33
57
131
129
93
83
55
46
62
101
106
85
84
90
102
108
110
108
101
98
90
89
94
96
96
91
96
106
112
117
114
120
122
125
134
131
96
99
100
100
102
101
100
97
97
96
87
77
68
61
52
43
39
36
59
95
118
123
96
54
31
54
103
100
51
44
59
50
75
133
150
122
88
76
84
94
105
115
117
110
100
92
95
97
97
96
97
101
105
109
114
110
116
122
126
131
102
102
100
98
99
100
104
102
95
90
81
75
68
60
55
55
65
66
66
89
121
139
122
67
33
40
36
34
40
47
56
54
88
145
162
147
125
106
91
84
87
100
117
124
126
118
105
96
90
91
91
93
100
106
112
111
116
122
123
130
99
99
100
98
98
103
100
94
89
82
79
71
69
70
69
74
80
85
82
86
100
126
139
105
54
38
51
50
50
57
52
74
130
162
160
146
135
132
119
99
85
78
95
116
133
138
120
106
98
90
89
90
98
106
104
108
108
114
120
119
102
101
99
101
103
106
99
92
84
76
75
75
78
81
76
82
90
92
90
85
85
102
123
120
88
53
47
52
52
50
67
118
145
135
120
104
90
86
88
78
87
109
109
103
106
124
129
118
104
92
92
91
90
98
101
107
111
112
120
118
95
100
101
100
101
99
95
84
80
82
83
89
91
92
91
86
93
94
92
95
98
99
96
99
92
81
81
77
76
79
85
95
92
90
91
90
92
83
79
77
76
88
84
72
73
98
123
121
111
99
87
88
90
95
100
97
105
110
110
115
96
99
100
102
105
100
97
90
83
90
90
92
96
96
98
93
93
95
96
107
105
102
103
102
100
100
110
116
110
105
103
109
112
105
106
99
95
92
84
88
86
89
98
97
105
113
121
126
115
100
90
86
90
92
97
98
100
107
104
110
100
98
100
102
97
97
92
95
97
92
95
95
97
94
86
90
94
104
109
109
114
112
110
111
115
121
120
122
118
113
115
111
110
109
103
103
99
91
89
92
95
97
111
125
132
131
124
118
108
93
84
81
88
90
91
98
97
103
106
104
103
103
104
106
96
92
93
95
100
95
91
92
96
97
93
99
104
107
114
115
120
121
120
123
122
123
124
122
122
120
121
120
113
113
108
101
100
97
95
92
98
108
119
133
135
129
117
102
98
88
84
88
88
91
89
92
95
97
106
108
95
99
101
97
95
93
96
99
99
97
94
97
96
95
97
100
105
106
111
115
111
116
117
119
121
119
123
124
125
126
128
128
124
120
112
102
105
104
105
105
102
109
113
117
118
115
111
98
93
93
87
87
83
85
88
85
93
99
105
112
97
99
100
96
96
95
97
97
97
99
93
93
95
95
104
101
99
103
105
113
112
114
118
117
123
127
127
127
127
126
124
125
125
120
121
116
114
118
112
115
115
107
107
106
108
105
96
93
90
94
92
88
87
82
83
84
92
99
102
111
99
97
98
94
92
97
94
92
94
95
101
100
101
101
103
105
103
105
106
106
106
101
107
112
111
117
115
119
121
120
125
124
126
123
122
125
123
126
123
116
112
105
102
96
93
93
90
95
95
91
91
86
87
85
83
89
88
93
99
100
97
100
98
97
91
92
90
93
100
98
103
100
96
102
107
112
112
113
114
109
109
108
109
114
114
120
122
123
127
123
123
124
123
126
124
127
130
126
125
119
114
111
101
96
94
94
98
96
95
91
89
87
88
89
83
88
89
90
102
102
97
100
99
97
95
88
92
93
97
101
97
100
102
104
109
110
112
115
119
120
116
117
117
120
125
125
127
127
130
130
129
134
133
128
129
128
130
129
127
124
117
109
100
99
101
99
99
97
93
89
84
87
85
83
86
82
86
90
96
101
97
97
95
92
97
95
98
100
98
98
96
102
103
102
111
112
113
113
112
117
117
114
117
121
125
128
126
125
127
136
135
130
133
132
130
130
130
131
125
116
107
103
105
104
106
101
94
96
94
93
89
87
89
86
84
83
86
92
91
96
100
94
95
96
94
96
94
99
98
97
103
97
102
106
104
108
106
107
111
117
124
115
114
122
129
130
129
133
135
140
137
127
128
130
131
129
123
119
112
107
107
107
112
110
105
103
97
92
89
87
87
84
88
85
79
84
84
88
89
87
