P2
60 28
255
126
150
170
190
197
208
212
209
211
208
214
218
218
218
203
207
209
200
200
195
192
186
176
166
149
142
137
128
127
123
120
118
116
118
114
114
113
109
113
115
122
128
129
140
142
148
156
159
175
179
188
197
196
217
222
226
234
228
234
233
123
148
168
185
202
203
209
208
203
212
211
214
212
202
206
204
202
196
186
187
180
170
156
146
146
136
134
130
126
128
120
120
123
120
122
119
122
121
116
121
123
130
133
134
146
145
151
157
161
174
176
191
201
205
220
220
229
235
231
238
125
144
170
187
204
209
210
208
202
210
209
207
206
198
200
197
189
184
177
177
167
156
155
151
154
151
150
152
148
150
144
142
144
138
135
133
134
140
137
140
141
139
142
138
147
150
150
158
156
168
177
182
195
197
214
224
227
235
231
241
126
144
170
193
200
209
207
205
204
202
209
203
193
191
188
191
182
173
171
165
168
163
163
167
166
174
173
173
175
167
167
163
162
162
151
150
146
147
151
148
153
154
153
152
146
153
154
153
159
160
176
180
187
205
209
228
235
233
239
237
129
153
173
198
205
211
207
199
202
199
203
197
181
182
184
187
180
168
171
173
179
180
178
188
190
192
189
186
191
185
183
182
175
175
166
161
157
150
154
151
152
155
151
156
155
158
160
153
160
162
174
185
189
209
215
229
246
241
245
245
128
156
181
193
207
206
207
201
195
202
196
186
176
174
186
183
183
181
179
187
187
194
198
199
209
203
204
203
198
204
195
194
190
184
184
170
164
156
147
151
147
149
149
148
156
152
160
166
161
171
167
177
194
200
224
237
245
246
240
247
137
164
189
194
204
206
204
202
196
195
189
180
175
174
187
192
190
191
187
196
200
202
210
209
217
218
217
221
212
213
209
205
208
201
200
186
172
168
155
155
150
146
151
144
149
149
150
162
160
173
177
182
204
210
230
248
247
251
248
250
142
168
189
202
202
206
203
199
195
184
180
175
173
177
182
194
191
192
200
200
209
208
212
221
219
225
220
219
225
217
219
213
213
218
204
198
183
169
165
151
149
145
141
144
139
142
143
148
160
163
178
184
198
224
234
246
250
250
253
249
146
175
188
202
204
207
208
200
192
179
174
172
173
186
188
196
199
194
203
199
204
215
213
220
216
218
221
215
222
219
217
218
210
211
199
191
186
174
171
157
150
149
139
139
135
135
141
143
158
164
174
185
192
223
240
246
251
250
253
252
147
174
191
197
206
203
204
197
182
181
175
183
190
190
197
193
194
194
193
204
204
212
214
213
222
213
216
216
212
220
209
209
202
188
189
179
181
178
163
160
145
139
134
130
138
134
138
146
147
160
163
179
199
216
241
247
249
252
251
253
155
178
194
193
203
205
201
194
176
176
182
189
195
188
188
186
187
193
191
198
200
204
215
210
216
212
205
208
197
200
194
184
188
180
180
175
165
164
149
145
137
127
130
124
129
131
132
144
145
159
165
172
197
212
234
248
248
254
253
253
157
180
194
203
203
208
205
191
181
178
185
185
184
187
183
188
186
189
197
192
201
203
206
211
204
204
192
185
187
179
182
173
163
160
146
141
133
127
125
115
120
120
122
125
117
125
130
137
151
154
164
170
185
213
227
243
252
252
254
254
159
181
192
202
202
204
202
193
189
184
188
191
187
191
184
183
191
191
200
197
199
204
198
202
194
187
182
170
170
156
146
141
129
128
121
123
125
117
120
108
106
112
110
119
120
125
130
132
149
155
167
180
185
212
227
238
252
252
254
254
153
181
196
197
206
204
203
194
183
187
188
189
186
184
187
183
189
192
192
201
197
200
198
188
182
162
151
141
126
122
113
107
104
104
111
107
109
110
109
117
113
114
112
107
121
123
127
133
141
160
168
180
190
202
229
241
247
251
249
252
155
181
198
196
204
206
200
194
186
189
186
180
180
176
182
183
187
198
198
204
201
195
189
165
148
135
127
123
109
105
98
92
97
96
100
102
94
91
91
106
111
110
120
115
120
128
130
139
145
162
171
180
199
204
227
245
246
251
249
251
152
179
192
199
199
205
200
194
192
187
190
182
179
185
181
188
189
194
200
195
190
168
148
135
124
126
120
112
111
111
111
104
97
91
99
115
108
96
100
107
112
107
112
122
122
138
142
147
164
165
177
186
198
216
224
240
248
248
249
246
141
171
187
198
198
200
200
193
193
188
190
189
181
185
184
191
198
195
191
166
141
126
121
126
122
125
134
125
115
115
120
114
91
76
87
112
117
102
110
128
127
112
101
113
124
144
160
161
177
181
186
196
201
221
230
238
247
243
249
250
133
165
183
191
200
198
200
197
192
193
187
191
188
182
191
195
201
188
154
125
112
119
121
119
127
144
163
154
117
104
119
111
80
56
73
115
126
111
113
138
135
112
97
94
113
139
172
186
186
199
194
200
210
216
232
235
242
248
242
244
131
156
184
192
198
198
198
202
196
194
192
192
192
186
190
192
182
152
120
117
121
120
116
119
136
156
181
178
133
107
115
116
106
101
116
134
123
107
118
147
143
117
109
99
105
127
169
210
214
216
209
206
218
219
234
245
241
245
242
245
131
154
178
193
195
201
199
201
200
194
195
190
188
190
189
185
154
121
118
125
138
135
130
133
140
163
185
193
158
115
114
124
127
132
134
126
106
111
134
139
138
121
117
129
127
153
185
206
222
216
216
212
215
227
231
244
242
239
242
239
122
150
171
194
198
200
201
200
203
195
193
192
189
194
186
161
131
120
136
144
152
161
160
163
160
165
183
193
176
137
118
122
125
128
128
123
126
144
163
159
160
164
166
189
198
206
214
209
215
214
215
219
216
230
235
238
244
239
247
246
105
134
166
188
202
197
203
206
200
199
191
193
193
185
172
142
137
142
146
159
161
175
183
182
184
176
181
183
177
178
172
169
162
160
175
177
185
191
187
193
184
186
197
200
215
217
216
209
205
218
217
221
224
221
232
230
238
247
243
248
101
125
163
184
204
203
201
206
199
200
194
193
193
177
165
153
152
159
156
168
179
186
197
194
194
188
181
183
181
186
193
197
200
195
198
194
188
192
185
190
193
193
204
206
216
216
205
210
212
222
222
218
228
224
231
235
234
245
245
248
101
120
156
190
198
204
201
202
206
196
198
196
189
180
163
165
163
168
182
187
202
201
201
206
202
201
187
178
178
169
174
169
166
173
170
182
185
189
197
193
202
204
210
218
212
215
210
214
227
223
227
224
224
234
227
237
241
239
244
239
105
118
147
188
201
201
203
202
207
201
197
196
194
193
176
174
185
190
206
213
218
217
206
206
202
199
196
186
188
181
180
187
185
198
201
202
207
200
206
205
209
219
218
224
220
219
224
224
234
229
222
227
222
230
230
234
244
239
246
243
101
111
144
188
212
202
203
205
203
205
199
201
201
192
190
189
203
217
219
227
222
223
223
216
222
219
230
233
220
221
216
220
220
215
218
207
207
205
200
216
219
224
228
222
227
225
233
235
229
232
219
222
229
226
237
235
241
247
240
245
99
100
134
179
206
202
201
207
200
202
207
207
207
198
204
212
220
228
221
230
237
238
245
238
243
244
242
245
235
235
231
223
227
219
222
223
217
221
216
223
226
227
236
230
235
241
237
239
229
224
221
220
231
228
237
244
238
246
243
245
97
90
126
189
206
204
202
204
207
203
216
219
214
215
214
227
234
233
236
235
244
248
245
246
243
247
245
240
241
234
234
229
227
233
228
232
233
230
228
222
230
233
235
244
240
245
240
233
233
222
224
224
225
235
234
243
248
247
250
245
