P2
60 28
255
116
126
137
147
164
176
194
205
213
220
213
218
219
218
224
221
221
213
205
207
201
201
201
195
189
170
157
149
142
141
134
135
133
127
127
122
124
123
122
124
121
135
142
143
154
157
167
170
176
191
192
205
213
219
233
230
235
238
235
242
112
123
136
145
163
176
195
209
214
221
217
219
220
216
223
221
212
204
205
208
199
194
191
181
171
158
152
148
139
139
136
136
133
129
136
133
130
130
128
131
130
136
146
143
155
156
158
167
167
186
191
198
212
212
228
231
233
242
235
241
114
121
130
141
155
179
197
213
220
216
221
216
213
215
210
212
203
201
207
199
193
180
172
163
156
161
159
162
165
161
168
161
157
158
154
158
149
146
151
149
154
152
153
156
152
160
159
162
168
169
187
191
198
211
215
231
235
237
241
238
115
122
128
135
150
180
197
208
217
214
220
216
210
216
211
206
198
197
203
191
181
174
170
174
172
181
188
190
198
197
197
189
183
187
178
174
169
161
164
161
167
166
165
171
164
167
170
166
170
167
182
194
195
211
215
233
247
241
243
243
115
120
124
131
153
172
194
207
212
218
210
210
209
210
208
192
189
193
192
184
173
184
189
190
202
203
215
215
211
214
209
213
207
197
198
186
184
176
165
169
163
169
170
164
169
166
171
172
170
177
177
189
200
207
225
233
244
251
247
248
109
112
117
125
155
174
193
211
216
221
211
206
206
200
199
185
184
194
193
197
196
200
208
208
219
221
227
234
227
230
229
227
227
218
222
213
201
193
176
172
165
164
168
160
165
164
167
177
175
181
181
189
204
208
228
243
247
252
249
251
107
108
113
127
147
176
193
208
217
210
208
203
200
200
192
180
178
198
208
205
212
211
220
228
223
232
234
236
239
232
236
232
233
236
233
240
228
211
196
176
174
166
162
164
158
164
159
163
175
173
186
190
201
222
234
248
248
248
251
247
101
103
112
129
143
173
197
210
219
213
210
203
196
191
183
183
187
201
218
216
219
219
219
229
228
234
234
231
238
232
238
242
235
239
235
238
233
221
217
197
186
176
164
167
158
158
155
151
165
169
182
190
194
220
235
245
249
248
252
252
94
97
106
122
150
175
202
212
213
217
206
202
193
181
181
185
201
212
215
220
213
217
217
221
235
226
232
232
227
236
230
237
235
229
230
219
223
219
211
212
193
183
170
156
155
149
154
156
156
168
172
187
197
211
236
244
250
253
253
254
95
97
108
124
155
180
201
209
208
214
209
199
188
178
188
197
209
217
213
218
211
213
219
217
230
227
229
236
224
228
224
222
224
212
216
210
210
216
207
203
187
175
167
149
149
147
147
155
155
165
168
174
191
204
230
244
247
253
253
253
96
94
105
131
157
187
201
208
214
211
205
186
178
187
201
214
210
210
209
204
210
205
208
216
216
227
225
222
217
207
216
213
214
213
200
202
189
180
176
163
165
157
154
152
140
144
141
147
157
159
173
177
185
202
213
236
248
250
252
250
98
104
113
135
163
191
202
205
213
211
199
179
176
191
199
206
205
204
209
204
205
204
203
216
215
220
220
211
217
211
210
200
183
178
162
158
157
148
148
132
125
124
123
136
133
137
140
141
156
161
172
181
184
202
212
232
249
247
251
251
92
101
116
136
167
187
203
209
209
210
196
188
183
189
206
208
209
202
198
202
197
203
203
206
217
215
216
207
195
187
172
164
154
144
144
141
146
148
149
152
138
128
119
115
125
127
137
140
145
164
172
186
192
194
217
230
242
250
246
248
92
102
118
137
170
189
203
209
208
211
200
190
189
193
204
203
201
202
196
200
198
203
212
213
222
219
197
176
164
168
158
140
127
105
100
97
92
95
96
115
128
133
138
129
130
128
132
143
142
163
177
186
198
198
218
231
238
248
244
248
94
100
117
145
172
198
202
208
211
206
206
193
189
192
190
196
195
195
195
190
200
204
213
215
195
175
158
164
163
139
120
110
107
102
101
104
107
110
101
94
109
116
126
136
134
144
144
148
161
169
186
188
195
208
214
232
240
244
247
241
92
100
119
148
174
197
204
206
212
206
201
193
190
196
193
195
194
190
194
192
204
210
196
177
156
158
161
148
138
119
120
147
145
120
98
90
105
125
120
104
124
133
120
126
128
146
162
166
185
193
198
199
200
214
216
231
243
239
244
240
93
103
119
146
175
189
201
205
206
208
201
197
195
197
200
193
194
191
192
206
209
190
147
131
152
153
134
132
159
164
143
140
141
125
93
71
96
135
130
117
141
157
136
116
116
127
164
192
204
217
210
209
207
208
224
228
240
243
237
242
92
101
114
140
179
196
201
204
203
208
199
194
197
196
203
197
193
195
196
207
188
146
132
144
147
128
125
155
193
194
147
120
137
137
98
81
117
151
139
126
155
171
148
114
110
113
141
199
226
240
233
219
218
214
228
234
233
241
237
245
93
99
114
141
169
194
199
203
207
201
202
199
200
204
200
203
193
193
201
185
153
130
142
145
122
114
130
162
200
214
171
125
132
145
147
149
154
147
128
134
171
174
152
131
119
130
141
188
235
236
234
220
215
222
220
229
229
234
244
239
92
99
108
135
163
189
196
197
204
200
203
203
201
206
199
199
197
197
196
157
133
142
145
145
139
139
148
169
203
229
204
150
131
139
145
148
146
130
135
161
182
179
168
178
187
206
222
225
232
222
220
220
216
224
222
225
233
233
243
240
88
96
109
128
156
178
194
199
199
202
198
204
203
200
204
197
199
195
166
144
143
154
155
160
178
179
186
191
198
215
210
187
164
161
168
172
184
191
195
206
207
209
209
207
217
222
233
234
218
218
216
222
221
219
230
224
235
240
234
242
90
96
104
119
151
175
191
200
199
202
200
203
204
200
206
203
198
185
161
161
160
161
171
177
190
196
201
205
199
204
204
200
206
212
216
216
215
214
206
205
203
204
210
207
216
220
217
219
211
221
223
217
224
218
227
232
231
241
239
245
91
94
101
121
147
176
190
198
201
197
206
206
205
206
200
202
192
180
174
167
174
174
181
195
198
212
214
213
208
195
196
189
188
189
180
185
182
189
199
194
205
205
208
217
216
222
214
212
221
221
231
223
218
224
222
235
238
241
247
240
87
95
98
113
141
171
187
194
204
201
204
205
202
205
202
204
197
179
177
174
185
197
205
219
217
218
218
210
210
201
199
197
189
197
196
203
210
207
215
208
208
215
214
225
223
220
219
216
230
230
225
222
215
226
224
230
243
243
251
248
85
95
99
101
125
153
179
194
201
206
202
207
206
203
208
204
204
193
182
197
205
224
230
223
227
217
220
223
223
238
234
236
234
228
235
227
225
220
212
214
206
216
223
223
230
223
228
234
232
237
226
224
223
219
229
225
236
249
247
252
88
97
101
99
120
147
176
200
201
204
202
207
210
204
213
211
204
203
201
217
227
231
235
233
244
245
242
244
244
251
248
244
243
233
235
232
226
230
222
222
224
228
235
230
237
239
238
242
232
233
228
221
225
221
232
240
240
251
253
254
93
96
100
101
111
146
174
195
205
199
205
207
207
210
212
218
209
209
222
229
237
232
236
247
245
250
250
250
252
249
251
244
241
242
236
240
235
234
238
229
234
230
230
236
235
246
240
235
236
228
228
222
225
232
229
242
251
252
254
254
96
93
100
109
109
134
170
196
210
202
206
208
208
221
223
225
221
224
237
237
243
246
244
248
250
251
253
253
254
252
252
247
240
242
239
242
244
237
241
236
235
238
236
245
244
246
246
236
234
227
225
227
225
235
237
242
253
253
254
254
